<?xml version="1.0" standalone="no"?>
<svg width="567.429" height="384.969" viewBox="0 0 567.429 384.969" xmlns="http://www.w3.org/2000/svg" shape-rendering="crispEdges">
<title>
img/calibration/A_Cs_1900V.svg
</title>
<desc>
Creator: ROOT Version 6.22/09
CreationDate: Wed Jun  9 15:24:52 2021</desc>
<defs>
</defs>
<rect x="0.5" y="0" width="566.929" height="384.469" fill="white"/>
<rect x="57.1929" y="38.4469" width="453.543" height="307.575" fill="white"/>
<rect x="57.1929" y="38.4469" width="453.543" height="307.575" fill="none" stroke="black"/>
<rect x="57.1929" y="38.4469" width="453.543" height="307.575" fill="white"/>
<rect x="57.1929" y="38.4469" width="453.543" height="307.575" fill="none" stroke="black"/>
<path d="M57.1929,240.751h 0.907087v -9.15403h 0.453543v -22.8851h 0.453543v 32.0391h 0.453543v -68.6552h 0.453543v -27.4621h 0.453543v 27.4621h 0.453543v 50.3472h 0.453543v -45.7701h 0.453543v -18.3081h 0.453543v -13.731h 0.453543v 4.57701h
 0.453543v -41.1931h 0.453543v 18.3081h 0.453543v -13.731h 0.453543v 45.7701h 0.453543v -59.5012h 0.453543v 18.3081h 0.453543v -4.57701h 0.453543v -9.15403h 0.453543v 18.3081h 0.453543v 18.3081h 0.453543v 13.731h 0.453543v -41.1931h 0.453543v
 41.1931h 0.453543v 4.57701h 0.453543v -59.5012h 0.453543v -9.15403h 0.453543v 22.8851h 0.453543v -18.3081h 0.453543v 54.9242h 0.453543v 13.731h 0.453543v -54.9242h 0.453543v 27.4621h 0.453543v -9.15403h 0.453543v 13.731h 0.453543v -9.15403h
 0.453543v -18.3081h 0.453543v 45.7701h 0.453543v 50.3472h 0.453543v -45.7701h 0.453543v -9.15403h 0.453543v -9.15403h 0.453543v -27.4621h 0.453543v -64.0782h 0.453543v 114.425h 0.453543v -4.57701h 0.453543v 9.15403h 0.453543v -77.8092h 0.453543v
 41.1931h 0.453543v 27.4621h 0.453543v 22.8851h 0.453543v -59.5012h 0.453543v 68.6552h 0.453543v -4.57701h 0.453543v -4.57701h 0.453543v 9.15403h 0.453543v -36.6161h 0.453543v -22.8851h 0.453543v 59.5012h 0.453543v -32.0391h 0.453543v -22.8851h
 0.453543v 50.3472h 0.453543v 32.0391h 0.453543v -77.8092h 0.453543v 27.4621h 0.453543v 18.3081h 0.453543v 32.0391h 0.453543v -54.9242h 0.453543v 22.8851h 0.453543v 9.15403h 0.453543v 13.731h 0.453543v -22.8851h 0.453543v -9.15403h 0.453543v 18.3081h
 0.453543v 36.6161h 0.453543v 22.8851h 0.453543v -27.4621h 0.453543v -9.15403h 0.453543v -4.57701h 0.453543v -22.8851h 0.453543v 22.8851h 0.453543v 41.1931h 0.453543v -36.6161h 0.453543v -13.731h 0.907087v -18.3081h 0.453543v 36.6161h 0.453543v
 -54.9242h 0.453543v 77.8092h 0.453543v -18.3081h 0.453543v -22.8851h 0.453543v -18.3081h 0.453543v 32.0391h 0.453543v -9.15403h 0.453543v -13.731h 0.453543v 27.4621h 0.453543v 32.0391h 0.453543v -68.6552h 0.453543v 41.1931h 0.907087v -9.15403h
 0.453543v 18.3081h 0.453543v -13.731h 0.453543v 32.0391h 0.453543v -4.57701h 0.453543v 9.15403h 0.453543v -36.6161h 0.453543v 18.3081h 0.453543v -54.9242h 0.453543v 50.3472h 0.453543v 9.15403h 0.453543v -18.3081h 0.453543v 13.731h 0.453543v
 -4.57701h 0.453543v 4.57701h 0.453543v -13.731h 0.453543v -13.731h 0.907087v 45.7701h 0.453543v -54.9242h 0.453543v 41.1931h 0.453543v -4.57701h 0.453543v 4.57701h 0.453543v -9.15403h 0.453543v 22.8851h 0.453543v -13.731h 0.453543v 22.8851h
 0.453543v -32.0391h 0.453543v -22.8851h 0.453543v 32.0391h 0.453543v -18.3081h 0.453543v 45.7701h 0.453543v -18.3081h 0.453543v 9.15403h 0.453543v -13.731h 0.453543v -9.15403h 0.453543v 4.57701h 0.453543v -22.8851h 0.453543v 27.4621h 0.453543v
 -36.6161h 0.453543v 59.5012h 0.453543v -32.0391h 0.453543v 13.731h 0.453543v 4.57701h 0.453543v -27.4621h 0.453543v 13.731h 0.453543v 18.3081h 0.453543v -9.15403h 0.453543v -13.731h 0.453543v 13.731h 0.453543v 22.8851h 0.453543v -41.1931h 0.453543v
 27.4621h 0.453543v -18.3081h 0.453543v -36.6161h 0.453543v 54.9242h 0.453543v -41.1931h 0.453543v 27.4621h 0.453543v 9.15403h 0.453543v 32.0391h 0.453543v -82.3863h 0.453543v 68.6552h 0.453543v -27.4621h 0.453543v -4.57701h 0.907087v 18.3081h
 0.453543v -4.57701h 0.907087v 18.3081h 0.453543v -41.1931h 0.453543v 41.1931h 0.453543v -32.0391h 0.453543v 9.15403h 0.453543v -13.731h 0.453543v 32.0391h 0.453543v -9.15403h 0.453543v 9.15403h 0.453543v -18.3081h 0.453543v 4.57701h 0.453543v
 -13.731h 0.453543v 9.15403h 0.453543v -27.4621h 0.453543v 22.8851h 0.453543v 9.15403h 0.453543v -22.8851h 0.453543v 27.4621h 0.453543v -9.15403h 0.453543v -50.3472h 0.453543v 32.0391h 0.453543v 45.7701h 0.453543v -32.0391h 0.453543v -13.731h
 0.453543v 27.4621h 0.453543v 22.8851h 0.453543v -27.4621h 0.453543v -22.8851h 0.453543v 50.3472h 0.453543v -59.5012h 0.453543v 18.3081h 0.453543v 32.0391h 0.907087v -32.0391h 0.453543v -9.15403h 0.453543v 9.15403h 0.453543v 13.731h 0.453543v
 18.3081h 0.453543v -9.15403h 0.453543v -22.8851h 0.453543v 18.3081h 0.453543v -9.15403h 0.453543v -4.57701h 0.453543v 18.3081h 0.453543v 4.57701h 0.453543v -18.3081h 0.453543v 22.8851h 0.453543v -18.3081h 0.453543v -4.57701h 0.453543v 32.0391h
 0.453543v -13.731h 0.453543v -50.3472h 0.453543v 9.15403h 0.453543v -4.57701h 0.453543v 50.3472h 0.453543v -36.6161h 0.453543v 4.57701h 0.453543v 18.3081h 0.453543v 4.57701h 0.453543v -32.0391h 0.453543v -18.3081h 0.453543v 22.8851h 0.453543v
 27.4621h 0.453543v -22.8851h 0.453543v 22.8851h 0.453543v 36.6161h 0.453543v -36.6161h 0.453543v -27.4621h 0.453543v 18.3081h 0.453543v 27.4621h 0.453543v -27.4621h 0.453543v 13.731h 0.453543v -4.57701h 0.453543v -4.57701h 0.453543v 9.15403h
 0.453543v -4.57701h 0.453543v -9.15403h 0.453543v -13.731h 0.453543v -13.731h 0.453543v 13.731h 0.453543v -4.57701h 0.453543v 41.1931h 0.453543v -18.3081h 0.453543v -4.57701h 0.453543v 4.57701h 0.453543v 22.8851h 0.453543v -36.6161h 0.453543v
 45.7701h 0.453543v -27.4621h 0.453543v -36.6161h 0.453543v 27.4621h 0.453543v 13.731h 0.453543v -32.0391h 0.453543v 22.8851h 0.453543v 9.15403h 0.453543v -27.4621h 0.453543v 32.0391h 0.453543v 4.57701h 0.453543v -68.6552h 0.453543v 54.9242h
 0.453543v -13.731h 0.453543v -4.57701h 0.453543v -27.4621h 0.453543v 59.5012h 0.453543v -32.0391h 1.36063v 9.15403h 0.453543v -13.731h 0.453543v -9.15403h 0.907087v 36.6161h 0.453543v -50.3472h 0.453543v 36.6161h 0.453543v 32.0391h 0.453543v
 -32.0391h 0.453543v -9.15403h 0.907087v 4.57701h 0.453543v -9.15403h 0.453543v 13.731h 0.453543v -32.0391h 0.453543v 54.9242h 0.453543v -9.15403h 0.453543v 9.15403h 0.453543v -13.731h 0.453543v -9.15403h 0.453543v -13.731h 0.453543v 36.6161h
 0.453543v -13.731h 0.453543v -18.3081h 0.453543v 13.731h 0.453543v -9.15403h 0.453543v 9.15403h 1.36063v -27.4621h 0.453543v 22.8851h 0.453543v -18.3081h 0.453543v 9.15403h 0.453543v 18.3081h 0.453543v -22.8851h 0.453543v 13.731h 0.453543v -36.6161h
 0.453543v 50.3472h 0.453543v -4.57701h 0.453543v -41.1931h 0.907087v 9.15403h 0.453543v 27.4621h 0.453543v -18.3081h 0.453543v 18.3081h 0.453543v -4.57701h 0.907087v -22.8851h 0.907087v 32.0391h 0.453543v -45.7701h 0.453543v 64.0782h 0.453543v
 -9.15403h 0.453543v -45.7701h 0.453543v 18.3081h 0.453543v 9.15403h 0.453543v 4.57701h 0.453543v -22.8851h 0.453543v 22.8851h 0.907087v -36.6161h 0.453543v 18.3081h 0.453543v -22.8851h 0.453543v 73.2322h 0.453543v -64.0782h 0.453543v -9.15403h
 0.453543v -4.57701h 0.453543v 22.8851h 0.453543v 18.3081h 0.453543v -22.8851h 0.453543v 32.0391h 0.453543v -54.9242h 0.453543v 54.9242h 0.453543v -9.15403h 0.453543v -32.0391h 0.453543v 27.4621h 0.453543v -9.15403h 0.453543v 36.6161h 0.453543v
 -9.15403h 0.453543v -4.57701h 0.453543v 18.3081h 0.453543v -4.57701h 0.453543v -9.15403h 0.453543v -13.731h 0.907087v 9.15403h 0.453543v -4.57701h 0.453543v -18.3081h 0.453543v 32.0391h 0.453543v -22.8851h 0.453543v 9.15403h 0.453543v -18.3081h
 0.453543v 18.3081h 0.453543v -9.15403h 0.453543v 27.4621h 0.453543v -4.57701h 0.453543v -22.8851h 0.453543v 22.8851h 0.453543v -22.8851h 0.453543v 27.4621h 0.453543v -22.8851h 0.453543v 4.57701h 0.453543v 9.15403h 0.453543v 13.731h 0.453543v
 -18.3081h 0.453543v 45.7701h 0.453543v -4.57701h 0.453543v -9.15403h 0.453543v -41.1931h 0.453543v 27.4621h 0.453543v -27.4621h 0.453543v 41.1931h 0.453543v -27.4621h 0.453543v 18.3081h 0.453543v -4.57701h 0.453543v 13.731h 0.453543v -4.57701h
 0.453543v 9.15403h 1.36063v -13.731h 0.453543v -9.15403h 0.453543v 22.8851h 0.453543v 4.57701h 0.453543v -13.731h 0.453543v 4.57701h 0.453543v 9.15403h 0.453543v -13.731h 0.453543v 13.731h 0.453543v 13.731h 0.453543v -27.4621h 0.453543v 36.6161h
 0.453543v -27.4621h 0.453543v 18.3081h 0.453543v -36.6161h 0.453543v 18.3081h 0.453543v 13.731h 0.453543v -4.57701h 0.907087v -18.3081h 0.453543v 18.3081h 0.453543v -9.15403h 0.453543v 22.8851h 0.453543v -27.4621h 0.453543v 9.15403h 0.453543v
 9.15403h 0.453543v -18.3081h 0.453543v 41.1931h 0.453543v -36.6161h 0.453543v 22.8851h 0.453543v -13.731h 0.453543v 18.3081h 0.453543v -18.3081h 0.453543v 4.57701h 0.453543v 4.57701h 0.453543v -4.57701h 0.453543v -4.57701h 0.453543v 9.15403h
 0.453543v 9.15403h 0.907087v -18.3081h 0.453543v 22.8851h 0.453543v -13.731h 0.907087v -4.57701h 0.453543v 22.8851h 0.453543v -18.3081h 0.453543v 4.57701h 0.907087v 13.731h 0.453543v -18.3081h 0.453543v 13.731h 0.453543v -13.731h 0.453543v 9.15403h
 0.453543v -4.57701h 1.36063v 9.15403h 0.453543v -9.15403h 0.453543v 4.57701h 1.36063v 9.15403h 0.453543v -13.731h 0.453543v 4.57701h 0.453543v 9.15403h 0.453543v -18.3081h 0.453543v 9.15403h 0.453543v 4.57701h 0.453543v 4.57701h 0.907087v -4.57701h
 0.907087v 4.57701h 0.453543v -9.15403h 0.453543v 4.57701h 0.907087v 4.57701h 0.453543v -4.57701h 0.907087v -13.731h 0.453543v 13.731h 1.81417v 4.57701h 0.453543v -4.57701h 0.453543v 4.57701h 0.453543v -4.57701h 0.453543v 4.57701h 0.907087v -4.57701h
 1.36063v 4.57701h 0.453543v -4.57701h 0.453543v 4.57701h 0.453543v -9.15403h 0.453543v 4.57701h 0.453543v 4.57701h 4.98898v -4.57701h 0.453543v 4.57701h 1.81417v -4.57701h 3.1748v -4.57701h 0.907087v 9.15403h 0.907087v -4.57701h 0.453543v 4.57701h
 1.36063v -4.57701h 0.907087v 4.57701h 1.36063v -4.57701h 0.453543v 4.57701h 0.907087v -9.15403h 0.453543v 9.15403h 0.453543v -4.57701h 0.453543v 4.57701h 0.453543v -4.57701h 0.907087v 4.57701h 0.907087v -9.15403h 0.453543v 9.15403h 2.26772v
 -4.57701h 0.453543v 4.57701h 2.26772v -4.57701h 0.453543v 4.57701h 3.1748v -4.57701h 0.453543v 4.57701h 0.453543v -4.57701h 0.453543v 4.57701h 0.453543v -4.57701h 0.907087v -9.15403h 0.453543v 9.15403h 0.453543v 4.57701h 3.1748v -4.57701h 0.453543v
 4.57701h 0.907087v -4.57701h 0.453543v 4.57701h 8.61732v -4.57701h 0.453543v 4.57701h 3.1748v -4.57701h 0.907087v 4.57701h 1.36063v -4.57701h 0.453543v 4.57701h 1.81417v -4.57701h 0.453543v 4.57701h 6.80315v -4.57701h 0.907087v 4.57701h 8.16378v
 -4.57701h 0.453543v 4.57701h 12.2457v -4.57701h 0.907087v 4.57701h 4.98898v -4.57701h 0.453543v 4.57701h 7.25669v -4.57701h 0.453543v 4.57701h 6.34961v -4.57701h 0.453543v 4.57701h 11.3386v -4.57701h 0.453543v 4.57701h 0.453543v -4.57701h 0.453543v
 4.57701h 28.5732v -4.57701h 0.453543v 4.57701h 4.08189v -4.57701h 0.453543v 4.57701h 31.748v -4.57701h 0.453543v 4.57701h 44.4472" fill="none" stroke="#000099"/>
<path d="M148.809,263.201l 1.81417, 5.73958e-05l 1.81417, 8.91799e-05l 1.81417, 0.000137312l 1.81417, 0.000209511l 1.81417, 0.000316782l 1.81417, 0.000474646l 1.81417, 0.000704749l 1.81417, 0.00103694l 1.81417, 0.00151192l 1.81417, 0.00218455l
 1.81417, 0.00312786l 1.81417, 0.00443803l 1.81417, 0.00624005l 1.81417, 0.00869443l 1.81417, 0.0120047l 1.81417, 0.0164253l 1.81417, 0.0222707l 1.81417, 0.0299233l 1.81417, 0.0398419l 1.81417, 0.0525687l 1.81417, 0.0687336l 1.81417, 0.0890567l
 1.81417, 0.114346l 1.81417, 0.145488l 1.81417, 0.183439l 1.81417, 0.229199l 1.81417, 0.283784l 1.81417, 0.348192l 1.81417, 0.423355l 1.81417, 0.51009l 1.81417, 0.609038l 1.81417, 0.720605l 1.81417, 0.844901l 1.81417, 0.98168l 1.81417, 1.13029l
 1.81417, 1.28963l 1.81417, 1.45813l 1.81417, 1.63374l 1.81417, 1.81394l 1.81417, 1.99582l 1.81417, 2.17608l 1.81417, 2.35116l 1.81417, 2.51737l 1.81417, 2.67096l 1.81417, 2.80829l 1.81417, 2.92599l 1.81417, 3.02106l 1.81417, 3.09101l 1.81417, 3.134"
 fill="none" stroke="#ff0000" stroke-width="2"/>
<path d="M237.703,302.973l 1.81417, 3.14884l 1.81417, 3.13516l 1.81417, 3.09331l 1.81417, 3.02443l 1.81417, 2.93034l 1.81417, 2.81352l 1.81417, 2.67692l 1.81417, 2.52393l 1.81417, 2.35817l 1.81417, 2.18337l 1.81417, 2.00326l 1.81417, 1.82138l
 1.81417, 1.64104l 1.81417, 1.46519l 1.81417, 1.29636l 1.81417, 1.13661l 1.81417, 0.987538l 1.81417, 0.850259l 1.81417, 0.725445l 1.81417, 0.613356l 1.81417, 0.513898l 1.81417, 0.426674l 1.81417, 0.351052l 1.81417, 0.286221l 1.81417, 0.231253l
 1.81417, 0.185153l 1.81417, 0.146902l 1.81417, 0.1155l 1.81417, 0.0899888l 1.81417, 0.0694788l 1.81417, 0.0531584l 1.81417, 0.0403039l 1.81417, 0.0302815l 1.81417, 0.0225457l 1.81417, 0.0166343l 1.81417, 0.0419023h 23.5843" fill="none"
 stroke="#ff0000" stroke-width="2"/>
<path d="M326.598,346.022h 1.81417" fill="none" stroke="#ff0000" stroke-width="2"/>
<rect x="442.705" y="24.9905" width="113.386" height="61.5151" fill="white"/>
<path d="M442.705,86.5056h 113.386" fill="none" stroke="black"/>
<path d="M556.091,86.5056v -61.5151" fill="none" stroke="black"/>
<path d="M556.091,24.9905h -113.386" fill="none" stroke="black"/>
<path d="M442.705,24.9905v 61.5151" fill="none" stroke="black"/>
<text xml:space="preserve" x="460.723" y="36.6549" fill="black" font-size="13.4802" font-family="Helvetica">A_Cs_1900V</text>
<path d="M442.705,40.3693h 113.386" fill="none" stroke="black"/>
<text xml:space="preserve" x="447.69" y="52.946" fill="black" font-size="12.7186" font-family="Helvetica">Entries </text>
<text xml:space="preserve" x="512.854" y="52.946" fill="black" font-size="12.7186" font-family="Helvetica"> 10000</text>
<text xml:space="preserve" x="447.69" y="67.6079" fill="black" font-size="12.7186" font-family="Helvetica">Mean  </text>
<text xml:space="preserve" x="512.854" y="67.6079" fill="black" font-size="12.7186" font-family="Helvetica">  434.6</text>
<text xml:space="preserve" x="447.69" y="83.0844" fill="black" font-size="12.7186" font-family="Helvetica">Std Dev   </text>
<text xml:space="preserve" x="516.112" y="83.0844" fill="black" font-size="12.7186" font-family="Helvetica">    322</text>
<path d="M57.1929,346.022h 453.543" fill="none" stroke="black"/>
<path d="M57.1929,336.795v 9.22726" fill="none" stroke="black"/>
<path d="M75.3346,341.409v 4.61363" fill="none" stroke="black"/>
<path d="M93.4764,341.409v 4.61363" fill="none" stroke="black"/>
<path d="M111.618,341.409v 4.61363" fill="none" stroke="black"/>
<path d="M129.76,341.409v 4.61363" fill="none" stroke="black"/>
<path d="M147.902,336.795v 9.22726" fill="none" stroke="black"/>
<path d="M166.043,341.409v 4.61363" fill="none" stroke="black"/>
<path d="M184.185,341.409v 4.61363" fill="none" stroke="black"/>
<path d="M202.327,341.409v 4.61363" fill="none" stroke="black"/>
<path d="M220.469,341.409v 4.61363" fill="none" stroke="black"/>
<path d="M238.61,336.795v 9.22726" fill="none" stroke="black"/>
<path d="M256.752,341.409v 4.61363" fill="none" stroke="black"/>
<path d="M274.894,341.409v 4.61363" fill="none" stroke="black"/>
<path d="M293.035,341.409v 4.61363" fill="none" stroke="black"/>
<path d="M311.177,341.409v 4.61363" fill="none" stroke="black"/>
<path d="M329.319,336.795v 9.22726" fill="none" stroke="black"/>
<path d="M347.461,341.409v 4.61363" fill="none" stroke="black"/>
<path d="M365.602,341.409v 4.61363" fill="none" stroke="black"/>
<path d="M383.744,341.409v 4.61363" fill="none" stroke="black"/>
<path d="M401.886,341.409v 4.61363" fill="none" stroke="black"/>
<path d="M420.028,336.795v 9.22726" fill="none" stroke="black"/>
<path d="M438.169,341.409v 4.61363" fill="none" stroke="black"/>
<path d="M456.311,341.409v 4.61363" fill="none" stroke="black"/>
<path d="M474.453,341.409v 4.61363" fill="none" stroke="black"/>
<path d="M492.594,341.409v 4.61363" fill="none" stroke="black"/>
<path d="M510.736,336.795v 9.22726" fill="none" stroke="black"/>
<text xml:space="preserve" x="53.446" y="358.403" fill="black" font-size="12.8453" font-family="Helvetica">0</text>
<text xml:space="preserve" x="136.53" y="358.403" fill="black" font-size="12.8453" font-family="Helvetica">500</text>
<text xml:space="preserve" x="224.502" y="358.403" fill="black" font-size="12.8453" font-family="Helvetica">1000</text>
<text xml:space="preserve" x="314.918" y="358.403" fill="black" font-size="12.8453" font-family="Helvetica">1500</text>
<text xml:space="preserve" x="406.148" y="358.403" fill="black" font-size="12.8453" font-family="Helvetica">2000</text>
<text xml:space="preserve" x="496.563" y="358.403" fill="black" font-size="12.8453" font-family="Helvetica">2500</text>
<text xml:space="preserve" x="451.763" y="372.251" fill="black" font-size="12.8453" font-family="Helvetica">ADC value</text>
<path d="M57.1929,346.022v -307.575" fill="none" stroke="black"/>
<path d="M70.7992,346.022h -13.6063" fill="none" stroke="black"/>
<path d="M63.9961,336.868h -6.80315" fill="none" stroke="black"/>
<path d="M63.9961,327.714h -6.80315" fill="none" stroke="black"/>
<path d="M63.9961,318.56h -6.80315" fill="none" stroke="black"/>
<path d="M63.9961,309.406h -6.80315" fill="none" stroke="black"/>
<path d="M70.7992,300.252h -13.6063" fill="none" stroke="black"/>
<path d="M63.9961,291.098h -6.80315" fill="none" stroke="black"/>
<path d="M63.9961,281.944h -6.80315" fill="none" stroke="black"/>
<path d="M63.9961,272.79h -6.80315" fill="none" stroke="black"/>
<path d="M63.9961,263.636h -6.80315" fill="none" stroke="black"/>
<path d="M70.7992,254.482h -13.6063" fill="none" stroke="black"/>
<path d="M63.9961,245.328h -6.80315" fill="none" stroke="black"/>
<path d="M63.9961,236.174h -6.80315" fill="none" stroke="black"/>
<path d="M63.9961,227.02h -6.80315" fill="none" stroke="black"/>
<path d="M63.9961,217.866h -6.80315" fill="none" stroke="black"/>
<path d="M70.7992,208.712h -13.6063" fill="none" stroke="black"/>
<path d="M63.9961,199.558h -6.80315" fill="none" stroke="black"/>
<path d="M63.9961,190.404h -6.80315" fill="none" stroke="black"/>
<path d="M63.9961,181.25h -6.80315" fill="none" stroke="black"/>
<path d="M63.9961,172.096h -6.80315" fill="none" stroke="black"/>
<path d="M70.7992,162.942h -13.6063" fill="none" stroke="black"/>
<path d="M63.9961,153.788h -6.80315" fill="none" stroke="black"/>
<path d="M63.9961,144.634h -6.80315" fill="none" stroke="black"/>
<path d="M63.9961,135.48h -6.80315" fill="none" stroke="black"/>
<path d="M63.9961,126.326h -6.80315" fill="none" stroke="black"/>
<path d="M70.7992,117.172h -13.6063" fill="none" stroke="black"/>
<path d="M63.9961,108.018h -6.80315" fill="none" stroke="black"/>
<path d="M63.9961,98.8635h -6.80315" fill="none" stroke="black"/>
<path d="M63.9961,89.7095h -6.80315" fill="none" stroke="black"/>
<path d="M63.9961,80.5555h -6.80315" fill="none" stroke="black"/>
<path d="M70.7992,71.4014h -13.6063" fill="none" stroke="black"/>
<path d="M70.7992,71.4014h -13.6063" fill="none" stroke="black"/>
<path d="M63.9961,62.2474h -6.80315" fill="none" stroke="black"/>
<path d="M63.9961,53.0934h -6.80315" fill="none" stroke="black"/>
<path d="M63.9961,43.9393h -6.80315" fill="none" stroke="black"/>
<text xml:space="preserve" x="47.7441" y="350.258" fill="black" font-size="12.8453" font-family="Helvetica">0</text>
<text xml:space="preserve" x="41.2277" y="304.643" fill="black" font-size="12.8453" font-family="Helvetica">10</text>
<text xml:space="preserve" x="41.2277" y="259.028" fill="black" font-size="12.8453" font-family="Helvetica">20</text>
<text xml:space="preserve" x="41.2277" y="213.413" fill="black" font-size="12.8453" font-family="Helvetica">30</text>
<text xml:space="preserve" x="41.2277" y="167.798" fill="black" font-size="12.8453" font-family="Helvetica">40</text>
<text xml:space="preserve" x="41.2277" y="121.368" fill="black" font-size="12.8453" font-family="Helvetica">50</text>
<text xml:space="preserve" x="41.2277" y="75.7535" fill="black" font-size="12.8453" font-family="Helvetica">60</text>
<g transform="rotate(-90,29.0094,75.7535)">
<text xml:space="preserve" x="29.0094" y="75.7535" fill="black" font-size="12.8453" font-family="Helvetica">Events</text>
</g>
<rect x="442.705" y="24.9905" width="113.386" height="61.5151" fill="white"/>
<path d="M442.705,86.5056h 113.386" fill="none" stroke="black"/>
<path d="M556.091,86.5056v -61.5151" fill="none" stroke="black"/>
<path d="M556.091,24.9905h -113.386" fill="none" stroke="black"/>
<path d="M442.705,24.9905v 61.5151" fill="none" stroke="black"/>
<text xml:space="preserve" x="460.723" y="36.6549" fill="black" font-size="13.4802" font-family="Helvetica">A_Cs_1900V</text>
<path d="M442.705,40.3693h 113.386" fill="none" stroke="black"/>
<text xml:space="preserve" x="447.69" y="52.946" fill="black" font-size="12.7186" font-family="Helvetica">Entries </text>
<text xml:space="preserve" x="512.854" y="52.946" fill="black" font-size="12.7186" font-family="Helvetica"> 10000</text>
<text xml:space="preserve" x="447.69" y="67.6079" fill="black" font-size="12.7186" font-family="Helvetica">Mean  </text>
<text xml:space="preserve" x="512.854" y="67.6079" fill="black" font-size="12.7186" font-family="Helvetica">  434.6</text>
<text xml:space="preserve" x="447.69" y="83.0844" fill="black" font-size="12.7186" font-family="Helvetica">Std Dev   </text>
<text xml:space="preserve" x="516.112" y="83.0844" fill="black" font-size="12.7186" font-family="Helvetica">    322</text>
<text xml:space="preserve" x="231.019" y="18.7347" fill="black" font-size="18.0316" font-family="Helvetica">A_Cs_1900V</text></svg>
