<?xml version="1.0" standalone="no"?>
<svg width="567.429" height="384.68" viewBox="0 0 567.429 384.68" xmlns="http://www.w3.org/2000/svg" shape-rendering="crispEdges">
<title>
img/calibration/A_Cs_1900V.svg
</title>
<desc>
Creator: ROOT Version 6.22/09
CreationDate: Tue Jun  8 13:00:00 2021</desc>
<defs>
</defs>
<rect x="0.5" y="0" width="566.929" height="384.18" fill="white"/>
<rect x="57.1929" y="38.418" width="453.543" height="307.344" fill="white"/>
<rect x="57.1929" y="38.418" width="453.543" height="307.344" fill="none" stroke="black"/>
<rect x="57.1929" y="38.418" width="453.543" height="307.344" fill="white"/>
<rect x="57.1929" y="38.418" width="453.543" height="307.344" fill="none" stroke="black"/>
<path d="M57.1929,240.57h 0.907087v -9.14714h 0.453543v -22.8678h 0.453543v 32.015h 0.453543v -68.6035h 0.453543v -27.4414h 0.453543v 27.4414h 0.453543v 50.3093h 0.453543v -45.7357h 0.453543v -18.2943h 0.453543v -13.7207h 0.453543v 4.57357h 0.453543v
 -41.1621h 0.453543v 18.2943h 0.453543v -13.7207h 0.453543v 45.7357h 0.453543v -59.4564h 0.453543v 18.2943h 0.453543v -4.57357h 0.453543v -9.14714h 0.453543v 18.2943h 0.453543v 18.2943h 0.453543v 13.7207h 0.453543v -41.1621h 0.453543v 41.1621h
 0.453543v 4.57357h 0.453543v -59.4564h 0.453543v -9.14714h 0.453543v 22.8678h 0.453543v -18.2943h 0.453543v 54.8828h 0.453543v 13.7207h 0.453543v -54.8828h 0.453543v 27.4414h 0.453543v -9.14714h 0.453543v 13.7207h 0.453543v -9.14714h 0.453543v
 -18.2943h 0.453543v 45.7357h 0.453543v 50.3093h 0.453543v -45.7357h 0.453543v -9.14714h 0.453543v -9.14714h 0.453543v -27.4414h 0.453543v -64.03h 0.453543v 114.339h 0.453543v -4.57357h 0.453543v 9.14714h 0.453543v -77.7507h 0.453543v 41.1621h
 0.453543v 27.4414h 0.453543v 22.8678h 0.453543v -59.4564h 0.453543v 68.6035h 0.453543v -4.57357h 0.453543v -4.57357h 0.453543v 9.14714h 0.453543v -36.5886h 0.453543v -22.8678h 0.453543v 59.4564h 0.453543v -32.015h 0.453543v -22.8678h 0.453543v
 50.3093h 0.453543v 32.015h 0.453543v -77.7507h 0.453543v 27.4414h 0.453543v 18.2943h 0.453543v 32.015h 0.453543v -54.8828h 0.453543v 22.8678h 0.453543v 9.14714h 0.453543v 13.7207h 0.453543v -22.8678h 0.453543v -9.14714h 0.453543v 18.2943h 0.453543v
 36.5886h 0.453543v 22.8678h 0.453543v -27.4414h 0.453543v -9.14714h 0.453543v -4.57357h 0.453543v -22.8678h 0.453543v 22.8678h 0.453543v 41.1621h 0.453543v -36.5886h 0.453543v -13.7207h 0.907087v -18.2943h 0.453543v 36.5886h 0.453543v -54.8828h
 0.453543v 77.7507h 0.453543v -18.2943h 0.453543v -22.8678h 0.453543v -18.2943h 0.453543v 32.015h 0.453543v -9.14714h 0.453543v -13.7207h 0.453543v 27.4414h 0.453543v 32.015h 0.453543v -68.6035h 0.453543v 41.1621h 0.907087v -9.14714h 0.453543v
 18.2943h 0.453543v -13.7207h 0.453543v 32.015h 0.453543v -4.57357h 0.453543v 9.14714h 0.453543v -36.5886h 0.453543v 18.2943h 0.453543v -54.8828h 0.453543v 50.3093h 0.453543v 9.14714h 0.453543v -18.2943h 0.453543v 13.7207h 0.453543v -4.57357h
 0.453543v 4.57357h 0.453543v -13.7207h 0.453543v -13.7207h 0.907087v 45.7357h 0.453543v -54.8828h 0.453543v 41.1621h 0.453543v -4.57357h 0.453543v 4.57357h 0.453543v -9.14714h 0.453543v 22.8678h 0.453543v -13.7207h 0.453543v 22.8678h 0.453543v
 -32.015h 0.453543v -22.8678h 0.453543v 32.015h 0.453543v -18.2943h 0.453543v 45.7357h 0.453543v -18.2943h 0.453543v 9.14714h 0.453543v -13.7207h 0.453543v -9.14714h 0.453543v 4.57357h 0.453543v -22.8678h 0.453543v 27.4414h 0.453543v -36.5886h
 0.453543v 59.4564h 0.453543v -32.015h 0.453543v 13.7207h 0.453543v 4.57357h 0.453543v -27.4414h 0.453543v 13.7207h 0.453543v 18.2943h 0.453543v -9.14714h 0.453543v -13.7207h 0.453543v 13.7207h 0.453543v 22.8678h 0.453543v -41.1621h 0.453543v
 27.4414h 0.453543v -18.2943h 0.453543v -36.5886h 0.453543v 54.8828h 0.453543v -41.1621h 0.453543v 27.4414h 0.453543v 9.14714h 0.453543v 32.015h 0.453543v -82.3242h 0.453543v 68.6035h 0.453543v -27.4414h 0.453543v -4.57357h 0.907087v 18.2943h
 0.453543v -4.57357h 0.907087v 18.2943h 0.453543v -41.1621h 0.453543v 41.1621h 0.453543v -32.015h 0.453543v 9.14714h 0.453543v -13.7207h 0.453543v 32.015h 0.453543v -9.14714h 0.453543v 9.14714h 0.453543v -18.2943h 0.453543v 4.57357h 0.453543v
 -13.7207h 0.453543v 9.14714h 0.453543v -27.4414h 0.453543v 22.8678h 0.453543v 9.14714h 0.453543v -22.8678h 0.453543v 27.4414h 0.453543v -9.14714h 0.453543v -50.3093h 0.453543v 32.015h 0.453543v 45.7357h 0.453543v -32.015h 0.453543v -13.7207h
 0.453543v 27.4414h 0.453543v 22.8678h 0.453543v -27.4414h 0.453543v -22.8678h 0.453543v 50.3093h 0.453543v -59.4564h 0.453543v 18.2943h 0.453543v 32.015h 0.907087v -32.015h 0.453543v -9.14714h 0.453543v 9.14714h 0.453543v 13.7207h 0.453543v 18.2943h
 0.453543v -9.14714h 0.453543v -22.8678h 0.453543v 18.2943h 0.453543v -9.14714h 0.453543v -4.57357h 0.453543v 18.2943h 0.453543v 4.57357h 0.453543v -18.2943h 0.453543v 22.8678h 0.453543v -18.2943h 0.453543v -4.57357h 0.453543v 32.015h 0.453543v
 -13.7207h 0.453543v -50.3093h 0.453543v 9.14714h 0.453543v -4.57357h 0.453543v 50.3093h 0.453543v -36.5886h 0.453543v 4.57357h 0.453543v 18.2943h 0.453543v 4.57357h 0.453543v -32.015h 0.453543v -18.2943h 0.453543v 22.8678h 0.453543v 27.4414h
 0.453543v -22.8678h 0.453543v 22.8678h 0.453543v 36.5886h 0.453543v -36.5886h 0.453543v -27.4414h 0.453543v 18.2943h 0.453543v 27.4414h 0.453543v -27.4414h 0.453543v 13.7207h 0.453543v -4.57357h 0.453543v -4.57357h 0.453543v 9.14714h 0.453543v
 -4.57357h 0.453543v -9.14714h 0.453543v -13.7207h 0.453543v -13.7207h 0.453543v 13.7207h 0.453543v -4.57357h 0.453543v 41.1621h 0.453543v -18.2943h 0.453543v -4.57357h 0.453543v 4.57357h 0.453543v 22.8678h 0.453543v -36.5886h 0.453543v 45.7357h
 0.453543v -27.4414h 0.453543v -36.5886h 0.453543v 27.4414h 0.453543v 13.7207h 0.453543v -32.015h 0.453543v 22.8678h 0.453543v 9.14714h 0.453543v -27.4414h 0.453543v 32.015h 0.453543v 4.57357h 0.453543v -68.6035h 0.453543v 54.8828h 0.453543v
 -13.7207h 0.453543v -4.57357h 0.453543v -27.4414h 0.453543v 59.4564h 0.453543v -32.015h 1.36063v 9.14714h 0.453543v -13.7207h 0.453543v -9.14714h 0.907087v 36.5886h 0.453543v -50.3093h 0.453543v 36.5886h 0.453543v 32.015h 0.453543v -32.015h
 0.453543v -9.14714h 0.907087v 4.57357h 0.453543v -9.14714h 0.453543v 13.7207h 0.453543v -32.015h 0.453543v 54.8828h 0.453543v -9.14714h 0.453543v 9.14714h 0.453543v -13.7207h 0.453543v -9.14714h 0.453543v -13.7207h 0.453543v 36.5886h 0.453543v
 -13.7207h 0.453543v -18.2943h 0.453543v 13.7207h 0.453543v -9.14714h 0.453543v 9.14714h 1.36063v -27.4414h 0.453543v 22.8678h 0.453543v -18.2943h 0.453543v 9.14714h 0.453543v 18.2943h 0.453543v -22.8678h 0.453543v 13.7207h 0.453543v -36.5886h
 0.453543v 50.3093h 0.453543v -4.57357h 0.453543v -41.1621h 0.907087v 9.14714h 0.453543v 27.4414h 0.453543v -18.2943h 0.453543v 18.2943h 0.453543v -4.57357h 0.907087v -22.8678h 0.907087v 32.015h 0.453543v -45.7357h 0.453543v 64.03h 0.453543v
 -9.14714h 0.453543v -45.7357h 0.453543v 18.2943h 0.453543v 9.14714h 0.453543v 4.57357h 0.453543v -22.8678h 0.453543v 22.8678h 0.907087v -36.5886h 0.453543v 18.2943h 0.453543v -22.8678h 0.453543v 73.1771h 0.453543v -64.03h 0.453543v -9.14714h
 0.453543v -4.57357h 0.453543v 22.8678h 0.453543v 18.2943h 0.453543v -22.8678h 0.453543v 32.015h 0.453543v -54.8828h 0.453543v 54.8828h 0.453543v -9.14714h 0.453543v -32.015h 0.453543v 27.4414h 0.453543v -9.14714h 0.453543v 36.5886h 0.453543v
 -9.14714h 0.453543v -4.57357h 0.453543v 18.2943h 0.453543v -4.57357h 0.453543v -9.14714h 0.453543v -13.7207h 0.907087v 9.14714h 0.453543v -4.57357h 0.453543v -18.2943h 0.453543v 32.015h 0.453543v -22.8678h 0.453543v 9.14714h 0.453543v -18.2943h
 0.453543v 18.2943h 0.453543v -9.14714h 0.453543v 27.4414h 0.453543v -4.57357h 0.453543v -22.8678h 0.453543v 22.8678h 0.453543v -22.8678h 0.453543v 27.4414h 0.453543v -22.8678h 0.453543v 4.57357h 0.453543v 9.14714h 0.453543v 13.7207h 0.453543v
 -18.2943h 0.453543v 45.7357h 0.453543v -4.57357h 0.453543v -9.14714h 0.453543v -41.1621h 0.453543v 27.4414h 0.453543v -27.4414h 0.453543v 41.1621h 0.453543v -27.4414h 0.453543v 18.2943h 0.453543v -4.57357h 0.453543v 13.7207h 0.453543v -4.57357h
 0.453543v 9.14714h 1.36063v -13.7207h 0.453543v -9.14714h 0.453543v 22.8678h 0.453543v 4.57357h 0.453543v -13.7207h 0.453543v 4.57357h 0.453543v 9.14714h 0.453543v -13.7207h 0.453543v 13.7207h 0.453543v 13.7207h 0.453543v -27.4414h 0.453543v
 36.5886h 0.453543v -27.4414h 0.453543v 18.2943h 0.453543v -36.5886h 0.453543v 18.2943h 0.453543v 13.7207h 0.453543v -4.57357h 0.907087v -18.2943h 0.453543v 18.2943h 0.453543v -9.14714h 0.453543v 22.8678h 0.453543v -27.4414h 0.453543v 9.14714h
 0.453543v 9.14714h 0.453543v -18.2943h 0.453543v 41.1621h 0.453543v -36.5886h 0.453543v 22.8678h 0.453543v -13.7207h 0.453543v 18.2943h 0.453543v -18.2943h 0.453543v 4.57357h 0.453543v 4.57357h 0.453543v -4.57357h 0.453543v -4.57357h 0.453543v
 9.14714h 0.453543v 9.14714h 0.907087v -18.2943h 0.453543v 22.8678h 0.453543v -13.7207h 0.907087v -4.57357h 0.453543v 22.8678h 0.453543v -18.2943h 0.453543v 4.57357h 0.907087v 13.7207h 0.453543v -18.2943h 0.453543v 13.7207h 0.453543v -13.7207h
 0.453543v 9.14714h 0.453543v -4.57357h 1.36063v 9.14714h 0.453543v -9.14714h 0.453543v 4.57357h 1.36063v 9.14714h 0.453543v -13.7207h 0.453543v 4.57357h 0.453543v 9.14714h 0.453543v -18.2943h 0.453543v 9.14714h 0.453543v 4.57357h 0.453543v 4.57357h
 0.907087v -4.57357h 0.907087v 4.57357h 0.453543v -9.14714h 0.453543v 4.57357h 0.907087v 4.57357h 0.453543v -4.57357h 0.907087v -13.7207h 0.453543v 13.7207h 1.81417v 4.57357h 0.453543v -4.57357h 0.453543v 4.57357h 0.453543v -4.57357h 0.453543v
 4.57357h 0.907087v -4.57357h 1.36063v 4.57357h 0.453543v -4.57357h 0.453543v 4.57357h 0.453543v -9.14714h 0.453543v 4.57357h 0.453543v 4.57357h 4.98898v -4.57357h 0.453543v 4.57357h 1.81417v -4.57357h 3.1748v -4.57357h 0.907087v 9.14714h 0.907087v
 -4.57357h 0.453543v 4.57357h 1.36063v -4.57357h 0.907087v 4.57357h 1.36063v -4.57357h 0.453543v 4.57357h 0.907087v -9.14714h 0.453543v 9.14714h 0.453543v -4.57357h 0.453543v 4.57357h 0.453543v -4.57357h 0.907087v 4.57357h 0.907087v -9.14714h
 0.453543v 9.14714h 2.26772v -4.57357h 0.453543v 4.57357h 2.26772v -4.57357h 0.453543v 4.57357h 3.1748v -4.57357h 0.453543v 4.57357h 0.453543v -4.57357h 0.453543v 4.57357h 0.453543v -4.57357h 0.907087v -9.14714h 0.453543v 9.14714h 0.453543v 4.57357h
 3.1748v -4.57357h 0.453543v 4.57357h 0.907087v -4.57357h 0.453543v 4.57357h 8.61732v -4.57357h 0.453543v 4.57357h 3.1748v -4.57357h 0.907087v 4.57357h 1.36063v -4.57357h 0.453543v 4.57357h 1.81417v -4.57357h 0.453543v 4.57357h 6.80315v -4.57357h
 0.907087v 4.57357h 8.16378v -4.57357h 0.453543v 4.57357h 12.2457v -4.57357h 0.907087v 4.57357h 4.98898v -4.57357h 0.453543v 4.57357h 7.25669v -4.57357h 0.453543v 4.57357h 6.34961v -4.57357h 0.453543v 4.57357h 11.3386v -4.57357h 0.453543v 4.57357h
 0.453543v -4.57357h 0.453543v 4.57357h 28.5732v -4.57357h 0.453543v 4.57357h 4.08189v -4.57357h 0.453543v 4.57357h 31.748v -4.57357h 0.453543v 4.57357h 44.4472" fill="none" stroke="#000099"/>
<path d="M148.809,263.003l 1.81417, 5.73526e-05l 1.81417, 8.91128e-05l 1.81417, 0.000137209l 1.81417, 0.000209354l 1.81417, 0.000316544l 1.81417, 0.000474289l 1.81417, 0.000704218l 1.81417, 0.00103616l 1.81417, 0.00151079l 1.81417, 0.0021829l
 1.81417, 0.00312551l 1.81417, 0.00443469l 1.81417, 0.00623535l 1.81417, 0.00868788l 1.81417, 0.0119956l 1.81417, 0.016413l 1.81417, 0.0222539l 1.81417, 0.0299008l 1.81417, 0.0398119l 1.81417, 0.0525291l 1.81417, 0.0686818l 1.81417, 0.0889896l
 1.81417, 0.11426l 1.81417, 0.145379l 1.81417, 0.183301l 1.81417, 0.229026l 1.81417, 0.28357l 1.81417, 0.34793l 1.81417, 0.423036l 1.81417, 0.509706l 1.81417, 0.608579l 1.81417, 0.720063l 1.81417, 0.844265l 1.81417, 0.980941l 1.81417, 1.12944l
 1.81417, 1.28866l 1.81417, 1.45703l 1.81417, 1.63251l 1.81417, 1.81258l 1.81417, 1.99432l 1.81417, 2.17444l 1.81417, 2.34939l 1.81417, 2.51548l 1.81417, 2.66895l 1.81417, 2.80618l 1.81417, 2.92379l 1.81417, 3.01878l 1.81417, 3.08869l 1.81417,
 3.13164" fill="none" stroke="#ff0000" stroke-width="2"/>
<path d="M237.703,302.745l 1.81417, 3.14647l 1.81417, 3.1328l 1.81417, 3.09098l 1.81417, 3.02215l 1.81417, 2.92814l 1.81417, 2.8114l 1.81417, 2.67491l 1.81417, 2.52203l 1.81417, 2.35639l 1.81417, 2.18173l 1.81417, 2.00175l 1.81417, 1.82001l 1.81417,
 1.63981l 1.81417, 1.46409l 1.81417, 1.29539l 1.81417, 1.13576l 1.81417, 0.986795l 1.81417, 0.849619l 1.81417, 0.724899l 1.81417, 0.612895l 1.81417, 0.513511l 1.81417, 0.426353l 1.81417, 0.350788l 1.81417, 0.286006l 1.81417, 0.231079l 1.81417,
 0.185013l 1.81417, 0.146791l 1.81417, 0.115413l 1.81417, 0.0899211l 1.81417, 0.0694265l 1.81417, 0.0531184l 1.81417, 0.0402735l 1.81417, 0.0302587l 1.81417, 0.0225287l 1.81417, 0.0166218l 1.81417, 0.0418707h 23.5843" fill="none" stroke="#ff0000"
 stroke-width="2"/>
<path d="M326.598,345.762h 1.81417" fill="none" stroke="#ff0000" stroke-width="2"/>
<rect x="442.705" y="24.9717" width="113.386" height="61.4688" fill="white"/>
<path d="M442.705,86.4405h 113.386" fill="none" stroke="black"/>
<path d="M556.091,86.4405v -61.4688" fill="none" stroke="black"/>
<path d="M556.091,24.9717h -113.386" fill="none" stroke="black"/>
<path d="M442.705,24.9717v 61.4688" fill="none" stroke="black"/>
<text xml:space="preserve" x="461.028" y="36.5499" fill="black" font-size="13.4705" font-family="Helvetica">A_Cs_1900V</text>
<path d="M442.705,40.3389h 113.386" fill="none" stroke="black"/>
<text xml:space="preserve" x="448.033" y="52.7943" fill="black" font-size="12.7411" font-family="Helvetica">Entries </text>
<text xml:space="preserve" x="513.01" y="52.7943" fill="black" font-size="12.7411" font-family="Helvetica"> 10000</text>
<text xml:space="preserve" x="448.033" y="68.2264" fill="black" font-size="12.7411" font-family="Helvetica">Mean  </text>
<text xml:space="preserve" x="513.01" y="68.2264" fill="black" font-size="12.7411" font-family="Helvetica">  434.6</text>
<text xml:space="preserve" x="448.033" y="82.8464" fill="black" font-size="12.7411" font-family="Helvetica">Std Dev   </text>
<text xml:space="preserve" x="516.259" y="82.8464" fill="black" font-size="12.7411" font-family="Helvetica">    322</text>
<path d="M57.1929,345.762h 453.543" fill="none" stroke="black"/>
<path d="M57.1929,336.541v 9.22031" fill="none" stroke="black"/>
<path d="M75.3346,341.152v 4.61016" fill="none" stroke="black"/>
<path d="M93.4764,341.152v 4.61016" fill="none" stroke="black"/>
<path d="M111.618,341.152v 4.61016" fill="none" stroke="black"/>
<path d="M129.76,341.152v 4.61016" fill="none" stroke="black"/>
<path d="M147.902,336.541v 9.22031" fill="none" stroke="black"/>
<path d="M166.043,341.152v 4.61016" fill="none" stroke="black"/>
<path d="M184.185,341.152v 4.61016" fill="none" stroke="black"/>
<path d="M202.327,341.152v 4.61016" fill="none" stroke="black"/>
<path d="M220.469,341.152v 4.61016" fill="none" stroke="black"/>
<path d="M238.61,336.541v 9.22031" fill="none" stroke="black"/>
<path d="M256.752,341.152v 4.61016" fill="none" stroke="black"/>
<path d="M274.894,341.152v 4.61016" fill="none" stroke="black"/>
<path d="M293.035,341.152v 4.61016" fill="none" stroke="black"/>
<path d="M311.177,341.152v 4.61016" fill="none" stroke="black"/>
<path d="M329.319,336.541v 9.22031" fill="none" stroke="black"/>
<path d="M347.461,341.152v 4.61016" fill="none" stroke="black"/>
<path d="M365.602,341.152v 4.61016" fill="none" stroke="black"/>
<path d="M383.744,341.152v 4.61016" fill="none" stroke="black"/>
<path d="M401.886,341.152v 4.61016" fill="none" stroke="black"/>
<path d="M420.028,336.541v 9.22031" fill="none" stroke="black"/>
<path d="M438.169,341.152v 4.61016" fill="none" stroke="black"/>
<path d="M456.311,341.152v 4.61016" fill="none" stroke="black"/>
<path d="M474.453,341.152v 4.61016" fill="none" stroke="black"/>
<path d="M492.594,341.152v 4.61016" fill="none" stroke="black"/>
<path d="M510.736,336.541v 9.22031" fill="none" stroke="black"/>
<text xml:space="preserve" x="53.2943" y="358.189" fill="black" font-size="12.836" font-family="Helvetica">0</text>
<text xml:space="preserve" x="136.953" y="358.189" fill="black" font-size="12.836" font-family="Helvetica">500</text>
<text xml:space="preserve" x="224.673" y="358.189" fill="black" font-size="12.836" font-family="Helvetica">1000</text>
<text xml:space="preserve" x="314.829" y="358.189" fill="black" font-size="12.836" font-family="Helvetica">1500</text>
<text xml:space="preserve" x="405.797" y="358.189" fill="black" font-size="12.836" font-family="Helvetica">2000</text>
<text xml:space="preserve" x="496.766" y="358.189" fill="black" font-size="12.836" font-family="Helvetica">2500</text>
<text xml:space="preserve" x="452.094" y="371.996" fill="black" font-size="12.836" font-family="Helvetica">ADC value</text>
<path d="M57.1929,345.762v -307.344" fill="none" stroke="black"/>
<path d="M70.7992,345.762h -13.6063" fill="none" stroke="black"/>
<path d="M63.9961,336.615h -6.80315" fill="none" stroke="black"/>
<path d="M63.9961,327.468h -6.80315" fill="none" stroke="black"/>
<path d="M63.9961,318.32h -6.80315" fill="none" stroke="black"/>
<path d="M63.9961,309.173h -6.80315" fill="none" stroke="black"/>
<path d="M70.7992,300.026h -13.6063" fill="none" stroke="black"/>
<path d="M63.9961,290.879h -6.80315" fill="none" stroke="black"/>
<path d="M63.9961,281.732h -6.80315" fill="none" stroke="black"/>
<path d="M63.9961,272.585h -6.80315" fill="none" stroke="black"/>
<path d="M63.9961,263.438h -6.80315" fill="none" stroke="black"/>
<path d="M70.7992,254.29h -13.6063" fill="none" stroke="black"/>
<path d="M63.9961,245.143h -6.80315" fill="none" stroke="black"/>
<path d="M63.9961,235.996h -6.80315" fill="none" stroke="black"/>
<path d="M63.9961,226.849h -6.80315" fill="none" stroke="black"/>
<path d="M63.9961,217.702h -6.80315" fill="none" stroke="black"/>
<path d="M70.7992,208.555h -13.6063" fill="none" stroke="black"/>
<path d="M63.9961,199.408h -6.80315" fill="none" stroke="black"/>
<path d="M63.9961,190.26h -6.80315" fill="none" stroke="black"/>
<path d="M63.9961,181.113h -6.80315" fill="none" stroke="black"/>
<path d="M63.9961,171.966h -6.80315" fill="none" stroke="black"/>
<path d="M70.7992,162.819h -13.6063" fill="none" stroke="black"/>
<path d="M63.9961,153.672h -6.80315" fill="none" stroke="black"/>
<path d="M63.9961,144.525h -6.80315" fill="none" stroke="black"/>
<path d="M63.9961,135.378h -6.80315" fill="none" stroke="black"/>
<path d="M63.9961,126.23h -6.80315" fill="none" stroke="black"/>
<path d="M70.7992,117.083h -13.6063" fill="none" stroke="black"/>
<path d="M63.9961,107.936h -6.80315" fill="none" stroke="black"/>
<path d="M63.9961,98.7891h -6.80315" fill="none" stroke="black"/>
<path d="M63.9961,89.642h -6.80315" fill="none" stroke="black"/>
<path d="M63.9961,80.4948h -6.80315" fill="none" stroke="black"/>
<path d="M70.7992,71.3477h -13.6063" fill="none" stroke="black"/>
<path d="M70.7992,71.3477h -13.6063" fill="none" stroke="black"/>
<path d="M63.9961,62.2005h -6.80315" fill="none" stroke="black"/>
<path d="M63.9961,53.0534h -6.80315" fill="none" stroke="black"/>
<path d="M63.9961,43.9063h -6.80315" fill="none" stroke="black"/>
<text xml:space="preserve" x="47.6087" y="350.067" fill="black" font-size="12.836" font-family="Helvetica">0</text>
<text xml:space="preserve" x="41.111" y="304.582" fill="black" font-size="12.836" font-family="Helvetica">10</text>
<text xml:space="preserve" x="41.111" y="259.098" fill="black" font-size="12.836" font-family="Helvetica">20</text>
<text xml:space="preserve" x="41.111" y="212.801" fill="black" font-size="12.836" font-family="Helvetica">30</text>
<text xml:space="preserve" x="41.111" y="167.317" fill="black" font-size="12.836" font-family="Helvetica">40</text>
<text xml:space="preserve" x="41.111" y="121.833" fill="black" font-size="12.836" font-family="Helvetica">50</text>
<text xml:space="preserve" x="41.111" y="75.5364" fill="black" font-size="12.836" font-family="Helvetica">60</text>
<g transform="rotate(-90,28.9277,75.5364)">
<text xml:space="preserve" x="28.9277" y="75.5364" fill="black" font-size="12.836" font-family="Helvetica">Events</text>
</g>
<rect x="442.705" y="24.9717" width="113.386" height="61.4688" fill="white"/>
<path d="M442.705,86.4405h 113.386" fill="none" stroke="black"/>
<path d="M556.091,86.4405v -61.4688" fill="none" stroke="black"/>
<path d="M556.091,24.9717h -113.386" fill="none" stroke="black"/>
<path d="M442.705,24.9717v 61.4688" fill="none" stroke="black"/>
<text xml:space="preserve" x="461.028" y="36.5499" fill="black" font-size="13.4705" font-family="Helvetica">A_Cs_1900V</text>
<path d="M442.705,40.3389h 113.386" fill="none" stroke="black"/>
<text xml:space="preserve" x="448.033" y="52.7943" fill="black" font-size="12.7411" font-family="Helvetica">Entries </text>
<text xml:space="preserve" x="513.01" y="52.7943" fill="black" font-size="12.7411" font-family="Helvetica"> 10000</text>
<text xml:space="preserve" x="448.033" y="68.2264" fill="black" font-size="12.7411" font-family="Helvetica">Mean  </text>
<text xml:space="preserve" x="513.01" y="68.2264" fill="black" font-size="12.7411" font-family="Helvetica">  434.6</text>
<text xml:space="preserve" x="448.033" y="82.8464" fill="black" font-size="12.7411" font-family="Helvetica">Std Dev   </text>
<text xml:space="preserve" x="516.259" y="82.8464" fill="black" font-size="12.7411" font-family="Helvetica">    322</text>
<text xml:space="preserve" x="231.17" y="18.681" fill="black" font-size="17.9813" font-family="Helvetica">A_Cs_1900V</text></svg>
