<?xml version="1.0" standalone="no"?>
<svg width="567.429" height="386.304" viewBox="0 0 567.429 386.304" xmlns="http://www.w3.org/2000/svg" shape-rendering="crispEdges">
<title>
img/calibration/A_Cs_1900V.svg
</title>
<desc>
Creator: ROOT Version 6.22/08
CreationDate: Wed Jun  9 12:40:57 2021</desc>
<defs>
</defs>
<rect x="0.5" y="0" width="566.929" height="385.804" fill="white"/>
<rect x="57.1929" y="38.5804" width="453.543" height="308.643" fill="white"/>
<rect x="57.1929" y="38.5804" width="453.543" height="308.643" fill="none" stroke="black"/>
<rect x="57.1929" y="38.5804" width="453.543" height="308.643" fill="white"/>
<rect x="57.1929" y="38.5804" width="453.543" height="308.643" fill="none" stroke="black"/>
<path d="M57.1929,241.587h 0.907087v -9.18581h 0.453543v -22.9645h 0.453543v 32.1504h 0.453543v -68.8936h 0.453543v -27.5574h 0.453543v 27.5574h 0.453543v 50.522h 0.453543v -45.9291h 0.453543v -18.3716h 0.453543v -13.7787h 0.453543v 4.59291h
 0.453543v -41.3362h 0.453543v 18.3716h 0.453543v -13.7787h 0.453543v 45.9291h 0.453543v -59.7078h 0.453543v 18.3716h 0.453543v -4.59291h 0.453543v -9.18581h 0.453543v 18.3716h 0.453543v 18.3716h 0.453543v 13.7787h 0.453543v -41.3362h 0.453543v
 41.3362h 0.453543v 4.59291h 0.453543v -59.7078h 0.453543v -9.18581h 0.453543v 22.9645h 0.453543v -18.3716h 0.453543v 55.1149h 0.453543v 13.7787h 0.453543v -55.1149h 0.453543v 27.5574h 0.453543v -9.18581h 0.453543v 13.7787h 0.453543v -9.18581h
 0.453543v -18.3716h 0.453543v 45.9291h 0.453543v 50.522h 0.453543v -45.9291h 0.453543v -9.18581h 0.453543v -9.18581h 0.453543v -27.5574h 0.453543v -64.3007h 0.453543v 114.823h 0.453543v -4.59291h 0.453543v 9.18581h 0.453543v -78.0794h 0.453543v
 41.3362h 0.453543v 27.5574h 0.453543v 22.9645h 0.453543v -59.7078h 0.453543v 68.8936h 0.453543v -4.59291h 0.453543v -4.59291h 0.453543v 9.18581h 0.453543v -36.7433h 0.453543v -22.9645h 0.453543v 59.7078h 0.453543v -32.1504h 0.453543v -22.9645h
 0.453543v 50.522h 0.453543v 32.1504h 0.453543v -78.0794h 0.453543v 27.5574h 0.453543v 18.3716h 0.453543v 32.1504h 0.453543v -55.1149h 0.453543v 22.9645h 0.453543v 9.18581h 0.453543v 13.7787h 0.453543v -22.9645h 0.453543v -9.18581h 0.453543v 18.3716h
 0.453543v 36.7433h 0.453543v 22.9645h 0.453543v -27.5574h 0.453543v -9.18581h 0.453543v -4.59291h 0.453543v -22.9645h 0.453543v 22.9645h 0.453543v 41.3362h 0.453543v -36.7433h 0.453543v -13.7787h 0.907087v -18.3716h 0.453543v 36.7433h 0.453543v
 -55.1149h 0.453543v 78.0794h 0.453543v -18.3716h 0.453543v -22.9645h 0.453543v -18.3716h 0.453543v 32.1504h 0.453543v -9.18581h 0.453543v -13.7787h 0.453543v 27.5574h 0.453543v 32.1504h 0.453543v -68.8936h 0.453543v 41.3362h 0.907087v -9.18581h
 0.453543v 18.3716h 0.453543v -13.7787h 0.453543v 32.1504h 0.453543v -4.59291h 0.453543v 9.18581h 0.453543v -36.7433h 0.453543v 18.3716h 0.453543v -55.1149h 0.453543v 50.522h 0.453543v 9.18581h 0.453543v -18.3716h 0.453543v 13.7787h 0.453543v
 -4.59291h 0.453543v 4.59291h 0.453543v -13.7787h 0.453543v -13.7787h 0.907087v 45.9291h 0.453543v -55.1149h 0.453543v 41.3362h 0.453543v -4.59291h 0.453543v 4.59291h 0.453543v -9.18581h 0.453543v 22.9645h 0.453543v -13.7787h 0.453543v 22.9645h
 0.453543v -32.1504h 0.453543v -22.9645h 0.453543v 32.1504h 0.453543v -18.3716h 0.453543v 45.9291h 0.453543v -18.3716h 0.453543v 9.18581h 0.453543v -13.7787h 0.453543v -9.18581h 0.453543v 4.59291h 0.453543v -22.9645h 0.453543v 27.5574h 0.453543v
 -36.7433h 0.453543v 59.7078h 0.453543v -32.1504h 0.453543v 13.7787h 0.453543v 4.59291h 0.453543v -27.5574h 0.453543v 13.7787h 0.453543v 18.3716h 0.453543v -9.18581h 0.453543v -13.7787h 0.453543v 13.7787h 0.453543v 22.9645h 0.453543v -41.3362h
 0.453543v 27.5574h 0.453543v -18.3716h 0.453543v -36.7433h 0.453543v 55.1149h 0.453543v -41.3362h 0.453543v 27.5574h 0.453543v 9.18581h 0.453543v 32.1504h 0.453543v -82.6723h 0.453543v 68.8936h 0.453543v -27.5574h 0.453543v -4.59291h 0.907087v
 18.3716h 0.453543v -4.59291h 0.907087v 18.3716h 0.453543v -41.3362h 0.453543v 41.3362h 0.453543v -32.1504h 0.453543v 9.18581h 0.453543v -13.7787h 0.453543v 32.1504h 0.453543v -9.18581h 0.453543v 9.18581h 0.453543v -18.3716h 0.453543v 4.59291h
 0.453543v -13.7787h 0.453543v 9.18581h 0.453543v -27.5574h 0.453543v 22.9645h 0.453543v 9.18581h 0.453543v -22.9645h 0.453543v 27.5574h 0.453543v -9.18581h 0.453543v -50.522h 0.453543v 32.1504h 0.453543v 45.9291h 0.453543v -32.1504h 0.453543v
 -13.7787h 0.453543v 27.5574h 0.453543v 22.9645h 0.453543v -27.5574h 0.453543v -22.9645h 0.453543v 50.522h 0.453543v -59.7078h 0.453543v 18.3716h 0.453543v 32.1504h 0.907087v -32.1504h 0.453543v -9.18581h 0.453543v 9.18581h 0.453543v 13.7787h
 0.453543v 18.3716h 0.453543v -9.18581h 0.453543v -22.9645h 0.453543v 18.3716h 0.453543v -9.18581h 0.453543v -4.59291h 0.453543v 18.3716h 0.453543v 4.59291h 0.453543v -18.3716h 0.453543v 22.9645h 0.453543v -18.3716h 0.453543v -4.59291h 0.453543v
 32.1504h 0.453543v -13.7787h 0.453543v -50.522h 0.453543v 9.18581h 0.453543v -4.59291h 0.453543v 50.522h 0.453543v -36.7433h 0.453543v 4.59291h 0.453543v 18.3716h 0.453543v 4.59291h 0.453543v -32.1504h 0.453543v -18.3716h 0.453543v 22.9645h
 0.453543v 27.5574h 0.453543v -22.9645h 0.453543v 22.9645h 0.453543v 36.7433h 0.453543v -36.7433h 0.453543v -27.5574h 0.453543v 18.3716h 0.453543v 27.5574h 0.453543v -27.5574h 0.453543v 13.7787h 0.453543v -4.59291h 0.453543v -4.59291h 0.453543v
 9.18581h 0.453543v -4.59291h 0.453543v -9.18581h 0.453543v -13.7787h 0.453543v -13.7787h 0.453543v 13.7787h 0.453543v -4.59291h 0.453543v 41.3362h 0.453543v -18.3716h 0.453543v -4.59291h 0.453543v 4.59291h 0.453543v 22.9645h 0.453543v -36.7433h
 0.453543v 45.9291h 0.453543v -27.5574h 0.453543v -36.7433h 0.453543v 27.5574h 0.453543v 13.7787h 0.453543v -32.1504h 0.453543v 22.9645h 0.453543v 9.18581h 0.453543v -27.5574h 0.453543v 32.1504h 0.453543v 4.59291h 0.453543v -68.8936h 0.453543v
 55.1149h 0.453543v -13.7787h 0.453543v -4.59291h 0.453543v -27.5574h 0.453543v 59.7078h 0.453543v -32.1504h 1.36063v 9.18581h 0.453543v -13.7787h 0.453543v -9.18581h 0.907087v 36.7433h 0.453543v -50.522h 0.453543v 36.7433h 0.453543v 32.1504h
 0.453543v -32.1504h 0.453543v -9.18581h 0.907087v 4.59291h 0.453543v -9.18581h 0.453543v 13.7787h 0.453543v -32.1504h 0.453543v 55.1149h 0.453543v -9.18581h 0.453543v 9.18581h 0.453543v -13.7787h 0.453543v -9.18581h 0.453543v -13.7787h 0.453543v
 36.7433h 0.453543v -13.7787h 0.453543v -18.3716h 0.453543v 13.7787h 0.453543v -9.18581h 0.453543v 9.18581h 1.36063v -27.5574h 0.453543v 22.9645h 0.453543v -18.3716h 0.453543v 9.18581h 0.453543v 18.3716h 0.453543v -22.9645h 0.453543v 13.7787h
 0.453543v -36.7433h 0.453543v 50.522h 0.453543v -4.59291h 0.453543v -41.3362h 0.907087v 9.18581h 0.453543v 27.5574h 0.453543v -18.3716h 0.453543v 18.3716h 0.453543v -4.59291h 0.907087v -22.9645h 0.907087v 32.1504h 0.453543v -45.9291h 0.453543v
 64.3007h 0.453543v -9.18581h 0.453543v -45.9291h 0.453543v 18.3716h 0.453543v 9.18581h 0.453543v 4.59291h 0.453543v -22.9645h 0.453543v 22.9645h 0.907087v -36.7433h 0.453543v 18.3716h 0.453543v -22.9645h 0.453543v 73.4865h 0.453543v -64.3007h
 0.453543v -9.18581h 0.453543v -4.59291h 0.453543v 22.9645h 0.453543v 18.3716h 0.453543v -22.9645h 0.453543v 32.1504h 0.453543v -55.1149h 0.453543v 55.1149h 0.453543v -9.18581h 0.453543v -32.1504h 0.453543v 27.5574h 0.453543v -9.18581h 0.453543v
 36.7433h 0.453543v -9.18581h 0.453543v -4.59291h 0.453543v 18.3716h 0.453543v -4.59291h 0.453543v -9.18581h 0.453543v -13.7787h 0.907087v 9.18581h 0.453543v -4.59291h 0.453543v -18.3716h 0.453543v 32.1504h 0.453543v -22.9645h 0.453543v 9.18581h
 0.453543v -18.3716h 0.453543v 18.3716h 0.453543v -9.18581h 0.453543v 27.5574h 0.453543v -4.59291h 0.453543v -22.9645h 0.453543v 22.9645h 0.453543v -22.9645h 0.453543v 27.5574h 0.453543v -22.9645h 0.453543v 4.59291h 0.453543v 9.18581h 0.453543v
 13.7787h 0.453543v -18.3716h 0.453543v 45.9291h 0.453543v -4.59291h 0.453543v -9.18581h 0.453543v -41.3362h 0.453543v 27.5574h 0.453543v -27.5574h 0.453543v 41.3362h 0.453543v -27.5574h 0.453543v 18.3716h 0.453543v -4.59291h 0.453543v 13.7787h
 0.453543v -4.59291h 0.453543v 9.18581h 1.36063v -13.7787h 0.453543v -9.18581h 0.453543v 22.9645h 0.453543v 4.59291h 0.453543v -13.7787h 0.453543v 4.59291h 0.453543v 9.18581h 0.453543v -13.7787h 0.453543v 13.7787h 0.453543v 13.7787h 0.453543v
 -27.5574h 0.453543v 36.7433h 0.453543v -27.5574h 0.453543v 18.3716h 0.453543v -36.7433h 0.453543v 18.3716h 0.453543v 13.7787h 0.453543v -4.59291h 0.907087v -18.3716h 0.453543v 18.3716h 0.453543v -9.18581h 0.453543v 22.9645h 0.453543v -27.5574h
 0.453543v 9.18581h 0.453543v 9.18581h 0.453543v -18.3716h 0.453543v 41.3362h 0.453543v -36.7433h 0.453543v 22.9645h 0.453543v -13.7787h 0.453543v 18.3716h 0.453543v -18.3716h 0.453543v 4.59291h 0.453543v 4.59291h 0.453543v -4.59291h 0.453543v
 -4.59291h 0.453543v 9.18581h 0.453543v 9.18581h 0.907087v -18.3716h 0.453543v 22.9645h 0.453543v -13.7787h 0.907087v -4.59291h 0.453543v 22.9645h 0.453543v -18.3716h 0.453543v 4.59291h 0.907087v 13.7787h 0.453543v -18.3716h 0.453543v 13.7787h
 0.453543v -13.7787h 0.453543v 9.18581h 0.453543v -4.59291h 1.36063v 9.18581h 0.453543v -9.18581h 0.453543v 4.59291h 1.36063v 9.18581h 0.453543v -13.7787h 0.453543v 4.59291h 0.453543v 9.18581h 0.453543v -18.3716h 0.453543v 9.18581h 0.453543v 4.59291h
 0.453543v 4.59291h 0.907087v -4.59291h 0.907087v 4.59291h 0.453543v -9.18581h 0.453543v 4.59291h 0.907087v 4.59291h 0.453543v -4.59291h 0.907087v -13.7787h 0.453543v 13.7787h 1.81417v 4.59291h 0.453543v -4.59291h 0.453543v 4.59291h 0.453543v
 -4.59291h 0.453543v 4.59291h 0.907087v -4.59291h 1.36063v 4.59291h 0.453543v -4.59291h 0.453543v 4.59291h 0.453543v -9.18581h 0.453543v 4.59291h 0.453543v 4.59291h 4.98898v -4.59291h 0.453543v 4.59291h 1.81417v -4.59291h 3.1748v -4.59291h 0.907087v
 9.18581h 0.907087v -4.59291h 0.453543v 4.59291h 1.36063v -4.59291h 0.907087v 4.59291h 1.36063v -4.59291h 0.453543v 4.59291h 0.907087v -9.18581h 0.453543v 9.18581h 0.453543v -4.59291h 0.453543v 4.59291h 0.453543v -4.59291h 0.907087v 4.59291h
 0.907087v -9.18581h 0.453543v 9.18581h 2.26772v -4.59291h 0.453543v 4.59291h 2.26772v -4.59291h 0.453543v 4.59291h 3.1748v -4.59291h 0.453543v 4.59291h 0.453543v -4.59291h 0.453543v 4.59291h 0.453543v -4.59291h 0.907087v -9.18581h 0.453543v 9.18581h
 0.453543v 4.59291h 3.1748v -4.59291h 0.453543v 4.59291h 0.907087v -4.59291h 0.453543v 4.59291h 8.61732v -4.59291h 0.453543v 4.59291h 3.1748v -4.59291h 0.907087v 4.59291h 1.36063v -4.59291h 0.453543v 4.59291h 1.81417v -4.59291h 0.453543v 4.59291h
 6.80315v -4.59291h 0.907087v 4.59291h 8.16378v -4.59291h 0.453543v 4.59291h 12.2457v -4.59291h 0.907087v 4.59291h 4.98898v -4.59291h 0.453543v 4.59291h 7.25669v -4.59291h 0.453543v 4.59291h 6.34961v -4.59291h 0.453543v 4.59291h 11.3386v -4.59291h
 0.453543v 4.59291h 0.453543v -4.59291h 0.453543v 4.59291h 28.5732v -4.59291h 0.453543v 4.59291h 4.08189v -4.59291h 0.453543v 4.59291h 31.748v -4.59291h 0.453543v 4.59291h 44.4472" fill="none" stroke="#000099"/>
<path d="M148.809,264.115l 1.81417, 5.75951e-05l 1.81417, 8.94896e-05l 1.81417, 0.000137789l 1.81417, 0.000210239l 1.81417, 0.000317882l 1.81417, 0.000476294l 1.81417, 0.000707196l 1.81417, 0.00104054l 1.81417, 0.00151717l 1.81417, 0.00219213l
 1.81417, 0.00313873l 1.81417, 0.00445344l 1.81417, 0.00626171l 1.81417, 0.00872462l 1.81417, 0.0120463l 1.81417, 0.0164824l 1.81417, 0.022348l 1.81417, 0.0300272l 1.81417, 0.0399803l 1.81417, 0.0527512l 1.81417, 0.0689722l 1.81417, 0.0893659l
 1.81417, 0.114743l 1.81417, 0.145994l 1.81417, 0.184076l 1.81417, 0.229995l 1.81417, 0.284769l 1.81417, 0.349401l 1.81417, 0.424825l 1.81417, 0.511861l 1.81417, 0.611153l 1.81417, 0.723107l 1.81417, 0.847835l 1.81417, 0.985089l 1.81417, 1.13421l
 1.81417, 1.29411l 1.81417, 1.46319l 1.81417, 1.63941l 1.81417, 1.82024l 1.81417, 2.00275l 1.81417, 2.18363l 1.81417, 2.35933l 1.81417, 2.52611l 1.81417, 2.68023l 1.81417, 2.81804l 1.81417, 2.93615l 1.81417, 3.03155l 1.81417, 3.10175l 1.81417,
 3.14488" fill="none" stroke="#ff0000" stroke-width="2"/>
<path d="M237.703,304.025l 1.81417, 3.15978l 1.81417, 3.14605l 1.81417, 3.10405l 1.81417, 3.03493l 1.81417, 2.94052l 1.81417, 2.82329l 1.81417, 2.68622l 1.81417, 2.5327l 1.81417, 2.36636l 1.81417, 2.19095l 1.81417, 2.01021l 1.81417, 1.8277l 1.81417,
 1.64674l 1.81417, 1.47028l 1.81417, 1.30086l 1.81417, 1.14056l 1.81417, 0.990968l 1.81417, 0.853212l 1.81417, 0.727964l 1.81417, 0.615486l 1.81417, 0.515682l 1.81417, 0.428156l 1.81417, 0.352271l 1.81417, 0.287215l 1.81417, 0.232056l 1.81417,
 0.185796l 1.81417, 0.147412l 1.81417, 0.115901l 1.81417, 0.0903013l 1.81417, 0.0697201l 1.81417, 0.053343l 1.81417, 0.0404438l 1.81417, 0.0303867l 1.81417, 0.022624l 1.81417, 0.0166921l 1.81417, 0.0420478h 23.5843" fill="none" stroke="#ff0000"
 stroke-width="2"/>
<path d="M326.598,347.224h 1.81417" fill="none" stroke="#ff0000" stroke-width="2"/>
<rect x="442.705" y="25.0773" width="113.386" height="61.7287" fill="white"/>
<path d="M442.705,86.8059h 113.386" fill="none" stroke="black"/>
<path d="M556.091,86.8059v -61.7287" fill="none" stroke="black"/>
<path d="M556.091,25.0773h -113.386" fill="none" stroke="black"/>
<path d="M442.705,25.0773v 61.7287" fill="none" stroke="black"/>
<text xml:space="preserve" x="460.216" y="37.3621" fill="black" font-size="13.5253" font-family="Helvetica">A_Cs_1900V</text>
<path d="M442.705,40.5094h 113.386" fill="none" stroke="black"/>
<text xml:space="preserve" x="448.033" y="52.7943" fill="black" font-size="13.1417" font-family="Helvetica">Entries </text>
<text xml:space="preserve" x="510.574" y="52.7943" fill="black" font-size="13.1417" font-family="Helvetica"> 10000</text>
<text xml:space="preserve" x="448.033" y="68.2264" fill="black" font-size="13.1417" font-family="Helvetica">Mean  </text>
<text xml:space="preserve" x="510.574" y="68.2264" fill="black" font-size="13.1417" font-family="Helvetica">  434.6</text>
<text xml:space="preserve" x="448.033" y="84.4708" fill="black" font-size="13.1417" font-family="Helvetica">Std Dev   </text>
<text xml:space="preserve" x="514.635" y="83.6586" fill="black" font-size="13.1417" font-family="Helvetica">    322</text>
<path d="M57.1929,347.224h 453.543" fill="none" stroke="black"/>
<path d="M57.1929,337.964v 9.2593" fill="none" stroke="black"/>
<path d="M75.3346,342.594v 4.62965" fill="none" stroke="black"/>
<path d="M93.4764,342.594v 4.62965" fill="none" stroke="black"/>
<path d="M111.618,342.594v 4.62965" fill="none" stroke="black"/>
<path d="M129.76,342.594v 4.62965" fill="none" stroke="black"/>
<path d="M147.902,337.964v 9.2593" fill="none" stroke="black"/>
<path d="M166.043,342.594v 4.62965" fill="none" stroke="black"/>
<path d="M184.185,342.594v 4.62965" fill="none" stroke="black"/>
<path d="M202.327,342.594v 4.62965" fill="none" stroke="black"/>
<path d="M220.469,342.594v 4.62965" fill="none" stroke="black"/>
<path d="M238.61,337.964v 9.2593" fill="none" stroke="black"/>
<path d="M256.752,342.594v 4.62965" fill="none" stroke="black"/>
<path d="M274.894,342.594v 4.62965" fill="none" stroke="black"/>
<path d="M293.035,342.594v 4.62965" fill="none" stroke="black"/>
<path d="M311.177,342.594v 4.62965" fill="none" stroke="black"/>
<path d="M329.319,337.964v 9.2593" fill="none" stroke="black"/>
<path d="M347.461,342.594v 4.62965" fill="none" stroke="black"/>
<path d="M365.602,342.594v 4.62965" fill="none" stroke="black"/>
<path d="M383.744,342.594v 4.62965" fill="none" stroke="black"/>
<path d="M401.886,342.594v 4.62965" fill="none" stroke="black"/>
<path d="M420.028,337.964v 9.2593" fill="none" stroke="black"/>
<path d="M438.169,342.594v 4.62965" fill="none" stroke="black"/>
<path d="M456.311,342.594v 4.62965" fill="none" stroke="black"/>
<path d="M474.453,342.594v 4.62965" fill="none" stroke="black"/>
<path d="M492.594,342.594v 4.62965" fill="none" stroke="black"/>
<path d="M510.736,337.964v 9.2593" fill="none" stroke="black"/>
<text xml:space="preserve" x="52.482" y="359.813" fill="black" font-size="12.8882" font-family="Helvetica">0</text>
<text xml:space="preserve" x="136.141" y="359.813" fill="black" font-size="12.8882" font-family="Helvetica">500</text>
<text xml:space="preserve" x="223.86" y="359.813" fill="black" font-size="12.8882" font-family="Helvetica">1000</text>
<text xml:space="preserve" x="314.017" y="359.813" fill="black" font-size="12.8882" font-family="Helvetica">1500</text>
<text xml:space="preserve" x="404.985" y="359.813" fill="black" font-size="12.8882" font-family="Helvetica">2000</text>
<text xml:space="preserve" x="495.954" y="359.813" fill="black" font-size="12.8882" font-family="Helvetica">2500</text>
<text xml:space="preserve" x="448.845" y="374.433" fill="black" font-size="12.8882" font-family="Helvetica">ADC value</text>
<path d="M57.1929,347.224v -308.643" fill="none" stroke="black"/>
<path d="M70.7992,347.224h -13.6063" fill="none" stroke="black"/>
<path d="M63.9961,338.038h -6.80315" fill="none" stroke="black"/>
<path d="M63.9961,328.852h -6.80315" fill="none" stroke="black"/>
<path d="M63.9961,319.666h -6.80315" fill="none" stroke="black"/>
<path d="M63.9961,310.481h -6.80315" fill="none" stroke="black"/>
<path d="M70.7992,301.295h -13.6063" fill="none" stroke="black"/>
<path d="M63.9961,292.109h -6.80315" fill="none" stroke="black"/>
<path d="M63.9961,282.923h -6.80315" fill="none" stroke="black"/>
<path d="M63.9961,273.737h -6.80315" fill="none" stroke="black"/>
<path d="M63.9961,264.551h -6.80315" fill="none" stroke="black"/>
<path d="M70.7992,255.366h -13.6063" fill="none" stroke="black"/>
<path d="M63.9961,246.18h -6.80315" fill="none" stroke="black"/>
<path d="M63.9961,236.994h -6.80315" fill="none" stroke="black"/>
<path d="M63.9961,227.808h -6.80315" fill="none" stroke="black"/>
<path d="M63.9961,218.622h -6.80315" fill="none" stroke="black"/>
<path d="M70.7992,209.437h -13.6063" fill="none" stroke="black"/>
<path d="M63.9961,200.251h -6.80315" fill="none" stroke="black"/>
<path d="M63.9961,191.065h -6.80315" fill="none" stroke="black"/>
<path d="M63.9961,181.879h -6.80315" fill="none" stroke="black"/>
<path d="M63.9961,172.693h -6.80315" fill="none" stroke="black"/>
<path d="M70.7992,163.508h -13.6063" fill="none" stroke="black"/>
<path d="M63.9961,154.322h -6.80315" fill="none" stroke="black"/>
<path d="M63.9961,145.136h -6.80315" fill="none" stroke="black"/>
<path d="M63.9961,135.95h -6.80315" fill="none" stroke="black"/>
<path d="M63.9961,126.764h -6.80315" fill="none" stroke="black"/>
<path d="M70.7992,117.578h -13.6063" fill="none" stroke="black"/>
<path d="M63.9961,108.393h -6.80315" fill="none" stroke="black"/>
<path d="M63.9961,99.2068h -6.80315" fill="none" stroke="black"/>
<path d="M63.9961,90.021h -6.80315" fill="none" stroke="black"/>
<path d="M63.9961,80.8352h -6.80315" fill="none" stroke="black"/>
<path d="M70.7992,71.6494h -13.6063" fill="none" stroke="black"/>
<path d="M70.7992,71.6494h -13.6063" fill="none" stroke="black"/>
<path d="M63.9961,62.4635h -6.80315" fill="none" stroke="black"/>
<path d="M63.9961,53.2777h -6.80315" fill="none" stroke="black"/>
<path d="M63.9961,44.0919h -6.80315" fill="none" stroke="black"/>
<text xml:space="preserve" x="46.7965" y="351.691" fill="black" font-size="12.8882" font-family="Helvetica">0</text>
<text xml:space="preserve" x="39.4865" y="305.395" fill="black" font-size="12.8882" font-family="Helvetica">10</text>
<text xml:space="preserve" x="39.4865" y="259.91" fill="black" font-size="12.8882" font-family="Helvetica">20</text>
<text xml:space="preserve" x="39.4865" y="213.614" fill="black" font-size="12.8882" font-family="Helvetica">30</text>
<text xml:space="preserve" x="39.4865" y="168.129" fill="black" font-size="12.8882" font-family="Helvetica">40</text>
<text xml:space="preserve" x="39.4865" y="121.833" fill="black" font-size="12.8882" font-family="Helvetica">50</text>
<text xml:space="preserve" x="39.4865" y="76.3486" fill="black" font-size="12.8882" font-family="Helvetica">60</text>
<g transform="rotate(-90,28.9277,77.9731)">
<text xml:space="preserve" x="28.9277" y="77.9731" fill="black" font-size="12.8882" font-family="Helvetica">Events</text>
</g>
<rect x="442.705" y="25.0773" width="113.386" height="61.7287" fill="white"/>
<path d="M442.705,86.8059h 113.386" fill="none" stroke="black"/>
<path d="M556.091,86.8059v -61.7287" fill="none" stroke="black"/>
<path d="M556.091,25.0773h -113.386" fill="none" stroke="black"/>
<path d="M442.705,25.0773v 61.7287" fill="none" stroke="black"/>
<text xml:space="preserve" x="460.216" y="37.3621" fill="black" font-size="13.5253" font-family="Helvetica">A_Cs_1900V</text>
<path d="M442.705,40.5094h 113.386" fill="none" stroke="black"/>
<text xml:space="preserve" x="448.033" y="52.7943" fill="black" font-size="13.1417" font-family="Helvetica">Entries </text>
<text xml:space="preserve" x="510.574" y="52.7943" fill="black" font-size="13.1417" font-family="Helvetica"> 10000</text>
<text xml:space="preserve" x="448.033" y="68.2264" fill="black" font-size="13.1417" font-family="Helvetica">Mean  </text>
<text xml:space="preserve" x="510.574" y="68.2264" fill="black" font-size="13.1417" font-family="Helvetica">  434.6</text>
<text xml:space="preserve" x="448.033" y="84.4708" fill="black" font-size="13.1417" font-family="Helvetica">Std Dev   </text>
<text xml:space="preserve" x="514.635" y="83.6586" fill="black" font-size="13.1417" font-family="Helvetica">    322</text>
<text xml:space="preserve" x="233.607" y="17.8688" fill="black" font-size="17.0471" font-family="Helvetica">A_Cs_1900V</text></svg>
