<?xml version="1.0" standalone="no"?>
<svg width="567.429" height="386.304" viewBox="0 0 567.429 386.304" xmlns="http://www.w3.org/2000/svg" shape-rendering="crispEdges">
<title>
img/calibration/A_prop.svg
</title>
<desc>
Creator: ROOT Version 6.22/08
CreationDate: Wed Jun  9 20:45:56 2021</desc>
<defs>
</defs>
<rect x="0.5" y="0" width="566.929" height="385.804" fill="white"/>
<rect x="57.1929" y="38.5804" width="453.543" height="308.643" fill="white"/>
<rect x="57.1929" y="38.5804" width="453.543" height="308.643" fill="none" stroke="black"/>
<rect x="57.1929" y="38.5804" width="453.543" height="308.643" fill="white"/>
<rect x="57.1929" y="38.5804" width="453.543" height="308.643" fill="none" stroke="black"/>
<path d="M57.1929,347.224h 453.543" fill="none" stroke="black"/>
<path d="M57.1929,337.964v 9.2593" fill="none" stroke="black"/>
<path d="M75.6162,342.594v 4.62965" fill="none" stroke="black"/>
<path d="M94.0394,342.594v 4.62965" fill="none" stroke="black"/>
<path d="M112.463,342.594v 4.62965" fill="none" stroke="black"/>
<path d="M130.886,337.964v 9.2593" fill="none" stroke="black"/>
<path d="M149.309,342.594v 4.62965" fill="none" stroke="black"/>
<path d="M167.732,342.594v 4.62965" fill="none" stroke="black"/>
<path d="M186.156,342.594v 4.62965" fill="none" stroke="black"/>
<path d="M204.579,337.964v 9.2593" fill="none" stroke="black"/>
<path d="M223.002,342.594v 4.62965" fill="none" stroke="black"/>
<path d="M241.425,342.594v 4.62965" fill="none" stroke="black"/>
<path d="M259.849,342.594v 4.62965" fill="none" stroke="black"/>
<path d="M278.272,337.964v 9.2593" fill="none" stroke="black"/>
<path d="M296.695,342.594v 4.62965" fill="none" stroke="black"/>
<path d="M315.118,342.594v 4.62965" fill="none" stroke="black"/>
<path d="M333.542,342.594v 4.62965" fill="none" stroke="black"/>
<path d="M351.965,337.964v 9.2593" fill="none" stroke="black"/>
<path d="M370.388,342.594v 4.62965" fill="none" stroke="black"/>
<path d="M388.811,342.594v 4.62965" fill="none" stroke="black"/>
<path d="M407.234,342.594v 4.62965" fill="none" stroke="black"/>
<path d="M425.658,337.964v 9.2593" fill="none" stroke="black"/>
<path d="M444.081,342.594v 4.62965" fill="none" stroke="black"/>
<path d="M462.504,342.594v 4.62965" fill="none" stroke="black"/>
<path d="M480.927,342.594v 4.62965" fill="none" stroke="black"/>
<path d="M499.351,337.964v 9.2593" fill="none" stroke="black"/>
<path d="M499.351,337.964v 9.2593" fill="none" stroke="black"/>
<text xml:space="preserve" x="52.482" y="359.813" fill="black" font-size="12.8882" font-family="Helvetica">0</text>
<text xml:space="preserve" x="119.084" y="359.813" fill="black" font-size="12.8882" font-family="Helvetica">200</text>
<text xml:space="preserve" x="192.996" y="359.813" fill="black" font-size="12.8882" font-family="Helvetica">400</text>
<text xml:space="preserve" x="266.096" y="359.813" fill="black" font-size="12.8882" font-family="Helvetica">600</text>
<text xml:space="preserve" x="340.008" y="359.813" fill="black" font-size="12.8882" font-family="Helvetica">800</text>
<text xml:space="preserve" x="410.671" y="359.813" fill="black" font-size="12.8882" font-family="Helvetica">1000</text>
<text xml:space="preserve" x="484.583" y="359.813" fill="black" font-size="12.8882" font-family="Helvetica">1200</text>
<text xml:space="preserve" x="534.128" y="339.508" fill="black" font-size="8.75881" font-family="Helvetica">3</text>
<text xml:space="preserve" x="519.508" y="346.818" fill="black" font-size="12.8882" font-family="Helvetica">10</text>
<text xml:space="preserve" x="512.198" y="346.818" fill="black" font-size="12.8882" font-family="Times">&#0215;</text>
<path d="M57.1929,347.224v -308.643" fill="none" stroke="black"/>
<path d="M70.7992,347.224h -13.6063" fill="none" stroke="black"/>
<path d="M63.9961,338.429h -6.80315" fill="none" stroke="black"/>
<path d="M63.9961,329.635h -6.80315" fill="none" stroke="black"/>
<path d="M63.9961,320.841h -6.80315" fill="none" stroke="black"/>
<path d="M70.7992,312.047h -13.6063" fill="none" stroke="black"/>
<path d="M63.9961,303.252h -6.80315" fill="none" stroke="black"/>
<path d="M63.9961,294.458h -6.80315" fill="none" stroke="black"/>
<path d="M63.9961,285.664h -6.80315" fill="none" stroke="black"/>
<path d="M70.7992,276.869h -13.6063" fill="none" stroke="black"/>
<path d="M63.9961,268.075h -6.80315" fill="none" stroke="black"/>
<path d="M63.9961,259.281h -6.80315" fill="none" stroke="black"/>
<path d="M63.9961,250.486h -6.80315" fill="none" stroke="black"/>
<path d="M70.7992,241.692h -13.6063" fill="none" stroke="black"/>
<path d="M63.9961,232.898h -6.80315" fill="none" stroke="black"/>
<path d="M63.9961,224.103h -6.80315" fill="none" stroke="black"/>
<path d="M63.9961,215.309h -6.80315" fill="none" stroke="black"/>
<path d="M70.7992,206.515h -13.6063" fill="none" stroke="black"/>
<path d="M63.9961,197.72h -6.80315" fill="none" stroke="black"/>
<path d="M63.9961,188.926h -6.80315" fill="none" stroke="black"/>
<path d="M63.9961,180.132h -6.80315" fill="none" stroke="black"/>
<path d="M70.7992,171.337h -13.6063" fill="none" stroke="black"/>
<path d="M63.9961,162.543h -6.80315" fill="none" stroke="black"/>
<path d="M63.9961,153.749h -6.80315" fill="none" stroke="black"/>
<path d="M63.9961,144.954h -6.80315" fill="none" stroke="black"/>
<path d="M70.7992,136.16h -13.6063" fill="none" stroke="black"/>
<path d="M63.9961,127.366h -6.80315" fill="none" stroke="black"/>
<path d="M63.9961,118.571h -6.80315" fill="none" stroke="black"/>
<path d="M63.9961,109.777h -6.80315" fill="none" stroke="black"/>
<path d="M70.7992,100.983h -13.6063" fill="none" stroke="black"/>
<path d="M63.9961,92.1884h -6.80315" fill="none" stroke="black"/>
<path d="M63.9961,83.3941h -6.80315" fill="none" stroke="black"/>
<path d="M63.9961,74.5998h -6.80315" fill="none" stroke="black"/>
<path d="M70.7992,65.8055h -13.6063" fill="none" stroke="black"/>
<path d="M70.7992,65.8055h -13.6063" fill="none" stroke="black"/>
<path d="M63.9961,57.0111h -6.80315" fill="none" stroke="black"/>
<path d="M63.9961,48.2168h -6.80315" fill="none" stroke="black"/>
<path d="M63.9961,39.4225h -6.80315" fill="none" stroke="black"/>
<text xml:space="preserve" x="46.7965" y="351.691" fill="black" font-size="12.8882" font-family="Helvetica">0</text>
<text xml:space="preserve" x="32.1766" y="316.766" fill="black" font-size="12.8882" font-family="Helvetica">200</text>
<text xml:space="preserve" x="32.1766" y="281.028" fill="black" font-size="12.8882" font-family="Helvetica">400</text>
<text xml:space="preserve" x="32.1766" y="246.102" fill="black" font-size="12.8882" font-family="Helvetica">600</text>
<text xml:space="preserve" x="32.1766" y="211.177" fill="black" font-size="12.8882" font-family="Helvetica">800</text>
<text xml:space="preserve" x="25.6788" y="175.439" fill="black" font-size="12.8882" font-family="Helvetica">1000</text>
<text xml:space="preserve" x="25.6788" y="140.514" fill="black" font-size="12.8882" font-family="Helvetica">1200</text>
<text xml:space="preserve" x="25.6788" y="105.589" fill="black" font-size="12.8882" font-family="Helvetica">1400</text>
<text xml:space="preserve" x="25.6788" y="70.6631" fill="black" font-size="12.8882" font-family="Helvetica">1600</text>
<g stroke="black" stroke-width="1" fill="none">
<line x1="181.729" y1="215.306" x2="182.729" y2="215.306"/>
<line x1="231.951" y1="171.301" x2="232.951" y2="171.301"/>
<line x1="468.505" y1="69.014" x2="469.505" y2="69.014"/>
<line x1="411.098" y1="85.2431" x2="412.098" y2="85.2431"/>
<line x1="56.1929" y1="347.224" x2="57.1929" y2="347.224"/>
</g>
<path d="M59.4606,265.753l 4.53543, -2.26681l 4.53543, -2.26681l 4.53543, -2.26681l 4.53543, -2.26681l 4.53543, -2.26681l 4.53543, -2.26681l 4.53543, -2.26681l 4.53543, -2.26681l 4.53543, -2.26681l 4.53543, -2.26681l 4.53543, -2.26681l 4.53543,
 -2.26681l 4.53543, -2.26681l 4.53543, -2.26681l 4.53543, -2.26681l 4.53543, -2.26681l 4.53543, -2.26681l 4.53543, -2.26681l 4.53543, -2.26681l 4.53543, -2.26681l 4.53543, -2.26681l 4.53543, -2.26681l 4.53543, -2.26681l 4.53543, -2.26681l 4.53543,
 -2.26681l 4.53543, -2.26681l 4.53543, -2.26681l 4.53543, -2.26681l 4.53543, -2.26681l 4.53543, -2.26681l 4.53543, -2.26681l 4.53543, -2.26681l 4.53543, -2.26681l 4.53543, -2.26681l 4.53543, -2.26681l 4.53543, -2.26681l 4.53543, -2.26681l 4.53543,
 -2.26681l 4.53543, -2.26681l 4.53543, -2.26681l 4.53543, -2.26681l 4.53543, -2.26681l 4.53543, -2.26681l 4.53543, -2.26681l 4.53543, -2.26681l 4.53543, -2.26681l 4.53543, -2.26681l 4.53543, -2.26681l 4.53543, -2.26681" fill="none" stroke="#ff0000"
 stroke-width="2"/>
<path d="M281.697,154.68l 4.53543, -2.26681l 4.53543, -2.26681l 4.53543, -2.26681l 4.53543, -2.26681l 4.53543, -2.26681l 4.53543, -2.26681l 4.53543, -2.26681l 4.53543, -2.26681l 4.53543, -2.26681l 4.53543, -2.26681l 4.53543, -2.26681l 4.53543,
 -2.26681l 4.53543, -2.26681l 4.53543, -2.26681l 4.53543, -2.26681l 4.53543, -2.26681l 4.53543, -2.26681l 4.53543, -2.26681l 4.53543, -2.26681l 4.53543, -2.26681l 4.53543, -2.26681l 4.53543, -2.26681l 4.53543, -2.26681l 4.53543, -2.26681l 4.53543,
 -2.26681l 4.53543, -2.26681l 4.53543, -2.26681l 4.53543, -2.26681l 4.53543, -2.26681l 4.53543, -2.26681l 4.53543, -2.26681l 4.53543, -2.26681l 4.53543, -2.26681l 4.53543, -2.26681l 4.53543, -2.26681l 4.53543, -2.26681l 4.53543, -2.26681l 4.53543,
 -2.26681l 4.53543, -2.26681l 4.53543, -2.26681l 4.53543, -2.26681l 4.53543, -2.26681l 4.53543, -2.26681l 4.53543, -2.26681l 4.53543, -2.26681l 4.53543, -2.26681l 4.53543, -2.26681l 4.53543, -2.26681l 4.53543, -2.26681" fill="none" stroke="#ff0000"
 stroke-width="2"/>
<path d="M503.933,43.6058l 4.53543, -2.26681" fill="none" stroke="#ff0000" stroke-width="2"/>
<path d="M182.729,215.306v -1.29136" fill="none" stroke="black"/>
<path d="M181.104,214.014h 3.24888" fill="none" stroke="black"/>
<path d="M182.729,215.306v 1.29136" fill="none" stroke="black"/>
<path d="M181.104,216.597h 3.24888" fill="none" stroke="black"/>
<path d="M232.951,171.301v -0.977375" fill="none" stroke="black"/>
<path d="M231.326,170.324h 3.24888" fill="none" stroke="black"/>
<path d="M232.951,171.301v 0.977375" fill="none" stroke="black"/>
<path d="M231.326,172.279h 3.24888" fill="none" stroke="black"/>
<path d="M469.505,69.014v -2.37513" fill="none" stroke="black"/>
<path d="M467.881,66.6389h 3.24888" fill="none" stroke="black"/>
<path d="M469.505,69.014v 2.37513" fill="none" stroke="black"/>
<path d="M467.881,71.3892h 3.24888" fill="none" stroke="black"/>
<path d="M412.098,85.2431v -9.9344" fill="none" stroke="black"/>
<path d="M410.474,75.3087h 3.24888" fill="none" stroke="black"/>
<path d="M412.098,85.2431v 9.9344" fill="none" stroke="black"/>
<path d="M410.474,95.1775h 3.24888" fill="none" stroke="black"/>
<text xml:space="preserve" x="259.598" y="18.681" fill="black" font-size="17.9813" font-family="Helvetica">Graph</text></svg>
