<?xml version="1.0" standalone="no"?>
<svg width="567.429" height="384.68" viewBox="0 0 567.429 384.68" xmlns="http://www.w3.org/2000/svg" shape-rendering="crispEdges">
<title>
img/calibration/A_prop.svg
</title>
<desc>
Creator: ROOT Version 6.22/09
CreationDate: Wed Jun  9 14:28:58 2021</desc>
<defs>
</defs>
<rect x="0.5" y="0" width="566.929" height="384.18" fill="white"/>
<rect x="57.1929" y="38.418" width="453.543" height="307.344" fill="white"/>
<rect x="57.1929" y="38.418" width="453.543" height="307.344" fill="none" stroke="black"/>
<rect x="57.1929" y="38.418" width="453.543" height="307.344" fill="white"/>
<rect x="57.1929" y="38.418" width="453.543" height="307.344" fill="none" stroke="black"/>
<path d="M57.1929,345.762h 453.543" fill="none" stroke="black"/>
<path d="M57.1929,336.541v 9.22031" fill="none" stroke="black"/>
<path d="M75.6162,341.152v 4.61016" fill="none" stroke="black"/>
<path d="M94.0394,341.152v 4.61016" fill="none" stroke="black"/>
<path d="M112.463,341.152v 4.61016" fill="none" stroke="black"/>
<path d="M130.886,336.541v 9.22031" fill="none" stroke="black"/>
<path d="M149.309,341.152v 4.61016" fill="none" stroke="black"/>
<path d="M167.732,341.152v 4.61016" fill="none" stroke="black"/>
<path d="M186.156,341.152v 4.61016" fill="none" stroke="black"/>
<path d="M204.579,336.541v 9.22031" fill="none" stroke="black"/>
<path d="M223.002,341.152v 4.61016" fill="none" stroke="black"/>
<path d="M241.425,341.152v 4.61016" fill="none" stroke="black"/>
<path d="M259.849,341.152v 4.61016" fill="none" stroke="black"/>
<path d="M278.272,336.541v 9.22031" fill="none" stroke="black"/>
<path d="M296.695,341.152v 4.61016" fill="none" stroke="black"/>
<path d="M315.118,341.152v 4.61016" fill="none" stroke="black"/>
<path d="M333.542,341.152v 4.61016" fill="none" stroke="black"/>
<path d="M351.965,336.541v 9.22031" fill="none" stroke="black"/>
<path d="M370.388,341.152v 4.61016" fill="none" stroke="black"/>
<path d="M388.811,341.152v 4.61016" fill="none" stroke="black"/>
<path d="M407.234,341.152v 4.61016" fill="none" stroke="black"/>
<path d="M425.658,336.541v 9.22031" fill="none" stroke="black"/>
<path d="M444.081,341.152v 4.61016" fill="none" stroke="black"/>
<path d="M462.504,341.152v 4.61016" fill="none" stroke="black"/>
<path d="M480.927,341.152v 4.61016" fill="none" stroke="black"/>
<path d="M499.351,336.541v 9.22031" fill="none" stroke="black"/>
<path d="M499.351,336.541v 9.22031" fill="none" stroke="black"/>
<text xml:space="preserve" x="53.2943" y="358.189" fill="black" font-size="12.836" font-family="Helvetica">0</text>
<text xml:space="preserve" x="119.896" y="358.189" fill="black" font-size="12.836" font-family="Helvetica">200</text>
<text xml:space="preserve" x="193.808" y="358.189" fill="black" font-size="12.836" font-family="Helvetica">400</text>
<text xml:space="preserve" x="266.908" y="358.189" fill="black" font-size="12.836" font-family="Helvetica">600</text>
<text xml:space="preserve" x="340.82" y="358.189" fill="black" font-size="12.836" font-family="Helvetica">800</text>
<text xml:space="preserve" x="411.483" y="358.189" fill="black" font-size="12.836" font-family="Helvetica">1000</text>
<text xml:space="preserve" x="485.395" y="358.189" fill="black" font-size="12.836" font-family="Helvetica">1200</text>
<text xml:space="preserve" x="531.691" y="338.695" fill="black" font-size="8.72403" font-family="Helvetica">3</text>
<text xml:space="preserve" x="518.696" y="345.193" fill="black" font-size="12.836" font-family="Helvetica">10</text>
<text xml:space="preserve" x="512.198" y="345.193" fill="black" font-size="12.836" font-family="Times">&#0215;</text>
<path d="M57.1929,345.762v -307.344" fill="none" stroke="black"/>
<path d="M70.7992,345.762h -13.6063" fill="none" stroke="black"/>
<path d="M63.9961,337.005h -6.80315" fill="none" stroke="black"/>
<path d="M63.9961,328.247h -6.80315" fill="none" stroke="black"/>
<path d="M63.9961,319.49h -6.80315" fill="none" stroke="black"/>
<path d="M70.7992,310.733h -13.6063" fill="none" stroke="black"/>
<path d="M63.9961,301.975h -6.80315" fill="none" stroke="black"/>
<path d="M63.9961,293.218h -6.80315" fill="none" stroke="black"/>
<path d="M63.9961,284.461h -6.80315" fill="none" stroke="black"/>
<path d="M70.7992,275.703h -13.6063" fill="none" stroke="black"/>
<path d="M63.9961,266.946h -6.80315" fill="none" stroke="black"/>
<path d="M63.9961,258.189h -6.80315" fill="none" stroke="black"/>
<path d="M63.9961,249.432h -6.80315" fill="none" stroke="black"/>
<path d="M70.7992,240.674h -13.6063" fill="none" stroke="black"/>
<path d="M63.9961,231.917h -6.80315" fill="none" stroke="black"/>
<path d="M63.9961,223.16h -6.80315" fill="none" stroke="black"/>
<path d="M63.9961,214.402h -6.80315" fill="none" stroke="black"/>
<path d="M70.7992,205.645h -13.6063" fill="none" stroke="black"/>
<path d="M63.9961,196.888h -6.80315" fill="none" stroke="black"/>
<path d="M63.9961,188.131h -6.80315" fill="none" stroke="black"/>
<path d="M63.9961,179.373h -6.80315" fill="none" stroke="black"/>
<path d="M70.7992,170.616h -13.6063" fill="none" stroke="black"/>
<path d="M63.9961,161.859h -6.80315" fill="none" stroke="black"/>
<path d="M63.9961,153.101h -6.80315" fill="none" stroke="black"/>
<path d="M63.9961,144.344h -6.80315" fill="none" stroke="black"/>
<path d="M70.7992,135.587h -13.6063" fill="none" stroke="black"/>
<path d="M63.9961,126.829h -6.80315" fill="none" stroke="black"/>
<path d="M63.9961,118.072h -6.80315" fill="none" stroke="black"/>
<path d="M63.9961,109.315h -6.80315" fill="none" stroke="black"/>
<path d="M70.7992,100.558h -13.6063" fill="none" stroke="black"/>
<path d="M63.9961,91.8003h -6.80315" fill="none" stroke="black"/>
<path d="M63.9961,83.043h -6.80315" fill="none" stroke="black"/>
<path d="M63.9961,74.2857h -6.80315" fill="none" stroke="black"/>
<path d="M70.7992,65.5284h -13.6063" fill="none" stroke="black"/>
<path d="M70.7992,65.5284h -13.6063" fill="none" stroke="black"/>
<path d="M63.9961,56.7711h -6.80315" fill="none" stroke="black"/>
<path d="M63.9961,48.0138h -6.80315" fill="none" stroke="black"/>
<path d="M63.9961,39.2565h -6.80315" fill="none" stroke="black"/>
<text xml:space="preserve" x="47.6087" y="350.067" fill="black" font-size="12.836" font-family="Helvetica">0</text>
<text xml:space="preserve" x="33.801" y="315.141" fill="black" font-size="12.836" font-family="Helvetica">200</text>
<text xml:space="preserve" x="33.801" y="280.216" fill="black" font-size="12.836" font-family="Helvetica">400</text>
<text xml:space="preserve" x="33.801" y="245.29" fill="black" font-size="12.836" font-family="Helvetica">600</text>
<text xml:space="preserve" x="33.801" y="210.365" fill="black" font-size="12.836" font-family="Helvetica">800</text>
<text xml:space="preserve" x="27.3032" y="175.439" fill="black" font-size="12.836" font-family="Helvetica">1000</text>
<text xml:space="preserve" x="27.3032" y="139.702" fill="black" font-size="12.836" font-family="Helvetica">1200</text>
<text xml:space="preserve" x="27.3032" y="104.776" fill="black" font-size="12.836" font-family="Helvetica">1400</text>
<text xml:space="preserve" x="27.3032" y="69.8509" fill="black" font-size="12.836" font-family="Helvetica">1600</text>
<g stroke="black" stroke-width="1" fill="none">
<line x1="181.729" y1="214.399" x2="182.729" y2="214.399"/>
<line x1="231.951" y1="170.58" x2="232.951" y2="170.58"/>
<line x1="468.505" y1="68.7234" x2="469.505" y2="68.7234"/>
<line x1="411.098" y1="84.8842" x2="412.098" y2="84.8842"/>
<line x1="56.1929" y1="345.762" x2="57.1929" y2="345.762"/>
</g>
<path d="M59.4606,264.634l 4.53543, -2.25727l 4.53543, -2.25727l 4.53543, -2.25727l 4.53543, -2.25727l 4.53543, -2.25727l 4.53543, -2.25727l 4.53543, -2.25727l 4.53543, -2.25727l 4.53543, -2.25727l 4.53543, -2.25727l 4.53543, -2.25727l 4.53543,
 -2.25727l 4.53543, -2.25727l 4.53543, -2.25727l 4.53543, -2.25727l 4.53543, -2.25727l 4.53543, -2.25727l 4.53543, -2.25727l 4.53543, -2.25727l 4.53543, -2.25727l 4.53543, -2.25727l 4.53543, -2.25727l 4.53543, -2.25727l 4.53543, -2.25727l 4.53543,
 -2.25727l 4.53543, -2.25727l 4.53543, -2.25727l 4.53543, -2.25727l 4.53543, -2.25727l 4.53543, -2.25727l 4.53543, -2.25727l 4.53543, -2.25727l 4.53543, -2.25727l 4.53543, -2.25727l 4.53543, -2.25727l 4.53543, -2.25727l 4.53543, -2.25727l 4.53543,
 -2.25727l 4.53543, -2.25727l 4.53543, -2.25727l 4.53543, -2.25727l 4.53543, -2.25727l 4.53543, -2.25727l 4.53543, -2.25727l 4.53543, -2.25727l 4.53543, -2.25727l 4.53543, -2.25727l 4.53543, -2.25727l 4.53543, -2.25727" fill="none" stroke="#ff0000"
 stroke-width="2"/>
<path d="M281.697,154.028l 4.53543, -2.25727l 4.53543, -2.25727l 4.53543, -2.25727l 4.53543, -2.25727l 4.53543, -2.25727l 4.53543, -2.25727l 4.53543, -2.25727l 4.53543, -2.25727l 4.53543, -2.25727l 4.53543, -2.25727l 4.53543, -2.25727l 4.53543,
 -2.25727l 4.53543, -2.25727l 4.53543, -2.25727l 4.53543, -2.25727l 4.53543, -2.25727l 4.53543, -2.25727l 4.53543, -2.25727l 4.53543, -2.25727l 4.53543, -2.25727l 4.53543, -2.25727l 4.53543, -2.25727l 4.53543, -2.25727l 4.53543, -2.25727l 4.53543,
 -2.25727l 4.53543, -2.25727l 4.53543, -2.25727l 4.53543, -2.25727l 4.53543, -2.25727l 4.53543, -2.25727l 4.53543, -2.25727l 4.53543, -2.25727l 4.53543, -2.25727l 4.53543, -2.25727l 4.53543, -2.25727l 4.53543, -2.25727l 4.53543, -2.25727l 4.53543,
 -2.25727l 4.53543, -2.25727l 4.53543, -2.25727l 4.53543, -2.25727l 4.53543, -2.25727l 4.53543, -2.25727l 4.53543, -2.25727l 4.53543, -2.25727l 4.53543, -2.25727l 4.53543, -2.25727l 4.53543, -2.25727l 4.53543, -2.25727" fill="none" stroke="#ff0000"
 stroke-width="2"/>
<path d="M503.933,43.4222l 4.53543, -2.25727" fill="none" stroke="#ff0000" stroke-width="2"/>
<path d="M182.729,214.399v -1.28592" fill="none" stroke="black"/>
<path d="M181.104,213.113h 3.24888" fill="none" stroke="black"/>
<path d="M182.729,214.399v 1.28592" fill="none" stroke="black"/>
<path d="M181.104,215.685h 3.24888" fill="none" stroke="black"/>
<path d="M232.951,170.58v -0.973259" fill="none" stroke="black"/>
<path d="M231.326,169.607h 3.24888" fill="none" stroke="black"/>
<path d="M232.951,170.58v 0.973259" fill="none" stroke="black"/>
<path d="M231.326,171.553h 3.24888" fill="none" stroke="black"/>
<path d="M469.505,68.7234v -2.36513" fill="none" stroke="black"/>
<path d="M467.881,66.3583h 3.24888" fill="none" stroke="black"/>
<path d="M469.505,68.7234v 2.36513" fill="none" stroke="black"/>
<path d="M467.881,71.0886h 3.24888" fill="none" stroke="black"/>
<path d="M412.098,84.8842v -9.89257" fill="none" stroke="black"/>
<path d="M410.474,74.9916h 3.24888" fill="none" stroke="black"/>
<path d="M412.098,84.8842v 9.89257" fill="none" stroke="black"/>
<path d="M410.474,94.7768h 3.24888" fill="none" stroke="black"/>
<text xml:space="preserve" x="257.974" y="18.681" fill="black" font-size="18.7414" font-family="Helvetica">Graph</text></svg>
