<?xml version="1.0" standalone="no"?>
<svg width="567.429" height="386.304" viewBox="0 0 567.429 386.304" xmlns="http://www.w3.org/2000/svg" shape-rendering="crispEdges">
<title>
img/calibration/B_Co_1800V_30mV.svg
</title>
<desc>
Creator: ROOT Version 6.22/08
CreationDate: Tue Jun  8 01:16:29 2021</desc>
<defs>
</defs>
<rect x="0.5" y="0" width="566.929" height="385.804" fill="white"/>
<rect x="57.1929" y="38.5804" width="453.543" height="308.643" fill="white"/>
<rect x="57.1929" y="38.5804" width="453.543" height="308.643" fill="none" stroke="black"/>
<rect x="57.1929" y="38.5804" width="453.543" height="308.643" fill="white"/>
<rect x="57.1929" y="38.5804" width="453.543" height="308.643" fill="none" stroke="black"/>
<path d="M57.1929,326.228h 0.907087v 6.99872h 0.907087v 6.99872h 1.81417v 6.99872h 2.72126v -6.99872h 0.907087v 6.99872h 0.907087v -6.99872h 0.907087v 3.49936h 0.907087v 3.49936h 0.907087v -3.49936h 1.81417v -3.49936h 1.81417v -6.99872h 0.907087v
 -17.4968h 0.907087v 10.4981h 0.907087v -13.9974h 0.907087v -20.9961h 0.907087v -17.4968h 0.907087v -24.4955h 0.907087v -10.4981h 0.907087v -31.4942h 0.907087v -13.9974h 0.907087v -3.49936h 0.907087v -6.99872h 0.907087v -90.9833h 0.907087v 52.4904h
 0.907087v -24.4955h 0.907087v 13.9974h 0.907087v -34.9936h 0.907087v 45.4917h 0.907087v -45.4917h 0.907087v 31.4942h 0.907087v -76.9859h 0.907087v 38.4929h 0.907087v -13.9974h 0.907087v 24.4955h 0.907087v -6.99872h 0.907087v 3.49936h 0.907087v
 -3.49936h 0.907087v -20.9961h 0.907087v 17.4968h 0.907087v -13.9974h 0.907087v 20.9961h 0.907087v -41.9923h 0.907087v 80.4852h 0.907087v -62.9884h 0.907087v 34.9936h 0.907087v 27.9949h 0.907087v 13.9974h 0.907087v -97.982h 0.907087v 55.9897h
 0.907087v -6.99872h 0.907087v 10.4981h 0.907087v 6.99872h 0.907087v -13.9974h 0.907087v 13.9974h 0.907087v 34.9936h 1.81417v -3.49936h 0.907087v -10.4981h 0.907087v -48.991h 0.907087v 38.4929h 0.907087v 34.9936h 0.907087v 3.49936h 0.907087v 10.4981h
 0.907087v -31.4942h 0.907087v 17.4968h 0.907087v 6.99872h 0.907087v -20.9961h 0.907087v 20.9961h 1.81417v -48.991h 0.907087v 17.4968h 0.907087v 17.4968h 0.907087v 6.99872h 0.907087v -27.9949h 0.907087v 3.49936h 0.907087v 24.4955h 0.907087v -41.9923h
 0.907087v 55.9897h 0.907087v -17.4968h 0.907087v 20.9961h 0.907087v 6.99872h 0.907087v 13.9974h 0.907087v -62.9884h 0.907087v 59.4891h 0.907087v -52.4904h 0.907087v 13.9974h 0.907087v 27.9949h 0.907087v 20.9961h 0.907087v -3.49936h 0.907087v
 3.49936h 0.907087v -10.4981h 0.907087v -6.99872h 0.907087v 13.9974h 0.907087v -3.49936h 0.907087v 10.4981h 0.907087v -6.99872h 0.907087v -17.4968h 0.907087v 10.4981h 0.907087v -34.9936h 0.907087v 24.4955h 0.907087v 27.9949h 0.907087v -3.49936h
 0.907087v 3.49936h 0.907087v 27.9949h 1.81417v -38.4929h 0.907087v 3.49936h 0.907087v -10.4981h 0.907087v 24.4955h 0.907087v -17.4968h 0.907087v 17.4968h 0.907087v -6.99872h 1.81417v 10.4981h 0.907087v 24.4955h 0.907087v -17.4968h 0.907087v 41.9923h
 0.907087v -34.9936h 0.907087v 20.9961h 0.907087v -3.49936h 0.907087v -3.49936h 0.907087v -34.9936h 0.907087v 24.4955h 0.907087v -6.99872h 0.907087v 20.9961h 0.907087v -3.49936h 0.907087v 17.4968h 0.907087v -38.4929h 0.907087v 38.4929h 0.907087v
 -20.9961h 0.907087v -13.9974h 0.907087v 66.4878h 1.81417v -41.9923h 0.907087v 3.49936h 0.907087v 13.9974h 0.907087v -38.4929h 0.907087v 27.9949h 0.907087v -10.4981h 0.907087v -6.99872h 0.907087v 10.4981h 0.907087v -20.9961h 0.907087v 34.9936h
 0.907087v -31.4942h 0.907087v 55.9897h 0.907087v -6.99872h 0.907087v -20.9961h 0.907087v -10.4981h 0.907087v 31.4942h 2.72126v -34.9936h 0.907087v 13.9974h 0.907087v 3.49936h 0.907087v 20.9961h 0.907087v -6.99872h 0.907087v -10.4981h 1.81417v
 -6.99872h 0.907087v -3.49936h 0.907087v 34.9936h 0.907087v -34.9936h 0.907087v 13.9974h 0.907087v 6.99872h 0.907087v -13.9974h 1.81417v 6.99872h 0.907087v -6.99872h 0.907087v 6.99872h 0.907087v -3.49936h 1.81417v -3.49936h 0.907087v 10.4981h
 0.907087v -24.4955h 0.907087v -6.99872h 0.907087v 31.4942h 0.907087v -6.99872h 0.907087v -17.4968h 0.907087v 13.9974h 0.907087v -10.4981h 0.907087v 10.4981h 0.907087v 13.9974h 0.907087v 6.99872h 0.907087v -13.9974h 0.907087v -10.4981h 0.907087v
 17.4968h 0.907087v -24.4955h 0.907087v -6.99872h 0.907087v 24.4955h 0.907087v -3.49936h 0.907087v -17.4968h 0.907087v 10.4981h 0.907087v -24.4955h 0.907087v 13.9974h 0.907087v 34.9936h 0.907087v -27.9949h 0.907087v 13.9974h 0.907087v -20.9961h
 0.907087v 24.4955h 0.907087v -48.991h 0.907087v 34.9936h 0.907087v 24.4955h 0.907087v -10.4981h 2.72126v -27.9949h 0.907087v -3.49936h 0.907087v -10.4981h 0.907087v 34.9936h 0.907087v -59.4891h 0.907087v 45.4917h 0.907087v 6.99872h 0.907087v
 -3.49936h 0.907087v -6.99872h 0.907087v -6.99872h 0.907087v 20.9961h 0.907087v -6.99872h 0.907087v 17.4968h 0.907087v -13.9974h 0.907087v 13.9974h 0.907087v -6.99872h 0.907087v -20.9961h 0.907087v 6.99872h 0.907087v 24.4955h 0.907087v -13.9974h
 0.907087v -6.99872h 0.907087v 3.49936h 0.907087v 6.99872h 0.907087v 13.9974h 1.81417v 6.99872h 0.907087v -6.99872h 0.907087v -13.9974h 0.907087v 38.4929h 0.907087v -31.4942h 0.907087v 27.9949h 0.907087v -24.4955h 0.907087v 3.49936h 0.907087v
 6.99872h 0.907087v 10.4981h 0.907087v -10.4981h 0.907087v -6.99872h 0.907087v -20.9961h 0.907087v 31.4942h 0.907087v 6.99872h 1.81417v 13.9974h 0.907087v -24.4955h 0.907087v 6.99872h 1.81417v 3.49936h 0.907087v -20.9961h 0.907087v 3.49936h 0.907087v
 -10.4981h 0.907087v 3.49936h 0.907087v 17.4968h 1.81417v -3.49936h 0.907087v -3.49936h 0.907087v 3.49936h 0.907087v -17.4968h 0.907087v 10.4981h 0.907087v 17.4968h 0.907087v -17.4968h 1.81417v 6.99872h 0.907087v -6.99872h 0.907087v -17.4968h
 0.907087v -10.4981h 1.81417v 3.49936h 0.907087v -10.4981h 0.907087v -17.4968h 0.907087v 17.4968h 0.907087v -31.4942h 0.907087v -24.4955h 0.907087v 34.9936h 0.907087v -45.4917h 0.907087v 27.9949h 0.907087v -27.9949h 0.907087v -3.49936h 1.81417v
 -17.4968h 0.907087v 17.4968h 0.907087v 52.4904h 0.907087v -13.9974h 0.907087v 34.9936h 0.907087v -17.4968h 0.907087v 13.9974h 0.907087v 13.9974h 0.907087v 20.9961h 2.72126v 13.9974h 0.907087v 10.4981h 0.907087v -13.9974h 0.907087v 34.9936h 0.907087v
 -3.49936h 0.907087v -17.4968h 0.907087v 17.4968h 0.907087v -10.4981h 0.907087v -6.99872h 0.907087v 20.9961h 0.907087v -27.9949h 0.907087v -27.9949h 0.907087v 52.4904h 0.907087v -6.99872h 0.907087v -41.9923h 0.907087v 10.4981h 0.907087v -27.9949h
 0.907087v 20.9961h 0.907087v -45.4917h 0.907087v 10.4981h 1.81417v -10.4981h 1.81417v -3.49936h 0.907087v 10.4981h 0.907087v -27.9949h 0.907087v 17.4968h 0.907087v -31.4942h 0.907087v 27.9949h 0.907087v -20.9961h 0.907087v 20.9961h 0.907087v
 38.4929h 0.907087v 20.9961h 0.907087v -41.9923h 0.907087v 24.4955h 0.907087v 13.9974h 0.907087v 20.9961h 0.907087v -3.49936h 0.907087v 3.49936h 0.907087v 13.9974h 0.907087v -10.4981h 0.907087v 10.4981h 1.81417v 6.99872h 1.81417v 3.49936h 1.81417v
 3.49936h 1.81417v -3.49936h 1.81417v 3.49936h 0.907087v 3.49936h 0.907087v -3.49936h 1.81417v -3.49936h 0.907087v 3.49936h 2.72126v -6.99872h 0.907087v 10.4981h 1.81417v -6.99872h 0.907087v 6.99872h 2.72126v -3.49936h 1.81417v 3.49936h 1.81417v
 -3.49936h 0.907087v 3.49936h 2.72126v -3.49936h 0.907087v 3.49936h 0.907087v -6.99872h 0.907087v 6.99872h 9.97795v -3.49936h 0.907087v 3.49936h 9.97795v -3.49936h 1.81417v 3.49936h 2.72126v -3.49936h 0.907087v 3.49936h 0.907087v -3.49936h 0.907087v
 3.49936h 0.907087v -3.49936h 0.907087v 3.49936h 4.53543v -3.49936h 0.907087v 3.49936h 3.62835v -3.49936h 0.907087v 3.49936h 4.53543v -3.49936h 0.907087v 3.49936h 3.62835v -3.49936h 0.907087v 3.49936h 3.62835v -3.49936h 0.907087v 3.49936h 4.53543v
 -3.49936h 0.907087v 3.49936h 3.62835v -3.49936h 0.907087v 3.49936h 9.07087v -3.49936h 0.907087v 3.49936h 8.16378v -6.99872h 0.907087v 6.99872h 1.81417v -3.49936h 0.907087v 3.49936h 9.07087v -3.49936h 1.81417v 3.49936h 0.907087v -3.49936h 0.907087v
 3.49936h 3.62835v -3.49936h 0.907087v 3.49936h 9.07087" fill="none" stroke="#000099"/>
<rect x="442.705" y="25.0773" width="113.386" height="61.7287" fill="white"/>
<path d="M442.705,86.8059h 113.386" fill="none" stroke="black"/>
<path d="M556.091,86.8059v -61.7287" fill="none" stroke="black"/>
<path d="M556.091,25.0773h -113.386" fill="none" stroke="black"/>
<path d="M442.705,25.0773v 61.7287" fill="none" stroke="black"/>
<text xml:space="preserve" x="447.221" y="36.5499" fill="black" font-size="11.7102" font-family="Helvetica">B_Co_1800V_30mV</text>
<path d="M442.705,40.5094h 113.386" fill="none" stroke="black"/>
<text xml:space="preserve" x="448.033" y="52.7943" fill="black" font-size="13.1417" font-family="Helvetica">Entries </text>
<text xml:space="preserve" x="510.574" y="52.7943" fill="black" font-size="13.1417" font-family="Helvetica"> 10000</text>
<text xml:space="preserve" x="448.033" y="68.2264" fill="black" font-size="13.1417" font-family="Helvetica">Mean  </text>
<text xml:space="preserve" x="510.574" y="68.2264" fill="black" font-size="13.1417" font-family="Helvetica">  982.7</text>
<text xml:space="preserve" x="448.033" y="84.4708" fill="black" font-size="13.1417" font-family="Helvetica">Std Dev   </text>
<text xml:space="preserve" x="510.574" y="83.6586" fill="black" font-size="13.1417" font-family="Helvetica">  669.3</text>
<path d="M303.532,305.433l 0.259168, -2.16124l 0.259168, -2.22434l 0.259168, -2.28582l 0.259168, -2.34541l 0.259168, -2.40283l 0.259168, -2.45778l 0.259168, -2.50997l 0.259168, -2.55911l 0.259168, -2.60491l 0.259168, -2.64706l 0.259168, -2.68529l
 0.259168, -2.7193l 0.259168, -2.74881l 0.259168, -2.77356l 0.259168, -2.79329l 0.259168, -2.80774l 0.259168, -2.81668l 0.259168, -2.8199l 0.259168, -2.81718l 0.259168, -2.80835l 0.259168, -2.79324l 0.259168, -2.77171l 0.259168, -2.74364l 0.259168,
 -2.70894l 0.259168, -2.66753l 0.259168, -2.61938l 0.259168, -2.56448l 0.259168, -2.50283l 0.259168, -2.43448l 0.259168, -2.3595l 0.259168, -2.278l 0.259168, -2.19011l 0.259168, -2.09599l 0.259168, -1.99583l 0.259168, -1.88986l 0.259168, -1.77831l
 0.259168, -1.66148l 0.259168, -1.53966l 0.259168, -1.41317l 0.259168, -1.28237l 0.259168, -1.14763l 0.259168, -1.00934l 0.259168, -0.867918l 0.259168, -0.723786l 0.259168, -0.577386l 0.259168, -0.429172l 0.259168, -0.279606l 0.259168, -0.129157l
 0.259168, 0.0216993" fill="none" stroke="#ff0000" stroke-width="2"/>
<path d="M316.231,204.012l 0.259168, 0.172487l 0.259168, 0.32273l 0.259168, 0.471956l 0.259168, 0.619695l 0.259168, 0.765488l 0.259168, 0.908886l 0.259168, 1.04945l 0.259168, 1.18676l 0.259168, 1.3204l 0.259168, 1.45l 0.259168, 1.57518l 0.259168,
 1.69561l 0.259168, 1.81095l 0.259168, 1.92092l 0.259168, 2.02524l 0.259168, 2.12368l 0.259168, 2.21603l 0.259168, 2.3021l 0.259168, 2.38174l 0.259168, 2.45482l 0.259168, 2.52125l 0.259168, 2.58096l 0.259168, 2.63392l 0.259168, 2.68013l 0.259168,
 2.7196l 0.259168, 2.75239l 0.259168, 2.77857l 0.259168, 2.79824l 0.259168, 2.81153l 0.259168, 2.81858l 0.259168, 2.81957l 0.259168, 2.81469l 0.259168, 2.80414l 0.259168, 2.78814l 0.259168, 2.76695l 0.259168, 2.7408l 0.259168, 2.70996l 0.259168,
 2.67471l 0.259168, 2.63533l 0.259168, 2.5921l 0.259168, 2.54531l 0.259168, 2.49526l 0.259168, 2.44224l 0.259168, 2.38655l 0.259168, 2.32848l 0.259168, 2.26832l 0.259168, 2.20634l 0.259168, 2.14284l 0.259168, 2.07807" fill="none" stroke="#ff0000"
 stroke-width="2"/>
<path d="M328.93,308.121l 0.259168, 2.01231" fill="none" stroke="#ff0000" stroke-width="2"/>
<path d="M342.407,293.519l 0.259168, -2.31904l 0.259168, -2.34647l 0.259168, -2.36909l 0.259168, -2.38662l 0.259168, -2.39878l 0.259168, -2.40533l 0.259168, -2.40601l 0.259168, -2.40063l 0.259168, -2.38899l 0.259168, -2.37093l 0.259168, -2.34631l
 0.259168, -2.31501l 0.259168, -2.27697l 0.259168, -2.23212l 0.259168, -2.18046l 0.259168, -2.12201l 0.259168, -2.05682l 0.259168, -1.98499l 0.259168, -1.90662l 0.259168, -1.8219l 0.259168, -1.731l 0.259168, -1.63417l 0.259168, -1.53166l 0.259168,
 -1.42378l 0.259168, -1.31085l 0.259168, -1.19322l 0.259168, -1.07129l 0.259168, -0.945473l 0.259168, -0.816194l 0.259168, -0.683914l 0.259168, -0.549107l 0.259168, -0.412265l 0.259168, -0.273889l 0.259168, -0.134493l 0.259168, 0.00540487l 0.259168,
 0.145283l 0.259168, 0.284618l 0.259168, 0.422894l 0.259168, 0.559597l 0.259168, 0.694225l 0.259168, 0.826291l 0.259168, 0.955319l 0.259168, 1.08085l 0.259168, 1.20246l 0.259168, 1.31974l 0.259168, 1.43229l 0.259168, 1.53977l 0.259168, 1.64185l
 0.259168, 1.73824" fill="none" stroke="#ff0000" stroke-width="2"/>
<path d="M355.106,248.621l 0.259168, 1.82866l 0.259168, 1.9129l 0.259168, 1.99077l 0.259168, 2.0621l 0.259168, 2.12677l 0.259168, 2.1847l 0.259168, 2.23583l 0.259168, 2.28015l 0.259168, 2.31767l 0.259168, 2.34845l 0.259168, 2.37256l 0.259168,
 2.39012l 0.259168, 2.40127l 0.259168, 2.40617l 0.259168, 2.40503l 0.259168, 2.39804l 0.259168, 2.38546l 0.259168, 2.36753l 0.259168, 2.34452l 0.259168, 2.31673l 0.259168, 2.28444l 0.259168, 2.24797l 0.259168, 2.20763l 0.259168, 2.16374l 0.259168,
 2.11662l 0.259168, 2.06659l 0.259168, 2.01398l 0.259168, 1.9591l 0.259168, 1.90227l 0.259168, 1.8438l 0.259168, 1.78398l 0.259168, 1.7231l 0.259168, 1.66145l 0.259168, 1.59928l 0.259168, 1.53686l 0.259168, 1.47443l 0.259168, 1.41221l 0.259168,
 1.35041l 0.259168, 1.28924l 0.259168, 1.22887l 0.259168, 1.16947l 0.259168, 1.11118l 0.259168, 1.05416l 0.259168, 0.998507l 0.259168, 0.944337l 0.259168, 0.89174l 0.259168, 0.840791l 0.259168, 0.791554l 0.259168, 0.74408" fill="none"
 stroke="#ff0000" stroke-width="2"/>
<path d="M367.805,338.109l 0.259168, 0.698408" fill="none" stroke="#ff0000" stroke-width="2"/>
<path d="M57.1929,347.224h 453.543" fill="none" stroke="black"/>
<path d="M57.1929,337.964v 9.2593" fill="none" stroke="black"/>
<path d="M70.1513,342.594v 4.62965" fill="none" stroke="black"/>
<path d="M83.1097,342.594v 4.62965" fill="none" stroke="black"/>
<path d="M96.0681,342.594v 4.62965" fill="none" stroke="black"/>
<path d="M109.026,342.594v 4.62965" fill="none" stroke="black"/>
<path d="M121.985,337.964v 9.2593" fill="none" stroke="black"/>
<path d="M134.943,342.594v 4.62965" fill="none" stroke="black"/>
<path d="M147.902,342.594v 4.62965" fill="none" stroke="black"/>
<path d="M160.86,342.594v 4.62965" fill="none" stroke="black"/>
<path d="M173.818,342.594v 4.62965" fill="none" stroke="black"/>
<path d="M186.777,337.964v 9.2593" fill="none" stroke="black"/>
<path d="M199.735,342.594v 4.62965" fill="none" stroke="black"/>
<path d="M212.693,342.594v 4.62965" fill="none" stroke="black"/>
<path d="M225.652,342.594v 4.62965" fill="none" stroke="black"/>
<path d="M238.61,342.594v 4.62965" fill="none" stroke="black"/>
<path d="M251.569,337.964v 9.2593" fill="none" stroke="black"/>
<path d="M264.527,342.594v 4.62965" fill="none" stroke="black"/>
<path d="M277.485,342.594v 4.62965" fill="none" stroke="black"/>
<path d="M290.444,342.594v 4.62965" fill="none" stroke="black"/>
<path d="M303.402,342.594v 4.62965" fill="none" stroke="black"/>
<path d="M316.361,337.964v 9.2593" fill="none" stroke="black"/>
<path d="M329.319,342.594v 4.62965" fill="none" stroke="black"/>
<path d="M342.277,342.594v 4.62965" fill="none" stroke="black"/>
<path d="M355.236,342.594v 4.62965" fill="none" stroke="black"/>
<path d="M368.194,342.594v 4.62965" fill="none" stroke="black"/>
<path d="M381.152,337.964v 9.2593" fill="none" stroke="black"/>
<path d="M394.111,342.594v 4.62965" fill="none" stroke="black"/>
<path d="M407.069,342.594v 4.62965" fill="none" stroke="black"/>
<path d="M420.028,342.594v 4.62965" fill="none" stroke="black"/>
<path d="M432.986,342.594v 4.62965" fill="none" stroke="black"/>
<path d="M445.944,337.964v 9.2593" fill="none" stroke="black"/>
<path d="M458.903,342.594v 4.62965" fill="none" stroke="black"/>
<path d="M471.861,342.594v 4.62965" fill="none" stroke="black"/>
<path d="M484.819,342.594v 4.62965" fill="none" stroke="black"/>
<path d="M497.778,342.594v 4.62965" fill="none" stroke="black"/>
<path d="M510.736,337.964v 9.2593" fill="none" stroke="black"/>
<text xml:space="preserve" x="52.482" y="359.813" fill="black" font-size="12.8882" font-family="Helvetica">0</text>
<text xml:space="preserve" x="110.15" y="359.813" fill="black" font-size="12.8882" font-family="Helvetica">500</text>
<text xml:space="preserve" x="171.878" y="359.813" fill="black" font-size="12.8882" font-family="Helvetica">1000</text>
<text xml:space="preserve" x="236.856" y="359.813" fill="black" font-size="12.8882" font-family="Helvetica">1500</text>
<text xml:space="preserve" x="301.021" y="359.813" fill="black" font-size="12.8882" font-family="Helvetica">2000</text>
<text xml:space="preserve" x="365.999" y="359.813" fill="black" font-size="12.8882" font-family="Helvetica">2500</text>
<text xml:space="preserve" x="430.976" y="359.813" fill="black" font-size="12.8882" font-family="Helvetica">3000</text>
<text xml:space="preserve" x="495.954" y="359.813" fill="black" font-size="12.8882" font-family="Helvetica">3500</text>
<text xml:space="preserve" x="446.408" y="374.433" fill="black" font-size="12.8882" font-family="Helvetica">ADC Value</text>
<path d="M57.1929,347.224v -308.643" fill="none" stroke="black"/>
<path d="M70.7992,347.224h -13.6063" fill="none" stroke="black"/>
<path d="M63.9961,340.225h -6.80315" fill="none" stroke="black"/>
<path d="M63.9961,333.226h -6.80315" fill="none" stroke="black"/>
<path d="M63.9961,326.228h -6.80315" fill="none" stroke="black"/>
<path d="M63.9961,319.229h -6.80315" fill="none" stroke="black"/>
<path d="M70.7992,312.23h -13.6063" fill="none" stroke="black"/>
<path d="M63.9961,305.232h -6.80315" fill="none" stroke="black"/>
<path d="M63.9961,298.233h -6.80315" fill="none" stroke="black"/>
<path d="M63.9961,291.234h -6.80315" fill="none" stroke="black"/>
<path d="M63.9961,284.235h -6.80315" fill="none" stroke="black"/>
<path d="M70.7992,277.237h -13.6063" fill="none" stroke="black"/>
<path d="M63.9961,270.238h -6.80315" fill="none" stroke="black"/>
<path d="M63.9961,263.239h -6.80315" fill="none" stroke="black"/>
<path d="M63.9961,256.24h -6.80315" fill="none" stroke="black"/>
<path d="M63.9961,249.242h -6.80315" fill="none" stroke="black"/>
<path d="M70.7992,242.243h -13.6063" fill="none" stroke="black"/>
<path d="M63.9961,235.244h -6.80315" fill="none" stroke="black"/>
<path d="M63.9961,228.246h -6.80315" fill="none" stroke="black"/>
<path d="M63.9961,221.247h -6.80315" fill="none" stroke="black"/>
<path d="M63.9961,214.248h -6.80315" fill="none" stroke="black"/>
<path d="M70.7992,207.249h -13.6063" fill="none" stroke="black"/>
<path d="M63.9961,200.251h -6.80315" fill="none" stroke="black"/>
<path d="M63.9961,193.252h -6.80315" fill="none" stroke="black"/>
<path d="M63.9961,186.253h -6.80315" fill="none" stroke="black"/>
<path d="M63.9961,179.255h -6.80315" fill="none" stroke="black"/>
<path d="M70.7992,172.256h -13.6063" fill="none" stroke="black"/>
<path d="M63.9961,165.257h -6.80315" fill="none" stroke="black"/>
<path d="M63.9961,158.258h -6.80315" fill="none" stroke="black"/>
<path d="M63.9961,151.26h -6.80315" fill="none" stroke="black"/>
<path d="M63.9961,144.261h -6.80315" fill="none" stroke="black"/>
<path d="M70.7992,137.262h -13.6063" fill="none" stroke="black"/>
<path d="M63.9961,130.264h -6.80315" fill="none" stroke="black"/>
<path d="M63.9961,123.265h -6.80315" fill="none" stroke="black"/>
<path d="M63.9961,116.266h -6.80315" fill="none" stroke="black"/>
<path d="M63.9961,109.267h -6.80315" fill="none" stroke="black"/>
<path d="M70.7992,102.269h -13.6063" fill="none" stroke="black"/>
<path d="M63.9961,95.27h -6.80315" fill="none" stroke="black"/>
<path d="M63.9961,88.2713h -6.80315" fill="none" stroke="black"/>
<path d="M63.9961,81.2726h -6.80315" fill="none" stroke="black"/>
<path d="M63.9961,74.2739h -6.80315" fill="none" stroke="black"/>
<path d="M70.7992,67.2752h -13.6063" fill="none" stroke="black"/>
<path d="M70.7992,67.2752h -13.6063" fill="none" stroke="black"/>
<path d="M63.9961,60.2764h -6.80315" fill="none" stroke="black"/>
<path d="M63.9961,53.2777h -6.80315" fill="none" stroke="black"/>
<path d="M63.9961,46.279h -6.80315" fill="none" stroke="black"/>
<path d="M63.9961,39.2803h -6.80315" fill="none" stroke="black"/>
<text xml:space="preserve" x="46.7965" y="351.691" fill="black" font-size="12.8882" font-family="Helvetica">0</text>
<text xml:space="preserve" x="39.4865" y="316.766" fill="black" font-size="12.8882" font-family="Helvetica">10</text>
<text xml:space="preserve" x="39.4865" y="281.84" fill="black" font-size="12.8882" font-family="Helvetica">20</text>
<text xml:space="preserve" x="39.4865" y="246.915" fill="black" font-size="12.8882" font-family="Helvetica">30</text>
<text xml:space="preserve" x="39.4865" y="211.989" fill="black" font-size="12.8882" font-family="Helvetica">40</text>
<text xml:space="preserve" x="39.4865" y="177.064" fill="black" font-size="12.8882" font-family="Helvetica">50</text>
<text xml:space="preserve" x="39.4865" y="141.326" fill="black" font-size="12.8882" font-family="Helvetica">60</text>
<text xml:space="preserve" x="39.4865" y="106.401" fill="black" font-size="12.8882" font-family="Helvetica">70</text>
<text xml:space="preserve" x="39.4865" y="71.4753" fill="black" font-size="12.8882" font-family="Helvetica">80</text>
<g transform="rotate(-90,29.7399,79.5975)">
<text xml:space="preserve" x="29.7399" y="79.5975" fill="black" font-size="12.8882" font-family="Helvetica">Counts</text>
</g>
<rect x="442.705" y="25.0773" width="113.386" height="61.7287" fill="white"/>
<path d="M442.705,86.8059h 113.386" fill="none" stroke="black"/>
<path d="M556.091,86.8059v -61.7287" fill="none" stroke="black"/>
<path d="M556.091,25.0773h -113.386" fill="none" stroke="black"/>
<path d="M442.705,25.0773v 61.7287" fill="none" stroke="black"/>
<text xml:space="preserve" x="447.221" y="36.5499" fill="black" font-size="11.7102" font-family="Helvetica">B_Co_1800V_30mV</text>
<path d="M442.705,40.5094h 113.386" fill="none" stroke="black"/>
<text xml:space="preserve" x="448.033" y="52.7943" fill="black" font-size="13.1417" font-family="Helvetica">Entries </text>
<text xml:space="preserve" x="510.574" y="52.7943" fill="black" font-size="13.1417" font-family="Helvetica"> 10000</text>
<text xml:space="preserve" x="448.033" y="68.2264" fill="black" font-size="13.1417" font-family="Helvetica">Mean  </text>
<text xml:space="preserve" x="510.574" y="68.2264" fill="black" font-size="13.1417" font-family="Helvetica">  982.7</text>
<text xml:space="preserve" x="448.033" y="84.4708" fill="black" font-size="13.1417" font-family="Helvetica">Std Dev   </text>
<text xml:space="preserve" x="510.574" y="83.6586" fill="black" font-size="13.1417" font-family="Helvetica">  669.3</text>
<text xml:space="preserve" x="205.992" y="17.8688" fill="black" font-size="17.0471" font-family="Helvetica">B_Co_1800V_30mV</text>
<path d="M303.532,305.433l 0.259168, -2.16124l 0.259168, -2.22434l 0.259168, -2.28582l 0.259168, -2.34541l 0.259168, -2.40283l 0.259168, -2.45778l 0.259168, -2.50997l 0.259168, -2.55911l 0.259168, -2.60491l 0.259168, -2.64706l 0.259168, -2.68529l
 0.259168, -2.7193l 0.259168, -2.74881l 0.259168, -2.77356l 0.259168, -2.79329l 0.259168, -2.80774l 0.259168, -2.81668l 0.259168, -2.8199l 0.259168, -2.81718l 0.259168, -2.80835l 0.259168, -2.79324l 0.259168, -2.77171l 0.259168, -2.74364l 0.259168,
 -2.70894l 0.259168, -2.66753l 0.259168, -2.61938l 0.259168, -2.56448l 0.259168, -2.50283l 0.259168, -2.43448l 0.259168, -2.3595l 0.259168, -2.278l 0.259168, -2.19011l 0.259168, -2.09599l 0.259168, -1.99583l 0.259168, -1.88986l 0.259168, -1.77831l
 0.259168, -1.66148l 0.259168, -1.53966l 0.259168, -1.41317l 0.259168, -1.28237l 0.259168, -1.14763l 0.259168, -1.00934l 0.259168, -0.867918l 0.259168, -0.723786l 0.259168, -0.577386l 0.259168, -0.429172l 0.259168, -0.279606l 0.259168, -0.129157l
 0.259168, 0.0216993" fill="none" stroke="#ff0000" stroke-width="2"/>
<path d="M316.231,204.012l 0.259168, 0.172487l 0.259168, 0.32273l 0.259168, 0.471956l 0.259168, 0.619695l 0.259168, 0.765488l 0.259168, 0.908886l 0.259168, 1.04945l 0.259168, 1.18676l 0.259168, 1.3204l 0.259168, 1.45l 0.259168, 1.57518l 0.259168,
 1.69561l 0.259168, 1.81095l 0.259168, 1.92092l 0.259168, 2.02524l 0.259168, 2.12368l 0.259168, 2.21603l 0.259168, 2.3021l 0.259168, 2.38174l 0.259168, 2.45482l 0.259168, 2.52125l 0.259168, 2.58096l 0.259168, 2.63392l 0.259168, 2.68013l 0.259168,
 2.7196l 0.259168, 2.75239l 0.259168, 2.77857l 0.259168, 2.79824l 0.259168, 2.81153l 0.259168, 2.81858l 0.259168, 2.81957l 0.259168, 2.81469l 0.259168, 2.80414l 0.259168, 2.78814l 0.259168, 2.76695l 0.259168, 2.7408l 0.259168, 2.70996l 0.259168,
 2.67471l 0.259168, 2.63533l 0.259168, 2.5921l 0.259168, 2.54531l 0.259168, 2.49526l 0.259168, 2.44224l 0.259168, 2.38655l 0.259168, 2.32848l 0.259168, 2.26832l 0.259168, 2.20634l 0.259168, 2.14284l 0.259168, 2.07807" fill="none" stroke="#ff0000"
 stroke-width="2"/>
<path d="M328.93,308.121l 0.259168, 2.01231" fill="none" stroke="#ff0000" stroke-width="2"/>
<path d="M342.407,293.519l 0.259168, -2.31904l 0.259168, -2.34647l 0.259168, -2.36909l 0.259168, -2.38662l 0.259168, -2.39878l 0.259168, -2.40533l 0.259168, -2.40601l 0.259168, -2.40063l 0.259168, -2.38899l 0.259168, -2.37093l 0.259168, -2.34631l
 0.259168, -2.31501l 0.259168, -2.27697l 0.259168, -2.23212l 0.259168, -2.18046l 0.259168, -2.12201l 0.259168, -2.05682l 0.259168, -1.98499l 0.259168, -1.90662l 0.259168, -1.8219l 0.259168, -1.731l 0.259168, -1.63417l 0.259168, -1.53166l 0.259168,
 -1.42378l 0.259168, -1.31085l 0.259168, -1.19322l 0.259168, -1.07129l 0.259168, -0.945473l 0.259168, -0.816194l 0.259168, -0.683914l 0.259168, -0.549107l 0.259168, -0.412265l 0.259168, -0.273889l 0.259168, -0.134493l 0.259168, 0.00540487l 0.259168,
 0.145283l 0.259168, 0.284618l 0.259168, 0.422894l 0.259168, 0.559597l 0.259168, 0.694225l 0.259168, 0.826291l 0.259168, 0.955319l 0.259168, 1.08085l 0.259168, 1.20246l 0.259168, 1.31974l 0.259168, 1.43229l 0.259168, 1.53977l 0.259168, 1.64185l
 0.259168, 1.73824" fill="none" stroke="#ff0000" stroke-width="2"/>
<path d="M355.106,248.621l 0.259168, 1.82866l 0.259168, 1.9129l 0.259168, 1.99077l 0.259168, 2.0621l 0.259168, 2.12677l 0.259168, 2.1847l 0.259168, 2.23583l 0.259168, 2.28015l 0.259168, 2.31767l 0.259168, 2.34845l 0.259168, 2.37256l 0.259168,
 2.39012l 0.259168, 2.40127l 0.259168, 2.40617l 0.259168, 2.40503l 0.259168, 2.39804l 0.259168, 2.38546l 0.259168, 2.36753l 0.259168, 2.34452l 0.259168, 2.31673l 0.259168, 2.28444l 0.259168, 2.24797l 0.259168, 2.20763l 0.259168, 2.16374l 0.259168,
 2.11662l 0.259168, 2.06659l 0.259168, 2.01398l 0.259168, 1.9591l 0.259168, 1.90227l 0.259168, 1.8438l 0.259168, 1.78398l 0.259168, 1.7231l 0.259168, 1.66145l 0.259168, 1.59928l 0.259168, 1.53686l 0.259168, 1.47443l 0.259168, 1.41221l 0.259168,
 1.35041l 0.259168, 1.28924l 0.259168, 1.22887l 0.259168, 1.16947l 0.259168, 1.11118l 0.259168, 1.05416l 0.259168, 0.998507l 0.259168, 0.944337l 0.259168, 0.89174l 0.259168, 0.840791l 0.259168, 0.791554l 0.259168, 0.74408" fill="none"
 stroke="#ff0000" stroke-width="2"/>
<path d="M367.805,338.109l 0.259168, 0.698408" fill="none" stroke="#ff0000" stroke-width="2"/></svg>
