<?xml version="1.0" standalone="no"?>
<svg width="567.429" height="384.68" viewBox="0 0 567.429 384.68" xmlns="http://www.w3.org/2000/svg" shape-rendering="crispEdges">
<title>
img/calibration/B_Co_1800V_30mV.svg
</title>
<desc>
Creator: ROOT Version 6.22/09
CreationDate: Wed Jun  9 00:53:46 2021</desc>
<defs>
</defs>
<rect x="0.5" y="0" width="566.929" height="384.18" fill="white"/>
<rect x="57.1929" y="38.418" width="453.543" height="307.344" fill="white"/>
<rect x="57.1929" y="38.418" width="453.543" height="307.344" fill="none" stroke="black"/>
<rect x="57.1929" y="38.418" width="453.543" height="307.344" fill="white"/>
<rect x="57.1929" y="38.418" width="453.543" height="307.344" fill="none" stroke="black"/>
<path d="M57.1929,324.854h 0.907087v 6.96925h 0.907087v 6.96925h 1.81417v 6.96925h 2.72126v -6.96925h 0.907087v 6.96925h 0.907087v -6.96925h 0.907087v 3.48462h 0.907087v 3.48462h 0.907087v -3.48462h 1.81417v -3.48462h 1.81417v -6.96925h 0.907087v
 -17.4231h 0.907087v 10.4539h 0.907087v -13.9385h 0.907087v -20.9077h 0.907087v -17.4231h 0.907087v -24.3924h 0.907087v -10.4539h 0.907087v -31.3616h 0.907087v -13.9385h 0.907087v -3.48462h 0.907087v -6.96925h 0.907087v -90.6002h 0.907087v 52.2694h
 0.907087v -24.3924h 0.907087v 13.9385h 0.907087v -34.8462h 0.907087v 45.3001h 0.907087v -45.3001h 0.907087v 31.3616h 0.907087v -76.6617h 0.907087v 38.3309h 0.907087v -13.9385h 0.907087v 24.3924h 0.907087v -6.96925h 0.907087v 3.48462h 0.907087v
 -3.48462h 0.907087v -20.9077h 0.907087v 17.4231h 0.907087v -13.9385h 0.907087v 20.9077h 0.907087v -41.8155h 0.907087v 80.1463h 0.907087v -62.7232h 0.907087v 34.8462h 0.907087v 27.877h 0.907087v 13.9385h 0.907087v -97.5695h 0.907087v 55.754h
 0.907087v -6.96925h 0.907087v 10.4539h 0.907087v 6.96925h 0.907087v -13.9385h 0.907087v 13.9385h 0.907087v 34.8462h 1.81417v -3.48462h 0.907087v -10.4539h 0.907087v -48.7847h 0.907087v 38.3309h 0.907087v 34.8462h 0.907087v 3.48462h 0.907087v
 10.4539h 0.907087v -31.3616h 0.907087v 17.4231h 0.907087v 6.96925h 0.907087v -20.9077h 0.907087v 20.9077h 1.81417v -48.7847h 0.907087v 17.4231h 0.907087v 17.4231h 0.907087v 6.96925h 0.907087v -27.877h 0.907087v 3.48462h 0.907087v 24.3924h 0.907087v
 -41.8155h 0.907087v 55.754h 0.907087v -17.4231h 0.907087v 20.9077h 0.907087v 6.96925h 0.907087v 13.9385h 0.907087v -62.7232h 0.907087v 59.2386h 0.907087v -52.2694h 0.907087v 13.9385h 0.907087v 27.877h 0.907087v 20.9077h 0.907087v -3.48462h 0.907087v
 3.48462h 0.907087v -10.4539h 0.907087v -6.96925h 0.907087v 13.9385h 0.907087v -3.48462h 0.907087v 10.4539h 0.907087v -6.96925h 0.907087v -17.4231h 0.907087v 10.4539h 0.907087v -34.8462h 0.907087v 24.3924h 0.907087v 27.877h 0.907087v -3.48462h
 0.907087v 3.48462h 0.907087v 27.877h 1.81417v -38.3309h 0.907087v 3.48462h 0.907087v -10.4539h 0.907087v 24.3924h 0.907087v -17.4231h 0.907087v 17.4231h 0.907087v -6.96925h 1.81417v 10.4539h 0.907087v 24.3924h 0.907087v -17.4231h 0.907087v 41.8155h
 0.907087v -34.8462h 0.907087v 20.9077h 0.907087v -3.48462h 0.907087v -3.48462h 0.907087v -34.8462h 0.907087v 24.3924h 0.907087v -6.96925h 0.907087v 20.9077h 0.907087v -3.48462h 0.907087v 17.4231h 0.907087v -38.3309h 0.907087v 38.3309h 0.907087v
 -20.9077h 0.907087v -13.9385h 0.907087v 66.2079h 1.81417v -41.8155h 0.907087v 3.48462h 0.907087v 13.9385h 0.907087v -38.3309h 0.907087v 27.877h 0.907087v -10.4539h 0.907087v -6.96925h 0.907087v 10.4539h 0.907087v -20.9077h 0.907087v 34.8462h
 0.907087v -31.3616h 0.907087v 55.754h 0.907087v -6.96925h 0.907087v -20.9077h 0.907087v -10.4539h 0.907087v 31.3616h 2.72126v -34.8462h 0.907087v 13.9385h 0.907087v 3.48462h 0.907087v 20.9077h 0.907087v -6.96925h 0.907087v -10.4539h 1.81417v
 -6.96925h 0.907087v -3.48462h 0.907087v 34.8462h 0.907087v -34.8462h 0.907087v 13.9385h 0.907087v 6.96925h 0.907087v -13.9385h 1.81417v 6.96925h 0.907087v -6.96925h 0.907087v 6.96925h 0.907087v -3.48462h 1.81417v -3.48462h 0.907087v 10.4539h
 0.907087v -24.3924h 0.907087v -6.96925h 0.907087v 31.3616h 0.907087v -6.96925h 0.907087v -17.4231h 0.907087v 13.9385h 0.907087v -10.4539h 0.907087v 10.4539h 0.907087v 13.9385h 0.907087v 6.96925h 0.907087v -13.9385h 0.907087v -10.4539h 0.907087v
 17.4231h 0.907087v -24.3924h 0.907087v -6.96925h 0.907087v 24.3924h 0.907087v -3.48462h 0.907087v -17.4231h 0.907087v 10.4539h 0.907087v -24.3924h 0.907087v 13.9385h 0.907087v 34.8462h 0.907087v -27.877h 0.907087v 13.9385h 0.907087v -20.9077h
 0.907087v 24.3924h 0.907087v -48.7847h 0.907087v 34.8462h 0.907087v 24.3924h 0.907087v -10.4539h 2.72126v -27.877h 0.907087v -3.48462h 0.907087v -10.4539h 0.907087v 34.8462h 0.907087v -59.2386h 0.907087v 45.3001h 0.907087v 6.96925h 0.907087v
 -3.48462h 0.907087v -6.96925h 0.907087v -6.96925h 0.907087v 20.9077h 0.907087v -6.96925h 0.907087v 17.4231h 0.907087v -13.9385h 0.907087v 13.9385h 0.907087v -6.96925h 0.907087v -20.9077h 0.907087v 6.96925h 0.907087v 24.3924h 0.907087v -13.9385h
 0.907087v -6.96925h 0.907087v 3.48462h 0.907087v 6.96925h 0.907087v 13.9385h 1.81417v 6.96925h 0.907087v -6.96925h 0.907087v -13.9385h 0.907087v 38.3309h 0.907087v -31.3616h 0.907087v 27.877h 0.907087v -24.3924h 0.907087v 3.48462h 0.907087v 6.96925h
 0.907087v 10.4539h 0.907087v -10.4539h 0.907087v -6.96925h 0.907087v -20.9077h 0.907087v 31.3616h 0.907087v 6.96925h 1.81417v 13.9385h 0.907087v -24.3924h 0.907087v 6.96925h 1.81417v 3.48462h 0.907087v -20.9077h 0.907087v 3.48462h 0.907087v
 -10.4539h 0.907087v 3.48462h 0.907087v 17.4231h 1.81417v -3.48462h 0.907087v -3.48462h 0.907087v 3.48462h 0.907087v -17.4231h 0.907087v 10.4539h 0.907087v 17.4231h 0.907087v -17.4231h 1.81417v 6.96925h 0.907087v -6.96925h 0.907087v -17.4231h
 0.907087v -10.4539h 1.81417v 3.48462h 0.907087v -10.4539h 0.907087v -17.4231h 0.907087v 17.4231h 0.907087v -31.3616h 0.907087v -24.3924h 0.907087v 34.8462h 0.907087v -45.3001h 0.907087v 27.877h 0.907087v -27.877h 0.907087v -3.48462h 1.81417v
 -17.4231h 0.907087v 17.4231h 0.907087v 52.2694h 0.907087v -13.9385h 0.907087v 34.8462h 0.907087v -17.4231h 0.907087v 13.9385h 0.907087v 13.9385h 0.907087v 20.9077h 2.72126v 13.9385h 0.907087v 10.4539h 0.907087v -13.9385h 0.907087v 34.8462h 0.907087v
 -3.48462h 0.907087v -17.4231h 0.907087v 17.4231h 0.907087v -10.4539h 0.907087v -6.96925h 0.907087v 20.9077h 0.907087v -27.877h 0.907087v -27.877h 0.907087v 52.2694h 0.907087v -6.96925h 0.907087v -41.8155h 0.907087v 10.4539h 0.907087v -27.877h
 0.907087v 20.9077h 0.907087v -45.3001h 0.907087v 10.4539h 1.81417v -10.4539h 1.81417v -3.48462h 0.907087v 10.4539h 0.907087v -27.877h 0.907087v 17.4231h 0.907087v -31.3616h 0.907087v 27.877h 0.907087v -20.9077h 0.907087v 20.9077h 0.907087v 38.3309h
 0.907087v 20.9077h 0.907087v -41.8155h 0.907087v 24.3924h 0.907087v 13.9385h 0.907087v 20.9077h 0.907087v -3.48462h 0.907087v 3.48462h 0.907087v 13.9385h 0.907087v -10.4539h 0.907087v 10.4539h 1.81417v 6.96925h 1.81417v 3.48462h 1.81417v 3.48462h
 1.81417v -3.48462h 1.81417v 3.48462h 0.907087v 3.48462h 0.907087v -3.48462h 1.81417v -3.48462h 0.907087v 3.48462h 2.72126v -6.96925h 0.907087v 10.4539h 1.81417v -6.96925h 0.907087v 6.96925h 2.72126v -3.48462h 1.81417v 3.48462h 1.81417v -3.48462h
 0.907087v 3.48462h 2.72126v -3.48462h 0.907087v 3.48462h 0.907087v -6.96925h 0.907087v 6.96925h 9.97795v -3.48462h 0.907087v 3.48462h 9.97795v -3.48462h 1.81417v 3.48462h 2.72126v -3.48462h 0.907087v 3.48462h 0.907087v -3.48462h 0.907087v 3.48462h
 0.907087v -3.48462h 0.907087v 3.48462h 4.53543v -3.48462h 0.907087v 3.48462h 3.62835v -3.48462h 0.907087v 3.48462h 4.53543v -3.48462h 0.907087v 3.48462h 3.62835v -3.48462h 0.907087v 3.48462h 3.62835v -3.48462h 0.907087v 3.48462h 4.53543v -3.48462h
 0.907087v 3.48462h 3.62835v -3.48462h 0.907087v 3.48462h 9.07087v -3.48462h 0.907087v 3.48462h 8.16378v -6.96925h 0.907087v 6.96925h 1.81417v -3.48462h 0.907087v 3.48462h 9.07087v -3.48462h 1.81417v 3.48462h 0.907087v -3.48462h 0.907087v 3.48462h
 3.62835v -3.48462h 0.907087v 3.48462h 9.07087" fill="none" stroke="#000099"/>
<rect x="442.705" y="24.9717" width="113.386" height="61.4688" fill="white"/>
<path d="M442.705,86.4405h 113.386" fill="none" stroke="black"/>
<path d="M556.091,86.4405v -61.4688" fill="none" stroke="black"/>
<path d="M556.091,24.9717h -113.386" fill="none" stroke="black"/>
<path d="M442.705,24.9717v 61.4688" fill="none" stroke="black"/>
<text xml:space="preserve" x="447.221" y="36.5499" fill="black" font-size="11.5932" font-family="Helvetica">B_Co_1800V_30mV</text>
<path d="M442.705,40.3389h 113.386" fill="none" stroke="black"/>
<text xml:space="preserve" x="448.033" y="52.7943" fill="black" font-size="12.7411" font-family="Helvetica">Entries </text>
<text xml:space="preserve" x="513.01" y="52.7943" fill="black" font-size="12.7411" font-family="Helvetica"> 10000</text>
<text xml:space="preserve" x="448.033" y="68.2264" fill="black" font-size="12.7411" font-family="Helvetica">Mean  </text>
<text xml:space="preserve" x="513.01" y="68.2264" fill="black" font-size="12.7411" font-family="Helvetica">  982.7</text>
<text xml:space="preserve" x="448.033" y="82.8464" fill="black" font-size="12.7411" font-family="Helvetica">Std Dev   </text>
<text xml:space="preserve" x="513.01" y="82.8464" fill="black" font-size="12.7411" font-family="Helvetica">  669.3</text>
<path d="M303.532,304.147l 0.259168, -2.15214l 0.259168, -2.21497l 0.259168, -2.27619l 0.259168, -2.33553l 0.259168, -2.39271l 0.259168, -2.44743l 0.259168, -2.4994l 0.259168, -2.54834l 0.259168, -2.59394l 0.259168, -2.63592l 0.259168, -2.67398l
 0.259168, -2.70785l 0.259168, -2.73724l 0.259168, -2.76188l 0.259168, -2.78153l 0.259168, -2.79592l 0.259168, -2.80482l 0.259168, -2.80802l 0.259168, -2.80532l 0.259168, -2.79653l 0.259168, -2.78148l 0.259168, -2.76004l 0.259168, -2.73209l 0.259168,
 -2.69753l 0.259168, -2.6563l 0.259168, -2.60836l 0.259168, -2.55368l 0.259168, -2.49229l 0.259168, -2.42423l 0.259168, -2.34957l 0.259168, -2.26841l 0.259168, -2.18089l 0.259168, -2.08716l 0.259168, -1.98743l 0.259168, -1.8819l 0.259168, -1.77083l
 0.259168, -1.65448l 0.259168, -1.53317l 0.259168, -1.40722l 0.259168, -1.27697l 0.259168, -1.1428l 0.259168, -1.00509l 0.259168, -0.864263l 0.259168, -0.720738l 0.259168, -0.574955l 0.259168, -0.427365l 0.259168, -0.278428l 0.259168, -0.128613l
 0.259168, 0.0216079" fill="none" stroke="#ff0000" stroke-width="2"/>
<path d="M316.231,203.153l 0.259168, 0.171761l 0.259168, 0.321371l 0.259168, 0.469968l 0.259168, 0.617086l 0.259168, 0.762265l 0.259168, 0.905059l 0.259168, 1.04503l 0.259168, 1.18176l 0.259168, 1.31484l 0.259168, 1.4439l 0.259168, 1.56855l 0.259168,
 1.68847l 0.259168, 1.80332l 0.259168, 1.91283l 0.259168, 2.01671l 0.259168, 2.11474l 0.259168, 2.2067l 0.259168, 2.29241l 0.259168, 2.37171l 0.259168, 2.44448l 0.259168, 2.51063l 0.259168, 2.57009l 0.259168, 2.62283l 0.259168, 2.66885l 0.259168,
 2.70815l 0.259168, 2.7408l 0.259168, 2.76687l 0.259168, 2.78646l 0.259168, 2.79969l 0.259168, 2.80671l 0.259168, 2.8077l 0.259168, 2.80284l 0.259168, 2.79233l 0.259168, 2.7764l 0.259168, 2.7553l 0.259168, 2.72926l 0.259168, 2.69855l 0.259168,
 2.66345l 0.259168, 2.62423l 0.259168, 2.58118l 0.259168, 2.53459l 0.259168, 2.48475l 0.259168, 2.43196l 0.259168, 2.3765l 0.259168, 2.31868l 0.259168, 2.25877l 0.259168, 2.19705l 0.259168, 2.13382l 0.259168, 2.06932" fill="none" stroke="#ff0000"
 stroke-width="2"/>
<path d="M328.93,306.824l 0.259168, 2.00384" fill="none" stroke="#ff0000" stroke-width="2"/>
<path d="M342.407,292.283l 0.259168, -2.30927l 0.259168, -2.33659l 0.259168, -2.35912l 0.259168, -2.37657l 0.259168, -2.38868l 0.259168, -2.3952l 0.259168, -2.39588l 0.259168, -2.39053l 0.259168, -2.37894l 0.259168, -2.36095l 0.259168, -2.33643l
 0.259168, -2.30526l 0.259168, -2.26738l 0.259168, -2.22272l 0.259168, -2.17128l 0.259168, -2.11308l 0.259168, -2.04816l 0.259168, -1.97663l 0.259168, -1.8986l 0.259168, -1.81423l 0.259168, -1.72371l 0.259168, -1.62729l 0.259168, -1.52521l 0.259168,
 -1.41778l 0.259168, -1.30533l 0.259168, -1.1882l 0.259168, -1.06678l 0.259168, -0.941492l 0.259168, -0.812757l 0.259168, -0.681034l 0.259168, -0.546795l 0.259168, -0.410529l 0.259168, -0.272736l 0.259168, -0.133927l 0.259168, 0.00538211l 0.259168,
 0.144671l 0.259168, 0.28342l 0.259168, 0.421113l 0.259168, 0.55724l 0.259168, 0.691302l 0.259168, 0.822811l 0.259168, 0.951296l 0.259168, 1.0763l 0.259168, 1.1974l 0.259168, 1.31418l 0.259168, 1.42626l 0.259168, 1.53329l 0.259168, 1.63494l 0.259168,
 1.73092" fill="none" stroke="#ff0000" stroke-width="2"/>
<path d="M355.106,247.575l 0.259168, 1.82096l 0.259168, 1.90485l 0.259168, 1.98239l 0.259168, 2.05341l 0.259168, 2.11781l 0.259168, 2.1755l 0.259168, 2.22641l 0.259168, 2.27055l 0.259168, 2.30791l 0.259168, 2.33856l 0.259168, 2.36257l 0.259168,
 2.38006l 0.259168, 2.39116l 0.259168, 2.39604l 0.259168, 2.3949l 0.259168, 2.38794l 0.259168, 2.37541l 0.259168, 2.35756l 0.259168, 2.33465l 0.259168, 2.30697l 0.259168, 2.27482l 0.259168, 2.23851l 0.259168, 2.19833l 0.259168, 2.15463l 0.259168,
 2.10771l 0.259168, 2.05789l 0.259168, 2.0055l 0.259168, 1.95085l 0.259168, 1.89426l 0.259168, 1.83603l 0.259168, 1.77646l 0.259168, 1.71584l 0.259168, 1.65445l 0.259168, 1.59255l 0.259168, 1.53039l 0.259168, 1.46822l 0.259168, 1.40626l 0.259168,
 1.34473l 0.259168, 1.28381l 0.259168, 1.22369l 0.259168, 1.16454l 0.259168, 1.10651l 0.259168, 1.04972l 0.259168, 0.994303l 0.259168, 0.940361l 0.259168, 0.887985l 0.259168, 0.837251l 0.259168, 0.788221l 0.259168, 0.740947" fill="none"
 stroke="#ff0000" stroke-width="2"/>
<path d="M367.805,336.685l 0.259168, 0.695468" fill="none" stroke="#ff0000" stroke-width="2"/>
<path d="M57.1929,345.762h 453.543" fill="none" stroke="black"/>
<path d="M57.1929,336.541v 9.22031" fill="none" stroke="black"/>
<path d="M70.1513,341.152v 4.61016" fill="none" stroke="black"/>
<path d="M83.1097,341.152v 4.61016" fill="none" stroke="black"/>
<path d="M96.0681,341.152v 4.61016" fill="none" stroke="black"/>
<path d="M109.026,341.152v 4.61016" fill="none" stroke="black"/>
<path d="M121.985,336.541v 9.22031" fill="none" stroke="black"/>
<path d="M134.943,341.152v 4.61016" fill="none" stroke="black"/>
<path d="M147.902,341.152v 4.61016" fill="none" stroke="black"/>
<path d="M160.86,341.152v 4.61016" fill="none" stroke="black"/>
<path d="M173.818,341.152v 4.61016" fill="none" stroke="black"/>
<path d="M186.777,336.541v 9.22031" fill="none" stroke="black"/>
<path d="M199.735,341.152v 4.61016" fill="none" stroke="black"/>
<path d="M212.693,341.152v 4.61016" fill="none" stroke="black"/>
<path d="M225.652,341.152v 4.61016" fill="none" stroke="black"/>
<path d="M238.61,341.152v 4.61016" fill="none" stroke="black"/>
<path d="M251.569,336.541v 9.22031" fill="none" stroke="black"/>
<path d="M264.527,341.152v 4.61016" fill="none" stroke="black"/>
<path d="M277.485,341.152v 4.61016" fill="none" stroke="black"/>
<path d="M290.444,341.152v 4.61016" fill="none" stroke="black"/>
<path d="M303.402,341.152v 4.61016" fill="none" stroke="black"/>
<path d="M316.361,336.541v 9.22031" fill="none" stroke="black"/>
<path d="M329.319,341.152v 4.61016" fill="none" stroke="black"/>
<path d="M342.277,341.152v 4.61016" fill="none" stroke="black"/>
<path d="M355.236,341.152v 4.61016" fill="none" stroke="black"/>
<path d="M368.194,341.152v 4.61016" fill="none" stroke="black"/>
<path d="M381.152,336.541v 9.22031" fill="none" stroke="black"/>
<path d="M394.111,341.152v 4.61016" fill="none" stroke="black"/>
<path d="M407.069,341.152v 4.61016" fill="none" stroke="black"/>
<path d="M420.028,341.152v 4.61016" fill="none" stroke="black"/>
<path d="M432.986,341.152v 4.61016" fill="none" stroke="black"/>
<path d="M445.944,336.541v 9.22031" fill="none" stroke="black"/>
<path d="M458.903,341.152v 4.61016" fill="none" stroke="black"/>
<path d="M471.861,341.152v 4.61016" fill="none" stroke="black"/>
<path d="M484.819,341.152v 4.61016" fill="none" stroke="black"/>
<path d="M497.778,341.152v 4.61016" fill="none" stroke="black"/>
<path d="M510.736,336.541v 9.22031" fill="none" stroke="black"/>
<text xml:space="preserve" x="53.2943" y="358.189" fill="black" font-size="12.836" font-family="Helvetica">0</text>
<text xml:space="preserve" x="110.962" y="358.189" fill="black" font-size="12.836" font-family="Helvetica">500</text>
<text xml:space="preserve" x="172.691" y="358.189" fill="black" font-size="12.836" font-family="Helvetica">1000</text>
<text xml:space="preserve" x="237.668" y="358.189" fill="black" font-size="12.836" font-family="Helvetica">1500</text>
<text xml:space="preserve" x="301.833" y="358.189" fill="black" font-size="12.836" font-family="Helvetica">2000</text>
<text xml:space="preserve" x="366.811" y="358.189" fill="black" font-size="12.836" font-family="Helvetica">2500</text>
<text xml:space="preserve" x="431.788" y="358.189" fill="black" font-size="12.836" font-family="Helvetica">3000</text>
<text xml:space="preserve" x="496.766" y="358.189" fill="black" font-size="12.836" font-family="Helvetica">3500</text>
<text xml:space="preserve" x="450.47" y="371.996" fill="black" font-size="12.836" font-family="Helvetica">ADC Value</text>
<path d="M57.1929,345.762v -307.344" fill="none" stroke="black"/>
<path d="M70.7992,345.762h -13.6063" fill="none" stroke="black"/>
<path d="M63.9961,338.793h -6.80315" fill="none" stroke="black"/>
<path d="M63.9961,331.823h -6.80315" fill="none" stroke="black"/>
<path d="M63.9961,324.854h -6.80315" fill="none" stroke="black"/>
<path d="M63.9961,317.885h -6.80315" fill="none" stroke="black"/>
<path d="M70.7992,310.916h -13.6063" fill="none" stroke="black"/>
<path d="M63.9961,303.946h -6.80315" fill="none" stroke="black"/>
<path d="M63.9961,296.977h -6.80315" fill="none" stroke="black"/>
<path d="M63.9961,290.008h -6.80315" fill="none" stroke="black"/>
<path d="M63.9961,283.039h -6.80315" fill="none" stroke="black"/>
<path d="M70.7992,276.069h -13.6063" fill="none" stroke="black"/>
<path d="M63.9961,269.1h -6.80315" fill="none" stroke="black"/>
<path d="M63.9961,262.131h -6.80315" fill="none" stroke="black"/>
<path d="M63.9961,255.162h -6.80315" fill="none" stroke="black"/>
<path d="M63.9961,248.192h -6.80315" fill="none" stroke="black"/>
<path d="M70.7992,241.223h -13.6063" fill="none" stroke="black"/>
<path d="M63.9961,234.254h -6.80315" fill="none" stroke="black"/>
<path d="M63.9961,227.285h -6.80315" fill="none" stroke="black"/>
<path d="M63.9961,220.315h -6.80315" fill="none" stroke="black"/>
<path d="M63.9961,213.346h -6.80315" fill="none" stroke="black"/>
<path d="M70.7992,206.377h -13.6063" fill="none" stroke="black"/>
<path d="M63.9961,199.408h -6.80315" fill="none" stroke="black"/>
<path d="M63.9961,192.438h -6.80315" fill="none" stroke="black"/>
<path d="M63.9961,185.469h -6.80315" fill="none" stroke="black"/>
<path d="M63.9961,178.5h -6.80315" fill="none" stroke="black"/>
<path d="M70.7992,171.531h -13.6063" fill="none" stroke="black"/>
<path d="M63.9961,164.561h -6.80315" fill="none" stroke="black"/>
<path d="M63.9961,157.592h -6.80315" fill="none" stroke="black"/>
<path d="M63.9961,150.623h -6.80315" fill="none" stroke="black"/>
<path d="M63.9961,143.654h -6.80315" fill="none" stroke="black"/>
<path d="M70.7992,136.684h -13.6063" fill="none" stroke="black"/>
<path d="M63.9961,129.715h -6.80315" fill="none" stroke="black"/>
<path d="M63.9961,122.746h -6.80315" fill="none" stroke="black"/>
<path d="M63.9961,115.777h -6.80315" fill="none" stroke="black"/>
<path d="M63.9961,108.807h -6.80315" fill="none" stroke="black"/>
<path d="M70.7992,101.838h -13.6063" fill="none" stroke="black"/>
<path d="M63.9961,94.8689h -6.80315" fill="none" stroke="black"/>
<path d="M63.9961,87.8996h -6.80315" fill="none" stroke="black"/>
<path d="M63.9961,80.9304h -6.80315" fill="none" stroke="black"/>
<path d="M63.9961,73.9611h -6.80315" fill="none" stroke="black"/>
<path d="M70.7992,66.9919h -13.6063" fill="none" stroke="black"/>
<path d="M70.7992,66.9919h -13.6063" fill="none" stroke="black"/>
<path d="M63.9961,60.0226h -6.80315" fill="none" stroke="black"/>
<path d="M63.9961,53.0534h -6.80315" fill="none" stroke="black"/>
<path d="M63.9961,46.0842h -6.80315" fill="none" stroke="black"/>
<path d="M63.9961,39.1149h -6.80315" fill="none" stroke="black"/>
<text xml:space="preserve" x="47.6087" y="350.067" fill="black" font-size="12.836" font-family="Helvetica">0</text>
<text xml:space="preserve" x="41.111" y="315.141" fill="black" font-size="12.836" font-family="Helvetica">10</text>
<text xml:space="preserve" x="41.111" y="280.216" fill="black" font-size="12.836" font-family="Helvetica">20</text>
<text xml:space="preserve" x="41.111" y="245.29" fill="black" font-size="12.836" font-family="Helvetica">30</text>
<text xml:space="preserve" x="41.111" y="211.177" fill="black" font-size="12.836" font-family="Helvetica">40</text>
<text xml:space="preserve" x="41.111" y="176.252" fill="black" font-size="12.836" font-family="Helvetica">50</text>
<text xml:space="preserve" x="41.111" y="141.326" fill="black" font-size="12.836" font-family="Helvetica">60</text>
<text xml:space="preserve" x="41.111" y="106.401" fill="black" font-size="12.836" font-family="Helvetica">70</text>
<text xml:space="preserve" x="41.111" y="71.4753" fill="black" font-size="12.836" font-family="Helvetica">80</text>
<g transform="rotate(-90,28.9277,76.3486)">
<text xml:space="preserve" x="28.9277" y="76.3486" fill="black" font-size="12.836" font-family="Helvetica">Counts</text>
</g>
<rect x="442.705" y="24.9717" width="113.386" height="61.4688" fill="white"/>
<path d="M442.705,86.4405h 113.386" fill="none" stroke="black"/>
<path d="M556.091,86.4405v -61.4688" fill="none" stroke="black"/>
<path d="M556.091,24.9717h -113.386" fill="none" stroke="black"/>
<path d="M442.705,24.9717v 61.4688" fill="none" stroke="black"/>
<text xml:space="preserve" x="447.221" y="36.5499" fill="black" font-size="11.5932" font-family="Helvetica">B_Co_1800V_30mV</text>
<path d="M442.705,40.3389h 113.386" fill="none" stroke="black"/>
<text xml:space="preserve" x="448.033" y="52.7943" fill="black" font-size="12.7411" font-family="Helvetica">Entries </text>
<text xml:space="preserve" x="513.01" y="52.7943" fill="black" font-size="12.7411" font-family="Helvetica"> 10000</text>
<text xml:space="preserve" x="448.033" y="68.2264" fill="black" font-size="12.7411" font-family="Helvetica">Mean  </text>
<text xml:space="preserve" x="513.01" y="68.2264" fill="black" font-size="12.7411" font-family="Helvetica">  982.7</text>
<text xml:space="preserve" x="448.033" y="82.8464" fill="black" font-size="12.7411" font-family="Helvetica">Std Dev   </text>
<text xml:space="preserve" x="513.01" y="82.8464" fill="black" font-size="12.7411" font-family="Helvetica">  669.3</text>
<text xml:space="preserve" x="201.93" y="18.681" fill="black" font-size="17.9813" font-family="Helvetica">B_Co_1800V_30mV</text>
<path d="M303.532,304.147l 0.259168, -2.15214l 0.259168, -2.21497l 0.259168, -2.27619l 0.259168, -2.33553l 0.259168, -2.39271l 0.259168, -2.44743l 0.259168, -2.4994l 0.259168, -2.54834l 0.259168, -2.59394l 0.259168, -2.63592l 0.259168, -2.67398l
 0.259168, -2.70785l 0.259168, -2.73724l 0.259168, -2.76188l 0.259168, -2.78153l 0.259168, -2.79592l 0.259168, -2.80482l 0.259168, -2.80802l 0.259168, -2.80532l 0.259168, -2.79653l 0.259168, -2.78148l 0.259168, -2.76004l 0.259168, -2.73209l 0.259168,
 -2.69753l 0.259168, -2.6563l 0.259168, -2.60836l 0.259168, -2.55368l 0.259168, -2.49229l 0.259168, -2.42423l 0.259168, -2.34957l 0.259168, -2.26841l 0.259168, -2.18089l 0.259168, -2.08716l 0.259168, -1.98743l 0.259168, -1.8819l 0.259168, -1.77083l
 0.259168, -1.65448l 0.259168, -1.53317l 0.259168, -1.40722l 0.259168, -1.27697l 0.259168, -1.1428l 0.259168, -1.00509l 0.259168, -0.864263l 0.259168, -0.720738l 0.259168, -0.574955l 0.259168, -0.427365l 0.259168, -0.278428l 0.259168, -0.128613l
 0.259168, 0.0216079" fill="none" stroke="#ff0000" stroke-width="2"/>
<path d="M316.231,203.153l 0.259168, 0.171761l 0.259168, 0.321371l 0.259168, 0.469968l 0.259168, 0.617086l 0.259168, 0.762265l 0.259168, 0.905059l 0.259168, 1.04503l 0.259168, 1.18176l 0.259168, 1.31484l 0.259168, 1.4439l 0.259168, 1.56855l 0.259168,
 1.68847l 0.259168, 1.80332l 0.259168, 1.91283l 0.259168, 2.01671l 0.259168, 2.11474l 0.259168, 2.2067l 0.259168, 2.29241l 0.259168, 2.37171l 0.259168, 2.44448l 0.259168, 2.51063l 0.259168, 2.57009l 0.259168, 2.62283l 0.259168, 2.66885l 0.259168,
 2.70815l 0.259168, 2.7408l 0.259168, 2.76687l 0.259168, 2.78646l 0.259168, 2.79969l 0.259168, 2.80671l 0.259168, 2.8077l 0.259168, 2.80284l 0.259168, 2.79233l 0.259168, 2.7764l 0.259168, 2.7553l 0.259168, 2.72926l 0.259168, 2.69855l 0.259168,
 2.66345l 0.259168, 2.62423l 0.259168, 2.58118l 0.259168, 2.53459l 0.259168, 2.48475l 0.259168, 2.43196l 0.259168, 2.3765l 0.259168, 2.31868l 0.259168, 2.25877l 0.259168, 2.19705l 0.259168, 2.13382l 0.259168, 2.06932" fill="none" stroke="#ff0000"
 stroke-width="2"/>
<path d="M328.93,306.824l 0.259168, 2.00384" fill="none" stroke="#ff0000" stroke-width="2"/>
<path d="M342.407,292.283l 0.259168, -2.30927l 0.259168, -2.33659l 0.259168, -2.35912l 0.259168, -2.37657l 0.259168, -2.38868l 0.259168, -2.3952l 0.259168, -2.39588l 0.259168, -2.39053l 0.259168, -2.37894l 0.259168, -2.36095l 0.259168, -2.33643l
 0.259168, -2.30526l 0.259168, -2.26738l 0.259168, -2.22272l 0.259168, -2.17128l 0.259168, -2.11308l 0.259168, -2.04816l 0.259168, -1.97663l 0.259168, -1.8986l 0.259168, -1.81423l 0.259168, -1.72371l 0.259168, -1.62729l 0.259168, -1.52521l 0.259168,
 -1.41778l 0.259168, -1.30533l 0.259168, -1.1882l 0.259168, -1.06678l 0.259168, -0.941492l 0.259168, -0.812757l 0.259168, -0.681034l 0.259168, -0.546795l 0.259168, -0.410529l 0.259168, -0.272736l 0.259168, -0.133927l 0.259168, 0.00538211l 0.259168,
 0.144671l 0.259168, 0.28342l 0.259168, 0.421113l 0.259168, 0.55724l 0.259168, 0.691302l 0.259168, 0.822811l 0.259168, 0.951296l 0.259168, 1.0763l 0.259168, 1.1974l 0.259168, 1.31418l 0.259168, 1.42626l 0.259168, 1.53329l 0.259168, 1.63494l 0.259168,
 1.73092" fill="none" stroke="#ff0000" stroke-width="2"/>
<path d="M355.106,247.575l 0.259168, 1.82096l 0.259168, 1.90485l 0.259168, 1.98239l 0.259168, 2.05341l 0.259168, 2.11781l 0.259168, 2.1755l 0.259168, 2.22641l 0.259168, 2.27055l 0.259168, 2.30791l 0.259168, 2.33856l 0.259168, 2.36257l 0.259168,
 2.38006l 0.259168, 2.39116l 0.259168, 2.39604l 0.259168, 2.3949l 0.259168, 2.38794l 0.259168, 2.37541l 0.259168, 2.35756l 0.259168, 2.33465l 0.259168, 2.30697l 0.259168, 2.27482l 0.259168, 2.23851l 0.259168, 2.19833l 0.259168, 2.15463l 0.259168,
 2.10771l 0.259168, 2.05789l 0.259168, 2.0055l 0.259168, 1.95085l 0.259168, 1.89426l 0.259168, 1.83603l 0.259168, 1.77646l 0.259168, 1.71584l 0.259168, 1.65445l 0.259168, 1.59255l 0.259168, 1.53039l 0.259168, 1.46822l 0.259168, 1.40626l 0.259168,
 1.34473l 0.259168, 1.28381l 0.259168, 1.22369l 0.259168, 1.16454l 0.259168, 1.10651l 0.259168, 1.04972l 0.259168, 0.994303l 0.259168, 0.940361l 0.259168, 0.887985l 0.259168, 0.837251l 0.259168, 0.788221l 0.259168, 0.740947" fill="none"
 stroke="#ff0000" stroke-width="2"/>
<path d="M367.805,336.685l 0.259168, 0.695468" fill="none" stroke="#ff0000" stroke-width="2"/></svg>
