<?xml version="1.0" standalone="no"?>
<svg width="567.429" height="384.969" viewBox="0 0 567.429 384.969" xmlns="http://www.w3.org/2000/svg" shape-rendering="crispEdges">
<title>
img/calibration/B_Co_1800V_30mV.svg
</title>
<desc>
Creator: ROOT Version 6.22/09
CreationDate: Wed Jun  9 15:25:02 2021</desc>
<defs>
</defs>
<rect x="0.5" y="0" width="566.929" height="384.469" fill="white"/>
<rect x="57.1929" y="38.4469" width="453.543" height="307.575" fill="white"/>
<rect x="57.1929" y="38.4469" width="453.543" height="307.575" fill="none" stroke="black"/>
<rect x="57.1929" y="38.4469" width="453.543" height="307.575" fill="white"/>
<rect x="57.1929" y="38.4469" width="453.543" height="307.575" fill="none" stroke="black"/>
<path d="M57.1929,325.099h 0.907087v 6.9745h 0.907087v 6.9745h 1.81417v 6.9745h 2.72126v -6.9745h 0.907087v 6.9745h 0.907087v -6.9745h 0.907087v 3.48725h 0.907087v 3.48725h 0.907087v -3.48725h 1.81417v -3.48725h 1.81417v -6.9745h 0.907087v -17.4362h
 0.907087v 10.4617h 0.907087v -13.949h 0.907087v -20.9235h 0.907087v -17.4362h 0.907087v -24.4107h 0.907087v -10.4617h 0.907087v -31.3852h 0.907087v -13.949h 0.907087v -3.48725h 0.907087v -6.9745h 0.907087v -90.6685h 0.907087v 52.3087h 0.907087v
 -24.4107h 0.907087v 13.949h 0.907087v -34.8725h 0.907087v 45.3342h 0.907087v -45.3342h 0.907087v 31.3852h 0.907087v -76.7195h 0.907087v 38.3597h 0.907087v -13.949h 0.907087v 24.4107h 0.907087v -6.9745h 0.907087v 3.48725h 0.907087v -3.48725h
 0.907087v -20.9235h 0.907087v 17.4362h 0.907087v -13.949h 0.907087v 20.9235h 0.907087v -41.847h 0.907087v 80.2067h 0.907087v -62.7705h 0.907087v 34.8725h 0.907087v 27.898h 0.907087v 13.949h 0.907087v -97.643h 0.907087v 55.796h 0.907087v -6.9745h
 0.907087v 10.4617h 0.907087v 6.9745h 0.907087v -13.949h 0.907087v 13.949h 0.907087v 34.8725h 1.81417v -3.48725h 0.907087v -10.4617h 0.907087v -48.8215h 0.907087v 38.3597h 0.907087v 34.8725h 0.907087v 3.48725h 0.907087v 10.4617h 0.907087v -31.3852h
 0.907087v 17.4362h 0.907087v 6.9745h 0.907087v -20.9235h 0.907087v 20.9235h 1.81417v -48.8215h 0.907087v 17.4362h 0.907087v 17.4362h 0.907087v 6.9745h 0.907087v -27.898h 0.907087v 3.48725h 0.907087v 24.4107h 0.907087v -41.847h 0.907087v 55.796h
 0.907087v -17.4362h 0.907087v 20.9235h 0.907087v 6.9745h 0.907087v 13.949h 0.907087v -62.7705h 0.907087v 59.2832h 0.907087v -52.3087h 0.907087v 13.949h 0.907087v 27.898h 0.907087v 20.9235h 0.907087v -3.48725h 0.907087v 3.48725h 0.907087v -10.4617h
 0.907087v -6.9745h 0.907087v 13.949h 0.907087v -3.48725h 0.907087v 10.4617h 0.907087v -6.9745h 0.907087v -17.4362h 0.907087v 10.4617h 0.907087v -34.8725h 0.907087v 24.4107h 0.907087v 27.898h 0.907087v -3.48725h 0.907087v 3.48725h 0.907087v 27.898h
 1.81417v -38.3597h 0.907087v 3.48725h 0.907087v -10.4617h 0.907087v 24.4107h 0.907087v -17.4362h 0.907087v 17.4362h 0.907087v -6.9745h 1.81417v 10.4617h 0.907087v 24.4107h 0.907087v -17.4362h 0.907087v 41.847h 0.907087v -34.8725h 0.907087v 20.9235h
 0.907087v -3.48725h 0.907087v -3.48725h 0.907087v -34.8725h 0.907087v 24.4107h 0.907087v -6.9745h 0.907087v 20.9235h 0.907087v -3.48725h 0.907087v 17.4362h 0.907087v -38.3597h 0.907087v 38.3597h 0.907087v -20.9235h 0.907087v -13.949h 0.907087v
 66.2577h 1.81417v -41.847h 0.907087v 3.48725h 0.907087v 13.949h 0.907087v -38.3597h 0.907087v 27.898h 0.907087v -10.4617h 0.907087v -6.9745h 0.907087v 10.4617h 0.907087v -20.9235h 0.907087v 34.8725h 0.907087v -31.3852h 0.907087v 55.796h 0.907087v
 -6.9745h 0.907087v -20.9235h 0.907087v -10.4617h 0.907087v 31.3852h 2.72126v -34.8725h 0.907087v 13.949h 0.907087v 3.48725h 0.907087v 20.9235h 0.907087v -6.9745h 0.907087v -10.4617h 1.81417v -6.9745h 0.907087v -3.48725h 0.907087v 34.8725h 0.907087v
 -34.8725h 0.907087v 13.949h 0.907087v 6.9745h 0.907087v -13.949h 1.81417v 6.9745h 0.907087v -6.9745h 0.907087v 6.9745h 0.907087v -3.48725h 1.81417v -3.48725h 0.907087v 10.4617h 0.907087v -24.4107h 0.907087v -6.9745h 0.907087v 31.3852h 0.907087v
 -6.9745h 0.907087v -17.4362h 0.907087v 13.949h 0.907087v -10.4617h 0.907087v 10.4617h 0.907087v 13.949h 0.907087v 6.9745h 0.907087v -13.949h 0.907087v -10.4617h 0.907087v 17.4362h 0.907087v -24.4107h 0.907087v -6.9745h 0.907087v 24.4107h 0.907087v
 -3.48725h 0.907087v -17.4362h 0.907087v 10.4617h 0.907087v -24.4107h 0.907087v 13.949h 0.907087v 34.8725h 0.907087v -27.898h 0.907087v 13.949h 0.907087v -20.9235h 0.907087v 24.4107h 0.907087v -48.8215h 0.907087v 34.8725h 0.907087v 24.4107h 0.907087v
 -10.4617h 2.72126v -27.898h 0.907087v -3.48725h 0.907087v -10.4617h 0.907087v 34.8725h 0.907087v -59.2832h 0.907087v 45.3342h 0.907087v 6.9745h 0.907087v -3.48725h 0.907087v -6.9745h 0.907087v -6.9745h 0.907087v 20.9235h 0.907087v -6.9745h 0.907087v
 17.4362h 0.907087v -13.949h 0.907087v 13.949h 0.907087v -6.9745h 0.907087v -20.9235h 0.907087v 6.9745h 0.907087v 24.4107h 0.907087v -13.949h 0.907087v -6.9745h 0.907087v 3.48725h 0.907087v 6.9745h 0.907087v 13.949h 1.81417v 6.9745h 0.907087v
 -6.9745h 0.907087v -13.949h 0.907087v 38.3597h 0.907087v -31.3852h 0.907087v 27.898h 0.907087v -24.4107h 0.907087v 3.48725h 0.907087v 6.9745h 0.907087v 10.4617h 0.907087v -10.4617h 0.907087v -6.9745h 0.907087v -20.9235h 0.907087v 31.3852h 0.907087v
 6.9745h 1.81417v 13.949h 0.907087v -24.4107h 0.907087v 6.9745h 1.81417v 3.48725h 0.907087v -20.9235h 0.907087v 3.48725h 0.907087v -10.4617h 0.907087v 3.48725h 0.907087v 17.4362h 1.81417v -3.48725h 0.907087v -3.48725h 0.907087v 3.48725h 0.907087v
 -17.4362h 0.907087v 10.4617h 0.907087v 17.4362h 0.907087v -17.4362h 1.81417v 6.9745h 0.907087v -6.9745h 0.907087v -17.4362h 0.907087v -10.4617h 1.81417v 3.48725h 0.907087v -10.4617h 0.907087v -17.4362h 0.907087v 17.4362h 0.907087v -31.3852h
 0.907087v -24.4107h 0.907087v 34.8725h 0.907087v -45.3342h 0.907087v 27.898h 0.907087v -27.898h 0.907087v -3.48725h 1.81417v -17.4362h 0.907087v 17.4362h 0.907087v 52.3087h 0.907087v -13.949h 0.907087v 34.8725h 0.907087v -17.4362h 0.907087v 13.949h
 0.907087v 13.949h 0.907087v 20.9235h 2.72126v 13.949h 0.907087v 10.4617h 0.907087v -13.949h 0.907087v 34.8725h 0.907087v -3.48725h 0.907087v -17.4362h 0.907087v 17.4362h 0.907087v -10.4617h 0.907087v -6.9745h 0.907087v 20.9235h 0.907087v -27.898h
 0.907087v -27.898h 0.907087v 52.3087h 0.907087v -6.9745h 0.907087v -41.847h 0.907087v 10.4617h 0.907087v -27.898h 0.907087v 20.9235h 0.907087v -45.3342h 0.907087v 10.4617h 1.81417v -10.4617h 1.81417v -3.48725h 0.907087v 10.4617h 0.907087v -27.898h
 0.907087v 17.4362h 0.907087v -31.3852h 0.907087v 27.898h 0.907087v -20.9235h 0.907087v 20.9235h 0.907087v 38.3597h 0.907087v 20.9235h 0.907087v -41.847h 0.907087v 24.4107h 0.907087v 13.949h 0.907087v 20.9235h 0.907087v -3.48725h 0.907087v 3.48725h
 0.907087v 13.949h 0.907087v -10.4617h 0.907087v 10.4617h 1.81417v 6.9745h 1.81417v 3.48725h 1.81417v 3.48725h 1.81417v -3.48725h 1.81417v 3.48725h 0.907087v 3.48725h 0.907087v -3.48725h 1.81417v -3.48725h 0.907087v 3.48725h 2.72126v -6.9745h
 0.907087v 10.4617h 1.81417v -6.9745h 0.907087v 6.9745h 2.72126v -3.48725h 1.81417v 3.48725h 1.81417v -3.48725h 0.907087v 3.48725h 2.72126v -3.48725h 0.907087v 3.48725h 0.907087v -6.9745h 0.907087v 6.9745h 9.97795v -3.48725h 0.907087v 3.48725h
 9.97795v -3.48725h 1.81417v 3.48725h 2.72126v -3.48725h 0.907087v 3.48725h 0.907087v -3.48725h 0.907087v 3.48725h 0.907087v -3.48725h 0.907087v 3.48725h 4.53543v -3.48725h 0.907087v 3.48725h 3.62835v -3.48725h 0.907087v 3.48725h 4.53543v -3.48725h
 0.907087v 3.48725h 3.62835v -3.48725h 0.907087v 3.48725h 3.62835v -3.48725h 0.907087v 3.48725h 4.53543v -3.48725h 0.907087v 3.48725h 3.62835v -3.48725h 0.907087v 3.48725h 9.07087v -3.48725h 0.907087v 3.48725h 8.16378v -6.9745h 0.907087v 6.9745h
 1.81417v -3.48725h 0.907087v 3.48725h 9.07087v -3.48725h 1.81417v 3.48725h 0.907087v -3.48725h 0.907087v 3.48725h 3.62835v -3.48725h 0.907087v 3.48725h 9.07087" fill="none" stroke="#000099"/>
<rect x="442.705" y="24.9905" width="113.386" height="61.5151" fill="white"/>
<path d="M442.705,86.5056h 113.386" fill="none" stroke="black"/>
<path d="M556.091,86.5056v -61.5151" fill="none" stroke="black"/>
<path d="M556.091,24.9905h -113.386" fill="none" stroke="black"/>
<path d="M442.705,24.9905v 61.5151" fill="none" stroke="black"/>
<text xml:space="preserve" x="446.875" y="36.6549" fill="black" font-size="11.5725" font-family="Helvetica">B_Co_1800V_30mV</text>
<path d="M442.705,40.3693h 113.386" fill="none" stroke="black"/>
<text xml:space="preserve" x="447.69" y="52.946" fill="black" font-size="12.7186" font-family="Helvetica">Entries </text>
<text xml:space="preserve" x="512.854" y="52.946" fill="black" font-size="12.7186" font-family="Helvetica"> 10000</text>
<text xml:space="preserve" x="447.69" y="67.6079" fill="black" font-size="12.7186" font-family="Helvetica">Mean  </text>
<text xml:space="preserve" x="512.854" y="67.6079" fill="black" font-size="12.7186" font-family="Helvetica">  982.7</text>
<text xml:space="preserve" x="447.69" y="83.0844" fill="black" font-size="12.7186" font-family="Helvetica">Std Dev   </text>
<text xml:space="preserve" x="512.854" y="83.0844" fill="black" font-size="12.7186" font-family="Helvetica">  669.3</text>
<path d="M303.726,305.899l 0.647919, -5.74217l 0.647919, -6.18276l 0.647919, -6.58678l 0.647919, -6.94008l 0.647919, -7.22832l 0.647919, -7.43743l 0.647919, -7.55423l 0.647919, -7.56701l 0.647919, -7.46611l 0.647919, -7.24451l 0.647919, -6.89823l
 0.647919, -6.42681l 0.647919, -5.83346l 0.647919, -5.12524l 0.647919, -4.31292l 0.647919, -3.41082l 0.647919, -2.43631l 0.647919, -1.40938l 0.647919, -0.351836l 0.647919, 0.713364l 0.647919, 1.763l 0.647919, 2.77442l 0.647919, 3.72633l 0.647919,
 4.59956l 0.647919, 5.37767l 0.647919, 6.04749l 0.647919, 6.59943l 0.647919, 7.02766l 0.647919, 7.33013l 0.647919, 7.50838l 0.647919, 7.56726l 0.647919, 7.51447l 0.647919, 7.36005l 0.647919, 7.11581l 0.647919, 6.79467l 0.647919, 6.41004l 0.647919,
 5.97528l 0.647919, 5.50312l 0.647919, 5.0052l 0.647919, 4.49171l 0.647919, 3.97114l 0.647919, 3.45007l 0.647919, 2.93313l 0.647919, 2.42303l 0.647919, 1.92072l 0.647919, 1.42556l 0.647919, 0.93566l 0.647919, 0.448218l 0.647919, -0.0400608"
 fill="none" stroke="#ff0000" stroke-width="2"/>
<path d="M335.474,334.417l 0.647919, -0.532515l 0.647919, -1.03206l 0.647919, -1.54073l 0.647919, -2.05922l 0.647919, -2.5865l 0.647919, -3.11947l 0.647919, -3.65277l 0.647919, -4.17862l 0.647919, -4.68691l 0.647919, -5.16534l 0.647919, -5.59982l
 0.647919, -5.97495l 0.647919, -6.27472l 0.647919, -6.48328l 0.647919, -6.58583l 0.647919, -6.56952l 0.647919, -6.42435l 0.647919, -6.14398l 0.647919, -5.7264l 0.647919, -5.1744l 0.647919, -4.49582l 0.647919, -3.70349l 0.647919, -2.81492l 0.647919,
 -1.85171l 0.647919, -0.838675l 0.647919, 0.197165l 0.647919, 1.2278l 0.647919, 2.22547l 0.647919, 3.1639l 0.647919, 4.01945l 0.647919, 4.77208l 0.647919, 5.40616l 0.647919, 5.91091l 0.647919, 6.28068l 0.647919, 6.51487l 0.647919, 6.61764l 0.647919,
 6.59733l 0.647919, 6.4658l 0.647919, 6.23756l 0.647919, 5.92891l 0.647919, 5.55704l 0.647919, 5.13922l 0.647919, 4.69204l 0.647919, 4.23083l 0.647919, 3.76918l 0.647919, 3.31862l 0.647919, 2.8885l 0.647919, 2.48594l 0.647919, 2.11592" fill="none"
 stroke="#ff0000" stroke-width="2"/>
<path d="M367.222,336.964l 0.647919, 1.78143" fill="none" stroke="#ff0000" stroke-width="2"/>
<path d="M57.1929,346.022h 453.543" fill="none" stroke="black"/>
<path d="M57.1929,336.795v 9.22726" fill="none" stroke="black"/>
<path d="M70.1513,341.409v 4.61363" fill="none" stroke="black"/>
<path d="M83.1097,341.409v 4.61363" fill="none" stroke="black"/>
<path d="M96.0681,341.409v 4.61363" fill="none" stroke="black"/>
<path d="M109.026,341.409v 4.61363" fill="none" stroke="black"/>
<path d="M121.985,336.795v 9.22726" fill="none" stroke="black"/>
<path d="M134.943,341.409v 4.61363" fill="none" stroke="black"/>
<path d="M147.902,341.409v 4.61363" fill="none" stroke="black"/>
<path d="M160.86,341.409v 4.61363" fill="none" stroke="black"/>
<path d="M173.818,341.409v 4.61363" fill="none" stroke="black"/>
<path d="M186.777,336.795v 9.22726" fill="none" stroke="black"/>
<path d="M199.735,341.409v 4.61363" fill="none" stroke="black"/>
<path d="M212.693,341.409v 4.61363" fill="none" stroke="black"/>
<path d="M225.652,341.409v 4.61363" fill="none" stroke="black"/>
<path d="M238.61,341.409v 4.61363" fill="none" stroke="black"/>
<path d="M251.569,336.795v 9.22726" fill="none" stroke="black"/>
<path d="M264.527,341.409v 4.61363" fill="none" stroke="black"/>
<path d="M277.485,341.409v 4.61363" fill="none" stroke="black"/>
<path d="M290.444,341.409v 4.61363" fill="none" stroke="black"/>
<path d="M303.402,341.409v 4.61363" fill="none" stroke="black"/>
<path d="M316.361,336.795v 9.22726" fill="none" stroke="black"/>
<path d="M329.319,341.409v 4.61363" fill="none" stroke="black"/>
<path d="M342.277,341.409v 4.61363" fill="none" stroke="black"/>
<path d="M355.236,341.409v 4.61363" fill="none" stroke="black"/>
<path d="M368.194,341.409v 4.61363" fill="none" stroke="black"/>
<path d="M381.152,336.795v 9.22726" fill="none" stroke="black"/>
<path d="M394.111,341.409v 4.61363" fill="none" stroke="black"/>
<path d="M407.069,341.409v 4.61363" fill="none" stroke="black"/>
<path d="M420.028,341.409v 4.61363" fill="none" stroke="black"/>
<path d="M432.986,341.409v 4.61363" fill="none" stroke="black"/>
<path d="M445.944,336.795v 9.22726" fill="none" stroke="black"/>
<path d="M458.903,341.409v 4.61363" fill="none" stroke="black"/>
<path d="M471.861,341.409v 4.61363" fill="none" stroke="black"/>
<path d="M484.819,341.409v 4.61363" fill="none" stroke="black"/>
<path d="M497.778,341.409v 4.61363" fill="none" stroke="black"/>
<path d="M510.736,336.795v 9.22726" fill="none" stroke="black"/>
<text xml:space="preserve" x="53.446" y="358.403" fill="black" font-size="12.8453" font-family="Helvetica">0</text>
<text xml:space="preserve" x="111.279" y="358.403" fill="black" font-size="12.8453" font-family="Helvetica">500</text>
<text xml:space="preserve" x="172.371" y="358.403" fill="black" font-size="12.8453" font-family="Helvetica">1000</text>
<text xml:space="preserve" x="237.535" y="358.403" fill="black" font-size="12.8453" font-family="Helvetica">1500</text>
<text xml:space="preserve" x="301.885" y="358.403" fill="black" font-size="12.8453" font-family="Helvetica">2000</text>
<text xml:space="preserve" x="367.049" y="358.403" fill="black" font-size="12.8453" font-family="Helvetica">2500</text>
<text xml:space="preserve" x="431.399" y="358.403" fill="black" font-size="12.8453" font-family="Helvetica">3000</text>
<text xml:space="preserve" x="496.563" y="358.403" fill="black" font-size="12.8453" font-family="Helvetica">3500</text>
<text xml:space="preserve" x="450.133" y="372.251" fill="black" font-size="12.8453" font-family="Helvetica">ADC Value</text>
<path d="M57.1929,346.022v -307.575" fill="none" stroke="black"/>
<path d="M70.7992,346.022h -13.6063" fill="none" stroke="black"/>
<path d="M63.9961,339.048h -6.80315" fill="none" stroke="black"/>
<path d="M63.9961,332.073h -6.80315" fill="none" stroke="black"/>
<path d="M63.9961,325.099h -6.80315" fill="none" stroke="black"/>
<path d="M63.9961,318.124h -6.80315" fill="none" stroke="black"/>
<path d="M70.7992,311.15h -13.6063" fill="none" stroke="black"/>
<path d="M63.9961,304.175h -6.80315" fill="none" stroke="black"/>
<path d="M63.9961,297.201h -6.80315" fill="none" stroke="black"/>
<path d="M63.9961,290.226h -6.80315" fill="none" stroke="black"/>
<path d="M63.9961,283.252h -6.80315" fill="none" stroke="black"/>
<path d="M70.7992,276.277h -13.6063" fill="none" stroke="black"/>
<path d="M63.9961,269.303h -6.80315" fill="none" stroke="black"/>
<path d="M63.9961,262.328h -6.80315" fill="none" stroke="black"/>
<path d="M63.9961,255.354h -6.80315" fill="none" stroke="black"/>
<path d="M63.9961,248.379h -6.80315" fill="none" stroke="black"/>
<path d="M70.7992,241.405h -13.6063" fill="none" stroke="black"/>
<path d="M63.9961,234.43h -6.80315" fill="none" stroke="black"/>
<path d="M63.9961,227.456h -6.80315" fill="none" stroke="black"/>
<path d="M63.9961,220.481h -6.80315" fill="none" stroke="black"/>
<path d="M63.9961,213.507h -6.80315" fill="none" stroke="black"/>
<path d="M70.7992,206.532h -13.6063" fill="none" stroke="black"/>
<path d="M63.9961,199.558h -6.80315" fill="none" stroke="black"/>
<path d="M63.9961,192.583h -6.80315" fill="none" stroke="black"/>
<path d="M63.9961,185.609h -6.80315" fill="none" stroke="black"/>
<path d="M63.9961,178.634h -6.80315" fill="none" stroke="black"/>
<path d="M70.7992,171.66h -13.6063" fill="none" stroke="black"/>
<path d="M63.9961,164.685h -6.80315" fill="none" stroke="black"/>
<path d="M63.9961,157.711h -6.80315" fill="none" stroke="black"/>
<path d="M63.9961,150.736h -6.80315" fill="none" stroke="black"/>
<path d="M63.9961,143.762h -6.80315" fill="none" stroke="black"/>
<path d="M70.7992,136.787h -13.6063" fill="none" stroke="black"/>
<path d="M63.9961,129.813h -6.80315" fill="none" stroke="black"/>
<path d="M63.9961,122.838h -6.80315" fill="none" stroke="black"/>
<path d="M63.9961,115.864h -6.80315" fill="none" stroke="black"/>
<path d="M63.9961,108.889h -6.80315" fill="none" stroke="black"/>
<path d="M70.7992,101.915h -13.6063" fill="none" stroke="black"/>
<path d="M63.9961,94.9403h -6.80315" fill="none" stroke="black"/>
<path d="M63.9961,87.9659h -6.80315" fill="none" stroke="black"/>
<path d="M63.9961,80.9914h -6.80315" fill="none" stroke="black"/>
<path d="M63.9961,74.0169h -6.80315" fill="none" stroke="black"/>
<path d="M70.7992,67.0424h -13.6063" fill="none" stroke="black"/>
<path d="M70.7992,67.0424h -13.6063" fill="none" stroke="black"/>
<path d="M63.9961,60.0679h -6.80315" fill="none" stroke="black"/>
<path d="M63.9961,53.0934h -6.80315" fill="none" stroke="black"/>
<path d="M63.9961,46.1189h -6.80315" fill="none" stroke="black"/>
<path d="M63.9961,39.1444h -6.80315" fill="none" stroke="black"/>
<text xml:space="preserve" x="47.7441" y="350.258" fill="black" font-size="12.8453" font-family="Helvetica">0</text>
<text xml:space="preserve" x="41.2277" y="315.232" fill="black" font-size="12.8453" font-family="Helvetica">10</text>
<text xml:space="preserve" x="41.2277" y="281.021" fill="black" font-size="12.8453" font-family="Helvetica">20</text>
<text xml:space="preserve" x="41.2277" y="245.995" fill="black" font-size="12.8453" font-family="Helvetica">30</text>
<text xml:space="preserve" x="41.2277" y="210.969" fill="black" font-size="12.8453" font-family="Helvetica">40</text>
<text xml:space="preserve" x="41.2277" y="175.944" fill="black" font-size="12.8453" font-family="Helvetica">50</text>
<text xml:space="preserve" x="41.2277" y="140.918" fill="black" font-size="12.8453" font-family="Helvetica">60</text>
<text xml:space="preserve" x="41.2277" y="106.706" fill="black" font-size="12.8453" font-family="Helvetica">70</text>
<text xml:space="preserve" x="41.2277" y="71.6807" fill="black" font-size="12.8453" font-family="Helvetica">80</text>
<g transform="rotate(-90,29.0094,76.568)">
<text xml:space="preserve" x="29.0094" y="76.568" fill="black" font-size="12.8453" font-family="Helvetica">Counts</text>
</g>
<rect x="442.705" y="24.9905" width="113.386" height="61.5151" fill="white"/>
<path d="M442.705,86.5056h 113.386" fill="none" stroke="black"/>
<path d="M556.091,86.5056v -61.5151" fill="none" stroke="black"/>
<path d="M556.091,24.9905h -113.386" fill="none" stroke="black"/>
<path d="M442.705,24.9905v 61.5151" fill="none" stroke="black"/>
<text xml:space="preserve" x="446.875" y="36.6549" fill="black" font-size="11.5725" font-family="Helvetica">B_Co_1800V_30mV</text>
<path d="M442.705,40.3693h 113.386" fill="none" stroke="black"/>
<text xml:space="preserve" x="447.69" y="52.946" fill="black" font-size="12.7186" font-family="Helvetica">Entries </text>
<text xml:space="preserve" x="512.854" y="52.946" fill="black" font-size="12.7186" font-family="Helvetica"> 10000</text>
<text xml:space="preserve" x="447.69" y="67.6079" fill="black" font-size="12.7186" font-family="Helvetica">Mean  </text>
<text xml:space="preserve" x="512.854" y="67.6079" fill="black" font-size="12.7186" font-family="Helvetica">  982.7</text>
<text xml:space="preserve" x="447.69" y="83.0844" fill="black" font-size="12.7186" font-family="Helvetica">Std Dev   </text>
<text xml:space="preserve" x="512.854" y="83.0844" fill="black" font-size="12.7186" font-family="Helvetica">  669.3</text>
<text xml:space="preserve" x="201.695" y="18.7347" fill="black" font-size="18.0316" font-family="Helvetica">B_Co_1800V_30mV</text>
<path d="M303.726,305.899l 0.647919, -5.74217l 0.647919, -6.18276l 0.647919, -6.58678l 0.647919, -6.94008l 0.647919, -7.22832l 0.647919, -7.43743l 0.647919, -7.55423l 0.647919, -7.56701l 0.647919, -7.46611l 0.647919, -7.24451l 0.647919, -6.89823l
 0.647919, -6.42681l 0.647919, -5.83346l 0.647919, -5.12524l 0.647919, -4.31292l 0.647919, -3.41082l 0.647919, -2.43631l 0.647919, -1.40938l 0.647919, -0.351836l 0.647919, 0.713364l 0.647919, 1.763l 0.647919, 2.77442l 0.647919, 3.72633l 0.647919,
 4.59956l 0.647919, 5.37767l 0.647919, 6.04749l 0.647919, 6.59943l 0.647919, 7.02766l 0.647919, 7.33013l 0.647919, 7.50838l 0.647919, 7.56726l 0.647919, 7.51447l 0.647919, 7.36005l 0.647919, 7.11581l 0.647919, 6.79467l 0.647919, 6.41004l 0.647919,
 5.97528l 0.647919, 5.50312l 0.647919, 5.0052l 0.647919, 4.49171l 0.647919, 3.97114l 0.647919, 3.45007l 0.647919, 2.93313l 0.647919, 2.42303l 0.647919, 1.92072l 0.647919, 1.42556l 0.647919, 0.93566l 0.647919, 0.448218l 0.647919, -0.0400608"
 fill="none" stroke="#ff0000" stroke-width="2"/>
<path d="M335.474,334.417l 0.647919, -0.532515l 0.647919, -1.03206l 0.647919, -1.54073l 0.647919, -2.05922l 0.647919, -2.5865l 0.647919, -3.11947l 0.647919, -3.65277l 0.647919, -4.17862l 0.647919, -4.68691l 0.647919, -5.16534l 0.647919, -5.59982l
 0.647919, -5.97495l 0.647919, -6.27472l 0.647919, -6.48328l 0.647919, -6.58583l 0.647919, -6.56952l 0.647919, -6.42435l 0.647919, -6.14398l 0.647919, -5.7264l 0.647919, -5.1744l 0.647919, -4.49582l 0.647919, -3.70349l 0.647919, -2.81492l 0.647919,
 -1.85171l 0.647919, -0.838675l 0.647919, 0.197165l 0.647919, 1.2278l 0.647919, 2.22547l 0.647919, 3.1639l 0.647919, 4.01945l 0.647919, 4.77208l 0.647919, 5.40616l 0.647919, 5.91091l 0.647919, 6.28068l 0.647919, 6.51487l 0.647919, 6.61764l 0.647919,
 6.59733l 0.647919, 6.4658l 0.647919, 6.23756l 0.647919, 5.92891l 0.647919, 5.55704l 0.647919, 5.13922l 0.647919, 4.69204l 0.647919, 4.23083l 0.647919, 3.76918l 0.647919, 3.31862l 0.647919, 2.8885l 0.647919, 2.48594l 0.647919, 2.11592" fill="none"
 stroke="#ff0000" stroke-width="2"/>
<path d="M367.222,336.964l 0.647919, 1.78143" fill="none" stroke="#ff0000" stroke-width="2"/></svg>
