<?xml version="1.0" standalone="no"?>
<svg width="567.429" height="384.969" viewBox="0 0 567.429 384.969" xmlns="http://www.w3.org/2000/svg" shape-rendering="crispEdges">
<title>
img/calibration/B_Cs_1800V_35mV.svg
</title>
<desc>
Creator: ROOT Version 6.22/09
CreationDate: Wed Jun  9 15:25:02 2021</desc>
<defs>
</defs>
<rect x="0.5" y="0" width="566.929" height="384.469" fill="white"/>
<rect x="57.1929" y="38.4469" width="453.543" height="307.575" fill="white"/>
<rect x="57.1929" y="38.4469" width="453.543" height="307.575" fill="none" stroke="black"/>
<rect x="57.1929" y="38.4469" width="453.543" height="307.575" fill="white"/>
<rect x="57.1929" y="38.4469" width="453.543" height="307.575" fill="none" stroke="black"/>
<path d="M57.1929,344.737h 0.907087v 1.28478h 1.81417v -1.28478h 0.907087v 1.28478h 2.72126v -1.28478h 0.907087v 1.28478h 0.907087v -2.56955h 0.907087v 1.28478h 0.907087v -1.28478h 0.907087v 2.56955h 1.81417v -1.28478h 0.907087v -1.28478h 0.907087v
 -2.56955h 0.907087v 1.28478h 0.907087v 3.85433h 0.907087v -2.56955h 0.907087v -7.70865h 0.907087v -2.56955h 0.907087v -7.70865h 0.907087v 2.56955h 0.907087v -7.70865h 0.907087v -16.7021h 0.907087v -8.99343h 0.907087v -6.42388h 0.907087v 2.56955h
 0.907087v -8.99343h 0.907087v -19.2716h 0.907087v -10.2782h 0.907087v 3.85433h 0.907087v -3.85433h 0.907087v -11.563h 0.907087v 30.8346h 0.907087v -34.6889h 0.907087v -5.1391h 1.81417v -5.1391h 0.907087v -3.85433h 0.907087v -15.4173h 0.907087v
 16.7021h 0.907087v -17.9869h 0.907087v 25.6955h 0.907087v -32.1194h 0.907087v 5.1391h 0.907087v 10.2782h 0.907087v -24.4107h 1.81417v -30.8346h 0.907087v 21.8412h 0.907087v 15.4173h 0.907087v -2.56955h 0.907087v 7.70865h 0.907087v -34.6889h
 0.907087v 6.42388h 1.81417v 10.2782h 0.907087v 21.8412h 0.907087v -6.42388h 0.907087v 19.2716h 0.907087v 3.85433h 0.907087v 1.28478h 1.81417v 16.7021h 0.907087v 15.4173h 0.907087v -12.8478h 0.907087v 19.2716h 0.907087v 5.1391h 0.907087v -3.85433h
 0.907087v -16.7021h 0.907087v 21.8412h 0.907087v -7.70865h 0.907087v 15.4173h 0.907087v -19.2716h 0.907087v 10.2782h 0.907087v 11.563h 0.907087v -3.85433h 0.907087v 19.2716h 0.907087v -14.1325h 0.907087v 6.42388h 0.907087v -19.2716h 0.907087v
 14.1325h 0.907087v 14.1325h 0.907087v -11.563h 0.907087v 12.8478h 0.907087v -10.2782h 0.907087v 3.85433h 0.907087v 3.85433h 0.907087v 2.56955h 0.907087v 1.28478h 0.907087v 2.56955h 1.81417v -7.70865h 0.907087v -2.56955h 0.907087v 5.1391h 0.907087v
 -5.1391h 0.907087v 7.70865h 0.907087v 1.28478h 0.907087v 5.1391h 0.907087v 1.28478h 0.907087v -16.7021h 0.907087v -16.7021h 0.907087v 23.126h 0.907087v -5.1391h 0.907087v -10.2782h 0.907087v 21.8412h 0.907087v -14.1325h 0.907087v 1.28478h 0.907087v
 5.1391h 0.907087v 1.28478h 0.907087v 2.56955h 0.907087v 10.2782h 0.907087v -16.7021h 0.907087v 6.42388h 0.907087v 7.70865h 0.907087v 10.2782h 0.907087v -12.8478h 0.907087v 5.1391h 0.907087v 6.42388h 1.81417v 7.70865h 0.907087v -3.85433h 1.81417v
 8.99343h 0.907087v -1.28478h 0.907087v 6.42388h 0.907087v -2.56955h 0.907087v -3.85433h 0.907087v 5.1391h 0.907087v 3.85433h 0.907087v 1.28478h 0.907087v 2.56955h 1.81417v -1.28478h 0.907087v -11.563h 0.907087v 16.7021h 0.907087v -5.1391h 0.907087v
 -3.85433h 0.907087v 2.56955h 0.907087v 1.28478h 0.907087v -5.1391h 1.81417v 2.56955h 0.907087v -2.56955h 1.81417v 1.28478h 1.81417v -1.28478h 0.907087v -11.563h 0.907087v -6.42388h 0.907087v 7.70865h 0.907087v -19.2716h 0.907087v -3.85433h 0.907087v
 -28.2651h 0.907087v -21.8412h 0.907087v -24.4107h 0.907087v -7.70865h 0.907087v -11.563h 0.907087v -62.954h 0.907087v -35.9737h 0.907087v -11.563h 0.907087v -20.5564h 0.907087v -16.7021h 0.907087v -5.1391h 0.907087v 3.85433h 0.907087v 23.126h
 0.907087v 60.3845h 0.907087v 16.7021h 0.907087v 6.42388h 0.907087v 21.8412h 0.907087v 42.3976h 0.907087v 24.4107h 0.907087v 34.6889h 0.907087v 20.5564h 0.907087v -3.85433h 0.907087v 26.9803h 0.907087v 2.56955h 0.907087v 3.85433h 0.907087v 3.85433h
 0.907087v -2.56955h 0.907087v 1.28478h 0.907087v 3.85433h 0.907087v 2.56955h 0.907087v -1.28478h 1.81417v 1.28478h 0.907087v -1.28478h 0.907087v 1.28478h 0.907087v -2.56955h 0.907087v 2.56955h 1.81417v -2.56955h 0.907087v 1.28478h 0.907087v 1.28478h
 1.81417v -1.28478h 1.81417v 1.28478h 0.907087v -1.28478h 0.907087v 1.28478h 0.907087v -2.56955h 0.907087v 2.56955h 2.72126v -1.28478h 0.907087v 1.28478h 3.62835v -1.28478h 0.907087v 1.28478h 0.907087v -1.28478h 0.907087v 1.28478h 2.72126v -3.85433h
 0.907087v 3.85433h 0.907087v -1.28478h 0.907087v 1.28478h 1.81417v -1.28478h 2.72126v 1.28478h 0.907087v -1.28478h 0.907087v 1.28478h 4.53543v -1.28478h 0.907087v 1.28478h 6.34961v -1.28478h 1.81417v 1.28478h 4.53543v -1.28478h 0.907087v 1.28478h
 0.907087v -1.28478h 0.907087v 1.28478h 13.6063v -1.28478h 0.907087v 1.28478h 6.34961v -2.56955h 0.907087v 2.56955h 21.7701v -1.28478h 0.907087v 1.28478h 2.72126v -1.28478h 0.907087v 1.28478h 1.81417v -1.28478h 0.907087v 1.28478h 8.16378v -1.28478h
 0.907087v 1.28478h 0.907087v -1.28478h 0.907087v 1.28478h 5.44252v -1.28478h 0.907087v 1.28478h 0.907087v -1.28478h 0.907087v 1.28478h 1.81417v -1.28478h 0.907087v 1.28478h 0.907087v -1.28478h 1.81417v 1.28478h 4.53543v -1.28478h 0.907087v 1.28478h
 0.907087v -1.28478h 0.907087v 1.28478h 17.2346v -1.28478h 0.907087v 1.28478h 7.25669v -1.28478h 1.81417v 1.28478h 21.7701v -1.28478h 0.907087v 1.28478h 90.7087v -1.28478h 0.907087v 1.28478h 2.72126" fill="none" stroke="#000099"/>
<rect x="442.705" y="24.9905" width="113.386" height="61.5151" fill="white"/>
<path d="M442.705,86.5056h 113.386" fill="none" stroke="black"/>
<path d="M556.091,86.5056v -61.5151" fill="none" stroke="black"/>
<path d="M556.091,24.9905h -113.386" fill="none" stroke="black"/>
<path d="M442.705,24.9905v 61.5151" fill="none" stroke="black"/>
<text xml:space="preserve" x="446.875" y="36.6549" fill="black" font-size="11.6422" font-family="Helvetica">B_Cs_1800V_35mV</text>
<path d="M442.705,40.3693h 113.386" fill="none" stroke="black"/>
<text xml:space="preserve" x="447.69" y="52.946" fill="black" font-size="12.7186" font-family="Helvetica">Entries </text>
<text xml:space="preserve" x="512.854" y="52.946" fill="black" font-size="12.7186" font-family="Helvetica"> 10000</text>
<text xml:space="preserve" x="447.69" y="67.6079" fill="black" font-size="12.7186" font-family="Helvetica">Mean  </text>
<text xml:space="preserve" x="512.854" y="67.6079" fill="black" font-size="12.7186" font-family="Helvetica">  689.2</text>
<text xml:space="preserve" x="447.69" y="83.0844" fill="black" font-size="12.7186" font-family="Helvetica">Std Dev   </text>
<text xml:space="preserve" x="512.854" y="83.0844" fill="black" font-size="12.7186" font-family="Helvetica">  367.6</text>
<path d="M193.385,337.153l 0.259168, -1.25359l 0.259168, -1.40097l 0.259168, -1.56103l 0.259168, -1.73416l 0.259168, -1.92071l 0.259168, -2.12087l 0.259168, -2.33477l 0.259168, -2.56235l 0.259168, -2.80342l 0.259168, -3.05762l 0.259168, -3.3244l
 0.259168, -3.60301l 0.259168, -3.89248l 0.259168, -4.19163l 0.259168, -4.49904l 0.259168, -4.81306l 0.259168, -5.13179l 0.259168, -5.45311l 0.259168, -5.77466l 0.259168, -6.09385l 0.259168, -6.4079l 0.259168, -6.71385l 0.259168, -7.00856l 0.259168,
 -7.28877l 0.259168, -7.55111l 0.259168, -7.79215l 0.259168, -8.00845l 0.259168, -8.19658l 0.259168, -8.35318l 0.259168, -8.47501l 0.259168, -8.55901l 0.259168, -8.60233l 0.259168, -8.6024l 0.259168, -8.55696l 0.259168, -8.46412l 0.259168, -8.3224l
 0.259168, -8.13079l 0.259168, -7.88871l 0.259168, -7.59615l 0.259168, -7.25357l 0.259168, -6.86203l 0.259168, -6.42308l 0.259168, -5.93886l 0.259168, -5.412l 0.259168, -4.84567l 0.259168, -4.24351l 0.259168, -3.60957l 0.259168, -2.94835l 0.259168,
 -2.26465" fill="none" stroke="#ff0000" stroke-width="2"/>
<path d="M206.085,69.3071l 0.259168, -1.56358l 0.259168, -0.850455l 0.259168, -0.130756l 0.259168, 0.589954l 0.259168, 1.3061l 0.259168, 2.01217l 0.259168, 2.70277l 0.259168, 3.37272l 0.259168, 4.01708l 0.259168, 4.63126l 0.259168, 5.21103l 0.259168,
 5.75259l 0.259168, 6.2526l 0.259168, 6.70824l 0.259168, 7.11718l 0.259168, 7.47766l 0.259168, 7.78845l 0.259168, 8.04885l 0.259168, 8.25873l 0.259168, 8.41844l 0.259168, 8.52886l 0.259168, 8.59129l 0.259168, 8.60748l 0.259168, 8.57956l 0.259168,
 8.50999l 0.259168, 8.40154l 0.259168, 8.25718l 0.259168, 8.0801l 0.259168, 7.87362l 0.259168, 7.64116l 0.259168, 7.38614l 0.259168, 7.11202l 0.259168, 6.82218l 0.259168, 6.51994l 0.259168, 6.20847l 0.259168, 5.89081l 0.259168, 5.56981l 0.259168,
 5.24813l 0.259168, 4.9282l 0.259168, 4.61224l 0.259168, 4.30223l 0.259168, 3.99991l 0.259168, 3.70677l 0.259168, 3.4241l 0.259168, 3.15294l 0.259168, 2.8941l 0.259168, 2.64822l 0.259168, 2.41571l 0.259168, 2.19685" fill="none" stroke="#ff0000"
 stroke-width="2"/>
<path d="M218.784,328.538l 0.259168, 1.99171" fill="none" stroke="#ff0000" stroke-width="2"/>
<path d="M57.1929,346.022h 453.543" fill="none" stroke="black"/>
<path d="M57.1929,336.795v 9.22726" fill="none" stroke="black"/>
<path d="M70.1513,341.409v 4.61363" fill="none" stroke="black"/>
<path d="M83.1097,341.409v 4.61363" fill="none" stroke="black"/>
<path d="M96.0681,341.409v 4.61363" fill="none" stroke="black"/>
<path d="M109.026,341.409v 4.61363" fill="none" stroke="black"/>
<path d="M121.985,336.795v 9.22726" fill="none" stroke="black"/>
<path d="M134.943,341.409v 4.61363" fill="none" stroke="black"/>
<path d="M147.902,341.409v 4.61363" fill="none" stroke="black"/>
<path d="M160.86,341.409v 4.61363" fill="none" stroke="black"/>
<path d="M173.818,341.409v 4.61363" fill="none" stroke="black"/>
<path d="M186.777,336.795v 9.22726" fill="none" stroke="black"/>
<path d="M199.735,341.409v 4.61363" fill="none" stroke="black"/>
<path d="M212.693,341.409v 4.61363" fill="none" stroke="black"/>
<path d="M225.652,341.409v 4.61363" fill="none" stroke="black"/>
<path d="M238.61,341.409v 4.61363" fill="none" stroke="black"/>
<path d="M251.569,336.795v 9.22726" fill="none" stroke="black"/>
<path d="M264.527,341.409v 4.61363" fill="none" stroke="black"/>
<path d="M277.485,341.409v 4.61363" fill="none" stroke="black"/>
<path d="M290.444,341.409v 4.61363" fill="none" stroke="black"/>
<path d="M303.402,341.409v 4.61363" fill="none" stroke="black"/>
<path d="M316.361,336.795v 9.22726" fill="none" stroke="black"/>
<path d="M329.319,341.409v 4.61363" fill="none" stroke="black"/>
<path d="M342.277,341.409v 4.61363" fill="none" stroke="black"/>
<path d="M355.236,341.409v 4.61363" fill="none" stroke="black"/>
<path d="M368.194,341.409v 4.61363" fill="none" stroke="black"/>
<path d="M381.152,336.795v 9.22726" fill="none" stroke="black"/>
<path d="M394.111,341.409v 4.61363" fill="none" stroke="black"/>
<path d="M407.069,341.409v 4.61363" fill="none" stroke="black"/>
<path d="M420.028,341.409v 4.61363" fill="none" stroke="black"/>
<path d="M432.986,341.409v 4.61363" fill="none" stroke="black"/>
<path d="M445.944,336.795v 9.22726" fill="none" stroke="black"/>
<path d="M458.903,341.409v 4.61363" fill="none" stroke="black"/>
<path d="M471.861,341.409v 4.61363" fill="none" stroke="black"/>
<path d="M484.819,341.409v 4.61363" fill="none" stroke="black"/>
<path d="M497.778,341.409v 4.61363" fill="none" stroke="black"/>
<path d="M510.736,336.795v 9.22726" fill="none" stroke="black"/>
<text xml:space="preserve" x="53.446" y="358.403" fill="black" font-size="12.8453" font-family="Helvetica">0</text>
<text xml:space="preserve" x="111.279" y="358.403" fill="black" font-size="12.8453" font-family="Helvetica">500</text>
<text xml:space="preserve" x="172.371" y="358.403" fill="black" font-size="12.8453" font-family="Helvetica">1000</text>
<text xml:space="preserve" x="237.535" y="358.403" fill="black" font-size="12.8453" font-family="Helvetica">1500</text>
<text xml:space="preserve" x="301.885" y="358.403" fill="black" font-size="12.8453" font-family="Helvetica">2000</text>
<text xml:space="preserve" x="367.049" y="358.403" fill="black" font-size="12.8453" font-family="Helvetica">2500</text>
<text xml:space="preserve" x="431.399" y="358.403" fill="black" font-size="12.8453" font-family="Helvetica">3000</text>
<text xml:space="preserve" x="496.563" y="358.403" fill="black" font-size="12.8453" font-family="Helvetica">3500</text>
<text xml:space="preserve" x="450.133" y="372.251" fill="black" font-size="12.8453" font-family="Helvetica">ADC Value</text>
<path d="M57.1929,346.022v -307.575" fill="none" stroke="black"/>
<path d="M70.7992,346.022h -13.6063" fill="none" stroke="black"/>
<path d="M63.9961,339.598h -6.80315" fill="none" stroke="black"/>
<path d="M63.9961,333.174h -6.80315" fill="none" stroke="black"/>
<path d="M63.9961,326.751h -6.80315" fill="none" stroke="black"/>
<path d="M70.7992,320.327h -13.6063" fill="none" stroke="black"/>
<path d="M63.9961,313.903h -6.80315" fill="none" stroke="black"/>
<path d="M63.9961,307.479h -6.80315" fill="none" stroke="black"/>
<path d="M63.9961,301.055h -6.80315" fill="none" stroke="black"/>
<path d="M70.7992,294.631h -13.6063" fill="none" stroke="black"/>
<path d="M63.9961,288.207h -6.80315" fill="none" stroke="black"/>
<path d="M63.9961,281.783h -6.80315" fill="none" stroke="black"/>
<path d="M63.9961,275.36h -6.80315" fill="none" stroke="black"/>
<path d="M70.7992,268.936h -13.6063" fill="none" stroke="black"/>
<path d="M63.9961,262.512h -6.80315" fill="none" stroke="black"/>
<path d="M63.9961,256.088h -6.80315" fill="none" stroke="black"/>
<path d="M63.9961,249.664h -6.80315" fill="none" stroke="black"/>
<path d="M70.7992,243.24h -13.6063" fill="none" stroke="black"/>
<path d="M63.9961,236.816h -6.80315" fill="none" stroke="black"/>
<path d="M63.9961,230.392h -6.80315" fill="none" stroke="black"/>
<path d="M63.9961,223.969h -6.80315" fill="none" stroke="black"/>
<path d="M70.7992,217.545h -13.6063" fill="none" stroke="black"/>
<path d="M63.9961,211.121h -6.80315" fill="none" stroke="black"/>
<path d="M63.9961,204.697h -6.80315" fill="none" stroke="black"/>
<path d="M63.9961,198.273h -6.80315" fill="none" stroke="black"/>
<path d="M70.7992,191.849h -13.6063" fill="none" stroke="black"/>
<path d="M63.9961,185.425h -6.80315" fill="none" stroke="black"/>
<path d="M63.9961,179.001h -6.80315" fill="none" stroke="black"/>
<path d="M63.9961,172.578h -6.80315" fill="none" stroke="black"/>
<path d="M70.7992,166.154h -13.6063" fill="none" stroke="black"/>
<path d="M63.9961,159.73h -6.80315" fill="none" stroke="black"/>
<path d="M63.9961,153.306h -6.80315" fill="none" stroke="black"/>
<path d="M63.9961,146.882h -6.80315" fill="none" stroke="black"/>
<path d="M70.7992,140.458h -13.6063" fill="none" stroke="black"/>
<path d="M63.9961,134.034h -6.80315" fill="none" stroke="black"/>
<path d="M63.9961,127.61h -6.80315" fill="none" stroke="black"/>
<path d="M63.9961,121.186h -6.80315" fill="none" stroke="black"/>
<path d="M70.7992,114.763h -13.6063" fill="none" stroke="black"/>
<path d="M63.9961,108.339h -6.80315" fill="none" stroke="black"/>
<path d="M63.9961,101.915h -6.80315" fill="none" stroke="black"/>
<path d="M63.9961,95.491h -6.80315" fill="none" stroke="black"/>
<path d="M70.7992,89.0671h -13.6063" fill="none" stroke="black"/>
<path d="M63.9961,82.6432h -6.80315" fill="none" stroke="black"/>
<path d="M63.9961,76.2193h -6.80315" fill="none" stroke="black"/>
<path d="M63.9961,69.7954h -6.80315" fill="none" stroke="black"/>
<path d="M70.7992,63.3716h -13.6063" fill="none" stroke="black"/>
<path d="M70.7992,63.3716h -13.6063" fill="none" stroke="black"/>
<path d="M63.9961,56.9477h -6.80315" fill="none" stroke="black"/>
<path d="M63.9961,50.5238h -6.80315" fill="none" stroke="black"/>
<path d="M63.9961,44.0999h -6.80315" fill="none" stroke="black"/>
<text xml:space="preserve" x="47.7441" y="350.258" fill="black" font-size="12.8453" font-family="Helvetica">0</text>
<text xml:space="preserve" x="41.2277" y="325.007" fill="black" font-size="12.8453" font-family="Helvetica">20</text>
<text xml:space="preserve" x="41.2277" y="298.941" fill="black" font-size="12.8453" font-family="Helvetica">40</text>
<text xml:space="preserve" x="41.2277" y="273.69" fill="black" font-size="12.8453" font-family="Helvetica">60</text>
<text xml:space="preserve" x="41.2277" y="247.624" fill="black" font-size="12.8453" font-family="Helvetica">80</text>
<text xml:space="preserve" x="33.8967" y="222.373" fill="black" font-size="12.8453" font-family="Helvetica">100</text>
<text xml:space="preserve" x="33.8967" y="196.307" fill="black" font-size="12.8453" font-family="Helvetica">120</text>
<text xml:space="preserve" x="33.8967" y="170.242" fill="black" font-size="12.8453" font-family="Helvetica">140</text>
<text xml:space="preserve" x="33.8967" y="144.99" fill="black" font-size="12.8453" font-family="Helvetica">160</text>
<text xml:space="preserve" x="33.8967" y="118.925" fill="black" font-size="12.8453" font-family="Helvetica">180</text>
<text xml:space="preserve" x="33.8967" y="93.6736" fill="black" font-size="12.8453" font-family="Helvetica">200</text>
<text xml:space="preserve" x="33.8967" y="67.6079" fill="black" font-size="12.8453" font-family="Helvetica">220</text>
<g transform="rotate(-90,21.6784,76.568)">
<text xml:space="preserve" x="21.6784" y="76.568" fill="black" font-size="12.8453" font-family="Helvetica">Counts</text>
</g>
<rect x="442.705" y="24.9905" width="113.386" height="61.5151" fill="white"/>
<path d="M442.705,86.5056h 113.386" fill="none" stroke="black"/>
<path d="M556.091,86.5056v -61.5151" fill="none" stroke="black"/>
<path d="M556.091,24.9905h -113.386" fill="none" stroke="black"/>
<path d="M442.705,24.9905v 61.5151" fill="none" stroke="black"/>
<text xml:space="preserve" x="446.875" y="36.6549" fill="black" font-size="11.6422" font-family="Helvetica">B_Cs_1800V_35mV</text>
<path d="M442.705,40.3693h 113.386" fill="none" stroke="black"/>
<text xml:space="preserve" x="447.69" y="52.946" fill="black" font-size="12.7186" font-family="Helvetica">Entries </text>
<text xml:space="preserve" x="512.854" y="52.946" fill="black" font-size="12.7186" font-family="Helvetica"> 10000</text>
<text xml:space="preserve" x="447.69" y="67.6079" fill="black" font-size="12.7186" font-family="Helvetica">Mean  </text>
<text xml:space="preserve" x="512.854" y="67.6079" fill="black" font-size="12.7186" font-family="Helvetica">  689.2</text>
<text xml:space="preserve" x="447.69" y="83.0844" fill="black" font-size="12.7186" font-family="Helvetica">Std Dev   </text>
<text xml:space="preserve" x="512.854" y="83.0844" fill="black" font-size="12.7186" font-family="Helvetica">  367.6</text>
<text xml:space="preserve" x="202.509" y="18.7347" fill="black" font-size="18.0316" font-family="Helvetica">B_Cs_1800V_35mV</text>
<path d="M193.385,337.153l 0.259168, -1.25359l 0.259168, -1.40097l 0.259168, -1.56103l 0.259168, -1.73416l 0.259168, -1.92071l 0.259168, -2.12087l 0.259168, -2.33477l 0.259168, -2.56235l 0.259168, -2.80342l 0.259168, -3.05762l 0.259168, -3.3244l
 0.259168, -3.60301l 0.259168, -3.89248l 0.259168, -4.19163l 0.259168, -4.49904l 0.259168, -4.81306l 0.259168, -5.13179l 0.259168, -5.45311l 0.259168, -5.77466l 0.259168, -6.09385l 0.259168, -6.4079l 0.259168, -6.71385l 0.259168, -7.00856l 0.259168,
 -7.28877l 0.259168, -7.55111l 0.259168, -7.79215l 0.259168, -8.00845l 0.259168, -8.19658l 0.259168, -8.35318l 0.259168, -8.47501l 0.259168, -8.55901l 0.259168, -8.60233l 0.259168, -8.6024l 0.259168, -8.55696l 0.259168, -8.46412l 0.259168, -8.3224l
 0.259168, -8.13079l 0.259168, -7.88871l 0.259168, -7.59615l 0.259168, -7.25357l 0.259168, -6.86203l 0.259168, -6.42308l 0.259168, -5.93886l 0.259168, -5.412l 0.259168, -4.84567l 0.259168, -4.24351l 0.259168, -3.60957l 0.259168, -2.94835l 0.259168,
 -2.26465" fill="none" stroke="#ff0000" stroke-width="2"/>
<path d="M206.085,69.3071l 0.259168, -1.56358l 0.259168, -0.850455l 0.259168, -0.130756l 0.259168, 0.589954l 0.259168, 1.3061l 0.259168, 2.01217l 0.259168, 2.70277l 0.259168, 3.37272l 0.259168, 4.01708l 0.259168, 4.63126l 0.259168, 5.21103l 0.259168,
 5.75259l 0.259168, 6.2526l 0.259168, 6.70824l 0.259168, 7.11718l 0.259168, 7.47766l 0.259168, 7.78845l 0.259168, 8.04885l 0.259168, 8.25873l 0.259168, 8.41844l 0.259168, 8.52886l 0.259168, 8.59129l 0.259168, 8.60748l 0.259168, 8.57956l 0.259168,
 8.50999l 0.259168, 8.40154l 0.259168, 8.25718l 0.259168, 8.0801l 0.259168, 7.87362l 0.259168, 7.64116l 0.259168, 7.38614l 0.259168, 7.11202l 0.259168, 6.82218l 0.259168, 6.51994l 0.259168, 6.20847l 0.259168, 5.89081l 0.259168, 5.56981l 0.259168,
 5.24813l 0.259168, 4.9282l 0.259168, 4.61224l 0.259168, 4.30223l 0.259168, 3.99991l 0.259168, 3.70677l 0.259168, 3.4241l 0.259168, 3.15294l 0.259168, 2.8941l 0.259168, 2.64822l 0.259168, 2.41571l 0.259168, 2.19685" fill="none" stroke="#ff0000"
 stroke-width="2"/>
<path d="M218.784,328.538l 0.259168, 1.99171" fill="none" stroke="#ff0000" stroke-width="2"/></svg>
