<?xml version="1.0" standalone="no"?>
<svg width="567.429" height="384.68" viewBox="0 0 567.429 384.68" xmlns="http://www.w3.org/2000/svg" shape-rendering="crispEdges">
<title>
img/calibration/B_Na_1800V_30mV.svg
</title>
<desc>
Creator: ROOT Version 6.22/09
CreationDate: Wed Jun  9 00:53:42 2021</desc>
<defs>
</defs>
<rect x="0.5" y="0" width="566.929" height="384.18" fill="white"/>
<rect x="57.1929" y="38.418" width="453.543" height="307.344" fill="white"/>
<rect x="57.1929" y="38.418" width="453.543" height="307.344" fill="none" stroke="black"/>
<rect x="57.1929" y="38.418" width="453.543" height="307.344" fill="white"/>
<rect x="57.1929" y="38.418" width="453.543" height="307.344" fill="none" stroke="black"/>
<path d="M57.1929,342.025h 0.907087v 3.7367h 0.907087v -2.49114h 0.907087v 2.49114h 0.907087v -1.24557h 0.907087v -1.24557h 1.81417v 1.24557h 0.907087v 1.24557h 0.907087v -1.24557h 1.81417v 1.24557h 0.907087v -1.24557h 0.907087v -1.24557h 0.907087v
 2.49114h 0.907087v -1.24557h 0.907087v -3.7367h 0.907087v -6.22784h 0.907087v -8.71897h 1.81417v -14.9468h 0.907087v -4.98227h 0.907087v -8.71897h 0.907087v 2.49114h 0.907087v -17.4379h 0.907087v -8.71897h 2.72126v -4.98227h 0.907087v 12.4557h
 0.907087v -39.8582h 0.907087v 24.9114h 0.907087v -7.47341h 0.907087v -6.22784h 0.907087v -7.47341h 0.907087v -12.4557h 0.907087v 22.4202h 0.907087v -2.49114h 0.907087v -16.1924h 0.907087v 8.71897h 0.907087v 3.7367h 0.907087v -14.9468h 0.907087v
 17.4379h 0.907087v -13.7012h 0.907087v 3.7367h 0.907087v -41.1037h 0.907087v 34.8759h 0.907087v -28.6481h 0.907087v 11.2101h 0.907087v 13.7012h 0.907087v -36.1215h 0.907087v 54.805h 0.907087v -36.1215h 0.907087v 7.47341h 0.907087v 11.2101h 0.907087v
 12.4557h 0.907087v -14.9468h 0.907087v 2.49114h 0.907087v -11.2101h 0.907087v -6.22784h 0.907087v 17.4379h 0.907087v 8.71897h 0.907087v -1.24557h 0.907087v -6.22784h 0.907087v 2.49114h 0.907087v 1.24557h 0.907087v 7.47341h 0.907087v -7.47341h
 0.907087v -2.49114h 0.907087v 11.2101h 1.81417v -7.47341h 0.907087v 3.7367h 0.907087v 27.4025h 0.907087v -8.71897h 0.907087v -26.1569h 0.907087v 27.4025h 0.907087v -4.98227h 0.907087v 21.1747h 0.907087v -14.9468h 0.907087v -8.71897h 0.907087v
 17.4379h 0.907087v -14.9468h 0.907087v 26.1569h 0.907087v 9.96454h 0.907087v 2.49114h 0.907087v -17.4379h 0.907087v 32.3848h 0.907087v -11.2101h 0.907087v 11.2101h 0.907087v -2.49114h 0.907087v 8.71897h 0.907087v -22.4202h 0.907087v 11.2101h
 0.907087v 1.24557h 0.907087v 3.7367h 0.907087v 4.98227h 0.907087v 4.98227h 0.907087v -14.9468h 0.907087v 9.96454h 0.907087v -3.7367h 0.907087v -3.7367h 0.907087v 21.1747h 0.907087v -7.47341h 0.907087v -2.49114h 0.907087v -1.24557h 0.907087v 4.98227h
 0.907087v -1.24557h 3.62835v 3.7367h 0.907087v 1.24557h 0.907087v -1.24557h 0.907087v -4.98227h 0.907087v -7.47341h 0.907087v 2.49114h 0.907087v -6.22784h 0.907087v -17.4379h 1.81417v -29.8936h 0.907087v -6.22784h 0.907087v -23.6658h 0.907087v
 -24.9114h 0.907087v -33.6303h 0.907087v -39.8582h 0.907087v -28.6481h 0.907087v -9.96454h 0.907087v -42.3493h 0.907087v 8.71897h 0.907087v -4.98227h 0.907087v 47.3316h 0.907087v 46.086h 0.907087v 16.1924h 0.907087v 44.8404h 0.907087v 36.1215h
 0.907087v 12.4557h 0.907087v 22.4202h 0.907087v 22.4202h 0.907087v 18.6835h 0.907087v -2.49114h 0.907087v 12.4557h 0.907087v -2.49114h 0.907087v 8.71897h 0.907087v 1.24557h 0.907087v -6.22784h 0.907087v -3.7367h 0.907087v 11.2101h 0.907087v
 -2.49114h 0.907087v -3.7367h 0.907087v 2.49114h 0.907087v 1.24557h 0.907087v -3.7367h 0.907087v 1.24557h 1.81417v -1.24557h 0.907087v 2.49114h 1.81417v -6.22784h 0.907087v 12.4557h 0.907087v -6.22784h 0.907087v -1.24557h 0.907087v 1.24557h 0.907087v
 -2.49114h 0.907087v -3.7367h 0.907087v 8.71897h 0.907087v -2.49114h 0.907087v -6.22784h 0.907087v 6.22784h 0.907087v -4.98227h 0.907087v 1.24557h 0.907087v -2.49114h 0.907087v 4.98227h 0.907087v 7.47341h 0.907087v -7.47341h 0.907087v 3.7367h
 0.907087v -3.7367h 0.907087v -1.24557h 0.907087v -6.22784h 0.907087v 9.96454h 2.72126v 2.49114h 0.907087v -3.7367h 0.907087v 4.98227h 0.907087v -7.47341h 0.907087v -1.24557h 0.907087v 1.24557h 0.907087v 6.22784h 0.907087v -8.71897h 0.907087v
 8.71897h 0.907087v -2.49114h 0.907087v -3.7367h 0.907087v 6.22784h 0.907087v -4.98227h 0.907087v 1.24557h 0.907087v -2.49114h 0.907087v 2.49114h 1.81417v 1.24557h 0.907087v 3.7367h 0.907087v -2.49114h 0.907087v -1.24557h 0.907087v -2.49114h
 0.907087v 4.98227h 0.907087v -1.24557h 0.907087v -3.7367h 0.907087v 1.24557h 0.907087v 3.7367h 0.907087v -4.98227h 0.907087v 1.24557h 0.907087v 2.49114h 0.907087v 2.49114h 0.907087v -4.98227h 0.907087v -3.7367h 0.907087v 6.22784h 0.907087v -1.24557h
 0.907087v -1.24557h 0.907087v -1.24557h 0.907087v 4.98227h 0.907087v -4.98227h 0.907087v 1.24557h 0.907087v 1.24557h 0.907087v -4.98227h 0.907087v 4.98227h 0.907087v 2.49114h 0.907087v -6.22784h 0.907087v 6.22784h 1.81417v -11.2101h 0.907087v
 9.96454h 1.81417v -2.49114h 0.907087v -2.49114h 0.907087v 3.7367h 0.907087v -2.49114h 0.907087v 2.49114h 0.907087v -1.24557h 0.907087v -1.24557h 0.907087v 1.24557h 0.907087v 2.49114h 0.907087v -2.49114h 0.907087v -2.49114h 0.907087v -1.24557h
 1.81417v 8.71897h 0.907087v -3.7367h 0.907087v -4.98227h 0.907087v 3.7367h 0.907087v -3.7367h 0.907087v 4.98227h 0.907087v 1.24557h 0.907087v -4.98227h 0.907087v 4.98227h 1.81417v -1.24557h 0.907087v -1.24557h 0.907087v -3.7367h 0.907087v 8.71897h
 0.907087v -3.7367h 0.907087v -3.7367h 0.907087v 3.7367h 0.907087v 2.49114h 1.81417v -6.22784h 0.907087v 8.71897h 0.907087v -1.24557h 0.907087v 2.49114h 0.907087v -6.22784h 1.81417v 2.49114h 0.907087v -1.24557h 0.907087v 1.24557h 0.907087v -2.49114h
 0.907087v 4.98227h 0.907087v -3.7367h 0.907087v 1.24557h 0.907087v 1.24557h 0.907087v -1.24557h 0.907087v 2.49114h 0.907087v -2.49114h 0.907087v 1.24557h 0.907087v -4.98227h 0.907087v 7.47341h 0.907087v -2.49114h 0.907087v 1.24557h 0.907087v
 -1.24557h 0.907087v 1.24557h 0.907087v -2.49114h 0.907087v 1.24557h 0.907087v 1.24557h 0.907087v -1.24557h 1.81417v -2.49114h 0.907087v -4.98227h 0.907087v 8.71897h 0.907087v -2.49114h 0.907087v -2.49114h 1.81417v -2.49114h 0.907087v -1.24557h
 0.907087v 2.49114h 0.907087v -6.22784h 0.907087v 1.24557h 0.907087v 3.7367h 0.907087v -9.96454h 0.907087v 3.7367h 0.907087v -4.98227h 0.907087v -1.24557h 0.907087v -3.7367h 1.81417v -1.24557h 0.907087v -1.24557h 0.907087v 3.7367h 0.907087v -3.7367h
 0.907087v 8.71897h 0.907087v -4.98227h 0.907087v 3.7367h 0.907087v -1.24557h 0.907087v 1.24557h 0.907087v -1.24557h 0.907087v 11.2101h 0.907087v -1.24557h 0.907087v 3.7367h 0.907087v -3.7367h 0.907087v 7.47341h 0.907087v 1.24557h 0.907087v -1.24557h
 0.907087v 2.49114h 0.907087v -3.7367h 0.907087v 4.98227h 0.907087v -1.24557h 0.907087v 1.24557h 0.907087v -2.49114h 0.907087v 1.24557h 0.907087v 1.24557h 0.907087v -1.24557h 1.81417v 1.24557h 0.907087v -2.49114h 1.81417v 2.49114h 3.62835v -2.49114h
 0.907087v 1.24557h 3.62835v 1.24557h 1.81417v -2.49114h 0.907087v -2.49114h 0.907087v 4.98227h 0.907087v -2.49114h 0.907087v 2.49114h 0.907087v -1.24557h 1.81417v 1.24557h 0.907087v -1.24557h 1.81417v 1.24557h 0.907087v -2.49114h 0.907087v 2.49114h
 2.72126v -1.24557h 3.62835v 1.24557h 1.81417v -2.49114h 0.907087v 1.24557h 0.907087v -1.24557h 0.907087v 2.49114h 1.81417v -1.24557h 0.907087v 1.24557h 0.907087v -1.24557h 2.72126v 1.24557h 1.81417v -3.7367h 0.907087v 1.24557h 0.907087v 2.49114h
 2.72126v -1.24557h 0.907087v 1.24557h 0.907087v -2.49114h 0.907087v 1.24557h 0.907087v 1.24557h 4.53543v -1.24557h 0.907087v 1.24557h 3.62835v -1.24557h 0.907087v 1.24557h 0.907087v -1.24557h 1.81417v 1.24557h 0.907087v -1.24557h 0.907087v 1.24557h
 4.53543v -1.24557h 0.907087v 1.24557h 9.07087v -1.24557h 0.907087v 1.24557h 1.81417v -1.24557h 0.907087v 1.24557h 0.907087v -1.24557h 0.907087v 1.24557h 0.907087v -2.49114h 0.907087v 2.49114h 1.81417v -1.24557h 0.907087v 1.24557h 4.53543v -1.24557h
 1.81417v 1.24557h 0.907087v -1.24557h 1.81417v 1.24557h 8.16378v -1.24557h 0.907087v 1.24557h 4.53543v -1.24557h 0.907087v 1.24557h 1.81417v -1.24557h 0.907087v 1.24557h 22.6772v -1.24557h 0.907087v 1.24557h 7.25669" fill="none" stroke="#000099"/>
<rect x="442.705" y="24.9717" width="113.386" height="61.4688" fill="white"/>
<path d="M442.705,86.4405h 113.386" fill="none" stroke="black"/>
<path d="M556.091,86.4405v -61.4688" fill="none" stroke="black"/>
<path d="M556.091,24.9717h -113.386" fill="none" stroke="black"/>
<path d="M442.705,24.9717v 61.4688" fill="none" stroke="black"/>
<text xml:space="preserve" x="447.221" y="36.5499" fill="black" font-size="11.5932" font-family="Helvetica">B_Na_1800V_30mV</text>
<path d="M442.705,40.3389h 113.386" fill="none" stroke="black"/>
<text xml:space="preserve" x="448.033" y="52.7943" fill="black" font-size="12.7411" font-family="Helvetica">Entries </text>
<text xml:space="preserve" x="513.01" y="52.7943" fill="black" font-size="12.7411" font-family="Helvetica"> 10000</text>
<text xml:space="preserve" x="448.033" y="68.2264" fill="black" font-size="12.7411" font-family="Helvetica">Mean  </text>
<text xml:space="preserve" x="513.01" y="68.2264" fill="black" font-size="12.7411" font-family="Helvetica">  722.8</text>
<text xml:space="preserve" x="448.033" y="82.8464" fill="black" font-size="12.7411" font-family="Helvetica">Std Dev   </text>
<text xml:space="preserve" x="513.01" y="82.8464" fill="black" font-size="12.7411" font-family="Helvetica">  495.7</text>
<path d="M160.99,338.696l 0.259168, -1.09127l 0.259168, -1.23239l 0.259168, -1.38711l 0.259168, -1.55601l 0.259168, -1.73958l 0.259168, -1.93821l 0.259168, -2.15212l 0.259168, -2.38141l 0.259168, -2.62599l 0.259168, -2.88555l 0.259168, -3.1596l
 0.259168, -3.44735l 0.259168, -3.7478l 0.259168, -4.05964l 0.259168, -4.38129l 0.259168, -4.71086l 0.259168, -5.04618l 0.259168, -5.38474l 0.259168, -5.72378l 0.259168, -6.06025l 0.259168, -6.39081l 0.259168, -6.71194l 0.259168, -7.01986l 0.259168,
 -7.31068l 0.259168, -7.58036l 0.259168, -7.82481l 0.259168, -8.03992l 0.259168, -8.22166l 0.259168, -8.36609l 0.259168, -8.46947l 0.259168, -8.52832l 0.259168, -8.53945l 0.259168, -8.5001l 0.259168, -8.40793l 0.259168, -8.26114l 0.259168, -8.05846l
 0.259168, -7.79926l 0.259168, -7.48352l 0.259168, -7.11193l 0.259168, -6.68584l 0.259168, -6.20729l 0.259168, -5.67901l 0.259168, -5.1044l 0.259168, -4.48746l 0.259168, -3.83281l 0.259168, -3.14557l 0.259168, -2.43132l 0.259168, -1.69606l 0.259168,
 -0.946049" fill="none" stroke="#ff0000" stroke-width="2"/>
<path d="M173.689,85.1435l 0.259168, -0.187786l 0.259168, 0.572117l 0.259168, 1.32702l 0.259168, 2.07037l 0.259168, 2.79577l 0.259168, 3.49707l 0.259168, 4.1685l 0.259168, 4.80467l 0.259168, 5.40073l 0.259168, 5.95236l 0.259168, 6.45586l 0.259168,
 6.90816l 0.259168, 7.30689l 0.259168, 7.65034l 0.259168, 7.93751l 0.259168, 8.16806l 0.259168, 8.34234l 0.259168, 8.4613l 0.259168, 8.52648l 0.259168, 8.53996l 0.259168, 8.50431l 0.259168, 8.42251l 0.259168, 8.29791l 0.259168, 8.13412l 0.259168,
 7.93499l 0.259168, 7.70451l 0.259168, 7.44679l 0.259168, 7.1659l 0.259168, 6.86593l 0.259168, 6.55085l 0.259168, 6.22449l 0.259168, 5.89051l 0.259168, 5.55234l 0.259168, 5.21317l 0.259168, 4.87593l 0.259168, 4.54323l 0.259168, 4.21741l 0.259168,
 3.9005l 0.259168, 3.59425l 0.259168, 3.30008l 0.259168, 3.01915l 0.259168, 2.75236l 0.259168, 2.50032l 0.259168, 2.26346l 0.259168, 2.04195l 0.259168, 1.8358l 0.259168, 1.64483l 0.259168, 1.46873l 0.259168, 1.30707" fill="none" stroke="#ff0000"
 stroke-width="2"/>
<path d="M186.388,337.015l 0.259168, 1.15931" fill="none" stroke="#ff0000" stroke-width="2"/>
<path d="M329.448,340.244l 0.259168, -0.400443l 0.259168, -0.419227l 0.259168, -0.437936l 0.259168, -0.456471l 0.259168, -0.474727l 0.259168, -0.492593l 0.259168, -0.509956l 0.259168, -0.526695l 0.259168, -0.542689l 0.259168, -0.557814l 0.259168,
 -0.571945l 0.259168, -0.584953l 0.259168, -0.596714l 0.259168, -0.607103l 0.259168, -0.615999l 0.259168, -0.623282l 0.259168, -0.628841l 0.259168, -0.632569l 0.259168, -0.634365l 0.259168, -0.634139l 0.259168, -0.63181l 0.259168, -0.627305l
 0.259168, -0.620567l 0.259168, -0.611548l 0.259168, -0.600215l 0.259168, -0.586549l 0.259168, -0.570545l 0.259168, -0.552213l 0.259168, -0.531581l 0.259168, -0.50869l 0.259168, -0.483599l 0.259168, -0.45638l 0.259168, -0.427124l 0.259168, -0.395934l
 0.259168, -0.36293l 0.259168, -0.328244l 0.259168, -0.292022l 0.259168, -0.254421l 0.259168, -0.21561l 0.259168, -0.175768l 0.259168, -0.13508l 0.259168, -0.0937394l 0.259168, -0.0519448l 0.259168, -0.0098981l 0.259168, 0.0321967l 0.259168,
 0.0741351l 0.259168, 0.115714l 0.259168, 0.156733l 0.259168, 0.196997" fill="none" stroke="#ff0000" stroke-width="2"/>
<path d="M342.148,320.348l 0.259168, 0.236315l 0.259168, 0.274506l 0.259168, 0.311397l 0.259168, 0.346824l 0.259168, 0.380636l 0.259168, 0.412695l 0.259168, 0.442874l 0.259168, 0.471063l 0.259168, 0.497164l 0.259168, 0.521098l 0.259168, 0.542798l
 0.259168, 0.562215l 0.259168, 0.579316l 0.259168, 0.594082l 0.259168, 0.60651l 0.259168, 0.616614l 0.259168, 0.624419l 0.259168, 0.629967l 0.259168, 0.633311l 0.259168, 0.634516l 0.259168, 0.63366l 0.259168, 0.630828l 0.259168, 0.626117l 0.259168,
 0.61963l 0.259168, 0.611478l 0.259168, 0.601777l 0.259168, 0.590645l 0.259168, 0.578208l 0.259168, 0.564589l 0.259168, 0.549916l 0.259168, 0.534315l 0.259168, 0.51791l 0.259168, 0.500826l 0.259168, 0.483182l 0.259168, 0.465095l 0.259168, 0.446678l
 0.259168, 0.428038l 0.259168, 0.409277l 0.259168, 0.390491l 0.259168, 0.37177l 0.259168, 0.353197l 0.259168, 0.334849l 0.259168, 0.316795l 0.259168, 0.299098l 0.259168, 0.281814l 0.259168, 0.264992l 0.259168, 0.248674l 0.259168, 0.232896l 0.259168,
 0.217688" fill="none" stroke="#ff0000" stroke-width="2"/>
<path d="M354.847,343.371l 0.259168, 0.203073" fill="none" stroke="#ff0000" stroke-width="2"/>
<path d="M57.1929,345.762h 453.543" fill="none" stroke="black"/>
<path d="M57.1929,336.541v 9.22031" fill="none" stroke="black"/>
<path d="M70.1513,341.152v 4.61016" fill="none" stroke="black"/>
<path d="M83.1097,341.152v 4.61016" fill="none" stroke="black"/>
<path d="M96.0681,341.152v 4.61016" fill="none" stroke="black"/>
<path d="M109.026,341.152v 4.61016" fill="none" stroke="black"/>
<path d="M121.985,336.541v 9.22031" fill="none" stroke="black"/>
<path d="M134.943,341.152v 4.61016" fill="none" stroke="black"/>
<path d="M147.902,341.152v 4.61016" fill="none" stroke="black"/>
<path d="M160.86,341.152v 4.61016" fill="none" stroke="black"/>
<path d="M173.818,341.152v 4.61016" fill="none" stroke="black"/>
<path d="M186.777,336.541v 9.22031" fill="none" stroke="black"/>
<path d="M199.735,341.152v 4.61016" fill="none" stroke="black"/>
<path d="M212.693,341.152v 4.61016" fill="none" stroke="black"/>
<path d="M225.652,341.152v 4.61016" fill="none" stroke="black"/>
<path d="M238.61,341.152v 4.61016" fill="none" stroke="black"/>
<path d="M251.569,336.541v 9.22031" fill="none" stroke="black"/>
<path d="M264.527,341.152v 4.61016" fill="none" stroke="black"/>
<path d="M277.485,341.152v 4.61016" fill="none" stroke="black"/>
<path d="M290.444,341.152v 4.61016" fill="none" stroke="black"/>
<path d="M303.402,341.152v 4.61016" fill="none" stroke="black"/>
<path d="M316.361,336.541v 9.22031" fill="none" stroke="black"/>
<path d="M329.319,341.152v 4.61016" fill="none" stroke="black"/>
<path d="M342.277,341.152v 4.61016" fill="none" stroke="black"/>
<path d="M355.236,341.152v 4.61016" fill="none" stroke="black"/>
<path d="M368.194,341.152v 4.61016" fill="none" stroke="black"/>
<path d="M381.152,336.541v 9.22031" fill="none" stroke="black"/>
<path d="M394.111,341.152v 4.61016" fill="none" stroke="black"/>
<path d="M407.069,341.152v 4.61016" fill="none" stroke="black"/>
<path d="M420.028,341.152v 4.61016" fill="none" stroke="black"/>
<path d="M432.986,341.152v 4.61016" fill="none" stroke="black"/>
<path d="M445.944,336.541v 9.22031" fill="none" stroke="black"/>
<path d="M458.903,341.152v 4.61016" fill="none" stroke="black"/>
<path d="M471.861,341.152v 4.61016" fill="none" stroke="black"/>
<path d="M484.819,341.152v 4.61016" fill="none" stroke="black"/>
<path d="M497.778,341.152v 4.61016" fill="none" stroke="black"/>
<path d="M510.736,336.541v 9.22031" fill="none" stroke="black"/>
<text xml:space="preserve" x="53.2943" y="358.189" fill="black" font-size="12.836" font-family="Helvetica">0</text>
<text xml:space="preserve" x="110.962" y="358.189" fill="black" font-size="12.836" font-family="Helvetica">500</text>
<text xml:space="preserve" x="172.691" y="358.189" fill="black" font-size="12.836" font-family="Helvetica">1000</text>
<text xml:space="preserve" x="237.668" y="358.189" fill="black" font-size="12.836" font-family="Helvetica">1500</text>
<text xml:space="preserve" x="301.833" y="358.189" fill="black" font-size="12.836" font-family="Helvetica">2000</text>
<text xml:space="preserve" x="366.811" y="358.189" fill="black" font-size="12.836" font-family="Helvetica">2500</text>
<text xml:space="preserve" x="431.788" y="358.189" fill="black" font-size="12.836" font-family="Helvetica">3000</text>
<text xml:space="preserve" x="496.766" y="358.189" fill="black" font-size="12.836" font-family="Helvetica">3500</text>
<text xml:space="preserve" x="450.47" y="371.996" fill="black" font-size="12.836" font-family="Helvetica">ADC Value</text>
<path d="M57.1929,345.762v -307.344" fill="none" stroke="black"/>
<path d="M70.7992,345.762h -13.6063" fill="none" stroke="black"/>
<path d="M63.9961,339.534h -6.80315" fill="none" stroke="black"/>
<path d="M63.9961,333.306h -6.80315" fill="none" stroke="black"/>
<path d="M63.9961,327.078h -6.80315" fill="none" stroke="black"/>
<path d="M70.7992,320.85h -13.6063" fill="none" stroke="black"/>
<path d="M63.9961,314.623h -6.80315" fill="none" stroke="black"/>
<path d="M63.9961,308.395h -6.80315" fill="none" stroke="black"/>
<path d="M63.9961,302.167h -6.80315" fill="none" stroke="black"/>
<path d="M70.7992,295.939h -13.6063" fill="none" stroke="black"/>
<path d="M63.9961,289.711h -6.80315" fill="none" stroke="black"/>
<path d="M63.9961,283.483h -6.80315" fill="none" stroke="black"/>
<path d="M63.9961,277.256h -6.80315" fill="none" stroke="black"/>
<path d="M70.7992,271.028h -13.6063" fill="none" stroke="black"/>
<path d="M63.9961,264.8h -6.80315" fill="none" stroke="black"/>
<path d="M63.9961,258.572h -6.80315" fill="none" stroke="black"/>
<path d="M63.9961,252.344h -6.80315" fill="none" stroke="black"/>
<path d="M70.7992,246.116h -13.6063" fill="none" stroke="black"/>
<path d="M63.9961,239.889h -6.80315" fill="none" stroke="black"/>
<path d="M63.9961,233.661h -6.80315" fill="none" stroke="black"/>
<path d="M63.9961,227.433h -6.80315" fill="none" stroke="black"/>
<path d="M70.7992,221.205h -13.6063" fill="none" stroke="black"/>
<path d="M63.9961,214.977h -6.80315" fill="none" stroke="black"/>
<path d="M63.9961,208.749h -6.80315" fill="none" stroke="black"/>
<path d="M63.9961,202.522h -6.80315" fill="none" stroke="black"/>
<path d="M70.7992,196.294h -13.6063" fill="none" stroke="black"/>
<path d="M63.9961,190.066h -6.80315" fill="none" stroke="black"/>
<path d="M63.9961,183.838h -6.80315" fill="none" stroke="black"/>
<path d="M63.9961,177.61h -6.80315" fill="none" stroke="black"/>
<path d="M70.7992,171.382h -13.6063" fill="none" stroke="black"/>
<path d="M63.9961,165.154h -6.80315" fill="none" stroke="black"/>
<path d="M63.9961,158.927h -6.80315" fill="none" stroke="black"/>
<path d="M63.9961,152.699h -6.80315" fill="none" stroke="black"/>
<path d="M70.7992,146.471h -13.6063" fill="none" stroke="black"/>
<path d="M63.9961,140.243h -6.80315" fill="none" stroke="black"/>
<path d="M63.9961,134.015h -6.80315" fill="none" stroke="black"/>
<path d="M63.9961,127.787h -6.80315" fill="none" stroke="black"/>
<path d="M70.7992,121.56h -13.6063" fill="none" stroke="black"/>
<path d="M63.9961,115.332h -6.80315" fill="none" stroke="black"/>
<path d="M63.9961,109.104h -6.80315" fill="none" stroke="black"/>
<path d="M63.9961,102.876h -6.80315" fill="none" stroke="black"/>
<path d="M70.7992,96.6483h -13.6063" fill="none" stroke="black"/>
<path d="M63.9961,90.4204h -6.80315" fill="none" stroke="black"/>
<path d="M63.9961,84.1926h -6.80315" fill="none" stroke="black"/>
<path d="M63.9961,77.9648h -6.80315" fill="none" stroke="black"/>
<path d="M70.7992,71.7369h -13.6063" fill="none" stroke="black"/>
<path d="M63.9961,65.5091h -6.80315" fill="none" stroke="black"/>
<path d="M63.9961,59.2812h -6.80315" fill="none" stroke="black"/>
<path d="M63.9961,53.0534h -6.80315" fill="none" stroke="black"/>
<path d="M70.7992,46.8256h -13.6063" fill="none" stroke="black"/>
<path d="M70.7992,46.8256h -13.6063" fill="none" stroke="black"/>
<path d="M63.9961,40.5977h -6.80315" fill="none" stroke="black"/>
<text xml:space="preserve" x="47.6087" y="350.067" fill="black" font-size="12.836" font-family="Helvetica">0</text>
<text xml:space="preserve" x="41.111" y="325.7" fill="black" font-size="12.836" font-family="Helvetica">20</text>
<text xml:space="preserve" x="41.111" y="300.521" fill="black" font-size="12.836" font-family="Helvetica">40</text>
<text xml:space="preserve" x="41.111" y="275.342" fill="black" font-size="12.836" font-family="Helvetica">60</text>
<text xml:space="preserve" x="41.111" y="250.976" fill="black" font-size="12.836" font-family="Helvetica">80</text>
<text xml:space="preserve" x="33.801" y="225.797" fill="black" font-size="12.836" font-family="Helvetica">100</text>
<text xml:space="preserve" x="33.801" y="200.618" fill="black" font-size="12.836" font-family="Helvetica">120</text>
<text xml:space="preserve" x="33.801" y="176.252" fill="black" font-size="12.836" font-family="Helvetica">140</text>
<text xml:space="preserve" x="33.801" y="151.073" fill="black" font-size="12.836" font-family="Helvetica">160</text>
<text xml:space="preserve" x="33.801" y="125.894" fill="black" font-size="12.836" font-family="Helvetica">180</text>
<text xml:space="preserve" x="33.801" y="100.715" fill="black" font-size="12.836" font-family="Helvetica">200</text>
<text xml:space="preserve" x="33.801" y="76.3486" fill="black" font-size="12.836" font-family="Helvetica">220</text>
<text xml:space="preserve" x="33.801" y="51.1698" fill="black" font-size="12.836" font-family="Helvetica">240</text>
<g transform="rotate(-90,21.6177,76.3486)">
<text xml:space="preserve" x="21.6177" y="76.3486" fill="black" font-size="12.836" font-family="Helvetica">Counts</text>
</g>
<rect x="442.705" y="24.9717" width="113.386" height="61.4688" fill="white"/>
<path d="M442.705,86.4405h 113.386" fill="none" stroke="black"/>
<path d="M556.091,86.4405v -61.4688" fill="none" stroke="black"/>
<path d="M556.091,24.9717h -113.386" fill="none" stroke="black"/>
<path d="M442.705,24.9717v 61.4688" fill="none" stroke="black"/>
<text xml:space="preserve" x="447.221" y="36.5499" fill="black" font-size="11.5932" font-family="Helvetica">B_Na_1800V_30mV</text>
<path d="M442.705,40.3389h 113.386" fill="none" stroke="black"/>
<text xml:space="preserve" x="448.033" y="52.7943" fill="black" font-size="12.7411" font-family="Helvetica">Entries </text>
<text xml:space="preserve" x="513.01" y="52.7943" fill="black" font-size="12.7411" font-family="Helvetica"> 10000</text>
<text xml:space="preserve" x="448.033" y="68.2264" fill="black" font-size="12.7411" font-family="Helvetica">Mean  </text>
<text xml:space="preserve" x="513.01" y="68.2264" fill="black" font-size="12.7411" font-family="Helvetica">  722.8</text>
<text xml:space="preserve" x="448.033" y="82.8464" fill="black" font-size="12.7411" font-family="Helvetica">Std Dev   </text>
<text xml:space="preserve" x="513.01" y="82.8464" fill="black" font-size="12.7411" font-family="Helvetica">  495.7</text>
<text xml:space="preserve" x="201.93" y="18.681" fill="black" font-size="17.9813" font-family="Helvetica">B_Na_1800V_30mV</text>
<path d="M160.99,338.696l 0.259168, -1.09127l 0.259168, -1.23239l 0.259168, -1.38711l 0.259168, -1.55601l 0.259168, -1.73958l 0.259168, -1.93821l 0.259168, -2.15212l 0.259168, -2.38141l 0.259168, -2.62599l 0.259168, -2.88555l 0.259168, -3.1596l
 0.259168, -3.44735l 0.259168, -3.7478l 0.259168, -4.05964l 0.259168, -4.38129l 0.259168, -4.71086l 0.259168, -5.04618l 0.259168, -5.38474l 0.259168, -5.72378l 0.259168, -6.06025l 0.259168, -6.39081l 0.259168, -6.71194l 0.259168, -7.01986l 0.259168,
 -7.31068l 0.259168, -7.58036l 0.259168, -7.82481l 0.259168, -8.03992l 0.259168, -8.22166l 0.259168, -8.36609l 0.259168, -8.46947l 0.259168, -8.52832l 0.259168, -8.53945l 0.259168, -8.5001l 0.259168, -8.40793l 0.259168, -8.26114l 0.259168, -8.05846l
 0.259168, -7.79926l 0.259168, -7.48352l 0.259168, -7.11193l 0.259168, -6.68584l 0.259168, -6.20729l 0.259168, -5.67901l 0.259168, -5.1044l 0.259168, -4.48746l 0.259168, -3.83281l 0.259168, -3.14557l 0.259168, -2.43132l 0.259168, -1.69606l 0.259168,
 -0.946049" fill="none" stroke="#ff0000" stroke-width="2"/>
<path d="M173.689,85.1435l 0.259168, -0.187786l 0.259168, 0.572117l 0.259168, 1.32702l 0.259168, 2.07037l 0.259168, 2.79577l 0.259168, 3.49707l 0.259168, 4.1685l 0.259168, 4.80467l 0.259168, 5.40073l 0.259168, 5.95236l 0.259168, 6.45586l 0.259168,
 6.90816l 0.259168, 7.30689l 0.259168, 7.65034l 0.259168, 7.93751l 0.259168, 8.16806l 0.259168, 8.34234l 0.259168, 8.4613l 0.259168, 8.52648l 0.259168, 8.53996l 0.259168, 8.50431l 0.259168, 8.42251l 0.259168, 8.29791l 0.259168, 8.13412l 0.259168,
 7.93499l 0.259168, 7.70451l 0.259168, 7.44679l 0.259168, 7.1659l 0.259168, 6.86593l 0.259168, 6.55085l 0.259168, 6.22449l 0.259168, 5.89051l 0.259168, 5.55234l 0.259168, 5.21317l 0.259168, 4.87593l 0.259168, 4.54323l 0.259168, 4.21741l 0.259168,
 3.9005l 0.259168, 3.59425l 0.259168, 3.30008l 0.259168, 3.01915l 0.259168, 2.75236l 0.259168, 2.50032l 0.259168, 2.26346l 0.259168, 2.04195l 0.259168, 1.8358l 0.259168, 1.64483l 0.259168, 1.46873l 0.259168, 1.30707" fill="none" stroke="#ff0000"
 stroke-width="2"/>
<path d="M186.388,337.015l 0.259168, 1.15931" fill="none" stroke="#ff0000" stroke-width="2"/>
<path d="M329.448,340.244l 0.259168, -0.400443l 0.259168, -0.419227l 0.259168, -0.437936l 0.259168, -0.456471l 0.259168, -0.474727l 0.259168, -0.492593l 0.259168, -0.509956l 0.259168, -0.526695l 0.259168, -0.542689l 0.259168, -0.557814l 0.259168,
 -0.571945l 0.259168, -0.584953l 0.259168, -0.596714l 0.259168, -0.607103l 0.259168, -0.615999l 0.259168, -0.623282l 0.259168, -0.628841l 0.259168, -0.632569l 0.259168, -0.634365l 0.259168, -0.634139l 0.259168, -0.63181l 0.259168, -0.627305l
 0.259168, -0.620567l 0.259168, -0.611548l 0.259168, -0.600215l 0.259168, -0.586549l 0.259168, -0.570545l 0.259168, -0.552213l 0.259168, -0.531581l 0.259168, -0.50869l 0.259168, -0.483599l 0.259168, -0.45638l 0.259168, -0.427124l 0.259168, -0.395934l
 0.259168, -0.36293l 0.259168, -0.328244l 0.259168, -0.292022l 0.259168, -0.254421l 0.259168, -0.21561l 0.259168, -0.175768l 0.259168, -0.13508l 0.259168, -0.0937394l 0.259168, -0.0519448l 0.259168, -0.0098981l 0.259168, 0.0321967l 0.259168,
 0.0741351l 0.259168, 0.115714l 0.259168, 0.156733l 0.259168, 0.196997" fill="none" stroke="#ff0000" stroke-width="2"/>
<path d="M342.148,320.348l 0.259168, 0.236315l 0.259168, 0.274506l 0.259168, 0.311397l 0.259168, 0.346824l 0.259168, 0.380636l 0.259168, 0.412695l 0.259168, 0.442874l 0.259168, 0.471063l 0.259168, 0.497164l 0.259168, 0.521098l 0.259168, 0.542798l
 0.259168, 0.562215l 0.259168, 0.579316l 0.259168, 0.594082l 0.259168, 0.60651l 0.259168, 0.616614l 0.259168, 0.624419l 0.259168, 0.629967l 0.259168, 0.633311l 0.259168, 0.634516l 0.259168, 0.63366l 0.259168, 0.630828l 0.259168, 0.626117l 0.259168,
 0.61963l 0.259168, 0.611478l 0.259168, 0.601777l 0.259168, 0.590645l 0.259168, 0.578208l 0.259168, 0.564589l 0.259168, 0.549916l 0.259168, 0.534315l 0.259168, 0.51791l 0.259168, 0.500826l 0.259168, 0.483182l 0.259168, 0.465095l 0.259168, 0.446678l
 0.259168, 0.428038l 0.259168, 0.409277l 0.259168, 0.390491l 0.259168, 0.37177l 0.259168, 0.353197l 0.259168, 0.334849l 0.259168, 0.316795l 0.259168, 0.299098l 0.259168, 0.281814l 0.259168, 0.264992l 0.259168, 0.248674l 0.259168, 0.232896l 0.259168,
 0.217688" fill="none" stroke="#ff0000" stroke-width="2"/>
<path d="M354.847,343.371l 0.259168, 0.203073" fill="none" stroke="#ff0000" stroke-width="2"/></svg>
