<?xml version="1.0" standalone="no"?>
<svg width="567.429" height="384.969" viewBox="0 0 567.429 384.969" xmlns="http://www.w3.org/2000/svg" shape-rendering="crispEdges">
<title>
img/calibration/B_Na_1800V_30mV.svg
</title>
<desc>
Creator: ROOT Version 6.22/09
CreationDate: Wed Jun  9 15:25:02 2021</desc>
<defs>
</defs>
<rect x="0.5" y="0" width="566.929" height="384.469" fill="white"/>
<rect x="57.1929" y="38.4469" width="453.543" height="307.575" fill="white"/>
<rect x="57.1929" y="38.4469" width="453.543" height="307.575" fill="none" stroke="black"/>
<rect x="57.1929" y="38.4469" width="453.543" height="307.575" fill="white"/>
<rect x="57.1929" y="38.4469" width="453.543" height="307.575" fill="none" stroke="black"/>
<path d="M57.1929,342.283h 0.907087v 3.73952h 0.907087v -2.49301h 0.907087v 2.49301h 0.907087v -1.24651h 0.907087v -1.24651h 1.81417v 1.24651h 0.907087v 1.24651h 0.907087v -1.24651h 1.81417v 1.24651h 0.907087v -1.24651h 0.907087v -1.24651h 0.907087v
 2.49301h 0.907087v -1.24651h 0.907087v -3.73952h 0.907087v -6.23253h 0.907087v -8.72554h 1.81417v -14.9581h 0.907087v -4.98602h 0.907087v -8.72554h 0.907087v 2.49301h 0.907087v -17.4511h 0.907087v -8.72554h 2.72126v -4.98602h 0.907087v 12.4651h
 0.907087v -39.8882h 0.907087v 24.9301h 0.907087v -7.47904h 0.907087v -6.23253h 0.907087v -7.47904h 0.907087v -12.4651h 0.907087v 22.4371h 0.907087v -2.49301h 0.907087v -16.2046h 0.907087v 8.72554h 0.907087v 3.73952h 0.907087v -14.9581h 0.907087v
 17.4511h 0.907087v -13.7116h 0.907087v 3.73952h 0.907087v -41.1347h 0.907087v 34.9022h 0.907087v -28.6696h 0.907087v 11.2186h 0.907087v 13.7116h 0.907087v -36.1487h 0.907087v 54.8463h 0.907087v -36.1487h 0.907087v 7.47904h 0.907087v 11.2186h
 0.907087v 12.4651h 0.907087v -14.9581h 0.907087v 2.49301h 0.907087v -11.2186h 0.907087v -6.23253h 0.907087v 17.4511h 0.907087v 8.72554h 0.907087v -1.24651h 0.907087v -6.23253h 0.907087v 2.49301h 0.907087v 1.24651h 0.907087v 7.47904h 0.907087v
 -7.47904h 0.907087v -2.49301h 0.907087v 11.2186h 1.81417v -7.47904h 0.907087v 3.73952h 0.907087v 27.4231h 0.907087v -8.72554h 0.907087v -26.1766h 0.907087v 27.4231h 0.907087v -4.98602h 0.907087v 21.1906h 0.907087v -14.9581h 0.907087v -8.72554h
 0.907087v 17.4511h 0.907087v -14.9581h 0.907087v 26.1766h 0.907087v 9.97205h 0.907087v 2.49301h 0.907087v -17.4511h 0.907087v 32.4092h 0.907087v -11.2186h 0.907087v 11.2186h 0.907087v -2.49301h 0.907087v 8.72554h 0.907087v -22.4371h 0.907087v
 11.2186h 0.907087v 1.24651h 0.907087v 3.73952h 0.907087v 4.98602h 0.907087v 4.98602h 0.907087v -14.9581h 0.907087v 9.97205h 0.907087v -3.73952h 0.907087v -3.73952h 0.907087v 21.1906h 0.907087v -7.47904h 0.907087v -2.49301h 0.907087v -1.24651h
 0.907087v 4.98602h 0.907087v -1.24651h 3.62835v 3.73952h 0.907087v 1.24651h 0.907087v -1.24651h 0.907087v -4.98602h 0.907087v -7.47904h 0.907087v 2.49301h 0.907087v -6.23253h 0.907087v -17.4511h 1.81417v -29.9161h 0.907087v -6.23253h 0.907087v
 -23.6836h 0.907087v -24.9301h 0.907087v -33.6557h 0.907087v -39.8882h 0.907087v -28.6696h 0.907087v -9.97205h 0.907087v -42.3812h 0.907087v 8.72554h 0.907087v -4.98602h 0.907087v 47.3672h 0.907087v 46.1207h 0.907087v 16.2046h 0.907087v 44.8742h
 0.907087v 36.1487h 0.907087v 12.4651h 0.907087v 22.4371h 0.907087v 22.4371h 0.907087v 18.6976h 0.907087v -2.49301h 0.907087v 12.4651h 0.907087v -2.49301h 0.907087v 8.72554h 0.907087v 1.24651h 0.907087v -6.23253h 0.907087v -3.73952h 0.907087v
 11.2186h 0.907087v -2.49301h 0.907087v -3.73952h 0.907087v 2.49301h 0.907087v 1.24651h 0.907087v -3.73952h 0.907087v 1.24651h 1.81417v -1.24651h 0.907087v 2.49301h 1.81417v -6.23253h 0.907087v 12.4651h 0.907087v -6.23253h 0.907087v -1.24651h
 0.907087v 1.24651h 0.907087v -2.49301h 0.907087v -3.73952h 0.907087v 8.72554h 0.907087v -2.49301h 0.907087v -6.23253h 0.907087v 6.23253h 0.907087v -4.98602h 0.907087v 1.24651h 0.907087v -2.49301h 0.907087v 4.98602h 0.907087v 7.47904h 0.907087v
 -7.47904h 0.907087v 3.73952h 0.907087v -3.73952h 0.907087v -1.24651h 0.907087v -6.23253h 0.907087v 9.97205h 2.72126v 2.49301h 0.907087v -3.73952h 0.907087v 4.98602h 0.907087v -7.47904h 0.907087v -1.24651h 0.907087v 1.24651h 0.907087v 6.23253h
 0.907087v -8.72554h 0.907087v 8.72554h 0.907087v -2.49301h 0.907087v -3.73952h 0.907087v 6.23253h 0.907087v -4.98602h 0.907087v 1.24651h 0.907087v -2.49301h 0.907087v 2.49301h 1.81417v 1.24651h 0.907087v 3.73952h 0.907087v -2.49301h 0.907087v
 -1.24651h 0.907087v -2.49301h 0.907087v 4.98602h 0.907087v -1.24651h 0.907087v -3.73952h 0.907087v 1.24651h 0.907087v 3.73952h 0.907087v -4.98602h 0.907087v 1.24651h 0.907087v 2.49301h 0.907087v 2.49301h 0.907087v -4.98602h 0.907087v -3.73952h
 0.907087v 6.23253h 0.907087v -1.24651h 0.907087v -1.24651h 0.907087v -1.24651h 0.907087v 4.98602h 0.907087v -4.98602h 0.907087v 1.24651h 0.907087v 1.24651h 0.907087v -4.98602h 0.907087v 4.98602h 0.907087v 2.49301h 0.907087v -6.23253h 0.907087v
 6.23253h 1.81417v -11.2186h 0.907087v 9.97205h 1.81417v -2.49301h 0.907087v -2.49301h 0.907087v 3.73952h 0.907087v -2.49301h 0.907087v 2.49301h 0.907087v -1.24651h 0.907087v -1.24651h 0.907087v 1.24651h 0.907087v 2.49301h 0.907087v -2.49301h
 0.907087v -2.49301h 0.907087v -1.24651h 1.81417v 8.72554h 0.907087v -3.73952h 0.907087v -4.98602h 0.907087v 3.73952h 0.907087v -3.73952h 0.907087v 4.98602h 0.907087v 1.24651h 0.907087v -4.98602h 0.907087v 4.98602h 1.81417v -1.24651h 0.907087v
 -1.24651h 0.907087v -3.73952h 0.907087v 8.72554h 0.907087v -3.73952h 0.907087v -3.73952h 0.907087v 3.73952h 0.907087v 2.49301h 1.81417v -6.23253h 0.907087v 8.72554h 0.907087v -1.24651h 0.907087v 2.49301h 0.907087v -6.23253h 1.81417v 2.49301h
 0.907087v -1.24651h 0.907087v 1.24651h 0.907087v -2.49301h 0.907087v 4.98602h 0.907087v -3.73952h 0.907087v 1.24651h 0.907087v 1.24651h 0.907087v -1.24651h 0.907087v 2.49301h 0.907087v -2.49301h 0.907087v 1.24651h 0.907087v -4.98602h 0.907087v
 7.47904h 0.907087v -2.49301h 0.907087v 1.24651h 0.907087v -1.24651h 0.907087v 1.24651h 0.907087v -2.49301h 0.907087v 1.24651h 0.907087v 1.24651h 0.907087v -1.24651h 1.81417v -2.49301h 0.907087v -4.98602h 0.907087v 8.72554h 0.907087v -2.49301h
 0.907087v -2.49301h 1.81417v -2.49301h 0.907087v -1.24651h 0.907087v 2.49301h 0.907087v -6.23253h 0.907087v 1.24651h 0.907087v 3.73952h 0.907087v -9.97205h 0.907087v 3.73952h 0.907087v -4.98602h 0.907087v -1.24651h 0.907087v -3.73952h 1.81417v
 -1.24651h 0.907087v -1.24651h 0.907087v 3.73952h 0.907087v -3.73952h 0.907087v 8.72554h 0.907087v -4.98602h 0.907087v 3.73952h 0.907087v -1.24651h 0.907087v 1.24651h 0.907087v -1.24651h 0.907087v 11.2186h 0.907087v -1.24651h 0.907087v 3.73952h
 0.907087v -3.73952h 0.907087v 7.47904h 0.907087v 1.24651h 0.907087v -1.24651h 0.907087v 2.49301h 0.907087v -3.73952h 0.907087v 4.98602h 0.907087v -1.24651h 0.907087v 1.24651h 0.907087v -2.49301h 0.907087v 1.24651h 0.907087v 1.24651h 0.907087v
 -1.24651h 1.81417v 1.24651h 0.907087v -2.49301h 1.81417v 2.49301h 3.62835v -2.49301h 0.907087v 1.24651h 3.62835v 1.24651h 1.81417v -2.49301h 0.907087v -2.49301h 0.907087v 4.98602h 0.907087v -2.49301h 0.907087v 2.49301h 0.907087v -1.24651h 1.81417v
 1.24651h 0.907087v -1.24651h 1.81417v 1.24651h 0.907087v -2.49301h 0.907087v 2.49301h 2.72126v -1.24651h 3.62835v 1.24651h 1.81417v -2.49301h 0.907087v 1.24651h 0.907087v -1.24651h 0.907087v 2.49301h 1.81417v -1.24651h 0.907087v 1.24651h 0.907087v
 -1.24651h 2.72126v 1.24651h 1.81417v -3.73952h 0.907087v 1.24651h 0.907087v 2.49301h 2.72126v -1.24651h 0.907087v 1.24651h 0.907087v -2.49301h 0.907087v 1.24651h 0.907087v 1.24651h 4.53543v -1.24651h 0.907087v 1.24651h 3.62835v -1.24651h 0.907087v
 1.24651h 0.907087v -1.24651h 1.81417v 1.24651h 0.907087v -1.24651h 0.907087v 1.24651h 4.53543v -1.24651h 0.907087v 1.24651h 9.07087v -1.24651h 0.907087v 1.24651h 1.81417v -1.24651h 0.907087v 1.24651h 0.907087v -1.24651h 0.907087v 1.24651h 0.907087v
 -2.49301h 0.907087v 2.49301h 1.81417v -1.24651h 0.907087v 1.24651h 4.53543v -1.24651h 1.81417v 1.24651h 0.907087v -1.24651h 1.81417v 1.24651h 8.16378v -1.24651h 0.907087v 1.24651h 4.53543v -1.24651h 0.907087v 1.24651h 1.81417v -1.24651h 0.907087v
 1.24651h 22.6772v -1.24651h 0.907087v 1.24651h 7.25669" fill="none" stroke="#000099"/>
<rect x="442.705" y="24.9905" width="113.386" height="61.5151" fill="white"/>
<path d="M442.705,86.5056h 113.386" fill="none" stroke="black"/>
<path d="M556.091,86.5056v -61.5151" fill="none" stroke="black"/>
<path d="M556.091,24.9905h -113.386" fill="none" stroke="black"/>
<path d="M442.705,24.9905v 61.5151" fill="none" stroke="black"/>
<text xml:space="preserve" x="446.875" y="36.6549" fill="black" font-size="11.5725" font-family="Helvetica">B_Na_1800V_30mV</text>
<path d="M442.705,40.3693h 113.386" fill="none" stroke="black"/>
<text xml:space="preserve" x="447.69" y="52.946" fill="black" font-size="12.7186" font-family="Helvetica">Entries </text>
<text xml:space="preserve" x="512.854" y="52.946" fill="black" font-size="12.7186" font-family="Helvetica"> 10000</text>
<text xml:space="preserve" x="447.69" y="67.6079" fill="black" font-size="12.7186" font-family="Helvetica">Mean  </text>
<text xml:space="preserve" x="512.854" y="67.6079" fill="black" font-size="12.7186" font-family="Helvetica">  722.8</text>
<text xml:space="preserve" x="447.69" y="83.0844" fill="black" font-size="12.7186" font-family="Helvetica">Std Dev   </text>
<text xml:space="preserve" x="512.854" y="83.0844" fill="black" font-size="12.7186" font-family="Helvetica">  495.7</text>
<path d="M160.99,338.951l 0.259168, -1.09209l 0.259168, -1.23331l 0.259168, -1.38815l 0.259168, -1.55718l 0.259168, -1.74089l 0.259168, -1.93967l 0.259168, -2.15374l 0.259168, -2.3832l 0.259168, -2.62796l 0.259168, -2.88773l 0.259168, -3.16198l
 0.259168, -3.44995l 0.259168, -3.75062l 0.259168, -4.0627l 0.259168, -4.38459l 0.259168, -4.71441l 0.259168, -5.04998l 0.259168, -5.3888l 0.259168, -5.72809l 0.259168, -6.06481l 0.259168, -6.39563l 0.259168, -6.71699l 0.259168, -7.02515l 0.259168,
 -7.31619l 0.259168, -7.58607l 0.259168, -7.8307l 0.259168, -8.04598l 0.259168, -8.22786l 0.259168, -8.3724l 0.259168, -8.47585l 0.259168, -8.53474l 0.259168, -8.54588l 0.259168, -8.5065l 0.259168, -8.41427l 0.259168, -8.26736l 0.259168, -8.06453l
 0.259168, -7.80513l 0.259168, -7.48916l 0.259168, -7.11729l 0.259168, -6.69088l 0.259168, -6.21197l 0.259168, -5.68329l 0.259168, -5.10824l 0.259168, -4.49084l 0.259168, -3.8357l 0.259168, -3.14794l 0.259168, -2.43316l 0.259168, -1.69734l 0.259168,
 -0.946761" fill="none" stroke="#ff0000" stroke-width="2"/>
<path d="M173.689,85.2076l 0.259168, -0.187927l 0.259168, 0.572548l 0.259168, 1.32802l 0.259168, 2.07193l 0.259168, 2.79787l 0.259168, 3.49971l 0.259168, 4.17164l 0.259168, 4.80829l 0.259168, 5.4048l 0.259168, 5.95684l 0.259168, 6.46072l 0.259168,
 6.91336l 0.259168, 7.31239l 0.259168, 7.6561l 0.259168, 7.94349l 0.259168, 8.17422l 0.259168, 8.34863l 0.259168, 8.46767l 0.259168, 8.5329l 0.259168, 8.54639l 0.259168, 8.51072l 0.259168, 8.42886l 0.259168, 8.30416l 0.259168, 8.14024l 0.259168,
 7.94096l 0.259168, 7.71032l 0.259168, 7.45239l 0.259168, 7.1713l 0.259168, 6.8711l 0.259168, 6.55578l 0.259168, 6.22918l 0.259168, 5.89494l 0.259168, 5.55652l 0.259168, 5.2171l 0.259168, 4.8796l 0.259168, 4.54665l 0.259168, 4.22058l 0.259168,
 3.90344l 0.259168, 3.59696l 0.259168, 3.30257l 0.259168, 3.02143l 0.259168, 2.75443l 0.259168, 2.50221l 0.259168, 2.26516l 0.259168, 2.04349l 0.259168, 1.83718l 0.259168, 1.64607l 0.259168, 1.46984l 0.259168, 1.30806" fill="none" stroke="#ff0000"
 stroke-width="2"/>
<path d="M186.388,337.268l 0.259168, 1.16019" fill="none" stroke="#ff0000" stroke-width="2"/>
<path d="M329.448,340.5l 0.259168, -0.400744l 0.259168, -0.419543l 0.259168, -0.438266l 0.259168, -0.456815l 0.259168, -0.475085l 0.259168, -0.492964l 0.259168, -0.51034l 0.259168, -0.527092l 0.259168, -0.543098l 0.259168, -0.558235l 0.259168,
 -0.572375l 0.259168, -0.585394l 0.259168, -0.597163l 0.259168, -0.60756l 0.259168, -0.616462l 0.259168, -0.623752l 0.259168, -0.629315l 0.259168, -0.633045l 0.259168, -0.634843l 0.259168, -0.634617l 0.259168, -0.632286l 0.259168, -0.627778l
 0.259168, -0.621035l 0.259168, -0.612009l 0.259168, -0.600667l 0.259168, -0.586991l 0.259168, -0.570974l 0.259168, -0.552629l 0.259168, -0.531982l 0.259168, -0.509074l 0.259168, -0.483963l 0.259168, -0.456724l 0.259168, -0.427446l 0.259168,
 -0.396232l 0.259168, -0.363203l 0.259168, -0.328491l 0.259168, -0.292242l 0.259168, -0.254613l 0.259168, -0.215773l 0.259168, -0.1759l 0.259168, -0.135182l 0.259168, -0.09381l 0.259168, -0.0519839l 0.259168, -0.00990556l 0.259168, 0.0322209l
 0.259168, 0.0741909l 0.259168, 0.115801l 0.259168, 0.156851l 0.259168, 0.197145" fill="none" stroke="#ff0000" stroke-width="2"/>
<path d="M342.148,320.589l 0.259168, 0.236493l 0.259168, 0.274713l 0.259168, 0.311631l 0.259168, 0.347085l 0.259168, 0.380923l 0.259168, 0.413006l 0.259168, 0.443208l 0.259168, 0.471417l 0.259168, 0.497539l 0.259168, 0.52149l 0.259168, 0.543207l
 0.259168, 0.562639l 0.259168, 0.579752l 0.259168, 0.594529l 0.259168, 0.606967l 0.259168, 0.617078l 0.259168, 0.624889l 0.259168, 0.630441l 0.259168, 0.633788l 0.259168, 0.634994l 0.259168, 0.634137l 0.259168, 0.631303l 0.259168, 0.626589l 0.259168,
 0.620097l 0.259168, 0.611939l 0.259168, 0.60223l 0.259168, 0.59109l 0.259168, 0.578643l 0.259168, 0.565014l 0.259168, 0.55033l 0.259168, 0.534717l 0.259168, 0.5183l 0.259168, 0.501203l 0.259168, 0.483546l 0.259168, 0.465445l 0.259168, 0.447014l
 0.259168, 0.42836l 0.259168, 0.409585l 0.259168, 0.390785l 0.259168, 0.37205l 0.259168, 0.353463l 0.259168, 0.335101l 0.259168, 0.317033l 0.259168, 0.299323l 0.259168, 0.282026l 0.259168, 0.265191l 0.259168, 0.248861l 0.259168, 0.233071l 0.259168,
 0.217852" fill="none" stroke="#ff0000" stroke-width="2"/>
<path d="M354.847,343.629l 0.259168, 0.203226" fill="none" stroke="#ff0000" stroke-width="2"/>
<path d="M57.1929,346.022h 453.543" fill="none" stroke="black"/>
<path d="M57.1929,336.795v 9.22726" fill="none" stroke="black"/>
<path d="M70.1513,341.409v 4.61363" fill="none" stroke="black"/>
<path d="M83.1097,341.409v 4.61363" fill="none" stroke="black"/>
<path d="M96.0681,341.409v 4.61363" fill="none" stroke="black"/>
<path d="M109.026,341.409v 4.61363" fill="none" stroke="black"/>
<path d="M121.985,336.795v 9.22726" fill="none" stroke="black"/>
<path d="M134.943,341.409v 4.61363" fill="none" stroke="black"/>
<path d="M147.902,341.409v 4.61363" fill="none" stroke="black"/>
<path d="M160.86,341.409v 4.61363" fill="none" stroke="black"/>
<path d="M173.818,341.409v 4.61363" fill="none" stroke="black"/>
<path d="M186.777,336.795v 9.22726" fill="none" stroke="black"/>
<path d="M199.735,341.409v 4.61363" fill="none" stroke="black"/>
<path d="M212.693,341.409v 4.61363" fill="none" stroke="black"/>
<path d="M225.652,341.409v 4.61363" fill="none" stroke="black"/>
<path d="M238.61,341.409v 4.61363" fill="none" stroke="black"/>
<path d="M251.569,336.795v 9.22726" fill="none" stroke="black"/>
<path d="M264.527,341.409v 4.61363" fill="none" stroke="black"/>
<path d="M277.485,341.409v 4.61363" fill="none" stroke="black"/>
<path d="M290.444,341.409v 4.61363" fill="none" stroke="black"/>
<path d="M303.402,341.409v 4.61363" fill="none" stroke="black"/>
<path d="M316.361,336.795v 9.22726" fill="none" stroke="black"/>
<path d="M329.319,341.409v 4.61363" fill="none" stroke="black"/>
<path d="M342.277,341.409v 4.61363" fill="none" stroke="black"/>
<path d="M355.236,341.409v 4.61363" fill="none" stroke="black"/>
<path d="M368.194,341.409v 4.61363" fill="none" stroke="black"/>
<path d="M381.152,336.795v 9.22726" fill="none" stroke="black"/>
<path d="M394.111,341.409v 4.61363" fill="none" stroke="black"/>
<path d="M407.069,341.409v 4.61363" fill="none" stroke="black"/>
<path d="M420.028,341.409v 4.61363" fill="none" stroke="black"/>
<path d="M432.986,341.409v 4.61363" fill="none" stroke="black"/>
<path d="M445.944,336.795v 9.22726" fill="none" stroke="black"/>
<path d="M458.903,341.409v 4.61363" fill="none" stroke="black"/>
<path d="M471.861,341.409v 4.61363" fill="none" stroke="black"/>
<path d="M484.819,341.409v 4.61363" fill="none" stroke="black"/>
<path d="M497.778,341.409v 4.61363" fill="none" stroke="black"/>
<path d="M510.736,336.795v 9.22726" fill="none" stroke="black"/>
<text xml:space="preserve" x="53.446" y="358.403" fill="black" font-size="12.8453" font-family="Helvetica">0</text>
<text xml:space="preserve" x="111.279" y="358.403" fill="black" font-size="12.8453" font-family="Helvetica">500</text>
<text xml:space="preserve" x="172.371" y="358.403" fill="black" font-size="12.8453" font-family="Helvetica">1000</text>
<text xml:space="preserve" x="237.535" y="358.403" fill="black" font-size="12.8453" font-family="Helvetica">1500</text>
<text xml:space="preserve" x="301.885" y="358.403" fill="black" font-size="12.8453" font-family="Helvetica">2000</text>
<text xml:space="preserve" x="367.049" y="358.403" fill="black" font-size="12.8453" font-family="Helvetica">2500</text>
<text xml:space="preserve" x="431.399" y="358.403" fill="black" font-size="12.8453" font-family="Helvetica">3000</text>
<text xml:space="preserve" x="496.563" y="358.403" fill="black" font-size="12.8453" font-family="Helvetica">3500</text>
<text xml:space="preserve" x="450.133" y="372.251" fill="black" font-size="12.8453" font-family="Helvetica">ADC Value</text>
<path d="M57.1929,346.022v -307.575" fill="none" stroke="black"/>
<path d="M70.7992,346.022h -13.6063" fill="none" stroke="black"/>
<path d="M63.9961,339.79h -6.80315" fill="none" stroke="black"/>
<path d="M63.9961,333.557h -6.80315" fill="none" stroke="black"/>
<path d="M63.9961,327.325h -6.80315" fill="none" stroke="black"/>
<path d="M70.7992,321.092h -13.6063" fill="none" stroke="black"/>
<path d="M63.9961,314.86h -6.80315" fill="none" stroke="black"/>
<path d="M63.9961,308.627h -6.80315" fill="none" stroke="black"/>
<path d="M63.9961,302.395h -6.80315" fill="none" stroke="black"/>
<path d="M70.7992,296.162h -13.6063" fill="none" stroke="black"/>
<path d="M63.9961,289.929h -6.80315" fill="none" stroke="black"/>
<path d="M63.9961,283.697h -6.80315" fill="none" stroke="black"/>
<path d="M63.9961,277.464h -6.80315" fill="none" stroke="black"/>
<path d="M70.7992,271.232h -13.6063" fill="none" stroke="black"/>
<path d="M63.9961,264.999h -6.80315" fill="none" stroke="black"/>
<path d="M63.9961,258.767h -6.80315" fill="none" stroke="black"/>
<path d="M63.9961,252.534h -6.80315" fill="none" stroke="black"/>
<path d="M70.7992,246.302h -13.6063" fill="none" stroke="black"/>
<path d="M63.9961,240.069h -6.80315" fill="none" stroke="black"/>
<path d="M63.9961,233.837h -6.80315" fill="none" stroke="black"/>
<path d="M63.9961,227.604h -6.80315" fill="none" stroke="black"/>
<path d="M70.7992,221.372h -13.6063" fill="none" stroke="black"/>
<path d="M63.9961,215.139h -6.80315" fill="none" stroke="black"/>
<path d="M63.9961,208.907h -6.80315" fill="none" stroke="black"/>
<path d="M63.9961,202.674h -6.80315" fill="none" stroke="black"/>
<path d="M70.7992,196.442h -13.6063" fill="none" stroke="black"/>
<path d="M63.9961,190.209h -6.80315" fill="none" stroke="black"/>
<path d="M63.9961,183.976h -6.80315" fill="none" stroke="black"/>
<path d="M63.9961,177.744h -6.80315" fill="none" stroke="black"/>
<path d="M70.7992,171.511h -13.6063" fill="none" stroke="black"/>
<path d="M63.9961,165.279h -6.80315" fill="none" stroke="black"/>
<path d="M63.9961,159.046h -6.80315" fill="none" stroke="black"/>
<path d="M63.9961,152.814h -6.80315" fill="none" stroke="black"/>
<path d="M70.7992,146.581h -13.6063" fill="none" stroke="black"/>
<path d="M63.9961,140.349h -6.80315" fill="none" stroke="black"/>
<path d="M63.9961,134.116h -6.80315" fill="none" stroke="black"/>
<path d="M63.9961,127.884h -6.80315" fill="none" stroke="black"/>
<path d="M70.7992,121.651h -13.6063" fill="none" stroke="black"/>
<path d="M63.9961,115.419h -6.80315" fill="none" stroke="black"/>
<path d="M63.9961,109.186h -6.80315" fill="none" stroke="black"/>
<path d="M63.9961,102.954h -6.80315" fill="none" stroke="black"/>
<path d="M70.7992,96.7211h -13.6063" fill="none" stroke="black"/>
<path d="M63.9961,90.4885h -6.80315" fill="none" stroke="black"/>
<path d="M63.9961,84.256h -6.80315" fill="none" stroke="black"/>
<path d="M63.9961,78.0235h -6.80315" fill="none" stroke="black"/>
<path d="M70.7992,71.791h -13.6063" fill="none" stroke="black"/>
<path d="M63.9961,65.5584h -6.80315" fill="none" stroke="black"/>
<path d="M63.9961,59.3259h -6.80315" fill="none" stroke="black"/>
<path d="M63.9961,53.0934h -6.80315" fill="none" stroke="black"/>
<path d="M70.7992,46.8608h -13.6063" fill="none" stroke="black"/>
<path d="M70.7992,46.8608h -13.6063" fill="none" stroke="black"/>
<path d="M63.9961,40.6283h -6.80315" fill="none" stroke="black"/>
<text xml:space="preserve" x="47.7441" y="350.258" fill="black" font-size="12.8453" font-family="Helvetica">0</text>
<text xml:space="preserve" x="41.2277" y="325.821" fill="black" font-size="12.8453" font-family="Helvetica">20</text>
<text xml:space="preserve" x="41.2277" y="300.57" fill="black" font-size="12.8453" font-family="Helvetica">40</text>
<text xml:space="preserve" x="41.2277" y="275.319" fill="black" font-size="12.8453" font-family="Helvetica">60</text>
<text xml:space="preserve" x="41.2277" y="250.882" fill="black" font-size="12.8453" font-family="Helvetica">80</text>
<text xml:space="preserve" x="33.8967" y="225.631" fill="black" font-size="12.8453" font-family="Helvetica">100</text>
<text xml:space="preserve" x="33.8967" y="201.195" fill="black" font-size="12.8453" font-family="Helvetica">120</text>
<text xml:space="preserve" x="33.8967" y="175.944" fill="black" font-size="12.8453" font-family="Helvetica">140</text>
<text xml:space="preserve" x="33.8967" y="150.692" fill="black" font-size="12.8453" font-family="Helvetica">160</text>
<text xml:space="preserve" x="33.8967" y="126.256" fill="black" font-size="12.8453" font-family="Helvetica">180</text>
<text xml:space="preserve" x="33.8967" y="101.005" fill="black" font-size="12.8453" font-family="Helvetica">200</text>
<text xml:space="preserve" x="33.8967" y="76.568" fill="black" font-size="12.8453" font-family="Helvetica">220</text>
<text xml:space="preserve" x="33.8967" y="51.3169" fill="black" font-size="12.8453" font-family="Helvetica">240</text>
<g transform="rotate(-90,21.6784,76.568)">
<text xml:space="preserve" x="21.6784" y="76.568" fill="black" font-size="12.8453" font-family="Helvetica">Counts</text>
</g>
<rect x="442.705" y="24.9905" width="113.386" height="61.5151" fill="white"/>
<path d="M442.705,86.5056h 113.386" fill="none" stroke="black"/>
<path d="M556.091,86.5056v -61.5151" fill="none" stroke="black"/>
<path d="M556.091,24.9905h -113.386" fill="none" stroke="black"/>
<path d="M442.705,24.9905v 61.5151" fill="none" stroke="black"/>
<text xml:space="preserve" x="446.875" y="36.6549" fill="black" font-size="11.5725" font-family="Helvetica">B_Na_1800V_30mV</text>
<path d="M442.705,40.3693h 113.386" fill="none" stroke="black"/>
<text xml:space="preserve" x="447.69" y="52.946" fill="black" font-size="12.7186" font-family="Helvetica">Entries </text>
<text xml:space="preserve" x="512.854" y="52.946" fill="black" font-size="12.7186" font-family="Helvetica"> 10000</text>
<text xml:space="preserve" x="447.69" y="67.6079" fill="black" font-size="12.7186" font-family="Helvetica">Mean  </text>
<text xml:space="preserve" x="512.854" y="67.6079" fill="black" font-size="12.7186" font-family="Helvetica">  722.8</text>
<text xml:space="preserve" x="447.69" y="83.0844" fill="black" font-size="12.7186" font-family="Helvetica">Std Dev   </text>
<text xml:space="preserve" x="512.854" y="83.0844" fill="black" font-size="12.7186" font-family="Helvetica">  495.7</text>
<text xml:space="preserve" x="201.695" y="18.7347" fill="black" font-size="18.0316" font-family="Helvetica">B_Na_1800V_30mV</text>
<path d="M160.99,338.951l 0.259168, -1.09209l 0.259168, -1.23331l 0.259168, -1.38815l 0.259168, -1.55718l 0.259168, -1.74089l 0.259168, -1.93967l 0.259168, -2.15374l 0.259168, -2.3832l 0.259168, -2.62796l 0.259168, -2.88773l 0.259168, -3.16198l
 0.259168, -3.44995l 0.259168, -3.75062l 0.259168, -4.0627l 0.259168, -4.38459l 0.259168, -4.71441l 0.259168, -5.04998l 0.259168, -5.3888l 0.259168, -5.72809l 0.259168, -6.06481l 0.259168, -6.39563l 0.259168, -6.71699l 0.259168, -7.02515l 0.259168,
 -7.31619l 0.259168, -7.58607l 0.259168, -7.8307l 0.259168, -8.04598l 0.259168, -8.22786l 0.259168, -8.3724l 0.259168, -8.47585l 0.259168, -8.53474l 0.259168, -8.54588l 0.259168, -8.5065l 0.259168, -8.41427l 0.259168, -8.26736l 0.259168, -8.06453l
 0.259168, -7.80513l 0.259168, -7.48916l 0.259168, -7.11729l 0.259168, -6.69088l 0.259168, -6.21197l 0.259168, -5.68329l 0.259168, -5.10824l 0.259168, -4.49084l 0.259168, -3.8357l 0.259168, -3.14794l 0.259168, -2.43316l 0.259168, -1.69734l 0.259168,
 -0.946761" fill="none" stroke="#ff0000" stroke-width="2"/>
<path d="M173.689,85.2076l 0.259168, -0.187927l 0.259168, 0.572548l 0.259168, 1.32802l 0.259168, 2.07193l 0.259168, 2.79787l 0.259168, 3.49971l 0.259168, 4.17164l 0.259168, 4.80829l 0.259168, 5.4048l 0.259168, 5.95684l 0.259168, 6.46072l 0.259168,
 6.91336l 0.259168, 7.31239l 0.259168, 7.6561l 0.259168, 7.94349l 0.259168, 8.17422l 0.259168, 8.34863l 0.259168, 8.46767l 0.259168, 8.5329l 0.259168, 8.54639l 0.259168, 8.51072l 0.259168, 8.42886l 0.259168, 8.30416l 0.259168, 8.14024l 0.259168,
 7.94096l 0.259168, 7.71032l 0.259168, 7.45239l 0.259168, 7.1713l 0.259168, 6.8711l 0.259168, 6.55578l 0.259168, 6.22918l 0.259168, 5.89494l 0.259168, 5.55652l 0.259168, 5.2171l 0.259168, 4.8796l 0.259168, 4.54665l 0.259168, 4.22058l 0.259168,
 3.90344l 0.259168, 3.59696l 0.259168, 3.30257l 0.259168, 3.02143l 0.259168, 2.75443l 0.259168, 2.50221l 0.259168, 2.26516l 0.259168, 2.04349l 0.259168, 1.83718l 0.259168, 1.64607l 0.259168, 1.46984l 0.259168, 1.30806" fill="none" stroke="#ff0000"
 stroke-width="2"/>
<path d="M186.388,337.268l 0.259168, 1.16019" fill="none" stroke="#ff0000" stroke-width="2"/>
<path d="M329.448,340.5l 0.259168, -0.400744l 0.259168, -0.419543l 0.259168, -0.438266l 0.259168, -0.456815l 0.259168, -0.475085l 0.259168, -0.492964l 0.259168, -0.51034l 0.259168, -0.527092l 0.259168, -0.543098l 0.259168, -0.558235l 0.259168,
 -0.572375l 0.259168, -0.585394l 0.259168, -0.597163l 0.259168, -0.60756l 0.259168, -0.616462l 0.259168, -0.623752l 0.259168, -0.629315l 0.259168, -0.633045l 0.259168, -0.634843l 0.259168, -0.634617l 0.259168, -0.632286l 0.259168, -0.627778l
 0.259168, -0.621035l 0.259168, -0.612009l 0.259168, -0.600667l 0.259168, -0.586991l 0.259168, -0.570974l 0.259168, -0.552629l 0.259168, -0.531982l 0.259168, -0.509074l 0.259168, -0.483963l 0.259168, -0.456724l 0.259168, -0.427446l 0.259168,
 -0.396232l 0.259168, -0.363203l 0.259168, -0.328491l 0.259168, -0.292242l 0.259168, -0.254613l 0.259168, -0.215773l 0.259168, -0.1759l 0.259168, -0.135182l 0.259168, -0.09381l 0.259168, -0.0519839l 0.259168, -0.00990556l 0.259168, 0.0322209l
 0.259168, 0.0741909l 0.259168, 0.115801l 0.259168, 0.156851l 0.259168, 0.197145" fill="none" stroke="#ff0000" stroke-width="2"/>
<path d="M342.148,320.589l 0.259168, 0.236493l 0.259168, 0.274713l 0.259168, 0.311631l 0.259168, 0.347085l 0.259168, 0.380923l 0.259168, 0.413006l 0.259168, 0.443208l 0.259168, 0.471417l 0.259168, 0.497539l 0.259168, 0.52149l 0.259168, 0.543207l
 0.259168, 0.562639l 0.259168, 0.579752l 0.259168, 0.594529l 0.259168, 0.606967l 0.259168, 0.617078l 0.259168, 0.624889l 0.259168, 0.630441l 0.259168, 0.633788l 0.259168, 0.634994l 0.259168, 0.634137l 0.259168, 0.631303l 0.259168, 0.626589l 0.259168,
 0.620097l 0.259168, 0.611939l 0.259168, 0.60223l 0.259168, 0.59109l 0.259168, 0.578643l 0.259168, 0.565014l 0.259168, 0.55033l 0.259168, 0.534717l 0.259168, 0.5183l 0.259168, 0.501203l 0.259168, 0.483546l 0.259168, 0.465445l 0.259168, 0.447014l
 0.259168, 0.42836l 0.259168, 0.409585l 0.259168, 0.390785l 0.259168, 0.37205l 0.259168, 0.353463l 0.259168, 0.335101l 0.259168, 0.317033l 0.259168, 0.299323l 0.259168, 0.282026l 0.259168, 0.265191l 0.259168, 0.248861l 0.259168, 0.233071l 0.259168,
 0.217852" fill="none" stroke="#ff0000" stroke-width="2"/>
<path d="M354.847,343.629l 0.259168, 0.203226" fill="none" stroke="#ff0000" stroke-width="2"/></svg>
