<?xml version="1.0" standalone="no"?>
<svg width="567.429" height="386.304" viewBox="0 0 567.429 386.304" xmlns="http://www.w3.org/2000/svg" shape-rendering="crispEdges">
<title>
img/calibration/B_Na_1800V_30mV.svg
</title>
<desc>
Creator: ROOT Version 6.22/08
CreationDate: Wed Jun  9 12:41:59 2021</desc>
<defs>
</defs>
<rect x="0.5" y="0" width="566.929" height="385.804" fill="white"/>
<rect x="57.1929" y="38.5804" width="453.543" height="308.643" fill="white"/>
<rect x="57.1929" y="38.5804" width="453.543" height="308.643" fill="none" stroke="black"/>
<rect x="57.1929" y="38.5804" width="453.543" height="308.643" fill="white"/>
<rect x="57.1929" y="38.5804" width="453.543" height="308.643" fill="none" stroke="black"/>
<path d="M57.1929,343.471h 0.907087v 3.7525h 0.907087v -2.50167h 0.907087v 2.50167h 0.907087v -1.25083h 0.907087v -1.25083h 1.81417v 1.25083h 0.907087v 1.25083h 0.907087v -1.25083h 1.81417v 1.25083h 0.907087v -1.25083h 0.907087v -1.25083h 0.907087v
 2.50167h 0.907087v -1.25083h 0.907087v -3.7525h 0.907087v -6.25417h 0.907087v -8.75584h 1.81417v -15.01h 0.907087v -5.00334h 0.907087v -8.75584h 0.907087v 2.50167h 0.907087v -17.5117h 0.907087v -8.75584h 2.72126v -5.00334h 0.907087v 12.5083h
 0.907087v -40.0267h 0.907087v 25.0167h 0.907087v -7.50501h 0.907087v -6.25417h 0.907087v -7.50501h 0.907087v -12.5083h 0.907087v 22.515h 0.907087v -2.50167h 0.907087v -16.2608h 0.907087v 8.75584h 0.907087v 3.7525h 0.907087v -15.01h 0.907087v
 17.5117h 0.907087v -13.7592h 0.907087v 3.7525h 0.907087v -41.2775h 0.907087v 35.0234h 0.907087v -28.7692h 0.907087v 11.2575h 0.907087v 13.7592h 0.907087v -36.2742h 0.907087v 55.0367h 0.907087v -36.2742h 0.907087v 7.50501h 0.907087v 11.2575h
 0.907087v 12.5083h 0.907087v -15.01h 0.907087v 2.50167h 0.907087v -11.2575h 0.907087v -6.25417h 0.907087v 17.5117h 0.907087v 8.75584h 0.907087v -1.25083h 0.907087v -6.25417h 0.907087v 2.50167h 0.907087v 1.25083h 0.907087v 7.50501h 0.907087v
 -7.50501h 0.907087v -2.50167h 0.907087v 11.2575h 1.81417v -7.50501h 0.907087v 3.7525h 0.907087v 27.5184h 0.907087v -8.75584h 0.907087v -26.2675h 0.907087v 27.5184h 0.907087v -5.00334h 0.907087v 21.2642h 0.907087v -15.01h 0.907087v -8.75584h
 0.907087v 17.5117h 0.907087v -15.01h 0.907087v 26.2675h 0.907087v 10.0067h 0.907087v 2.50167h 0.907087v -17.5117h 0.907087v 32.5217h 0.907087v -11.2575h 0.907087v 11.2575h 0.907087v -2.50167h 0.907087v 8.75584h 0.907087v -22.515h 0.907087v 11.2575h
 0.907087v 1.25083h 0.907087v 3.7525h 0.907087v 5.00334h 0.907087v 5.00334h 0.907087v -15.01h 0.907087v 10.0067h 0.907087v -3.7525h 0.907087v -3.7525h 0.907087v 21.2642h 0.907087v -7.50501h 0.907087v -2.50167h 0.907087v -1.25083h 0.907087v 5.00334h
 0.907087v -1.25083h 3.62835v 3.7525h 0.907087v 1.25083h 0.907087v -1.25083h 0.907087v -5.00334h 0.907087v -7.50501h 0.907087v 2.50167h 0.907087v -6.25417h 0.907087v -17.5117h 1.81417v -30.02h 0.907087v -6.25417h 0.907087v -23.7659h 0.907087v
 -25.0167h 0.907087v -33.7725h 0.907087v -40.0267h 0.907087v -28.7692h 0.907087v -10.0067h 0.907087v -42.5284h 0.907087v 8.75584h 0.907087v -5.00334h 0.907087v 47.5317h 0.907087v 46.2809h 0.907087v 16.2608h 0.907087v 45.03h 0.907087v 36.2742h
 0.907087v 12.5083h 0.907087v 22.515h 0.907087v 22.515h 0.907087v 18.7625h 0.907087v -2.50167h 0.907087v 12.5083h 0.907087v -2.50167h 0.907087v 8.75584h 0.907087v 1.25083h 0.907087v -6.25417h 0.907087v -3.7525h 0.907087v 11.2575h 0.907087v -2.50167h
 0.907087v -3.7525h 0.907087v 2.50167h 0.907087v 1.25083h 0.907087v -3.7525h 0.907087v 1.25083h 1.81417v -1.25083h 0.907087v 2.50167h 1.81417v -6.25417h 0.907087v 12.5083h 0.907087v -6.25417h 0.907087v -1.25083h 0.907087v 1.25083h 0.907087v -2.50167h
 0.907087v -3.7525h 0.907087v 8.75584h 0.907087v -2.50167h 0.907087v -6.25417h 0.907087v 6.25417h 0.907087v -5.00334h 0.907087v 1.25083h 0.907087v -2.50167h 0.907087v 5.00334h 0.907087v 7.50501h 0.907087v -7.50501h 0.907087v 3.7525h 0.907087v
 -3.7525h 0.907087v -1.25083h 0.907087v -6.25417h 0.907087v 10.0067h 2.72126v 2.50167h 0.907087v -3.7525h 0.907087v 5.00334h 0.907087v -7.50501h 0.907087v -1.25083h 0.907087v 1.25083h 0.907087v 6.25417h 0.907087v -8.75584h 0.907087v 8.75584h
 0.907087v -2.50167h 0.907087v -3.7525h 0.907087v 6.25417h 0.907087v -5.00334h 0.907087v 1.25083h 0.907087v -2.50167h 0.907087v 2.50167h 1.81417v 1.25083h 0.907087v 3.7525h 0.907087v -2.50167h 0.907087v -1.25083h 0.907087v -2.50167h 0.907087v
 5.00334h 0.907087v -1.25083h 0.907087v -3.7525h 0.907087v 1.25083h 0.907087v 3.7525h 0.907087v -5.00334h 0.907087v 1.25083h 0.907087v 2.50167h 0.907087v 2.50167h 0.907087v -5.00334h 0.907087v -3.7525h 0.907087v 6.25417h 0.907087v -1.25083h 0.907087v
 -1.25083h 0.907087v -1.25083h 0.907087v 5.00334h 0.907087v -5.00334h 0.907087v 1.25083h 0.907087v 1.25083h 0.907087v -5.00334h 0.907087v 5.00334h 0.907087v 2.50167h 0.907087v -6.25417h 0.907087v 6.25417h 1.81417v -11.2575h 0.907087v 10.0067h
 1.81417v -2.50167h 0.907087v -2.50167h 0.907087v 3.7525h 0.907087v -2.50167h 0.907087v 2.50167h 0.907087v -1.25083h 0.907087v -1.25083h 0.907087v 1.25083h 0.907087v 2.50167h 0.907087v -2.50167h 0.907087v -2.50167h 0.907087v -1.25083h 1.81417v
 8.75584h 0.907087v -3.7525h 0.907087v -5.00334h 0.907087v 3.7525h 0.907087v -3.7525h 0.907087v 5.00334h 0.907087v 1.25083h 0.907087v -5.00334h 0.907087v 5.00334h 1.81417v -1.25083h 0.907087v -1.25083h 0.907087v -3.7525h 0.907087v 8.75584h 0.907087v
 -3.7525h 0.907087v -3.7525h 0.907087v 3.7525h 0.907087v 2.50167h 1.81417v -6.25417h 0.907087v 8.75584h 0.907087v -1.25083h 0.907087v 2.50167h 0.907087v -6.25417h 1.81417v 2.50167h 0.907087v -1.25083h 0.907087v 1.25083h 0.907087v -2.50167h 0.907087v
 5.00334h 0.907087v -3.7525h 0.907087v 1.25083h 0.907087v 1.25083h 0.907087v -1.25083h 0.907087v 2.50167h 0.907087v -2.50167h 0.907087v 1.25083h 0.907087v -5.00334h 0.907087v 7.50501h 0.907087v -2.50167h 0.907087v 1.25083h 0.907087v -1.25083h
 0.907087v 1.25083h 0.907087v -2.50167h 0.907087v 1.25083h 0.907087v 1.25083h 0.907087v -1.25083h 1.81417v -2.50167h 0.907087v -5.00334h 0.907087v 8.75584h 0.907087v -2.50167h 0.907087v -2.50167h 1.81417v -2.50167h 0.907087v -1.25083h 0.907087v
 2.50167h 0.907087v -6.25417h 0.907087v 1.25083h 0.907087v 3.7525h 0.907087v -10.0067h 0.907087v 3.7525h 0.907087v -5.00334h 0.907087v -1.25083h 0.907087v -3.7525h 1.81417v -1.25083h 0.907087v -1.25083h 0.907087v 3.7525h 0.907087v -3.7525h 0.907087v
 8.75584h 0.907087v -5.00334h 0.907087v 3.7525h 0.907087v -1.25083h 0.907087v 1.25083h 0.907087v -1.25083h 0.907087v 11.2575h 0.907087v -1.25083h 0.907087v 3.7525h 0.907087v -3.7525h 0.907087v 7.50501h 0.907087v 1.25083h 0.907087v -1.25083h 0.907087v
 2.50167h 0.907087v -3.7525h 0.907087v 5.00334h 0.907087v -1.25083h 0.907087v 1.25083h 0.907087v -2.50167h 0.907087v 1.25083h 0.907087v 1.25083h 0.907087v -1.25083h 1.81417v 1.25083h 0.907087v -2.50167h 1.81417v 2.50167h 3.62835v -2.50167h 0.907087v
 1.25083h 3.62835v 1.25083h 1.81417v -2.50167h 0.907087v -2.50167h 0.907087v 5.00334h 0.907087v -2.50167h 0.907087v 2.50167h 0.907087v -1.25083h 1.81417v 1.25083h 0.907087v -1.25083h 1.81417v 1.25083h 0.907087v -2.50167h 0.907087v 2.50167h 2.72126v
 -1.25083h 3.62835v 1.25083h 1.81417v -2.50167h 0.907087v 1.25083h 0.907087v -1.25083h 0.907087v 2.50167h 1.81417v -1.25083h 0.907087v 1.25083h 0.907087v -1.25083h 2.72126v 1.25083h 1.81417v -3.7525h 0.907087v 1.25083h 0.907087v 2.50167h 2.72126v
 -1.25083h 0.907087v 1.25083h 0.907087v -2.50167h 0.907087v 1.25083h 0.907087v 1.25083h 4.53543v -1.25083h 0.907087v 1.25083h 3.62835v -1.25083h 0.907087v 1.25083h 0.907087v -1.25083h 1.81417v 1.25083h 0.907087v -1.25083h 0.907087v 1.25083h 4.53543v
 -1.25083h 0.907087v 1.25083h 9.07087v -1.25083h 0.907087v 1.25083h 1.81417v -1.25083h 0.907087v 1.25083h 0.907087v -1.25083h 0.907087v 1.25083h 0.907087v -2.50167h 0.907087v 2.50167h 1.81417v -1.25083h 0.907087v 1.25083h 4.53543v -1.25083h 1.81417v
 1.25083h 0.907087v -1.25083h 1.81417v 1.25083h 8.16378v -1.25083h 0.907087v 1.25083h 4.53543v -1.25083h 0.907087v 1.25083h 1.81417v -1.25083h 0.907087v 1.25083h 22.6772v -1.25083h 0.907087v 1.25083h 7.25669" fill="none" stroke="#000099"/>
<rect x="442.705" y="25.0773" width="113.386" height="61.7287" fill="white"/>
<path d="M442.705,86.8059h 113.386" fill="none" stroke="black"/>
<path d="M556.091,86.8059v -61.7287" fill="none" stroke="black"/>
<path d="M556.091,25.0773h -113.386" fill="none" stroke="black"/>
<path d="M442.705,25.0773v 61.7287" fill="none" stroke="black"/>
<text xml:space="preserve" x="447.221" y="36.5499" fill="black" font-size="11.7102" font-family="Helvetica">B_Na_1800V_30mV</text>
<path d="M442.705,40.5094h 113.386" fill="none" stroke="black"/>
<text xml:space="preserve" x="448.033" y="52.7943" fill="black" font-size="13.1417" font-family="Helvetica">Entries </text>
<text xml:space="preserve" x="510.574" y="52.7943" fill="black" font-size="13.1417" font-family="Helvetica"> 10000</text>
<text xml:space="preserve" x="448.033" y="68.2264" fill="black" font-size="13.1417" font-family="Helvetica">Mean  </text>
<text xml:space="preserve" x="510.574" y="68.2264" fill="black" font-size="13.1417" font-family="Helvetica">  722.8</text>
<text xml:space="preserve" x="448.033" y="84.4708" fill="black" font-size="13.1417" font-family="Helvetica">Std Dev   </text>
<text xml:space="preserve" x="510.574" y="83.6586" fill="black" font-size="13.1417" font-family="Helvetica">  495.7</text>
<path d="M160.99,340.128l 0.259168, -1.09588l 0.259168, -1.2376l 0.259168, -1.39297l 0.259168, -1.56259l 0.259168, -1.74694l 0.259168, -1.9464l 0.259168, -2.16122l 0.259168, -2.39148l 0.259168, -2.63709l 0.259168, -2.89776l 0.259168, -3.17296l
 0.259168, -3.46193l 0.259168, -3.76365l 0.259168, -4.07681l 0.259168, -4.39982l 0.259168, -4.73078l 0.259168, -5.06751l 0.259168, -5.40751l 0.259168, -5.74798l 0.259168, -6.08587l 0.259168, -6.41784l 0.259168, -6.74032l 0.259168, -7.04954l 0.259168,
 -7.34159l 0.259168, -7.61241l 0.259168, -7.85789l 0.259168, -8.07392l 0.259168, -8.25643l 0.259168, -8.40147l 0.259168, -8.50529l 0.259168, -8.56438l 0.259168, -8.57556l 0.259168, -8.53604l 0.259168, -8.44349l 0.259168, -8.29607l 0.259168, -8.09254l
 0.259168, -7.83224l 0.259168, -7.51517l 0.259168, -7.142l 0.259168, -6.71411l 0.259168, -6.23354l 0.259168, -5.70302l 0.259168, -5.12598l 0.259168, -4.50644l 0.259168, -3.84902l 0.259168, -3.15887l 0.259168, -2.4416l 0.259168, -1.70323l 0.259168,
 -0.950049" fill="none" stroke="#ff0000" stroke-width="2"/>
<path d="M173.689,85.5035l 0.259168, -0.18858l 0.259168, 0.574536l 0.259168, 1.33264l 0.259168, 2.07913l 0.259168, 2.80759l 0.259168, 3.51186l 0.259168, 4.18612l 0.259168, 4.82499l 0.259168, 5.42357l 0.259168, 5.97753l 0.259168, 6.48315l 0.259168,
 6.93737l 0.259168, 7.33778l 0.259168, 7.68269l 0.259168, 7.97107l 0.259168, 8.2026l 0.259168, 8.37762l 0.259168, 8.49708l 0.259168, 8.56253l 0.259168, 8.57607l 0.259168, 8.54027l 0.259168, 8.45813l 0.259168, 8.33299l 0.259168, 8.16851l 0.259168,
 7.96854l 0.259168, 7.73709l 0.259168, 7.47827l 0.259168, 7.1962l 0.259168, 6.89496l 0.259168, 6.57854l 0.259168, 6.25081l 0.259168, 5.91541l 0.259168, 5.57582l 0.259168, 5.23522l 0.259168, 4.89654l 0.259168, 4.56244l 0.259168, 4.23524l 0.259168,
 3.917l 0.259168, 3.60945l 0.259168, 3.31403l 0.259168, 3.03192l 0.259168, 2.76399l 0.259168, 2.5109l 0.259168, 2.27303l 0.259168, 2.05058l 0.259168, 1.84356l 0.259168, 1.65178l 0.259168, 1.47494l 0.259168, 1.3126" fill="none" stroke="#ff0000"
 stroke-width="2"/>
<path d="M186.388,338.44l 0.259168, 1.16422" fill="none" stroke="#ff0000" stroke-width="2"/>
<path d="M329.448,341.683l 0.259168, -0.402136l 0.259168, -0.421l 0.259168, -0.439788l 0.259168, -0.458401l 0.259168, -0.476734l 0.259168, -0.494676l 0.259168, -0.512112l 0.259168, -0.528922l 0.259168, -0.544984l 0.259168, -0.560173l 0.259168,
 -0.574363l 0.259168, -0.587426l 0.259168, -0.599237l 0.259168, -0.60967l 0.259168, -0.618603l 0.259168, -0.625918l 0.259168, -0.6315l 0.259168, -0.635243l 0.259168, -0.637047l 0.259168, -0.636821l 0.259168, -0.634481l 0.259168, -0.629958l 0.259168,
 -0.623191l 0.259168, -0.614134l 0.259168, -0.602753l 0.259168, -0.589029l 0.259168, -0.572957l 0.259168, -0.554548l 0.259168, -0.533829l 0.259168, -0.510841l 0.259168, -0.485644l 0.259168, -0.45831l 0.259168, -0.42893l 0.259168, -0.397608l 0.259168,
 -0.364464l 0.259168, -0.329632l 0.259168, -0.293256l 0.259168, -0.255497l 0.259168, -0.216522l 0.259168, -0.176511l 0.259168, -0.135651l 0.259168, -0.0941357l 0.259168, -0.0521644l 0.259168, -0.00993996l 0.259168, 0.0323328l 0.259168, 0.0744486l
 0.259168, 0.116203l 0.259168, 0.157396l 0.259168, 0.19783" fill="none" stroke="#ff0000" stroke-width="2"/>
<path d="M342.148,321.702l 0.259168, 0.237314l 0.259168, 0.275667l 0.259168, 0.312714l 0.259168, 0.348291l 0.259168, 0.382246l 0.259168, 0.41444l 0.259168, 0.444747l 0.259168, 0.473054l 0.259168, 0.499266l 0.259168, 0.523301l 0.259168, 0.545093l
 0.259168, 0.564592l 0.259168, 0.581765l 0.259168, 0.596593l 0.259168, 0.609075l 0.259168, 0.619221l 0.259168, 0.627059l 0.259168, 0.632631l 0.259168, 0.635989l 0.259168, 0.637199l 0.259168, 0.636339l 0.259168, 0.633495l 0.259168, 0.628765l 0.259168,
 0.62225l 0.259168, 0.614064l 0.259168, 0.604321l 0.259168, 0.593143l 0.259168, 0.580652l 0.259168, 0.566976l 0.259168, 0.552241l 0.259168, 0.536574l 0.259168, 0.5201l 0.259168, 0.502943l 0.259168, 0.485225l 0.259168, 0.467062l 0.259168, 0.448567l
 0.259168, 0.429848l 0.259168, 0.411007l 0.259168, 0.392142l 0.259168, 0.373342l 0.259168, 0.35469l 0.259168, 0.336264l 0.259168, 0.318134l 0.259168, 0.300362l 0.259168, 0.283005l 0.259168, 0.266112l 0.259168, 0.249725l 0.259168, 0.23388l 0.259168,
 0.218608" fill="none" stroke="#ff0000" stroke-width="2"/>
<path d="M354.847,344.822l 0.259168, 0.203931" fill="none" stroke="#ff0000" stroke-width="2"/>
<path d="M57.1929,347.224h 453.543" fill="none" stroke="black"/>
<path d="M57.1929,337.964v 9.2593" fill="none" stroke="black"/>
<path d="M70.1513,342.594v 4.62965" fill="none" stroke="black"/>
<path d="M83.1097,342.594v 4.62965" fill="none" stroke="black"/>
<path d="M96.0681,342.594v 4.62965" fill="none" stroke="black"/>
<path d="M109.026,342.594v 4.62965" fill="none" stroke="black"/>
<path d="M121.985,337.964v 9.2593" fill="none" stroke="black"/>
<path d="M134.943,342.594v 4.62965" fill="none" stroke="black"/>
<path d="M147.902,342.594v 4.62965" fill="none" stroke="black"/>
<path d="M160.86,342.594v 4.62965" fill="none" stroke="black"/>
<path d="M173.818,342.594v 4.62965" fill="none" stroke="black"/>
<path d="M186.777,337.964v 9.2593" fill="none" stroke="black"/>
<path d="M199.735,342.594v 4.62965" fill="none" stroke="black"/>
<path d="M212.693,342.594v 4.62965" fill="none" stroke="black"/>
<path d="M225.652,342.594v 4.62965" fill="none" stroke="black"/>
<path d="M238.61,342.594v 4.62965" fill="none" stroke="black"/>
<path d="M251.569,337.964v 9.2593" fill="none" stroke="black"/>
<path d="M264.527,342.594v 4.62965" fill="none" stroke="black"/>
<path d="M277.485,342.594v 4.62965" fill="none" stroke="black"/>
<path d="M290.444,342.594v 4.62965" fill="none" stroke="black"/>
<path d="M303.402,342.594v 4.62965" fill="none" stroke="black"/>
<path d="M316.361,337.964v 9.2593" fill="none" stroke="black"/>
<path d="M329.319,342.594v 4.62965" fill="none" stroke="black"/>
<path d="M342.277,342.594v 4.62965" fill="none" stroke="black"/>
<path d="M355.236,342.594v 4.62965" fill="none" stroke="black"/>
<path d="M368.194,342.594v 4.62965" fill="none" stroke="black"/>
<path d="M381.152,337.964v 9.2593" fill="none" stroke="black"/>
<path d="M394.111,342.594v 4.62965" fill="none" stroke="black"/>
<path d="M407.069,342.594v 4.62965" fill="none" stroke="black"/>
<path d="M420.028,342.594v 4.62965" fill="none" stroke="black"/>
<path d="M432.986,342.594v 4.62965" fill="none" stroke="black"/>
<path d="M445.944,337.964v 9.2593" fill="none" stroke="black"/>
<path d="M458.903,342.594v 4.62965" fill="none" stroke="black"/>
<path d="M471.861,342.594v 4.62965" fill="none" stroke="black"/>
<path d="M484.819,342.594v 4.62965" fill="none" stroke="black"/>
<path d="M497.778,342.594v 4.62965" fill="none" stroke="black"/>
<path d="M510.736,337.964v 9.2593" fill="none" stroke="black"/>
<text xml:space="preserve" x="52.482" y="359.813" fill="black" font-size="12.8882" font-family="Helvetica">0</text>
<text xml:space="preserve" x="110.15" y="359.813" fill="black" font-size="12.8882" font-family="Helvetica">500</text>
<text xml:space="preserve" x="171.878" y="359.813" fill="black" font-size="12.8882" font-family="Helvetica">1000</text>
<text xml:space="preserve" x="236.856" y="359.813" fill="black" font-size="12.8882" font-family="Helvetica">1500</text>
<text xml:space="preserve" x="301.021" y="359.813" fill="black" font-size="12.8882" font-family="Helvetica">2000</text>
<text xml:space="preserve" x="365.999" y="359.813" fill="black" font-size="12.8882" font-family="Helvetica">2500</text>
<text xml:space="preserve" x="430.976" y="359.813" fill="black" font-size="12.8882" font-family="Helvetica">3000</text>
<text xml:space="preserve" x="495.954" y="359.813" fill="black" font-size="12.8882" font-family="Helvetica">3500</text>
<text xml:space="preserve" x="446.408" y="374.433" fill="black" font-size="12.8882" font-family="Helvetica">ADC Value</text>
<path d="M57.1929,347.224v -308.643" fill="none" stroke="black"/>
<path d="M70.7992,347.224h -13.6063" fill="none" stroke="black"/>
<path d="M63.9961,340.97h -6.80315" fill="none" stroke="black"/>
<path d="M63.9961,334.715h -6.80315" fill="none" stroke="black"/>
<path d="M63.9961,328.461h -6.80315" fill="none" stroke="black"/>
<path d="M70.7992,322.207h -13.6063" fill="none" stroke="black"/>
<path d="M63.9961,315.953h -6.80315" fill="none" stroke="black"/>
<path d="M63.9961,309.699h -6.80315" fill="none" stroke="black"/>
<path d="M63.9961,303.445h -6.80315" fill="none" stroke="black"/>
<path d="M70.7992,297.19h -13.6063" fill="none" stroke="black"/>
<path d="M63.9961,290.936h -6.80315" fill="none" stroke="black"/>
<path d="M63.9961,284.682h -6.80315" fill="none" stroke="black"/>
<path d="M63.9961,278.428h -6.80315" fill="none" stroke="black"/>
<path d="M70.7992,272.174h -13.6063" fill="none" stroke="black"/>
<path d="M63.9961,265.92h -6.80315" fill="none" stroke="black"/>
<path d="M63.9961,259.665h -6.80315" fill="none" stroke="black"/>
<path d="M63.9961,253.411h -6.80315" fill="none" stroke="black"/>
<path d="M70.7992,247.157h -13.6063" fill="none" stroke="black"/>
<path d="M63.9961,240.903h -6.80315" fill="none" stroke="black"/>
<path d="M63.9961,234.649h -6.80315" fill="none" stroke="black"/>
<path d="M63.9961,228.395h -6.80315" fill="none" stroke="black"/>
<path d="M70.7992,222.14h -13.6063" fill="none" stroke="black"/>
<path d="M63.9961,215.886h -6.80315" fill="none" stroke="black"/>
<path d="M63.9961,209.632h -6.80315" fill="none" stroke="black"/>
<path d="M63.9961,203.378h -6.80315" fill="none" stroke="black"/>
<path d="M70.7992,197.124h -13.6063" fill="none" stroke="black"/>
<path d="M63.9961,190.87h -6.80315" fill="none" stroke="black"/>
<path d="M63.9961,184.615h -6.80315" fill="none" stroke="black"/>
<path d="M63.9961,178.361h -6.80315" fill="none" stroke="black"/>
<path d="M70.7992,172.107h -13.6063" fill="none" stroke="black"/>
<path d="M63.9961,165.853h -6.80315" fill="none" stroke="black"/>
<path d="M63.9961,159.599h -6.80315" fill="none" stroke="black"/>
<path d="M63.9961,153.344h -6.80315" fill="none" stroke="black"/>
<path d="M70.7992,147.09h -13.6063" fill="none" stroke="black"/>
<path d="M63.9961,140.836h -6.80315" fill="none" stroke="black"/>
<path d="M63.9961,134.582h -6.80315" fill="none" stroke="black"/>
<path d="M63.9961,128.328h -6.80315" fill="none" stroke="black"/>
<path d="M70.7992,122.074h -13.6063" fill="none" stroke="black"/>
<path d="M63.9961,115.819h -6.80315" fill="none" stroke="black"/>
<path d="M63.9961,109.565h -6.80315" fill="none" stroke="black"/>
<path d="M63.9961,103.311h -6.80315" fill="none" stroke="black"/>
<path d="M70.7992,97.0569h -13.6063" fill="none" stroke="black"/>
<path d="M63.9961,90.8028h -6.80315" fill="none" stroke="black"/>
<path d="M63.9961,84.5486h -6.80315" fill="none" stroke="black"/>
<path d="M63.9961,78.2944h -6.80315" fill="none" stroke="black"/>
<path d="M70.7992,72.0402h -13.6063" fill="none" stroke="black"/>
<path d="M63.9961,65.7861h -6.80315" fill="none" stroke="black"/>
<path d="M63.9961,59.5319h -6.80315" fill="none" stroke="black"/>
<path d="M63.9961,53.2777h -6.80315" fill="none" stroke="black"/>
<path d="M70.7992,47.0236h -13.6063" fill="none" stroke="black"/>
<path d="M70.7992,47.0236h -13.6063" fill="none" stroke="black"/>
<path d="M63.9961,40.7694h -6.80315" fill="none" stroke="black"/>
<text xml:space="preserve" x="46.7965" y="351.691" fill="black" font-size="12.8882" font-family="Helvetica">0</text>
<text xml:space="preserve" x="39.4865" y="326.512" fill="black" font-size="12.8882" font-family="Helvetica">20</text>
<text xml:space="preserve" x="39.4865" y="301.333" fill="black" font-size="12.8882" font-family="Helvetica">40</text>
<text xml:space="preserve" x="39.4865" y="276.967" fill="black" font-size="12.8882" font-family="Helvetica">60</text>
<text xml:space="preserve" x="39.4865" y="251.788" fill="black" font-size="12.8882" font-family="Helvetica">80</text>
<text xml:space="preserve" x="32.1766" y="226.609" fill="black" font-size="12.8882" font-family="Helvetica">100</text>
<text xml:space="preserve" x="32.1766" y="201.43" fill="black" font-size="12.8882" font-family="Helvetica">120</text>
<text xml:space="preserve" x="32.1766" y="176.252" fill="black" font-size="12.8882" font-family="Helvetica">140</text>
<text xml:space="preserve" x="32.1766" y="151.885" fill="black" font-size="12.8882" font-family="Helvetica">160</text>
<text xml:space="preserve" x="32.1766" y="126.706" fill="black" font-size="12.8882" font-family="Helvetica">180</text>
<text xml:space="preserve" x="32.1766" y="101.527" fill="black" font-size="12.8882" font-family="Helvetica">200</text>
<text xml:space="preserve" x="32.1766" y="76.3486" fill="black" font-size="12.8882" font-family="Helvetica">220</text>
<text xml:space="preserve" x="32.1766" y="51.1698" fill="black" font-size="12.8882" font-family="Helvetica">240</text>
<g transform="rotate(-90,21.6177,79.5975)">
<text xml:space="preserve" x="21.6177" y="79.5975" fill="black" font-size="12.8882" font-family="Helvetica">Counts</text>
</g>
<rect x="442.705" y="25.0773" width="113.386" height="61.7287" fill="white"/>
<path d="M442.705,86.8059h 113.386" fill="none" stroke="black"/>
<path d="M556.091,86.8059v -61.7287" fill="none" stroke="black"/>
<path d="M556.091,25.0773h -113.386" fill="none" stroke="black"/>
<path d="M442.705,25.0773v 61.7287" fill="none" stroke="black"/>
<text xml:space="preserve" x="447.221" y="36.5499" fill="black" font-size="11.7102" font-family="Helvetica">B_Na_1800V_30mV</text>
<path d="M442.705,40.5094h 113.386" fill="none" stroke="black"/>
<text xml:space="preserve" x="448.033" y="52.7943" fill="black" font-size="13.1417" font-family="Helvetica">Entries </text>
<text xml:space="preserve" x="510.574" y="52.7943" fill="black" font-size="13.1417" font-family="Helvetica"> 10000</text>
<text xml:space="preserve" x="448.033" y="68.2264" fill="black" font-size="13.1417" font-family="Helvetica">Mean  </text>
<text xml:space="preserve" x="510.574" y="68.2264" fill="black" font-size="13.1417" font-family="Helvetica">  722.8</text>
<text xml:space="preserve" x="448.033" y="84.4708" fill="black" font-size="13.1417" font-family="Helvetica">Std Dev   </text>
<text xml:space="preserve" x="510.574" y="83.6586" fill="black" font-size="13.1417" font-family="Helvetica">  495.7</text>
<text xml:space="preserve" x="205.992" y="17.8688" fill="black" font-size="17.0471" font-family="Helvetica">B_Na_1800V_30mV</text>
<path d="M160.99,340.128l 0.259168, -1.09588l 0.259168, -1.2376l 0.259168, -1.39297l 0.259168, -1.56259l 0.259168, -1.74694l 0.259168, -1.9464l 0.259168, -2.16122l 0.259168, -2.39148l 0.259168, -2.63709l 0.259168, -2.89776l 0.259168, -3.17296l
 0.259168, -3.46193l 0.259168, -3.76365l 0.259168, -4.07681l 0.259168, -4.39982l 0.259168, -4.73078l 0.259168, -5.06751l 0.259168, -5.40751l 0.259168, -5.74798l 0.259168, -6.08587l 0.259168, -6.41784l 0.259168, -6.74032l 0.259168, -7.04954l 0.259168,
 -7.34159l 0.259168, -7.61241l 0.259168, -7.85789l 0.259168, -8.07392l 0.259168, -8.25643l 0.259168, -8.40147l 0.259168, -8.50529l 0.259168, -8.56438l 0.259168, -8.57556l 0.259168, -8.53604l 0.259168, -8.44349l 0.259168, -8.29607l 0.259168, -8.09254l
 0.259168, -7.83224l 0.259168, -7.51517l 0.259168, -7.142l 0.259168, -6.71411l 0.259168, -6.23354l 0.259168, -5.70302l 0.259168, -5.12598l 0.259168, -4.50644l 0.259168, -3.84902l 0.259168, -3.15887l 0.259168, -2.4416l 0.259168, -1.70323l 0.259168,
 -0.950049" fill="none" stroke="#ff0000" stroke-width="2"/>
<path d="M173.689,85.5035l 0.259168, -0.18858l 0.259168, 0.574536l 0.259168, 1.33264l 0.259168, 2.07913l 0.259168, 2.80759l 0.259168, 3.51186l 0.259168, 4.18612l 0.259168, 4.82499l 0.259168, 5.42357l 0.259168, 5.97753l 0.259168, 6.48315l 0.259168,
 6.93737l 0.259168, 7.33778l 0.259168, 7.68269l 0.259168, 7.97107l 0.259168, 8.2026l 0.259168, 8.37762l 0.259168, 8.49708l 0.259168, 8.56253l 0.259168, 8.57607l 0.259168, 8.54027l 0.259168, 8.45813l 0.259168, 8.33299l 0.259168, 8.16851l 0.259168,
 7.96854l 0.259168, 7.73709l 0.259168, 7.47827l 0.259168, 7.1962l 0.259168, 6.89496l 0.259168, 6.57854l 0.259168, 6.25081l 0.259168, 5.91541l 0.259168, 5.57582l 0.259168, 5.23522l 0.259168, 4.89654l 0.259168, 4.56244l 0.259168, 4.23524l 0.259168,
 3.917l 0.259168, 3.60945l 0.259168, 3.31403l 0.259168, 3.03192l 0.259168, 2.76399l 0.259168, 2.5109l 0.259168, 2.27303l 0.259168, 2.05058l 0.259168, 1.84356l 0.259168, 1.65178l 0.259168, 1.47494l 0.259168, 1.3126" fill="none" stroke="#ff0000"
 stroke-width="2"/>
<path d="M186.388,338.44l 0.259168, 1.16422" fill="none" stroke="#ff0000" stroke-width="2"/>
<path d="M329.448,341.683l 0.259168, -0.402136l 0.259168, -0.421l 0.259168, -0.439788l 0.259168, -0.458401l 0.259168, -0.476734l 0.259168, -0.494676l 0.259168, -0.512112l 0.259168, -0.528922l 0.259168, -0.544984l 0.259168, -0.560173l 0.259168,
 -0.574363l 0.259168, -0.587426l 0.259168, -0.599237l 0.259168, -0.60967l 0.259168, -0.618603l 0.259168, -0.625918l 0.259168, -0.6315l 0.259168, -0.635243l 0.259168, -0.637047l 0.259168, -0.636821l 0.259168, -0.634481l 0.259168, -0.629958l 0.259168,
 -0.623191l 0.259168, -0.614134l 0.259168, -0.602753l 0.259168, -0.589029l 0.259168, -0.572957l 0.259168, -0.554548l 0.259168, -0.533829l 0.259168, -0.510841l 0.259168, -0.485644l 0.259168, -0.45831l 0.259168, -0.42893l 0.259168, -0.397608l 0.259168,
 -0.364464l 0.259168, -0.329632l 0.259168, -0.293256l 0.259168, -0.255497l 0.259168, -0.216522l 0.259168, -0.176511l 0.259168, -0.135651l 0.259168, -0.0941357l 0.259168, -0.0521644l 0.259168, -0.00993996l 0.259168, 0.0323328l 0.259168, 0.0744486l
 0.259168, 0.116203l 0.259168, 0.157396l 0.259168, 0.19783" fill="none" stroke="#ff0000" stroke-width="2"/>
<path d="M342.148,321.702l 0.259168, 0.237314l 0.259168, 0.275667l 0.259168, 0.312714l 0.259168, 0.348291l 0.259168, 0.382246l 0.259168, 0.41444l 0.259168, 0.444747l 0.259168, 0.473054l 0.259168, 0.499266l 0.259168, 0.523301l 0.259168, 0.545093l
 0.259168, 0.564592l 0.259168, 0.581765l 0.259168, 0.596593l 0.259168, 0.609075l 0.259168, 0.619221l 0.259168, 0.627059l 0.259168, 0.632631l 0.259168, 0.635989l 0.259168, 0.637199l 0.259168, 0.636339l 0.259168, 0.633495l 0.259168, 0.628765l 0.259168,
 0.62225l 0.259168, 0.614064l 0.259168, 0.604321l 0.259168, 0.593143l 0.259168, 0.580652l 0.259168, 0.566976l 0.259168, 0.552241l 0.259168, 0.536574l 0.259168, 0.5201l 0.259168, 0.502943l 0.259168, 0.485225l 0.259168, 0.467062l 0.259168, 0.448567l
 0.259168, 0.429848l 0.259168, 0.411007l 0.259168, 0.392142l 0.259168, 0.373342l 0.259168, 0.35469l 0.259168, 0.336264l 0.259168, 0.318134l 0.259168, 0.300362l 0.259168, 0.283005l 0.259168, 0.266112l 0.259168, 0.249725l 0.259168, 0.23388l 0.259168,
 0.218608" fill="none" stroke="#ff0000" stroke-width="2"/>
<path d="M354.847,344.822l 0.259168, 0.203931" fill="none" stroke="#ff0000" stroke-width="2"/></svg>
