<?xml version="1.0" standalone="no"?>
<svg width="567.429" height="386.304" viewBox="0 0 567.429 386.304" xmlns="http://www.w3.org/2000/svg" shape-rendering="crispEdges">
<title>
img/calibration/B_prop.svg
</title>
<desc>
Creator: ROOT Version 6.22/08
CreationDate: Tue Jun  8 01:39:35 2021</desc>
<defs>
</defs>
<rect x="0.5" y="0" width="566.929" height="385.804" fill="white"/>
<rect x="57.1929" y="38.5804" width="453.543" height="308.643" fill="white"/>
<rect x="57.1929" y="38.5804" width="453.543" height="308.643" fill="none" stroke="black"/>
<rect x="57.1929" y="38.5804" width="453.543" height="308.643" fill="white"/>
<rect x="57.1929" y="38.5804" width="453.543" height="308.643" fill="none" stroke="black"/>
<path d="M57.1929,347.224h 453.543" fill="none" stroke="black"/>
<path d="M57.1929,337.964v 9.2593" fill="none" stroke="black"/>
<path d="M72.311,342.594v 4.62965" fill="none" stroke="black"/>
<path d="M87.4291,342.594v 4.62965" fill="none" stroke="black"/>
<path d="M102.547,342.594v 4.62965" fill="none" stroke="black"/>
<path d="M117.665,337.964v 9.2593" fill="none" stroke="black"/>
<path d="M132.783,342.594v 4.62965" fill="none" stroke="black"/>
<path d="M147.902,342.594v 4.62965" fill="none" stroke="black"/>
<path d="M163.02,342.594v 4.62965" fill="none" stroke="black"/>
<path d="M178.138,337.964v 9.2593" fill="none" stroke="black"/>
<path d="M193.256,342.594v 4.62965" fill="none" stroke="black"/>
<path d="M208.374,342.594v 4.62965" fill="none" stroke="black"/>
<path d="M223.492,342.594v 4.62965" fill="none" stroke="black"/>
<path d="M238.61,337.964v 9.2593" fill="none" stroke="black"/>
<path d="M253.728,342.594v 4.62965" fill="none" stroke="black"/>
<path d="M268.846,342.594v 4.62965" fill="none" stroke="black"/>
<path d="M283.965,342.594v 4.62965" fill="none" stroke="black"/>
<path d="M299.083,337.964v 9.2593" fill="none" stroke="black"/>
<path d="M314.201,342.594v 4.62965" fill="none" stroke="black"/>
<path d="M329.319,342.594v 4.62965" fill="none" stroke="black"/>
<path d="M344.437,342.594v 4.62965" fill="none" stroke="black"/>
<path d="M359.555,337.964v 9.2593" fill="none" stroke="black"/>
<path d="M374.673,342.594v 4.62965" fill="none" stroke="black"/>
<path d="M389.791,342.594v 4.62965" fill="none" stroke="black"/>
<path d="M404.909,342.594v 4.62965" fill="none" stroke="black"/>
<path d="M420.028,337.964v 9.2593" fill="none" stroke="black"/>
<path d="M435.146,342.594v 4.62965" fill="none" stroke="black"/>
<path d="M450.264,342.594v 4.62965" fill="none" stroke="black"/>
<path d="M465.382,342.594v 4.62965" fill="none" stroke="black"/>
<path d="M480.5,337.964v 9.2593" fill="none" stroke="black"/>
<path d="M480.5,337.964v 9.2593" fill="none" stroke="black"/>
<path d="M495.618,342.594v 4.62965" fill="none" stroke="black"/>
<path d="M510.736,342.594v 4.62965" fill="none" stroke="black"/>
<text xml:space="preserve" x="52.482" y="359.813" fill="black" font-size="12.8882" font-family="Helvetica">0</text>
<text xml:space="preserve" x="106.089" y="359.813" fill="black" font-size="12.8882" font-family="Helvetica">200</text>
<text xml:space="preserve" x="166.193" y="359.813" fill="black" font-size="12.8882" font-family="Helvetica">400</text>
<text xml:space="preserve" x="227.109" y="359.813" fill="black" font-size="12.8882" font-family="Helvetica">600</text>
<text xml:space="preserve" x="287.213" y="359.813" fill="black" font-size="12.8882" font-family="Helvetica">800</text>
<text xml:space="preserve" x="344.881" y="359.813" fill="black" font-size="12.8882" font-family="Helvetica">1000</text>
<text xml:space="preserve" x="404.985" y="359.813" fill="black" font-size="12.8882" font-family="Helvetica">1200</text>
<text xml:space="preserve" x="465.089" y="359.813" fill="black" font-size="12.8882" font-family="Helvetica">1400</text>
<text xml:space="preserve" x="436.662" y="372.809" fill="black" font-size="12.8882" font-family="Helvetica"> Energy[keV]</text>
<path d="M57.1929,347.224v -308.643" fill="none" stroke="black"/>
<path d="M70.7992,347.224h -13.6063" fill="none" stroke="black"/>
<path d="M63.9961,336.936h -6.80315" fill="none" stroke="black"/>
<path d="M63.9961,326.648h -6.80315" fill="none" stroke="black"/>
<path d="M63.9961,316.359h -6.80315" fill="none" stroke="black"/>
<path d="M63.9961,306.071h -6.80315" fill="none" stroke="black"/>
<path d="M70.7992,295.783h -13.6063" fill="none" stroke="black"/>
<path d="M63.9961,285.495h -6.80315" fill="none" stroke="black"/>
<path d="M63.9961,275.207h -6.80315" fill="none" stroke="black"/>
<path d="M63.9961,264.919h -6.80315" fill="none" stroke="black"/>
<path d="M63.9961,254.631h -6.80315" fill="none" stroke="black"/>
<path d="M70.7992,244.343h -13.6063" fill="none" stroke="black"/>
<path d="M63.9961,234.055h -6.80315" fill="none" stroke="black"/>
<path d="M63.9961,223.766h -6.80315" fill="none" stroke="black"/>
<path d="M63.9961,213.478h -6.80315" fill="none" stroke="black"/>
<path d="M63.9961,203.19h -6.80315" fill="none" stroke="black"/>
<path d="M70.7992,192.902h -13.6063" fill="none" stroke="black"/>
<path d="M63.9961,182.614h -6.80315" fill="none" stroke="black"/>
<path d="M63.9961,172.326h -6.80315" fill="none" stroke="black"/>
<path d="M63.9961,162.038h -6.80315" fill="none" stroke="black"/>
<path d="M63.9961,151.75h -6.80315" fill="none" stroke="black"/>
<path d="M70.7992,141.462h -13.6063" fill="none" stroke="black"/>
<path d="M63.9961,131.173h -6.80315" fill="none" stroke="black"/>
<path d="M63.9961,120.885h -6.80315" fill="none" stroke="black"/>
<path d="M63.9961,110.597h -6.80315" fill="none" stroke="black"/>
<path d="M63.9961,100.309h -6.80315" fill="none" stroke="black"/>
<path d="M70.7992,90.021h -13.6063" fill="none" stroke="black"/>
<path d="M63.9961,79.7329h -6.80315" fill="none" stroke="black"/>
<path d="M63.9961,69.4448h -6.80315" fill="none" stroke="black"/>
<path d="M63.9961,59.1566h -6.80315" fill="none" stroke="black"/>
<path d="M63.9961,48.8685h -6.80315" fill="none" stroke="black"/>
<path d="M70.7992,38.5804h -13.6063" fill="none" stroke="black"/>
<text xml:space="preserve" x="46.7965" y="351.691" fill="black" font-size="12.8882" font-family="Helvetica">0</text>
<text xml:space="preserve" x="32.1766" y="300.521" fill="black" font-size="12.8882" font-family="Helvetica">500</text>
<text xml:space="preserve" x="25.6788" y="248.539" fill="black" font-size="12.8882" font-family="Helvetica">1000</text>
<text xml:space="preserve" x="25.6788" y="197.369" fill="black" font-size="12.8882" font-family="Helvetica">1500</text>
<text xml:space="preserve" x="25.6788" y="146.199" fill="black" font-size="12.8882" font-family="Helvetica">2000</text>
<text xml:space="preserve" x="25.6788" y="94.2175" fill="black" font-size="12.8882" font-family="Helvetica">2500</text>
<text xml:space="preserve" x="25.6788" y="43.0476" fill="black" font-size="12.8882" font-family="Helvetica">3000</text>
<g transform="rotate(-90,15.1199,106.401)">
<text xml:space="preserve" x="15.1199" y="106.401" fill="black" font-size="12.8882" font-family="Helvetica"> ADC Value</text>
</g>
<path d="M211.7,254.58v -0.076143" fill="none" stroke="black"/>
<path d="M210.076,254.504h 3.24888" fill="none" stroke="black"/>
<path d="M211.7,254.58v 0.076143" fill="none" stroke="black"/>
<path d="M210.076,254.656h 3.24888" fill="none" stroke="black"/>
<path d="M442.705,122.072v -0.331173" fill="none" stroke="black"/>
<path d="M441.08,121.74h 3.24888" fill="none" stroke="black"/>
<path d="M442.705,122.072v 0.331173" fill="none" stroke="black"/>
<path d="M441.08,122.403h 3.24888" fill="none" stroke="black"/>
<path d="M411.864,141.697v -0.283556" fill="none" stroke="black"/>
<path d="M410.239,141.414h 3.24888" fill="none" stroke="black"/>
<path d="M411.864,141.697v 0.283556" fill="none" stroke="black"/>
<path d="M410.239,141.981h 3.24888" fill="none" stroke="black"/>
<path d="M460.242,113.692v -0.358036" fill="none" stroke="black"/>
<path d="M458.617,113.334h 3.24888" fill="none" stroke="black"/>
<path d="M460.242,113.692v 0.358036" fill="none" stroke="black"/>
<path d="M458.617,114.05h 3.24888" fill="none" stroke="black"/>
<path d="M257.054,228.462v -0.0770193" fill="none" stroke="black"/>
<path d="M255.43,228.385h 3.24888" fill="none" stroke="black"/>
<path d="M257.054,228.462v 0.0770193" fill="none" stroke="black"/>
<path d="M255.43,228.539h 3.24888" fill="none" stroke="black"/>
<g stroke="black" stroke-width="1" fill="none">
<line x1="210.7" y1="254.58" x2="211.7" y2="254.58"/>
<line x1="441.705" y1="122.072" x2="442.705" y2="122.072"/>
<line x1="410.864" y1="141.697" x2="411.864" y2="141.697"/>
<line x1="459.242" y1="113.692" x2="460.242" y2="113.692"/>
<line x1="256.054" y1="228.462" x2="257.054" y2="228.462"/>
</g>
<path d="M59.4606,340.982l 4.53543, -2.5783l 4.53543, -2.5783l 4.53543, -2.5783l 4.53543, -2.5783l 4.53543, -2.5783l 4.53543, -2.5783l 4.53543, -2.5783l 4.53543, -2.5783l 4.53543, -2.5783l 4.53543, -2.5783l 4.53543, -2.5783l 4.53543, -2.5783l
 4.53543, -2.5783l 4.53543, -2.5783l 4.53543, -2.5783l 4.53543, -2.5783l 4.53543, -2.5783l 4.53543, -2.5783l 4.53543, -2.5783l 4.53543, -2.5783l 4.53543, -2.5783l 4.53543, -2.5783l 4.53543, -2.5783l 4.53543, -2.5783l 4.53543, -2.5783l 4.53543,
 -2.5783l 4.53543, -2.5783l 4.53543, -2.5783l 4.53543, -2.5783l 4.53543, -2.5783l 4.53543, -2.5783l 4.53543, -2.5783l 4.53543, -2.5783l 4.53543, -2.5783l 4.53543, -2.5783l 4.53543, -2.5783l 4.53543, -2.5783l 4.53543, -2.5783l 4.53543, -2.5783l
 4.53543, -2.5783l 4.53543, -2.5783l 4.53543, -2.5783l 4.53543, -2.5783l 4.53543, -2.5783l 4.53543, -2.5783l 4.53543, -2.5783l 4.53543, -2.5783l 4.53543, -2.5783l 4.53543, -2.5783" fill="none" stroke="#ff0000" stroke-width="2"/>
<path d="M281.697,214.645l 4.53543, -2.5783l 4.53543, -2.5783l 4.53543, -2.5783l 4.53543, -2.5783l 4.53543, -2.5783l 4.53543, -2.5783l 4.53543, -2.5783l 4.53543, -2.5783l 4.53543, -2.5783l 4.53543, -2.5783l 4.53543, -2.5783l 4.53543, -2.5783l
 4.53543, -2.5783l 4.53543, -2.5783l 4.53543, -2.5783l 4.53543, -2.5783l 4.53543, -2.5783l 4.53543, -2.5783l 4.53543, -2.5783l 4.53543, -2.5783l 4.53543, -2.5783l 4.53543, -2.5783l 4.53543, -2.5783l 4.53543, -2.5783l 4.53543, -2.5783l 4.53543,
 -2.5783l 4.53543, -2.5783l 4.53543, -2.5783l 4.53543, -2.5783l 4.53543, -2.5783l 4.53543, -2.5783l 4.53543, -2.5783l 4.53543, -2.5783l 4.53543, -2.5783l 4.53543, -2.5783l 4.53543, -2.5783l 4.53543, -2.5783l 4.53543, -2.5783l 4.53543, -2.5783l
 4.53543, -2.5783l 4.53543, -2.5783l 4.53543, -2.5783l 4.53543, -2.5783l 4.53543, -2.5783l 4.53543, -2.5783l 4.53543, -2.5783l 4.53543, -2.5783l 4.53543, -2.5783l 4.53543, -2.5783" fill="none" stroke="#ff0000" stroke-width="2"/>
<path d="M503.933,88.3087l 4.53543, -2.5783" fill="none" stroke="#ff0000" stroke-width="2"/>
<text xml:space="preserve" x="220.611" y="18.681" fill="black" font-size="17.0471" font-family="Helvetica">keV - ADC value</text></svg>
