<?xml version="1.0" standalone="no"?>
<svg width="567.429" height="384.969" viewBox="0 0 567.429 384.969" xmlns="http://www.w3.org/2000/svg" shape-rendering="crispEdges">
<title>
img/calibration/B_prop.svg
</title>
<desc>
Creator: ROOT Version 6.22/09
CreationDate: Wed Jun  9 15:25:02 2021</desc>
<defs>
</defs>
<rect x="0.5" y="0" width="566.929" height="384.469" fill="white"/>
<rect x="57.1929" y="38.4469" width="453.543" height="307.575" fill="white"/>
<rect x="57.1929" y="38.4469" width="453.543" height="307.575" fill="none" stroke="black"/>
<rect x="57.1929" y="38.4469" width="453.543" height="307.575" fill="white"/>
<rect x="57.1929" y="38.4469" width="453.543" height="307.575" fill="none" stroke="black"/>
<path d="M57.1929,346.022h 453.543" fill="none" stroke="black"/>
<path d="M57.1929,336.795v 9.22726" fill="none" stroke="black"/>
<path d="M72.311,341.409v 4.61363" fill="none" stroke="black"/>
<path d="M87.4291,341.409v 4.61363" fill="none" stroke="black"/>
<path d="M102.547,341.409v 4.61363" fill="none" stroke="black"/>
<path d="M117.665,336.795v 9.22726" fill="none" stroke="black"/>
<path d="M132.783,341.409v 4.61363" fill="none" stroke="black"/>
<path d="M147.902,341.409v 4.61363" fill="none" stroke="black"/>
<path d="M163.02,341.409v 4.61363" fill="none" stroke="black"/>
<path d="M178.138,336.795v 9.22726" fill="none" stroke="black"/>
<path d="M193.256,341.409v 4.61363" fill="none" stroke="black"/>
<path d="M208.374,341.409v 4.61363" fill="none" stroke="black"/>
<path d="M223.492,341.409v 4.61363" fill="none" stroke="black"/>
<path d="M238.61,336.795v 9.22726" fill="none" stroke="black"/>
<path d="M253.728,341.409v 4.61363" fill="none" stroke="black"/>
<path d="M268.846,341.409v 4.61363" fill="none" stroke="black"/>
<path d="M283.965,341.409v 4.61363" fill="none" stroke="black"/>
<path d="M299.083,336.795v 9.22726" fill="none" stroke="black"/>
<path d="M314.201,341.409v 4.61363" fill="none" stroke="black"/>
<path d="M329.319,341.409v 4.61363" fill="none" stroke="black"/>
<path d="M344.437,341.409v 4.61363" fill="none" stroke="black"/>
<path d="M359.555,336.795v 9.22726" fill="none" stroke="black"/>
<path d="M374.673,341.409v 4.61363" fill="none" stroke="black"/>
<path d="M389.791,341.409v 4.61363" fill="none" stroke="black"/>
<path d="M404.909,341.409v 4.61363" fill="none" stroke="black"/>
<path d="M420.028,336.795v 9.22726" fill="none" stroke="black"/>
<path d="M435.146,341.409v 4.61363" fill="none" stroke="black"/>
<path d="M450.264,341.409v 4.61363" fill="none" stroke="black"/>
<path d="M465.382,341.409v 4.61363" fill="none" stroke="black"/>
<path d="M480.5,336.795v 9.22726" fill="none" stroke="black"/>
<path d="M480.5,336.795v 9.22726" fill="none" stroke="black"/>
<path d="M495.618,341.409v 4.61363" fill="none" stroke="black"/>
<text xml:space="preserve" x="53.446" y="358.403" fill="black" font-size="12.8453" font-family="Helvetica">0</text>
<text xml:space="preserve" x="106.392" y="358.403" fill="black" font-size="12.8453" font-family="Helvetica">200</text>
<text xml:space="preserve" x="167.483" y="358.403" fill="black" font-size="12.8453" font-family="Helvetica">400</text>
<text xml:space="preserve" x="227.76" y="358.403" fill="black" font-size="12.8453" font-family="Helvetica">600</text>
<text xml:space="preserve" x="288.037" y="358.403" fill="black" font-size="12.8453" font-family="Helvetica">800</text>
<text xml:space="preserve" x="345.056" y="358.403" fill="black" font-size="12.8453" font-family="Helvetica">1000</text>
<text xml:space="preserve" x="406.148" y="358.403" fill="black" font-size="12.8453" font-family="Helvetica">1200</text>
<text xml:space="preserve" x="466.425" y="358.403" fill="black" font-size="12.8453" font-family="Helvetica">1400</text>
<text xml:space="preserve" x="531.589" y="338.854" fill="black" font-size="8.73023" font-family="Helvetica">3</text>
<text xml:space="preserve" x="518.556" y="345.371" fill="black" font-size="12.8453" font-family="Helvetica">10</text>
<text xml:space="preserve" x="512.039" y="345.371" fill="black" font-size="12.8453" font-family="Times">&#0215;</text>
<text xml:space="preserve" x="441.173" y="370.622" fill="black" font-size="12.8453" font-family="Helvetica"> Energy[keV]</text>
<path d="M57.1929,346.022v -307.575" fill="none" stroke="black"/>
<path d="M70.7992,346.022h -13.6063" fill="none" stroke="black"/>
<path d="M63.9961,335.77h -6.80315" fill="none" stroke="black"/>
<path d="M63.9961,325.517h -6.80315" fill="none" stroke="black"/>
<path d="M63.9961,315.265h -6.80315" fill="none" stroke="black"/>
<path d="M63.9961,305.012h -6.80315" fill="none" stroke="black"/>
<path d="M70.7992,294.76h -13.6063" fill="none" stroke="black"/>
<path d="M63.9961,284.507h -6.80315" fill="none" stroke="black"/>
<path d="M63.9961,274.255h -6.80315" fill="none" stroke="black"/>
<path d="M63.9961,264.002h -6.80315" fill="none" stroke="black"/>
<path d="M63.9961,253.75h -6.80315" fill="none" stroke="black"/>
<path d="M70.7992,243.497h -13.6063" fill="none" stroke="black"/>
<path d="M63.9961,233.245h -6.80315" fill="none" stroke="black"/>
<path d="M63.9961,222.992h -6.80315" fill="none" stroke="black"/>
<path d="M63.9961,212.74h -6.80315" fill="none" stroke="black"/>
<path d="M63.9961,202.487h -6.80315" fill="none" stroke="black"/>
<path d="M70.7992,192.235h -13.6063" fill="none" stroke="black"/>
<path d="M63.9961,181.982h -6.80315" fill="none" stroke="black"/>
<path d="M63.9961,171.73h -6.80315" fill="none" stroke="black"/>
<path d="M63.9961,161.477h -6.80315" fill="none" stroke="black"/>
<path d="M63.9961,151.225h -6.80315" fill="none" stroke="black"/>
<path d="M70.7992,140.972h -13.6063" fill="none" stroke="black"/>
<path d="M63.9961,130.72h -6.80315" fill="none" stroke="black"/>
<path d="M63.9961,120.467h -6.80315" fill="none" stroke="black"/>
<path d="M63.9961,110.215h -6.80315" fill="none" stroke="black"/>
<path d="M63.9961,99.962h -6.80315" fill="none" stroke="black"/>
<path d="M70.7992,89.7095h -13.6063" fill="none" stroke="black"/>
<path d="M63.9961,79.457h -6.80315" fill="none" stroke="black"/>
<path d="M63.9961,69.2045h -6.80315" fill="none" stroke="black"/>
<path d="M63.9961,58.9519h -6.80315" fill="none" stroke="black"/>
<path d="M63.9961,48.6994h -6.80315" fill="none" stroke="black"/>
<path d="M70.7992,38.4469h -13.6063" fill="none" stroke="black"/>
<text xml:space="preserve" x="47.7441" y="350.258" fill="black" font-size="12.8453" font-family="Helvetica">0</text>
<text xml:space="preserve" x="33.8967" y="298.941" fill="black" font-size="12.8453" font-family="Helvetica">500</text>
<text xml:space="preserve" x="27.3803" y="247.624" fill="black" font-size="12.8453" font-family="Helvetica">1000</text>
<text xml:space="preserve" x="27.3803" y="197.122" fill="black" font-size="12.8453" font-family="Helvetica">1500</text>
<text xml:space="preserve" x="27.3803" y="145.805" fill="black" font-size="12.8453" font-family="Helvetica">2000</text>
<text xml:space="preserve" x="27.3803" y="94.4882" fill="black" font-size="12.8453" font-family="Helvetica">2500</text>
<text xml:space="preserve" x="27.3803" y="43.1713" fill="black" font-size="12.8453" font-family="Helvetica">3000</text>
<g transform="rotate(-90,15.162,101.819)">
<text xml:space="preserve" x="15.162" y="101.819" fill="black" font-size="12.8453" font-family="Helvetica"> ADC Value</text>
</g>
<path d="M211.7,253.699v -0.0758796" fill="none" stroke="black"/>
<path d="M210.071,253.623h 3.25821" fill="none" stroke="black"/>
<path d="M211.7,253.699v 0.0758796" fill="none" stroke="black"/>
<path d="M210.071,253.775h 3.25821" fill="none" stroke="black"/>
<path d="M442.705,121.649v -0.330027" fill="none" stroke="black"/>
<path d="M441.076,121.319h 3.25821" fill="none" stroke="black"/>
<path d="M442.705,121.649v 0.330027" fill="none" stroke="black"/>
<path d="M441.076,121.979h 3.25821" fill="none" stroke="black"/>
<path d="M411.864,141.315v -0.263306" fill="none" stroke="black"/>
<path d="M410.235,141.052h 3.25821" fill="none" stroke="black"/>
<path d="M411.864,141.315v 0.263306" fill="none" stroke="black"/>
<path d="M410.235,141.579h 3.25821" fill="none" stroke="black"/>
<path d="M460.242,112.875v -0.236134" fill="none" stroke="black"/>
<path d="M458.613,112.639h 3.25821" fill="none" stroke="black"/>
<path d="M460.242,112.875v 0.236134" fill="none" stroke="black"/>
<path d="M458.613,113.111h 3.25821" fill="none" stroke="black"/>
<path d="M257.054,227.671v -0.0767528" fill="none" stroke="black"/>
<path d="M255.425,227.595h 3.25821" fill="none" stroke="black"/>
<path d="M257.054,227.671v 0.0767528" fill="none" stroke="black"/>
<path d="M255.425,227.748h 3.25821" fill="none" stroke="black"/>
<g stroke="black" stroke-width="1" fill="none">
<line x1="210.7" y1="253.699" x2="211.7" y2="253.699"/>
<line x1="441.705" y1="121.649" x2="442.705" y2="121.649"/>
<line x1="410.864" y1="141.315" x2="411.864" y2="141.315"/>
<line x1="459.242" y1="112.875" x2="460.242" y2="112.875"/>
<line x1="256.054" y1="227.671" x2="257.054" y2="227.671"/>
</g>
<path d="M59.4606,339.792l 4.53543, -2.56907l 4.53543, -2.56907l 4.53543, -2.56907l 4.53543, -2.56907l 4.53543, -2.56907l 4.53543, -2.56907l 4.53543, -2.56907l 4.53543, -2.56907l 4.53543, -2.56907l 4.53543, -2.56907l 4.53543, -2.56907l 4.53543,
 -2.56907l 4.53543, -2.56907l 4.53543, -2.56907l 4.53543, -2.56907l 4.53543, -2.56907l 4.53543, -2.56907l 4.53543, -2.56907l 4.53543, -2.56907l 4.53543, -2.56907l 4.53543, -2.56907l 4.53543, -2.56907l 4.53543, -2.56907l 4.53543, -2.56907l 4.53543,
 -2.56907l 4.53543, -2.56907l 4.53543, -2.56907l 4.53543, -2.56907l 4.53543, -2.56907l 4.53543, -2.56907l 4.53543, -2.56907l 4.53543, -2.56907l 4.53543, -2.56907l 4.53543, -2.56907l 4.53543, -2.56907l 4.53543, -2.56907l 4.53543, -2.56907l 4.53543,
 -2.56907l 4.53543, -2.56907l 4.53543, -2.56907l 4.53543, -2.56907l 4.53543, -2.56907l 4.53543, -2.56907l 4.53543, -2.56907l 4.53543, -2.56907l 4.53543, -2.56907l 4.53543, -2.56907l 4.53543, -2.56907l 4.53543, -2.56907" fill="none" stroke="#ff0000"
 stroke-width="2"/>
<path d="M281.697,213.908l 4.53543, -2.56907l 4.53543, -2.56907l 4.53543, -2.56907l 4.53543, -2.56907l 4.53543, -2.56907l 4.53543, -2.56907l 4.53543, -2.56907l 4.53543, -2.56907l 4.53543, -2.56907l 4.53543, -2.56907l 4.53543, -2.56907l 4.53543,
 -2.56907l 4.53543, -2.56907l 4.53543, -2.56907l 4.53543, -2.56907l 4.53543, -2.56907l 4.53543, -2.56907l 4.53543, -2.56907l 4.53543, -2.56907l 4.53543, -2.56907l 4.53543, -2.56907l 4.53543, -2.56907l 4.53543, -2.56907l 4.53543, -2.56907l 4.53543,
 -2.56907l 4.53543, -2.56907l 4.53543, -2.56907l 4.53543, -2.56907l 4.53543, -2.56907l 4.53543, -2.56907l 4.53543, -2.56907l 4.53543, -2.56907l 4.53543, -2.56907l 4.53543, -2.56907l 4.53543, -2.56907l 4.53543, -2.56907l 4.53543, -2.56907l 4.53543,
 -2.56907l 4.53543, -2.56907l 4.53543, -2.56907l 4.53543, -2.56907l 4.53543, -2.56907l 4.53543, -2.56907l 4.53543, -2.56907l 4.53543, -2.56907l 4.53543, -2.56907l 4.53543, -2.56907l 4.53543, -2.56907l 4.53543, -2.56907" fill="none" stroke="#ff0000"
 stroke-width="2"/>
<path d="M503.933,88.024l 4.53543, -2.56907" fill="none" stroke="#ff0000" stroke-width="2"/>
<text xml:space="preserve" x="220.429" y="18.7347" fill="black" font-size="16.9898" font-family="Helvetica">keV - ADC value</text></svg>
