<?xml version="1.0" standalone="no"?>
<svg width="567.429" height="384.68" viewBox="0 0 567.429 384.68" xmlns="http://www.w3.org/2000/svg" shape-rendering="crispEdges">
<title>
img/calibration/B_prop.svg
</title>
<desc>
Creator: ROOT Version 6.22/09
CreationDate: Tue Jun  8 19:24:22 2021</desc>
<defs>
</defs>
<rect x="0.5" y="0" width="566.929" height="384.18" fill="white"/>
<rect x="57.1929" y="38.418" width="453.543" height="307.344" fill="white"/>
<rect x="57.1929" y="38.418" width="453.543" height="307.344" fill="none" stroke="black"/>
<rect x="57.1929" y="38.418" width="453.543" height="307.344" fill="white"/>
<rect x="57.1929" y="38.418" width="453.543" height="307.344" fill="none" stroke="black"/>
<path d="M57.1929,345.762h 453.543" fill="none" stroke="black"/>
<path d="M57.1929,336.541v 9.22031" fill="none" stroke="black"/>
<path d="M72.311,341.152v 4.61016" fill="none" stroke="black"/>
<path d="M87.4291,341.152v 4.61016" fill="none" stroke="black"/>
<path d="M102.547,341.152v 4.61016" fill="none" stroke="black"/>
<path d="M117.665,336.541v 9.22031" fill="none" stroke="black"/>
<path d="M132.783,341.152v 4.61016" fill="none" stroke="black"/>
<path d="M147.902,341.152v 4.61016" fill="none" stroke="black"/>
<path d="M163.02,341.152v 4.61016" fill="none" stroke="black"/>
<path d="M178.138,336.541v 9.22031" fill="none" stroke="black"/>
<path d="M193.256,341.152v 4.61016" fill="none" stroke="black"/>
<path d="M208.374,341.152v 4.61016" fill="none" stroke="black"/>
<path d="M223.492,341.152v 4.61016" fill="none" stroke="black"/>
<path d="M238.61,336.541v 9.22031" fill="none" stroke="black"/>
<path d="M253.728,341.152v 4.61016" fill="none" stroke="black"/>
<path d="M268.846,341.152v 4.61016" fill="none" stroke="black"/>
<path d="M283.965,341.152v 4.61016" fill="none" stroke="black"/>
<path d="M299.083,336.541v 9.22031" fill="none" stroke="black"/>
<path d="M314.201,341.152v 4.61016" fill="none" stroke="black"/>
<path d="M329.319,341.152v 4.61016" fill="none" stroke="black"/>
<path d="M344.437,341.152v 4.61016" fill="none" stroke="black"/>
<path d="M359.555,336.541v 9.22031" fill="none" stroke="black"/>
<path d="M374.673,341.152v 4.61016" fill="none" stroke="black"/>
<path d="M389.791,341.152v 4.61016" fill="none" stroke="black"/>
<path d="M404.909,341.152v 4.61016" fill="none" stroke="black"/>
<path d="M420.028,336.541v 9.22031" fill="none" stroke="black"/>
<path d="M435.146,341.152v 4.61016" fill="none" stroke="black"/>
<path d="M450.264,341.152v 4.61016" fill="none" stroke="black"/>
<path d="M465.382,341.152v 4.61016" fill="none" stroke="black"/>
<path d="M480.5,336.541v 9.22031" fill="none" stroke="black"/>
<path d="M480.5,336.541v 9.22031" fill="none" stroke="black"/>
<path d="M495.618,341.152v 4.61016" fill="none" stroke="black"/>
<text xml:space="preserve" x="53.2943" y="358.189" fill="black" font-size="12.836" font-family="Helvetica">0</text>
<text xml:space="preserve" x="106.901" y="358.189" fill="black" font-size="12.836" font-family="Helvetica">200</text>
<text xml:space="preserve" x="167.005" y="358.189" fill="black" font-size="12.836" font-family="Helvetica">400</text>
<text xml:space="preserve" x="227.921" y="358.189" fill="black" font-size="12.836" font-family="Helvetica">600</text>
<text xml:space="preserve" x="288.026" y="358.189" fill="black" font-size="12.836" font-family="Helvetica">800</text>
<text xml:space="preserve" x="345.693" y="358.189" fill="black" font-size="12.836" font-family="Helvetica">1000</text>
<text xml:space="preserve" x="405.797" y="358.189" fill="black" font-size="12.836" font-family="Helvetica">1200</text>
<text xml:space="preserve" x="465.902" y="358.189" fill="black" font-size="12.836" font-family="Helvetica">1400</text>
<text xml:space="preserve" x="531.691" y="338.695" fill="black" font-size="8.72403" font-family="Helvetica">3</text>
<text xml:space="preserve" x="518.696" y="345.193" fill="black" font-size="12.836" font-family="Helvetica">10</text>
<text xml:space="preserve" x="512.198" y="345.193" fill="black" font-size="12.836" font-family="Times">&#0215;</text>
<text xml:space="preserve" x="441.535" y="370.372" fill="black" font-size="12.836" font-family="Helvetica"> Energy[keV]</text>
<path d="M57.1929,345.762v -307.344" fill="none" stroke="black"/>
<path d="M70.7992,345.762h -13.6063" fill="none" stroke="black"/>
<path d="M63.9961,335.517h -6.80315" fill="none" stroke="black"/>
<path d="M63.9961,325.272h -6.80315" fill="none" stroke="black"/>
<path d="M63.9961,315.027h -6.80315" fill="none" stroke="black"/>
<path d="M63.9961,304.783h -6.80315" fill="none" stroke="black"/>
<path d="M70.7992,294.538h -13.6063" fill="none" stroke="black"/>
<path d="M63.9961,284.293h -6.80315" fill="none" stroke="black"/>
<path d="M63.9961,274.048h -6.80315" fill="none" stroke="black"/>
<path d="M63.9961,263.803h -6.80315" fill="none" stroke="black"/>
<path d="M63.9961,253.559h -6.80315" fill="none" stroke="black"/>
<path d="M70.7992,243.314h -13.6063" fill="none" stroke="black"/>
<path d="M63.9961,233.069h -6.80315" fill="none" stroke="black"/>
<path d="M63.9961,222.824h -6.80315" fill="none" stroke="black"/>
<path d="M63.9961,212.579h -6.80315" fill="none" stroke="black"/>
<path d="M63.9961,202.335h -6.80315" fill="none" stroke="black"/>
<path d="M70.7992,192.09h -13.6063" fill="none" stroke="black"/>
<path d="M63.9961,181.845h -6.80315" fill="none" stroke="black"/>
<path d="M63.9961,171.6h -6.80315" fill="none" stroke="black"/>
<path d="M63.9961,161.356h -6.80315" fill="none" stroke="black"/>
<path d="M63.9961,151.111h -6.80315" fill="none" stroke="black"/>
<path d="M70.7992,140.866h -13.6063" fill="none" stroke="black"/>
<path d="M63.9961,130.621h -6.80315" fill="none" stroke="black"/>
<path d="M63.9961,120.376h -6.80315" fill="none" stroke="black"/>
<path d="M63.9961,110.132h -6.80315" fill="none" stroke="black"/>
<path d="M63.9961,99.8867h -6.80315" fill="none" stroke="black"/>
<path d="M70.7992,89.642h -13.6063" fill="none" stroke="black"/>
<path d="M63.9961,79.3972h -6.80315" fill="none" stroke="black"/>
<path d="M63.9961,69.1524h -6.80315" fill="none" stroke="black"/>
<path d="M63.9961,58.9076h -6.80315" fill="none" stroke="black"/>
<path d="M63.9961,48.6628h -6.80315" fill="none" stroke="black"/>
<path d="M70.7992,38.418h -13.6063" fill="none" stroke="black"/>
<text xml:space="preserve" x="47.6087" y="350.067" fill="black" font-size="12.836" font-family="Helvetica">0</text>
<text xml:space="preserve" x="33.801" y="298.897" fill="black" font-size="12.836" font-family="Helvetica">500</text>
<text xml:space="preserve" x="27.3032" y="247.727" fill="black" font-size="12.836" font-family="Helvetica">1000</text>
<text xml:space="preserve" x="27.3032" y="196.557" fill="black" font-size="12.836" font-family="Helvetica">1500</text>
<text xml:space="preserve" x="27.3032" y="145.387" fill="black" font-size="12.836" font-family="Helvetica">2000</text>
<text xml:space="preserve" x="27.3032" y="94.2175" fill="black" font-size="12.836" font-family="Helvetica">2500</text>
<text xml:space="preserve" x="27.3032" y="43.0476" fill="black" font-size="12.836" font-family="Helvetica">3000</text>
<g transform="rotate(-90,15.1199,101.527)">
<text xml:space="preserve" x="15.1199" y="101.527" fill="black" font-size="12.836" font-family="Helvetica"> ADC Value</text>
</g>
<path d="M211.7,253.508v -0.0758224" fill="none" stroke="black"/>
<path d="M210.076,253.432h 3.24888" fill="none" stroke="black"/>
<path d="M211.7,253.508v 0.0758224" fill="none" stroke="black"/>
<path d="M210.076,253.584h 3.24888" fill="none" stroke="black"/>
<path d="M442.705,121.558v -0.329779" fill="none" stroke="black"/>
<path d="M441.08,121.228h 3.24888" fill="none" stroke="black"/>
<path d="M442.705,121.558v 0.329779" fill="none" stroke="black"/>
<path d="M441.08,121.887h 3.24888" fill="none" stroke="black"/>
<path d="M411.864,141.101v -0.282362" fill="none" stroke="black"/>
<path d="M410.239,140.818h 3.24888" fill="none" stroke="black"/>
<path d="M411.864,141.101v 0.282362" fill="none" stroke="black"/>
<path d="M410.239,141.383h 3.24888" fill="none" stroke="black"/>
<path d="M460.242,113.213v -0.356528" fill="none" stroke="black"/>
<path d="M458.617,112.857h 3.24888" fill="none" stroke="black"/>
<path d="M460.242,113.213v 0.356528" fill="none" stroke="black"/>
<path d="M458.617,113.57h 3.24888" fill="none" stroke="black"/>
<path d="M257.054,227.5v -0.076695" fill="none" stroke="black"/>
<path d="M255.43,227.423h 3.24888" fill="none" stroke="black"/>
<path d="M257.054,227.5v 0.076695" fill="none" stroke="black"/>
<path d="M255.43,227.577h 3.24888" fill="none" stroke="black"/>
<g stroke="black" stroke-width="1" fill="none">
<line x1="210.7" y1="253.508" x2="211.7" y2="253.508"/>
<line x1="441.705" y1="121.558" x2="442.705" y2="121.558"/>
<line x1="410.864" y1="141.101" x2="411.864" y2="141.101"/>
<line x1="459.242" y1="113.213" x2="460.242" y2="113.213"/>
<line x1="256.054" y1="227.5" x2="257.054" y2="227.5"/>
</g>
<path d="M59.4606,339.546l 4.53543, -2.56744l 4.53543, -2.56744l 4.53543, -2.56744l 4.53543, -2.56744l 4.53543, -2.56744l 4.53543, -2.56744l 4.53543, -2.56744l 4.53543, -2.56744l 4.53543, -2.56744l 4.53543, -2.56744l 4.53543, -2.56744l 4.53543,
 -2.56744l 4.53543, -2.56744l 4.53543, -2.56744l 4.53543, -2.56744l 4.53543, -2.56744l 4.53543, -2.56744l 4.53543, -2.56744l 4.53543, -2.56744l 4.53543, -2.56744l 4.53543, -2.56744l 4.53543, -2.56744l 4.53543, -2.56744l 4.53543, -2.56744l 4.53543,
 -2.56744l 4.53543, -2.56744l 4.53543, -2.56744l 4.53543, -2.56744l 4.53543, -2.56744l 4.53543, -2.56744l 4.53543, -2.56744l 4.53543, -2.56744l 4.53543, -2.56744l 4.53543, -2.56744l 4.53543, -2.56744l 4.53543, -2.56744l 4.53543, -2.56744l 4.53543,
 -2.56744l 4.53543, -2.56744l 4.53543, -2.56744l 4.53543, -2.56744l 4.53543, -2.56744l 4.53543, -2.56744l 4.53543, -2.56744l 4.53543, -2.56744l 4.53543, -2.56744l 4.53543, -2.56744l 4.53543, -2.56744l 4.53543, -2.56744" fill="none" stroke="#ff0000"
 stroke-width="2"/>
<path d="M281.697,213.742l 4.53543, -2.56744l 4.53543, -2.56744l 4.53543, -2.56744l 4.53543, -2.56744l 4.53543, -2.56744l 4.53543, -2.56744l 4.53543, -2.56744l 4.53543, -2.56744l 4.53543, -2.56744l 4.53543, -2.56744l 4.53543, -2.56744l 4.53543,
 -2.56744l 4.53543, -2.56744l 4.53543, -2.56744l 4.53543, -2.56744l 4.53543, -2.56744l 4.53543, -2.56744l 4.53543, -2.56744l 4.53543, -2.56744l 4.53543, -2.56744l 4.53543, -2.56744l 4.53543, -2.56744l 4.53543, -2.56744l 4.53543, -2.56744l 4.53543,
 -2.56744l 4.53543, -2.56744l 4.53543, -2.56744l 4.53543, -2.56744l 4.53543, -2.56744l 4.53543, -2.56744l 4.53543, -2.56744l 4.53543, -2.56744l 4.53543, -2.56744l 4.53543, -2.56744l 4.53543, -2.56744l 4.53543, -2.56744l 4.53543, -2.56744l 4.53543,
 -2.56744l 4.53543, -2.56744l 4.53543, -2.56744l 4.53543, -2.56744l 4.53543, -2.56744l 4.53543, -2.56744l 4.53543, -2.56744l 4.53543, -2.56744l 4.53543, -2.56744l 4.53543, -2.56744l 4.53543, -2.56744l 4.53543, -2.56744" fill="none" stroke="#ff0000"
 stroke-width="2"/>
<path d="M503.933,87.9369l 4.53543, -2.56744" fill="none" stroke="#ff0000" stroke-width="2"/>
<text xml:space="preserve" x="220.611" y="18.681" fill="black" font-size="16.9774" font-family="Helvetica">keV - ADC value</text></svg>
