<?xml version="1.0" standalone="no"?>
<svg width="567.429" height="386.304" viewBox="0 0 567.429 386.304" xmlns="http://www.w3.org/2000/svg" shape-rendering="crispEdges">
<title>
img/calibration/C_Co_1600V.svg
</title>
<desc>
Creator: ROOT Version 6.22/08
CreationDate: Tue Jun  8 01:25:55 2021</desc>
<defs>
</defs>
<rect x="0.5" y="0" width="566.929" height="385.804" fill="white"/>
<rect x="57.1929" y="38.5804" width="453.543" height="308.643" fill="white"/>
<rect x="57.1929" y="38.5804" width="453.543" height="308.643" fill="none" stroke="black"/>
<rect x="57.1929" y="38.5804" width="453.543" height="308.643" fill="white"/>
<rect x="57.1929" y="38.5804" width="453.543" height="308.643" fill="none" stroke="black"/>
<path d="M57.1929,347.224h 0.453543v -11.9978h 0.907087v 5.9989h 0.453543v 5.9989h 0.453543v -5.9989h 0.453543v 5.9989h 0.907087v -5.9989h 0.453543v 5.9989h 0.907087v -5.9989h 0.453543v 5.9989h 0.453543v -5.9989h 0.453543v 5.9989h 0.907087v -11.9978h
 0.453543v 5.9989h 0.453543v 5.9989h 0.907087v -5.9989h 0.453543v 5.9989h 0.453543v -11.9978h 0.453543v 11.9978h 0.907087v -5.9989h 0.907087v 5.9989h 0.453543v -5.9989h 0.453543v 5.9989h 0.453543v -5.9989h 0.453543v -5.9989h 0.453543v 5.9989h
 0.453543v 5.9989h 0.907087v -11.9978h 0.453543v 11.9978h 0.453543v -5.9989h 0.453543v 5.9989h 0.453543v -5.9989h 0.453543v 5.9989h 0.453543v -5.9989h 0.907087v 5.9989h 0.453543v -17.9967h 0.453543v 17.9967h 0.453543v -5.9989h 0.453543v -23.9956h
 0.453543v 23.9956h 0.453543v -11.9978h 0.453543v -5.9989h 0.453543v -5.9989h 0.907087v -11.9978h 0.453543v 5.9989h 0.453543v -11.9978h 0.907087v -29.9945h 0.453543v 11.9978h 0.453543v -17.9967h 0.453543v 29.9945h 0.453543v -11.9978h 0.453543v
 -17.9967h 0.907087v -23.9956h 0.453543v -41.9923h 0.453543v 35.9934h 0.453543v -5.9989h 0.907087v 5.9989h 0.453543v -11.9978h 0.453543v -17.9967h 0.453543v -53.9901h 0.453543v 35.9934h 0.453543v -23.9956h 0.453543v 47.9912h 0.453543v -41.9923h
 0.453543v 65.9879h 0.453543v -89.9835h 0.453543v 77.9857h 0.453543v -71.9868h 0.453543v -23.9956h 0.453543v 5.9989h 0.453543v 35.9934h 0.907087v 35.9934h 0.453543v 23.9956h 0.453543v -59.989h 0.453543v 17.9967h 0.453543v -5.9989h 0.453543v -5.9989h
 0.453543v -35.9934h 0.453543v 11.9978h 0.453543v -5.9989h 0.453543v 53.9901h 0.453543v 23.9956h 0.453543v -125.977h 0.453543v 47.9912h 0.453543v -11.9978h 0.453543v 29.9945h 0.453543v 11.9978h 0.453543v -41.9923h 0.453543v -41.9923h 0.453543v
 41.9923h 0.453543v -41.9923h 0.453543v 29.9945h 0.453543v -29.9945h 0.453543v 29.9945h 0.453543v 29.9945h 0.453543v 5.9989h 0.907087v -23.9956h 0.453543v -17.9967h 0.453543v 11.9978h 0.453543v -23.9956h 0.453543v 65.9879h 0.453543v -5.9989h
 0.453543v -11.9978h 0.453543v 23.9956h 0.453543v -47.9912h 0.453543v -71.9868h 0.453543v 83.9846h 0.453543v 5.9989h 0.453543v -5.9989h 0.453543v 53.9901h 0.453543v -17.9967h 0.907087v 29.9945h 0.453543v -5.9989h 0.453543v -71.9868h 0.453543v
 -17.9967h 0.453543v 77.9857h 0.453543v -17.9967h 0.453543v 35.9934h 0.453543v -29.9945h 0.453543v -11.9978h 0.453543v 11.9978h 0.453543v 35.9934h 0.453543v -23.9956h 0.453543v -5.9989h 0.453543v -11.9978h 0.453543v 29.9945h 0.453543v -41.9923h
 0.453543v 71.9868h 0.453543v -17.9967h 0.453543v 41.9923h 0.453543v -119.978h 0.453543v 71.9868h 0.453543v -65.9879h 0.453543v 89.9835h 0.453543v 17.9967h 0.453543v -35.9934h 0.453543v -11.9978h 0.453543v 35.9934h 0.453543v 17.9967h 0.453543v
 -35.9934h 0.453543v -5.9989h 0.453543v 11.9978h 0.453543v -11.9978h 0.453543v -5.9989h 0.453543v 5.9989h 0.453543v -11.9978h 0.453543v 77.9857h 0.453543v -17.9967h 0.453543v -11.9978h 0.453543v -17.9967h 0.453543v 35.9934h 0.453543v -35.9934h
 0.453543v 11.9978h 0.453543v -59.989h 0.453543v 11.9978h 0.453543v 23.9956h 0.453543v 65.9879h 0.453543v -29.9945h 0.453543v 5.9989h 0.453543v 5.9989h 0.453543v -35.9934h 0.453543v 71.9868h 0.453543v -47.9912h 0.453543v -23.9956h 0.453543v 29.9945h
 0.453543v -11.9978h 0.453543v 35.9934h 0.453543v -29.9945h 0.453543v 5.9989h 0.453543v -29.9945h 0.453543v 47.9912h 0.453543v -5.9989h 0.453543v 5.9989h 0.453543v -47.9912h 0.907087v 47.9912h 0.453543v -35.9934h 0.453543v 5.9989h 0.453543v -5.9989h
 0.453543v 35.9934h 0.453543v -17.9967h 0.453543v -5.9989h 0.453543v -11.9978h 0.453543v 29.9945h 0.453543v -29.9945h 0.453543v 5.9989h 0.453543v 35.9934h 0.453543v 5.9989h 0.453543v -5.9989h 0.453543v -23.9956h 0.907087v -11.9978h 0.453543v 11.9978h
 0.907087v -5.9989h 0.453543v 29.9945h 0.453543v -17.9967h 0.453543v 23.9956h 0.453543v -29.9945h 0.453543v -47.9912h 0.453543v 11.9978h 0.453543v 47.9912h 0.453543v -17.9967h 0.907087v 5.9989h 0.453543v 5.9989h 0.907087v -11.9978h 0.453543v
 -29.9945h 0.453543v 29.9945h 0.907087v -47.9912h 0.453543v 29.9945h 0.907087v 17.9967h 0.453543v -17.9967h 0.453543v 17.9967h 0.453543v -5.9989h 0.453543v -29.9945h 0.453543v 41.9923h 0.453543v -17.9967h 0.453543v -11.9978h 0.453543v -17.9967h
 0.453543v 35.9934h 0.453543v -11.9978h 0.453543v -5.9989h 0.453543v 17.9967h 0.453543v 17.9967h 0.453543v -5.9989h 0.453543v -23.9956h 0.453543v 5.9989h 0.453543v -23.9956h 0.453543v 59.989h 0.453543v -29.9945h 0.453543v -35.9934h 0.453543v 35.9934h
 0.453543v 5.9989h 0.453543v 53.9901h 0.453543v -53.9901h 0.453543v 5.9989h 0.907087v -11.9978h 0.453543v 5.9989h 0.453543v 53.9901h 0.453543v -23.9956h 0.453543v -23.9956h 0.907087v 17.9967h 0.453543v 5.9989h 0.453543v 11.9978h 0.453543v 5.9989h
 0.453543v -41.9923h 0.453543v 29.9945h 0.453543v -17.9967h 0.453543v -11.9978h 0.907087v 59.989h 0.453543v -59.989h 0.453543v 11.9978h 0.453543v 5.9989h 0.453543v 5.9989h 0.453543v -29.9945h 0.453543v 53.9901h 0.453543v -17.9967h 0.453543v 29.9945h
 0.453543v -41.9923h 0.453543v -11.9978h 0.453543v -23.9956h 0.453543v 41.9923h 0.453543v -11.9978h 0.453543v -47.9912h 0.453543v 23.9956h 0.453543v 5.9989h 0.453543v 11.9978h 0.453543v -23.9956h 0.453543v 47.9912h 0.453543v -53.9901h 0.453543v
 -5.9989h 0.453543v 41.9923h 1.36063v -35.9934h 0.453543v 29.9945h 0.907087v -29.9945h 0.453543v 11.9978h 0.453543v 41.9923h 0.453543v -23.9956h 0.453543v -5.9989h 0.453543v -17.9967h 0.453543v -47.9912h 0.453543v 83.9846h 0.453543v -23.9956h
 0.453543v 23.9956h 0.453543v -41.9923h 0.453543v -5.9989h 0.453543v 11.9978h 0.453543v -5.9989h 0.907087v 11.9978h 0.453543v 23.9956h 0.453543v -17.9967h 0.453543v 17.9967h 0.453543v -35.9934h 0.453543v 65.9879h 0.453543v -47.9912h 0.453543v
 17.9967h 0.453543v -11.9978h 0.453543v 53.9901h 0.453543v -53.9901h 0.907087v 11.9978h 0.453543v -11.9978h 0.453543v 29.9945h 0.453543v -23.9956h 0.453543v 35.9934h 0.453543v -17.9967h 0.453543v -11.9978h 0.453543v 29.9945h 0.453543v -17.9967h
 0.453543v -17.9967h 0.453543v 11.9978h 0.453543v -5.9989h 0.453543v 5.9989h 0.453543v -11.9978h 0.453543v 5.9989h 0.453543v -29.9945h 0.453543v 35.9934h 0.453543v 11.9978h 0.453543v -5.9989h 0.907087v 5.9989h 0.453543v 11.9978h 0.453543v -29.9945h
 0.907087v 35.9934h 0.453543v 5.9989h 0.453543v -29.9945h 0.453543v -17.9967h 0.453543v 11.9978h 0.453543v 35.9934h 0.453543v -11.9978h 0.453543v -17.9967h 0.453543v 11.9978h 0.453543v 5.9989h 0.453543v -23.9956h 0.453543v -5.9989h 0.453543v 23.9956h
 0.453543v 35.9934h 0.453543v -11.9978h 0.453543v -23.9956h 0.453543v -23.9956h 0.453543v 11.9978h 0.453543v 17.9967h 0.453543v -29.9945h 0.453543v 5.9989h 0.453543v 5.9989h 0.453543v -17.9967h 0.453543v -5.9989h 0.453543v -5.9989h 0.453543v 29.9945h
 0.907087v 17.9967h 0.453543v -5.9989h 0.453543v -35.9934h 0.453543v -59.989h 0.453543v 47.9912h 0.453543v 65.9879h 0.453543v -29.9945h 0.453543v 17.9967h 0.453543v -47.9912h 0.453543v 41.9923h 0.453543v 11.9978h 0.453543v -23.9956h 0.453543v
 17.9967h 0.453543v -47.9912h 0.453543v 29.9945h 0.453543v 5.9989h 0.453543v 17.9967h 0.453543v -41.9923h 0.453543v 41.9923h 0.453543v -35.9934h 0.453543v 11.9978h 0.453543v -5.9989h 0.453543v -23.9956h 0.453543v -5.9989h 0.453543v 23.9956h 0.453543v
 41.9923h 0.453543v -35.9934h 0.453543v 23.9956h 0.453543v -23.9956h 0.453543v 17.9967h 0.453543v -59.989h 0.453543v 29.9945h 0.453543v 35.9934h 0.453543v -17.9967h 0.453543v -11.9978h 0.453543v 5.9989h 0.453543v -47.9912h 0.453543v 41.9923h
 0.453543v -11.9978h 0.453543v 23.9956h 0.907087v -23.9956h 0.453543v 41.9923h 0.453543v -23.9956h 0.453543v 5.9989h 0.453543v -17.9967h 0.453543v 11.9978h 0.453543v 23.9956h 0.453543v -113.979h 0.453543v 95.9824h 0.453543v -41.9923h 0.453543v
 41.9923h 0.453543v -11.9978h 0.453543v 23.9956h 0.453543v -29.9945h 0.453543v -5.9989h 0.453543v 29.9945h 0.907087v -5.9989h 0.907087v -17.9967h 0.453543v 23.9956h 0.453543v -5.9989h 0.453543v 11.9978h 0.453543v -35.9934h 0.453543v 35.9934h
 0.453543v 17.9967h 0.453543v -35.9934h 0.453543v 17.9967h 0.453543v -53.9901h 0.453543v 59.989h 0.453543v -11.9978h 0.453543v -17.9967h 0.453543v 5.9989h 0.453543v 17.9967h 0.453543v -35.9934h 0.453543v 35.9934h 0.907087v 17.9967h 0.453543v
 -53.9901h 0.453543v 41.9923h 0.453543v -35.9934h 0.453543v 5.9989h 0.453543v 23.9956h 0.453543v 5.9989h 0.453543v -11.9978h 0.453543v 17.9967h 0.453543v -17.9967h 0.453543v 17.9967h 0.907087v -47.9912h 0.453543v 47.9912h 0.453543v -23.9956h
 0.453543v -5.9989h 0.453543v 5.9989h 0.453543v 29.9945h 0.453543v -17.9967h 0.907087v 11.9978h 0.453543v -5.9989h 0.453543v -11.9978h 0.453543v 17.9967h 0.453543v -11.9978h 0.453543v 11.9978h 0.453543v 29.9945h 0.453543v -5.9989h 0.453543v -5.9989h
 0.453543v -29.9945h 0.453543v 23.9956h 0.453543v -47.9912h 0.453543v -17.9967h 0.453543v 65.9879h 0.453543v -29.9945h 0.453543v 5.9989h 0.453543v 35.9934h 0.453543v -23.9956h 0.453543v -53.9901h 0.453543v 41.9923h 0.453543v 17.9967h 0.453543v
 23.9956h 0.453543v -59.989h 0.453543v 23.9956h 0.453543v -5.9989h 0.453543v 5.9989h 0.453543v 5.9989h 0.453543v -29.9945h 0.453543v 5.9989h 0.453543v 5.9989h 0.453543v 5.9989h 0.453543v -5.9989h 0.453543v -5.9989h 0.907087v 23.9956h 0.453543v
 -23.9956h 0.453543v -11.9978h 0.453543v 29.9945h 0.453543v -35.9934h 0.453543v -17.9967h 0.453543v 17.9967h 0.453543v 35.9934h 0.453543v -41.9923h 0.453543v -5.9989h 0.453543v 23.9956h 0.453543v 23.9956h 0.453543v -35.9934h 0.453543v 35.9934h
 0.453543v -77.9857h 0.453543v 47.9912h 0.453543v -17.9967h 0.453543v 11.9978h 0.453543v 5.9989h 0.453543v -59.989h 0.453543v 17.9967h 0.453543v 5.9989h 0.453543v -29.9945h 0.453543v 41.9923h 0.453543v 5.9989h 0.453543v -29.9945h 0.453543v -11.9978h
 0.453543v -29.9945h 0.453543v 17.9967h 0.453543v 5.9989h 0.453543v 29.9945h 0.453543v -41.9923h 0.453543v 23.9956h 0.907087v -17.9967h 0.453543v 41.9923h 0.453543v -5.9989h 0.453543v -41.9923h 0.907087v -35.9934h 0.453543v 35.9934h 0.453543v
 23.9956h 0.453543v -29.9945h 0.453543v -17.9967h 0.453543v 65.9879h 0.453543v -35.9934h 0.453543v 41.9923h 0.453543v -41.9923h 0.907087v 47.9912h 0.453543v 5.9989h 0.453543v 23.9956h 0.453543v -23.9956h 0.453543v -59.989h 0.453543v 89.9835h
 0.453543v -17.9967h 0.453543v 23.9956h 0.453543v -5.9989h 0.453543v -11.9978h 0.453543v 11.9978h 0.453543v 5.9989h 0.453543v -35.9934h 0.453543v 35.9934h 0.453543v 5.9989h 0.453543v 5.9989h 0.453543v 17.9967h 0.453543v -11.9978h 0.453543v 5.9989h
 0.453543v 5.9989h 0.453543v -23.9956h 0.453543v -29.9945h 0.453543v 35.9934h 0.453543v 35.9934h 0.453543v -35.9934h 0.453543v -23.9956h 0.453543v 29.9945h 0.453543v -5.9989h 0.453543v 17.9967h 0.453543v -35.9934h 0.453543v 23.9956h 0.453543v
 35.9934h 0.453543v -17.9967h 0.453543v -29.9945h 0.453543v 17.9967h 0.453543v -5.9989h 0.453543v -17.9967h 0.453543v -11.9978h 0.453543v 17.9967h 0.453543v -41.9923h 0.453543v 47.9912h 0.453543v -5.9989h 0.453543v -77.9857h 0.453543v 41.9923h
 0.453543v -17.9967h 0.453543v -5.9989h 0.453543v 47.9912h 0.453543v -47.9912h 0.453543v 29.9945h 0.453543v -11.9978h 0.453543v -11.9978h 0.453543v 5.9989h 0.907087v -23.9956h 0.453543v 23.9956h 0.453543v 11.9978h 0.453543v -11.9978h 0.453543v
 11.9978h 0.453543v -23.9956h 0.453543v -11.9978h 0.453543v 17.9967h 0.453543v -5.9989h 0.453543v -23.9956h 0.453543v -11.9978h 0.453543v 53.9901h 0.453543v -35.9934h 0.453543v 5.9989h 0.453543v 5.9989h 0.453543v 11.9978h 0.453543v 41.9923h 0.453543v
 -5.9989h 0.453543v -35.9934h 0.453543v 17.9967h 0.907087v 5.9989h 0.453543v -5.9989h 0.453543v 29.9945h 0.907087v 5.9989h 0.453543v -11.9978h 0.907087v 5.9989h 0.453543v 23.9956h 0.453543v -53.9901h 0.453543v 35.9934h 0.907087v 11.9978h 0.907087v
 11.9978h 0.453543v -5.9989h 0.453543v 17.9967h 0.453543v -5.9989h 0.453543v 5.9989h 0.453543v -23.9956h 0.453543v 17.9967h 0.907087v -11.9978h 0.453543v 23.9956h 0.453543v -5.9989h 0.453543v 11.9978h 0.453543v -23.9956h 0.453543v 5.9989h 0.453543v
 17.9967h 0.453543v -17.9967h 0.453543v 11.9978h 0.453543v 5.9989h 0.453543v -5.9989h 0.453543v -11.9978h 0.453543v 11.9978h 0.453543v 11.9978h 0.453543v -11.9978h 0.453543v 5.9989h 0.453543v -5.9989h 0.453543v 11.9978h 0.907087v -5.9989h 0.453543v
 -5.9989h 0.453543v 5.9989h 0.907087v -11.9978h 0.453543v 11.9978h 0.453543v 5.9989h 0.453543v -5.9989h 1.36063v 5.9989h 0.453543v -5.9989h 0.453543v -5.9989h 0.453543v 11.9978h 0.907087v -11.9978h 0.453543v 11.9978h 0.453543v -5.9989h 0.453543v
 -5.9989h 0.453543v 11.9978h 1.36063v -11.9978h 0.453543v 5.9989h 1.36063v -5.9989h 0.453543v 5.9989h 0.453543v -5.9989h 0.453543v 5.9989h 0.907087v -5.9989h 0.907087v -5.9989h 0.453543v 17.9967h 0.907087v -5.9989h 0.907087v 5.9989h 0.907087v
 -5.9989h 0.453543v -5.9989h 0.453543v 11.9978h 0.453543v -5.9989h 0.453543v 5.9989h 0.453543v -11.9978h 0.453543v -5.9989h 0.453543v 17.9967h 0.453543v -5.9989h 0.453543v 5.9989h 0.453543v -17.9967h 0.907087v 11.9978h 0.907087v -5.9989h 0.453543v
 11.9978h 0.453543v -5.9989h 0.907087v -5.9989h 0.453543v 5.9989h 0.453543v 5.9989h 0.907087v -5.9989h 0.907087v 5.9989h 0.453543v -11.9978h 0.453543v 5.9989h 0.453543v 5.9989h 1.36063v -5.9989h 0.453543v 5.9989h 0.453543v -5.9989h 0.453543v 5.9989h
 2.26772v -5.9989h 1.81417v 5.9989h 0.907087v -5.9989h 0.907087v 5.9989h 0.907087v -11.9978h 0.453543v 11.9978h 0.453543v -5.9989h 0.453543v -5.9989h 0.453543v 11.9978h 1.81417v -5.9989h 1.36063v 5.9989h 0.453543v -11.9978h 0.453543v 11.9978h
 0.453543v -11.9978h 0.453543v 11.9978h 0.907087v -11.9978h 0.453543v 11.9978h 1.36063v -11.9978h 0.453543v 11.9978h 0.907087v -5.9989h 0.453543v 5.9989h 2.72126v -17.9967h 0.453543v 11.9978h 0.453543v -5.9989h 0.453543v 11.9978h 2.26772v -11.9978h
 0.453543v 11.9978h 0.453543v -11.9978h 0.453543v 5.9989h 0.453543v 5.9989h 0.907087v -5.9989h 0.453543v 5.9989h 1.36063v -5.9989h 0.453543v 5.9989h 0.453543v -5.9989h 0.907087v 5.9989h 0.453543v -5.9989h 0.453543v 5.9989h 0.907087v -5.9989h
 0.453543v 5.9989h 1.36063v -11.9978h 0.453543v 11.9978h 0.453543v -5.9989h 0.453543v -5.9989h 0.453543v -5.9989h 0.453543v 11.9978h 0.453543v 5.9989h 0.453543v -5.9989h 0.453543v 5.9989h 0.453543v -5.9989h 0.907087v -5.9989h 0.453543v 11.9978h
 0.453543v -23.9956h 0.453543v 23.9956h 0.453543v -5.9989h 0.907087v 5.9989h 0.453543v -5.9989h 0.453543v 5.9989h 1.36063v -5.9989h 2.72126v 5.9989h 0.453543v -5.9989h 0.907087v 5.9989h 2.26772v -5.9989h 1.36063v 5.9989h 0.453543v -5.9989h 0.453543v
 5.9989h 2.26772v -5.9989h 0.453543v 5.9989h 0.907087v -5.9989h 0.907087v 5.9989h 1.36063v -17.9967h 0.453543v 17.9967h 0.453543v -5.9989h 0.453543v 5.9989h 0.453543v -5.9989h 0.453543v 5.9989h 0.907087v -5.9989h 0.453543v 5.9989h 1.36063v -5.9989h
 0.453543v 5.9989h 0.907087v -11.9978h 0.453543v 11.9978h 0.907087v -23.9956h 0.453543v 17.9967h 0.453543v 5.9989h 0.453543v -5.9989h 1.36063v 5.9989h 3.1748v -5.9989h 0.453543v 5.9989h 0.453543v -5.9989h 0.907087v 5.9989h 3.1748v -5.9989h 0.453543v
 5.9989h 1.81417v -17.9967h 0.453543v 17.9967h 0.907087v -5.9989h 0.907087v 5.9989h 0.453543v -5.9989h 0.453543v 5.9989h 0.453543v -5.9989h 0.453543v -5.9989h 0.453543v 11.9978h 1.36063v -5.9989h 0.453543v 5.9989h 7.71024v -5.9989h 0.453543v 5.9989h
 5.44252v -11.9978h 0.453543v 11.9978h 0.907087v -5.9989h 0.453543v 5.9989h 0.907087v -5.9989h 0.453543v 5.9989h 0.453543v -5.9989h 0.453543v 5.9989h 1.81417v -5.9989h 0.453543v 5.9989h 2.26772v -5.9989h 0.907087v 5.9989h 1.36063v -11.9978h 0.453543v
 11.9978h 1.36063v -5.9989h 0.453543v 5.9989h 0.453543v -5.9989h 1.36063" fill="none" stroke="#000099"/>
<path d="M284.146,318.542l 0.362835, -1.69192l 0.362835, -1.75634l 0.362835, -1.82051l 0.362835, -1.8842l 0.362835, -1.94716l 0.362835, -2.00915l 0.362835, -2.06989l 0.362835, -2.12912l 0.362835, -2.18656l 0.362835, -2.24193l 0.362835, -2.29493l
 0.362835, -2.34527l 0.362835, -2.39267l 0.362835, -2.43681l 0.362835, -2.47742l 0.362835, -2.5142l 0.362835, -2.54687l 0.362835, -2.57514l 0.362835, -2.59875l 0.362835, -2.61744l 0.362835, -2.63095l 0.362835, -2.63905l 0.362835, -2.64153l 0.362835,
 -2.63819l 0.362835, -2.62883l 0.362835, -2.61331l 0.362835, -2.59149l 0.362835, -2.56324l 0.362835, -2.52849l 0.362835, -2.48716l 0.362835, -2.43923l 0.362835, -2.38469l 0.362835, -2.32357l 0.362835, -2.2559l 0.362835, -2.18179l 0.362835, -2.10134l
 0.362835, -2.01469l 0.362835, -1.92203l 0.362835, -1.82355l 0.362835, -1.71949l 0.362835, -1.61012l 0.362835, -1.49571l 0.362835, -1.37659l 0.362835, -1.2531l 0.362835, -1.12559l 0.362835, -0.994463l 0.362835, -0.860112l 0.362835, -0.722962l
 0.362835, -0.583447" fill="none" stroke="#ff0000" stroke-width="2"/>
<path d="M301.925,216.855l 0.362835, -0.44202l 0.362835, -0.299138l 0.362835, -0.155271l 0.362835, -0.0108922l 0.362835, 0.133523l 0.362835, 0.277498l 0.362835, 0.420558l 0.362835, 0.562234l 0.362835, 0.702066l 0.362835, 0.839602l 0.362835, 0.974402l
 0.362835, 1.10604l 0.362835, 1.23412l 0.362835, 1.35824l 0.362835, 1.47804l 0.362835, 1.59318l 0.362835, 1.70333l 0.362835, 1.80821l 0.362835, 1.90755l 0.362835, 2.0011l 0.362835, 2.08866l 0.362835, 2.17006l 0.362835, 2.24514l 0.362835, 2.31378l
 0.362835, 2.3759l 0.362835, 2.43143l 0.362835, 2.48036l 0.362835, 2.52268l 0.362835, 2.55842l 0.362835, 2.58764l 0.362835, 2.61043l 0.362835, 2.62689l 0.362835, 2.63717l 0.362835, 2.64141l 0.362835, 2.63979l 0.362835, 2.63252l 0.362835, 2.61981l
 0.362835, 2.60189l 0.362835, 2.57901l 0.362835, 2.55142l 0.362835, 2.5194l 0.362835, 2.48322l 0.362835, 2.44317l 0.362835, 2.39954l 0.362835, 2.35261l 0.362835, 2.3027l 0.362835, 2.25008l 0.362835, 2.19505l 0.362835, 2.1379" fill="none"
 stroke="#ff0000" stroke-width="2"/>
<path d="M319.704,305.045l 0.362835, 2.07893" fill="none" stroke="#ff0000" stroke-width="2"/>
<path d="M320.475,333.457l 0.453543, -1.52095l 0.453543, -1.64278l 0.453543, -1.76827l 0.453543, -1.89675l 0.453543, -2.02742l 0.453543, -2.15936l 0.453543, -2.29159l 0.453543, -2.423l 0.453543, -2.55238l 0.453543, -2.67847l 0.453543, -2.79991l
 0.453543, -2.91529l 0.453543, -3.02314l 0.453543, -3.12199l 0.453543, -3.21033l 0.453543, -3.28669l 0.453543, -3.3496l 0.453543, -3.39768l 0.453543, -3.4296l 0.453543, -3.44415l 0.453543, -3.44024l 0.453543, -3.41691l 0.453543, -3.3734l 0.453543,
 -3.30911l 0.453543, -3.22366l 0.453543, -3.11688l 0.453543, -2.98882l 0.453543, -2.8398l 0.453543, -2.67035l 0.453543, -2.48126l 0.453543, -2.27356l 0.453543, -2.04849l 0.453543, -1.80754l 0.453543, -1.5524l 0.453543, -1.28492l 0.453543, -1.00714l
 0.453543, -0.721222l 0.453543, -0.429451l 0.453543, -0.13418l 0.453543, 0.162186l 0.453543, 0.457228l 0.453543, 0.748545l 0.453543, 1.03379l 0.453543, 1.31068l 0.453543, 1.57708l 0.453543, 1.83096l 0.453543, 2.07048l 0.453543, 2.29396l 0.453543,
 2.49996" fill="none" stroke="#ff0000" stroke-width="2"/>
<path d="M342.698,252.383l 0.453543, 2.68723l 0.453543, 2.85478l 0.453543, 3.00183l 0.453543, 3.12789l 0.453543, 3.23265l 0.453543, 3.31609l 0.453543, 3.3784l 0.453543, 3.41997l 0.453543, 3.44142l 0.453543, 3.44355l 0.453543, 3.42731l 0.453543,
 3.3938l 0.453543, 3.34427l 0.453543, 3.28002l 0.453543, 3.20247l 0.453543, 3.11307l 0.453543, 3.0133l 0.453543, 2.90468l 0.453543, 2.78867l 0.453543, 2.66673l 0.453543, 2.54027l 0.453543, 2.41064l 0.453543, 2.27911l 0.453543, 2.14686l 0.453543,
 2.01499l 0.453543, 1.8845l 0.453543, 1.75627l 0.453543, 1.63109l 0.453543, 1.50964l 0.453543, 1.39249l 0.453543, 1.28012l 0.453543, 1.1729l 0.453543, 1.07112l 0.453543, 0.97497l 0.453543, 0.88457l 0.453543, 0.799964l 0.453543, 0.721134l 0.453543,
 0.648005l 0.453543, 0.58045l 0.453543, 0.518303l 0.453543, 0.461363l 0.453543, 0.409401l 0.453543, 0.362166l 0.453543, 0.319393l 0.453543, 0.280808l 0.453543, 0.246129l 0.453543, 0.215077l 0.453543, 0.187372l 0.453543, 0.162743" fill="none"
 stroke="#ff0000" stroke-width="2"/>
<path d="M364.922,346.283l 0.453543, 0.140925" fill="none" stroke="#ff0000" stroke-width="2"/>
<rect x="442.705" y="25.0773" width="113.386" height="61.7287" fill="white"/>
<path d="M442.705,86.8059h 113.386" fill="none" stroke="black"/>
<path d="M556.091,86.8059v -61.7287" fill="none" stroke="black"/>
<path d="M556.091,25.0773h -113.386" fill="none" stroke="black"/>
<path d="M442.705,25.0773v 61.7287" fill="none" stroke="black"/>
<text xml:space="preserve" x="460.216" y="37.3621" fill="black" font-size="13.5253" font-family="Helvetica">C_Co_1600V</text>
<path d="M442.705,40.5094h 113.386" fill="none" stroke="black"/>
<text xml:space="preserve" x="448.033" y="52.7943" fill="black" font-size="13.1417" font-family="Helvetica">Entries </text>
<text xml:space="preserve" x="510.574" y="52.7943" fill="black" font-size="13.1417" font-family="Helvetica"> 10000</text>
<text xml:space="preserve" x="448.033" y="68.2264" fill="black" font-size="13.1417" font-family="Helvetica">Mean  </text>
<text xml:space="preserve" x="510.574" y="68.2264" fill="black" font-size="13.1417" font-family="Helvetica">  798.5</text>
<text xml:space="preserve" x="448.033" y="84.4708" fill="black" font-size="13.1417" font-family="Helvetica">Std Dev   </text>
<text xml:space="preserve" x="513.01" y="83.6586" fill="black" font-size="13.1417" font-family="Helvetica">  486.1</text>
<path d="M57.1929,347.224h 453.543" fill="none" stroke="black"/>
<path d="M57.1929,337.964v 9.2593" fill="none" stroke="black"/>
<path d="M75.3346,342.594v 4.62965" fill="none" stroke="black"/>
<path d="M93.4764,342.594v 4.62965" fill="none" stroke="black"/>
<path d="M111.618,342.594v 4.62965" fill="none" stroke="black"/>
<path d="M129.76,342.594v 4.62965" fill="none" stroke="black"/>
<path d="M147.902,337.964v 9.2593" fill="none" stroke="black"/>
<path d="M166.043,342.594v 4.62965" fill="none" stroke="black"/>
<path d="M184.185,342.594v 4.62965" fill="none" stroke="black"/>
<path d="M202.327,342.594v 4.62965" fill="none" stroke="black"/>
<path d="M220.469,342.594v 4.62965" fill="none" stroke="black"/>
<path d="M238.61,337.964v 9.2593" fill="none" stroke="black"/>
<path d="M256.752,342.594v 4.62965" fill="none" stroke="black"/>
<path d="M274.894,342.594v 4.62965" fill="none" stroke="black"/>
<path d="M293.035,342.594v 4.62965" fill="none" stroke="black"/>
<path d="M311.177,342.594v 4.62965" fill="none" stroke="black"/>
<path d="M329.319,337.964v 9.2593" fill="none" stroke="black"/>
<path d="M347.461,342.594v 4.62965" fill="none" stroke="black"/>
<path d="M365.602,342.594v 4.62965" fill="none" stroke="black"/>
<path d="M383.744,342.594v 4.62965" fill="none" stroke="black"/>
<path d="M401.886,342.594v 4.62965" fill="none" stroke="black"/>
<path d="M420.028,337.964v 9.2593" fill="none" stroke="black"/>
<path d="M438.169,342.594v 4.62965" fill="none" stroke="black"/>
<path d="M456.311,342.594v 4.62965" fill="none" stroke="black"/>
<path d="M474.453,342.594v 4.62965" fill="none" stroke="black"/>
<path d="M492.594,342.594v 4.62965" fill="none" stroke="black"/>
<path d="M510.736,337.964v 9.2593" fill="none" stroke="black"/>
<text xml:space="preserve" x="52.482" y="359.813" fill="black" font-size="12.8882" font-family="Helvetica">0</text>
<text xml:space="preserve" x="136.141" y="359.813" fill="black" font-size="12.8882" font-family="Helvetica">500</text>
<text xml:space="preserve" x="223.86" y="359.813" fill="black" font-size="12.8882" font-family="Helvetica">1000</text>
<text xml:space="preserve" x="314.017" y="359.813" fill="black" font-size="12.8882" font-family="Helvetica">1500</text>
<text xml:space="preserve" x="404.985" y="359.813" fill="black" font-size="12.8882" font-family="Helvetica">2000</text>
<text xml:space="preserve" x="495.954" y="359.813" fill="black" font-size="12.8882" font-family="Helvetica">2500</text>
<text xml:space="preserve" x="448.845" y="374.433" fill="black" font-size="12.8882" font-family="Helvetica">ADC value</text>
<path d="M57.1929,347.224v -308.643" fill="none" stroke="black"/>
<path d="M70.7992,347.224h -13.6063" fill="none" stroke="black"/>
<path d="M63.9961,335.226h -6.80315" fill="none" stroke="black"/>
<path d="M63.9961,323.228h -6.80315" fill="none" stroke="black"/>
<path d="M63.9961,311.23h -6.80315" fill="none" stroke="black"/>
<path d="M63.9961,299.233h -6.80315" fill="none" stroke="black"/>
<path d="M70.7992,287.235h -13.6063" fill="none" stroke="black"/>
<path d="M63.9961,275.237h -6.80315" fill="none" stroke="black"/>
<path d="M63.9961,263.239h -6.80315" fill="none" stroke="black"/>
<path d="M63.9961,251.241h -6.80315" fill="none" stroke="black"/>
<path d="M63.9961,239.244h -6.80315" fill="none" stroke="black"/>
<path d="M70.7992,227.246h -13.6063" fill="none" stroke="black"/>
<path d="M63.9961,215.248h -6.80315" fill="none" stroke="black"/>
<path d="M63.9961,203.25h -6.80315" fill="none" stroke="black"/>
<path d="M63.9961,191.252h -6.80315" fill="none" stroke="black"/>
<path d="M63.9961,179.255h -6.80315" fill="none" stroke="black"/>
<path d="M70.7992,167.257h -13.6063" fill="none" stroke="black"/>
<path d="M63.9961,155.259h -6.80315" fill="none" stroke="black"/>
<path d="M63.9961,143.261h -6.80315" fill="none" stroke="black"/>
<path d="M63.9961,131.263h -6.80315" fill="none" stroke="black"/>
<path d="M63.9961,119.266h -6.80315" fill="none" stroke="black"/>
<path d="M70.7992,107.268h -13.6063" fill="none" stroke="black"/>
<path d="M63.9961,95.27h -6.80315" fill="none" stroke="black"/>
<path d="M63.9961,83.2722h -6.80315" fill="none" stroke="black"/>
<path d="M63.9961,71.2744h -6.80315" fill="none" stroke="black"/>
<path d="M63.9961,59.2766h -6.80315" fill="none" stroke="black"/>
<path d="M70.7992,47.2788h -13.6063" fill="none" stroke="black"/>
<path d="M70.7992,47.2788h -13.6063" fill="none" stroke="black"/>
<text xml:space="preserve" x="46.7965" y="351.691" fill="black" font-size="12.8882" font-family="Helvetica">0</text>
<text xml:space="preserve" x="39.4865" y="291.587" fill="black" font-size="12.8882" font-family="Helvetica">10</text>
<text xml:space="preserve" x="39.4865" y="231.483" fill="black" font-size="12.8882" font-family="Helvetica">20</text>
<text xml:space="preserve" x="39.4865" y="171.378" fill="black" font-size="12.8882" font-family="Helvetica">30</text>
<text xml:space="preserve" x="39.4865" y="112.086" fill="black" font-size="12.8882" font-family="Helvetica">40</text>
<text xml:space="preserve" x="39.4865" y="51.982" fill="black" font-size="12.8882" font-family="Helvetica">50</text>
<g transform="rotate(-90,28.9277,77.9731)">
<text xml:space="preserve" x="28.9277" y="77.9731" fill="black" font-size="12.8882" font-family="Helvetica">Events</text>
</g>
<rect x="442.705" y="25.0773" width="113.386" height="61.7287" fill="white"/>
<path d="M442.705,86.8059h 113.386" fill="none" stroke="black"/>
<path d="M556.091,86.8059v -61.7287" fill="none" stroke="black"/>
<path d="M556.091,25.0773h -113.386" fill="none" stroke="black"/>
<path d="M442.705,25.0773v 61.7287" fill="none" stroke="black"/>
<text xml:space="preserve" x="460.216" y="37.3621" fill="black" font-size="13.5253" font-family="Helvetica">C_Co_1600V</text>
<path d="M442.705,40.5094h 113.386" fill="none" stroke="black"/>
<text xml:space="preserve" x="448.033" y="52.7943" fill="black" font-size="13.1417" font-family="Helvetica">Entries </text>
<text xml:space="preserve" x="510.574" y="52.7943" fill="black" font-size="13.1417" font-family="Helvetica"> 10000</text>
<text xml:space="preserve" x="448.033" y="68.2264" fill="black" font-size="13.1417" font-family="Helvetica">Mean  </text>
<text xml:space="preserve" x="510.574" y="68.2264" fill="black" font-size="13.1417" font-family="Helvetica">  798.5</text>
<text xml:space="preserve" x="448.033" y="84.4708" fill="black" font-size="13.1417" font-family="Helvetica">Std Dev   </text>
<text xml:space="preserve" x="513.01" y="83.6586" fill="black" font-size="13.1417" font-family="Helvetica">  486.1</text>
<text xml:space="preserve" x="232.795" y="17.8688" fill="black" font-size="17.0471" font-family="Helvetica">C_Co_1600V</text></svg>
