<?xml version="1.0" standalone="no"?>
<svg width="567.429" height="384.68" viewBox="0 0 567.429 384.68" xmlns="http://www.w3.org/2000/svg" shape-rendering="crispEdges">
<title>
img/calibration/C_Co_1600V.svg
</title>
<desc>
Creator: ROOT Version 6.22/09
CreationDate: Wed Jun  9 00:54:00 2021</desc>
<defs>
</defs>
<rect x="0.5" y="0" width="566.929" height="384.18" fill="white"/>
<rect x="57.1929" y="38.418" width="453.543" height="307.344" fill="white"/>
<rect x="57.1929" y="38.418" width="453.543" height="307.344" fill="none" stroke="black"/>
<rect x="57.1929" y="38.418" width="453.543" height="307.344" fill="white"/>
<rect x="57.1929" y="38.418" width="453.543" height="307.344" fill="none" stroke="black"/>
<path d="M57.1929,345.762h 0.453543v -11.9473h 0.907087v 5.97364h 0.453543v 5.97364h 0.453543v -5.97364h 0.453543v 5.97364h 0.907087v -5.97364h 0.453543v 5.97364h 0.907087v -5.97364h 0.453543v 5.97364h 0.453543v -5.97364h 0.453543v 5.97364h 0.907087v
 -11.9473h 0.453543v 5.97364h 0.453543v 5.97364h 0.907087v -5.97364h 0.453543v 5.97364h 0.453543v -11.9473h 0.453543v 11.9473h 0.907087v -5.97364h 0.907087v 5.97364h 0.453543v -5.97364h 0.453543v 5.97364h 0.453543v -5.97364h 0.453543v -5.97364h
 0.453543v 5.97364h 0.453543v 5.97364h 0.907087v -11.9473h 0.453543v 11.9473h 0.453543v -5.97364h 0.453543v 5.97364h 0.453543v -5.97364h 0.453543v 5.97364h 0.453543v -5.97364h 0.907087v 5.97364h 0.453543v -17.9209h 0.453543v 17.9209h 0.453543v
 -5.97364h 0.453543v -23.8946h 0.453543v 23.8946h 0.453543v -11.9473h 0.453543v -5.97364h 0.453543v -5.97364h 0.907087v -11.9473h 0.453543v 5.97364h 0.453543v -11.9473h 0.907087v -29.8682h 0.453543v 11.9473h 0.453543v -17.9209h 0.453543v 29.8682h
 0.453543v -11.9473h 0.453543v -17.9209h 0.907087v -23.8946h 0.453543v -41.8155h 0.453543v 35.8418h 0.453543v -5.97364h 0.907087v 5.97364h 0.453543v -11.9473h 0.453543v -17.9209h 0.453543v -53.7628h 0.453543v 35.8418h 0.453543v -23.8946h 0.453543v
 47.7891h 0.453543v -41.8155h 0.453543v 65.7101h 0.453543v -89.6046h 0.453543v 77.6573h 0.453543v -71.6837h 0.453543v -23.8946h 0.453543v 5.97364h 0.453543v 35.8418h 0.907087v 35.8418h 0.453543v 23.8946h 0.453543v -59.7364h 0.453543v 17.9209h
 0.453543v -5.97364h 0.453543v -5.97364h 0.453543v -35.8418h 0.453543v 11.9473h 0.453543v -5.97364h 0.453543v 53.7628h 0.453543v 23.8946h 0.453543v -125.446h 0.453543v 47.7891h 0.453543v -11.9473h 0.453543v 29.8682h 0.453543v 11.9473h 0.453543v
 -41.8155h 0.453543v -41.8155h 0.453543v 41.8155h 0.453543v -41.8155h 0.453543v 29.8682h 0.453543v -29.8682h 0.453543v 29.8682h 0.453543v 29.8682h 0.453543v 5.97364h 0.907087v -23.8946h 0.453543v -17.9209h 0.453543v 11.9473h 0.453543v -23.8946h
 0.453543v 65.7101h 0.453543v -5.97364h 0.453543v -11.9473h 0.453543v 23.8946h 0.453543v -47.7891h 0.453543v -71.6837h 0.453543v 83.631h 0.453543v 5.97364h 0.453543v -5.97364h 0.453543v 53.7628h 0.453543v -17.9209h 0.907087v 29.8682h 0.453543v
 -5.97364h 0.453543v -71.6837h 0.453543v -17.9209h 0.453543v 77.6573h 0.453543v -17.9209h 0.453543v 35.8418h 0.453543v -29.8682h 0.453543v -11.9473h 0.453543v 11.9473h 0.453543v 35.8418h 0.453543v -23.8946h 0.453543v -5.97364h 0.453543v -11.9473h
 0.453543v 29.8682h 0.453543v -41.8155h 0.453543v 71.6837h 0.453543v -17.9209h 0.453543v 41.8155h 0.453543v -119.473h 0.453543v 71.6837h 0.453543v -65.7101h 0.453543v 89.6046h 0.453543v 17.9209h 0.453543v -35.8418h 0.453543v -11.9473h 0.453543v
 35.8418h 0.453543v 17.9209h 0.453543v -35.8418h 0.453543v -5.97364h 0.453543v 11.9473h 0.453543v -11.9473h 0.453543v -5.97364h 0.453543v 5.97364h 0.453543v -11.9473h 0.453543v 77.6573h 0.453543v -17.9209h 0.453543v -11.9473h 0.453543v -17.9209h
 0.453543v 35.8418h 0.453543v -35.8418h 0.453543v 11.9473h 0.453543v -59.7364h 0.453543v 11.9473h 0.453543v 23.8946h 0.453543v 65.7101h 0.453543v -29.8682h 0.453543v 5.97364h 0.453543v 5.97364h 0.453543v -35.8418h 0.453543v 71.6837h 0.453543v
 -47.7891h 0.453543v -23.8946h 0.453543v 29.8682h 0.453543v -11.9473h 0.453543v 35.8418h 0.453543v -29.8682h 0.453543v 5.97364h 0.453543v -29.8682h 0.453543v 47.7891h 0.453543v -5.97364h 0.453543v 5.97364h 0.453543v -47.7891h 0.907087v 47.7891h
 0.453543v -35.8418h 0.453543v 5.97364h 0.453543v -5.97364h 0.453543v 35.8418h 0.453543v -17.9209h 0.453543v -5.97364h 0.453543v -11.9473h 0.453543v 29.8682h 0.453543v -29.8682h 0.453543v 5.97364h 0.453543v 35.8418h 0.453543v 5.97364h 0.453543v
 -5.97364h 0.453543v -23.8946h 0.907087v -11.9473h 0.453543v 11.9473h 0.907087v -5.97364h 0.453543v 29.8682h 0.453543v -17.9209h 0.453543v 23.8946h 0.453543v -29.8682h 0.453543v -47.7891h 0.453543v 11.9473h 0.453543v 47.7891h 0.453543v -17.9209h
 0.907087v 5.97364h 0.453543v 5.97364h 0.907087v -11.9473h 0.453543v -29.8682h 0.453543v 29.8682h 0.907087v -47.7891h 0.453543v 29.8682h 0.907087v 17.9209h 0.453543v -17.9209h 0.453543v 17.9209h 0.453543v -5.97364h 0.453543v -29.8682h 0.453543v
 41.8155h 0.453543v -17.9209h 0.453543v -11.9473h 0.453543v -17.9209h 0.453543v 35.8418h 0.453543v -11.9473h 0.453543v -5.97364h 0.453543v 17.9209h 0.453543v 17.9209h 0.453543v -5.97364h 0.453543v -23.8946h 0.453543v 5.97364h 0.453543v -23.8946h
 0.453543v 59.7364h 0.453543v -29.8682h 0.453543v -35.8418h 0.453543v 35.8418h 0.453543v 5.97364h 0.453543v 53.7628h 0.453543v -53.7628h 0.453543v 5.97364h 0.907087v -11.9473h 0.453543v 5.97364h 0.453543v 53.7628h 0.453543v -23.8946h 0.453543v
 -23.8946h 0.907087v 17.9209h 0.453543v 5.97364h 0.453543v 11.9473h 0.453543v 5.97364h 0.453543v -41.8155h 0.453543v 29.8682h 0.453543v -17.9209h 0.453543v -11.9473h 0.907087v 59.7364h 0.453543v -59.7364h 0.453543v 11.9473h 0.453543v 5.97364h
 0.453543v 5.97364h 0.453543v -29.8682h 0.453543v 53.7628h 0.453543v -17.9209h 0.453543v 29.8682h 0.453543v -41.8155h 0.453543v -11.9473h 0.453543v -23.8946h 0.453543v 41.8155h 0.453543v -11.9473h 0.453543v -47.7891h 0.453543v 23.8946h 0.453543v
 5.97364h 0.453543v 11.9473h 0.453543v -23.8946h 0.453543v 47.7891h 0.453543v -53.7628h 0.453543v -5.97364h 0.453543v 41.8155h 1.36063v -35.8418h 0.453543v 29.8682h 0.907087v -29.8682h 0.453543v 11.9473h 0.453543v 41.8155h 0.453543v -23.8946h
 0.453543v -5.97364h 0.453543v -17.9209h 0.453543v -47.7891h 0.453543v 83.631h 0.453543v -23.8946h 0.453543v 23.8946h 0.453543v -41.8155h 0.453543v -5.97364h 0.453543v 11.9473h 0.453543v -5.97364h 0.907087v 11.9473h 0.453543v 23.8946h 0.453543v
 -17.9209h 0.453543v 17.9209h 0.453543v -35.8418h 0.453543v 65.7101h 0.453543v -47.7891h 0.453543v 17.9209h 0.453543v -11.9473h 0.453543v 53.7628h 0.453543v -53.7628h 0.907087v 11.9473h 0.453543v -11.9473h 0.453543v 29.8682h 0.453543v -23.8946h
 0.453543v 35.8418h 0.453543v -17.9209h 0.453543v -11.9473h 0.453543v 29.8682h 0.453543v -17.9209h 0.453543v -17.9209h 0.453543v 11.9473h 0.453543v -5.97364h 0.453543v 5.97364h 0.453543v -11.9473h 0.453543v 5.97364h 0.453543v -29.8682h 0.453543v
 35.8418h 0.453543v 11.9473h 0.453543v -5.97364h 0.907087v 5.97364h 0.453543v 11.9473h 0.453543v -29.8682h 0.907087v 35.8418h 0.453543v 5.97364h 0.453543v -29.8682h 0.453543v -17.9209h 0.453543v 11.9473h 0.453543v 35.8418h 0.453543v -11.9473h
 0.453543v -17.9209h 0.453543v 11.9473h 0.453543v 5.97364h 0.453543v -23.8946h 0.453543v -5.97364h 0.453543v 23.8946h 0.453543v 35.8418h 0.453543v -11.9473h 0.453543v -23.8946h 0.453543v -23.8946h 0.453543v 11.9473h 0.453543v 17.9209h 0.453543v
 -29.8682h 0.453543v 5.97364h 0.453543v 5.97364h 0.453543v -17.9209h 0.453543v -5.97364h 0.453543v -5.97364h 0.453543v 29.8682h 0.907087v 17.9209h 0.453543v -5.97364h 0.453543v -35.8418h 0.453543v -59.7364h 0.453543v 47.7891h 0.453543v 65.7101h
 0.453543v -29.8682h 0.453543v 17.9209h 0.453543v -47.7891h 0.453543v 41.8155h 0.453543v 11.9473h 0.453543v -23.8946h 0.453543v 17.9209h 0.453543v -47.7891h 0.453543v 29.8682h 0.453543v 5.97364h 0.453543v 17.9209h 0.453543v -41.8155h 0.453543v
 41.8155h 0.453543v -35.8418h 0.453543v 11.9473h 0.453543v -5.97364h 0.453543v -23.8946h 0.453543v -5.97364h 0.453543v 23.8946h 0.453543v 41.8155h 0.453543v -35.8418h 0.453543v 23.8946h 0.453543v -23.8946h 0.453543v 17.9209h 0.453543v -59.7364h
 0.453543v 29.8682h 0.453543v 35.8418h 0.453543v -17.9209h 0.453543v -11.9473h 0.453543v 5.97364h 0.453543v -47.7891h 0.453543v 41.8155h 0.453543v -11.9473h 0.453543v 23.8946h 0.907087v -23.8946h 0.453543v 41.8155h 0.453543v -23.8946h 0.453543v
 5.97364h 0.453543v -17.9209h 0.453543v 11.9473h 0.453543v 23.8946h 0.453543v -113.499h 0.453543v 95.5783h 0.453543v -41.8155h 0.453543v 41.8155h 0.453543v -11.9473h 0.453543v 23.8946h 0.453543v -29.8682h 0.453543v -5.97364h 0.453543v 29.8682h
 0.907087v -5.97364h 0.907087v -17.9209h 0.453543v 23.8946h 0.453543v -5.97364h 0.453543v 11.9473h 0.453543v -35.8418h 0.453543v 35.8418h 0.453543v 17.9209h 0.453543v -35.8418h 0.453543v 17.9209h 0.453543v -53.7628h 0.453543v 59.7364h 0.453543v
 -11.9473h 0.453543v -17.9209h 0.453543v 5.97364h 0.453543v 17.9209h 0.453543v -35.8418h 0.453543v 35.8418h 0.907087v 17.9209h 0.453543v -53.7628h 0.453543v 41.8155h 0.453543v -35.8418h 0.453543v 5.97364h 0.453543v 23.8946h 0.453543v 5.97364h
 0.453543v -11.9473h 0.453543v 17.9209h 0.453543v -17.9209h 0.453543v 17.9209h 0.907087v -47.7891h 0.453543v 47.7891h 0.453543v -23.8946h 0.453543v -5.97364h 0.453543v 5.97364h 0.453543v 29.8682h 0.453543v -17.9209h 0.907087v 11.9473h 0.453543v
 -5.97364h 0.453543v -11.9473h 0.453543v 17.9209h 0.453543v -11.9473h 0.453543v 11.9473h 0.453543v 29.8682h 0.453543v -5.97364h 0.453543v -5.97364h 0.453543v -29.8682h 0.453543v 23.8946h 0.453543v -47.7891h 0.453543v -17.9209h 0.453543v 65.7101h
 0.453543v -29.8682h 0.453543v 5.97364h 0.453543v 35.8418h 0.453543v -23.8946h 0.453543v -53.7628h 0.453543v 41.8155h 0.453543v 17.9209h 0.453543v 23.8946h 0.453543v -59.7364h 0.453543v 23.8946h 0.453543v -5.97364h 0.453543v 5.97364h 0.453543v
 5.97364h 0.453543v -29.8682h 0.453543v 5.97364h 0.453543v 5.97364h 0.453543v 5.97364h 0.453543v -5.97364h 0.453543v -5.97364h 0.907087v 23.8946h 0.453543v -23.8946h 0.453543v -11.9473h 0.453543v 29.8682h 0.453543v -35.8418h 0.453543v -17.9209h
 0.453543v 17.9209h 0.453543v 35.8418h 0.453543v -41.8155h 0.453543v -5.97364h 0.453543v 23.8946h 0.453543v 23.8946h 0.453543v -35.8418h 0.453543v 35.8418h 0.453543v -77.6573h 0.453543v 47.7891h 0.453543v -17.9209h 0.453543v 11.9473h 0.453543v
 5.97364h 0.453543v -59.7364h 0.453543v 17.9209h 0.453543v 5.97364h 0.453543v -29.8682h 0.453543v 41.8155h 0.453543v 5.97364h 0.453543v -29.8682h 0.453543v -11.9473h 0.453543v -29.8682h 0.453543v 17.9209h 0.453543v 5.97364h 0.453543v 29.8682h
 0.453543v -41.8155h 0.453543v 23.8946h 0.907087v -17.9209h 0.453543v 41.8155h 0.453543v -5.97364h 0.453543v -41.8155h 0.907087v -35.8418h 0.453543v 35.8418h 0.453543v 23.8946h 0.453543v -29.8682h 0.453543v -17.9209h 0.453543v 65.7101h 0.453543v
 -35.8418h 0.453543v 41.8155h 0.453543v -41.8155h 0.907087v 47.7891h 0.453543v 5.97364h 0.453543v 23.8946h 0.453543v -23.8946h 0.453543v -59.7364h 0.453543v 89.6046h 0.453543v -17.9209h 0.453543v 23.8946h 0.453543v -5.97364h 0.453543v -11.9473h
 0.453543v 11.9473h 0.453543v 5.97364h 0.453543v -35.8418h 0.453543v 35.8418h 0.453543v 5.97364h 0.453543v 5.97364h 0.453543v 17.9209h 0.453543v -11.9473h 0.453543v 5.97364h 0.453543v 5.97364h 0.453543v -23.8946h 0.453543v -29.8682h 0.453543v
 35.8418h 0.453543v 35.8418h 0.453543v -35.8418h 0.453543v -23.8946h 0.453543v 29.8682h 0.453543v -5.97364h 0.453543v 17.9209h 0.453543v -35.8418h 0.453543v 23.8946h 0.453543v 35.8418h 0.453543v -17.9209h 0.453543v -29.8682h 0.453543v 17.9209h
 0.453543v -5.97364h 0.453543v -17.9209h 0.453543v -11.9473h 0.453543v 17.9209h 0.453543v -41.8155h 0.453543v 47.7891h 0.453543v -5.97364h 0.453543v -77.6573h 0.453543v 41.8155h 0.453543v -17.9209h 0.453543v -5.97364h 0.453543v 47.7891h 0.453543v
 -47.7891h 0.453543v 29.8682h 0.453543v -11.9473h 0.453543v -11.9473h 0.453543v 5.97364h 0.907087v -23.8946h 0.453543v 23.8946h 0.453543v 11.9473h 0.453543v -11.9473h 0.453543v 11.9473h 0.453543v -23.8946h 0.453543v -11.9473h 0.453543v 17.9209h
 0.453543v -5.97364h 0.453543v -23.8946h 0.453543v -11.9473h 0.453543v 53.7628h 0.453543v -35.8418h 0.453543v 5.97364h 0.453543v 5.97364h 0.453543v 11.9473h 0.453543v 41.8155h 0.453543v -5.97364h 0.453543v -35.8418h 0.453543v 17.9209h 0.907087v
 5.97364h 0.453543v -5.97364h 0.453543v 29.8682h 0.907087v 5.97364h 0.453543v -11.9473h 0.907087v 5.97364h 0.453543v 23.8946h 0.453543v -53.7628h 0.453543v 35.8418h 0.907087v 11.9473h 0.907087v 11.9473h 0.453543v -5.97364h 0.453543v 17.9209h
 0.453543v -5.97364h 0.453543v 5.97364h 0.453543v -23.8946h 0.453543v 17.9209h 0.907087v -11.9473h 0.453543v 23.8946h 0.453543v -5.97364h 0.453543v 11.9473h 0.453543v -23.8946h 0.453543v 5.97364h 0.453543v 17.9209h 0.453543v -17.9209h 0.453543v
 11.9473h 0.453543v 5.97364h 0.453543v -5.97364h 0.453543v -11.9473h 0.453543v 11.9473h 0.453543v 11.9473h 0.453543v -11.9473h 0.453543v 5.97364h 0.453543v -5.97364h 0.453543v 11.9473h 0.907087v -5.97364h 0.453543v -5.97364h 0.453543v 5.97364h
 0.907087v -11.9473h 0.453543v 11.9473h 0.453543v 5.97364h 0.453543v -5.97364h 1.36063v 5.97364h 0.453543v -5.97364h 0.453543v -5.97364h 0.453543v 11.9473h 0.907087v -11.9473h 0.453543v 11.9473h 0.453543v -5.97364h 0.453543v -5.97364h 0.453543v
 11.9473h 1.36063v -11.9473h 0.453543v 5.97364h 1.36063v -5.97364h 0.453543v 5.97364h 0.453543v -5.97364h 0.453543v 5.97364h 0.907087v -5.97364h 0.907087v -5.97364h 0.453543v 17.9209h 0.907087v -5.97364h 0.907087v 5.97364h 0.907087v -5.97364h
 0.453543v -5.97364h 0.453543v 11.9473h 0.453543v -5.97364h 0.453543v 5.97364h 0.453543v -11.9473h 0.453543v -5.97364h 0.453543v 17.9209h 0.453543v -5.97364h 0.453543v 5.97364h 0.453543v -17.9209h 0.907087v 11.9473h 0.907087v -5.97364h 0.453543v
 11.9473h 0.453543v -5.97364h 0.907087v -5.97364h 0.453543v 5.97364h 0.453543v 5.97364h 0.907087v -5.97364h 0.907087v 5.97364h 0.453543v -11.9473h 0.453543v 5.97364h 0.453543v 5.97364h 1.36063v -5.97364h 0.453543v 5.97364h 0.453543v -5.97364h
 0.453543v 5.97364h 2.26772v -5.97364h 1.81417v 5.97364h 0.907087v -5.97364h 0.907087v 5.97364h 0.907087v -11.9473h 0.453543v 11.9473h 0.453543v -5.97364h 0.453543v -5.97364h 0.453543v 11.9473h 1.81417v -5.97364h 1.36063v 5.97364h 0.453543v -11.9473h
 0.453543v 11.9473h 0.453543v -11.9473h 0.453543v 11.9473h 0.907087v -11.9473h 0.453543v 11.9473h 1.36063v -11.9473h 0.453543v 11.9473h 0.907087v -5.97364h 0.453543v 5.97364h 2.72126v -17.9209h 0.453543v 11.9473h 0.453543v -5.97364h 0.453543v
 11.9473h 2.26772v -11.9473h 0.453543v 11.9473h 0.453543v -11.9473h 0.453543v 5.97364h 0.453543v 5.97364h 0.907087v -5.97364h 0.453543v 5.97364h 1.36063v -5.97364h 0.453543v 5.97364h 0.453543v -5.97364h 0.907087v 5.97364h 0.453543v -5.97364h
 0.453543v 5.97364h 0.907087v -5.97364h 0.453543v 5.97364h 1.36063v -11.9473h 0.453543v 11.9473h 0.453543v -5.97364h 0.453543v -5.97364h 0.453543v -5.97364h 0.453543v 11.9473h 0.453543v 5.97364h 0.453543v -5.97364h 0.453543v 5.97364h 0.453543v
 -5.97364h 0.907087v -5.97364h 0.453543v 11.9473h 0.453543v -23.8946h 0.453543v 23.8946h 0.453543v -5.97364h 0.907087v 5.97364h 0.453543v -5.97364h 0.453543v 5.97364h 1.36063v -5.97364h 2.72126v 5.97364h 0.453543v -5.97364h 0.907087v 5.97364h
 2.26772v -5.97364h 1.36063v 5.97364h 0.453543v -5.97364h 0.453543v 5.97364h 2.26772v -5.97364h 0.453543v 5.97364h 0.907087v -5.97364h 0.907087v 5.97364h 1.36063v -17.9209h 0.453543v 17.9209h 0.453543v -5.97364h 0.453543v 5.97364h 0.453543v -5.97364h
 0.453543v 5.97364h 0.907087v -5.97364h 0.453543v 5.97364h 1.36063v -5.97364h 0.453543v 5.97364h 0.907087v -11.9473h 0.453543v 11.9473h 0.907087v -23.8946h 0.453543v 17.9209h 0.453543v 5.97364h 0.453543v -5.97364h 1.36063v 5.97364h 3.1748v -5.97364h
 0.453543v 5.97364h 0.453543v -5.97364h 0.907087v 5.97364h 3.1748v -5.97364h 0.453543v 5.97364h 1.81417v -17.9209h 0.453543v 17.9209h 0.907087v -5.97364h 0.907087v 5.97364h 0.453543v -5.97364h 0.453543v 5.97364h 0.453543v -5.97364h 0.453543v
 -5.97364h 0.453543v 11.9473h 1.36063v -5.97364h 0.453543v 5.97364h 7.71024v -5.97364h 0.453543v 5.97364h 5.44252v -11.9473h 0.453543v 11.9473h 0.907087v -5.97364h 0.453543v 5.97364h 0.907087v -5.97364h 0.453543v 5.97364h 0.453543v -5.97364h
 0.453543v 5.97364h 1.81417v -5.97364h 0.453543v 5.97364h 2.26772v -5.97364h 0.907087v 5.97364h 1.36063v -11.9473h 0.453543v 11.9473h 1.36063v -5.97364h 0.453543v 5.97364h 0.453543v -5.97364h 1.36063" fill="none" stroke="#000099"/>
<path d="M284.146,317.201l 0.362835, -1.6848l 0.362835, -1.74895l 0.362835, -1.81285l 0.362835, -1.87627l 0.362835, -1.93897l 0.362835, -2.00069l 0.362835, -2.06118l 0.362835, -2.12016l 0.362835, -2.17736l 0.362835, -2.23249l 0.362835, -2.28526l
 0.362835, -2.3354l 0.362835, -2.38259l 0.362835, -2.42655l 0.362835, -2.46699l 0.362835, -2.50362l 0.362835, -2.53615l 0.362835, -2.5643l 0.362835, -2.58781l 0.362835, -2.60641l 0.362835, -2.61987l 0.362835, -2.62794l 0.362835, -2.63041l 0.362835,
 -2.62708l 0.362835, -2.61777l 0.362835, -2.60231l 0.362835, -2.58058l 0.362835, -2.55245l 0.362835, -2.51784l 0.362835, -2.47669l 0.362835, -2.42896l 0.362835, -2.37465l 0.362835, -2.31378l 0.362835, -2.2464l 0.362835, -2.1726l 0.362835, -2.09249l
 0.362835, -2.00621l 0.362835, -1.91394l 0.362835, -1.81587l 0.362835, -1.71225l 0.362835, -1.60334l 0.362835, -1.48941l 0.362835, -1.37079l 0.362835, -1.24782l 0.362835, -1.12085l 0.362835, -0.990276l 0.362835, -0.856491l 0.362835, -0.719917l
 0.362835, -0.580991" fill="none" stroke="#ff0000" stroke-width="2"/>
<path d="M301.925,215.942l 0.362835, -0.440159l 0.362835, -0.297879l 0.362835, -0.154618l 0.362835, -0.0108463l 0.362835, 0.132961l 0.362835, 0.276329l 0.362835, 0.418787l 0.362835, 0.559867l 0.362835, 0.69911l 0.362835, 0.836066l 0.362835, 0.970299l
 0.362835, 1.10139l 0.362835, 1.22892l 0.362835, 1.35252l 0.362835, 1.47182l 0.362835, 1.58647l 0.362835, 1.69616l 0.362835, 1.8006l 0.362835, 1.89951l 0.362835, 1.99267l 0.362835, 2.07987l 0.362835, 2.16092l 0.362835, 2.23568l 0.362835, 2.30404l
 0.362835, 2.36589l 0.362835, 2.4212l 0.362835, 2.46992l 0.362835, 2.51206l 0.362835, 2.54765l 0.362835, 2.57675l 0.362835, 2.59944l 0.362835, 2.61583l 0.362835, 2.62606l 0.362835, 2.63028l 0.362835, 2.62868l 0.362835, 2.62144l 0.362835, 2.60878l
 0.362835, 2.59093l 0.362835, 2.56815l 0.362835, 2.54068l 0.362835, 2.50879l 0.362835, 2.47277l 0.362835, 2.43288l 0.362835, 2.38943l 0.362835, 2.34271l 0.362835, 2.293l 0.362835, 2.2406l 0.362835, 2.18581l 0.362835, 2.1289" fill="none"
 stroke="#ff0000" stroke-width="2"/>
<path d="M319.704,303.761l 0.362835, 2.07017" fill="none" stroke="#ff0000" stroke-width="2"/>
<path d="M320.475,332.053l 0.453543, -1.51454l 0.453543, -1.63586l 0.453543, -1.76083l 0.453543, -1.88877l 0.453543, -2.01888l 0.453543, -2.15027l 0.453543, -2.28194l 0.453543, -2.41279l 0.453543, -2.54164l 0.453543, -2.6672l 0.453543, -2.78812l
 0.453543, -2.90301l 0.453543, -3.01041l 0.453543, -3.10884l 0.453543, -3.19681l 0.453543, -3.27285l 0.453543, -3.3355l 0.453543, -3.38337l 0.453543, -3.41516l 0.453543, -3.42965l 0.453543, -3.42575l 0.453543, -3.40253l 0.453543, -3.3592l 0.453543,
 -3.29518l 0.453543, -3.21009l 0.453543, -3.10375l 0.453543, -2.97624l 0.453543, -2.82784l 0.453543, -2.65911l 0.453543, -2.47081l 0.453543, -2.26398l 0.453543, -2.03987l 0.453543, -1.79993l 0.453543, -1.54586l 0.453543, -1.27951l 0.453543, -1.0029l
 0.453543, -0.718186l 0.453543, -0.427643l 0.453543, -0.133615l 0.453543, 0.161503l 0.453543, 0.455303l 0.453543, 0.745393l 0.453543, 1.02943l 0.453543, 1.30517l 0.453543, 1.57044l 0.453543, 1.82325l 0.453543, 2.06176l 0.453543, 2.2843l 0.453543,
 2.48943" fill="none" stroke="#ff0000" stroke-width="2"/>
<path d="M342.698,251.32l 0.453543, 2.67591l 0.453543, 2.84276l 0.453543, 2.9892l 0.453543, 3.11472l 0.453543, 3.21904l 0.453543, 3.30213l 0.453543, 3.36417l 0.453543, 3.40557l 0.453543, 3.42693l 0.453543, 3.42905l 0.453543, 3.41288l 0.453543,
 3.37952l 0.453543, 3.33019l 0.453543, 3.26621l 0.453543, 3.18898l 0.453543, 3.09996l 0.453543, 3.00062l 0.453543, 2.89245l 0.453543, 2.77692l 0.453543, 2.6555l 0.453543, 2.52957l 0.453543, 2.40049l 0.453543, 2.26951l 0.453543, 2.13782l 0.453543,
 2.00651l 0.453543, 1.87656l 0.453543, 1.74887l 0.453543, 1.62422l 0.453543, 1.50328l 0.453543, 1.38663l 0.453543, 1.27473l 0.453543, 1.16796l 0.453543, 1.06661l 0.453543, 0.970865l 0.453543, 0.880845l 0.453543, 0.796596l 0.453543, 0.718098l
 0.453543, 0.645276l 0.453543, 0.578006l 0.453543, 0.516121l 0.453543, 0.45942l 0.453543, 0.407677l 0.453543, 0.360641l 0.453543, 0.318048l 0.453543, 0.279625l 0.453543, 0.245093l 0.453543, 0.214171l 0.453543, 0.186583l 0.453543, 0.162057"
 fill="none" stroke="#ff0000" stroke-width="2"/>
<path d="M364.922,344.825l 0.453543, 0.140332" fill="none" stroke="#ff0000" stroke-width="2"/>
<rect x="442.705" y="24.9717" width="113.386" height="61.4688" fill="white"/>
<path d="M442.705,86.4405h 113.386" fill="none" stroke="black"/>
<path d="M556.091,86.4405v -61.4688" fill="none" stroke="black"/>
<path d="M556.091,24.9717h -113.386" fill="none" stroke="black"/>
<path d="M442.705,24.9717v 61.4688" fill="none" stroke="black"/>
<text xml:space="preserve" x="460.216" y="36.5499" fill="black" font-size="13.4705" font-family="Helvetica">C_Co_1600V</text>
<path d="M442.705,40.3389h 113.386" fill="none" stroke="black"/>
<text xml:space="preserve" x="448.033" y="52.7943" fill="black" font-size="12.7411" font-family="Helvetica">Entries </text>
<text xml:space="preserve" x="513.01" y="52.7943" fill="black" font-size="12.7411" font-family="Helvetica"> 10000</text>
<text xml:space="preserve" x="448.033" y="68.2264" fill="black" font-size="12.7411" font-family="Helvetica">Mean  </text>
<text xml:space="preserve" x="513.01" y="68.2264" fill="black" font-size="12.7411" font-family="Helvetica">  798.5</text>
<text xml:space="preserve" x="448.033" y="82.8464" fill="black" font-size="12.7411" font-family="Helvetica">Std Dev   </text>
<text xml:space="preserve" x="515.447" y="82.8464" fill="black" font-size="12.7411" font-family="Helvetica">  486.1</text>
<path d="M57.1929,345.762h 453.543" fill="none" stroke="black"/>
<path d="M57.1929,336.541v 9.22031" fill="none" stroke="black"/>
<path d="M75.3346,341.152v 4.61016" fill="none" stroke="black"/>
<path d="M93.4764,341.152v 4.61016" fill="none" stroke="black"/>
<path d="M111.618,341.152v 4.61016" fill="none" stroke="black"/>
<path d="M129.76,341.152v 4.61016" fill="none" stroke="black"/>
<path d="M147.902,336.541v 9.22031" fill="none" stroke="black"/>
<path d="M166.043,341.152v 4.61016" fill="none" stroke="black"/>
<path d="M184.185,341.152v 4.61016" fill="none" stroke="black"/>
<path d="M202.327,341.152v 4.61016" fill="none" stroke="black"/>
<path d="M220.469,341.152v 4.61016" fill="none" stroke="black"/>
<path d="M238.61,336.541v 9.22031" fill="none" stroke="black"/>
<path d="M256.752,341.152v 4.61016" fill="none" stroke="black"/>
<path d="M274.894,341.152v 4.61016" fill="none" stroke="black"/>
<path d="M293.035,341.152v 4.61016" fill="none" stroke="black"/>
<path d="M311.177,341.152v 4.61016" fill="none" stroke="black"/>
<path d="M329.319,336.541v 9.22031" fill="none" stroke="black"/>
<path d="M347.461,341.152v 4.61016" fill="none" stroke="black"/>
<path d="M365.602,341.152v 4.61016" fill="none" stroke="black"/>
<path d="M383.744,341.152v 4.61016" fill="none" stroke="black"/>
<path d="M401.886,341.152v 4.61016" fill="none" stroke="black"/>
<path d="M420.028,336.541v 9.22031" fill="none" stroke="black"/>
<path d="M438.169,341.152v 4.61016" fill="none" stroke="black"/>
<path d="M456.311,341.152v 4.61016" fill="none" stroke="black"/>
<path d="M474.453,341.152v 4.61016" fill="none" stroke="black"/>
<path d="M492.594,341.152v 4.61016" fill="none" stroke="black"/>
<path d="M510.736,336.541v 9.22031" fill="none" stroke="black"/>
<text xml:space="preserve" x="53.2943" y="358.189" fill="black" font-size="12.836" font-family="Helvetica">0</text>
<text xml:space="preserve" x="136.953" y="358.189" fill="black" font-size="12.836" font-family="Helvetica">500</text>
<text xml:space="preserve" x="224.673" y="358.189" fill="black" font-size="12.836" font-family="Helvetica">1000</text>
<text xml:space="preserve" x="314.829" y="358.189" fill="black" font-size="12.836" font-family="Helvetica">1500</text>
<text xml:space="preserve" x="405.797" y="358.189" fill="black" font-size="12.836" font-family="Helvetica">2000</text>
<text xml:space="preserve" x="496.766" y="358.189" fill="black" font-size="12.836" font-family="Helvetica">2500</text>
<text xml:space="preserve" x="452.094" y="371.996" fill="black" font-size="12.836" font-family="Helvetica">ADC value</text>
<path d="M57.1929,345.762v -307.344" fill="none" stroke="black"/>
<path d="M70.7992,345.762h -13.6063" fill="none" stroke="black"/>
<path d="M63.9961,333.815h -6.80315" fill="none" stroke="black"/>
<path d="M63.9961,321.867h -6.80315" fill="none" stroke="black"/>
<path d="M63.9961,309.92h -6.80315" fill="none" stroke="black"/>
<path d="M63.9961,297.973h -6.80315" fill="none" stroke="black"/>
<path d="M70.7992,286.025h -13.6063" fill="none" stroke="black"/>
<path d="M63.9961,274.078h -6.80315" fill="none" stroke="black"/>
<path d="M63.9961,262.131h -6.80315" fill="none" stroke="black"/>
<path d="M63.9961,250.184h -6.80315" fill="none" stroke="black"/>
<path d="M63.9961,238.236h -6.80315" fill="none" stroke="black"/>
<path d="M70.7992,226.289h -13.6063" fill="none" stroke="black"/>
<path d="M63.9961,214.342h -6.80315" fill="none" stroke="black"/>
<path d="M63.9961,202.394h -6.80315" fill="none" stroke="black"/>
<path d="M63.9961,190.447h -6.80315" fill="none" stroke="black"/>
<path d="M63.9961,178.5h -6.80315" fill="none" stroke="black"/>
<path d="M70.7992,166.553h -13.6063" fill="none" stroke="black"/>
<path d="M63.9961,154.605h -6.80315" fill="none" stroke="black"/>
<path d="M63.9961,142.658h -6.80315" fill="none" stroke="black"/>
<path d="M63.9961,130.711h -6.80315" fill="none" stroke="black"/>
<path d="M63.9961,118.763h -6.80315" fill="none" stroke="black"/>
<path d="M70.7992,106.816h -13.6063" fill="none" stroke="black"/>
<path d="M63.9961,94.8689h -6.80315" fill="none" stroke="black"/>
<path d="M63.9961,82.9216h -6.80315" fill="none" stroke="black"/>
<path d="M63.9961,70.9743h -6.80315" fill="none" stroke="black"/>
<path d="M63.9961,59.027h -6.80315" fill="none" stroke="black"/>
<path d="M70.7992,47.0798h -13.6063" fill="none" stroke="black"/>
<path d="M70.7992,47.0798h -13.6063" fill="none" stroke="black"/>
<text xml:space="preserve" x="47.6087" y="350.067" fill="black" font-size="12.836" font-family="Helvetica">0</text>
<text xml:space="preserve" x="41.111" y="290.775" fill="black" font-size="12.836" font-family="Helvetica">10</text>
<text xml:space="preserve" x="41.111" y="230.67" fill="black" font-size="12.836" font-family="Helvetica">20</text>
<text xml:space="preserve" x="41.111" y="171.378" fill="black" font-size="12.836" font-family="Helvetica">30</text>
<text xml:space="preserve" x="41.111" y="111.274" fill="black" font-size="12.836" font-family="Helvetica">40</text>
<text xml:space="preserve" x="41.111" y="51.1698" fill="black" font-size="12.836" font-family="Helvetica">50</text>
<g transform="rotate(-90,28.9277,75.5364)">
<text xml:space="preserve" x="28.9277" y="75.5364" fill="black" font-size="12.836" font-family="Helvetica">Events</text>
</g>
<rect x="442.705" y="24.9717" width="113.386" height="61.4688" fill="white"/>
<path d="M442.705,86.4405h 113.386" fill="none" stroke="black"/>
<path d="M556.091,86.4405v -61.4688" fill="none" stroke="black"/>
<path d="M556.091,24.9717h -113.386" fill="none" stroke="black"/>
<path d="M442.705,24.9717v 61.4688" fill="none" stroke="black"/>
<text xml:space="preserve" x="460.216" y="36.5499" fill="black" font-size="13.4705" font-family="Helvetica">C_Co_1600V</text>
<path d="M442.705,40.3389h 113.386" fill="none" stroke="black"/>
<text xml:space="preserve" x="448.033" y="52.7943" fill="black" font-size="12.7411" font-family="Helvetica">Entries </text>
<text xml:space="preserve" x="513.01" y="52.7943" fill="black" font-size="12.7411" font-family="Helvetica"> 10000</text>
<text xml:space="preserve" x="448.033" y="68.2264" fill="black" font-size="12.7411" font-family="Helvetica">Mean  </text>
<text xml:space="preserve" x="513.01" y="68.2264" fill="black" font-size="12.7411" font-family="Helvetica">  798.5</text>
<text xml:space="preserve" x="448.033" y="82.8464" fill="black" font-size="12.7411" font-family="Helvetica">Std Dev   </text>
<text xml:space="preserve" x="515.447" y="82.8464" fill="black" font-size="12.7411" font-family="Helvetica">  486.1</text>
<text xml:space="preserve" x="230.358" y="18.681" fill="black" font-size="17.9813" font-family="Helvetica">C_Co_1600V</text></svg>
