<?xml version="1.0" standalone="no"?>
<svg width="567.429" height="384.969" viewBox="0 0 567.429 384.969" xmlns="http://www.w3.org/2000/svg" shape-rendering="crispEdges">
<title>
img/calibration/C_Cs_1600V.svg
</title>
<desc>
Creator: ROOT Version 6.22/09
CreationDate: Wed Jun  9 15:25:04 2021</desc>
<defs>
</defs>
<rect x="0.5" y="0" width="566.929" height="384.469" fill="white"/>
<rect x="57.1929" y="38.4469" width="453.543" height="307.575" fill="white"/>
<rect x="57.1929" y="38.4469" width="453.543" height="307.575" fill="none" stroke="black"/>
<rect x="57.1929" y="38.4469" width="453.543" height="307.575" fill="white"/>
<rect x="57.1929" y="38.4469" width="453.543" height="307.575" fill="none" stroke="black"/>
<path d="M57.1929,346.022h 2.26772v -8.78787h 0.453543v 8.78787h 0.453543v -2.92929h 0.907087v 2.92929h 2.26772v -2.92929h 0.453543v 2.92929h 1.36063v -2.92929h 0.453543v 2.92929h 0.453543v -2.92929h 0.453543v 2.92929h 0.453543v -2.92929h 0.453543v
 2.92929h 0.453543v -2.92929h 0.453543v 2.92929h 1.36063v -2.92929h 0.453543v 2.92929h 0.907087v -8.78787h 0.453543v 8.78787h 0.453543v -2.92929h 0.453543v 2.92929h 0.907087v -2.92929h 0.453543v -2.92929h 0.907087v 2.92929h 0.453543v 2.92929h
 0.907087v -2.92929h 0.453543v 2.92929h 1.36063v -5.85858h 0.453543v 5.85858h 3.1748v -5.85858h 0.453543v 2.92929h 0.453543v 2.92929h 0.453543v -5.85858h 0.453543v 5.85858h 0.453543v -2.92929h 0.907087v 2.92929h 1.36063v -2.92929h 0.453543v 2.92929h
 0.453543v -2.92929h 0.453543v 2.92929h 1.36063v -8.78787h 0.453543v 5.85858h 1.36063v 2.92929h 0.907087v -2.92929h 0.453543v 2.92929h 1.81417v -2.92929h 2.26772v 2.92929h 0.453543v -2.92929h 0.453543v 2.92929h 1.36063v -2.92929h 0.907087v 2.92929h
 0.907087v -2.92929h 0.453543v 2.92929h 0.453543v -2.92929h 0.453543v 2.92929h 0.453543v -2.92929h 0.453543v 2.92929h 0.453543v -2.92929h 0.907087v 2.92929h 0.907087v -2.92929h 0.453543v 2.92929h 0.453543v -2.92929h 1.36063v 2.92929h 0.453543v
 -5.85858h 0.453543v 5.85858h 0.907087v -2.92929h 0.453543v 2.92929h 1.81417v -2.92929h 0.453543v 2.92929h 0.453543v -2.92929h 1.81417v -2.92929h 0.453543v 5.85858h 0.453543v -2.92929h 0.453543v 2.92929h 1.81417v -2.92929h 0.907087v 2.92929h
 0.907087v -2.92929h 0.907087v -2.92929h 0.453543v 5.85858h 0.907087v -2.92929h 0.453543v 2.92929h 0.453543v -2.92929h 0.453543v 2.92929h 2.72126v -2.92929h 0.453543v 2.92929h 3.1748v -2.92929h 0.453543v 2.92929h 0.453543v -5.85858h 0.453543v
 5.85858h 0.907087v -5.85858h 0.453543v 2.92929h 0.453543v -2.92929h 0.453543v 2.92929h 0.453543v -2.92929h 0.453543v 5.85858h 0.453543v -5.85858h 0.453543v 2.92929h 0.453543v 2.92929h 1.36063v -2.92929h 0.453543v 2.92929h 0.453543v -2.92929h
 0.453543v -2.92929h 0.453543v 2.92929h 0.453543v 2.92929h 1.81417v -2.92929h 1.81417v -2.92929h 0.453543v -5.85858h 0.453543v 5.85858h 0.453543v -2.92929h 0.453543v 5.85858h 0.453543v -2.92929h 0.453543v 2.92929h 0.453543v -2.92929h 0.453543v
 -2.92929h 0.907087v 2.92929h 0.453543v 2.92929h 0.453543v -2.92929h 0.907087v 2.92929h 0.453543v -11.7172h 0.453543v 14.6464h 0.453543v -14.6464h 0.453543v 8.78787h 0.453543v -2.92929h 0.453543v -2.92929h 0.453543v 5.85858h 0.453543v -14.6464h
 0.453543v 14.6464h 0.907087v -8.78787h 0.453543v 8.78787h 0.453543v -5.85858h 0.453543v 8.78787h 0.453543v -14.6464h 0.453543v 2.92929h 0.453543v 8.78787h 0.453543v -5.85858h 0.453543v -2.92929h 0.453543v -2.92929h 0.453543v 5.85858h 0.453543v
 -20.505h 0.453543v 11.7172h 0.453543v 11.7172h 0.453543v -23.4343h 0.453543v 11.7172h 0.453543v 17.5757h 0.453543v -23.4343h 0.453543v 5.85858h 0.453543v -2.92929h 0.907087v 11.7172h 0.453543v -8.78787h 0.453543v -5.85858h 0.907087v -2.92929h
 0.453543v -5.85858h 0.453543v 11.7172h 0.453543v -2.92929h 0.453543v -14.6464h 0.453543v 11.7172h 0.453543v -20.505h 0.453543v 8.78787h 0.453543v 20.505h 0.453543v -14.6464h 0.453543v 2.92929h 0.453543v 14.6464h 0.453543v -35.1515h 0.453543v
 8.78787h 0.453543v 14.6464h 0.453543v -8.78787h 0.453543v -14.6464h 0.453543v 14.6464h 0.453543v -26.3636h 0.453543v 20.505h 0.453543v 14.6464h 0.453543v -17.5757h 0.453543v -5.85858h 0.453543v -5.85858h 0.453543v 17.5757h 0.453543v -41.01h
 0.453543v 29.2929h 0.453543v 5.85858h 0.907087v -17.5757h 0.453543v -8.78787h 0.453543v 23.4343h 0.453543v 5.85858h 0.453543v -23.4343h 0.453543v -26.3636h 0.453543v 11.7172h 0.453543v 35.1515h 0.453543v -29.2929h 0.453543v 23.4343h 0.453543v
 5.85858h 0.453543v -23.4343h 0.907087v -2.92929h 0.453543v 14.6464h 0.453543v -17.5757h 0.453543v 11.7172h 0.453543v 8.78787h 0.453543v -14.6464h 0.907087v 14.6464h 0.907087v 26.3636h 0.453543v -35.1515h 0.453543v 5.85858h 0.453543v -8.78787h
 0.453543v -11.7172h 0.453543v 11.7172h 0.907087v 8.78787h 0.453543v -26.3636h 0.907087v 43.9393h 0.453543v -29.2929h 0.907087v 8.78787h 0.453543v -23.4343h 0.453543v 11.7172h 1.36063v -2.92929h 0.453543v 23.4343h 0.453543v -5.85858h 0.453543v
 -17.5757h 0.453543v 11.7172h 0.453543v 8.78787h 0.453543v -17.5757h 0.453543v 5.85858h 0.453543v 17.5757h 0.453543v -5.85858h 0.453543v -29.2929h 0.453543v 8.78787h 0.453543v 8.78787h 0.453543v -2.92929h 0.453543v 17.5757h 0.453543v 8.78787h
 0.453543v -38.0808h 0.453543v 20.505h 0.453543v 2.92929h 0.453543v -11.7172h 0.453543v 23.4343h 0.453543v -23.4343h 0.453543v -5.85858h 0.453543v 20.505h 0.907087v -20.505h 0.453543v 5.85858h 0.453543v 2.92929h 0.453543v 11.7172h 0.453543v -5.85858h
 0.453543v 14.6464h 0.453543v 2.92929h 0.453543v -26.3636h 0.453543v 11.7172h 0.453543v -5.85858h 0.453543v 11.7172h 0.453543v -5.85858h 0.453543v 8.78787h 0.453543v 8.78787h 0.453543v -8.78787h 0.453543v -11.7172h 0.453543v 23.4343h 0.453543v
 -20.505h 0.453543v 8.78787h 0.453543v 8.78787h 0.453543v -2.92929h 0.453543v 2.92929h 0.453543v -29.2929h 0.453543v -26.3636h 0.453543v 43.9393h 0.453543v -2.92929h 0.453543v -8.78787h 0.453543v 20.505h 0.453543v -2.92929h 0.453543v -29.2929h
 0.453543v 17.5757h 0.453543v -2.92929h 0.453543v 8.78787h 0.453543v -14.6464h 0.453543v 11.7172h 0.453543v -17.5757h 0.453543v 8.78787h 0.453543v 23.4343h 0.907087v -29.2929h 0.453543v 14.6464h 0.453543v 8.78787h 0.453543v 8.78787h 0.453543v
 -5.85858h 0.453543v -20.505h 0.453543v 26.3636h 0.453543v -14.6464h 0.907087v -5.85858h 0.453543v -11.7172h 0.453543v 43.9393h 0.453543v -32.2222h 0.453543v 11.7172h 0.453543v 5.85858h 0.453543v -2.92929h 0.453543v -8.78787h 0.453543v 2.92929h
 0.453543v 20.505h 0.453543v -38.0808h 0.453543v 26.3636h 0.453543v 20.505h 0.453543v -23.4343h 0.453543v -11.7172h 0.453543v -14.6464h 0.453543v 29.2929h 0.907087v -5.85858h 0.453543v 8.78787h 0.453543v -11.7172h 0.453543v 11.7172h 0.453543v
 -5.85858h 0.907087v -5.85858h 0.453543v -8.78787h 0.453543v 20.505h 0.453543v 2.92929h 0.453543v -20.505h 0.453543v 14.6464h 0.453543v 14.6464h 0.453543v -41.01h 0.453543v 17.5757h 0.453543v -26.3636h 0.453543v 8.78787h 0.453543v 20.505h 0.453543v
 2.92929h 0.453543v -2.92929h 0.453543v 5.85858h 0.453543v 8.78787h 0.453543v -32.2222h 0.453543v 8.78787h 0.453543v 8.78787h 0.453543v -17.5757h 0.453543v 20.505h 0.453543v -8.78787h 0.453543v 14.6464h 0.453543v -5.85858h 0.453543v 2.92929h
 0.453543v -14.6464h 0.453543v -8.78787h 0.453543v 17.5757h 0.453543v -14.6464h 0.453543v 2.92929h 0.453543v 20.505h 0.453543v -11.7172h 0.453543v -5.85858h 0.453543v 8.78787h 0.453543v -23.4343h 0.453543v 23.4343h 0.453543v 11.7172h 0.453543v
 -2.92929h 0.453543v -5.85858h 0.453543v -8.78787h 0.453543v 29.2929h 0.453543v -29.2929h 0.453543v 2.92929h 0.453543v -5.85858h 0.453543v 5.85858h 0.453543v 14.6464h 0.453543v 2.92929h 0.453543v -8.78787h 0.453543v -8.78787h 0.453543v 11.7172h
 0.907087v -5.85858h 0.907087v -14.6464h 0.453543v 20.505h 0.453543v 26.3636h 0.453543v -26.3636h 0.453543v -2.92929h 0.453543v 5.85858h 0.453543v 5.85858h 0.453543v -23.4343h 0.453543v 29.2929h 0.453543v 2.92929h 0.453543v -5.85858h 0.453543v
 -17.5757h 0.453543v 2.92929h 0.453543v 8.78787h 0.453543v -5.85858h 0.453543v 2.92929h 0.453543v 5.85858h 0.453543v -11.7172h 0.453543v 14.6464h 0.453543v -20.505h 0.453543v 20.505h 0.453543v -2.92929h 0.453543v -8.78787h 0.453543v 20.505h 0.453543v
 8.78787h 0.453543v -20.505h 0.453543v -8.78787h 0.907087v 17.5757h 0.453543v -11.7172h 0.453543v 14.6464h 0.453543v -5.85858h 0.453543v -8.78787h 0.453543v 14.6464h 0.453543v 5.85858h 0.907087v -14.6464h 0.453543v 14.6464h 0.453543v -14.6464h
 0.453543v 2.92929h 0.453543v 5.85858h 0.453543v 2.92929h 0.453543v -5.85858h 0.453543v 5.85858h 0.453543v 5.85858h 0.453543v -11.7172h 0.453543v -2.92929h 0.453543v 8.78787h 0.453543v 8.78787h 0.453543v -14.6464h 0.453543v -2.92929h 0.453543v
 2.92929h 0.453543v 5.85858h 0.907087v -2.92929h 0.453543v -2.92929h 0.453543v 2.92929h 0.453543v -8.78787h 0.453543v 14.6464h 0.453543v -2.92929h 0.453543v -2.92929h 0.453543v 8.78787h 0.907087v -2.92929h 0.453543v 2.92929h 0.453543v -2.92929h
 0.453543v 5.85858h 0.453543v -2.92929h 0.453543v 5.85858h 0.453543v -17.5757h 0.453543v 5.85858h 0.453543v 8.78787h 0.453543v -5.85858h 0.453543v -8.78787h 1.36063v 5.85858h 0.453543v -5.85858h 0.453543v 8.78787h 0.453543v 5.85858h 0.907087v
 -5.85858h 0.453543v -5.85858h 0.453543v -8.78787h 0.453543v 14.6464h 0.907087v 2.92929h 0.453543v -11.7172h 0.453543v 17.5757h 0.453543v -11.7172h 0.453543v 2.92929h 0.907087v 5.85858h 0.453543v -5.85858h 0.453543v -2.92929h 1.36063v -2.92929h
 0.453543v 14.6464h 0.453543v -11.7172h 0.453543v 2.92929h 0.453543v 2.92929h 0.907087v 5.85858h 0.453543v -14.6464h 0.453543v 2.92929h 0.453543v 5.85858h 0.453543v -11.7172h 0.453543v 14.6464h 0.453543v -8.78787h 0.453543v 8.78787h 0.453543v
 -5.85858h 0.453543v 2.92929h 0.907087v -5.85858h 0.453543v -5.85858h 0.453543v 2.92929h 0.453543v 5.85858h 0.453543v -2.92929h 0.453543v 11.7172h 0.453543v -5.85858h 0.453543v 2.92929h 0.453543v -8.78787h 0.453543v 5.85858h 0.453543v 2.92929h
 0.453543v -11.7172h 0.453543v -11.7172h 0.453543v 23.4343h 0.453543v -5.85858h 0.453543v -2.92929h 0.453543v -5.85858h 0.453543v -8.78787h 0.453543v 23.4343h 0.453543v -5.85858h 0.907087v -2.92929h 0.453543v 8.78787h 0.453543v -20.505h 0.453543v
 8.78787h 0.453543v -2.92929h 0.453543v -5.85858h 0.453543v 2.92929h 0.453543v -8.78787h 0.453543v 2.92929h 0.907087v -8.78787h 0.453543v -20.505h 0.453543v 29.2929h 0.453543v -2.92929h 0.453543v 11.7172h 0.453543v -46.8686h 0.453543v 17.5757h
 0.453543v 38.0808h 0.453543v -35.1515h 0.453543v 5.85858h 0.453543v -20.505h 0.453543v 5.85858h 0.453543v -2.92929h 0.907087v -11.7172h 0.453543v 5.85858h 0.453543v -14.6464h 0.453543v -26.3636h 0.453543v 11.7172h 0.453543v -17.5757h 0.453543v
 32.2222h 0.453543v -20.505h 0.453543v 8.78787h 0.453543v -11.7172h 0.453543v -43.9393h 0.453543v 26.3636h 0.453543v -17.5757h 0.907087v -8.78787h 0.453543v 8.78787h 0.453543v -11.7172h 0.453543v -2.92929h 0.453543v -14.6464h 0.453543v 26.3636h
 0.453543v -17.5757h 0.453543v 2.92929h 0.453543v 2.92929h 0.453543v -82.0201h 0.453543v 46.8686h 0.453543v 35.1515h 0.453543v 2.92929h 0.453543v -70.3029h 0.907087v 49.7979h 0.453543v -41.01h 0.453543v -14.6464h 0.453543v 38.0808h 0.453543v
 -29.2929h 0.453543v 41.01h 0.453543v -26.3636h 0.453543v 14.6464h 0.453543v -23.4343h 0.453543v -38.0808h 0.453543v 43.9393h 0.453543v -38.0808h 0.453543v 11.7172h 0.907087v -61.5151h 0.453543v 84.9494h 0.453543v -8.78787h 0.453543v 32.2222h
 0.453543v 8.78787h 0.453543v 8.78787h 0.453543v -38.0808h 0.453543v -29.2929h 0.453543v 32.2222h 0.453543v 41.01h 0.453543v -41.01h 0.453543v 32.2222h 0.453543v 17.5757h 0.453543v -38.0808h 0.453543v 32.2222h 0.453543v -41.01h 0.453543v 43.9393h
 0.453543v 23.4343h 0.453543v -2.92929h 0.453543v -8.78787h 0.453543v -2.92929h 0.453543v 35.1515h 0.453543v -20.505h 0.453543v -5.85858h 0.453543v 32.2222h 0.453543v 11.7172h 0.453543v 2.92929h 0.453543v 26.3636h 0.453543v -23.4343h 0.453543v
 26.3636h 0.453543v -20.505h 0.453543v 20.505h 0.453543v 2.92929h 0.453543v 8.78787h 0.453543v -2.92929h 0.453543v -26.3636h 0.453543v 41.01h 0.453543v -2.92929h 0.453543v 14.6464h 0.453543v -5.85858h 0.453543v -8.78787h 0.453543v 11.7172h 0.453543v
 -5.85858h 0.453543v -2.92929h 0.453543v 17.5757h 0.453543v 2.92929h 0.453543v -5.85858h 0.453543v 8.78787h 0.453543v 8.78787h 0.453543v -11.7172h 0.453543v 5.85858h 0.453543v -23.4343h 0.453543v 26.3636h 0.453543v 5.85858h 0.453543v -8.78787h
 0.907087v 8.78787h 0.907087v 2.92929h 0.453543v -8.78787h 0.453543v 8.78787h 0.453543v -8.78787h 0.453543v 2.92929h 0.907087v -2.92929h 0.453543v 5.85858h 0.453543v 2.92929h 1.81417v -2.92929h 0.453543v 2.92929h 0.453543v -2.92929h 0.453543v
 2.92929h 0.453543v -2.92929h 0.453543v 2.92929h 1.81417v -2.92929h 0.453543v 2.92929h 1.36063v -2.92929h 0.453543v 2.92929h 0.907087v -2.92929h 0.453543v 2.92929h 2.72126v -2.92929h 0.907087v 2.92929h 1.81417v -2.92929h 0.453543v 2.92929h 0.907087v
 -2.92929h 0.453543v 2.92929h 2.72126v -2.92929h 0.453543v 2.92929h 0.907087v -2.92929h 0.453543v 2.92929h 5.89606v -2.92929h 0.453543v 2.92929h 5.89606v -2.92929h 0.453543v 2.92929h 2.26772v -2.92929h 0.453543v 2.92929h 0.907087v -2.92929h 0.453543v
 2.92929h 2.72126v -2.92929h 0.453543v 2.92929h 5.44252v -2.92929h 0.453543v 2.92929h 2.26772v -2.92929h 0.453543v 2.92929h 1.36063v -2.92929h 0.907087v 2.92929h 2.26772v -2.92929h 0.453543v 2.92929h 1.81417v -2.92929h 0.453543v 2.92929h 6.80315v
 -2.92929h 0.453543v 2.92929h 4.98898v -2.92929h 0.453543v 2.92929h 2.26772v -2.92929h 0.453543v 2.92929h 0.453543v -2.92929h 0.453543v 2.92929h 7.25669v -2.92929h 0.453543v 2.92929h 1.36063v -2.92929h 0.453543v 2.92929h 2.72126v -2.92929h 0.453543v
 2.92929h 1.81417v -2.92929h 0.453543v 2.92929h 8.16378v -2.92929h 0.453543v 2.92929h 1.81417v -2.92929h 0.453543v 2.92929h 5.44252v -2.92929h 0.453543v 2.92929h 7.25669v -5.85858h 0.453543v 5.85858h 5.44252v -2.92929h 0.453543v 2.92929h 4.98898v
 -2.92929h 0.453543v 2.92929h 0.907087" fill="none" stroke="#000099"/>
<path d="M333.42,309.735l 0.64252, -4.38987l 0.64252, -4.75113l 0.64252, -5.11712l 0.64252, -5.48408l 0.64252, -5.84779l 0.64252, -6.20363l 0.64252, -6.54662l 0.64252, -6.87149l 0.64252, -7.17274l 0.64252, -7.44472l 0.64252, -7.68175l 0.64252,
 -7.87823l 0.64252, -8.02871l 0.64252, -8.12806l 0.64252, -8.17156l 0.64252, -8.15503l 0.64252, -8.07494l 0.64252, -7.92854l 0.64252, -7.71392l 0.64252, -7.43013l 0.64252, -7.0772l 0.64252, -6.65625l 0.64252, -6.16946l 0.64252, -5.62008l 0.64252,
 -5.01241l 0.64252, -4.35178l 0.64252, -3.64443l 0.64252, -2.89743l 0.64252, -2.11858l 0.64252, -1.31626l 0.64252, -0.499288l 0.64252, 0.323265l 0.64252, 1.14221l 0.64252, 1.94842l 0.64252, 2.73301l 0.64252, 3.48751l 0.64252, 4.20398l 0.64252,
 4.87517l 0.64252, 5.49466l 0.64252, 6.05692l 0.64252, 6.55744l 0.64252, 6.99271l 0.64252, 7.36033l 0.64252, 7.65897l 0.64252, 7.88836l 0.64252, 8.04924l 0.64252, 8.14333l 0.64252, 8.1732l 0.64252, 8.14223" fill="none" stroke="#ff0000"
 stroke-width="2"/>
<path d="M364.903,224.583l 0.64252, 8.05446l 0.64252, 7.91451l 0.64252, 7.72743l 0.64252, 7.49862l 0.64252, 7.23365l 0.64252, 6.93819l 0.64252, 6.61792l 0.64252, 6.27835l 0.64252, 5.92483l 0.64252, 5.56241l 0.64252, 5.19578l 0.64252, 4.82924l
 0.64252, 4.46668l 0.64252, 4.1115l 0.64252, 3.76664l 0.64252, 3.43459l 0.64252, 3.11735l 0.64252, 2.8165l 0.64252, 2.53319l 0.64252, 2.26817l 0.64252, 2.02188l 0.64252, 1.7944l 0.64252, 1.58556l 0.64252, 1.39495l 0.64252, 1.22198l 0.64252, 1.06588l
 0.64252, 0.925761l 0.64252, 0.800664l 0.64252, 0.689559l 0.64252, 0.591385l 0.64252, 0.505076l 0.64252, 0.429573l 0.64252, 0.363848l 0.64252, 0.30691l 0.64252, 0.257821l 0.64252, 0.215698l 0.64252, 0.179723l 0.64252, 0.14914l 0.64252, 0.12326l
 0.64252, 0.10146l 0.64252, 0.0831792l 0.64252, 0.0679184l 0.64252, 0.0552354l 0.64252, 0.0447413l 0.64252, 0.0360964l 0.64252, 0.029006l 0.64252, 0.0232158l 0.64252, 0.0185078l 0.64252, 0.0146962" fill="none" stroke="#ff0000" stroke-width="2"/>
<path d="M396.387,345.97l 0.64252, 0.0116235" fill="none" stroke="#ff0000" stroke-width="2"/>
<rect x="442.705" y="24.9905" width="113.386" height="61.5151" fill="white"/>
<path d="M442.705,86.5056h 113.386" fill="none" stroke="black"/>
<path d="M556.091,86.5056v -61.5151" fill="none" stroke="black"/>
<path d="M556.091,24.9905h -113.386" fill="none" stroke="black"/>
<path d="M442.705,24.9905v 61.5151" fill="none" stroke="black"/>
<text xml:space="preserve" x="459.908" y="36.6549" fill="black" font-size="13.4802" font-family="Helvetica">C_Cs_1600V</text>
<path d="M442.705,40.3693h 113.386" fill="none" stroke="black"/>
<text xml:space="preserve" x="447.69" y="52.946" fill="black" font-size="12.7186" font-family="Helvetica">Entries </text>
<text xml:space="preserve" x="512.854" y="52.946" fill="black" font-size="12.7186" font-family="Helvetica"> 10000</text>
<text xml:space="preserve" x="447.69" y="67.6079" fill="black" font-size="12.7186" font-family="Helvetica">Mean  </text>
<text xml:space="preserve" x="512.854" y="67.6079" fill="black" font-size="12.7186" font-family="Helvetica">  598.6</text>
<text xml:space="preserve" x="447.69" y="83.0844" fill="black" font-size="12.7186" font-family="Helvetica">Std Dev   </text>
<text xml:space="preserve" x="516.112" y="83.0844" fill="black" font-size="12.7186" font-family="Helvetica">    196</text>
<path d="M57.1929,346.022h 453.543" fill="none" stroke="black"/>
<path d="M57.1929,336.795v 9.22726" fill="none" stroke="black"/>
<path d="M76.0906,341.409v 4.61363" fill="none" stroke="black"/>
<path d="M94.9882,341.409v 4.61363" fill="none" stroke="black"/>
<path d="M113.886,341.409v 4.61363" fill="none" stroke="black"/>
<path d="M132.783,336.795v 9.22726" fill="none" stroke="black"/>
<path d="M151.681,341.409v 4.61363" fill="none" stroke="black"/>
<path d="M170.579,341.409v 4.61363" fill="none" stroke="black"/>
<path d="M189.476,341.409v 4.61363" fill="none" stroke="black"/>
<path d="M208.374,336.795v 9.22726" fill="none" stroke="black"/>
<path d="M227.272,341.409v 4.61363" fill="none" stroke="black"/>
<path d="M246.169,341.409v 4.61363" fill="none" stroke="black"/>
<path d="M265.067,341.409v 4.61363" fill="none" stroke="black"/>
<path d="M283.965,336.795v 9.22726" fill="none" stroke="black"/>
<path d="M302.862,341.409v 4.61363" fill="none" stroke="black"/>
<path d="M321.76,341.409v 4.61363" fill="none" stroke="black"/>
<path d="M340.657,341.409v 4.61363" fill="none" stroke="black"/>
<path d="M359.555,336.795v 9.22726" fill="none" stroke="black"/>
<path d="M378.453,341.409v 4.61363" fill="none" stroke="black"/>
<path d="M397.35,341.409v 4.61363" fill="none" stroke="black"/>
<path d="M416.248,341.409v 4.61363" fill="none" stroke="black"/>
<path d="M435.146,336.795v 9.22726" fill="none" stroke="black"/>
<path d="M454.043,341.409v 4.61363" fill="none" stroke="black"/>
<path d="M472.941,341.409v 4.61363" fill="none" stroke="black"/>
<path d="M491.839,341.409v 4.61363" fill="none" stroke="black"/>
<path d="M510.736,336.795v 9.22726" fill="none" stroke="black"/>
<text xml:space="preserve" x="53.446" y="358.403" fill="black" font-size="12.8453" font-family="Helvetica">0</text>
<text xml:space="preserve" x="121.868" y="358.403" fill="black" font-size="12.8453" font-family="Helvetica">200</text>
<text xml:space="preserve" x="197.622" y="358.403" fill="black" font-size="12.8453" font-family="Helvetica">400</text>
<text xml:space="preserve" x="273.375" y="358.403" fill="black" font-size="12.8453" font-family="Helvetica">600</text>
<text xml:space="preserve" x="348.314" y="358.403" fill="black" font-size="12.8453" font-family="Helvetica">800</text>
<text xml:space="preserve" x="420.81" y="358.403" fill="black" font-size="12.8453" font-family="Helvetica">1000</text>
<text xml:space="preserve" x="496.563" y="358.403" fill="black" font-size="12.8453" font-family="Helvetica">1200</text>
<text xml:space="preserve" x="451.763" y="372.251" fill="black" font-size="12.8453" font-family="Helvetica">ADC value</text>
<path d="M57.1929,346.022v -307.575" fill="none" stroke="black"/>
<path d="M70.7992,346.022h -13.6063" fill="none" stroke="black"/>
<path d="M63.9961,331.376h -6.80315" fill="none" stroke="black"/>
<path d="M63.9961,316.729h -6.80315" fill="none" stroke="black"/>
<path d="M63.9961,302.083h -6.80315" fill="none" stroke="black"/>
<path d="M70.7992,287.436h -13.6063" fill="none" stroke="black"/>
<path d="M63.9961,272.79h -6.80315" fill="none" stroke="black"/>
<path d="M63.9961,258.144h -6.80315" fill="none" stroke="black"/>
<path d="M63.9961,243.497h -6.80315" fill="none" stroke="black"/>
<path d="M70.7992,228.851h -13.6063" fill="none" stroke="black"/>
<path d="M63.9961,214.204h -6.80315" fill="none" stroke="black"/>
<path d="M63.9961,199.558h -6.80315" fill="none" stroke="black"/>
<path d="M63.9961,184.911h -6.80315" fill="none" stroke="black"/>
<path d="M70.7992,170.265h -13.6063" fill="none" stroke="black"/>
<path d="M63.9961,155.618h -6.80315" fill="none" stroke="black"/>
<path d="M63.9961,140.972h -6.80315" fill="none" stroke="black"/>
<path d="M63.9961,126.326h -6.80315" fill="none" stroke="black"/>
<path d="M70.7992,111.679h -13.6063" fill="none" stroke="black"/>
<path d="M63.9961,97.0327h -6.80315" fill="none" stroke="black"/>
<path d="M63.9961,82.3863h -6.80315" fill="none" stroke="black"/>
<path d="M63.9961,67.7398h -6.80315" fill="none" stroke="black"/>
<path d="M70.7992,53.0934h -13.6063" fill="none" stroke="black"/>
<path d="M70.7992,53.0934h -13.6063" fill="none" stroke="black"/>
<text xml:space="preserve" x="47.7441" y="350.258" fill="black" font-size="12.8453" font-family="Helvetica">0</text>
<text xml:space="preserve" x="41.2277" y="291.61" fill="black" font-size="12.8453" font-family="Helvetica">20</text>
<text xml:space="preserve" x="41.2277" y="232.962" fill="black" font-size="12.8453" font-family="Helvetica">40</text>
<text xml:space="preserve" x="41.2277" y="175.129" fill="black" font-size="12.8453" font-family="Helvetica">60</text>
<text xml:space="preserve" x="41.2277" y="116.481" fill="black" font-size="12.8453" font-family="Helvetica">80</text>
<text xml:space="preserve" x="33.8967" y="57.8333" fill="black" font-size="12.8453" font-family="Helvetica">100</text>
<g transform="rotate(-90,20.8638,75.7535)">
<text xml:space="preserve" x="20.8638" y="75.7535" fill="black" font-size="12.8453" font-family="Helvetica">Events</text>
</g>
<rect x="442.705" y="24.9905" width="113.386" height="61.5151" fill="white"/>
<path d="M442.705,86.5056h 113.386" fill="none" stroke="black"/>
<path d="M556.091,86.5056v -61.5151" fill="none" stroke="black"/>
<path d="M556.091,24.9905h -113.386" fill="none" stroke="black"/>
<path d="M442.705,24.9905v 61.5151" fill="none" stroke="black"/>
<text xml:space="preserve" x="459.908" y="36.6549" fill="black" font-size="13.4802" font-family="Helvetica">C_Cs_1600V</text>
<path d="M442.705,40.3693h 113.386" fill="none" stroke="black"/>
<text xml:space="preserve" x="447.69" y="52.946" fill="black" font-size="12.7186" font-family="Helvetica">Entries </text>
<text xml:space="preserve" x="512.854" y="52.946" fill="black" font-size="12.7186" font-family="Helvetica"> 10000</text>
<text xml:space="preserve" x="447.69" y="67.6079" fill="black" font-size="12.7186" font-family="Helvetica">Mean  </text>
<text xml:space="preserve" x="512.854" y="67.6079" fill="black" font-size="12.7186" font-family="Helvetica">  598.6</text>
<text xml:space="preserve" x="447.69" y="83.0844" fill="black" font-size="12.7186" font-family="Helvetica">Std Dev   </text>
<text xml:space="preserve" x="516.112" y="83.0844" fill="black" font-size="12.7186" font-family="Helvetica">    196</text>
<text xml:space="preserve" x="230.204" y="18.7347" fill="black" font-size="18.0316" font-family="Helvetica">C_Cs_1600V</text></svg>
