<?xml version="1.0" standalone="no"?>
<svg width="567.429" height="386.304" viewBox="0 0 567.429 386.304" xmlns="http://www.w3.org/2000/svg" shape-rendering="crispEdges">
<title>
img/calibration/C_Cs_1600V.svg
</title>
<desc>
Creator: ROOT Version 6.22/08
CreationDate: Wed Jun  9 12:42:03 2021</desc>
<defs>
</defs>
<rect x="0.5" y="0" width="566.929" height="385.804" fill="white"/>
<rect x="57.1929" y="38.5804" width="453.543" height="308.643" fill="white"/>
<rect x="57.1929" y="38.5804" width="453.543" height="308.643" fill="none" stroke="black"/>
<rect x="57.1929" y="38.5804" width="453.543" height="308.643" fill="white"/>
<rect x="57.1929" y="38.5804" width="453.543" height="308.643" fill="none" stroke="black"/>
<path d="M57.1929,347.224h 2.26772v -8.81838h 0.453543v 8.81838h 0.453543v -2.93946h 0.907087v 2.93946h 2.26772v -2.93946h 0.453543v 2.93946h 1.36063v -2.93946h 0.453543v 2.93946h 0.453543v -2.93946h 0.453543v 2.93946h 0.453543v -2.93946h 0.453543v
 2.93946h 0.453543v -2.93946h 0.453543v 2.93946h 1.36063v -2.93946h 0.453543v 2.93946h 0.907087v -8.81838h 0.453543v 8.81838h 0.453543v -2.93946h 0.453543v 2.93946h 0.907087v -2.93946h 0.453543v -2.93946h 0.907087v 2.93946h 0.453543v 2.93946h
 0.907087v -2.93946h 0.453543v 2.93946h 1.36063v -5.87892h 0.453543v 5.87892h 3.1748v -5.87892h 0.453543v 2.93946h 0.453543v 2.93946h 0.453543v -5.87892h 0.453543v 5.87892h 0.453543v -2.93946h 0.907087v 2.93946h 1.36063v -2.93946h 0.453543v 2.93946h
 0.453543v -2.93946h 0.453543v 2.93946h 1.36063v -8.81838h 0.453543v 5.87892h 1.36063v 2.93946h 0.907087v -2.93946h 0.453543v 2.93946h 1.81417v -2.93946h 2.26772v 2.93946h 0.453543v -2.93946h 0.453543v 2.93946h 1.36063v -2.93946h 0.907087v 2.93946h
 0.907087v -2.93946h 0.453543v 2.93946h 0.453543v -2.93946h 0.453543v 2.93946h 0.453543v -2.93946h 0.453543v 2.93946h 0.453543v -2.93946h 0.907087v 2.93946h 0.907087v -2.93946h 0.453543v 2.93946h 0.453543v -2.93946h 1.36063v 2.93946h 0.453543v
 -5.87892h 0.453543v 5.87892h 0.907087v -2.93946h 0.453543v 2.93946h 1.81417v -2.93946h 0.453543v 2.93946h 0.453543v -2.93946h 1.81417v -2.93946h 0.453543v 5.87892h 0.453543v -2.93946h 0.453543v 2.93946h 1.81417v -2.93946h 0.907087v 2.93946h
 0.907087v -2.93946h 0.907087v -2.93946h 0.453543v 5.87892h 0.907087v -2.93946h 0.453543v 2.93946h 0.453543v -2.93946h 0.453543v 2.93946h 2.72126v -2.93946h 0.453543v 2.93946h 3.1748v -2.93946h 0.453543v 2.93946h 0.453543v -5.87892h 0.453543v
 5.87892h 0.907087v -5.87892h 0.453543v 2.93946h 0.453543v -2.93946h 0.453543v 2.93946h 0.453543v -2.93946h 0.453543v 5.87892h 0.453543v -5.87892h 0.453543v 2.93946h 0.453543v 2.93946h 1.36063v -2.93946h 0.453543v 2.93946h 0.453543v -2.93946h
 0.453543v -2.93946h 0.453543v 2.93946h 0.453543v 2.93946h 1.81417v -2.93946h 1.81417v -2.93946h 0.453543v -5.87892h 0.453543v 5.87892h 0.453543v -2.93946h 0.453543v 5.87892h 0.453543v -2.93946h 0.453543v 2.93946h 0.453543v -2.93946h 0.453543v
 -2.93946h 0.907087v 2.93946h 0.453543v 2.93946h 0.453543v -2.93946h 0.907087v 2.93946h 0.453543v -11.7578h 0.453543v 14.6973h 0.453543v -14.6973h 0.453543v 8.81838h 0.453543v -2.93946h 0.453543v -2.93946h 0.453543v 5.87892h 0.453543v -14.6973h
 0.453543v 14.6973h 0.907087v -8.81838h 0.453543v 8.81838h 0.453543v -5.87892h 0.453543v 8.81838h 0.453543v -14.6973h 0.453543v 2.93946h 0.453543v 8.81838h 0.453543v -5.87892h 0.453543v -2.93946h 0.453543v -2.93946h 0.453543v 5.87892h 0.453543v
 -20.5762h 0.453543v 11.7578h 0.453543v 11.7578h 0.453543v -23.5157h 0.453543v 11.7578h 0.453543v 17.6368h 0.453543v -23.5157h 0.453543v 5.87892h 0.453543v -2.93946h 0.907087v 11.7578h 0.453543v -8.81838h 0.453543v -5.87892h 0.907087v -2.93946h
 0.453543v -5.87892h 0.453543v 11.7578h 0.453543v -2.93946h 0.453543v -14.6973h 0.453543v 11.7578h 0.453543v -20.5762h 0.453543v 8.81838h 0.453543v 20.5762h 0.453543v -14.6973h 0.453543v 2.93946h 0.453543v 14.6973h 0.453543v -35.2735h 0.453543v
 8.81838h 0.453543v 14.6973h 0.453543v -8.81838h 0.453543v -14.6973h 0.453543v 14.6973h 0.453543v -26.4551h 0.453543v 20.5762h 0.453543v 14.6973h 0.453543v -17.6368h 0.453543v -5.87892h 0.453543v -5.87892h 0.453543v 17.6368h 0.453543v -41.1525h
 0.453543v 29.3946h 0.453543v 5.87892h 0.907087v -17.6368h 0.453543v -8.81838h 0.453543v 23.5157h 0.453543v 5.87892h 0.453543v -23.5157h 0.453543v -26.4551h 0.453543v 11.7578h 0.453543v 35.2735h 0.453543v -29.3946h 0.453543v 23.5157h 0.453543v
 5.87892h 0.453543v -23.5157h 0.907087v -2.93946h 0.453543v 14.6973h 0.453543v -17.6368h 0.453543v 11.7578h 0.453543v 8.81838h 0.453543v -14.6973h 0.907087v 14.6973h 0.907087v 26.4551h 0.453543v -35.2735h 0.453543v 5.87892h 0.453543v -8.81838h
 0.453543v -11.7578h 0.453543v 11.7578h 0.907087v 8.81838h 0.453543v -26.4551h 0.907087v 44.0919h 0.453543v -29.3946h 0.907087v 8.81838h 0.453543v -23.5157h 0.453543v 11.7578h 1.36063v -2.93946h 0.453543v 23.5157h 0.453543v -5.87892h 0.453543v
 -17.6368h 0.453543v 11.7578h 0.453543v 8.81838h 0.453543v -17.6368h 0.453543v 5.87892h 0.453543v 17.6368h 0.453543v -5.87892h 0.453543v -29.3946h 0.453543v 8.81838h 0.453543v 8.81838h 0.453543v -2.93946h 0.453543v 17.6368h 0.453543v 8.81838h
 0.453543v -38.213h 0.453543v 20.5762h 0.453543v 2.93946h 0.453543v -11.7578h 0.453543v 23.5157h 0.453543v -23.5157h 0.453543v -5.87892h 0.453543v 20.5762h 0.907087v -20.5762h 0.453543v 5.87892h 0.453543v 2.93946h 0.453543v 11.7578h 0.453543v
 -5.87892h 0.453543v 14.6973h 0.453543v 2.93946h 0.453543v -26.4551h 0.453543v 11.7578h 0.453543v -5.87892h 0.453543v 11.7578h 0.453543v -5.87892h 0.453543v 8.81838h 0.453543v 8.81838h 0.453543v -8.81838h 0.453543v -11.7578h 0.453543v 23.5157h
 0.453543v -20.5762h 0.453543v 8.81838h 0.453543v 8.81838h 0.453543v -2.93946h 0.453543v 2.93946h 0.453543v -29.3946h 0.453543v -26.4551h 0.453543v 44.0919h 0.453543v -2.93946h 0.453543v -8.81838h 0.453543v 20.5762h 0.453543v -2.93946h 0.453543v
 -29.3946h 0.453543v 17.6368h 0.453543v -2.93946h 0.453543v 8.81838h 0.453543v -14.6973h 0.453543v 11.7578h 0.453543v -17.6368h 0.453543v 8.81838h 0.453543v 23.5157h 0.907087v -29.3946h 0.453543v 14.6973h 0.453543v 8.81838h 0.453543v 8.81838h
 0.453543v -5.87892h 0.453543v -20.5762h 0.453543v 26.4551h 0.453543v -14.6973h 0.907087v -5.87892h 0.453543v -11.7578h 0.453543v 44.0919h 0.453543v -32.3341h 0.453543v 11.7578h 0.453543v 5.87892h 0.453543v -2.93946h 0.453543v -8.81838h 0.453543v
 2.93946h 0.453543v 20.5762h 0.453543v -38.213h 0.453543v 26.4551h 0.453543v 20.5762h 0.453543v -23.5157h 0.453543v -11.7578h 0.453543v -14.6973h 0.453543v 29.3946h 0.907087v -5.87892h 0.453543v 8.81838h 0.453543v -11.7578h 0.453543v 11.7578h
 0.453543v -5.87892h 0.907087v -5.87892h 0.453543v -8.81838h 0.453543v 20.5762h 0.453543v 2.93946h 0.453543v -20.5762h 0.453543v 14.6973h 0.453543v 14.6973h 0.453543v -41.1525h 0.453543v 17.6368h 0.453543v -26.4551h 0.453543v 8.81838h 0.453543v
 20.5762h 0.453543v 2.93946h 0.453543v -2.93946h 0.453543v 5.87892h 0.453543v 8.81838h 0.453543v -32.3341h 0.453543v 8.81838h 0.453543v 8.81838h 0.453543v -17.6368h 0.453543v 20.5762h 0.453543v -8.81838h 0.453543v 14.6973h 0.453543v -5.87892h
 0.453543v 2.93946h 0.453543v -14.6973h 0.453543v -8.81838h 0.453543v 17.6368h 0.453543v -14.6973h 0.453543v 2.93946h 0.453543v 20.5762h 0.453543v -11.7578h 0.453543v -5.87892h 0.453543v 8.81838h 0.453543v -23.5157h 0.453543v 23.5157h 0.453543v
 11.7578h 0.453543v -2.93946h 0.453543v -5.87892h 0.453543v -8.81838h 0.453543v 29.3946h 0.453543v -29.3946h 0.453543v 2.93946h 0.453543v -5.87892h 0.453543v 5.87892h 0.453543v 14.6973h 0.453543v 2.93946h 0.453543v -8.81838h 0.453543v -8.81838h
 0.453543v 11.7578h 0.907087v -5.87892h 0.907087v -14.6973h 0.453543v 20.5762h 0.453543v 26.4551h 0.453543v -26.4551h 0.453543v -2.93946h 0.453543v 5.87892h 0.453543v 5.87892h 0.453543v -23.5157h 0.453543v 29.3946h 0.453543v 2.93946h 0.453543v
 -5.87892h 0.453543v -17.6368h 0.453543v 2.93946h 0.453543v 8.81838h 0.453543v -5.87892h 0.453543v 2.93946h 0.453543v 5.87892h 0.453543v -11.7578h 0.453543v 14.6973h 0.453543v -20.5762h 0.453543v 20.5762h 0.453543v -2.93946h 0.453543v -8.81838h
 0.453543v 20.5762h 0.453543v 8.81838h 0.453543v -20.5762h 0.453543v -8.81838h 0.907087v 17.6368h 0.453543v -11.7578h 0.453543v 14.6973h 0.453543v -5.87892h 0.453543v -8.81838h 0.453543v 14.6973h 0.453543v 5.87892h 0.907087v -14.6973h 0.453543v
 14.6973h 0.453543v -14.6973h 0.453543v 2.93946h 0.453543v 5.87892h 0.453543v 2.93946h 0.453543v -5.87892h 0.453543v 5.87892h 0.453543v 5.87892h 0.453543v -11.7578h 0.453543v -2.93946h 0.453543v 8.81838h 0.453543v 8.81838h 0.453543v -14.6973h
 0.453543v -2.93946h 0.453543v 2.93946h 0.453543v 5.87892h 0.907087v -2.93946h 0.453543v -2.93946h 0.453543v 2.93946h 0.453543v -8.81838h 0.453543v 14.6973h 0.453543v -2.93946h 0.453543v -2.93946h 0.453543v 8.81838h 0.907087v -2.93946h 0.453543v
 2.93946h 0.453543v -2.93946h 0.453543v 5.87892h 0.453543v -2.93946h 0.453543v 5.87892h 0.453543v -17.6368h 0.453543v 5.87892h 0.453543v 8.81838h 0.453543v -5.87892h 0.453543v -8.81838h 1.36063v 5.87892h 0.453543v -5.87892h 0.453543v 8.81838h
 0.453543v 5.87892h 0.907087v -5.87892h 0.453543v -5.87892h 0.453543v -8.81838h 0.453543v 14.6973h 0.907087v 2.93946h 0.453543v -11.7578h 0.453543v 17.6368h 0.453543v -11.7578h 0.453543v 2.93946h 0.907087v 5.87892h 0.453543v -5.87892h 0.453543v
 -2.93946h 1.36063v -2.93946h 0.453543v 14.6973h 0.453543v -11.7578h 0.453543v 2.93946h 0.453543v 2.93946h 0.907087v 5.87892h 0.453543v -14.6973h 0.453543v 2.93946h 0.453543v 5.87892h 0.453543v -11.7578h 0.453543v 14.6973h 0.453543v -8.81838h
 0.453543v 8.81838h 0.453543v -5.87892h 0.453543v 2.93946h 0.907087v -5.87892h 0.453543v -5.87892h 0.453543v 2.93946h 0.453543v 5.87892h 0.453543v -2.93946h 0.453543v 11.7578h 0.453543v -5.87892h 0.453543v 2.93946h 0.453543v -8.81838h 0.453543v
 5.87892h 0.453543v 2.93946h 0.453543v -11.7578h 0.453543v -11.7578h 0.453543v 23.5157h 0.453543v -5.87892h 0.453543v -2.93946h 0.453543v -5.87892h 0.453543v -8.81838h 0.453543v 23.5157h 0.453543v -5.87892h 0.907087v -2.93946h 0.453543v 8.81838h
 0.453543v -20.5762h 0.453543v 8.81838h 0.453543v -2.93946h 0.453543v -5.87892h 0.453543v 2.93946h 0.453543v -8.81838h 0.453543v 2.93946h 0.907087v -8.81838h 0.453543v -20.5762h 0.453543v 29.3946h 0.453543v -2.93946h 0.453543v 11.7578h 0.453543v
 -47.0314h 0.453543v 17.6368h 0.453543v 38.213h 0.453543v -35.2735h 0.453543v 5.87892h 0.453543v -20.5762h 0.453543v 5.87892h 0.453543v -2.93946h 0.907087v -11.7578h 0.453543v 5.87892h 0.453543v -14.6973h 0.453543v -26.4551h 0.453543v 11.7578h
 0.453543v -17.6368h 0.453543v 32.3341h 0.453543v -20.5762h 0.453543v 8.81838h 0.453543v -11.7578h 0.453543v -44.0919h 0.453543v 26.4551h 0.453543v -17.6368h 0.907087v -8.81838h 0.453543v 8.81838h 0.453543v -11.7578h 0.453543v -2.93946h 0.453543v
 -14.6973h 0.453543v 26.4551h 0.453543v -17.6368h 0.453543v 2.93946h 0.453543v 2.93946h 0.453543v -82.3049h 0.453543v 47.0314h 0.453543v 35.2735h 0.453543v 2.93946h 0.453543v -70.5471h 0.907087v 49.9708h 0.453543v -41.1525h 0.453543v -14.6973h
 0.453543v 38.213h 0.453543v -29.3946h 0.453543v 41.1525h 0.453543v -26.4551h 0.453543v 14.6973h 0.453543v -23.5157h 0.453543v -38.213h 0.453543v 44.0919h 0.453543v -38.213h 0.453543v 11.7578h 0.907087v -61.7287h 0.453543v 85.2444h 0.453543v
 -8.81838h 0.453543v 32.3341h 0.453543v 8.81838h 0.453543v 8.81838h 0.453543v -38.213h 0.453543v -29.3946h 0.453543v 32.3341h 0.453543v 41.1525h 0.453543v -41.1525h 0.453543v 32.3341h 0.453543v 17.6368h 0.453543v -38.213h 0.453543v 32.3341h 0.453543v
 -41.1525h 0.453543v 44.0919h 0.453543v 23.5157h 0.453543v -2.93946h 0.453543v -8.81838h 0.453543v -2.93946h 0.453543v 35.2735h 0.453543v -20.5762h 0.453543v -5.87892h 0.453543v 32.3341h 0.453543v 11.7578h 0.453543v 2.93946h 0.453543v 26.4551h
 0.453543v -23.5157h 0.453543v 26.4551h 0.453543v -20.5762h 0.453543v 20.5762h 0.453543v 2.93946h 0.453543v 8.81838h 0.453543v -2.93946h 0.453543v -26.4551h 0.453543v 41.1525h 0.453543v -2.93946h 0.453543v 14.6973h 0.453543v -5.87892h 0.453543v
 -8.81838h 0.453543v 11.7578h 0.453543v -5.87892h 0.453543v -2.93946h 0.453543v 17.6368h 0.453543v 2.93946h 0.453543v -5.87892h 0.453543v 8.81838h 0.453543v 8.81838h 0.453543v -11.7578h 0.453543v 5.87892h 0.453543v -23.5157h 0.453543v 26.4551h
 0.453543v 5.87892h 0.453543v -8.81838h 0.907087v 8.81838h 0.907087v 2.93946h 0.453543v -8.81838h 0.453543v 8.81838h 0.453543v -8.81838h 0.453543v 2.93946h 0.907087v -2.93946h 0.453543v 5.87892h 0.453543v 2.93946h 1.81417v -2.93946h 0.453543v
 2.93946h 0.453543v -2.93946h 0.453543v 2.93946h 0.453543v -2.93946h 0.453543v 2.93946h 1.81417v -2.93946h 0.453543v 2.93946h 1.36063v -2.93946h 0.453543v 2.93946h 0.907087v -2.93946h 0.453543v 2.93946h 2.72126v -2.93946h 0.907087v 2.93946h 1.81417v
 -2.93946h 0.453543v 2.93946h 0.907087v -2.93946h 0.453543v 2.93946h 2.72126v -2.93946h 0.453543v 2.93946h 0.907087v -2.93946h 0.453543v 2.93946h 5.89606v -2.93946h 0.453543v 2.93946h 5.89606v -2.93946h 0.453543v 2.93946h 2.26772v -2.93946h 0.453543v
 2.93946h 0.907087v -2.93946h 0.453543v 2.93946h 2.72126v -2.93946h 0.453543v 2.93946h 5.44252v -2.93946h 0.453543v 2.93946h 2.26772v -2.93946h 0.453543v 2.93946h 1.36063v -2.93946h 0.907087v 2.93946h 2.26772v -2.93946h 0.453543v 2.93946h 1.81417v
 -2.93946h 0.453543v 2.93946h 6.80315v -2.93946h 0.453543v 2.93946h 4.98898v -2.93946h 0.453543v 2.93946h 2.26772v -2.93946h 0.453543v 2.93946h 0.453543v -2.93946h 0.453543v 2.93946h 7.25669v -2.93946h 0.453543v 2.93946h 1.36063v -2.93946h 0.453543v
 2.93946h 2.72126v -2.93946h 0.453543v 2.93946h 1.81417v -2.93946h 0.453543v 2.93946h 8.16378v -2.93946h 0.453543v 2.93946h 1.81417v -2.93946h 0.453543v 2.93946h 5.44252v -2.93946h 0.453543v 2.93946h 7.25669v -5.87892h 0.453543v 5.87892h 5.44252v
 -2.93946h 0.453543v 2.93946h 4.98898v -2.93946h 0.453543v 2.93946h 0.907087" fill="none" stroke="#000099"/>
<path d="M333.42,310.811l 0.64252, -4.40512l 0.64252, -4.76763l 0.64252, -5.13489l 0.64252, -5.50312l 0.64252, -5.8681l 0.64252, -6.22517l 0.64252, -6.56936l 0.64252, -6.89535l 0.64252, -7.19764l 0.64252, -7.47057l 0.64252, -7.70842l 0.64252,
 -7.90558l 0.64252, -8.05659l 0.64252, -8.15628l 0.64252, -8.19993l 0.64252, -8.18334l 0.64252, -8.10298l 0.64252, -7.95607l 0.64252, -7.74071l 0.64252, -7.45593l 0.64252, -7.10178l 0.64252, -6.67937l 0.64252, -6.19088l 0.64252, -5.63959l 0.64252,
 -5.02982l 0.64252, -4.36689l 0.64252, -3.65708l 0.64252, -2.90749l 0.64252, -2.12594l 0.64252, -1.32083l 0.64252, -0.501021l 0.64252, 0.324387l 0.64252, 1.14617l 0.64252, 1.95518l 0.64252, 2.7425l 0.64252, 3.49962l 0.64252, 4.21858l 0.64252, 4.8921l
 0.64252, 5.51374l 0.64252, 6.07796l 0.64252, 6.58021l 0.64252, 7.01699l 0.64252, 7.38589l 0.64252, 7.68557l 0.64252, 7.91575l 0.64252, 8.07719l 0.64252, 8.1716l 0.64252, 8.20158l 0.64252, 8.1705" fill="none" stroke="#ff0000" stroke-width="2"/>
<path d="M364.903,225.363l 0.64252, 8.08243l 0.64252, 7.94199l 0.64252, 7.75427l 0.64252, 7.52466l 0.64252, 7.25876l 0.64252, 6.96229l 0.64252, 6.6409l 0.64252, 6.30015l 0.64252, 5.94541l 0.64252, 5.58172l 0.64252, 5.21382l 0.64252, 4.84601l 0.64252,
 4.48219l 0.64252, 4.12577l 0.64252, 3.77972l 0.64252, 3.44652l 0.64252, 3.12818l 0.64252, 2.82628l 0.64252, 2.54198l 0.64252, 2.27605l 0.64252, 2.0289l 0.64252, 1.80063l 0.64252, 1.59106l 0.64252, 1.3998l 0.64252, 1.22622l 0.64252, 1.06958l 0.64252,
 0.928976l 0.64252, 0.803445l 0.64252, 0.691953l 0.64252, 0.593439l 0.64252, 0.50683l 0.64252, 0.431065l 0.64252, 0.365111l 0.64252, 0.307976l 0.64252, 0.258716l 0.64252, 0.216448l 0.64252, 0.180347l 0.64252, 0.149658l 0.64252, 0.123688l 0.64252,
 0.101812l 0.64252, 0.083468l 0.64252, 0.0681542l 0.64252, 0.0554272l 0.64252, 0.0448966l 0.64252, 0.0362217l 0.64252, 0.0291067l 0.64252, 0.0232964l 0.64252, 0.0185721l 0.64252, 0.0147473" fill="none" stroke="#ff0000" stroke-width="2"/>
<path d="M396.387,347.171l 0.64252, 0.0116639" fill="none" stroke="#ff0000" stroke-width="2"/>
<rect x="442.705" y="25.0773" width="113.386" height="61.7287" fill="white"/>
<path d="M442.705,86.8059h 113.386" fill="none" stroke="black"/>
<path d="M556.091,86.8059v -61.7287" fill="none" stroke="black"/>
<path d="M556.091,25.0773h -113.386" fill="none" stroke="black"/>
<path d="M442.705,25.0773v 61.7287" fill="none" stroke="black"/>
<text xml:space="preserve" x="460.216" y="37.3621" fill="black" font-size="13.5253" font-family="Helvetica">C_Cs_1600V</text>
<path d="M442.705,40.5094h 113.386" fill="none" stroke="black"/>
<text xml:space="preserve" x="448.033" y="52.7943" fill="black" font-size="13.1417" font-family="Helvetica">Entries </text>
<text xml:space="preserve" x="510.574" y="52.7943" fill="black" font-size="13.1417" font-family="Helvetica"> 10000</text>
<text xml:space="preserve" x="448.033" y="68.2264" fill="black" font-size="13.1417" font-family="Helvetica">Mean  </text>
<text xml:space="preserve" x="510.574" y="68.2264" fill="black" font-size="13.1417" font-family="Helvetica">  598.6</text>
<text xml:space="preserve" x="448.033" y="84.4708" fill="black" font-size="13.1417" font-family="Helvetica">Std Dev   </text>
<text xml:space="preserve" x="514.635" y="83.6586" fill="black" font-size="13.1417" font-family="Helvetica">    196</text>
<path d="M57.1929,347.224h 453.543" fill="none" stroke="black"/>
<path d="M57.1929,337.964v 9.2593" fill="none" stroke="black"/>
<path d="M76.0906,342.594v 4.62965" fill="none" stroke="black"/>
<path d="M94.9882,342.594v 4.62965" fill="none" stroke="black"/>
<path d="M113.886,342.594v 4.62965" fill="none" stroke="black"/>
<path d="M132.783,337.964v 9.2593" fill="none" stroke="black"/>
<path d="M151.681,342.594v 4.62965" fill="none" stroke="black"/>
<path d="M170.579,342.594v 4.62965" fill="none" stroke="black"/>
<path d="M189.476,342.594v 4.62965" fill="none" stroke="black"/>
<path d="M208.374,337.964v 9.2593" fill="none" stroke="black"/>
<path d="M227.272,342.594v 4.62965" fill="none" stroke="black"/>
<path d="M246.169,342.594v 4.62965" fill="none" stroke="black"/>
<path d="M265.067,342.594v 4.62965" fill="none" stroke="black"/>
<path d="M283.965,337.964v 9.2593" fill="none" stroke="black"/>
<path d="M302.862,342.594v 4.62965" fill="none" stroke="black"/>
<path d="M321.76,342.594v 4.62965" fill="none" stroke="black"/>
<path d="M340.657,342.594v 4.62965" fill="none" stroke="black"/>
<path d="M359.555,337.964v 9.2593" fill="none" stroke="black"/>
<path d="M378.453,342.594v 4.62965" fill="none" stroke="black"/>
<path d="M397.35,342.594v 4.62965" fill="none" stroke="black"/>
<path d="M416.248,342.594v 4.62965" fill="none" stroke="black"/>
<path d="M435.146,337.964v 9.2593" fill="none" stroke="black"/>
<path d="M454.043,342.594v 4.62965" fill="none" stroke="black"/>
<path d="M472.941,342.594v 4.62965" fill="none" stroke="black"/>
<path d="M491.839,342.594v 4.62965" fill="none" stroke="black"/>
<path d="M510.736,337.964v 9.2593" fill="none" stroke="black"/>
<text xml:space="preserve" x="52.482" y="359.813" fill="black" font-size="12.8882" font-family="Helvetica">0</text>
<text xml:space="preserve" x="120.708" y="359.813" fill="black" font-size="12.8882" font-family="Helvetica">200</text>
<text xml:space="preserve" x="196.245" y="359.813" fill="black" font-size="12.8882" font-family="Helvetica">400</text>
<text xml:space="preserve" x="272.594" y="359.813" fill="black" font-size="12.8882" font-family="Helvetica">600</text>
<text xml:space="preserve" x="348.13" y="359.813" fill="black" font-size="12.8882" font-family="Helvetica">800</text>
<text xml:space="preserve" x="420.417" y="359.813" fill="black" font-size="12.8882" font-family="Helvetica">1000</text>
<text xml:space="preserve" x="495.954" y="359.813" fill="black" font-size="12.8882" font-family="Helvetica">1200</text>
<text xml:space="preserve" x="448.845" y="374.433" fill="black" font-size="12.8882" font-family="Helvetica">ADC value</text>
<path d="M57.1929,347.224v -308.643" fill="none" stroke="black"/>
<path d="M70.7992,347.224h -13.6063" fill="none" stroke="black"/>
<path d="M63.9961,332.526h -6.80315" fill="none" stroke="black"/>
<path d="M63.9961,317.829h -6.80315" fill="none" stroke="black"/>
<path d="M63.9961,303.132h -6.80315" fill="none" stroke="black"/>
<path d="M70.7992,288.435h -13.6063" fill="none" stroke="black"/>
<path d="M63.9961,273.737h -6.80315" fill="none" stroke="black"/>
<path d="M63.9961,259.04h -6.80315" fill="none" stroke="black"/>
<path d="M63.9961,244.343h -6.80315" fill="none" stroke="black"/>
<path d="M70.7992,229.645h -13.6063" fill="none" stroke="black"/>
<path d="M63.9961,214.948h -6.80315" fill="none" stroke="black"/>
<path d="M63.9961,200.251h -6.80315" fill="none" stroke="black"/>
<path d="M63.9961,185.553h -6.80315" fill="none" stroke="black"/>
<path d="M70.7992,170.856h -13.6063" fill="none" stroke="black"/>
<path d="M63.9961,156.159h -6.80315" fill="none" stroke="black"/>
<path d="M63.9961,141.462h -6.80315" fill="none" stroke="black"/>
<path d="M63.9961,126.764h -6.80315" fill="none" stroke="black"/>
<path d="M70.7992,112.067h -13.6063" fill="none" stroke="black"/>
<path d="M63.9961,97.3696h -6.80315" fill="none" stroke="black"/>
<path d="M63.9961,82.6723h -6.80315" fill="none" stroke="black"/>
<path d="M63.9961,67.975h -6.80315" fill="none" stroke="black"/>
<path d="M70.7992,53.2777h -13.6063" fill="none" stroke="black"/>
<path d="M70.7992,53.2777h -13.6063" fill="none" stroke="black"/>
<text xml:space="preserve" x="46.7965" y="351.691" fill="black" font-size="12.8882" font-family="Helvetica">0</text>
<text xml:space="preserve" x="39.4865" y="293.211" fill="black" font-size="12.8882" font-family="Helvetica">20</text>
<text xml:space="preserve" x="39.4865" y="233.919" fill="black" font-size="12.8882" font-family="Helvetica">40</text>
<text xml:space="preserve" x="39.4865" y="175.439" fill="black" font-size="12.8882" font-family="Helvetica">60</text>
<text xml:space="preserve" x="39.4865" y="116.147" fill="black" font-size="12.8882" font-family="Helvetica">80</text>
<text xml:space="preserve" x="32.1766" y="57.6676" fill="black" font-size="12.8882" font-family="Helvetica">100</text>
<g transform="rotate(-90,21.6177,77.9731)">
<text xml:space="preserve" x="21.6177" y="77.9731" fill="black" font-size="12.8882" font-family="Helvetica">Events</text>
</g>
<rect x="442.705" y="25.0773" width="113.386" height="61.7287" fill="white"/>
<path d="M442.705,86.8059h 113.386" fill="none" stroke="black"/>
<path d="M556.091,86.8059v -61.7287" fill="none" stroke="black"/>
<path d="M556.091,25.0773h -113.386" fill="none" stroke="black"/>
<path d="M442.705,25.0773v 61.7287" fill="none" stroke="black"/>
<text xml:space="preserve" x="460.216" y="37.3621" fill="black" font-size="13.5253" font-family="Helvetica">C_Cs_1600V</text>
<path d="M442.705,40.5094h 113.386" fill="none" stroke="black"/>
<text xml:space="preserve" x="448.033" y="52.7943" fill="black" font-size="13.1417" font-family="Helvetica">Entries </text>
<text xml:space="preserve" x="510.574" y="52.7943" fill="black" font-size="13.1417" font-family="Helvetica"> 10000</text>
<text xml:space="preserve" x="448.033" y="68.2264" fill="black" font-size="13.1417" font-family="Helvetica">Mean  </text>
<text xml:space="preserve" x="510.574" y="68.2264" fill="black" font-size="13.1417" font-family="Helvetica">  598.6</text>
<text xml:space="preserve" x="448.033" y="84.4708" fill="black" font-size="13.1417" font-family="Helvetica">Std Dev   </text>
<text xml:space="preserve" x="514.635" y="83.6586" fill="black" font-size="13.1417" font-family="Helvetica">    196</text>
<text xml:space="preserve" x="232.795" y="17.8688" fill="black" font-size="17.0471" font-family="Helvetica">C_Cs_1600V</text></svg>
