<?xml version="1.0" standalone="no"?>
<svg width="567.429" height="384.68" viewBox="0 0 567.429 384.68" xmlns="http://www.w3.org/2000/svg" shape-rendering="crispEdges">
<title>
img/calibration/C_Cs_1600V.svg
</title>
<desc>
Creator: ROOT Version 6.22/09
CreationDate: Wed Jun  9 00:54:04 2021</desc>
<defs>
</defs>
<rect x="0.5" y="0" width="566.929" height="384.18" fill="white"/>
<rect x="57.1929" y="38.418" width="453.543" height="307.344" fill="white"/>
<rect x="57.1929" y="38.418" width="453.543" height="307.344" fill="none" stroke="black"/>
<rect x="57.1929" y="38.418" width="453.543" height="307.344" fill="white"/>
<rect x="57.1929" y="38.418" width="453.543" height="307.344" fill="none" stroke="black"/>
<path d="M57.1929,345.762h 2.26772v -8.78125h 0.453543v 8.78125h 0.453543v -2.92708h 0.907087v 2.92708h 2.26772v -2.92708h 0.453543v 2.92708h 1.36063v -2.92708h 0.453543v 2.92708h 0.453543v -2.92708h 0.453543v 2.92708h 0.453543v -2.92708h 0.453543v
 2.92708h 0.453543v -2.92708h 0.453543v 2.92708h 1.36063v -2.92708h 0.453543v 2.92708h 0.907087v -8.78125h 0.453543v 8.78125h 0.453543v -2.92708h 0.453543v 2.92708h 0.907087v -2.92708h 0.453543v -2.92708h 0.907087v 2.92708h 0.453543v 2.92708h
 0.907087v -2.92708h 0.453543v 2.92708h 1.36063v -5.85417h 0.453543v 5.85417h 3.1748v -5.85417h 0.453543v 2.92708h 0.453543v 2.92708h 0.453543v -5.85417h 0.453543v 5.85417h 0.453543v -2.92708h 0.907087v 2.92708h 1.36063v -2.92708h 0.453543v 2.92708h
 0.453543v -2.92708h 0.453543v 2.92708h 1.36063v -8.78125h 0.453543v 5.85417h 1.36063v 2.92708h 0.907087v -2.92708h 0.453543v 2.92708h 1.81417v -2.92708h 2.26772v 2.92708h 0.453543v -2.92708h 0.453543v 2.92708h 1.36063v -2.92708h 0.907087v 2.92708h
 0.907087v -2.92708h 0.453543v 2.92708h 0.453543v -2.92708h 0.453543v 2.92708h 0.453543v -2.92708h 0.453543v 2.92708h 0.453543v -2.92708h 0.907087v 2.92708h 0.907087v -2.92708h 0.453543v 2.92708h 0.453543v -2.92708h 1.36063v 2.92708h 0.453543v
 -5.85417h 0.453543v 5.85417h 0.907087v -2.92708h 0.453543v 2.92708h 1.81417v -2.92708h 0.453543v 2.92708h 0.453543v -2.92708h 1.81417v -2.92708h 0.453543v 5.85417h 0.453543v -2.92708h 0.453543v 2.92708h 1.81417v -2.92708h 0.907087v 2.92708h
 0.907087v -2.92708h 0.907087v -2.92708h 0.453543v 5.85417h 0.907087v -2.92708h 0.453543v 2.92708h 0.453543v -2.92708h 0.453543v 2.92708h 2.72126v -2.92708h 0.453543v 2.92708h 3.1748v -2.92708h 0.453543v 2.92708h 0.453543v -5.85417h 0.453543v
 5.85417h 0.907087v -5.85417h 0.453543v 2.92708h 0.453543v -2.92708h 0.453543v 2.92708h 0.453543v -2.92708h 0.453543v 5.85417h 0.453543v -5.85417h 0.453543v 2.92708h 0.453543v 2.92708h 1.36063v -2.92708h 0.453543v 2.92708h 0.453543v -2.92708h
 0.453543v -2.92708h 0.453543v 2.92708h 0.453543v 2.92708h 1.81417v -2.92708h 1.81417v -2.92708h 0.453543v -5.85417h 0.453543v 5.85417h 0.453543v -2.92708h 0.453543v 5.85417h 0.453543v -2.92708h 0.453543v 2.92708h 0.453543v -2.92708h 0.453543v
 -2.92708h 0.907087v 2.92708h 0.453543v 2.92708h 0.453543v -2.92708h 0.907087v 2.92708h 0.453543v -11.7083h 0.453543v 14.6354h 0.453543v -14.6354h 0.453543v 8.78125h 0.453543v -2.92708h 0.453543v -2.92708h 0.453543v 5.85417h 0.453543v -14.6354h
 0.453543v 14.6354h 0.907087v -8.78125h 0.453543v 8.78125h 0.453543v -5.85417h 0.453543v 8.78125h 0.453543v -14.6354h 0.453543v 2.92708h 0.453543v 8.78125h 0.453543v -5.85417h 0.453543v -2.92708h 0.453543v -2.92708h 0.453543v 5.85417h 0.453543v
 -20.4896h 0.453543v 11.7083h 0.453543v 11.7083h 0.453543v -23.4167h 0.453543v 11.7083h 0.453543v 17.5625h 0.453543v -23.4167h 0.453543v 5.85417h 0.453543v -2.92708h 0.907087v 11.7083h 0.453543v -8.78125h 0.453543v -5.85417h 0.907087v -2.92708h
 0.453543v -5.85417h 0.453543v 11.7083h 0.453543v -2.92708h 0.453543v -14.6354h 0.453543v 11.7083h 0.453543v -20.4896h 0.453543v 8.78125h 0.453543v 20.4896h 0.453543v -14.6354h 0.453543v 2.92708h 0.453543v 14.6354h 0.453543v -35.125h 0.453543v
 8.78125h 0.453543v 14.6354h 0.453543v -8.78125h 0.453543v -14.6354h 0.453543v 14.6354h 0.453543v -26.3438h 0.453543v 20.4896h 0.453543v 14.6354h 0.453543v -17.5625h 0.453543v -5.85417h 0.453543v -5.85417h 0.453543v 17.5625h 0.453543v -40.9792h
 0.453543v 29.2708h 0.453543v 5.85417h 0.907087v -17.5625h 0.453543v -8.78125h 0.453543v 23.4167h 0.453543v 5.85417h 0.453543v -23.4167h 0.453543v -26.3438h 0.453543v 11.7083h 0.453543v 35.125h 0.453543v -29.2708h 0.453543v 23.4167h 0.453543v
 5.85417h 0.453543v -23.4167h 0.907087v -2.92708h 0.453543v 14.6354h 0.453543v -17.5625h 0.453543v 11.7083h 0.453543v 8.78125h 0.453543v -14.6354h 0.907087v 14.6354h 0.907087v 26.3438h 0.453543v -35.125h 0.453543v 5.85417h 0.453543v -8.78125h
 0.453543v -11.7083h 0.453543v 11.7083h 0.907087v 8.78125h 0.453543v -26.3438h 0.907087v 43.9063h 0.453543v -29.2708h 0.907087v 8.78125h 0.453543v -23.4167h 0.453543v 11.7083h 1.36063v -2.92708h 0.453543v 23.4167h 0.453543v -5.85417h 0.453543v
 -17.5625h 0.453543v 11.7083h 0.453543v 8.78125h 0.453543v -17.5625h 0.453543v 5.85417h 0.453543v 17.5625h 0.453543v -5.85417h 0.453543v -29.2708h 0.453543v 8.78125h 0.453543v 8.78125h 0.453543v -2.92708h 0.453543v 17.5625h 0.453543v 8.78125h
 0.453543v -38.0521h 0.453543v 20.4896h 0.453543v 2.92708h 0.453543v -11.7083h 0.453543v 23.4167h 0.453543v -23.4167h 0.453543v -5.85417h 0.453543v 20.4896h 0.907087v -20.4896h 0.453543v 5.85417h 0.453543v 2.92708h 0.453543v 11.7083h 0.453543v
 -5.85417h 0.453543v 14.6354h 0.453543v 2.92708h 0.453543v -26.3438h 0.453543v 11.7083h 0.453543v -5.85417h 0.453543v 11.7083h 0.453543v -5.85417h 0.453543v 8.78125h 0.453543v 8.78125h 0.453543v -8.78125h 0.453543v -11.7083h 0.453543v 23.4167h
 0.453543v -20.4896h 0.453543v 8.78125h 0.453543v 8.78125h 0.453543v -2.92708h 0.453543v 2.92708h 0.453543v -29.2708h 0.453543v -26.3438h 0.453543v 43.9063h 0.453543v -2.92708h 0.453543v -8.78125h 0.453543v 20.4896h 0.453543v -2.92708h 0.453543v
 -29.2708h 0.453543v 17.5625h 0.453543v -2.92708h 0.453543v 8.78125h 0.453543v -14.6354h 0.453543v 11.7083h 0.453543v -17.5625h 0.453543v 8.78125h 0.453543v 23.4167h 0.907087v -29.2708h 0.453543v 14.6354h 0.453543v 8.78125h 0.453543v 8.78125h
 0.453543v -5.85417h 0.453543v -20.4896h 0.453543v 26.3438h 0.453543v -14.6354h 0.907087v -5.85417h 0.453543v -11.7083h 0.453543v 43.9063h 0.453543v -32.1979h 0.453543v 11.7083h 0.453543v 5.85417h 0.453543v -2.92708h 0.453543v -8.78125h 0.453543v
 2.92708h 0.453543v 20.4896h 0.453543v -38.0521h 0.453543v 26.3438h 0.453543v 20.4896h 0.453543v -23.4167h 0.453543v -11.7083h 0.453543v -14.6354h 0.453543v 29.2708h 0.907087v -5.85417h 0.453543v 8.78125h 0.453543v -11.7083h 0.453543v 11.7083h
 0.453543v -5.85417h 0.907087v -5.85417h 0.453543v -8.78125h 0.453543v 20.4896h 0.453543v 2.92708h 0.453543v -20.4896h 0.453543v 14.6354h 0.453543v 14.6354h 0.453543v -40.9792h 0.453543v 17.5625h 0.453543v -26.3438h 0.453543v 8.78125h 0.453543v
 20.4896h 0.453543v 2.92708h 0.453543v -2.92708h 0.453543v 5.85417h 0.453543v 8.78125h 0.453543v -32.1979h 0.453543v 8.78125h 0.453543v 8.78125h 0.453543v -17.5625h 0.453543v 20.4896h 0.453543v -8.78125h 0.453543v 14.6354h 0.453543v -5.85417h
 0.453543v 2.92708h 0.453543v -14.6354h 0.453543v -8.78125h 0.453543v 17.5625h 0.453543v -14.6354h 0.453543v 2.92708h 0.453543v 20.4896h 0.453543v -11.7083h 0.453543v -5.85417h 0.453543v 8.78125h 0.453543v -23.4167h 0.453543v 23.4167h 0.453543v
 11.7083h 0.453543v -2.92708h 0.453543v -5.85417h 0.453543v -8.78125h 0.453543v 29.2708h 0.453543v -29.2708h 0.453543v 2.92708h 0.453543v -5.85417h 0.453543v 5.85417h 0.453543v 14.6354h 0.453543v 2.92708h 0.453543v -8.78125h 0.453543v -8.78125h
 0.453543v 11.7083h 0.907087v -5.85417h 0.907087v -14.6354h 0.453543v 20.4896h 0.453543v 26.3438h 0.453543v -26.3438h 0.453543v -2.92708h 0.453543v 5.85417h 0.453543v 5.85417h 0.453543v -23.4167h 0.453543v 29.2708h 0.453543v 2.92708h 0.453543v
 -5.85417h 0.453543v -17.5625h 0.453543v 2.92708h 0.453543v 8.78125h 0.453543v -5.85417h 0.453543v 2.92708h 0.453543v 5.85417h 0.453543v -11.7083h 0.453543v 14.6354h 0.453543v -20.4896h 0.453543v 20.4896h 0.453543v -2.92708h 0.453543v -8.78125h
 0.453543v 20.4896h 0.453543v 8.78125h 0.453543v -20.4896h 0.453543v -8.78125h 0.907087v 17.5625h 0.453543v -11.7083h 0.453543v 14.6354h 0.453543v -5.85417h 0.453543v -8.78125h 0.453543v 14.6354h 0.453543v 5.85417h 0.907087v -14.6354h 0.453543v
 14.6354h 0.453543v -14.6354h 0.453543v 2.92708h 0.453543v 5.85417h 0.453543v 2.92708h 0.453543v -5.85417h 0.453543v 5.85417h 0.453543v 5.85417h 0.453543v -11.7083h 0.453543v -2.92708h 0.453543v 8.78125h 0.453543v 8.78125h 0.453543v -14.6354h
 0.453543v -2.92708h 0.453543v 2.92708h 0.453543v 5.85417h 0.907087v -2.92708h 0.453543v -2.92708h 0.453543v 2.92708h 0.453543v -8.78125h 0.453543v 14.6354h 0.453543v -2.92708h 0.453543v -2.92708h 0.453543v 8.78125h 0.907087v -2.92708h 0.453543v
 2.92708h 0.453543v -2.92708h 0.453543v 5.85417h 0.453543v -2.92708h 0.453543v 5.85417h 0.453543v -17.5625h 0.453543v 5.85417h 0.453543v 8.78125h 0.453543v -5.85417h 0.453543v -8.78125h 1.36063v 5.85417h 0.453543v -5.85417h 0.453543v 8.78125h
 0.453543v 5.85417h 0.907087v -5.85417h 0.453543v -5.85417h 0.453543v -8.78125h 0.453543v 14.6354h 0.907087v 2.92708h 0.453543v -11.7083h 0.453543v 17.5625h 0.453543v -11.7083h 0.453543v 2.92708h 0.907087v 5.85417h 0.453543v -5.85417h 0.453543v
 -2.92708h 1.36063v -2.92708h 0.453543v 14.6354h 0.453543v -11.7083h 0.453543v 2.92708h 0.453543v 2.92708h 0.907087v 5.85417h 0.453543v -14.6354h 0.453543v 2.92708h 0.453543v 5.85417h 0.453543v -11.7083h 0.453543v 14.6354h 0.453543v -8.78125h
 0.453543v 8.78125h 0.453543v -5.85417h 0.453543v 2.92708h 0.907087v -5.85417h 0.453543v -5.85417h 0.453543v 2.92708h 0.453543v 5.85417h 0.453543v -2.92708h 0.453543v 11.7083h 0.453543v -5.85417h 0.453543v 2.92708h 0.453543v -8.78125h 0.453543v
 5.85417h 0.453543v 2.92708h 0.453543v -11.7083h 0.453543v -11.7083h 0.453543v 23.4167h 0.453543v -5.85417h 0.453543v -2.92708h 0.453543v -5.85417h 0.453543v -8.78125h 0.453543v 23.4167h 0.453543v -5.85417h 0.907087v -2.92708h 0.453543v 8.78125h
 0.453543v -20.4896h 0.453543v 8.78125h 0.453543v -2.92708h 0.453543v -5.85417h 0.453543v 2.92708h 0.453543v -8.78125h 0.453543v 2.92708h 0.907087v -8.78125h 0.453543v -20.4896h 0.453543v 29.2708h 0.453543v -2.92708h 0.453543v 11.7083h 0.453543v
 -46.8333h 0.453543v 17.5625h 0.453543v 38.0521h 0.453543v -35.125h 0.453543v 5.85417h 0.453543v -20.4896h 0.453543v 5.85417h 0.453543v -2.92708h 0.907087v -11.7083h 0.453543v 5.85417h 0.453543v -14.6354h 0.453543v -26.3438h 0.453543v 11.7083h
 0.453543v -17.5625h 0.453543v 32.1979h 0.453543v -20.4896h 0.453543v 8.78125h 0.453543v -11.7083h 0.453543v -43.9063h 0.453543v 26.3438h 0.453543v -17.5625h 0.907087v -8.78125h 0.453543v 8.78125h 0.453543v -11.7083h 0.453543v -2.92708h 0.453543v
 -14.6354h 0.453543v 26.3438h 0.453543v -17.5625h 0.453543v 2.92708h 0.453543v 2.92708h 0.453543v -81.9584h 0.453543v 46.8333h 0.453543v 35.125h 0.453543v 2.92708h 0.453543v -70.25h 0.907087v 49.7604h 0.453543v -40.9792h 0.453543v -14.6354h 0.453543v
 38.0521h 0.453543v -29.2708h 0.453543v 40.9792h 0.453543v -26.3438h 0.453543v 14.6354h 0.453543v -23.4167h 0.453543v -38.0521h 0.453543v 43.9063h 0.453543v -38.0521h 0.453543v 11.7083h 0.907087v -61.4688h 0.453543v 84.8854h 0.453543v -8.78125h
 0.453543v 32.1979h 0.453543v 8.78125h 0.453543v 8.78125h 0.453543v -38.0521h 0.453543v -29.2708h 0.453543v 32.1979h 0.453543v 40.9792h 0.453543v -40.9792h 0.453543v 32.1979h 0.453543v 17.5625h 0.453543v -38.0521h 0.453543v 32.1979h 0.453543v
 -40.9792h 0.453543v 43.9063h 0.453543v 23.4167h 0.453543v -2.92708h 0.453543v -8.78125h 0.453543v -2.92708h 0.453543v 35.125h 0.453543v -20.4896h 0.453543v -5.85417h 0.453543v 32.1979h 0.453543v 11.7083h 0.453543v 2.92708h 0.453543v 26.3438h
 0.453543v -23.4167h 0.453543v 26.3438h 0.453543v -20.4896h 0.453543v 20.4896h 0.453543v 2.92708h 0.453543v 8.78125h 0.453543v -2.92708h 0.453543v -26.3438h 0.453543v 40.9792h 0.453543v -2.92708h 0.453543v 14.6354h 0.453543v -5.85417h 0.453543v
 -8.78125h 0.453543v 11.7083h 0.453543v -5.85417h 0.453543v -2.92708h 0.453543v 17.5625h 0.453543v 2.92708h 0.453543v -5.85417h 0.453543v 8.78125h 0.453543v 8.78125h 0.453543v -11.7083h 0.453543v 5.85417h 0.453543v -23.4167h 0.453543v 26.3438h
 0.453543v 5.85417h 0.453543v -8.78125h 0.907087v 8.78125h 0.907087v 2.92708h 0.453543v -8.78125h 0.453543v 8.78125h 0.453543v -8.78125h 0.453543v 2.92708h 0.907087v -2.92708h 0.453543v 5.85417h 0.453543v 2.92708h 1.81417v -2.92708h 0.453543v
 2.92708h 0.453543v -2.92708h 0.453543v 2.92708h 0.453543v -2.92708h 0.453543v 2.92708h 1.81417v -2.92708h 0.453543v 2.92708h 1.36063v -2.92708h 0.453543v 2.92708h 0.907087v -2.92708h 0.453543v 2.92708h 2.72126v -2.92708h 0.907087v 2.92708h 1.81417v
 -2.92708h 0.453543v 2.92708h 0.907087v -2.92708h 0.453543v 2.92708h 2.72126v -2.92708h 0.453543v 2.92708h 0.907087v -2.92708h 0.453543v 2.92708h 5.89606v -2.92708h 0.453543v 2.92708h 5.89606v -2.92708h 0.453543v 2.92708h 2.26772v -2.92708h 0.453543v
 2.92708h 0.907087v -2.92708h 0.453543v 2.92708h 2.72126v -2.92708h 0.453543v 2.92708h 5.44252v -2.92708h 0.453543v 2.92708h 2.26772v -2.92708h 0.453543v 2.92708h 1.36063v -2.92708h 0.907087v 2.92708h 2.26772v -2.92708h 0.453543v 2.92708h 1.81417v
 -2.92708h 0.453543v 2.92708h 6.80315v -2.92708h 0.453543v 2.92708h 4.98898v -2.92708h 0.453543v 2.92708h 2.26772v -2.92708h 0.453543v 2.92708h 0.453543v -2.92708h 0.453543v 2.92708h 7.25669v -2.92708h 0.453543v 2.92708h 1.36063v -2.92708h 0.453543v
 2.92708h 2.72126v -2.92708h 0.453543v 2.92708h 1.81417v -2.92708h 0.453543v 2.92708h 8.16378v -2.92708h 0.453543v 2.92708h 1.81417v -2.92708h 0.453543v 2.92708h 5.44252v -2.92708h 0.453543v 2.92708h 7.25669v -5.85417h 0.453543v 5.85417h 5.44252v
 -2.92708h 0.453543v 2.92708h 4.98898v -2.92708h 0.453543v 2.92708h 0.907087" fill="none" stroke="#000099"/>
<path d="M333.42,309.502l 0.64252, -4.38657l 0.64252, -4.74755l 0.64252, -5.11327l 0.64252, -5.47995l 0.64252, -5.84339l 0.64252, -6.19896l 0.64252, -6.5417l 0.64252, -6.86632l 0.64252, -7.16734l 0.64252, -7.43911l 0.64252, -7.67597l 0.64252,
 -7.8723l 0.64252, -8.02267l 0.64252, -8.12194l 0.64252, -8.16541l 0.64252, -8.14889l 0.64252, -8.06886l 0.64252, -7.92257l 0.64252, -7.70811l 0.64252, -7.42453l 0.64252, -7.07188l 0.64252, -6.65124l 0.64252, -6.16482l 0.64252, -5.61585l 0.64252,
 -5.00864l 0.64252, -4.34851l 0.64252, -3.64168l 0.64252, -2.89525l 0.64252, -2.11699l 0.64252, -1.31527l 0.64252, -0.498912l 0.64252, 0.323021l 0.64252, 1.14135l 0.64252, 1.94695l 0.64252, 2.73096l 0.64252, 3.48489l 0.64252, 4.20081l 0.64252,
 4.8715l 0.64252, 5.49052l 0.64252, 6.05237l 0.64252, 6.5525l 0.64252, 6.98744l 0.64252, 7.35479l 0.64252, 7.65321l 0.64252, 7.88242l 0.64252, 8.04318l 0.64252, 8.1372l 0.64252, 8.16705l 0.64252, 8.1361" fill="none" stroke="#ff0000"
 stroke-width="2"/>
<path d="M364.903,224.414l 0.64252, 8.0484l 0.64252, 7.90855l 0.64252, 7.72162l 0.64252, 7.49297l 0.64252, 7.2282l 0.64252, 6.93297l 0.64252, 6.61293l 0.64252, 6.27363l 0.64252, 5.92037l 0.64252, 5.55822l 0.64252, 5.19186l 0.64252, 4.82561l 0.64252,
 4.46332l 0.64252, 4.1084l 0.64252, 3.76381l 0.64252, 3.43201l 0.64252, 3.11501l 0.64252, 2.81438l 0.64252, 2.53128l 0.64252, 2.26646l 0.64252, 2.02035l 0.64252, 1.79305l 0.64252, 1.58436l 0.64252, 1.3939l 0.64252, 1.22106l 0.64252, 1.06507l 0.64252,
 0.925064l 0.64252, 0.800062l 0.64252, 0.68904l 0.64252, 0.59094l 0.64252, 0.504696l 0.64252, 0.42925l 0.64252, 0.363574l 0.64252, 0.306679l 0.64252, 0.257627l 0.64252, 0.215536l 0.64252, 0.179588l 0.64252, 0.149028l 0.64252, 0.123167l 0.64252,
 0.101383l 0.64252, 0.0831165l 0.64252, 0.0678673l 0.64252, 0.0551938l 0.64252, 0.0447076l 0.64252, 0.0360692l 0.64252, 0.0289842l 0.64252, 0.0231984l 0.64252, 0.0184939l 0.64252, 0.0146852" fill="none" stroke="#ff0000" stroke-width="2"/>
<path d="M396.387,345.71l 0.64252, 0.0116148" fill="none" stroke="#ff0000" stroke-width="2"/>
<rect x="442.705" y="24.9717" width="113.386" height="61.4688" fill="white"/>
<path d="M442.705,86.4405h 113.386" fill="none" stroke="black"/>
<path d="M556.091,86.4405v -61.4688" fill="none" stroke="black"/>
<path d="M556.091,24.9717h -113.386" fill="none" stroke="black"/>
<path d="M442.705,24.9717v 61.4688" fill="none" stroke="black"/>
<text xml:space="preserve" x="460.216" y="36.5499" fill="black" font-size="13.4705" font-family="Helvetica">C_Cs_1600V</text>
<path d="M442.705,40.3389h 113.386" fill="none" stroke="black"/>
<text xml:space="preserve" x="448.033" y="52.7943" fill="black" font-size="12.7411" font-family="Helvetica">Entries </text>
<text xml:space="preserve" x="513.01" y="52.7943" fill="black" font-size="12.7411" font-family="Helvetica"> 10000</text>
<text xml:space="preserve" x="448.033" y="68.2264" fill="black" font-size="12.7411" font-family="Helvetica">Mean  </text>
<text xml:space="preserve" x="513.01" y="68.2264" fill="black" font-size="12.7411" font-family="Helvetica">  598.6</text>
<text xml:space="preserve" x="448.033" y="82.8464" fill="black" font-size="12.7411" font-family="Helvetica">Std Dev   </text>
<text xml:space="preserve" x="516.259" y="82.8464" fill="black" font-size="12.7411" font-family="Helvetica">    196</text>
<path d="M57.1929,345.762h 453.543" fill="none" stroke="black"/>
<path d="M57.1929,336.541v 9.22031" fill="none" stroke="black"/>
<path d="M76.0906,341.152v 4.61016" fill="none" stroke="black"/>
<path d="M94.9882,341.152v 4.61016" fill="none" stroke="black"/>
<path d="M113.886,341.152v 4.61016" fill="none" stroke="black"/>
<path d="M132.783,336.541v 9.22031" fill="none" stroke="black"/>
<path d="M151.681,341.152v 4.61016" fill="none" stroke="black"/>
<path d="M170.579,341.152v 4.61016" fill="none" stroke="black"/>
<path d="M189.476,341.152v 4.61016" fill="none" stroke="black"/>
<path d="M208.374,336.541v 9.22031" fill="none" stroke="black"/>
<path d="M227.272,341.152v 4.61016" fill="none" stroke="black"/>
<path d="M246.169,341.152v 4.61016" fill="none" stroke="black"/>
<path d="M265.067,341.152v 4.61016" fill="none" stroke="black"/>
<path d="M283.965,336.541v 9.22031" fill="none" stroke="black"/>
<path d="M302.862,341.152v 4.61016" fill="none" stroke="black"/>
<path d="M321.76,341.152v 4.61016" fill="none" stroke="black"/>
<path d="M340.657,341.152v 4.61016" fill="none" stroke="black"/>
<path d="M359.555,336.541v 9.22031" fill="none" stroke="black"/>
<path d="M378.453,341.152v 4.61016" fill="none" stroke="black"/>
<path d="M397.35,341.152v 4.61016" fill="none" stroke="black"/>
<path d="M416.248,341.152v 4.61016" fill="none" stroke="black"/>
<path d="M435.146,336.541v 9.22031" fill="none" stroke="black"/>
<path d="M454.043,341.152v 4.61016" fill="none" stroke="black"/>
<path d="M472.941,341.152v 4.61016" fill="none" stroke="black"/>
<path d="M491.839,341.152v 4.61016" fill="none" stroke="black"/>
<path d="M510.736,336.541v 9.22031" fill="none" stroke="black"/>
<text xml:space="preserve" x="53.2943" y="358.189" fill="black" font-size="12.836" font-family="Helvetica">0</text>
<text xml:space="preserve" x="121.521" y="358.189" fill="black" font-size="12.836" font-family="Helvetica">200</text>
<text xml:space="preserve" x="197.057" y="358.189" fill="black" font-size="12.836" font-family="Helvetica">400</text>
<text xml:space="preserve" x="273.406" y="358.189" fill="black" font-size="12.836" font-family="Helvetica">600</text>
<text xml:space="preserve" x="348.942" y="358.189" fill="black" font-size="12.836" font-family="Helvetica">800</text>
<text xml:space="preserve" x="421.23" y="358.189" fill="black" font-size="12.836" font-family="Helvetica">1000</text>
<text xml:space="preserve" x="496.766" y="358.189" fill="black" font-size="12.836" font-family="Helvetica">1200</text>
<text xml:space="preserve" x="452.094" y="371.996" fill="black" font-size="12.836" font-family="Helvetica">ADC value</text>
<path d="M57.1929,345.762v -307.344" fill="none" stroke="black"/>
<path d="M70.7992,345.762h -13.6063" fill="none" stroke="black"/>
<path d="M63.9961,331.126h -6.80315" fill="none" stroke="black"/>
<path d="M63.9961,316.491h -6.80315" fill="none" stroke="black"/>
<path d="M63.9961,301.856h -6.80315" fill="none" stroke="black"/>
<path d="M70.7992,287.22h -13.6063" fill="none" stroke="black"/>
<path d="M63.9961,272.585h -6.80315" fill="none" stroke="black"/>
<path d="M63.9961,257.949h -6.80315" fill="none" stroke="black"/>
<path d="M63.9961,243.314h -6.80315" fill="none" stroke="black"/>
<path d="M70.7992,228.678h -13.6063" fill="none" stroke="black"/>
<path d="M63.9961,214.043h -6.80315" fill="none" stroke="black"/>
<path d="M63.9961,199.408h -6.80315" fill="none" stroke="black"/>
<path d="M63.9961,184.772h -6.80315" fill="none" stroke="black"/>
<path d="M70.7992,170.137h -13.6063" fill="none" stroke="black"/>
<path d="M63.9961,155.501h -6.80315" fill="none" stroke="black"/>
<path d="M63.9961,140.866h -6.80315" fill="none" stroke="black"/>
<path d="M63.9961,126.23h -6.80315" fill="none" stroke="black"/>
<path d="M70.7992,111.595h -13.6063" fill="none" stroke="black"/>
<path d="M63.9961,96.9597h -6.80315" fill="none" stroke="black"/>
<path d="M63.9961,82.3242h -6.80315" fill="none" stroke="black"/>
<path d="M63.9961,67.6888h -6.80315" fill="none" stroke="black"/>
<path d="M70.7992,53.0534h -13.6063" fill="none" stroke="black"/>
<path d="M70.7992,53.0534h -13.6063" fill="none" stroke="black"/>
<text xml:space="preserve" x="47.6087" y="350.067" fill="black" font-size="12.836" font-family="Helvetica">0</text>
<text xml:space="preserve" x="41.111" y="291.587" fill="black" font-size="12.836" font-family="Helvetica">20</text>
<text xml:space="preserve" x="41.111" y="233.107" fill="black" font-size="12.836" font-family="Helvetica">40</text>
<text xml:space="preserve" x="41.111" y="174.627" fill="black" font-size="12.836" font-family="Helvetica">60</text>
<text xml:space="preserve" x="41.111" y="116.147" fill="black" font-size="12.836" font-family="Helvetica">80</text>
<text xml:space="preserve" x="33.801" y="57.6676" fill="black" font-size="12.836" font-family="Helvetica">100</text>
<g transform="rotate(-90,20.8055,75.5364)">
<text xml:space="preserve" x="20.8055" y="75.5364" fill="black" font-size="12.836" font-family="Helvetica">Events</text>
</g>
<rect x="442.705" y="24.9717" width="113.386" height="61.4688" fill="white"/>
<path d="M442.705,86.4405h 113.386" fill="none" stroke="black"/>
<path d="M556.091,86.4405v -61.4688" fill="none" stroke="black"/>
<path d="M556.091,24.9717h -113.386" fill="none" stroke="black"/>
<path d="M442.705,24.9717v 61.4688" fill="none" stroke="black"/>
<text xml:space="preserve" x="460.216" y="36.5499" fill="black" font-size="13.4705" font-family="Helvetica">C_Cs_1600V</text>
<path d="M442.705,40.3389h 113.386" fill="none" stroke="black"/>
<text xml:space="preserve" x="448.033" y="52.7943" fill="black" font-size="12.7411" font-family="Helvetica">Entries </text>
<text xml:space="preserve" x="513.01" y="52.7943" fill="black" font-size="12.7411" font-family="Helvetica"> 10000</text>
<text xml:space="preserve" x="448.033" y="68.2264" fill="black" font-size="12.7411" font-family="Helvetica">Mean  </text>
<text xml:space="preserve" x="513.01" y="68.2264" fill="black" font-size="12.7411" font-family="Helvetica">  598.6</text>
<text xml:space="preserve" x="448.033" y="82.8464" fill="black" font-size="12.7411" font-family="Helvetica">Std Dev   </text>
<text xml:space="preserve" x="516.259" y="82.8464" fill="black" font-size="12.7411" font-family="Helvetica">    196</text>
<text xml:space="preserve" x="230.358" y="18.681" fill="black" font-size="17.9813" font-family="Helvetica">C_Cs_1600V</text></svg>
