<?xml version="1.0" standalone="no"?>
<svg width="567.429" height="386.304" viewBox="0 0 567.429 386.304" xmlns="http://www.w3.org/2000/svg" shape-rendering="crispEdges">
<title>
img/calibration/C_Na_1600V.svg
</title>
<desc>
Creator: ROOT Version 6.22/08
CreationDate: Wed Jun  9 12:42:01 2021</desc>
<defs>
</defs>
<rect x="0.5" y="0" width="566.929" height="385.804" fill="white"/>
<rect x="57.1929" y="38.5804" width="453.543" height="308.643" fill="white"/>
<rect x="57.1929" y="38.5804" width="453.543" height="308.643" fill="none" stroke="black"/>
<rect x="57.1929" y="38.5804" width="453.543" height="308.643" fill="white"/>
<rect x="57.1929" y="38.5804" width="453.543" height="308.643" fill="none" stroke="black"/>
<path d="M57.1929,344.997h 0.453543v -2.22686h 0.453543v 4.45373h 0.453543v -2.22686h 0.453543v 2.22686h 0.453543v -2.22686h 0.907087v 2.22686h 1.36063v -4.45373h 0.907087v 4.45373h 0.453543v -6.68059h 0.453543v 6.68059h 0.453543v -2.22686h 0.453543v
 2.22686h 0.453543v -2.22686h 0.907087v 2.22686h 0.453543v -4.45373h 0.453543v 4.45373h 2.26772v -2.22686h 0.453543v -4.45373h 0.453543v 6.68059h 0.907087v -2.22686h 1.36063v -2.22686h 0.453543v 4.45373h 0.453543v -2.22686h 0.907087v -2.22686h
 0.453543v 4.45373h 0.453543v -8.90746h 0.453543v 2.22686h 0.453543v 2.22686h 0.907087v -2.22686h 0.907087v 2.22686h 0.453543v 2.22686h 0.907087v -6.68059h 0.453543v 4.45373h 0.453543v -15.588h 0.453543v 17.8149h 0.453543v -8.90746h 0.453543v
 2.22686h 0.453543v -11.1343h 0.453543v 11.1343h 0.453543v -6.68059h 0.453543v -11.1343h 0.453543v -4.45373h 0.453543v 8.90746h 0.453543v -2.22686h 0.453543v 6.68059h 0.453543v -8.90746h 0.453543v -15.588h 0.453543v -11.1343h 0.453543v 8.90746h
 0.907087v 6.68059h 0.453543v -15.588h 0.453543v 11.1343h 0.453543v -11.1343h 0.453543v -15.588h 0.453543v 4.45373h 0.453543v -13.3612h 0.453543v 15.588h 0.453543v -6.68059h 0.453543v -6.68059h 0.453543v 17.8149h 0.453543v -6.68059h 0.453543v
 2.22686h 0.453543v 4.45373h 0.453543v 2.22686h 0.453543v -37.8567h 0.907087v -4.45373h 0.453543v -8.90746h 0.453543v -20.0418h 0.453543v 46.7641h 0.907087v -2.22686h 0.453543v -6.68059h 0.453543v -2.22686h 0.453543v 6.68059h 0.453543v -15.588h
 0.453543v -8.90746h 0.453543v -20.0418h 0.453543v 53.4447h 0.453543v -11.1343h 0.453543v -2.22686h 0.453543v 6.68059h 0.453543v -2.22686h 0.907087v -11.1343h 0.453543v 2.22686h 0.453543v 13.3612h 0.453543v 20.0418h 0.453543v -35.6298h 0.453543v
 15.588h 0.453543v -13.3612h 0.453543v 2.22686h 0.453543v 8.90746h 0.453543v 8.90746h 0.453543v 26.7224h 0.453543v -62.3522h 0.453543v 22.2686h 0.453543v -6.68059h 0.453543v 4.45373h 0.453543v 31.1761h 0.453543v -22.2686h 0.453543v 15.588h 0.453543v
 -17.8149h 0.453543v 28.9492h 0.453543v -20.0418h 0.453543v -4.45373h 0.453543v 11.1343h 0.453543v -11.1343h 0.453543v 13.3612h 0.453543v 6.68059h 0.453543v -26.7224h 0.453543v 20.0418h 0.453543v 4.45373h 0.453543v 2.22686h 0.453543v -4.45373h
 0.453543v -4.45373h 0.453543v 13.3612h 0.453543v -33.403h 0.453543v 24.4955h 0.453543v 4.45373h 0.453543v 8.90746h 0.453543v -22.2686h 0.453543v 13.3612h 0.453543v -2.22686h 0.453543v -13.3612h 0.453543v 17.8149h 0.453543v 2.22686h 0.453543v
 -13.3612h 0.453543v 4.45373h 0.453543v 4.45373h 0.453543v -2.22686h 0.453543v 4.45373h 0.453543v -6.68059h 0.453543v 4.45373h 0.453543v 22.2686h 0.453543v -26.7224h 0.453543v -4.45373h 0.453543v 24.4955h 0.453543v 6.68059h 0.453543v -8.90746h
 0.453543v -31.1761h 0.453543v 35.6298h 0.453543v -8.90746h 0.453543v -13.3612h 0.453543v 22.2686h 0.453543v 15.588h 0.453543v -17.8149h 0.453543v 6.68059h 0.907087v 2.22686h 0.453543v -4.45373h 0.453543v 2.22686h 0.453543v 4.45373h 0.907087v
 2.22686h 0.453543v 4.45373h 0.453543v -11.1343h 0.453543v 11.1343h 0.453543v -15.588h 0.453543v 6.68059h 0.453543v 6.68059h 0.453543v -8.90746h 0.453543v 2.22686h 0.453543v 6.68059h 0.453543v -4.45373h 0.453543v 4.45373h 0.453543v -6.68059h
 0.453543v 6.68059h 1.36063v -4.45373h 0.453543v -6.68059h 0.453543v 13.3612h 0.453543v -4.45373h 0.453543v -13.3612h 0.453543v 24.4955h 0.453543v -13.3612h 0.453543v 17.8149h 0.453543v -2.22686h 0.453543v -8.90746h 0.453543v 6.68059h 0.453543v
 -2.22686h 0.453543v 8.90746h 0.453543v -13.3612h 0.453543v 13.3612h 0.453543v -13.3612h 0.453543v 6.68059h 0.453543v -11.1343h 0.453543v 15.588h 0.453543v -11.1343h 0.453543v -8.90746h 0.453543v 6.68059h 0.453543v 11.1343h 0.453543v -15.588h
 0.907087v -8.90746h 0.453543v 15.588h 0.453543v 6.68059h 0.453543v -6.68059h 0.907087v 2.22686h 0.453543v 4.45373h 0.453543v -4.45373h 0.453543v -8.90746h 0.453543v 8.90746h 0.453543v -4.45373h 0.907087v -8.90746h 0.453543v -22.2686h 0.453543v
 13.3612h 0.453543v -6.68059h 0.453543v 4.45373h 0.453543v -17.8149h 0.453543v -17.8149h 0.453543v -11.1343h 0.453543v -37.8567h 0.453543v -6.68059h 0.453543v 2.22686h 0.453543v 6.68059h 0.453543v -26.7224h 0.453543v -4.45373h 0.453543v -40.0836h
 0.453543v 15.588h 0.453543v -22.2686h 0.453543v -8.90746h 0.453543v -69.0328h 0.453543v -2.22686h 0.453543v 28.9492h 0.453543v -35.6298h 0.453543v 22.2686h 0.453543v 6.68059h 0.453543v -17.8149h 0.453543v 33.403h 0.453543v -37.8567h 0.453543v
 4.45373h 0.453543v 53.4447h 0.453543v -31.1761h 0.453543v 26.7224h 0.453543v 28.9492h 0.907087v 8.90746h 0.453543v 20.0418h 0.453543v 31.1761h 0.453543v 11.1343h 0.453543v 17.8149h 0.453543v 2.22686h 0.453543v 11.1343h 0.453543v 15.588h 0.453543v
 17.8149h 0.453543v 4.45373h 0.453543v 22.2686h 0.907087v 11.1343h 0.453543v 2.22686h 0.453543v -13.3612h 0.453543v 28.9492h 0.453543v -24.4955h 0.453543v 13.3612h 0.453543v 8.90746h 0.453543v 2.22686h 0.453543v -4.45373h 0.453543v 4.45373h 0.453543v
 8.90746h 0.453543v -6.68059h 0.453543v 4.45373h 0.453543v -8.90746h 0.453543v 11.1343h 0.453543v -13.3612h 0.453543v 2.22686h 0.453543v 2.22686h 0.453543v 8.90746h 0.453543v -15.588h 0.453543v 11.1343h 0.453543v -17.8149h 0.453543v 11.1343h
 0.453543v 4.45373h 0.453543v 6.68059h 0.453543v -2.22686h 0.453543v -28.9492h 0.453543v 24.4955h 0.453543v -6.68059h 0.453543v 2.22686h 0.453543v 4.45373h 0.453543v 2.22686h 0.453543v -2.22686h 0.453543v -13.3612h 0.453543v 13.3612h 0.453543v
 -4.45373h 0.453543v 2.22686h 0.453543v 2.22686h 0.453543v -8.90746h 0.453543v 13.3612h 0.453543v -2.22686h 0.453543v -6.68059h 0.453543v 4.45373h 0.453543v 2.22686h 0.453543v 2.22686h 0.453543v -11.1343h 0.453543v 4.45373h 0.453543v 2.22686h
 0.453543v -6.68059h 0.453543v 4.45373h 0.453543v -4.45373h 0.453543v -2.22686h 0.453543v 6.68059h 0.453543v 11.1343h 0.453543v -13.3612h 0.453543v -15.588h 0.453543v 13.3612h 0.453543v -11.1343h 0.453543v 11.1343h 0.453543v 13.3612h 0.453543v
 -2.22686h 0.453543v -4.45373h 0.453543v 2.22686h 0.453543v -11.1343h 0.453543v -4.45373h 0.453543v 8.90746h 0.453543v -4.45373h 0.453543v 6.68059h 0.453543v 8.90746h 0.453543v -2.22686h 0.453543v -15.588h 0.453543v 11.1343h 0.907087v -2.22686h
 0.453543v 6.68059h 0.453543v -6.68059h 0.453543v 6.68059h 0.453543v -6.68059h 0.907087v 2.22686h 0.453543v 4.45373h 0.453543v -4.45373h 0.453543v 2.22686h 0.453543v -15.588h 0.453543v 2.22686h 0.453543v 15.588h 0.453543v -11.1343h 0.453543v 6.68059h
 0.453543v -8.90746h 0.453543v 8.90746h 0.453543v -2.22686h 1.36063v 4.45373h 0.453543v -6.68059h 0.453543v 6.68059h 0.453543v -2.22686h 0.453543v -4.45373h 0.453543v -6.68059h 0.453543v 13.3612h 0.453543v -11.1343h 0.453543v 13.3612h 0.453543v
 -2.22686h 0.453543v -4.45373h 0.453543v 6.68059h 0.453543v -4.45373h 0.907087v 4.45373h 0.453543v -11.1343h 0.453543v -4.45373h 0.453543v 8.90746h 0.453543v 4.45373h 0.453543v -2.22686h 0.453543v -4.45373h 0.453543v 4.45373h 0.453543v -4.45373h
 0.453543v -2.22686h 0.907087v 6.68059h 0.907087v 2.22686h 0.453543v -8.90746h 0.453543v 8.90746h 0.453543v -4.45373h 0.453543v 4.45373h 0.453543v -15.588h 0.453543v 6.68059h 0.453543v 6.68059h 0.453543v 2.22686h 1.36063v -6.68059h 0.453543v 4.45373h
 0.453543v 2.22686h 0.453543v -11.1343h 0.453543v 8.90746h 0.453543v 6.68059h 0.453543v -8.90746h 0.907087v 2.22686h 0.453543v -2.22686h 0.453543v 11.1343h 0.453543v -13.3612h 0.453543v -2.22686h 0.453543v 13.3612h 0.453543v -6.68059h 0.453543v
 2.22686h 0.907087v 4.45373h 0.907087v -4.45373h 0.453543v -6.68059h 0.907087v -2.22686h 0.453543v -2.22686h 0.453543v 15.588h 0.453543v -2.22686h 0.453543v 2.22686h 0.453543v -8.90746h 0.907087v -6.68059h 0.453543v 13.3612h 0.453543v 2.22686h
 0.453543v -6.68059h 0.453543v -6.68059h 0.453543v 6.68059h 0.453543v 4.45373h 0.453543v -6.68059h 0.907087v -2.22686h 0.453543v 4.45373h 0.453543v -4.45373h 0.453543v -4.45373h 0.453543v 15.588h 0.453543v -20.0418h 0.453543v 11.1343h 0.453543v
 11.1343h 0.453543v -15.588h 0.453543v 13.3612h 0.453543v -13.3612h 0.453543v 8.90746h 0.453543v -2.22686h 0.907087v -2.22686h 0.453543v -2.22686h 0.453543v 2.22686h 0.453543v -2.22686h 0.453543v 2.22686h 0.453543v -4.45373h 0.453543v 6.68059h
 0.453543v -4.45373h 0.453543v 8.90746h 0.453543v -2.22686h 0.453543v 2.22686h 0.907087v -6.68059h 0.453543v 2.22686h 0.453543v -6.68059h 0.453543v 4.45373h 0.453543v 13.3612h 0.453543v -8.90746h 0.453543v -4.45373h 0.453543v 4.45373h 0.453543v
 2.22686h 0.907087v -2.22686h 0.453543v -6.68059h 0.453543v -6.68059h 0.453543v 15.588h 0.453543v -6.68059h 0.453543v -2.22686h 0.453543v -13.3612h 0.453543v 17.8149h 0.453543v 4.45373h 0.453543v -2.22686h 0.907087v -15.588h 0.453543v 13.3612h
 0.453543v -2.22686h 0.453543v 6.68059h 0.453543v -13.3612h 0.453543v 4.45373h 0.453543v -2.22686h 0.453543v 13.3612h 0.453543v -4.45373h 0.453543v 2.22686h 0.453543v -6.68059h 0.453543v 6.68059h 0.453543v -6.68059h 0.453543v 2.22686h 0.453543v
 2.22686h 0.453543v 6.68059h 0.453543v -4.45373h 0.453543v 6.68059h 0.453543v -17.8149h 0.453543v 4.45373h 0.453543v -2.22686h 0.453543v 15.588h 0.453543v -6.68059h 0.453543v -4.45373h 0.453543v -8.90746h 0.453543v 17.8149h 0.453543v -6.68059h
 0.453543v -2.22686h 0.907087v 8.90746h 0.453543v 2.22686h 0.453543v -6.68059h 0.453543v -4.45373h 0.453543v -2.22686h 0.453543v 8.90746h 0.907087v -4.45373h 0.453543v 6.68059h 0.453543v -11.1343h 0.453543v 8.90746h 0.453543v -2.22686h 0.453543v
 6.68059h 0.453543v -6.68059h 0.453543v 2.22686h 0.453543v 2.22686h 0.453543v -4.45373h 0.453543v 2.22686h 0.907087v -2.22686h 1.36063v 4.45373h 0.453543v 2.22686h 0.453543v -6.68059h 0.453543v -2.22686h 0.453543v 6.68059h 0.453543v -2.22686h
 0.453543v -6.68059h 0.453543v 6.68059h 0.453543v -11.1343h 0.453543v 11.1343h 0.453543v 2.22686h 0.453543v -4.45373h 0.453543v 2.22686h 0.453543v -2.22686h 0.453543v 6.68059h 0.453543v -2.22686h 0.453543v -6.68059h 0.453543v -2.22686h 0.453543v
 6.68059h 0.453543v -2.22686h 0.453543v 6.68059h 0.453543v -2.22686h 0.453543v -8.90746h 0.453543v 6.68059h 0.453543v -6.68059h 0.907087v -2.22686h 0.453543v 11.1343h 0.453543v -4.45373h 0.453543v -2.22686h 0.453543v -4.45373h 0.453543v 6.68059h
 0.453543v -2.22686h 0.453543v 4.45373h 0.453543v -2.22686h 0.907087v 2.22686h 0.453543v -11.1343h 0.453543v -2.22686h 0.453543v 13.3612h 0.453543v -6.68059h 0.907087v 4.45373h 0.453543v 2.22686h 0.453543v 2.22686h 0.453543v -6.68059h 0.453543v
 -8.90746h 0.453543v -6.68059h 0.453543v 6.68059h 0.453543v 4.45373h 0.453543v -8.90746h 0.907087v 13.3612h 0.453543v -13.3612h 0.907087v 2.22686h 0.453543v -4.45373h 0.453543v 8.90746h 0.453543v 2.22686h 0.453543v -6.68059h 0.453543v -2.22686h
 0.453543v -2.22686h 0.453543v 4.45373h 0.453543v -15.588h 0.453543v 8.90746h 0.453543v -2.22686h 0.453543v -2.22686h 0.453543v 17.8149h 0.453543v -11.1343h 0.453543v -4.45373h 0.453543v 4.45373h 0.453543v -20.0418h 0.453543v -6.68059h 0.453543v
 8.90746h 0.453543v 17.8149h 0.453543v 11.1343h 0.453543v -11.1343h 0.453543v 17.8149h 0.453543v -22.2686h 0.453543v 4.45373h 0.453543v 2.22686h 0.453543v -6.68059h 0.453543v 2.22686h 0.453543v 6.68059h 0.453543v 6.68059h 0.453543v -8.90746h
 0.453543v 11.1343h 0.453543v -2.22686h 0.453543v -6.68059h 0.453543v 6.68059h 0.453543v 2.22686h 0.453543v 2.22686h 0.453543v 2.22686h 0.453543v -2.22686h 0.453543v -4.45373h 0.453543v 6.68059h 0.453543v 2.22686h 0.453543v -2.22686h 0.453543v
 2.22686h 0.453543v 2.22686h 0.453543v -2.22686h 0.907087v -6.68059h 0.453543v -2.22686h 0.453543v 8.90746h 0.453543v 4.45373h 0.907087v -17.8149h 0.453543v 13.3612h 0.453543v -2.22686h 0.907087v 4.45373h 0.453543v -4.45373h 1.36063v 4.45373h
 0.907087v -2.22686h 0.453543v 4.45373h 1.81417v -8.90746h 0.453543v 2.22686h 0.453543v 2.22686h 0.453543v -2.22686h 0.453543v 4.45373h 1.36063v -4.45373h 0.453543v 2.22686h 0.453543v 4.45373h 0.453543v -2.22686h 0.907087v -6.68059h 0.907087v
 2.22686h 0.453543v 2.22686h 0.453543v -2.22686h 0.453543v 4.45373h 0.907087v -2.22686h 0.907087v 2.22686h 0.453543v -2.22686h 0.453543v -2.22686h 0.453543v 4.45373h 0.453543v -4.45373h 0.453543v 4.45373h 0.453543v -2.22686h 1.36063v 2.22686h
 0.453543v -4.45373h 0.453543v -4.45373h 0.453543v 6.68059h 0.453543v -6.68059h 0.453543v 6.68059h 0.907087v 2.22686h 0.453543v -8.90746h 0.453543v 11.1343h 0.453543v -4.45373h 0.453543v -2.22686h 0.907087v 2.22686h 0.453543v 2.22686h 0.453543v
 2.22686h 0.453543v -2.22686h 0.453543v -4.45373h 0.453543v 4.45373h 0.453543v -8.90746h 0.453543v 4.45373h 0.907087v 6.68059h 0.453543v -4.45373h 0.453543v 2.22686h 0.453543v -2.22686h 0.453543v -2.22686h 0.907087v 4.45373h 0.907087v -2.22686h
 0.453543v -4.45373h 0.453543v 6.68059h 0.453543v -2.22686h 0.453543v 2.22686h 0.907087v -2.22686h 0.453543v -2.22686h 0.453543v 6.68059h 1.81417v -2.22686h 0.453543v -2.22686h 0.453543v 2.22686h 0.453543v -4.45373h 0.453543v 4.45373h 0.453543v
 -2.22686h 0.453543v -2.22686h 0.453543v 2.22686h 0.453543v -2.22686h 0.453543v 2.22686h 0.453543v -4.45373h 0.453543v 6.68059h 2.26772v -2.22686h 0.453543v 4.45373h 0.453543v -6.68059h 0.453543v 4.45373h 0.907087v -4.45373h 0.453543v 2.22686h
 0.453543v 2.22686h 0.907087v -2.22686h 1.36063v 4.45373h 1.36063v -2.22686h 0.453543v 2.22686h 0.453543v -2.22686h 0.453543v 2.22686h 0.907087v -6.68059h 0.453543v 4.45373h 0.907087v 2.22686h 0.907087v -2.22686h 1.36063v 2.22686h 0.453543v -2.22686h
 0.907087v 2.22686h 0.453543v -2.22686h 0.907087v 2.22686h 0.453543v -8.90746h 0.453543v 4.45373h 0.453543v 4.45373h 0.907087v -4.45373h 0.453543v 2.22686h 0.453543v 2.22686h 0.907087v -2.22686h 1.36063v 2.22686h 0.453543v -2.22686h 0.453543v
 2.22686h 4.08189v -2.22686h 0.907087v 2.22686h 0.907087v -4.45373h 0.453543v 4.45373h 2.72126v -2.22686h 0.453543v -2.22686h 0.453543v 2.22686h 0.453543v -2.22686h 0.907087v 4.45373h 0.453543v -2.22686h 1.81417v 2.22686h 0.453543v -2.22686h
 0.453543v -2.22686h 1.81417v 2.22686h 0.907087v -2.22686h 0.453543v 2.22686h 0.453543v -4.45373h 0.453543v 2.22686h 0.453543v 4.45373h 0.453543v -2.22686h 0.453543v -2.22686h 0.453543v 4.45373h 0.453543v -8.90746h 0.907087v 6.68059h 0.453543v
 2.22686h 0.453543v -4.45373h 0.453543v -4.45373h 1.36063v 6.68059h 0.453543v -2.22686h 0.453543v -4.45373h 0.453543v 2.22686h 0.453543v 2.22686h 0.453543v 4.45373h 0.453543v -6.68059h 0.907087v 2.22686h 0.453543v 2.22686h 0.453543v -8.90746h
 0.453543v 4.45373h 0.453543v 2.22686h 0.453543v 2.22686h 0.907087v 2.22686h 0.453543v -8.90746h 0.453543v 6.68059h 0.453543v -4.45373h 0.453543v 2.22686h 0.453543v 4.45373h 0.453543v -8.90746h 0.453543v 4.45373h 0.453543v 4.45373h 0.453543v
 -4.45373h 0.907087v 4.45373h 0.453543v -4.45373h 0.907087v 4.45373h 0.907087v -4.45373h 0.453543v 4.45373h 1.36063v -6.68059h 0.453543v 6.68059h 0.907087v -2.22686h 0.453543v 2.22686h 1.81417v -6.68059h 0.453543v 4.45373h 0.453543v 2.22686h
 0.453543v -2.22686h 1.36063v 2.22686h 0.453543v -2.22686h 0.453543v 2.22686h 0.453543v -2.22686h 0.453543v 2.22686h 1.81417v -2.22686h 0.453543v 2.22686h 8.61732v -2.22686h 0.453543v 2.22686h 0.907087v -2.22686h 0.453543v 2.22686h 5.89606v -2.22686h
 0.907087v 2.22686h 3.1748v -2.22686h 0.453543v 2.22686h 4.98898v -2.22686h 0.907087v 2.22686h 9.07087v -2.22686h 0.453543v 2.22686h 5.89606" fill="none" stroke="#000099"/>
<path d="M157.109,335.99l 0.272126, -1.60671l 0.272126, -1.7945l 0.272126, -1.99755l 0.272126, -2.21609l 0.272126, -2.45023l 0.272126, -2.69988l 0.272126, -2.96473l 0.272126, -3.24429l 0.272126, -3.5378l 0.272126, -3.84426l 0.272126, -4.16237l
 0.272126, -4.49056l 0.272126, -4.82697l 0.272126, -5.16943l 0.272126, -5.51547l 0.272126, -5.86233l 0.272126, -6.20698l 0.272126, -6.54611l 0.272126, -6.87618l 0.272126, -7.19346l 0.272126, -7.49404l 0.272126, -7.77387l 0.272126, -8.02886l 0.272126,
 -8.25488l 0.272126, -8.44785l 0.272126, -8.60378l 0.272126, -8.71888l 0.272126, -8.78958l 0.272126, -8.81261l 0.272126, -8.78508l 0.272126, -8.70455l 0.272126, -8.56904l 0.272126, -8.37716l 0.272126, -8.12808l 0.272126, -7.82162l 0.272126, -7.45826l
 0.272126, -7.03916l 0.272126, -6.56616l 0.272126, -6.0418l 0.272126, -5.46928l 0.272126, -4.85242l 0.272126, -4.19566l 0.272126, -3.50398l 0.272126, -2.78284l 0.272126, -2.03811l 0.272126, -1.276l 0.272126, -0.502963l 0.272126, 0.274387l 0.272126,
 1.04938" fill="none" stroke="#ff0000" stroke-width="2"/>
<path d="M170.443,77.0711l 0.272126, 1.81538l 0.272126, 2.56588l 0.272126, 3.29459l 0.272126, 3.99553l 0.272126, 4.66311l 0.272126, 5.29219l 0.272126, 5.87819l 0.272126, 6.41708l 0.272126, 6.90548l 0.272126, 7.34066l 0.272126, 7.72057l 0.272126,
 8.04386l 0.272126, 8.30983l 0.272126, 8.51849l 0.272126, 8.67046l 0.272126, 8.76699l 0.272126, 8.80988l 0.272126, 8.80144l 0.272126, 8.74445l 0.272126, 8.64205l 0.272126, 8.49775l 0.272126, 8.31527l 0.272126, 8.09856l 0.272126, 7.85167l 0.272126,
 7.57871l 0.272126, 7.28382l 0.272126, 6.97104l 0.272126, 6.64433l 0.272126, 6.30749l 0.272126, 5.96411l 0.272126, 5.61757l 0.272126, 5.27099l 0.272126, 4.92721l 0.272126, 4.58878l 0.272126, 4.25796l 0.272126, 3.93671l 0.272126, 3.62668l 0.272126,
 3.32925l 0.272126, 3.04549l 0.272126, 2.77625l 0.272126, 2.52209l 0.272126, 2.28337l 0.272126, 2.06023l 0.272126, 1.85264l 0.272126, 1.6604l 0.272126, 1.48315l 0.272126, 1.32045l 0.272126, 1.17173l 0.272126, 1.03636" fill="none" stroke="#ff0000"
 stroke-width="2"/>
<path d="M183.777,340.547l 0.272126, 0.913645" fill="none" stroke="#ff0000" stroke-width="2"/>
<path d="M320.384,340.556l 0.272126, -0.412988l 0.272126, -0.42805l 0.272126, -0.442789l 0.272126, -0.457122l 0.272126, -0.470964l 0.272126, -0.484227l 0.272126, -0.496822l 0.272126, -0.508659l 0.272126, -0.519647l 0.272126, -0.529696l 0.272126,
 -0.538716l 0.272126, -0.546619l 0.272126, -0.55332l 0.272126, -0.558735l 0.272126, -0.562786l 0.272126, -0.565398l 0.272126, -0.566501l 0.272126, -0.566031l 0.272126, -0.563932l 0.272126, -0.560152l 0.272126, -0.554651l 0.272126, -0.547394l
 0.272126, -0.538355l 0.272126, -0.527519l 0.272126, -0.51488l 0.272126, -0.500443l 0.272126, -0.484221l 0.272126, -0.466239l 0.272126, -0.446533l 0.272126, -0.425148l 0.272126, -0.402141l 0.272126, -0.377579l 0.272126, -0.351538l 0.272126,
 -0.324105l 0.272126, -0.295374l 0.272126, -0.26545l 0.272126, -0.234445l 0.272126, -0.202479l 0.272126, -0.169677l 0.272126, -0.136172l 0.272126, -0.102099l 0.272126, -0.0675995l 0.272126, -0.0328171l 0.272126, 0.00210301l 0.272126, 0.0370143l
 0.272126, 0.0717703l 0.272126, 0.106226l 0.272126, 0.140238l 0.272126, 0.173666" fill="none" stroke="#ff0000" stroke-width="2"/>
<path d="M333.718,322.787l 0.272126, 0.206374l 0.272126, 0.238231l 0.272126, 0.269112l 0.272126, 0.298898l 0.272126, 0.327478l 0.272126, 0.354748l 0.272126, 0.380616l 0.272126, 0.404995l 0.272126, 0.42781l 0.272126, 0.448995l 0.272126, 0.468496l
 0.272126, 0.486267l 0.272126, 0.502276l 0.272126, 0.516497l 0.272126, 0.528919l 0.272126, 0.539538l 0.272126, 0.548361l 0.272126, 0.555406l 0.272126, 0.560698l 0.272126, 0.564272l 0.272126, 0.566173l 0.272126, 0.56645l 0.272126, 0.565162l 0.272126,
 0.562373l 0.272126, 0.558154l 0.272126, 0.55258l 0.272126, 0.54573l 0.272126, 0.537688l 0.272126, 0.528539l 0.272126, 0.518372l 0.272126, 0.507277l 0.272126, 0.495345l 0.272126, 0.482664l 0.272126, 0.469327l 0.272126, 0.455421l 0.272126, 0.441035l
 0.272126, 0.426252l 0.272126, 0.411157l 0.272126, 0.395828l 0.272126, 0.380341l 0.272126, 0.36477l 0.272126, 0.349182l 0.272126, 0.333643l 0.272126, 0.318211l 0.272126, 0.302943l 0.272126, 0.287889l 0.272126, 0.273096l 0.272126, 0.258605l 0.272126,
 0.244454" fill="none" stroke="#ff0000" stroke-width="2"/>
<path d="M347.052,344.113l 0.272126, 0.230675" fill="none" stroke="#ff0000" stroke-width="2"/>
<rect x="442.705" y="25.0773" width="113.386" height="61.7287" fill="white"/>
<path d="M442.705,86.8059h 113.386" fill="none" stroke="black"/>
<path d="M556.091,86.8059v -61.7287" fill="none" stroke="black"/>
<path d="M556.091,25.0773h -113.386" fill="none" stroke="black"/>
<path d="M442.705,25.0773v 61.7287" fill="none" stroke="black"/>
<text xml:space="preserve" x="460.216" y="37.3621" fill="black" font-size="13.5253" font-family="Helvetica">C_Na_1600V</text>
<path d="M442.705,40.5094h 113.386" fill="none" stroke="black"/>
<text xml:space="preserve" x="448.033" y="52.7943" fill="black" font-size="13.1417" font-family="Helvetica">Entries </text>
<text xml:space="preserve" x="510.574" y="52.7943" fill="black" font-size="13.1417" font-family="Helvetica"> 10000</text>
<text xml:space="preserve" x="448.033" y="68.2264" fill="black" font-size="13.1417" font-family="Helvetica">Mean  </text>
<text xml:space="preserve" x="510.574" y="68.2264" fill="black" font-size="13.1417" font-family="Helvetica">  651.6</text>
<text xml:space="preserve" x="448.033" y="84.4708" fill="black" font-size="13.1417" font-family="Helvetica">Std Dev   </text>
<text xml:space="preserve" x="510.574" y="83.6586" fill="black" font-size="13.1417" font-family="Helvetica">  429.9</text>
<path d="M57.1929,347.224h 453.543" fill="none" stroke="black"/>
<path d="M57.1929,337.964v 9.2593" fill="none" stroke="black"/>
<path d="M75.3346,342.594v 4.62965" fill="none" stroke="black"/>
<path d="M93.4764,342.594v 4.62965" fill="none" stroke="black"/>
<path d="M111.618,342.594v 4.62965" fill="none" stroke="black"/>
<path d="M129.76,342.594v 4.62965" fill="none" stroke="black"/>
<path d="M147.902,337.964v 9.2593" fill="none" stroke="black"/>
<path d="M166.043,342.594v 4.62965" fill="none" stroke="black"/>
<path d="M184.185,342.594v 4.62965" fill="none" stroke="black"/>
<path d="M202.327,342.594v 4.62965" fill="none" stroke="black"/>
<path d="M220.469,342.594v 4.62965" fill="none" stroke="black"/>
<path d="M238.61,337.964v 9.2593" fill="none" stroke="black"/>
<path d="M256.752,342.594v 4.62965" fill="none" stroke="black"/>
<path d="M274.894,342.594v 4.62965" fill="none" stroke="black"/>
<path d="M293.035,342.594v 4.62965" fill="none" stroke="black"/>
<path d="M311.177,342.594v 4.62965" fill="none" stroke="black"/>
<path d="M329.319,337.964v 9.2593" fill="none" stroke="black"/>
<path d="M347.461,342.594v 4.62965" fill="none" stroke="black"/>
<path d="M365.602,342.594v 4.62965" fill="none" stroke="black"/>
<path d="M383.744,342.594v 4.62965" fill="none" stroke="black"/>
<path d="M401.886,342.594v 4.62965" fill="none" stroke="black"/>
<path d="M420.028,337.964v 9.2593" fill="none" stroke="black"/>
<path d="M438.169,342.594v 4.62965" fill="none" stroke="black"/>
<path d="M456.311,342.594v 4.62965" fill="none" stroke="black"/>
<path d="M474.453,342.594v 4.62965" fill="none" stroke="black"/>
<path d="M492.594,342.594v 4.62965" fill="none" stroke="black"/>
<path d="M510.736,337.964v 9.2593" fill="none" stroke="black"/>
<text xml:space="preserve" x="52.482" y="359.813" fill="black" font-size="12.8882" font-family="Helvetica">0</text>
<text xml:space="preserve" x="136.141" y="359.813" fill="black" font-size="12.8882" font-family="Helvetica">500</text>
<text xml:space="preserve" x="223.86" y="359.813" fill="black" font-size="12.8882" font-family="Helvetica">1000</text>
<text xml:space="preserve" x="314.017" y="359.813" fill="black" font-size="12.8882" font-family="Helvetica">1500</text>
<text xml:space="preserve" x="404.985" y="359.813" fill="black" font-size="12.8882" font-family="Helvetica">2000</text>
<text xml:space="preserve" x="495.954" y="359.813" fill="black" font-size="12.8882" font-family="Helvetica">2500</text>
<text xml:space="preserve" x="448.845" y="374.433" fill="black" font-size="12.8882" font-family="Helvetica">ADC value</text>
<path d="M57.1929,347.224v -308.643" fill="none" stroke="black"/>
<path d="M70.7992,347.224h -13.6063" fill="none" stroke="black"/>
<path d="M63.9961,336.089h -6.80315" fill="none" stroke="black"/>
<path d="M63.9961,324.955h -6.80315" fill="none" stroke="black"/>
<path d="M63.9961,313.821h -6.80315" fill="none" stroke="black"/>
<path d="M70.7992,302.686h -13.6063" fill="none" stroke="black"/>
<path d="M63.9961,291.552h -6.80315" fill="none" stroke="black"/>
<path d="M63.9961,280.418h -6.80315" fill="none" stroke="black"/>
<path d="M63.9961,269.284h -6.80315" fill="none" stroke="black"/>
<path d="M70.7992,258.149h -13.6063" fill="none" stroke="black"/>
<path d="M63.9961,247.015h -6.80315" fill="none" stroke="black"/>
<path d="M63.9961,235.881h -6.80315" fill="none" stroke="black"/>
<path d="M63.9961,224.746h -6.80315" fill="none" stroke="black"/>
<path d="M70.7992,213.612h -13.6063" fill="none" stroke="black"/>
<path d="M63.9961,202.478h -6.80315" fill="none" stroke="black"/>
<path d="M63.9961,191.343h -6.80315" fill="none" stroke="black"/>
<path d="M63.9961,180.209h -6.80315" fill="none" stroke="black"/>
<path d="M70.7992,169.075h -13.6063" fill="none" stroke="black"/>
<path d="M63.9961,157.94h -6.80315" fill="none" stroke="black"/>
<path d="M63.9961,146.806h -6.80315" fill="none" stroke="black"/>
<path d="M63.9961,135.672h -6.80315" fill="none" stroke="black"/>
<path d="M70.7992,124.537h -13.6063" fill="none" stroke="black"/>
<path d="M63.9961,113.403h -6.80315" fill="none" stroke="black"/>
<path d="M63.9961,102.269h -6.80315" fill="none" stroke="black"/>
<path d="M63.9961,91.1344h -6.80315" fill="none" stroke="black"/>
<path d="M70.7992,80.0001h -13.6063" fill="none" stroke="black"/>
<path d="M70.7992,80.0001h -13.6063" fill="none" stroke="black"/>
<path d="M63.9961,68.8658h -6.80315" fill="none" stroke="black"/>
<path d="M63.9961,57.7315h -6.80315" fill="none" stroke="black"/>
<path d="M63.9961,46.5971h -6.80315" fill="none" stroke="black"/>
<text xml:space="preserve" x="46.7965" y="351.691" fill="black" font-size="12.8882" font-family="Helvetica">0</text>
<text xml:space="preserve" x="39.4865" y="307.019" fill="black" font-size="12.8882" font-family="Helvetica">20</text>
<text xml:space="preserve" x="39.4865" y="262.347" fill="black" font-size="12.8882" font-family="Helvetica">40</text>
<text xml:space="preserve" x="39.4865" y="217.675" fill="black" font-size="12.8882" font-family="Helvetica">60</text>
<text xml:space="preserve" x="39.4865" y="173.815" fill="black" font-size="12.8882" font-family="Helvetica">80</text>
<text xml:space="preserve" x="32.1766" y="129.143" fill="black" font-size="12.8882" font-family="Helvetica">100</text>
<text xml:space="preserve" x="32.1766" y="84.4708" fill="black" font-size="12.8882" font-family="Helvetica">120</text>
<g transform="rotate(-90,21.6177,77.9731)">
<text xml:space="preserve" x="21.6177" y="77.9731" fill="black" font-size="12.8882" font-family="Helvetica">Events</text>
</g>
<rect x="442.705" y="25.0773" width="113.386" height="61.7287" fill="white"/>
<path d="M442.705,86.8059h 113.386" fill="none" stroke="black"/>
<path d="M556.091,86.8059v -61.7287" fill="none" stroke="black"/>
<path d="M556.091,25.0773h -113.386" fill="none" stroke="black"/>
<path d="M442.705,25.0773v 61.7287" fill="none" stroke="black"/>
<text xml:space="preserve" x="460.216" y="37.3621" fill="black" font-size="13.5253" font-family="Helvetica">C_Na_1600V</text>
<path d="M442.705,40.5094h 113.386" fill="none" stroke="black"/>
<text xml:space="preserve" x="448.033" y="52.7943" fill="black" font-size="13.1417" font-family="Helvetica">Entries </text>
<text xml:space="preserve" x="510.574" y="52.7943" fill="black" font-size="13.1417" font-family="Helvetica"> 10000</text>
<text xml:space="preserve" x="448.033" y="68.2264" fill="black" font-size="13.1417" font-family="Helvetica">Mean  </text>
<text xml:space="preserve" x="510.574" y="68.2264" fill="black" font-size="13.1417" font-family="Helvetica">  651.6</text>
<text xml:space="preserve" x="448.033" y="84.4708" fill="black" font-size="13.1417" font-family="Helvetica">Std Dev   </text>
<text xml:space="preserve" x="510.574" y="83.6586" fill="black" font-size="13.1417" font-family="Helvetica">  429.9</text>
<text xml:space="preserve" x="232.795" y="17.8688" fill="black" font-size="17.0471" font-family="Helvetica">C_Na_1600V</text></svg>
