<?xml version="1.0" standalone="no"?>
<svg width="567.429" height="384.969" viewBox="0 0 567.429 384.969" xmlns="http://www.w3.org/2000/svg" shape-rendering="crispEdges">
<title>
img/calibration/C_Na_1600V.svg
</title>
<desc>
Creator: ROOT Version 6.22/09
CreationDate: Wed Jun  9 15:25:03 2021</desc>
<defs>
</defs>
<rect x="0.5" y="0" width="566.929" height="384.469" fill="white"/>
<rect x="57.1929" y="38.4469" width="453.543" height="307.575" fill="white"/>
<rect x="57.1929" y="38.4469" width="453.543" height="307.575" fill="none" stroke="black"/>
<rect x="57.1929" y="38.4469" width="453.543" height="307.575" fill="white"/>
<rect x="57.1929" y="38.4469" width="453.543" height="307.575" fill="none" stroke="black"/>
<path d="M57.1929,343.803h 0.453543v -2.21916h 0.453543v 4.43832h 0.453543v -2.21916h 0.453543v 2.21916h 0.453543v -2.21916h 0.907087v 2.21916h 1.36063v -4.43832h 0.907087v 4.43832h 0.453543v -6.65747h 0.453543v 6.65747h 0.453543v -2.21916h 0.453543v
 2.21916h 0.453543v -2.21916h 0.907087v 2.21916h 0.453543v -4.43832h 0.453543v 4.43832h 2.26772v -2.21916h 0.453543v -4.43832h 0.453543v 6.65747h 0.907087v -2.21916h 1.36063v -2.21916h 0.453543v 4.43832h 0.453543v -2.21916h 0.907087v -2.21916h
 0.453543v 4.43832h 0.453543v -8.87663h 0.453543v 2.21916h 0.453543v 2.21916h 0.907087v -2.21916h 0.907087v 2.21916h 0.453543v 2.21916h 0.907087v -6.65747h 0.453543v 4.43832h 0.453543v -15.5341h 0.453543v 17.7533h 0.453543v -8.87663h 0.453543v
 2.21916h 0.453543v -11.0958h 0.453543v 11.0958h 0.453543v -6.65747h 0.453543v -11.0958h 0.453543v -4.43832h 0.453543v 8.87663h 0.453543v -2.21916h 0.453543v 6.65747h 0.453543v -8.87663h 0.453543v -15.5341h 0.453543v -11.0958h 0.453543v 8.87663h
 0.907087v 6.65747h 0.453543v -15.5341h 0.453543v 11.0958h 0.453543v -11.0958h 0.453543v -15.5341h 0.453543v 4.43832h 0.453543v -13.3149h 0.453543v 15.5341h 0.453543v -6.65747h 0.453543v -6.65747h 0.453543v 17.7533h 0.453543v -6.65747h 0.453543v
 2.21916h 0.453543v 4.43832h 0.453543v 2.21916h 0.453543v -37.7257h 0.907087v -4.43832h 0.453543v -8.87663h 0.453543v -19.9724h 0.453543v 46.6023h 0.907087v -2.21916h 0.453543v -6.65747h 0.453543v -2.21916h 0.453543v 6.65747h 0.453543v -15.5341h
 0.453543v -8.87663h 0.453543v -19.9724h 0.453543v 53.2598h 0.453543v -11.0958h 0.453543v -2.21916h 0.453543v 6.65747h 0.453543v -2.21916h 0.907087v -11.0958h 0.453543v 2.21916h 0.453543v 13.3149h 0.453543v 19.9724h 0.453543v -35.5065h 0.453543v
 15.5341h 0.453543v -13.3149h 0.453543v 2.21916h 0.453543v 8.87663h 0.453543v 8.87663h 0.453543v 26.6299h 0.453543v -62.1364h 0.453543v 22.1916h 0.453543v -6.65747h 0.453543v 4.43832h 0.453543v 31.0682h 0.453543v -22.1916h 0.453543v 15.5341h
 0.453543v -17.7533h 0.453543v 28.8491h 0.453543v -19.9724h 0.453543v -4.43832h 0.453543v 11.0958h 0.453543v -11.0958h 0.453543v 13.3149h 0.453543v 6.65747h 0.453543v -26.6299h 0.453543v 19.9724h 0.453543v 4.43832h 0.453543v 2.21916h 0.453543v
 -4.43832h 0.453543v -4.43832h 0.453543v 13.3149h 0.453543v -33.2874h 0.453543v 24.4107h 0.453543v 4.43832h 0.453543v 8.87663h 0.453543v -22.1916h 0.453543v 13.3149h 0.453543v -2.21916h 0.453543v -13.3149h 0.453543v 17.7533h 0.453543v 2.21916h
 0.453543v -13.3149h 0.453543v 4.43832h 0.453543v 4.43832h 0.453543v -2.21916h 0.453543v 4.43832h 0.453543v -6.65747h 0.453543v 4.43832h 0.453543v 22.1916h 0.453543v -26.6299h 0.453543v -4.43832h 0.453543v 24.4107h 0.453543v 6.65747h 0.453543v
 -8.87663h 0.453543v -31.0682h 0.453543v 35.5065h 0.453543v -8.87663h 0.453543v -13.3149h 0.453543v 22.1916h 0.453543v 15.5341h 0.453543v -17.7533h 0.453543v 6.65747h 0.907087v 2.21916h 0.453543v -4.43832h 0.453543v 2.21916h 0.453543v 4.43832h
 0.907087v 2.21916h 0.453543v 4.43832h 0.453543v -11.0958h 0.453543v 11.0958h 0.453543v -15.5341h 0.453543v 6.65747h 0.453543v 6.65747h 0.453543v -8.87663h 0.453543v 2.21916h 0.453543v 6.65747h 0.453543v -4.43832h 0.453543v 4.43832h 0.453543v
 -6.65747h 0.453543v 6.65747h 1.36063v -4.43832h 0.453543v -6.65747h 0.453543v 13.3149h 0.453543v -4.43832h 0.453543v -13.3149h 0.453543v 24.4107h 0.453543v -13.3149h 0.453543v 17.7533h 0.453543v -2.21916h 0.453543v -8.87663h 0.453543v 6.65747h
 0.453543v -2.21916h 0.453543v 8.87663h 0.453543v -13.3149h 0.453543v 13.3149h 0.453543v -13.3149h 0.453543v 6.65747h 0.453543v -11.0958h 0.453543v 15.5341h 0.453543v -11.0958h 0.453543v -8.87663h 0.453543v 6.65747h 0.453543v 11.0958h 0.453543v
 -15.5341h 0.907087v -8.87663h 0.453543v 15.5341h 0.453543v 6.65747h 0.453543v -6.65747h 0.907087v 2.21916h 0.453543v 4.43832h 0.453543v -4.43832h 0.453543v -8.87663h 0.453543v 8.87663h 0.453543v -4.43832h 0.907087v -8.87663h 0.453543v -22.1916h
 0.453543v 13.3149h 0.453543v -6.65747h 0.453543v 4.43832h 0.453543v -17.7533h 0.453543v -17.7533h 0.453543v -11.0958h 0.453543v -37.7257h 0.453543v -6.65747h 0.453543v 2.21916h 0.453543v 6.65747h 0.453543v -26.6299h 0.453543v -4.43832h 0.453543v
 -39.9448h 0.453543v 15.5341h 0.453543v -22.1916h 0.453543v -8.87663h 0.453543v -68.7939h 0.453543v -2.21916h 0.453543v 28.8491h 0.453543v -35.5065h 0.453543v 22.1916h 0.453543v 6.65747h 0.453543v -17.7533h 0.453543v 33.2874h 0.453543v -37.7257h
 0.453543v 4.43832h 0.453543v 53.2598h 0.453543v -31.0682h 0.453543v 26.6299h 0.453543v 28.8491h 0.907087v 8.87663h 0.453543v 19.9724h 0.453543v 31.0682h 0.453543v 11.0958h 0.453543v 17.7533h 0.453543v 2.21916h 0.453543v 11.0958h 0.453543v 15.5341h
 0.453543v 17.7533h 0.453543v 4.43832h 0.453543v 22.1916h 0.907087v 11.0958h 0.453543v 2.21916h 0.453543v -13.3149h 0.453543v 28.8491h 0.453543v -24.4107h 0.453543v 13.3149h 0.453543v 8.87663h 0.453543v 2.21916h 0.453543v -4.43832h 0.453543v 4.43832h
 0.453543v 8.87663h 0.453543v -6.65747h 0.453543v 4.43832h 0.453543v -8.87663h 0.453543v 11.0958h 0.453543v -13.3149h 0.453543v 2.21916h 0.453543v 2.21916h 0.453543v 8.87663h 0.453543v -15.5341h 0.453543v 11.0958h 0.453543v -17.7533h 0.453543v
 11.0958h 0.453543v 4.43832h 0.453543v 6.65747h 0.453543v -2.21916h 0.453543v -28.8491h 0.453543v 24.4107h 0.453543v -6.65747h 0.453543v 2.21916h 0.453543v 4.43832h 0.453543v 2.21916h 0.453543v -2.21916h 0.453543v -13.3149h 0.453543v 13.3149h
 0.453543v -4.43832h 0.453543v 2.21916h 0.453543v 2.21916h 0.453543v -8.87663h 0.453543v 13.3149h 0.453543v -2.21916h 0.453543v -6.65747h 0.453543v 4.43832h 0.453543v 2.21916h 0.453543v 2.21916h 0.453543v -11.0958h 0.453543v 4.43832h 0.453543v
 2.21916h 0.453543v -6.65747h 0.453543v 4.43832h 0.453543v -4.43832h 0.453543v -2.21916h 0.453543v 6.65747h 0.453543v 11.0958h 0.453543v -13.3149h 0.453543v -15.5341h 0.453543v 13.3149h 0.453543v -11.0958h 0.453543v 11.0958h 0.453543v 13.3149h
 0.453543v -2.21916h 0.453543v -4.43832h 0.453543v 2.21916h 0.453543v -11.0958h 0.453543v -4.43832h 0.453543v 8.87663h 0.453543v -4.43832h 0.453543v 6.65747h 0.453543v 8.87663h 0.453543v -2.21916h 0.453543v -15.5341h 0.453543v 11.0958h 0.907087v
 -2.21916h 0.453543v 6.65747h 0.453543v -6.65747h 0.453543v 6.65747h 0.453543v -6.65747h 0.907087v 2.21916h 0.453543v 4.43832h 0.453543v -4.43832h 0.453543v 2.21916h 0.453543v -15.5341h 0.453543v 2.21916h 0.453543v 15.5341h 0.453543v -11.0958h
 0.453543v 6.65747h 0.453543v -8.87663h 0.453543v 8.87663h 0.453543v -2.21916h 1.36063v 4.43832h 0.453543v -6.65747h 0.453543v 6.65747h 0.453543v -2.21916h 0.453543v -4.43832h 0.453543v -6.65747h 0.453543v 13.3149h 0.453543v -11.0958h 0.453543v
 13.3149h 0.453543v -2.21916h 0.453543v -4.43832h 0.453543v 6.65747h 0.453543v -4.43832h 0.907087v 4.43832h 0.453543v -11.0958h 0.453543v -4.43832h 0.453543v 8.87663h 0.453543v 4.43832h 0.453543v -2.21916h 0.453543v -4.43832h 0.453543v 4.43832h
 0.453543v -4.43832h 0.453543v -2.21916h 0.907087v 6.65747h 0.907087v 2.21916h 0.453543v -8.87663h 0.453543v 8.87663h 0.453543v -4.43832h 0.453543v 4.43832h 0.453543v -15.5341h 0.453543v 6.65747h 0.453543v 6.65747h 0.453543v 2.21916h 1.36063v
 -6.65747h 0.453543v 4.43832h 0.453543v 2.21916h 0.453543v -11.0958h 0.453543v 8.87663h 0.453543v 6.65747h 0.453543v -8.87663h 0.907087v 2.21916h 0.453543v -2.21916h 0.453543v 11.0958h 0.453543v -13.3149h 0.453543v -2.21916h 0.453543v 13.3149h
 0.453543v -6.65747h 0.453543v 2.21916h 0.907087v 4.43832h 0.907087v -4.43832h 0.453543v -6.65747h 0.907087v -2.21916h 0.453543v -2.21916h 0.453543v 15.5341h 0.453543v -2.21916h 0.453543v 2.21916h 0.453543v -8.87663h 0.907087v -6.65747h 0.453543v
 13.3149h 0.453543v 2.21916h 0.453543v -6.65747h 0.453543v -6.65747h 0.453543v 6.65747h 0.453543v 4.43832h 0.453543v -6.65747h 0.907087v -2.21916h 0.453543v 4.43832h 0.453543v -4.43832h 0.453543v -4.43832h 0.453543v 15.5341h 0.453543v -19.9724h
 0.453543v 11.0958h 0.453543v 11.0958h 0.453543v -15.5341h 0.453543v 13.3149h 0.453543v -13.3149h 0.453543v 8.87663h 0.453543v -2.21916h 0.907087v -2.21916h 0.453543v -2.21916h 0.453543v 2.21916h 0.453543v -2.21916h 0.453543v 2.21916h 0.453543v
 -4.43832h 0.453543v 6.65747h 0.453543v -4.43832h 0.453543v 8.87663h 0.453543v -2.21916h 0.453543v 2.21916h 0.907087v -6.65747h 0.453543v 2.21916h 0.453543v -6.65747h 0.453543v 4.43832h 0.453543v 13.3149h 0.453543v -8.87663h 0.453543v -4.43832h
 0.453543v 4.43832h 0.453543v 2.21916h 0.907087v -2.21916h 0.453543v -6.65747h 0.453543v -6.65747h 0.453543v 15.5341h 0.453543v -6.65747h 0.453543v -2.21916h 0.453543v -13.3149h 0.453543v 17.7533h 0.453543v 4.43832h 0.453543v -2.21916h 0.907087v
 -15.5341h 0.453543v 13.3149h 0.453543v -2.21916h 0.453543v 6.65747h 0.453543v -13.3149h 0.453543v 4.43832h 0.453543v -2.21916h 0.453543v 13.3149h 0.453543v -4.43832h 0.453543v 2.21916h 0.453543v -6.65747h 0.453543v 6.65747h 0.453543v -6.65747h
 0.453543v 2.21916h 0.453543v 2.21916h 0.453543v 6.65747h 0.453543v -4.43832h 0.453543v 6.65747h 0.453543v -17.7533h 0.453543v 4.43832h 0.453543v -2.21916h 0.453543v 15.5341h 0.453543v -6.65747h 0.453543v -4.43832h 0.453543v -8.87663h 0.453543v
 17.7533h 0.453543v -6.65747h 0.453543v -2.21916h 0.907087v 8.87663h 0.453543v 2.21916h 0.453543v -6.65747h 0.453543v -4.43832h 0.453543v -2.21916h 0.453543v 8.87663h 0.907087v -4.43832h 0.453543v 6.65747h 0.453543v -11.0958h 0.453543v 8.87663h
 0.453543v -2.21916h 0.453543v 6.65747h 0.453543v -6.65747h 0.453543v 2.21916h 0.453543v 2.21916h 0.453543v -4.43832h 0.453543v 2.21916h 0.907087v -2.21916h 1.36063v 4.43832h 0.453543v 2.21916h 0.453543v -6.65747h 0.453543v -2.21916h 0.453543v
 6.65747h 0.453543v -2.21916h 0.453543v -6.65747h 0.453543v 6.65747h 0.453543v -11.0958h 0.453543v 11.0958h 0.453543v 2.21916h 0.453543v -4.43832h 0.453543v 2.21916h 0.453543v -2.21916h 0.453543v 6.65747h 0.453543v -2.21916h 0.453543v -6.65747h
 0.453543v -2.21916h 0.453543v 6.65747h 0.453543v -2.21916h 0.453543v 6.65747h 0.453543v -2.21916h 0.453543v -8.87663h 0.453543v 6.65747h 0.453543v -6.65747h 0.907087v -2.21916h 0.453543v 11.0958h 0.453543v -4.43832h 0.453543v -2.21916h 0.453543v
 -4.43832h 0.453543v 6.65747h 0.453543v -2.21916h 0.453543v 4.43832h 0.453543v -2.21916h 0.907087v 2.21916h 0.453543v -11.0958h 0.453543v -2.21916h 0.453543v 13.3149h 0.453543v -6.65747h 0.907087v 4.43832h 0.453543v 2.21916h 0.453543v 2.21916h
 0.453543v -6.65747h 0.453543v -8.87663h 0.453543v -6.65747h 0.453543v 6.65747h 0.453543v 4.43832h 0.453543v -8.87663h 0.907087v 13.3149h 0.453543v -13.3149h 0.907087v 2.21916h 0.453543v -4.43832h 0.453543v 8.87663h 0.453543v 2.21916h 0.453543v
 -6.65747h 0.453543v -2.21916h 0.453543v -2.21916h 0.453543v 4.43832h 0.453543v -15.5341h 0.453543v 8.87663h 0.453543v -2.21916h 0.453543v -2.21916h 0.453543v 17.7533h 0.453543v -11.0958h 0.453543v -4.43832h 0.453543v 4.43832h 0.453543v -19.9724h
 0.453543v -6.65747h 0.453543v 8.87663h 0.453543v 17.7533h 0.453543v 11.0958h 0.453543v -11.0958h 0.453543v 17.7533h 0.453543v -22.1916h 0.453543v 4.43832h 0.453543v 2.21916h 0.453543v -6.65747h 0.453543v 2.21916h 0.453543v 6.65747h 0.453543v
 6.65747h 0.453543v -8.87663h 0.453543v 11.0958h 0.453543v -2.21916h 0.453543v -6.65747h 0.453543v 6.65747h 0.453543v 2.21916h 0.453543v 2.21916h 0.453543v 2.21916h 0.453543v -2.21916h 0.453543v -4.43832h 0.453543v 6.65747h 0.453543v 2.21916h
 0.453543v -2.21916h 0.453543v 2.21916h 0.453543v 2.21916h 0.453543v -2.21916h 0.907087v -6.65747h 0.453543v -2.21916h 0.453543v 8.87663h 0.453543v 4.43832h 0.907087v -17.7533h 0.453543v 13.3149h 0.453543v -2.21916h 0.907087v 4.43832h 0.453543v
 -4.43832h 1.36063v 4.43832h 0.907087v -2.21916h 0.453543v 4.43832h 1.81417v -8.87663h 0.453543v 2.21916h 0.453543v 2.21916h 0.453543v -2.21916h 0.453543v 4.43832h 1.36063v -4.43832h 0.453543v 2.21916h 0.453543v 4.43832h 0.453543v -2.21916h 0.907087v
 -6.65747h 0.907087v 2.21916h 0.453543v 2.21916h 0.453543v -2.21916h 0.453543v 4.43832h 0.907087v -2.21916h 0.907087v 2.21916h 0.453543v -2.21916h 0.453543v -2.21916h 0.453543v 4.43832h 0.453543v -4.43832h 0.453543v 4.43832h 0.453543v -2.21916h
 1.36063v 2.21916h 0.453543v -4.43832h 0.453543v -4.43832h 0.453543v 6.65747h 0.453543v -6.65747h 0.453543v 6.65747h 0.907087v 2.21916h 0.453543v -8.87663h 0.453543v 11.0958h 0.453543v -4.43832h 0.453543v -2.21916h 0.907087v 2.21916h 0.453543v
 2.21916h 0.453543v 2.21916h 0.453543v -2.21916h 0.453543v -4.43832h 0.453543v 4.43832h 0.453543v -8.87663h 0.453543v 4.43832h 0.907087v 6.65747h 0.453543v -4.43832h 0.453543v 2.21916h 0.453543v -2.21916h 0.453543v -2.21916h 0.907087v 4.43832h
 0.907087v -2.21916h 0.453543v -4.43832h 0.453543v 6.65747h 0.453543v -2.21916h 0.453543v 2.21916h 0.907087v -2.21916h 0.453543v -2.21916h 0.453543v 6.65747h 1.81417v -2.21916h 0.453543v -2.21916h 0.453543v 2.21916h 0.453543v -4.43832h 0.453543v
 4.43832h 0.453543v -2.21916h 0.453543v -2.21916h 0.453543v 2.21916h 0.453543v -2.21916h 0.453543v 2.21916h 0.453543v -4.43832h 0.453543v 6.65747h 2.26772v -2.21916h 0.453543v 4.43832h 0.453543v -6.65747h 0.453543v 4.43832h 0.907087v -4.43832h
 0.453543v 2.21916h 0.453543v 2.21916h 0.907087v -2.21916h 1.36063v 4.43832h 1.36063v -2.21916h 0.453543v 2.21916h 0.453543v -2.21916h 0.453543v 2.21916h 0.907087v -6.65747h 0.453543v 4.43832h 0.907087v 2.21916h 0.907087v -2.21916h 1.36063v 2.21916h
 0.453543v -2.21916h 0.907087v 2.21916h 0.453543v -2.21916h 0.907087v 2.21916h 0.453543v -8.87663h 0.453543v 4.43832h 0.453543v 4.43832h 0.907087v -4.43832h 0.453543v 2.21916h 0.453543v 2.21916h 0.907087v -2.21916h 1.36063v 2.21916h 0.453543v
 -2.21916h 0.453543v 2.21916h 4.08189v -2.21916h 0.907087v 2.21916h 0.907087v -4.43832h 0.453543v 4.43832h 2.72126v -2.21916h 0.453543v -2.21916h 0.453543v 2.21916h 0.453543v -2.21916h 0.907087v 4.43832h 0.453543v -2.21916h 1.81417v 2.21916h
 0.453543v -2.21916h 0.453543v -2.21916h 1.81417v 2.21916h 0.907087v -2.21916h 0.453543v 2.21916h 0.453543v -4.43832h 0.453543v 2.21916h 0.453543v 4.43832h 0.453543v -2.21916h 0.453543v -2.21916h 0.453543v 4.43832h 0.453543v -8.87663h 0.907087v
 6.65747h 0.453543v 2.21916h 0.453543v -4.43832h 0.453543v -4.43832h 1.36063v 6.65747h 0.453543v -2.21916h 0.453543v -4.43832h 0.453543v 2.21916h 0.453543v 2.21916h 0.453543v 4.43832h 0.453543v -6.65747h 0.907087v 2.21916h 0.453543v 2.21916h
 0.453543v -8.87663h 0.453543v 4.43832h 0.453543v 2.21916h 0.453543v 2.21916h 0.907087v 2.21916h 0.453543v -8.87663h 0.453543v 6.65747h 0.453543v -4.43832h 0.453543v 2.21916h 0.453543v 4.43832h 0.453543v -8.87663h 0.453543v 4.43832h 0.453543v
 4.43832h 0.453543v -4.43832h 0.907087v 4.43832h 0.453543v -4.43832h 0.907087v 4.43832h 0.907087v -4.43832h 0.453543v 4.43832h 1.36063v -6.65747h 0.453543v 6.65747h 0.907087v -2.21916h 0.453543v 2.21916h 1.81417v -6.65747h 0.453543v 4.43832h
 0.453543v 2.21916h 0.453543v -2.21916h 1.36063v 2.21916h 0.453543v -2.21916h 0.453543v 2.21916h 0.453543v -2.21916h 0.453543v 2.21916h 1.81417v -2.21916h 0.453543v 2.21916h 8.61732v -2.21916h 0.453543v 2.21916h 0.907087v -2.21916h 0.453543v 2.21916h
 5.89606v -2.21916h 0.907087v 2.21916h 3.1748v -2.21916h 0.453543v 2.21916h 4.98898v -2.21916h 0.907087v 2.21916h 9.07087v -2.21916h 0.453543v 2.21916h 5.89606" fill="none" stroke="#000099"/>
<path d="M157.109,334.827l 0.272126, -1.60115l 0.272126, -1.78829l 0.272126, -1.99063l 0.272126, -2.20843l 0.272126, -2.44176l 0.272126, -2.69053l 0.272126, -2.95447l 0.272126, -3.23307l 0.272126, -3.52556l 0.272126, -3.83095l 0.272126, -4.14796l
 0.272126, -4.47502l 0.272126, -4.81027l 0.272126, -5.15154l 0.272126, -5.49638l 0.272126, -5.84204l 0.272126, -6.1855l 0.272126, -6.52345l 0.272126, -6.85239l 0.272126, -7.16857l 0.272126, -7.46811l 0.272126, -7.74697l 0.272126, -8.00108l 0.272126,
 -8.22632l 0.272126, -8.41861l 0.272126, -8.57401l 0.272126, -8.68871l 0.272126, -8.75916l 0.272126, -8.78211l 0.272126, -8.75468l 0.272126, -8.67443l 0.272126, -8.53939l 0.272126, -8.34817l 0.272126, -8.09995l 0.272126, -7.79455l 0.272126, -7.43245l
 0.272126, -7.0148l 0.272126, -6.54344l 0.272126, -6.0209l 0.272126, -5.45035l 0.272126, -4.83563l 0.272126, -4.18114l 0.272126, -3.49185l 0.272126, -2.77321l 0.272126, -2.03105l 0.272126, -1.27158l 0.272126, -0.501223l 0.272126, 0.273437l 0.272126,
 1.04575" fill="none" stroke="#ff0000" stroke-width="2"/>
<path d="M170.443,76.8044l 0.272126, 1.8091l 0.272126, 2.55701l 0.272126, 3.28319l 0.272126, 3.9817l 0.272126, 4.64697l 0.272126, 5.27388l 0.272126, 5.85785l 0.272126, 6.39487l 0.272126, 6.88158l 0.272126, 7.31526l 0.272126, 7.69386l 0.272126,
 8.01602l 0.272126, 8.28107l 0.272126, 8.48901l 0.272126, 8.64045l 0.272126, 8.73665l 0.272126, 8.77939l 0.272126, 8.77098l 0.272126, 8.71419l 0.272126, 8.61215l 0.272126, 8.46834l 0.272126, 8.2865l 0.272126, 8.07053l 0.272126, 7.8245l 0.272126,
 7.55249l 0.272126, 7.25861l 0.272126, 6.94692l 0.272126, 6.62134l 0.272126, 6.28566l 0.272126, 5.94347l 0.272126, 5.59813l 0.272126, 5.25275l 0.272126, 4.91016l 0.272126, 4.5729l 0.272126, 4.24323l 0.272126, 3.92309l 0.272126, 3.61413l 0.272126,
 3.31773l 0.272126, 3.03495l 0.272126, 2.76664l 0.272126, 2.51336l 0.272126, 2.27547l 0.272126, 2.05311l 0.272126, 1.84623l 0.272126, 1.65465l 0.272126, 1.47802l 0.272126, 1.31588l 0.272126, 1.16767l 0.272126, 1.03277" fill="none" stroke="#ff0000"
 stroke-width="2"/>
<path d="M183.777,339.369l 0.272126, 0.910483" fill="none" stroke="#ff0000" stroke-width="2"/>
<path d="M320.384,339.377l 0.272126, -0.411559l 0.272126, -0.426569l 0.272126, -0.441257l 0.272126, -0.455541l 0.272126, -0.469335l 0.272126, -0.482552l 0.272126, -0.495103l 0.272126, -0.506899l 0.272126, -0.517849l 0.272126, -0.527863l 0.272126,
 -0.536852l 0.272126, -0.544728l 0.272126, -0.551405l 0.272126, -0.556802l 0.272126, -0.560839l 0.272126, -0.563441l 0.272126, -0.56454l 0.272126, -0.564072l 0.272126, -0.56198l 0.272126, -0.558214l 0.272126, -0.552732l 0.272126, -0.545499l 0.272126,
 -0.536492l 0.272126, -0.525694l 0.272126, -0.513099l 0.272126, -0.498711l 0.272126, -0.482545l 0.272126, -0.464626l 0.272126, -0.444988l 0.272126, -0.423677l 0.272126, -0.40075l 0.272126, -0.376273l 0.272126, -0.350322l 0.272126, -0.322983l
 0.272126, -0.294352l 0.272126, -0.264531l 0.272126, -0.233634l 0.272126, -0.201778l 0.272126, -0.16909l 0.272126, -0.1357l 0.272126, -0.101746l 0.272126, -0.0673656l 0.272126, -0.0327035l 0.272126, 0.00209574l 0.272126, 0.0368862l 0.272126,
 0.071522l 0.272126, 0.105858l 0.272126, 0.139752l 0.272126, 0.173065" fill="none" stroke="#ff0000" stroke-width="2"/>
<path d="M333.718,321.67l 0.272126, 0.20566l 0.272126, 0.237406l 0.272126, 0.26818l 0.272126, 0.297863l 0.272126, 0.326344l 0.272126, 0.353521l 0.272126, 0.379299l 0.272126, 0.403593l 0.272126, 0.426329l 0.272126, 0.447441l 0.272126, 0.466875l
 0.272126, 0.484585l 0.272126, 0.500538l 0.272126, 0.51471l 0.272126, 0.527089l 0.272126, 0.537671l 0.272126, 0.546463l 0.272126, 0.553484l 0.272126, 0.558758l 0.272126, 0.56232l 0.272126, 0.564214l 0.272126, 0.56449l 0.272126, 0.563206l 0.272126,
 0.560427l 0.272126, 0.556223l 0.272126, 0.550668l 0.272126, 0.543841l 0.272126, 0.535827l 0.272126, 0.52671l 0.272126, 0.516579l 0.272126, 0.505522l 0.272126, 0.49363l 0.272126, 0.480994l 0.272126, 0.467703l 0.272126, 0.453845l 0.272126, 0.439508l
 0.272126, 0.424777l 0.272126, 0.409734l 0.272126, 0.394458l 0.272126, 0.379025l 0.272126, 0.363508l 0.272126, 0.347974l 0.272126, 0.332488l 0.272126, 0.31711l 0.272126, 0.301894l 0.272126, 0.286892l 0.272126, 0.272151l 0.272126, 0.25771l 0.272126,
 0.243608" fill="none" stroke="#ff0000" stroke-width="2"/>
<path d="M347.052,342.923l 0.272126, 0.229877" fill="none" stroke="#ff0000" stroke-width="2"/>
<rect x="442.705" y="24.9905" width="113.386" height="61.5151" fill="white"/>
<path d="M442.705,86.5056h 113.386" fill="none" stroke="black"/>
<path d="M556.091,86.5056v -61.5151" fill="none" stroke="black"/>
<path d="M556.091,24.9905h -113.386" fill="none" stroke="black"/>
<path d="M442.705,24.9905v 61.5151" fill="none" stroke="black"/>
<text xml:space="preserve" x="459.908" y="36.6549" fill="black" font-size="13.4802" font-family="Helvetica">C_Na_1600V</text>
<path d="M442.705,40.3693h 113.386" fill="none" stroke="black"/>
<text xml:space="preserve" x="447.69" y="52.946" fill="black" font-size="12.7186" font-family="Helvetica">Entries </text>
<text xml:space="preserve" x="512.854" y="52.946" fill="black" font-size="12.7186" font-family="Helvetica"> 10000</text>
<text xml:space="preserve" x="447.69" y="67.6079" fill="black" font-size="12.7186" font-family="Helvetica">Mean  </text>
<text xml:space="preserve" x="512.854" y="67.6079" fill="black" font-size="12.7186" font-family="Helvetica">  651.6</text>
<text xml:space="preserve" x="447.69" y="83.0844" fill="black" font-size="12.7186" font-family="Helvetica">Std Dev   </text>
<text xml:space="preserve" x="512.854" y="83.0844" fill="black" font-size="12.7186" font-family="Helvetica">  429.9</text>
<path d="M57.1929,346.022h 453.543" fill="none" stroke="black"/>
<path d="M57.1929,336.795v 9.22726" fill="none" stroke="black"/>
<path d="M75.3346,341.409v 4.61363" fill="none" stroke="black"/>
<path d="M93.4764,341.409v 4.61363" fill="none" stroke="black"/>
<path d="M111.618,341.409v 4.61363" fill="none" stroke="black"/>
<path d="M129.76,341.409v 4.61363" fill="none" stroke="black"/>
<path d="M147.902,336.795v 9.22726" fill="none" stroke="black"/>
<path d="M166.043,341.409v 4.61363" fill="none" stroke="black"/>
<path d="M184.185,341.409v 4.61363" fill="none" stroke="black"/>
<path d="M202.327,341.409v 4.61363" fill="none" stroke="black"/>
<path d="M220.469,341.409v 4.61363" fill="none" stroke="black"/>
<path d="M238.61,336.795v 9.22726" fill="none" stroke="black"/>
<path d="M256.752,341.409v 4.61363" fill="none" stroke="black"/>
<path d="M274.894,341.409v 4.61363" fill="none" stroke="black"/>
<path d="M293.035,341.409v 4.61363" fill="none" stroke="black"/>
<path d="M311.177,341.409v 4.61363" fill="none" stroke="black"/>
<path d="M329.319,336.795v 9.22726" fill="none" stroke="black"/>
<path d="M347.461,341.409v 4.61363" fill="none" stroke="black"/>
<path d="M365.602,341.409v 4.61363" fill="none" stroke="black"/>
<path d="M383.744,341.409v 4.61363" fill="none" stroke="black"/>
<path d="M401.886,341.409v 4.61363" fill="none" stroke="black"/>
<path d="M420.028,336.795v 9.22726" fill="none" stroke="black"/>
<path d="M438.169,341.409v 4.61363" fill="none" stroke="black"/>
<path d="M456.311,341.409v 4.61363" fill="none" stroke="black"/>
<path d="M474.453,341.409v 4.61363" fill="none" stroke="black"/>
<path d="M492.594,341.409v 4.61363" fill="none" stroke="black"/>
<path d="M510.736,336.795v 9.22726" fill="none" stroke="black"/>
<text xml:space="preserve" x="53.446" y="358.403" fill="black" font-size="12.8453" font-family="Helvetica">0</text>
<text xml:space="preserve" x="136.53" y="358.403" fill="black" font-size="12.8453" font-family="Helvetica">500</text>
<text xml:space="preserve" x="224.502" y="358.403" fill="black" font-size="12.8453" font-family="Helvetica">1000</text>
<text xml:space="preserve" x="314.918" y="358.403" fill="black" font-size="12.8453" font-family="Helvetica">1500</text>
<text xml:space="preserve" x="406.148" y="358.403" fill="black" font-size="12.8453" font-family="Helvetica">2000</text>
<text xml:space="preserve" x="496.563" y="358.403" fill="black" font-size="12.8453" font-family="Helvetica">2500</text>
<text xml:space="preserve" x="451.763" y="372.251" fill="black" font-size="12.8453" font-family="Helvetica">ADC value</text>
<path d="M57.1929,346.022v -307.575" fill="none" stroke="black"/>
<path d="M70.7992,346.022h -13.6063" fill="none" stroke="black"/>
<path d="M63.9961,334.926h -6.80315" fill="none" stroke="black"/>
<path d="M63.9961,323.831h -6.80315" fill="none" stroke="black"/>
<path d="M63.9961,312.735h -6.80315" fill="none" stroke="black"/>
<path d="M70.7992,301.639h -13.6063" fill="none" stroke="black"/>
<path d="M63.9961,290.543h -6.80315" fill="none" stroke="black"/>
<path d="M63.9961,279.448h -6.80315" fill="none" stroke="black"/>
<path d="M63.9961,268.352h -6.80315" fill="none" stroke="black"/>
<path d="M70.7992,257.256h -13.6063" fill="none" stroke="black"/>
<path d="M63.9961,246.16h -6.80315" fill="none" stroke="black"/>
<path d="M63.9961,235.064h -6.80315" fill="none" stroke="black"/>
<path d="M63.9961,223.969h -6.80315" fill="none" stroke="black"/>
<path d="M70.7992,212.873h -13.6063" fill="none" stroke="black"/>
<path d="M63.9961,201.777h -6.80315" fill="none" stroke="black"/>
<path d="M63.9961,190.681h -6.80315" fill="none" stroke="black"/>
<path d="M63.9961,179.585h -6.80315" fill="none" stroke="black"/>
<path d="M70.7992,168.49h -13.6063" fill="none" stroke="black"/>
<path d="M63.9961,157.394h -6.80315" fill="none" stroke="black"/>
<path d="M63.9961,146.298h -6.80315" fill="none" stroke="black"/>
<path d="M63.9961,135.202h -6.80315" fill="none" stroke="black"/>
<path d="M70.7992,124.106h -13.6063" fill="none" stroke="black"/>
<path d="M63.9961,113.011h -6.80315" fill="none" stroke="black"/>
<path d="M63.9961,101.915h -6.80315" fill="none" stroke="black"/>
<path d="M63.9961,90.8191h -6.80315" fill="none" stroke="black"/>
<path d="M70.7992,79.7233h -13.6063" fill="none" stroke="black"/>
<path d="M70.7992,79.7233h -13.6063" fill="none" stroke="black"/>
<path d="M63.9961,68.6275h -6.80315" fill="none" stroke="black"/>
<path d="M63.9961,57.5317h -6.80315" fill="none" stroke="black"/>
<path d="M63.9961,46.4359h -6.80315" fill="none" stroke="black"/>
<text xml:space="preserve" x="47.7441" y="350.258" fill="black" font-size="12.8453" font-family="Helvetica">0</text>
<text xml:space="preserve" x="41.2277" y="306.272" fill="black" font-size="12.8453" font-family="Helvetica">20</text>
<text xml:space="preserve" x="41.2277" y="261.472" fill="black" font-size="12.8453" font-family="Helvetica">40</text>
<text xml:space="preserve" x="41.2277" y="217.486" fill="black" font-size="12.8453" font-family="Helvetica">60</text>
<text xml:space="preserve" x="41.2277" y="172.685" fill="black" font-size="12.8453" font-family="Helvetica">80</text>
<text xml:space="preserve" x="33.8967" y="128.699" fill="black" font-size="12.8453" font-family="Helvetica">100</text>
<text xml:space="preserve" x="33.8967" y="83.899" fill="black" font-size="12.8453" font-family="Helvetica">120</text>
<g transform="rotate(-90,20.8638,75.7535)">
<text xml:space="preserve" x="20.8638" y="75.7535" fill="black" font-size="12.8453" font-family="Helvetica">Events</text>
</g>
<rect x="442.705" y="24.9905" width="113.386" height="61.5151" fill="white"/>
<path d="M442.705,86.5056h 113.386" fill="none" stroke="black"/>
<path d="M556.091,86.5056v -61.5151" fill="none" stroke="black"/>
<path d="M556.091,24.9905h -113.386" fill="none" stroke="black"/>
<path d="M442.705,24.9905v 61.5151" fill="none" stroke="black"/>
<text xml:space="preserve" x="459.908" y="36.6549" fill="black" font-size="13.4802" font-family="Helvetica">C_Na_1600V</text>
<path d="M442.705,40.3693h 113.386" fill="none" stroke="black"/>
<text xml:space="preserve" x="447.69" y="52.946" fill="black" font-size="12.7186" font-family="Helvetica">Entries </text>
<text xml:space="preserve" x="512.854" y="52.946" fill="black" font-size="12.7186" font-family="Helvetica"> 10000</text>
<text xml:space="preserve" x="447.69" y="67.6079" fill="black" font-size="12.7186" font-family="Helvetica">Mean  </text>
<text xml:space="preserve" x="512.854" y="67.6079" fill="black" font-size="12.7186" font-family="Helvetica">  651.6</text>
<text xml:space="preserve" x="447.69" y="83.0844" fill="black" font-size="12.7186" font-family="Helvetica">Std Dev   </text>
<text xml:space="preserve" x="512.854" y="83.0844" fill="black" font-size="12.7186" font-family="Helvetica">  429.9</text>
<text xml:space="preserve" x="230.204" y="18.7347" fill="black" font-size="18.0316" font-family="Helvetica">C_Na_1600V</text></svg>
