<?xml version="1.0" standalone="no"?>
<svg width="567.429" height="384.68" viewBox="0 0 567.429 384.68" xmlns="http://www.w3.org/2000/svg" shape-rendering="crispEdges">
<title>
img/calibration/C_Na_1600V.svg
</title>
<desc>
Creator: ROOT Version 6.22/09
CreationDate: Tue Jun  8 15:04:55 2021</desc>
<defs>
</defs>
<rect x="0.5" y="0" width="566.929" height="384.18" fill="white"/>
<rect x="57.1929" y="38.418" width="453.543" height="307.344" fill="white"/>
<rect x="57.1929" y="38.418" width="453.543" height="307.344" fill="none" stroke="black"/>
<rect x="57.1929" y="38.418" width="453.543" height="307.344" fill="white"/>
<rect x="57.1929" y="38.418" width="453.543" height="307.344" fill="none" stroke="black"/>
<path d="M57.1929,343.544h 0.453543v -2.21749h 0.453543v 4.43498h 0.453543v -2.21749h 0.453543v 2.21749h 0.453543v -2.21749h 0.907087v 2.21749h 1.36063v -4.43498h 0.907087v 4.43498h 0.453543v -6.65246h 0.453543v 6.65246h 0.453543v -2.21749h 0.453543v
 2.21749h 0.453543v -2.21749h 0.907087v 2.21749h 0.453543v -4.43498h 0.453543v 4.43498h 2.26772v -2.21749h 0.453543v -4.43498h 0.453543v 6.65246h 0.907087v -2.21749h 1.36063v -2.21749h 0.453543v 4.43498h 0.453543v -2.21749h 0.907087v -2.21749h
 0.453543v 4.43498h 0.453543v -8.86995h 0.453543v 2.21749h 0.453543v 2.21749h 0.907087v -2.21749h 0.907087v 2.21749h 0.453543v 2.21749h 0.907087v -6.65246h 0.453543v 4.43498h 0.453543v -15.5224h 0.453543v 17.7399h 0.453543v -8.86995h 0.453543v
 2.21749h 0.453543v -11.0874h 0.453543v 11.0874h 0.453543v -6.65246h 0.453543v -11.0874h 0.453543v -4.43498h 0.453543v 8.86995h 0.453543v -2.21749h 0.453543v 6.65246h 0.453543v -8.86995h 0.453543v -15.5224h 0.453543v -11.0874h 0.453543v 8.86995h
 0.907087v 6.65246h 0.453543v -15.5224h 0.453543v 11.0874h 0.453543v -11.0874h 0.453543v -15.5224h 0.453543v 4.43498h 0.453543v -13.3049h 0.453543v 15.5224h 0.453543v -6.65246h 0.453543v -6.65246h 0.453543v 17.7399h 0.453543v -6.65246h 0.453543v
 2.21749h 0.453543v 4.43498h 0.453543v 2.21749h 0.453543v -37.6973h 0.907087v -4.43498h 0.453543v -8.86995h 0.453543v -19.9574h 0.453543v 46.5672h 0.907087v -2.21749h 0.453543v -6.65246h 0.453543v -2.21749h 0.453543v 6.65246h 0.453543v -15.5224h
 0.453543v -8.86995h 0.453543v -19.9574h 0.453543v 53.2197h 0.453543v -11.0874h 0.453543v -2.21749h 0.453543v 6.65246h 0.453543v -2.21749h 0.907087v -11.0874h 0.453543v 2.21749h 0.453543v 13.3049h 0.453543v 19.9574h 0.453543v -35.4798h 0.453543v
 15.5224h 0.453543v -13.3049h 0.453543v 2.21749h 0.453543v 8.86995h 0.453543v 8.86995h 0.453543v 26.6099h 0.453543v -62.0897h 0.453543v 22.1749h 0.453543v -6.65246h 0.453543v 4.43498h 0.453543v 31.0448h 0.453543v -22.1749h 0.453543v 15.5224h
 0.453543v -17.7399h 0.453543v 28.8273h 0.453543v -19.9574h 0.453543v -4.43498h 0.453543v 11.0874h 0.453543v -11.0874h 0.453543v 13.3049h 0.453543v 6.65246h 0.453543v -26.6099h 0.453543v 19.9574h 0.453543v 4.43498h 0.453543v 2.21749h 0.453543v
 -4.43498h 0.453543v -4.43498h 0.453543v 13.3049h 0.453543v -33.2623h 0.453543v 24.3924h 0.453543v 4.43498h 0.453543v 8.86995h 0.453543v -22.1749h 0.453543v 13.3049h 0.453543v -2.21749h 0.453543v -13.3049h 0.453543v 17.7399h 0.453543v 2.21749h
 0.453543v -13.3049h 0.453543v 4.43498h 0.453543v 4.43498h 0.453543v -2.21749h 0.453543v 4.43498h 0.453543v -6.65246h 0.453543v 4.43498h 0.453543v 22.1749h 0.453543v -26.6099h 0.453543v -4.43498h 0.453543v 24.3924h 0.453543v 6.65246h 0.453543v
 -8.86995h 0.453543v -31.0448h 0.453543v 35.4798h 0.453543v -8.86995h 0.453543v -13.3049h 0.453543v 22.1749h 0.453543v 15.5224h 0.453543v -17.7399h 0.453543v 6.65246h 0.907087v 2.21749h 0.453543v -4.43498h 0.453543v 2.21749h 0.453543v 4.43498h
 0.907087v 2.21749h 0.453543v 4.43498h 0.453543v -11.0874h 0.453543v 11.0874h 0.453543v -15.5224h 0.453543v 6.65246h 0.453543v 6.65246h 0.453543v -8.86995h 0.453543v 2.21749h 0.453543v 6.65246h 0.453543v -4.43498h 0.453543v 4.43498h 0.453543v
 -6.65246h 0.453543v 6.65246h 1.36063v -4.43498h 0.453543v -6.65246h 0.453543v 13.3049h 0.453543v -4.43498h 0.453543v -13.3049h 0.453543v 24.3924h 0.453543v -13.3049h 0.453543v 17.7399h 0.453543v -2.21749h 0.453543v -8.86995h 0.453543v 6.65246h
 0.453543v -2.21749h 0.453543v 8.86995h 0.453543v -13.3049h 0.453543v 13.3049h 0.453543v -13.3049h 0.453543v 6.65246h 0.453543v -11.0874h 0.453543v 15.5224h 0.453543v -11.0874h 0.453543v -8.86995h 0.453543v 6.65246h 0.453543v 11.0874h 0.453543v
 -15.5224h 0.907087v -8.86995h 0.453543v 15.5224h 0.453543v 6.65246h 0.453543v -6.65246h 0.907087v 2.21749h 0.453543v 4.43498h 0.453543v -4.43498h 0.453543v -8.86995h 0.453543v 8.86995h 0.453543v -4.43498h 0.907087v -8.86995h 0.453543v -22.1749h
 0.453543v 13.3049h 0.453543v -6.65246h 0.453543v 4.43498h 0.453543v -17.7399h 0.453543v -17.7399h 0.453543v -11.0874h 0.453543v -37.6973h 0.453543v -6.65246h 0.453543v 2.21749h 0.453543v 6.65246h 0.453543v -26.6099h 0.453543v -4.43498h 0.453543v
 -39.9148h 0.453543v 15.5224h 0.453543v -22.1749h 0.453543v -8.86995h 0.453543v -68.7421h 0.453543v -2.21749h 0.453543v 28.8273h 0.453543v -35.4798h 0.453543v 22.1749h 0.453543v 6.65246h 0.453543v -17.7399h 0.453543v 33.2623h 0.453543v -37.6973h
 0.453543v 4.43498h 0.453543v 53.2197h 0.453543v -31.0448h 0.453543v 26.6099h 0.453543v 28.8273h 0.907087v 8.86995h 0.453543v 19.9574h 0.453543v 31.0448h 0.453543v 11.0874h 0.453543v 17.7399h 0.453543v 2.21749h 0.453543v 11.0874h 0.453543v 15.5224h
 0.453543v 17.7399h 0.453543v 4.43498h 0.453543v 22.1749h 0.907087v 11.0874h 0.453543v 2.21749h 0.453543v -13.3049h 0.453543v 28.8273h 0.453543v -24.3924h 0.453543v 13.3049h 0.453543v 8.86995h 0.453543v 2.21749h 0.453543v -4.43498h 0.453543v 4.43498h
 0.453543v 8.86995h 0.453543v -6.65246h 0.453543v 4.43498h 0.453543v -8.86995h 0.453543v 11.0874h 0.453543v -13.3049h 0.453543v 2.21749h 0.453543v 2.21749h 0.453543v 8.86995h 0.453543v -15.5224h 0.453543v 11.0874h 0.453543v -17.7399h 0.453543v
 11.0874h 0.453543v 4.43498h 0.453543v 6.65246h 0.453543v -2.21749h 0.453543v -28.8273h 0.453543v 24.3924h 0.453543v -6.65246h 0.453543v 2.21749h 0.453543v 4.43498h 0.453543v 2.21749h 0.453543v -2.21749h 0.453543v -13.3049h 0.453543v 13.3049h
 0.453543v -4.43498h 0.453543v 2.21749h 0.453543v 2.21749h 0.453543v -8.86995h 0.453543v 13.3049h 0.453543v -2.21749h 0.453543v -6.65246h 0.453543v 4.43498h 0.453543v 2.21749h 0.453543v 2.21749h 0.453543v -11.0874h 0.453543v 4.43498h 0.453543v
 2.21749h 0.453543v -6.65246h 0.453543v 4.43498h 0.453543v -4.43498h 0.453543v -2.21749h 0.453543v 6.65246h 0.453543v 11.0874h 0.453543v -13.3049h 0.453543v -15.5224h 0.453543v 13.3049h 0.453543v -11.0874h 0.453543v 11.0874h 0.453543v 13.3049h
 0.453543v -2.21749h 0.453543v -4.43498h 0.453543v 2.21749h 0.453543v -11.0874h 0.453543v -4.43498h 0.453543v 8.86995h 0.453543v -4.43498h 0.453543v 6.65246h 0.453543v 8.86995h 0.453543v -2.21749h 0.453543v -15.5224h 0.453543v 11.0874h 0.907087v
 -2.21749h 0.453543v 6.65246h 0.453543v -6.65246h 0.453543v 6.65246h 0.453543v -6.65246h 0.907087v 2.21749h 0.453543v 4.43498h 0.453543v -4.43498h 0.453543v 2.21749h 0.453543v -15.5224h 0.453543v 2.21749h 0.453543v 15.5224h 0.453543v -11.0874h
 0.453543v 6.65246h 0.453543v -8.86995h 0.453543v 8.86995h 0.453543v -2.21749h 1.36063v 4.43498h 0.453543v -6.65246h 0.453543v 6.65246h 0.453543v -2.21749h 0.453543v -4.43498h 0.453543v -6.65246h 0.453543v 13.3049h 0.453543v -11.0874h 0.453543v
 13.3049h 0.453543v -2.21749h 0.453543v -4.43498h 0.453543v 6.65246h 0.453543v -4.43498h 0.907087v 4.43498h 0.453543v -11.0874h 0.453543v -4.43498h 0.453543v 8.86995h 0.453543v 4.43498h 0.453543v -2.21749h 0.453543v -4.43498h 0.453543v 4.43498h
 0.453543v -4.43498h 0.453543v -2.21749h 0.907087v 6.65246h 0.907087v 2.21749h 0.453543v -8.86995h 0.453543v 8.86995h 0.453543v -4.43498h 0.453543v 4.43498h 0.453543v -15.5224h 0.453543v 6.65246h 0.453543v 6.65246h 0.453543v 2.21749h 1.36063v
 -6.65246h 0.453543v 4.43498h 0.453543v 2.21749h 0.453543v -11.0874h 0.453543v 8.86995h 0.453543v 6.65246h 0.453543v -8.86995h 0.907087v 2.21749h 0.453543v -2.21749h 0.453543v 11.0874h 0.453543v -13.3049h 0.453543v -2.21749h 0.453543v 13.3049h
 0.453543v -6.65246h 0.453543v 2.21749h 0.907087v 4.43498h 0.907087v -4.43498h 0.453543v -6.65246h 0.907087v -2.21749h 0.453543v -2.21749h 0.453543v 15.5224h 0.453543v -2.21749h 0.453543v 2.21749h 0.453543v -8.86995h 0.907087v -6.65246h 0.453543v
 13.3049h 0.453543v 2.21749h 0.453543v -6.65246h 0.453543v -6.65246h 0.453543v 6.65246h 0.453543v 4.43498h 0.453543v -6.65246h 0.907087v -2.21749h 0.453543v 4.43498h 0.453543v -4.43498h 0.453543v -4.43498h 0.453543v 15.5224h 0.453543v -19.9574h
 0.453543v 11.0874h 0.453543v 11.0874h 0.453543v -15.5224h 0.453543v 13.3049h 0.453543v -13.3049h 0.453543v 8.86995h 0.453543v -2.21749h 0.907087v -2.21749h 0.453543v -2.21749h 0.453543v 2.21749h 0.453543v -2.21749h 0.453543v 2.21749h 0.453543v
 -4.43498h 0.453543v 6.65246h 0.453543v -4.43498h 0.453543v 8.86995h 0.453543v -2.21749h 0.453543v 2.21749h 0.907087v -6.65246h 0.453543v 2.21749h 0.453543v -6.65246h 0.453543v 4.43498h 0.453543v 13.3049h 0.453543v -8.86995h 0.453543v -4.43498h
 0.453543v 4.43498h 0.453543v 2.21749h 0.907087v -2.21749h 0.453543v -6.65246h 0.453543v -6.65246h 0.453543v 15.5224h 0.453543v -6.65246h 0.453543v -2.21749h 0.453543v -13.3049h 0.453543v 17.7399h 0.453543v 4.43498h 0.453543v -2.21749h 0.907087v
 -15.5224h 0.453543v 13.3049h 0.453543v -2.21749h 0.453543v 6.65246h 0.453543v -13.3049h 0.453543v 4.43498h 0.453543v -2.21749h 0.453543v 13.3049h 0.453543v -4.43498h 0.453543v 2.21749h 0.453543v -6.65246h 0.453543v 6.65246h 0.453543v -6.65246h
 0.453543v 2.21749h 0.453543v 2.21749h 0.453543v 6.65246h 0.453543v -4.43498h 0.453543v 6.65246h 0.453543v -17.7399h 0.453543v 4.43498h 0.453543v -2.21749h 0.453543v 15.5224h 0.453543v -6.65246h 0.453543v -4.43498h 0.453543v -8.86995h 0.453543v
 17.7399h 0.453543v -6.65246h 0.453543v -2.21749h 0.907087v 8.86995h 0.453543v 2.21749h 0.453543v -6.65246h 0.453543v -4.43498h 0.453543v -2.21749h 0.453543v 8.86995h 0.907087v -4.43498h 0.453543v 6.65246h 0.453543v -11.0874h 0.453543v 8.86995h
 0.453543v -2.21749h 0.453543v 6.65246h 0.453543v -6.65246h 0.453543v 2.21749h 0.453543v 2.21749h 0.453543v -4.43498h 0.453543v 2.21749h 0.907087v -2.21749h 1.36063v 4.43498h 0.453543v 2.21749h 0.453543v -6.65246h 0.453543v -2.21749h 0.453543v
 6.65246h 0.453543v -2.21749h 0.453543v -6.65246h 0.453543v 6.65246h 0.453543v -11.0874h 0.453543v 11.0874h 0.453543v 2.21749h 0.453543v -4.43498h 0.453543v 2.21749h 0.453543v -2.21749h 0.453543v 6.65246h 0.453543v -2.21749h 0.453543v -6.65246h
 0.453543v -2.21749h 0.453543v 6.65246h 0.453543v -2.21749h 0.453543v 6.65246h 0.453543v -2.21749h 0.453543v -8.86995h 0.453543v 6.65246h 0.453543v -6.65246h 0.907087v -2.21749h 0.453543v 11.0874h 0.453543v -4.43498h 0.453543v -2.21749h 0.453543v
 -4.43498h 0.453543v 6.65246h 0.453543v -2.21749h 0.453543v 4.43498h 0.453543v -2.21749h 0.907087v 2.21749h 0.453543v -11.0874h 0.453543v -2.21749h 0.453543v 13.3049h 0.453543v -6.65246h 0.907087v 4.43498h 0.453543v 2.21749h 0.453543v 2.21749h
 0.453543v -6.65246h 0.453543v -8.86995h 0.453543v -6.65246h 0.453543v 6.65246h 0.453543v 4.43498h 0.453543v -8.86995h 0.907087v 13.3049h 0.453543v -13.3049h 0.907087v 2.21749h 0.453543v -4.43498h 0.453543v 8.86995h 0.453543v 2.21749h 0.453543v
 -6.65246h 0.453543v -2.21749h 0.453543v -2.21749h 0.453543v 4.43498h 0.453543v -15.5224h 0.453543v 8.86995h 0.453543v -2.21749h 0.453543v -2.21749h 0.453543v 17.7399h 0.453543v -11.0874h 0.453543v -4.43498h 0.453543v 4.43498h 0.453543v -19.9574h
 0.453543v -6.65246h 0.453543v 8.86995h 0.453543v 17.7399h 0.453543v 11.0874h 0.453543v -11.0874h 0.453543v 17.7399h 0.453543v -22.1749h 0.453543v 4.43498h 0.453543v 2.21749h 0.453543v -6.65246h 0.453543v 2.21749h 0.453543v 6.65246h 0.453543v
 6.65246h 0.453543v -8.86995h 0.453543v 11.0874h 0.453543v -2.21749h 0.453543v -6.65246h 0.453543v 6.65246h 0.453543v 2.21749h 0.453543v 2.21749h 0.453543v 2.21749h 0.453543v -2.21749h 0.453543v -4.43498h 0.453543v 6.65246h 0.453543v 2.21749h
 0.453543v -2.21749h 0.453543v 2.21749h 0.453543v 2.21749h 0.453543v -2.21749h 0.907087v -6.65246h 0.453543v -2.21749h 0.453543v 8.86995h 0.453543v 4.43498h 0.907087v -17.7399h 0.453543v 13.3049h 0.453543v -2.21749h 0.907087v 4.43498h 0.453543v
 -4.43498h 1.36063v 4.43498h 0.907087v -2.21749h 0.453543v 4.43498h 1.81417v -8.86995h 0.453543v 2.21749h 0.453543v 2.21749h 0.453543v -2.21749h 0.453543v 4.43498h 1.36063v -4.43498h 0.453543v 2.21749h 0.453543v 4.43498h 0.453543v -2.21749h 0.907087v
 -6.65246h 0.907087v 2.21749h 0.453543v 2.21749h 0.453543v -2.21749h 0.453543v 4.43498h 0.907087v -2.21749h 0.907087v 2.21749h 0.453543v -2.21749h 0.453543v -2.21749h 0.453543v 4.43498h 0.453543v -4.43498h 0.453543v 4.43498h 0.453543v -2.21749h
 1.36063v 2.21749h 0.453543v -4.43498h 0.453543v -4.43498h 0.453543v 6.65246h 0.453543v -6.65246h 0.453543v 6.65246h 0.907087v 2.21749h 0.453543v -8.86995h 0.453543v 11.0874h 0.453543v -4.43498h 0.453543v -2.21749h 0.907087v 2.21749h 0.453543v
 2.21749h 0.453543v 2.21749h 0.453543v -2.21749h 0.453543v -4.43498h 0.453543v 4.43498h 0.453543v -8.86995h 0.453543v 4.43498h 0.907087v 6.65246h 0.453543v -4.43498h 0.453543v 2.21749h 0.453543v -2.21749h 0.453543v -2.21749h 0.907087v 4.43498h
 0.907087v -2.21749h 0.453543v -4.43498h 0.453543v 6.65246h 0.453543v -2.21749h 0.453543v 2.21749h 0.907087v -2.21749h 0.453543v -2.21749h 0.453543v 6.65246h 1.81417v -2.21749h 0.453543v -2.21749h 0.453543v 2.21749h 0.453543v -4.43498h 0.453543v
 4.43498h 0.453543v -2.21749h 0.453543v -2.21749h 0.453543v 2.21749h 0.453543v -2.21749h 0.453543v 2.21749h 0.453543v -4.43498h 0.453543v 6.65246h 2.26772v -2.21749h 0.453543v 4.43498h 0.453543v -6.65246h 0.453543v 4.43498h 0.907087v -4.43498h
 0.453543v 2.21749h 0.453543v 2.21749h 0.907087v -2.21749h 1.36063v 4.43498h 1.36063v -2.21749h 0.453543v 2.21749h 0.453543v -2.21749h 0.453543v 2.21749h 0.907087v -6.65246h 0.453543v 4.43498h 0.907087v 2.21749h 0.907087v -2.21749h 1.36063v 2.21749h
 0.453543v -2.21749h 0.907087v 2.21749h 0.453543v -2.21749h 0.907087v 2.21749h 0.453543v -8.86995h 0.453543v 4.43498h 0.453543v 4.43498h 0.907087v -4.43498h 0.453543v 2.21749h 0.453543v 2.21749h 0.907087v -2.21749h 1.36063v 2.21749h 0.453543v
 -2.21749h 0.453543v 2.21749h 4.08189v -2.21749h 0.907087v 2.21749h 0.907087v -4.43498h 0.453543v 4.43498h 2.72126v -2.21749h 0.453543v -2.21749h 0.453543v 2.21749h 0.453543v -2.21749h 0.907087v 4.43498h 0.453543v -2.21749h 1.81417v 2.21749h
 0.453543v -2.21749h 0.453543v -2.21749h 1.81417v 2.21749h 0.907087v -2.21749h 0.453543v 2.21749h 0.453543v -4.43498h 0.453543v 2.21749h 0.453543v 4.43498h 0.453543v -2.21749h 0.453543v -2.21749h 0.453543v 4.43498h 0.453543v -8.86995h 0.907087v
 6.65246h 0.453543v 2.21749h 0.453543v -4.43498h 0.453543v -4.43498h 1.36063v 6.65246h 0.453543v -2.21749h 0.453543v -4.43498h 0.453543v 2.21749h 0.453543v 2.21749h 0.453543v 4.43498h 0.453543v -6.65246h 0.907087v 2.21749h 0.453543v 2.21749h
 0.453543v -8.86995h 0.453543v 4.43498h 0.453543v 2.21749h 0.453543v 2.21749h 0.907087v 2.21749h 0.453543v -8.86995h 0.453543v 6.65246h 0.453543v -4.43498h 0.453543v 2.21749h 0.453543v 4.43498h 0.453543v -8.86995h 0.453543v 4.43498h 0.453543v
 4.43498h 0.453543v -4.43498h 0.907087v 4.43498h 0.453543v -4.43498h 0.907087v 4.43498h 0.907087v -4.43498h 0.453543v 4.43498h 1.36063v -6.65246h 0.453543v 6.65246h 0.907087v -2.21749h 0.453543v 2.21749h 1.81417v -6.65246h 0.453543v 4.43498h
 0.453543v 2.21749h 0.453543v -2.21749h 1.36063v 2.21749h 0.453543v -2.21749h 0.453543v 2.21749h 0.453543v -2.21749h 0.453543v 2.21749h 1.81417v -2.21749h 0.453543v 2.21749h 8.61732v -2.21749h 0.453543v 2.21749h 0.907087v -2.21749h 0.453543v 2.21749h
 5.89606v -2.21749h 0.907087v 2.21749h 3.1748v -2.21749h 0.453543v 2.21749h 4.98898v -2.21749h 0.907087v 2.21749h 9.07087v -2.21749h 0.453543v 2.21749h 5.89606" fill="none" stroke="#000099"/>
<path d="M157.109,334.575l 0.272126, -1.59994l 0.272126, -1.78694l 0.272126, -1.98914l 0.272126, -2.20676l 0.272126, -2.43992l 0.272126, -2.68851l 0.272126, -2.95225l 0.272126, -3.23063l 0.272126, -3.52291l 0.272126, -3.82807l 0.272126, -4.14484l
 0.272126, -4.47165l 0.272126, -4.80665l 0.272126, -5.14766l 0.272126, -5.49224l 0.272126, -5.83765l 0.272126, -6.18084l 0.272126, -6.51854l 0.272126, -6.84723l 0.272126, -7.16318l 0.272126, -7.46248l 0.272126, -7.74114l 0.272126, -7.99506l 0.272126,
 -8.22012l 0.272126, -8.41228l 0.272126, -8.56756l 0.272126, -8.68217l 0.272126, -8.75257l 0.272126, -8.7755l 0.272126, -8.74809l 0.272126, -8.6679l 0.272126, -8.53296l 0.272126, -8.34189l 0.272126, -8.09385l 0.272126, -7.78869l 0.272126, -7.42686l
 0.272126, -7.00952l 0.272126, -6.53852l 0.272126, -6.01636l 0.272126, -5.44625l 0.272126, -4.83199l 0.272126, -4.17799l 0.272126, -3.48922l 0.272126, -2.77112l 0.272126, -2.02952l 0.272126, -1.27062l 0.272126, -0.500846l 0.272126, 0.273232l
 0.272126, 1.04496" fill="none" stroke="#ff0000" stroke-width="2"/>
<path d="M170.443,76.7465l 0.272126, 1.80774l 0.272126, 2.55508l 0.272126, 3.28072l 0.272126, 3.97871l 0.272126, 4.64347l 0.272126, 5.26991l 0.272126, 5.85344l 0.272126, 6.39006l 0.272126, 6.8764l 0.272126, 7.30975l 0.272126, 7.68807l 0.272126,
 8.00999l 0.272126, 8.27484l 0.272126, 8.48262l 0.272126, 8.63395l 0.272126, 8.73007l 0.272126, 8.77278l 0.272126, 8.76438l 0.272126, 8.70763l 0.272126, 8.60567l 0.272126, 8.46197l 0.272126, 8.28026l 0.272126, 8.06446l 0.272126, 7.81861l 0.272126,
 7.5468l 0.272126, 7.25315l 0.272126, 6.94169l 0.272126, 6.61636l 0.272126, 6.28093l 0.272126, 5.939l 0.272126, 5.59392l 0.272126, 5.2488l 0.272126, 4.90646l 0.272126, 4.56946l 0.272126, 4.24004l 0.272126, 3.92014l 0.272126, 3.61141l 0.272126,
 3.31523l 0.272126, 3.03267l 0.272126, 2.76456l 0.272126, 2.51147l 0.272126, 2.27376l 0.272126, 2.05156l 0.272126, 1.84484l 0.272126, 1.65341l 0.272126, 1.47691l 0.272126, 1.31489l 0.272126, 1.16679l 0.272126, 1.03199" fill="none" stroke="#ff0000"
 stroke-width="2"/>
<path d="M183.777,339.113l 0.272126, 0.909798" fill="none" stroke="#ff0000" stroke-width="2"/>
<path d="M320.384,339.122l 0.272126, -0.411249l 0.272126, -0.426248l 0.272126, -0.440925l 0.272126, -0.455198l 0.272126, -0.468981l 0.272126, -0.482189l 0.272126, -0.494731l 0.272126, -0.506517l 0.272126, -0.517459l 0.272126, -0.527466l 0.272126,
 -0.536448l 0.272126, -0.544318l 0.272126, -0.55099l 0.272126, -0.556383l 0.272126, -0.560416l 0.272126, -0.563017l 0.272126, -0.564115l 0.272126, -0.563648l 0.272126, -0.561557l 0.272126, -0.557794l 0.272126, -0.552316l 0.272126, -0.545089l
 0.272126, -0.536088l 0.272126, -0.525298l 0.272126, -0.512713l 0.272126, -0.498336l 0.272126, -0.482182l 0.272126, -0.464276l 0.272126, -0.444653l 0.272126, -0.423358l 0.272126, -0.400448l 0.272126, -0.375989l 0.272126, -0.350058l 0.272126,
 -0.32274l 0.272126, -0.29413l 0.272126, -0.264332l 0.272126, -0.233458l 0.272126, -0.201626l 0.272126, -0.168963l 0.272126, -0.135598l 0.272126, -0.101669l 0.272126, -0.0673149l 0.272126, -0.0326789l 0.272126, 0.00209416l 0.272126, 0.0368584l
 0.272126, 0.0714681l 0.272126, 0.105779l 0.272126, 0.139647l 0.272126, 0.172934" fill="none" stroke="#ff0000" stroke-width="2"/>
<path d="M333.718,321.428l 0.272126, 0.205505l 0.272126, 0.237228l 0.272126, 0.267979l 0.272126, 0.297639l 0.272126, 0.326099l 0.272126, 0.353255l 0.272126, 0.379013l 0.272126, 0.403289l 0.272126, 0.426008l 0.272126, 0.447104l 0.272126, 0.466523l
 0.272126, 0.48422l 0.272126, 0.500161l 0.272126, 0.514323l 0.272126, 0.526692l 0.272126, 0.537266l 0.272126, 0.546052l 0.272126, 0.553067l 0.272126, 0.558337l 0.272126, 0.561897l 0.272126, 0.563789l 0.272126, 0.564065l 0.272126, 0.562782l 0.272126,
 0.560005l 0.272126, 0.555804l 0.272126, 0.550253l 0.272126, 0.543432l 0.272126, 0.535424l 0.272126, 0.526314l 0.272126, 0.51619l 0.272126, 0.505142l 0.272126, 0.493259l 0.272126, 0.480632l 0.272126, 0.467351l 0.272126, 0.453504l 0.272126, 0.439178l
 0.272126, 0.424457l 0.272126, 0.409425l 0.272126, 0.394161l 0.272126, 0.37874l 0.272126, 0.363234l 0.272126, 0.347712l 0.272126, 0.332238l 0.272126, 0.316871l 0.272126, 0.301667l 0.272126, 0.286677l 0.272126, 0.271946l 0.272126, 0.257516l 0.272126,
 0.243424" fill="none" stroke="#ff0000" stroke-width="2"/>
<path d="M347.052,342.664l 0.272126, 0.229704" fill="none" stroke="#ff0000" stroke-width="2"/>
<rect x="442.705" y="24.9717" width="113.386" height="61.4688" fill="white"/>
<path d="M442.705,86.4405h 113.386" fill="none" stroke="black"/>
<path d="M556.091,86.4405v -61.4688" fill="none" stroke="black"/>
<path d="M556.091,24.9717h -113.386" fill="none" stroke="black"/>
<path d="M442.705,24.9717v 61.4688" fill="none" stroke="black"/>
<text xml:space="preserve" x="460.216" y="36.5499" fill="black" font-size="13.4705" font-family="Helvetica">C_Na_1600V</text>
<path d="M442.705,40.3389h 113.386" fill="none" stroke="black"/>
<text xml:space="preserve" x="448.033" y="52.7943" fill="black" font-size="12.7411" font-family="Helvetica">Entries </text>
<text xml:space="preserve" x="513.01" y="52.7943" fill="black" font-size="12.7411" font-family="Helvetica"> 10000</text>
<text xml:space="preserve" x="448.033" y="68.2264" fill="black" font-size="12.7411" font-family="Helvetica">Mean  </text>
<text xml:space="preserve" x="513.01" y="68.2264" fill="black" font-size="12.7411" font-family="Helvetica">  651.6</text>
<text xml:space="preserve" x="448.033" y="82.8464" fill="black" font-size="12.7411" font-family="Helvetica">Std Dev   </text>
<text xml:space="preserve" x="513.01" y="82.8464" fill="black" font-size="12.7411" font-family="Helvetica">  429.9</text>
<path d="M57.1929,345.762h 453.543" fill="none" stroke="black"/>
<path d="M57.1929,336.541v 9.22031" fill="none" stroke="black"/>
<path d="M75.3346,341.152v 4.61016" fill="none" stroke="black"/>
<path d="M93.4764,341.152v 4.61016" fill="none" stroke="black"/>
<path d="M111.618,341.152v 4.61016" fill="none" stroke="black"/>
<path d="M129.76,341.152v 4.61016" fill="none" stroke="black"/>
<path d="M147.902,336.541v 9.22031" fill="none" stroke="black"/>
<path d="M166.043,341.152v 4.61016" fill="none" stroke="black"/>
<path d="M184.185,341.152v 4.61016" fill="none" stroke="black"/>
<path d="M202.327,341.152v 4.61016" fill="none" stroke="black"/>
<path d="M220.469,341.152v 4.61016" fill="none" stroke="black"/>
<path d="M238.61,336.541v 9.22031" fill="none" stroke="black"/>
<path d="M256.752,341.152v 4.61016" fill="none" stroke="black"/>
<path d="M274.894,341.152v 4.61016" fill="none" stroke="black"/>
<path d="M293.035,341.152v 4.61016" fill="none" stroke="black"/>
<path d="M311.177,341.152v 4.61016" fill="none" stroke="black"/>
<path d="M329.319,336.541v 9.22031" fill="none" stroke="black"/>
<path d="M347.461,341.152v 4.61016" fill="none" stroke="black"/>
<path d="M365.602,341.152v 4.61016" fill="none" stroke="black"/>
<path d="M383.744,341.152v 4.61016" fill="none" stroke="black"/>
<path d="M401.886,341.152v 4.61016" fill="none" stroke="black"/>
<path d="M420.028,336.541v 9.22031" fill="none" stroke="black"/>
<path d="M438.169,341.152v 4.61016" fill="none" stroke="black"/>
<path d="M456.311,341.152v 4.61016" fill="none" stroke="black"/>
<path d="M474.453,341.152v 4.61016" fill="none" stroke="black"/>
<path d="M492.594,341.152v 4.61016" fill="none" stroke="black"/>
<path d="M510.736,336.541v 9.22031" fill="none" stroke="black"/>
<text xml:space="preserve" x="53.2943" y="358.189" fill="black" font-size="12.836" font-family="Helvetica">0</text>
<text xml:space="preserve" x="136.953" y="358.189" fill="black" font-size="12.836" font-family="Helvetica">500</text>
<text xml:space="preserve" x="224.673" y="358.189" fill="black" font-size="12.836" font-family="Helvetica">1000</text>
<text xml:space="preserve" x="314.829" y="358.189" fill="black" font-size="12.836" font-family="Helvetica">1500</text>
<text xml:space="preserve" x="405.797" y="358.189" fill="black" font-size="12.836" font-family="Helvetica">2000</text>
<text xml:space="preserve" x="496.766" y="358.189" fill="black" font-size="12.836" font-family="Helvetica">2500</text>
<text xml:space="preserve" x="452.094" y="371.996" fill="black" font-size="12.836" font-family="Helvetica">ADC value</text>
<path d="M57.1929,345.762v -307.344" fill="none" stroke="black"/>
<path d="M70.7992,345.762h -13.6063" fill="none" stroke="black"/>
<path d="M63.9961,334.674h -6.80315" fill="none" stroke="black"/>
<path d="M63.9961,323.587h -6.80315" fill="none" stroke="black"/>
<path d="M63.9961,312.499h -6.80315" fill="none" stroke="black"/>
<path d="M70.7992,301.412h -13.6063" fill="none" stroke="black"/>
<path d="M63.9961,290.325h -6.80315" fill="none" stroke="black"/>
<path d="M63.9961,279.237h -6.80315" fill="none" stroke="black"/>
<path d="M63.9961,268.15h -6.80315" fill="none" stroke="black"/>
<path d="M70.7992,257.062h -13.6063" fill="none" stroke="black"/>
<path d="M63.9961,245.975h -6.80315" fill="none" stroke="black"/>
<path d="M63.9961,234.887h -6.80315" fill="none" stroke="black"/>
<path d="M63.9961,223.8h -6.80315" fill="none" stroke="black"/>
<path d="M70.7992,212.713h -13.6063" fill="none" stroke="black"/>
<path d="M63.9961,201.625h -6.80315" fill="none" stroke="black"/>
<path d="M63.9961,190.538h -6.80315" fill="none" stroke="black"/>
<path d="M63.9961,179.45h -6.80315" fill="none" stroke="black"/>
<path d="M70.7992,168.363h -13.6063" fill="none" stroke="black"/>
<path d="M63.9961,157.275h -6.80315" fill="none" stroke="black"/>
<path d="M63.9961,146.188h -6.80315" fill="none" stroke="black"/>
<path d="M63.9961,135.1h -6.80315" fill="none" stroke="black"/>
<path d="M70.7992,124.013h -13.6063" fill="none" stroke="black"/>
<path d="M63.9961,112.926h -6.80315" fill="none" stroke="black"/>
<path d="M63.9961,101.838h -6.80315" fill="none" stroke="black"/>
<path d="M63.9961,90.7507h -6.80315" fill="none" stroke="black"/>
<path d="M70.7992,79.6633h -13.6063" fill="none" stroke="black"/>
<path d="M70.7992,79.6633h -13.6063" fill="none" stroke="black"/>
<path d="M63.9961,68.5758h -6.80315" fill="none" stroke="black"/>
<path d="M63.9961,57.4884h -6.80315" fill="none" stroke="black"/>
<path d="M63.9961,46.4009h -6.80315" fill="none" stroke="black"/>
<text xml:space="preserve" x="47.6087" y="350.067" fill="black" font-size="12.836" font-family="Helvetica">0</text>
<text xml:space="preserve" x="41.111" y="306.207" fill="black" font-size="12.836" font-family="Helvetica">20</text>
<text xml:space="preserve" x="41.111" y="261.535" fill="black" font-size="12.836" font-family="Helvetica">40</text>
<text xml:space="preserve" x="41.111" y="216.863" fill="black" font-size="12.836" font-family="Helvetica">60</text>
<text xml:space="preserve" x="41.111" y="173.003" fill="black" font-size="12.836" font-family="Helvetica">80</text>
<text xml:space="preserve" x="33.801" y="128.331" fill="black" font-size="12.836" font-family="Helvetica">100</text>
<text xml:space="preserve" x="33.801" y="84.4708" fill="black" font-size="12.836" font-family="Helvetica">120</text>
<g transform="rotate(-90,20.8055,75.5364)">
<text xml:space="preserve" x="20.8055" y="75.5364" fill="black" font-size="12.836" font-family="Helvetica">Events</text>
</g>
<rect x="442.705" y="24.9717" width="113.386" height="61.4688" fill="white"/>
<path d="M442.705,86.4405h 113.386" fill="none" stroke="black"/>
<path d="M556.091,86.4405v -61.4688" fill="none" stroke="black"/>
<path d="M556.091,24.9717h -113.386" fill="none" stroke="black"/>
<path d="M442.705,24.9717v 61.4688" fill="none" stroke="black"/>
<text xml:space="preserve" x="460.216" y="36.5499" fill="black" font-size="13.4705" font-family="Helvetica">C_Na_1600V</text>
<path d="M442.705,40.3389h 113.386" fill="none" stroke="black"/>
<text xml:space="preserve" x="448.033" y="52.7943" fill="black" font-size="12.7411" font-family="Helvetica">Entries </text>
<text xml:space="preserve" x="513.01" y="52.7943" fill="black" font-size="12.7411" font-family="Helvetica"> 10000</text>
<text xml:space="preserve" x="448.033" y="68.2264" fill="black" font-size="12.7411" font-family="Helvetica">Mean  </text>
<text xml:space="preserve" x="513.01" y="68.2264" fill="black" font-size="12.7411" font-family="Helvetica">  651.6</text>
<text xml:space="preserve" x="448.033" y="82.8464" fill="black" font-size="12.7411" font-family="Helvetica">Std Dev   </text>
<text xml:space="preserve" x="513.01" y="82.8464" fill="black" font-size="12.7411" font-family="Helvetica">  429.9</text>
<text xml:space="preserve" x="230.358" y="18.681" fill="black" font-size="17.9813" font-family="Helvetica">C_Na_1600V</text></svg>
