<?xml version="1.0" standalone="no"?>
<svg width="567.429" height="384.68" viewBox="0 0 567.429 384.68" xmlns="http://www.w3.org/2000/svg" shape-rendering="crispEdges">
<title>
img/calibration/C_prop.svg
</title>
<desc>
Creator: ROOT Version 6.22/09
CreationDate: Wed Jun  9 14:29:16 2021</desc>
<defs>
</defs>
<rect x="0.5" y="0" width="566.929" height="384.18" fill="white"/>
<rect x="57.1929" y="38.418" width="453.543" height="307.344" fill="white"/>
<rect x="57.1929" y="38.418" width="453.543" height="307.344" fill="none" stroke="black"/>
<rect x="57.1929" y="38.418" width="453.543" height="307.344" fill="white"/>
<rect x="57.1929" y="38.418" width="453.543" height="307.344" fill="none" stroke="black"/>
<path d="M57.1929,345.762h 453.543" fill="none" stroke="black"/>
<path d="M57.1929,336.541v 9.22031" fill="none" stroke="black"/>
<path d="M73.3909,341.152v 4.61016" fill="none" stroke="black"/>
<path d="M89.5889,341.152v 4.61016" fill="none" stroke="black"/>
<path d="M105.787,341.152v 4.61016" fill="none" stroke="black"/>
<path d="M121.985,336.541v 9.22031" fill="none" stroke="black"/>
<path d="M138.183,341.152v 4.61016" fill="none" stroke="black"/>
<path d="M154.381,341.152v 4.61016" fill="none" stroke="black"/>
<path d="M170.579,341.152v 4.61016" fill="none" stroke="black"/>
<path d="M186.777,336.541v 9.22031" fill="none" stroke="black"/>
<path d="M202.975,341.152v 4.61016" fill="none" stroke="black"/>
<path d="M219.173,341.152v 4.61016" fill="none" stroke="black"/>
<path d="M235.371,341.152v 4.61016" fill="none" stroke="black"/>
<path d="M251.569,336.541v 9.22031" fill="none" stroke="black"/>
<path d="M267.767,341.152v 4.61016" fill="none" stroke="black"/>
<path d="M283.965,341.152v 4.61016" fill="none" stroke="black"/>
<path d="M300.163,341.152v 4.61016" fill="none" stroke="black"/>
<path d="M316.361,336.541v 9.22031" fill="none" stroke="black"/>
<path d="M332.559,341.152v 4.61016" fill="none" stroke="black"/>
<path d="M348.756,341.152v 4.61016" fill="none" stroke="black"/>
<path d="M364.954,341.152v 4.61016" fill="none" stroke="black"/>
<path d="M381.152,336.541v 9.22031" fill="none" stroke="black"/>
<path d="M397.35,341.152v 4.61016" fill="none" stroke="black"/>
<path d="M413.548,341.152v 4.61016" fill="none" stroke="black"/>
<path d="M429.746,341.152v 4.61016" fill="none" stroke="black"/>
<path d="M445.944,336.541v 9.22031" fill="none" stroke="black"/>
<path d="M462.142,341.152v 4.61016" fill="none" stroke="black"/>
<path d="M478.34,341.152v 4.61016" fill="none" stroke="black"/>
<path d="M494.538,341.152v 4.61016" fill="none" stroke="black"/>
<path d="M510.736,336.541v 9.22031" fill="none" stroke="black"/>
<text xml:space="preserve" x="53.2943" y="358.189" fill="black" font-size="12.836" font-family="Helvetica">0</text>
<text xml:space="preserve" x="110.962" y="358.189" fill="black" font-size="12.836" font-family="Helvetica">200</text>
<text xml:space="preserve" x="175.939" y="358.189" fill="black" font-size="12.836" font-family="Helvetica">400</text>
<text xml:space="preserve" x="240.917" y="358.189" fill="black" font-size="12.836" font-family="Helvetica">600</text>
<text xml:space="preserve" x="305.082" y="358.189" fill="black" font-size="12.836" font-family="Helvetica">800</text>
<text xml:space="preserve" x="366.811" y="358.189" fill="black" font-size="12.836" font-family="Helvetica">1000</text>
<text xml:space="preserve" x="431.788" y="358.189" fill="black" font-size="12.836" font-family="Helvetica">1200</text>
<text xml:space="preserve" x="496.766" y="358.189" fill="black" font-size="12.836" font-family="Helvetica">1400</text>
<text xml:space="preserve" x="531.691" y="338.695" fill="black" font-size="8.72403" font-family="Helvetica">3</text>
<text xml:space="preserve" x="518.696" y="345.193" fill="black" font-size="12.836" font-family="Helvetica">10</text>
<text xml:space="preserve" x="512.198" y="345.193" fill="black" font-size="12.836" font-family="Times">&#0215;</text>
<text xml:space="preserve" x="443.972" y="370.372" fill="black" font-size="12.836" font-family="Helvetica"> Energy [eV]</text>
<path d="M57.1929,345.762v -307.344" fill="none" stroke="black"/>
<path d="M70.7992,345.762h -13.6063" fill="none" stroke="black"/>
<path d="M63.9961,336.157h -6.80315" fill="none" stroke="black"/>
<path d="M63.9961,326.553h -6.80315" fill="none" stroke="black"/>
<path d="M63.9961,316.948h -6.80315" fill="none" stroke="black"/>
<path d="M70.7992,307.344h -13.6063" fill="none" stroke="black"/>
<path d="M63.9961,297.739h -6.80315" fill="none" stroke="black"/>
<path d="M63.9961,288.135h -6.80315" fill="none" stroke="black"/>
<path d="M63.9961,278.53h -6.80315" fill="none" stroke="black"/>
<path d="M70.7992,268.926h -13.6063" fill="none" stroke="black"/>
<path d="M63.9961,259.321h -6.80315" fill="none" stroke="black"/>
<path d="M63.9961,249.717h -6.80315" fill="none" stroke="black"/>
<path d="M63.9961,240.112h -6.80315" fill="none" stroke="black"/>
<path d="M70.7992,230.508h -13.6063" fill="none" stroke="black"/>
<path d="M63.9961,220.903h -6.80315" fill="none" stroke="black"/>
<path d="M63.9961,211.299h -6.80315" fill="none" stroke="black"/>
<path d="M63.9961,201.694h -6.80315" fill="none" stroke="black"/>
<path d="M70.7992,192.09h -13.6063" fill="none" stroke="black"/>
<path d="M63.9961,182.485h -6.80315" fill="none" stroke="black"/>
<path d="M63.9961,172.881h -6.80315" fill="none" stroke="black"/>
<path d="M63.9961,163.276h -6.80315" fill="none" stroke="black"/>
<path d="M70.7992,153.672h -13.6063" fill="none" stroke="black"/>
<path d="M63.9961,144.067h -6.80315" fill="none" stroke="black"/>
<path d="M63.9961,134.463h -6.80315" fill="none" stroke="black"/>
<path d="M63.9961,124.858h -6.80315" fill="none" stroke="black"/>
<path d="M70.7992,115.254h -13.6063" fill="none" stroke="black"/>
<path d="M63.9961,105.649h -6.80315" fill="none" stroke="black"/>
<path d="M63.9961,96.0449h -6.80315" fill="none" stroke="black"/>
<path d="M63.9961,86.4405h -6.80315" fill="none" stroke="black"/>
<path d="M70.7992,76.836h -13.6063" fill="none" stroke="black"/>
<path d="M63.9961,67.2315h -6.80315" fill="none" stroke="black"/>
<path d="M63.9961,57.627h -6.80315" fill="none" stroke="black"/>
<path d="M63.9961,48.0225h -6.80315" fill="none" stroke="black"/>
<path d="M70.7992,38.418h -13.6063" fill="none" stroke="black"/>
<text xml:space="preserve" x="47.6087" y="350.067" fill="black" font-size="12.836" font-family="Helvetica">0</text>
<text xml:space="preserve" x="33.801" y="311.892" fill="black" font-size="12.836" font-family="Helvetica">200</text>
<text xml:space="preserve" x="33.801" y="273.718" fill="black" font-size="12.836" font-family="Helvetica">400</text>
<text xml:space="preserve" x="33.801" y="234.731" fill="black" font-size="12.836" font-family="Helvetica">600</text>
<text xml:space="preserve" x="33.801" y="196.557" fill="black" font-size="12.836" font-family="Helvetica">800</text>
<text xml:space="preserve" x="27.3032" y="158.383" fill="black" font-size="12.836" font-family="Helvetica">1000</text>
<text xml:space="preserve" x="27.3032" y="119.396" fill="black" font-size="12.836" font-family="Helvetica">1200</text>
<text xml:space="preserve" x="27.3032" y="81.2219" fill="black" font-size="12.836" font-family="Helvetica">1400</text>
<text xml:space="preserve" x="27.3032" y="43.0476" fill="black" font-size="12.836" font-family="Helvetica">1600</text>
<g transform="rotate(-90,15.1199,99.903)">
<text xml:space="preserve" x="15.1199" y="99.903" fill="black" font-size="12.836" font-family="Helvetica"> ADC value</text>
</g>
<path d="M222.736,226.384v -0.0956502" fill="none" stroke="black"/>
<path d="M221.112,226.288h 3.24888" fill="none" stroke="black"/>
<path d="M222.736,226.384v 0.0956502" fill="none" stroke="black"/>
<path d="M221.112,226.479h 3.24888" fill="none" stroke="black"/>
<path d="M470.241,54.5709v -0.447386" fill="none" stroke="black"/>
<path d="M468.617,54.1235h 3.24888" fill="none" stroke="black"/>
<path d="M470.241,54.5709v 0.447386" fill="none" stroke="black"/>
<path d="M468.617,55.0183h 3.24888" fill="none" stroke="black"/>
<path d="M425.535,85.5676v -0.405072" fill="none" stroke="black"/>
<path d="M423.91,85.1626h 3.24888" fill="none" stroke="black"/>
<path d="M425.535,85.5676v 0.405072" fill="none" stroke="black"/>
<path d="M423.91,85.9727h 3.24888" fill="none" stroke="black"/>
<path d="M489.031,47.3964v -0.353801" fill="none" stroke="black"/>
<path d="M487.406,47.0426h 3.24888" fill="none" stroke="black"/>
<path d="M489.031,47.3964v 0.353801" fill="none" stroke="black"/>
<path d="M487.406,47.7502h 3.24888" fill="none" stroke="black"/>
<path d="M271.33,195.215v -0.0919587" fill="none" stroke="black"/>
<path d="M269.706,195.123h 3.24888" fill="none" stroke="black"/>
<path d="M271.33,195.215v 0.0919587" fill="none" stroke="black"/>
<path d="M269.706,195.307h 3.24888" fill="none" stroke="black"/>
<g stroke="black" stroke-width="1" fill="none">
<line x1="221.736" y1="226.384" x2="222.736" y2="226.384"/>
<line x1="469.241" y1="54.5709" x2="470.241" y2="54.5709"/>
<line x1="424.535" y1="85.5676" x2="425.535" y2="85.5676"/>
<line x1="488.031" y1="47.3964" x2="489.031" y2="47.3964"/>
<line x1="270.33" y1="195.215" x2="271.33" y2="195.215"/>
</g>
<path d="M59.4606,338.496l 4.53543, -3.08988l 4.53543, -3.08988l 4.53543, -3.08988l 4.53543, -3.08988l 4.53543, -3.08988l 4.53543, -3.08988l 4.53543, -3.08988l 4.53543, -3.08988l 4.53543, -3.08988l 4.53543, -3.08988l 4.53543, -3.08988l 4.53543,
 -3.08988l 4.53543, -3.08988l 4.53543, -3.08988l 4.53543, -3.08988l 4.53543, -3.08988l 4.53543, -3.08988l 4.53543, -3.08988l 4.53543, -3.08988l 4.53543, -3.08988l 4.53543, -3.08988l 4.53543, -3.08988l 4.53543, -3.08988l 4.53543, -3.08988l 4.53543,
 -3.08988l 4.53543, -3.08988l 4.53543, -3.08988l 4.53543, -3.08988l 4.53543, -3.08988l 4.53543, -3.08988l 4.53543, -3.08988l 4.53543, -3.08988l 4.53543, -3.08988l 4.53543, -3.08988l 4.53543, -3.08988l 4.53543, -3.08988l 4.53543, -3.08988l 4.53543,
 -3.08988l 4.53543, -3.08988l 4.53543, -3.08988l 4.53543, -3.08988l 4.53543, -3.08988l 4.53543, -3.08988l 4.53543, -3.08988l 4.53543, -3.08988l 4.53543, -3.08988l 4.53543, -3.08988l 4.53543, -3.08988l 4.53543, -3.08988" fill="none" stroke="#ff0000"
 stroke-width="2"/>
<path d="M281.697,187.092l 4.53543, -3.08988l 4.53543, -3.08988l 4.53543, -3.08988l 4.53543, -3.08988l 4.53543, -3.08988l 4.53543, -3.08988l 4.53543, -3.08988l 4.53543, -3.08988l 4.53543, -3.08988l 4.53543, -3.08988l 4.53543, -3.08988l 4.53543,
 -3.08988l 4.53543, -3.08988l 4.53543, -3.08988l 4.53543, -3.08988l 4.53543, -3.08988l 4.53543, -3.08988l 4.53543, -3.08988l 4.53543, -3.08988l 4.53543, -3.08988l 4.53543, -3.08988l 4.53543, -3.08988l 4.53543, -3.08988l 4.53543, -3.08988l 4.53543,
 -3.08988l 4.53543, -3.08988l 4.53543, -3.08988l 4.53543, -3.08988l 4.53543, -3.08988l 4.53543, -3.08988l 4.53543, -3.08988l 4.53543, -3.08988l 4.53543, -3.08988l 4.53543, -3.08988l 4.53543, -3.08988l 4.53543, -3.08988l 4.53543, -3.08988l 4.53543,
 -3.08988l 4.53543, -3.08988l 4.53543, -3.08988l 4.53543, -3.08988l 4.53543, -3.08988l 4.53543, -3.08988l 4.53543, -3.08988l 4.53543, -3.08988l 4.53543, -3.08988l 4.53543, -3.08988l 4.53543, -3.08988l 0.529003, -0.360397" fill="none" stroke="#ff0000"
 stroke-width="2"/>
<text xml:space="preserve" x="220.611" y="18.681" fill="black" font-size="16.9774" font-family="Helvetica">keV - ADC value</text></svg>
