<?xml version="1.0" standalone="no"?>
<svg width="567.429" height="386.304" viewBox="0 0 567.429 386.304" xmlns="http://www.w3.org/2000/svg" shape-rendering="crispEdges">
<title>
img/calibration/C_prop.svg
</title>
<desc>
Creator: ROOT Version 6.22/08
CreationDate: Wed Jun  9 20:46:59 2021</desc>
<defs>
</defs>
<rect x="0.5" y="0" width="566.929" height="385.804" fill="white"/>
<rect x="57.1929" y="38.5804" width="453.543" height="308.643" fill="white"/>
<rect x="57.1929" y="38.5804" width="453.543" height="308.643" fill="none" stroke="black"/>
<rect x="57.1929" y="38.5804" width="453.543" height="308.643" fill="white"/>
<rect x="57.1929" y="38.5804" width="453.543" height="308.643" fill="none" stroke="black"/>
<path d="M57.1929,347.224h 453.543" fill="none" stroke="black"/>
<path d="M57.1929,337.964v 9.2593" fill="none" stroke="black"/>
<path d="M73.3909,342.594v 4.62965" fill="none" stroke="black"/>
<path d="M89.5889,342.594v 4.62965" fill="none" stroke="black"/>
<path d="M105.787,342.594v 4.62965" fill="none" stroke="black"/>
<path d="M121.985,337.964v 9.2593" fill="none" stroke="black"/>
<path d="M138.183,342.594v 4.62965" fill="none" stroke="black"/>
<path d="M154.381,342.594v 4.62965" fill="none" stroke="black"/>
<path d="M170.579,342.594v 4.62965" fill="none" stroke="black"/>
<path d="M186.777,337.964v 9.2593" fill="none" stroke="black"/>
<path d="M202.975,342.594v 4.62965" fill="none" stroke="black"/>
<path d="M219.173,342.594v 4.62965" fill="none" stroke="black"/>
<path d="M235.371,342.594v 4.62965" fill="none" stroke="black"/>
<path d="M251.569,337.964v 9.2593" fill="none" stroke="black"/>
<path d="M267.767,342.594v 4.62965" fill="none" stroke="black"/>
<path d="M283.965,342.594v 4.62965" fill="none" stroke="black"/>
<path d="M300.163,342.594v 4.62965" fill="none" stroke="black"/>
<path d="M316.361,337.964v 9.2593" fill="none" stroke="black"/>
<path d="M332.559,342.594v 4.62965" fill="none" stroke="black"/>
<path d="M348.756,342.594v 4.62965" fill="none" stroke="black"/>
<path d="M364.954,342.594v 4.62965" fill="none" stroke="black"/>
<path d="M381.152,337.964v 9.2593" fill="none" stroke="black"/>
<path d="M397.35,342.594v 4.62965" fill="none" stroke="black"/>
<path d="M413.548,342.594v 4.62965" fill="none" stroke="black"/>
<path d="M429.746,342.594v 4.62965" fill="none" stroke="black"/>
<path d="M445.944,337.964v 9.2593" fill="none" stroke="black"/>
<path d="M462.142,342.594v 4.62965" fill="none" stroke="black"/>
<path d="M478.34,342.594v 4.62965" fill="none" stroke="black"/>
<path d="M494.538,342.594v 4.62965" fill="none" stroke="black"/>
<path d="M510.736,337.964v 9.2593" fill="none" stroke="black"/>
<text xml:space="preserve" x="52.482" y="359.813" fill="black" font-size="12.8882" font-family="Helvetica">0</text>
<text xml:space="preserve" x="110.15" y="359.813" fill="black" font-size="12.8882" font-family="Helvetica">200</text>
<text xml:space="preserve" x="175.127" y="359.813" fill="black" font-size="12.8882" font-family="Helvetica">400</text>
<text xml:space="preserve" x="240.105" y="359.813" fill="black" font-size="12.8882" font-family="Helvetica">600</text>
<text xml:space="preserve" x="304.27" y="359.813" fill="black" font-size="12.8882" font-family="Helvetica">800</text>
<text xml:space="preserve" x="365.999" y="359.813" fill="black" font-size="12.8882" font-family="Helvetica">1000</text>
<text xml:space="preserve" x="430.976" y="359.813" fill="black" font-size="12.8882" font-family="Helvetica">1200</text>
<text xml:space="preserve" x="495.954" y="359.813" fill="black" font-size="12.8882" font-family="Helvetica">1400</text>
<text xml:space="preserve" x="534.128" y="339.508" fill="black" font-size="8.75881" font-family="Helvetica">3</text>
<text xml:space="preserve" x="519.508" y="346.818" fill="black" font-size="12.8882" font-family="Helvetica">10</text>
<text xml:space="preserve" x="512.198" y="346.818" fill="black" font-size="12.8882" font-family="Times">&#0215;</text>
<text xml:space="preserve" x="439.098" y="372.809" fill="black" font-size="12.8882" font-family="Helvetica"> Energy [eV]</text>
<path d="M57.1929,347.224v -308.643" fill="none" stroke="black"/>
<path d="M70.7992,347.224h -13.6063" fill="none" stroke="black"/>
<path d="M63.9961,337.579h -6.80315" fill="none" stroke="black"/>
<path d="M63.9961,327.934h -6.80315" fill="none" stroke="black"/>
<path d="M63.9961,318.288h -6.80315" fill="none" stroke="black"/>
<path d="M70.7992,308.643h -13.6063" fill="none" stroke="black"/>
<path d="M63.9961,298.998h -6.80315" fill="none" stroke="black"/>
<path d="M63.9961,289.353h -6.80315" fill="none" stroke="black"/>
<path d="M63.9961,279.708h -6.80315" fill="none" stroke="black"/>
<path d="M70.7992,270.063h -13.6063" fill="none" stroke="black"/>
<path d="M63.9961,260.418h -6.80315" fill="none" stroke="black"/>
<path d="M63.9961,250.773h -6.80315" fill="none" stroke="black"/>
<path d="M63.9961,241.128h -6.80315" fill="none" stroke="black"/>
<path d="M70.7992,231.483h -13.6063" fill="none" stroke="black"/>
<path d="M63.9961,221.837h -6.80315" fill="none" stroke="black"/>
<path d="M63.9961,212.192h -6.80315" fill="none" stroke="black"/>
<path d="M63.9961,202.547h -6.80315" fill="none" stroke="black"/>
<path d="M70.7992,192.902h -13.6063" fill="none" stroke="black"/>
<path d="M63.9961,183.257h -6.80315" fill="none" stroke="black"/>
<path d="M63.9961,173.612h -6.80315" fill="none" stroke="black"/>
<path d="M63.9961,163.967h -6.80315" fill="none" stroke="black"/>
<path d="M70.7992,154.322h -13.6063" fill="none" stroke="black"/>
<path d="M63.9961,144.677h -6.80315" fill="none" stroke="black"/>
<path d="M63.9961,135.031h -6.80315" fill="none" stroke="black"/>
<path d="M63.9961,125.386h -6.80315" fill="none" stroke="black"/>
<path d="M70.7992,115.741h -13.6063" fill="none" stroke="black"/>
<path d="M63.9961,106.096h -6.80315" fill="none" stroke="black"/>
<path d="M63.9961,96.4511h -6.80315" fill="none" stroke="black"/>
<path d="M63.9961,86.8059h -6.80315" fill="none" stroke="black"/>
<path d="M70.7992,77.1608h -13.6063" fill="none" stroke="black"/>
<path d="M63.9961,67.5157h -6.80315" fill="none" stroke="black"/>
<path d="M63.9961,57.8706h -6.80315" fill="none" stroke="black"/>
<path d="M63.9961,48.2255h -6.80315" fill="none" stroke="black"/>
<path d="M70.7992,38.5804h -13.6063" fill="none" stroke="black"/>
<text xml:space="preserve" x="46.7965" y="351.691" fill="black" font-size="12.8882" font-family="Helvetica">0</text>
<text xml:space="preserve" x="32.1766" y="313.517" fill="black" font-size="12.8882" font-family="Helvetica">200</text>
<text xml:space="preserve" x="32.1766" y="274.53" fill="black" font-size="12.8882" font-family="Helvetica">400</text>
<text xml:space="preserve" x="32.1766" y="236.356" fill="black" font-size="12.8882" font-family="Helvetica">600</text>
<text xml:space="preserve" x="32.1766" y="197.369" fill="black" font-size="12.8882" font-family="Helvetica">800</text>
<text xml:space="preserve" x="25.6788" y="159.195" fill="black" font-size="12.8882" font-family="Helvetica">1000</text>
<text xml:space="preserve" x="25.6788" y="120.208" fill="black" font-size="12.8882" font-family="Helvetica">1200</text>
<text xml:space="preserve" x="25.6788" y="82.0342" fill="black" font-size="12.8882" font-family="Helvetica">1400</text>
<text xml:space="preserve" x="25.6788" y="43.0476" fill="black" font-size="12.8882" font-family="Helvetica">1600</text>
<g transform="rotate(-90,15.1199,103.964)">
<text xml:space="preserve" x="15.1199" y="103.964" fill="black" font-size="12.8882" font-family="Helvetica"> ADC value</text>
</g>
<path d="M222.736,227.341v -0.0960546" fill="none" stroke="black"/>
<path d="M221.112,227.245h 3.24888" fill="none" stroke="black"/>
<path d="M222.736,227.341v 0.0960546" fill="none" stroke="black"/>
<path d="M221.112,227.437h 3.24888" fill="none" stroke="black"/>
<path d="M470.241,54.8016v -0.449278" fill="none" stroke="black"/>
<path d="M468.617,54.3523h 3.24888" fill="none" stroke="black"/>
<path d="M470.241,54.8016v 0.449278" fill="none" stroke="black"/>
<path d="M468.617,55.2509h 3.24888" fill="none" stroke="black"/>
<path d="M425.535,85.9295v -0.406785" fill="none" stroke="black"/>
<path d="M423.91,85.5227h 3.24888" fill="none" stroke="black"/>
<path d="M425.535,85.9295v 0.406785" fill="none" stroke="black"/>
<path d="M423.91,86.3362h 3.24888" fill="none" stroke="black"/>
<path d="M489.031,47.5968v -0.355297" fill="none" stroke="black"/>
<path d="M487.406,47.2415h 3.24888" fill="none" stroke="black"/>
<path d="M489.031,47.5968v 0.355297" fill="none" stroke="black"/>
<path d="M487.406,47.9521h 3.24888" fill="none" stroke="black"/>
<path d="M271.33,196.04v -0.0923476" fill="none" stroke="black"/>
<path d="M269.706,195.948h 3.24888" fill="none" stroke="black"/>
<path d="M271.33,196.04v 0.0923476" fill="none" stroke="black"/>
<path d="M269.706,196.133h 3.24888" fill="none" stroke="black"/>
<g stroke="black" stroke-width="1" fill="none">
<line x1="221.736" y1="227.341" x2="222.736" y2="227.341"/>
<line x1="469.241" y1="54.8016" x2="470.241" y2="54.8016"/>
<line x1="424.535" y1="85.9295" x2="425.535" y2="85.9295"/>
<line x1="488.031" y1="47.5968" x2="489.031" y2="47.5968"/>
<line x1="270.33" y1="196.04" x2="271.33" y2="196.04"/>
</g>
<path d="M59.4606,339.928l 4.53543, -3.10294l 4.53543, -3.10294l 4.53543, -3.10294l 4.53543, -3.10294l 4.53543, -3.10294l 4.53543, -3.10294l 4.53543, -3.10294l 4.53543, -3.10294l 4.53543, -3.10294l 4.53543, -3.10294l 4.53543, -3.10294l 4.53543,
 -3.10294l 4.53543, -3.10294l 4.53543, -3.10294l 4.53543, -3.10294l 4.53543, -3.10294l 4.53543, -3.10294l 4.53543, -3.10294l 4.53543, -3.10294l 4.53543, -3.10294l 4.53543, -3.10294l 4.53543, -3.10294l 4.53543, -3.10294l 4.53543, -3.10294l 4.53543,
 -3.10294l 4.53543, -3.10294l 4.53543, -3.10294l 4.53543, -3.10294l 4.53543, -3.10294l 4.53543, -3.10294l 4.53543, -3.10294l 4.53543, -3.10294l 4.53543, -3.10294l 4.53543, -3.10294l 4.53543, -3.10294l 4.53543, -3.10294l 4.53543, -3.10294l 4.53543,
 -3.10294l 4.53543, -3.10294l 4.53543, -3.10294l 4.53543, -3.10294l 4.53543, -3.10294l 4.53543, -3.10294l 4.53543, -3.10294l 4.53543, -3.10294l 4.53543, -3.10294l 4.53543, -3.10294l 4.53543, -3.10294l 4.53543, -3.10294" fill="none" stroke="#ff0000"
 stroke-width="2"/>
<path d="M281.697,187.884l 4.53543, -3.10294l 4.53543, -3.10294l 4.53543, -3.10294l 4.53543, -3.10294l 4.53543, -3.10294l 4.53543, -3.10294l 4.53543, -3.10294l 4.53543, -3.10294l 4.53543, -3.10294l 4.53543, -3.10294l 4.53543, -3.10294l 4.53543,
 -3.10294l 4.53543, -3.10294l 4.53543, -3.10294l 4.53543, -3.10294l 4.53543, -3.10294l 4.53543, -3.10294l 4.53543, -3.10294l 4.53543, -3.10294l 4.53543, -3.10294l 4.53543, -3.10294l 4.53543, -3.10294l 4.53543, -3.10294l 4.53543, -3.10294l 4.53543,
 -3.10294l 4.53543, -3.10294l 4.53543, -3.10294l 4.53543, -3.10294l 4.53543, -3.10294l 4.53543, -3.10294l 4.53543, -3.10294l 4.53543, -3.10294l 4.53543, -3.10294l 4.53543, -3.10294l 4.53543, -3.10294l 4.53543, -3.10294l 4.53543, -3.10294l 4.53543,
 -3.10294l 4.53543, -3.10294l 4.53543, -3.10294l 4.53543, -3.10294l 4.53543, -3.10294l 4.53543, -3.10294l 4.53543, -3.10294l 4.53543, -3.10294l 4.53543, -3.10294l 4.53543, -3.10294l 4.53543, -3.10294l 0.529003, -0.361921" fill="none" stroke="#ff0000"
 stroke-width="2"/>
<text xml:space="preserve" x="220.611" y="18.681" fill="black" font-size="17.0471" font-family="Helvetica">keV - ADC value</text></svg>
