<?xml version="1.0" standalone="no"?>
<svg width="567.429" height="384.969" viewBox="0 0 567.429 384.969" xmlns="http://www.w3.org/2000/svg" shape-rendering="crispEdges">
<title>
img/calibration/C_prop.svg
</title>
<desc>
Creator: ROOT Version 6.22/09
CreationDate: Wed Jun  9 15:25:04 2021</desc>
<defs>
</defs>
<rect x="0.5" y="0" width="566.929" height="384.469" fill="white"/>
<rect x="57.1929" y="38.4469" width="453.543" height="307.575" fill="white"/>
<rect x="57.1929" y="38.4469" width="453.543" height="307.575" fill="none" stroke="black"/>
<rect x="57.1929" y="38.4469" width="453.543" height="307.575" fill="white"/>
<rect x="57.1929" y="38.4469" width="453.543" height="307.575" fill="none" stroke="black"/>
<path d="M57.1929,346.022h 453.543" fill="none" stroke="black"/>
<path d="M57.1929,336.795v 9.22726" fill="none" stroke="black"/>
<path d="M73.3909,341.409v 4.61363" fill="none" stroke="black"/>
<path d="M89.5889,341.409v 4.61363" fill="none" stroke="black"/>
<path d="M105.787,341.409v 4.61363" fill="none" stroke="black"/>
<path d="M121.985,336.795v 9.22726" fill="none" stroke="black"/>
<path d="M138.183,341.409v 4.61363" fill="none" stroke="black"/>
<path d="M154.381,341.409v 4.61363" fill="none" stroke="black"/>
<path d="M170.579,341.409v 4.61363" fill="none" stroke="black"/>
<path d="M186.777,336.795v 9.22726" fill="none" stroke="black"/>
<path d="M202.975,341.409v 4.61363" fill="none" stroke="black"/>
<path d="M219.173,341.409v 4.61363" fill="none" stroke="black"/>
<path d="M235.371,341.409v 4.61363" fill="none" stroke="black"/>
<path d="M251.569,336.795v 9.22726" fill="none" stroke="black"/>
<path d="M267.767,341.409v 4.61363" fill="none" stroke="black"/>
<path d="M283.965,341.409v 4.61363" fill="none" stroke="black"/>
<path d="M300.163,341.409v 4.61363" fill="none" stroke="black"/>
<path d="M316.361,336.795v 9.22726" fill="none" stroke="black"/>
<path d="M332.559,341.409v 4.61363" fill="none" stroke="black"/>
<path d="M348.756,341.409v 4.61363" fill="none" stroke="black"/>
<path d="M364.954,341.409v 4.61363" fill="none" stroke="black"/>
<path d="M381.152,336.795v 9.22726" fill="none" stroke="black"/>
<path d="M397.35,341.409v 4.61363" fill="none" stroke="black"/>
<path d="M413.548,341.409v 4.61363" fill="none" stroke="black"/>
<path d="M429.746,341.409v 4.61363" fill="none" stroke="black"/>
<path d="M445.944,336.795v 9.22726" fill="none" stroke="black"/>
<path d="M462.142,341.409v 4.61363" fill="none" stroke="black"/>
<path d="M478.34,341.409v 4.61363" fill="none" stroke="black"/>
<path d="M494.538,341.409v 4.61363" fill="none" stroke="black"/>
<path d="M510.736,336.795v 9.22726" fill="none" stroke="black"/>
<text xml:space="preserve" x="53.446" y="358.403" fill="black" font-size="12.8453" font-family="Helvetica">0</text>
<text xml:space="preserve" x="111.279" y="358.403" fill="black" font-size="12.8453" font-family="Helvetica">200</text>
<text xml:space="preserve" x="175.629" y="358.403" fill="black" font-size="12.8453" font-family="Helvetica">400</text>
<text xml:space="preserve" x="240.793" y="358.403" fill="black" font-size="12.8453" font-family="Helvetica">600</text>
<text xml:space="preserve" x="305.143" y="358.403" fill="black" font-size="12.8453" font-family="Helvetica">800</text>
<text xml:space="preserve" x="367.049" y="358.403" fill="black" font-size="12.8453" font-family="Helvetica">1000</text>
<text xml:space="preserve" x="431.399" y="358.403" fill="black" font-size="12.8453" font-family="Helvetica">1200</text>
<text xml:space="preserve" x="496.563" y="358.403" fill="black" font-size="12.8453" font-family="Helvetica">1400</text>
<text xml:space="preserve" x="531.589" y="338.854" fill="black" font-size="8.73023" font-family="Helvetica">3</text>
<text xml:space="preserve" x="518.556" y="345.371" fill="black" font-size="12.8453" font-family="Helvetica">10</text>
<text xml:space="preserve" x="512.039" y="345.371" fill="black" font-size="12.8453" font-family="Times">&#0215;</text>
<text xml:space="preserve" x="443.617" y="370.622" fill="black" font-size="12.8453" font-family="Helvetica"> Energy [eV]</text>
<path d="M57.1929,346.022v -307.575" fill="none" stroke="black"/>
<path d="M70.7992,346.022h -13.6063" fill="none" stroke="black"/>
<path d="M63.9961,336.411h -6.80315" fill="none" stroke="black"/>
<path d="M63.9961,326.799h -6.80315" fill="none" stroke="black"/>
<path d="M63.9961,317.187h -6.80315" fill="none" stroke="black"/>
<path d="M70.7992,307.575h -13.6063" fill="none" stroke="black"/>
<path d="M63.9961,297.964h -6.80315" fill="none" stroke="black"/>
<path d="M63.9961,288.352h -6.80315" fill="none" stroke="black"/>
<path d="M63.9961,278.74h -6.80315" fill="none" stroke="black"/>
<path d="M70.7992,269.128h -13.6063" fill="none" stroke="black"/>
<path d="M63.9961,259.517h -6.80315" fill="none" stroke="black"/>
<path d="M63.9961,249.905h -6.80315" fill="none" stroke="black"/>
<path d="M63.9961,240.293h -6.80315" fill="none" stroke="black"/>
<path d="M70.7992,230.682h -13.6063" fill="none" stroke="black"/>
<path d="M63.9961,221.07h -6.80315" fill="none" stroke="black"/>
<path d="M63.9961,211.458h -6.80315" fill="none" stroke="black"/>
<path d="M63.9961,201.846h -6.80315" fill="none" stroke="black"/>
<path d="M70.7992,192.235h -13.6063" fill="none" stroke="black"/>
<path d="M63.9961,182.623h -6.80315" fill="none" stroke="black"/>
<path d="M63.9961,173.011h -6.80315" fill="none" stroke="black"/>
<path d="M63.9961,163.399h -6.80315" fill="none" stroke="black"/>
<path d="M70.7992,153.788h -13.6063" fill="none" stroke="black"/>
<path d="M63.9961,144.176h -6.80315" fill="none" stroke="black"/>
<path d="M63.9961,134.564h -6.80315" fill="none" stroke="black"/>
<path d="M63.9961,124.952h -6.80315" fill="none" stroke="black"/>
<path d="M70.7992,115.341h -13.6063" fill="none" stroke="black"/>
<path d="M63.9961,105.729h -6.80315" fill="none" stroke="black"/>
<path d="M63.9961,96.1173h -6.80315" fill="none" stroke="black"/>
<path d="M63.9961,86.5056h -6.80315" fill="none" stroke="black"/>
<path d="M70.7992,76.8938h -13.6063" fill="none" stroke="black"/>
<path d="M63.9961,67.2821h -6.80315" fill="none" stroke="black"/>
<path d="M63.9961,57.6704h -6.80315" fill="none" stroke="black"/>
<path d="M63.9961,48.0586h -6.80315" fill="none" stroke="black"/>
<path d="M70.7992,38.4469h -13.6063" fill="none" stroke="black"/>
<text xml:space="preserve" x="47.7441" y="350.258" fill="black" font-size="12.8453" font-family="Helvetica">0</text>
<text xml:space="preserve" x="33.8967" y="311.974" fill="black" font-size="12.8453" font-family="Helvetica">200</text>
<text xml:space="preserve" x="33.8967" y="273.69" fill="black" font-size="12.8453" font-family="Helvetica">400</text>
<text xml:space="preserve" x="33.8967" y="235.406" fill="black" font-size="12.8453" font-family="Helvetica">600</text>
<text xml:space="preserve" x="33.8967" y="197.122" fill="black" font-size="12.8453" font-family="Helvetica">800</text>
<text xml:space="preserve" x="27.3803" y="158.023" fill="black" font-size="12.8453" font-family="Helvetica">1000</text>
<text xml:space="preserve" x="27.3803" y="119.739" fill="black" font-size="12.8453" font-family="Helvetica">1200</text>
<text xml:space="preserve" x="27.3803" y="81.4553" fill="black" font-size="12.8453" font-family="Helvetica">1400</text>
<text xml:space="preserve" x="27.3803" y="43.1713" fill="black" font-size="12.8453" font-family="Helvetica">1600</text>
<g transform="rotate(-90,15.162,100.19)">
<text xml:space="preserve" x="15.162" y="100.19" fill="black" font-size="12.8453" font-family="Helvetica"> ADC value</text>
</g>
<path d="M222.736,226.554v -0.0957222" fill="none" stroke="black"/>
<path d="M221.107,226.458h 3.25821" fill="none" stroke="black"/>
<path d="M222.736,226.554v 0.0957222" fill="none" stroke="black"/>
<path d="M221.107,226.65h 3.25821" fill="none" stroke="black"/>
<path d="M470.241,54.612v -0.447723" fill="none" stroke="black"/>
<path d="M468.612,54.1643h 3.25821" fill="none" stroke="black"/>
<path d="M470.241,54.612v 0.447723" fill="none" stroke="black"/>
<path d="M468.612,55.0597h 3.25821" fill="none" stroke="black"/>
<path d="M425.535,85.6321v -0.405377" fill="none" stroke="black"/>
<path d="M423.906,85.2267h 3.25821" fill="none" stroke="black"/>
<path d="M425.535,85.6321v 0.405377" fill="none" stroke="black"/>
<path d="M423.906,86.0375h 3.25821" fill="none" stroke="black"/>
<path d="M489.031,47.4321v -0.354068" fill="none" stroke="black"/>
<path d="M487.402,47.078h 3.25821" fill="none" stroke="black"/>
<path d="M489.031,47.4321v 0.354068" fill="none" stroke="black"/>
<path d="M487.402,47.7862h 3.25821" fill="none" stroke="black"/>
<path d="M271.33,195.362v -0.092028" fill="none" stroke="black"/>
<path d="M269.701,195.27h 3.25821" fill="none" stroke="black"/>
<path d="M271.33,195.362v 0.092028" fill="none" stroke="black"/>
<path d="M269.701,195.454h 3.25821" fill="none" stroke="black"/>
<g stroke="black" stroke-width="1" fill="none">
<line x1="221.736" y1="226.554" x2="222.736" y2="226.554"/>
<line x1="469.241" y1="54.612" x2="470.241" y2="54.612"/>
<line x1="424.535" y1="85.6321" x2="425.535" y2="85.6321"/>
<line x1="488.031" y1="47.4321" x2="489.031" y2="47.4321"/>
<line x1="270.33" y1="195.362" x2="271.33" y2="195.362"/>
</g>
<path d="M59.4606,338.751l 4.53543, -3.0922l 4.53543, -3.0922l 4.53543, -3.0922l 4.53543, -3.0922l 4.53543, -3.0922l 4.53543, -3.0922l 4.53543, -3.0922l 4.53543, -3.0922l 4.53543, -3.0922l 4.53543, -3.0922l 4.53543, -3.0922l 4.53543, -3.0922l
 4.53543, -3.0922l 4.53543, -3.0922l 4.53543, -3.0922l 4.53543, -3.0922l 4.53543, -3.0922l 4.53543, -3.0922l 4.53543, -3.0922l 4.53543, -3.0922l 4.53543, -3.0922l 4.53543, -3.0922l 4.53543, -3.0922l 4.53543, -3.0922l 4.53543, -3.0922l 4.53543,
 -3.0922l 4.53543, -3.0922l 4.53543, -3.0922l 4.53543, -3.0922l 4.53543, -3.0922l 4.53543, -3.0922l 4.53543, -3.0922l 4.53543, -3.0922l 4.53543, -3.0922l 4.53543, -3.0922l 4.53543, -3.0922l 4.53543, -3.0922l 4.53543, -3.0922l 4.53543, -3.0922l
 4.53543, -3.0922l 4.53543, -3.0922l 4.53543, -3.0922l 4.53543, -3.0922l 4.53543, -3.0922l 4.53543, -3.0922l 4.53543, -3.0922l 4.53543, -3.0922l 4.53543, -3.0922l 4.53543, -3.0922" fill="none" stroke="#ff0000" stroke-width="2"/>
<path d="M281.697,187.233l 4.53543, -3.0922l 4.53543, -3.0922l 4.53543, -3.0922l 4.53543, -3.0922l 4.53543, -3.0922l 4.53543, -3.0922l 4.53543, -3.0922l 4.53543, -3.0922l 4.53543, -3.0922l 4.53543, -3.0922l 4.53543, -3.0922l 4.53543, -3.0922l
 4.53543, -3.0922l 4.53543, -3.0922l 4.53543, -3.0922l 4.53543, -3.0922l 4.53543, -3.0922l 4.53543, -3.0922l 4.53543, -3.0922l 4.53543, -3.0922l 4.53543, -3.0922l 4.53543, -3.0922l 4.53543, -3.0922l 4.53543, -3.0922l 4.53543, -3.0922l 4.53543,
 -3.0922l 4.53543, -3.0922l 4.53543, -3.0922l 4.53543, -3.0922l 4.53543, -3.0922l 4.53543, -3.0922l 4.53543, -3.0922l 4.53543, -3.0922l 4.53543, -3.0922l 4.53543, -3.0922l 4.53543, -3.0922l 4.53543, -3.0922l 4.53543, -3.0922l 4.53543, -3.0922l
 4.53543, -3.0922l 4.53543, -3.0922l 4.53543, -3.0922l 4.53543, -3.0922l 4.53543, -3.0922l 4.53543, -3.0922l 4.53543, -3.0922l 4.53543, -3.0922l 4.53543, -3.0922l 0.529003, -0.360668" fill="none" stroke="#ff0000" stroke-width="2"/>
<text xml:space="preserve" x="220.429" y="18.7347" fill="black" font-size="16.9898" font-family="Helvetica">keV - ADC value</text></svg>
