<?xml version="1.0" standalone="no"?>
<svg width="567.429" height="384.68" viewBox="0 0 567.429 384.68" xmlns="http://www.w3.org/2000/svg" shape-rendering="crispEdges">
<title>
img/calibration/Co_run1+2 right area4.svg
</title>
<desc>
Creator: ROOT Version 6.22/09
CreationDate: Wed Jun  9 00:53:36 2021</desc>
<defs>
</defs>
<rect x="0.5" y="0" width="566.929" height="384.18" fill="white"/>
<rect x="57.1929" y="38.418" width="453.543" height="307.344" fill="white"/>
<rect x="57.1929" y="38.418" width="453.543" height="307.344" fill="none" stroke="black"/>
<rect x="57.1929" y="38.418" width="453.543" height="307.344" fill="white"/>
<rect x="57.1929" y="38.418" width="453.543" height="307.344" fill="none" stroke="black"/>
<path d="M57.1929,345.762h 1.81417v -8.3631h 1.81417v 8.3631h 0.907087v -16.7262h 0.907087v 8.3631h 0.907087v 8.3631h 0.907087v -8.3631h 0.907087v -50.1786h 0.907087v 8.3631h 0.907087v -8.3631h 0.907087v 16.7262h 0.907087v -16.7262h 0.907087v
 -25.0893h 0.907087v -58.5417h 0.907087v 91.9941h 0.907087v -75.2679h 0.907087v -33.4524h 0.907087v -100.357h 0.907087v -8.3631h 0.907087v 108.72h 0.907087v -83.631h 0.907087v 33.4524h 0.907087v -33.4524h 0.907087v -16.7262h 0.907087v -16.7262h
 0.907087v 66.9048h 0.907087v -16.7262h 0.907087v -66.9048h 0.907087v 75.2679h 0.907087v -25.0893h 0.907087v 25.0893h 0.907087v -16.7262h 1.81417v -16.7262h 0.907087v 8.3631h 0.907087v 41.8155h 0.907087v 33.4524h 0.907087v -33.4524h 0.907087v
 41.8155h 0.907087v -117.083h 0.907087v 66.9048h 0.907087v 41.8155h 0.907087v -58.5417h 0.907087v 41.8155h 0.907087v -75.2679h 0.907087v 50.1786h 0.907087v 25.0893h 0.907087v 66.9048h 0.907087v -50.1786h 0.907087v -33.4524h 0.907087v 16.7262h
 0.907087v 25.0893h 0.907087v -50.1786h 0.907087v 25.0893h 0.907087v 50.1786h 0.907087v -83.631h 0.907087v 75.2679h 0.907087v 8.3631h 0.907087v 50.1786h 0.907087v -16.7262h 0.907087v -117.083h 0.907087v 117.083h 0.907087v 8.3631h 0.907087v -25.0893h
 0.907087v -8.3631h 0.907087v -33.4524h 0.907087v 66.9048h 0.907087v -83.631h 0.907087v 91.9941h 1.81417v -25.0893h 0.907087v -25.0893h 0.907087v 8.3631h 0.907087v 83.631h 0.907087v -66.9048h 0.907087v 33.4524h 0.907087v -108.72h 0.907087v 58.5417h
 0.907087v -8.3631h 0.907087v 25.0893h 0.907087v -8.3631h 0.907087v 8.3631h 0.907087v -25.0893h 0.907087v 75.2679h 1.81417v -41.8155h 1.81417v 16.7262h 0.907087v 25.0893h 0.907087v -25.0893h 0.907087v -8.3631h 0.907087v -50.1786h 0.907087v 58.5417h
 0.907087v -33.4524h 0.907087v 16.7262h 0.907087v 33.4524h 0.907087v -41.8155h 0.907087v 66.9048h 0.907087v -50.1786h 0.907087v 8.3631h 0.907087v -33.4524h 0.907087v 41.8155h 0.907087v -33.4524h 0.907087v 25.0893h 0.907087v 25.0893h 0.907087v
 -16.7262h 0.907087v 8.3631h 0.907087v 8.3631h 0.907087v 8.3631h 0.907087v -25.0893h 0.907087v -25.0893h 0.907087v 25.0893h 0.907087v -8.3631h 0.907087v -33.4524h 1.81417v 33.4524h 0.907087v -8.3631h 0.907087v 8.3631h 0.907087v -41.8155h 0.907087v
 50.1786h 1.81417v -25.0893h 0.907087v 25.0893h 0.907087v 33.4524h 0.907087v -33.4524h 0.907087v -41.8155h 0.907087v 25.0893h 1.81417v 33.4524h 0.907087v -8.3631h 0.907087v -8.3631h 0.907087v -33.4524h 0.907087v 50.1786h 1.81417v -16.7262h 1.81417v
 33.4524h 0.907087v -16.7262h 0.907087v -16.7262h 0.907087v 25.0893h 0.907087v -33.4524h 0.907087v 25.0893h 0.907087v -33.4524h 0.907087v 58.5417h 0.907087v -41.8155h 0.907087v 8.3631h 1.81417v 8.3631h 0.907087v 8.3631h 0.907087v 16.7262h 0.907087v
 -50.1786h 0.907087v -8.3631h 0.907087v 41.8155h 0.907087v -91.9941h 0.907087v 41.8155h 0.907087v 41.8155h 0.907087v -8.3631h 0.907087v -16.7262h 0.907087v 41.8155h 0.907087v -58.5417h 0.907087v 8.3631h 0.907087v 58.5417h 0.907087v -25.0893h
 0.907087v -25.0893h 0.907087v 16.7262h 0.907087v 41.8155h 0.907087v -25.0893h 0.907087v 25.0893h 0.907087v -25.0893h 0.907087v -25.0893h 0.907087v -33.4524h 0.907087v 75.2679h 0.907087v -41.8155h 0.907087v 33.4524h 0.907087v -66.9048h 0.907087v
 33.4524h 0.907087v -16.7262h 0.907087v -8.3631h 0.907087v 8.3631h 0.907087v 58.5417h 0.907087v -16.7262h 1.81417v 8.3631h 0.907087v -33.4524h 1.81417v 16.7262h 0.907087v 33.4524h 0.907087v -8.3631h 0.907087v -33.4524h 0.907087v 16.7262h 0.907087v
 16.7262h 0.907087v -41.8155h 0.907087v -16.7262h 0.907087v 8.3631h 0.907087v 16.7262h 0.907087v 33.4524h 0.907087v -41.8155h 0.907087v 16.7262h 0.907087v 16.7262h 0.907087v -41.8155h 1.81417v 25.0893h 0.907087v -16.7262h 0.907087v 25.0893h 0.907087v
 -8.3631h 0.907087v 8.3631h 0.907087v -25.0893h 0.907087v 16.7262h 0.907087v -33.4524h 0.907087v 8.3631h 0.907087v 8.3631h 0.907087v 16.7262h 0.907087v -25.0893h 0.907087v -16.7262h 1.81417v 50.1786h 0.907087v -41.8155h 0.907087v 41.8155h 0.907087v
 -41.8155h 0.907087v 50.1786h 0.907087v 8.3631h 0.907087v -100.357h 0.907087v 41.8155h 0.907087v 33.4524h 1.81417v -16.7262h 0.907087v -16.7262h 0.907087v -16.7262h 0.907087v 25.0893h 0.907087v -33.4524h 0.907087v 50.1786h 0.907087v -8.3631h
 0.907087v -75.2679h 0.907087v 50.1786h 0.907087v -16.7262h 0.907087v 8.3631h 0.907087v 16.7262h 0.907087v 16.7262h 1.81417v -33.4524h 0.907087v -41.8155h 0.907087v 25.0893h 0.907087v 33.4524h 0.907087v -8.3631h 0.907087v 16.7262h 1.81417v 8.3631h
 0.907087v 33.4524h 0.907087v -83.631h 0.907087v 16.7262h 0.907087v -41.8155h 0.907087v 33.4524h 0.907087v 8.3631h 0.907087v 16.7262h 0.907087v 16.7262h 0.907087v -25.0893h 0.907087v -41.8155h 0.907087v 25.0893h 0.907087v 41.8155h 1.81417v -16.7262h
 0.907087v -16.7262h 0.907087v 25.0893h 0.907087v 8.3631h 0.907087v -8.3631h 0.907087v -41.8155h 0.907087v -8.3631h 0.907087v 33.4524h 0.907087v -8.3631h 0.907087v -16.7262h 0.907087v 66.9048h 0.907087v -33.4524h 0.907087v -33.4524h 0.907087v
 -8.3631h 0.907087v 41.8155h 0.907087v 33.4524h 0.907087v -58.5417h 0.907087v 33.4524h 1.81417v -58.5417h 0.907087v 50.1786h 0.907087v 25.0893h 0.907087v -33.4524h 0.907087v 33.4524h 0.907087v 16.7262h 0.907087v -25.0893h 0.907087v 16.7262h 0.907087v
 -41.8155h 0.907087v -16.7262h 0.907087v 33.4524h 0.907087v 50.1786h 0.907087v -41.8155h 0.907087v 8.3631h 0.907087v -25.0893h 0.907087v -41.8155h 0.907087v 66.9048h 0.907087v -25.0893h 0.907087v -50.1786h 0.907087v 108.72h 1.81417v -16.7262h
 0.907087v -8.3631h 0.907087v -25.0893h 0.907087v 16.7262h 0.907087v -8.3631h 0.907087v 25.0893h 1.81417v -16.7262h 1.81417v 16.7262h 1.81417v 8.3631h 0.907087v -8.3631h 0.907087v 16.7262h 0.907087v -16.7262h 0.907087v 8.3631h 0.907087v 25.0893h
 0.907087v 8.3631h 0.907087v -33.4524h 0.907087v 8.3631h 0.907087v 16.7262h 1.81417v 8.3631h 1.81417v -25.0893h 1.81417v 8.3631h 0.907087v 8.3631h 0.907087v 16.7262h 0.907087v -16.7262h 0.907087v 16.7262h 0.907087v -25.0893h 0.907087v 8.3631h
 1.81417v -8.3631h 1.81417v 16.7262h 2.72126v 8.3631h 0.907087v -8.3631h 3.62835v -25.0893h 0.907087v 33.4524h 0.907087v -8.3631h 0.907087v 8.3631h 0.907087v -8.3631h 1.81417v 8.3631h 0.907087v -8.3631h 2.72126v 8.3631h 2.72126v -8.3631h 3.62835v
 8.3631h 0.907087v -8.3631h 1.81417v 8.3631h 1.81417v -8.3631h 0.907087v 8.3631h 2.72126v -8.3631h 0.907087v 8.3631h 1.81417v -8.3631h 0.907087v 8.3631h 1.81417v -8.3631h 0.907087v 8.3631h 2.72126v -8.3631h 0.907087v 8.3631h 10.885v -8.3631h 1.81417v
 8.3631h 6.34961v -8.3631h 0.907087v 8.3631h 86.1732" fill="none" stroke="#000099"/>
<path d="M293.67,244.197l 1.26992, 1.06443l 1.26992, 1.11517l 1.26992, 1.16622l 1.26992, 1.21739l 1.26992, 1.2685l 1.26992, 1.31936l 1.26992, 1.36977l 1.26992, 1.41952l 1.26992, 1.46841l 1.26992, 1.51623l 1.26992, 1.56277l 1.26992, 1.60781l 1.26992,
 1.65115l 1.26992, 1.69258l 1.26992, 1.7319l 1.26992, 1.76892l 1.26992, 1.80346l 1.26992, 1.83533l 1.26992, 1.86438l 1.26992, 1.89045l 1.26992, 1.91341l 1.26992, 1.93314l 1.26992, 1.94952l 1.26992, 1.96248l 1.26992, 1.97193l 1.26992, 1.97784l
 1.26992, 1.98017l 1.26992, 1.9789l 1.26992, 1.97405l 1.26992, 1.96563l 1.26992, 1.9537l 1.26992, 1.93832l 1.26992, 1.91958l 1.26992, 1.89756l 1.26992, 1.87239l 1.26992, 1.84421l 1.26992, 1.81315l 1.26992, 1.77939l 1.26992, 1.74308l 1.26992, 1.70442l
 1.26992, 1.66359l 1.26992, 1.62079l 1.26992, 1.57623l 1.26992, 1.53011l 1.26992, 1.48265l 1.26992, 1.43405l 1.26992, 1.38453l 1.26992, 1.3343l 1.26992, 1.28355" fill="none" stroke="#ff0000" stroke-width="2"/>
<path d="M355.897,325.913l 1.26992, 1.23249l 1.26992, 1.18132l 1.26992, 1.13022l 1.26992, 1.07937l 1.26992, 1.02893l 1.26992, 0.979075l 1.26992, 0.929942l 1.26992, 0.881673l 1.26992, 0.834393l 1.26992, 0.788215l 1.26992, 0.743243l 1.26992, 0.699564l
 1.26992, 0.657258l 1.26992, 0.61639l 1.26992, 0.577015l 1.26992, 0.539175l 1.26992, 0.502902l 1.26992, 0.468218l 1.26992, 0.435136l 1.26992, 0.403657l 1.26992, 0.373777l 1.26992, 0.34548l 1.26992, 0.318746l 1.26992, 0.293547l 1.26992, 0.26985l
 1.26992, 0.247616l 1.26992, 0.226802l 1.26992, 0.20736l 1.26992, 0.189241l 1.26992, 0.172392l 1.26992, 0.156758l 1.26992, 0.142283l 1.26992, 0.128911l 1.26992, 0.116584l 1.26992, 0.105244l 1.26992, 0.0948343l 1.26992, 0.0852995l 1.26992, 0.0765841l
 1.26992, 0.0686345l 1.26992, 0.0613985l 1.26992, 0.0548257l 1.26992, 0.0488677l 1.26992, 0.0434782l 1.26992, 0.0386129l 1.26992, 0.0342298l 1.26992, 0.0302892l 1.26992, 0.0267536l 1.26992, 0.0235878l 1.26992, 0.020759" fill="none" stroke="#ff0000"
 stroke-width="2"/>
<path d="M418.123,345.624l 1.26992, 0.0182362" fill="none" stroke="#ff0000" stroke-width="2"/>
<rect x="442.705" y="24.9717" width="113.386" height="61.4688" fill="white"/>
<path d="M442.705,86.4405h 113.386" fill="none" stroke="black"/>
<path d="M556.091,86.4405v -61.4688" fill="none" stroke="black"/>
<path d="M556.091,24.9717h -113.386" fill="none" stroke="black"/>
<path d="M442.705,24.9717v 61.4688" fill="none" stroke="black"/>
<text xml:space="preserve" x="462.653" y="36.5499" fill="black" font-size="13.4705" font-family="Helvetica">hist_area4_r</text>
<path d="M442.705,40.3389h 113.386" fill="none" stroke="black"/>
<text xml:space="preserve" x="448.033" y="52.7943" fill="black" font-size="13.0884" font-family="Helvetica">Entries </text>
<text xml:space="preserve" x="517.884" y="52.7943" fill="black" font-size="13.0884" font-family="Helvetica"> 3758</text>
<text xml:space="preserve" x="448.033" y="68.2264" fill="black" font-size="13.0884" font-family="Helvetica">Mean  </text>
<text xml:space="preserve" x="510.574" y="68.2264" fill="black" font-size="13.0884" font-family="Helvetica">  715.6</text>
<text xml:space="preserve" x="448.033" y="82.8464" fill="black" font-size="13.0884" font-family="Helvetica">Std Dev   </text>
<text xml:space="preserve" x="513.01" y="82.8464" fill="black" font-size="13.0884" font-family="Helvetica">  488.1</text>
<path d="M57.1929,345.762h 453.543" fill="none" stroke="black"/>
<path d="M57.1929,336.541v 9.22031" fill="none" stroke="black"/>
<path d="M75.3346,341.152v 4.61016" fill="none" stroke="black"/>
<path d="M93.4764,341.152v 4.61016" fill="none" stroke="black"/>
<path d="M111.618,341.152v 4.61016" fill="none" stroke="black"/>
<path d="M129.76,341.152v 4.61016" fill="none" stroke="black"/>
<path d="M147.902,336.541v 9.22031" fill="none" stroke="black"/>
<path d="M166.043,341.152v 4.61016" fill="none" stroke="black"/>
<path d="M184.185,341.152v 4.61016" fill="none" stroke="black"/>
<path d="M202.327,341.152v 4.61016" fill="none" stroke="black"/>
<path d="M220.469,341.152v 4.61016" fill="none" stroke="black"/>
<path d="M238.61,336.541v 9.22031" fill="none" stroke="black"/>
<path d="M256.752,341.152v 4.61016" fill="none" stroke="black"/>
<path d="M274.894,341.152v 4.61016" fill="none" stroke="black"/>
<path d="M293.035,341.152v 4.61016" fill="none" stroke="black"/>
<path d="M311.177,341.152v 4.61016" fill="none" stroke="black"/>
<path d="M329.319,336.541v 9.22031" fill="none" stroke="black"/>
<path d="M347.461,341.152v 4.61016" fill="none" stroke="black"/>
<path d="M365.602,341.152v 4.61016" fill="none" stroke="black"/>
<path d="M383.744,341.152v 4.61016" fill="none" stroke="black"/>
<path d="M401.886,341.152v 4.61016" fill="none" stroke="black"/>
<path d="M420.028,336.541v 9.22031" fill="none" stroke="black"/>
<path d="M438.169,341.152v 4.61016" fill="none" stroke="black"/>
<path d="M456.311,341.152v 4.61016" fill="none" stroke="black"/>
<path d="M474.453,341.152v 4.61016" fill="none" stroke="black"/>
<path d="M492.594,341.152v 4.61016" fill="none" stroke="black"/>
<path d="M510.736,336.541v 9.22031" fill="none" stroke="black"/>
<text xml:space="preserve" x="53.2943" y="358.189" fill="black" font-size="12.836" font-family="Helvetica">0</text>
<text xml:space="preserve" x="136.953" y="358.189" fill="black" font-size="12.836" font-family="Helvetica">500</text>
<text xml:space="preserve" x="224.673" y="358.189" fill="black" font-size="12.836" font-family="Helvetica">1000</text>
<text xml:space="preserve" x="314.829" y="358.189" fill="black" font-size="12.836" font-family="Helvetica">1500</text>
<text xml:space="preserve" x="405.797" y="358.189" fill="black" font-size="12.836" font-family="Helvetica">2000</text>
<text xml:space="preserve" x="496.766" y="358.189" fill="black" font-size="12.836" font-family="Helvetica">2500</text>
<text xml:space="preserve" x="485.395" y="371.996" fill="black" font-size="12.836" font-family="Helvetica">ADC</text>
<path d="M57.1929,345.762v -307.344" fill="none" stroke="black"/>
<path d="M70.7992,345.762h -13.6063" fill="none" stroke="black"/>
<path d="M63.9961,337.399h -6.80315" fill="none" stroke="black"/>
<path d="M63.9961,329.036h -6.80315" fill="none" stroke="black"/>
<path d="M63.9961,320.673h -6.80315" fill="none" stroke="black"/>
<path d="M63.9961,312.309h -6.80315" fill="none" stroke="black"/>
<path d="M70.7992,303.946h -13.6063" fill="none" stroke="black"/>
<path d="M63.9961,295.583h -6.80315" fill="none" stroke="black"/>
<path d="M63.9961,287.22h -6.80315" fill="none" stroke="black"/>
<path d="M63.9961,278.857h -6.80315" fill="none" stroke="black"/>
<path d="M63.9961,270.494h -6.80315" fill="none" stroke="black"/>
<path d="M70.7992,262.131h -13.6063" fill="none" stroke="black"/>
<path d="M63.9961,253.768h -6.80315" fill="none" stroke="black"/>
<path d="M63.9961,245.405h -6.80315" fill="none" stroke="black"/>
<path d="M63.9961,237.042h -6.80315" fill="none" stroke="black"/>
<path d="M63.9961,228.678h -6.80315" fill="none" stroke="black"/>
<path d="M70.7992,220.315h -13.6063" fill="none" stroke="black"/>
<path d="M63.9961,211.952h -6.80315" fill="none" stroke="black"/>
<path d="M63.9961,203.589h -6.80315" fill="none" stroke="black"/>
<path d="M63.9961,195.226h -6.80315" fill="none" stroke="black"/>
<path d="M63.9961,186.863h -6.80315" fill="none" stroke="black"/>
<path d="M70.7992,178.5h -13.6063" fill="none" stroke="black"/>
<path d="M63.9961,170.137h -6.80315" fill="none" stroke="black"/>
<path d="M63.9961,161.774h -6.80315" fill="none" stroke="black"/>
<path d="M63.9961,153.411h -6.80315" fill="none" stroke="black"/>
<path d="M63.9961,145.047h -6.80315" fill="none" stroke="black"/>
<path d="M70.7992,136.684h -13.6063" fill="none" stroke="black"/>
<path d="M63.9961,128.321h -6.80315" fill="none" stroke="black"/>
<path d="M63.9961,119.958h -6.80315" fill="none" stroke="black"/>
<path d="M63.9961,111.595h -6.80315" fill="none" stroke="black"/>
<path d="M63.9961,103.232h -6.80315" fill="none" stroke="black"/>
<path d="M70.7992,94.8689h -13.6063" fill="none" stroke="black"/>
<path d="M63.9961,86.5058h -6.80315" fill="none" stroke="black"/>
<path d="M63.9961,78.1427h -6.80315" fill="none" stroke="black"/>
<path d="M63.9961,69.7796h -6.80315" fill="none" stroke="black"/>
<path d="M63.9961,61.4165h -6.80315" fill="none" stroke="black"/>
<path d="M70.7992,53.0534h -13.6063" fill="none" stroke="black"/>
<path d="M70.7992,53.0534h -13.6063" fill="none" stroke="black"/>
<path d="M63.9961,44.6903h -6.80315" fill="none" stroke="black"/>
<text xml:space="preserve" x="47.6087" y="350.067" fill="black" font-size="12.836" font-family="Helvetica">0</text>
<text xml:space="preserve" x="47.6087" y="308.643" fill="black" font-size="12.836" font-family="Helvetica">5</text>
<text xml:space="preserve" x="41.111" y="266.408" fill="black" font-size="12.836" font-family="Helvetica">10</text>
<text xml:space="preserve" x="40.2988" y="224.985" fill="black" font-size="12.836" font-family="Helvetica">15</text>
<text xml:space="preserve" x="41.111" y="182.749" fill="black" font-size="12.836" font-family="Helvetica">20</text>
<text xml:space="preserve" x="40.2988" y="141.326" fill="black" font-size="12.836" font-family="Helvetica">25</text>
<text xml:space="preserve" x="41.111" y="99.0908" fill="black" font-size="12.836" font-family="Helvetica">30</text>
<text xml:space="preserve" x="40.2988" y="57.6676" fill="black" font-size="12.836" font-family="Helvetica">35</text>
<g transform="rotate(-90,28.1155,69.8509)">
<text xml:space="preserve" x="28.1155" y="69.8509" fill="black" font-size="12.836" font-family="Helvetica">Event</text>
</g>
<rect x="442.705" y="24.9717" width="113.386" height="61.4688" fill="white"/>
<path d="M442.705,86.4405h 113.386" fill="none" stroke="black"/>
<path d="M556.091,86.4405v -61.4688" fill="none" stroke="black"/>
<path d="M556.091,24.9717h -113.386" fill="none" stroke="black"/>
<path d="M442.705,24.9717v 61.4688" fill="none" stroke="black"/>
<text xml:space="preserve" x="462.653" y="36.5499" fill="black" font-size="13.4705" font-family="Helvetica">hist_area4_r</text>
<path d="M442.705,40.3389h 113.386" fill="none" stroke="black"/>
<text xml:space="preserve" x="448.033" y="52.7943" fill="black" font-size="13.0884" font-family="Helvetica">Entries </text>
<text xml:space="preserve" x="517.884" y="52.7943" fill="black" font-size="13.0884" font-family="Helvetica"> 3758</text>
<text xml:space="preserve" x="448.033" y="68.2264" fill="black" font-size="13.0884" font-family="Helvetica">Mean  </text>
<text xml:space="preserve" x="510.574" y="68.2264" fill="black" font-size="13.0884" font-family="Helvetica">  715.6</text>
<text xml:space="preserve" x="448.033" y="82.8464" fill="black" font-size="13.0884" font-family="Helvetica">Std Dev   </text>
<text xml:space="preserve" x="513.01" y="82.8464" fill="black" font-size="13.0884" font-family="Helvetica">  488.1</text>
<text xml:space="preserve" x="189.747" y="18.681" fill="black" font-size="18.7414" font-family="Helvetica">Co_run1+2 right area4</text></svg>
