<?xml version="1.0" standalone="no"?>
<svg width="567.429" height="384.68" viewBox="0 0 567.429 384.68" xmlns="http://www.w3.org/2000/svg" shape-rendering="crispEdges">
<title>
img/calibration/Co_run1+2 area4.svg
</title>
<desc>
Creator: ROOT Version 6.22/09
CreationDate: Tue Jun  8 13:00:12 2021</desc>
<defs>
</defs>
<rect x="0.5" y="0" width="566.929" height="384.18" fill="white"/>
<rect x="57.1929" y="38.418" width="453.543" height="307.344" fill="white"/>
<rect x="57.1929" y="38.418" width="453.543" height="307.344" fill="none" stroke="black"/>
<rect x="57.1929" y="38.418" width="453.543" height="307.344" fill="white"/>
<rect x="57.1929" y="38.418" width="453.543" height="307.344" fill="none" stroke="black"/>
<path d="M57.1929,344.341h 0.907087v 1.42091h 0.907087v -1.42091h 0.907087v -1.42091h 0.907087v 1.42091h 0.907087v 1.42091h 0.907087v -1.42091h 2.72126v 1.42091h 0.907087v -2.84183h 1.81417v 2.84183h 0.907087v -1.42091h 0.907087v 1.42091h 1.81417v
 -1.42091h 1.81417v 1.42091h 0.907087v -1.42091h 0.907087v 1.42091h 1.81417v -1.42091h 1.81417v 1.42091h 3.62835v -1.42091h 1.81417v -1.42091h 0.907087v 1.42091h 1.81417v 1.42091h 1.81417v -1.42091h 0.907087v -1.42091h 0.907087v 2.84183h 0.907087v
 -2.84183h 0.907087v 2.84183h 1.81417v -1.42091h 0.907087v -1.42091h 0.907087v 1.42091h 0.907087v -4.26274h 0.907087v 4.26274h 1.81417v -2.84183h 0.907087v -4.26274h 0.907087v 1.42091h 0.907087v -4.26274h 0.907087v -4.26274h 0.907087v -11.3673h
 0.907087v -1.42091h 0.907087v -7.10457h 0.907087v -9.9464h 0.907087v 2.84183h 0.907087v -22.7346h 0.907087v 17.051h 0.907087v -14.2091h 0.907087v -11.3673h 0.907087v 5.68366h 0.907087v -8.52549h 0.907087v -17.051h 0.907087v 17.051h 0.907087v
 -31.2601h 0.907087v 7.10457h 0.907087v -5.68366h 0.907087v -8.52549h 0.907087v -31.2601h 1.81417v 5.68366h 0.907087v -34.102h 0.907087v -1.42091h 0.907087v 7.10457h 0.907087v -48.3111h 0.907087v 25.5765h 1.81417v -5.68366h 0.907087v 8.52549h
 0.907087v -34.102h 0.907087v 26.9974h 0.907087v -24.1555h 0.907087v 24.1555h 0.907087v -39.7856h 0.907087v 22.7346h 0.907087v 4.26274h 0.907087v -14.2091h 0.907087v 26.9974h 0.907087v -4.26274h 0.907087v 9.9464h 1.81417v -24.1555h 0.907087v 26.9974h
 0.907087v -21.3137h 0.907087v 17.051h 0.907087v 19.8928h 0.907087v -39.7856h 0.907087v 29.8392h 0.907087v 15.6301h 0.907087v -11.3673h 0.907087v -7.10457h 0.907087v -12.7882h 0.907087v 21.3137h 0.907087v 2.84183h 0.907087v 8.52549h 0.907087v
 -28.4183h 0.907087v 21.3137h 0.907087v -15.6301h 0.907087v 48.3111h 0.907087v 9.9464h 0.907087v -31.2601h 0.907087v 1.42091h 0.907087v -1.42091h 0.907087v -5.68366h 0.907087v -21.3137h 0.907087v 45.4693h 0.907087v -32.681h 0.907087v 15.6301h
 0.907087v -9.9464h 0.907087v 22.7346h 0.907087v -5.68366h 0.907087v 12.7882h 0.907087v -11.3673h 0.907087v -12.7882h 0.907087v -11.3673h 0.907087v 5.68366h 0.907087v 18.4719h 0.907087v 11.3673h 0.907087v -21.3137h 0.907087v -5.68366h 0.907087v
 19.8928h 0.907087v 14.2091h 0.907087v -17.051h 0.907087v 17.051h 0.907087v -9.9464h 0.907087v 1.42091h 0.907087v 12.7882h 0.907087v -14.2091h 0.907087v 25.5765h 0.907087v -29.8392h 0.907087v 29.8392h 0.907087v -29.8392h 0.907087v 21.3137h 0.907087v
 19.8928h 0.907087v -21.3137h 0.907087v -4.26274h 0.907087v 15.6301h 0.907087v -18.4719h 0.907087v -5.68366h 0.907087v 19.8928h 0.907087v -35.5229h 0.907087v 25.5765h 0.907087v 2.84183h 0.907087v -12.7882h 0.907087v -5.68366h 0.907087v 14.2091h
 0.907087v -15.6301h 0.907087v 9.9464h 0.907087v 32.681h 0.907087v -11.3673h 0.907087v -18.4719h 0.907087v -5.68366h 0.907087v 8.52549h 0.907087v -21.3137h 0.907087v 12.7882h 0.907087v 5.68366h 0.907087v 19.8928h 1.81417v -12.7882h 0.907087v
 -5.68366h 0.907087v -12.7882h 1.81417v 11.3673h 0.907087v 5.68366h 0.907087v -53.9948h 0.907087v 68.2039h 0.907087v -11.3673h 0.907087v 8.52549h 0.907087v -31.2601h 0.907087v 5.68366h 0.907087v 9.9464h 0.907087v -1.42091h 0.907087v 9.9464h 0.907087v
 -2.84183h 0.907087v -8.52549h 0.907087v 4.26274h 1.81417v -14.2091h 0.907087v -2.84183h 0.907087v 24.1555h 0.907087v -2.84183h 0.907087v -4.26274h 0.907087v -18.4719h 0.907087v 21.3137h 0.907087v -2.84183h 0.907087v -7.10457h 0.907087v 17.051h
 0.907087v -48.3111h 0.907087v 8.52549h 0.907087v 24.1555h 0.907087v 8.52549h 0.907087v -19.8928h 0.907087v 4.26274h 0.907087v -29.8392h 1.81417v 36.9438h 0.907087v -2.84183h 0.907087v 21.3137h 0.907087v -15.6301h 0.907087v -22.7346h 0.907087v
 17.051h 0.907087v 8.52549h 0.907087v -17.051h 0.907087v 11.3673h 1.81417v -22.7346h 0.907087v -1.42091h 1.81417v -38.3647h 0.907087v 44.0484h 0.907087v 24.1555h 0.907087v -14.2091h 0.907087v -12.7882h 0.907087v 8.52549h 0.907087v -7.10457h 0.907087v
 -11.3673h 0.907087v 5.68366h 0.907087v 31.2601h 0.907087v -8.52549h 0.907087v 18.4719h 0.907087v -7.10457h 0.907087v 24.1555h 0.907087v -31.2601h 0.907087v 28.4183h 0.907087v -24.1555h 0.907087v 32.681h 0.907087v -5.68366h 0.907087v -2.84183h
 0.907087v 21.3137h 0.907087v -15.6301h 0.907087v -14.2091h 0.907087v 14.2091h 0.907087v 12.7882h 0.907087v 11.3673h 0.907087v -26.9974h 0.907087v 11.3673h 0.907087v -8.52549h 0.907087v -2.84183h 0.907087v 8.52549h 0.907087v -19.8928h 0.907087v
 9.9464h 0.907087v -9.9464h 1.81417v -2.84183h 0.907087v 2.84183h 0.907087v -9.9464h 0.907087v -9.9464h 0.907087v -2.84183h 0.907087v -2.84183h 0.907087v -14.2091h 0.907087v 2.84183h 0.907087v -17.051h 0.907087v -5.68366h 0.907087v -2.84183h
 0.907087v -15.6301h 0.907087v -48.3111h 0.907087v 25.5765h 0.907087v -7.10457h 0.907087v 17.051h 0.907087v -45.4693h 0.907087v -41.2065h 0.907087v 19.8928h 0.907087v -19.8928h 0.907087v 12.7882h 0.907087v 69.6248h 0.907087v -14.2091h 0.907087v
 19.8928h 0.907087v 11.3673h 0.907087v -4.26274h 0.907087v -1.42091h 0.907087v 14.2091h 0.907087v 46.8902h 0.907087v -2.84183h 0.907087v 18.4719h 0.907087v 38.3647h 0.907087v -18.4719h 0.907087v 24.1555h 0.907087v -4.26274h 0.907087v 9.9464h
 0.907087v -4.26274h 0.907087v 15.6301h 0.907087v -4.26274h 0.907087v -17.051h 0.907087v 36.9438h 0.907087v -38.3647h 0.907087v 1.42091h 0.907087v -19.8928h 0.907087v 32.681h 0.907087v -22.7346h 0.907087v -32.681h 0.907087v -22.7346h 0.907087v
 22.7346h 0.907087v -39.7856h 0.907087v 22.7346h 0.907087v -19.8928h 0.907087v 19.8928h 0.907087v -46.8902h 0.907087v -5.68366h 0.907087v 2.84183h 0.907087v 7.10457h 0.907087v 24.1555h 0.907087v -15.6301h 0.907087v 25.5765h 0.907087v -2.84183h
 0.907087v -21.3137h 0.907087v 42.6274h 0.907087v 8.52549h 0.907087v 7.10457h 0.907087v 18.4719h 0.907087v 19.8928h 0.907087v -4.26274h 0.907087v 26.9974h 0.907087v -5.68366h 0.907087v 26.9974h 0.907087v -2.84183h 0.907087v 4.26274h 0.907087v
 -4.26274h 0.907087v 15.6301h 0.907087v 7.10457h 0.907087v 1.42091h 0.907087v 1.42091h 0.907087v -2.84183h 0.907087v 7.10457h 2.72126v 5.68366h 5.44252v -2.84183h 1.81417v 4.26274h 2.72126v -1.42091h 0.907087v 1.42091h 0.907087v -1.42091h 0.907087v
 -1.42091h 0.907087v 1.42091h 0.907087v -1.42091h 0.907087v 2.84183h 2.72126v -1.42091h 0.907087v 1.42091h 0.907087v -1.42091h 0.907087v 1.42091h 2.72126v -2.84183h 0.907087v 1.42091h 0.907087v -1.42091h 0.907087v 2.84183h 1.81417v -1.42091h 1.81417v
 -1.42091h 0.907087v 2.84183h 0.907087v -2.84183h 0.907087v 2.84183h 9.07087v -2.84183h 0.907087v 2.84183h 0.907087v -1.42091h 1.81417v 1.42091h 7.25669v -1.42091h 0.907087v 1.42091h 0.907087v -1.42091h 0.907087v 1.42091h 6.34961v -2.84183h 0.907087v
 1.42091h 1.81417v 1.42091h 2.72126v -2.84183h 0.907087v 2.84183h 2.72126v -2.84183h 0.907087v 2.84183h 3.62835v -1.42091h 0.907087v 1.42091h 8.16378v -1.42091h 0.907087v 1.42091h 6.34961v -1.42091h 0.907087v 1.42091h 0.907087v -1.42091h 0.907087v
 1.42091h 7.25669v -1.42091h 0.907087v -1.42091h 0.907087v 2.84183h 2.72126v -1.42091h 0.907087v 1.42091h 1.81417v -1.42091h 0.907087v 1.42091h 2.72126v -1.42091h 0.907087v 1.42091h 2.72126v -1.42091h 0.907087v 1.42091h 0.907087v -1.42091h 0.907087v
 1.42091h 4.53543v -2.84183h 0.907087v 2.84183h 5.44252v -1.42091h 0.907087v 1.42091h 12.6992v -1.42091h 0.907087v 1.42091h 0.907087v -1.42091h 0.907087v 1.42091h 1.81417v -1.42091h 0.907087" fill="none" stroke="#000099"/>
<path d="M293.172,214.659l 0.272126, -4.32678l 0.272126, -4.3535l 0.272126, -4.37375l 0.272126, -4.38726l 0.272126, -4.39379l 0.272126, -4.39312l 0.272126, -4.38503l 0.272126, -4.36934l 0.272126, -4.34587l 0.272126, -4.31449l 0.272126, -4.27506l
 0.272126, -4.22749l 0.272126, -4.1717l 0.272126, -4.10764l 0.272126, -4.03528l 0.272126, -3.95463l 0.272126, -3.86572l 0.272126, -3.76861l 0.272126, -3.66339l 0.272126, -3.55018l 0.272126, -3.42912l 0.272126, -3.30039l 0.272126, -3.16419l 0.272126,
 -3.02076l 0.272126, -2.87034l 0.272126, -2.71324l 0.272126, -2.54975l 0.272126, -2.38022l 0.272126, -2.205l 0.272126, -2.02449l 0.272126, -1.83908l 0.272126, -1.64919l 0.272126, -1.45528l 0.272126, -1.25779l 0.272126, -1.05721l 0.272126, -0.854016l
 0.272126, -0.648705l 0.272126, -0.441784l 0.272126, -0.233764l 0.272126, -0.025163l 0.272126, 0.183501l 0.272126, 0.391708l 0.272126, 0.598941l 0.272126, 0.804687l 0.272126, 1.00844l 0.272126, 1.2097l 0.272126, 1.40797l 0.272126, 1.60279l 0.272126,
 1.79369" fill="none" stroke="#ff0000" stroke-width="2"/>
<path d="M306.506,103.278l 0.272126, 1.98022l 0.272126, 2.16195l 0.272126, 2.33848l 0.272126, 2.50941l 0.272126, 2.67439l 0.272126, 2.83306l 0.272126, 2.98512l 0.272126, 3.13026l 0.272126, 3.26823l 0.272126, 3.39878l 0.272126, 3.5217l 0.272126,
 3.63682l 0.272126, 3.74398l 0.272126, 3.84305l 0.272126, 3.93394l 0.272126, 4.01659l 0.272126, 4.09095l 0.272126, 4.15701l 0.272126, 4.21479l 0.272126, 4.26434l 0.272126, 4.30572l 0.272126, 4.33904l 0.272126, 4.3644l 0.272126, 4.38195l 0.272126,
 4.39185l 0.272126, 4.3943l 0.272126, 4.38948l 0.272126, 4.37763l 0.272126, 4.35899l 0.272126, 4.3338l 0.272126, 4.30233l 0.272126, 4.26487l 0.272126, 4.22169l 0.272126, 4.17311l 0.272126, 4.11942l 0.272126, 4.06094l 0.272126, 3.99798l 0.272126,
 3.93086l 0.272126, 3.85991l 0.272126, 3.78544l 0.272126, 3.70778l 0.272126, 3.62724l 0.272126, 3.54413l 0.272126, 3.45877l 0.272126, 3.37146l 0.272126, 3.2825l 0.272126, 3.19217l 0.272126, 3.10076l 0.272126, 3.00853" fill="none" stroke="#ff0000"
 stroke-width="2"/>
<path d="M319.84,284.628l 0.272126, 2.91576" fill="none" stroke="#ff0000" stroke-width="2"/>
<path d="M329.5,231.617l 0.362835, -4.6205l 0.362835, -4.58337l 0.362835, -4.52786l 0.362835, -4.45357l 0.362835, -4.36026l 0.362835, -4.2478l 0.362835, -4.11619l 0.362835, -3.96559l 0.362835, -3.79628l 0.362835, -3.60871l 0.362835, -3.40346l
 0.362835, -3.18127l 0.362835, -2.94299l 0.362835, -2.68964l 0.362835, -2.42235l 0.362835, -2.14237l 0.362835, -1.85105l 0.362835, -1.54988l 0.362835, -1.24038l 0.362835, -0.924203l 0.362835, -0.603017l 0.362835, -0.278555l 0.362835, 0.0474213l
 0.362835, 0.37314l 0.362835, 0.696829l 0.362835, 1.01674l 0.362835, 1.33114l 0.362835, 1.63838l 0.362835, 1.93685l 0.362835, 2.22501l 0.362835, 2.50144l 0.362835, 2.76481l 0.362835, 3.01388l 0.362835, 3.24758l 0.362835, 3.46493l 0.362835, 3.6651l
 0.362835, 3.84742l 0.362835, 4.01132l 0.362835, 4.15643l 0.362835, 4.28248l 0.362835, 4.38937l 0.362835, 4.47713l 0.362835, 4.54592l 0.362835, 4.59605l 0.362835, 4.62792l 0.362835, 4.64208l 0.362835, 4.63916l 0.362835, 4.6199l 0.362835, 4.58511"
 fill="none" stroke="#ff0000" stroke-width="2"/>
<path d="M347.279,251.452l 0.362835, 4.53568l 0.362835, 4.47257l 0.362835, 4.39678l 0.362835, 4.30936l 0.362835, 4.21137l 0.362835, 4.10391l 0.362835, 3.98808l 0.362835, 3.86496l 0.362835, 3.73565l 0.362835, 3.60119l 0.362835, 3.46263l 0.362835,
 3.32095l 0.362835, 3.17711l 0.362835, 3.032l 0.362835, 2.88648l 0.362835, 2.74134l 0.362835, 2.59731l 0.362835, 2.45507l 0.362835, 2.31522l 0.362835, 2.1783l 0.362835, 2.04481l 0.362835, 1.91515l 0.362835, 1.78969l 0.362835, 1.66872l 0.362835,
 1.55249l 0.362835, 1.44118l 0.362835, 1.33494l 0.362835, 1.23384l 0.362835, 1.13795l 0.362835, 1.04726l 0.362835, 0.96175l 0.362835, 0.881347l 0.362835, 0.805962l 0.362835, 0.735477l 0.362835, 0.669755l 0.362835, 0.608636l 0.362835, 0.551949l
 0.362835, 0.499508l 0.362835, 0.45112l 0.362835, 0.406585l 0.362835, 0.365698l 0.362835, 0.328253l 0.362835, 0.294044l 0.362835, 0.262868l 0.362835, 0.234524l 0.362835, 0.208814l 0.362835, 0.185551l 0.362835, 0.164549l 0.362835, 0.145633"
 fill="none" stroke="#ff0000" stroke-width="2"/>
<path d="M365.058,344.766l 0.362835, 0.128635" fill="none" stroke="#ff0000" stroke-width="2"/>
<rect x="442.705" y="24.9717" width="113.386" height="61.4688" fill="white"/>
<path d="M442.705,86.4405h 113.386" fill="none" stroke="black"/>
<path d="M556.091,86.4405v -61.4688" fill="none" stroke="black"/>
<path d="M556.091,24.9717h -113.386" fill="none" stroke="black"/>
<path d="M442.705,24.9717v 61.4688" fill="none" stroke="black"/>
<text xml:space="preserve" x="468.338" y="36.5499" fill="black" font-size="13.4705" font-family="Helvetica">hist_area4</text>
<path d="M442.705,40.3389h 113.386" fill="none" stroke="black"/>
<text xml:space="preserve" x="448.033" y="52.7943" fill="black" font-size="12.9998" font-family="Helvetica">Entries </text>
<text xml:space="preserve" x="513.01" y="52.7943" fill="black" font-size="12.9998" font-family="Helvetica"> 27871</text>
<text xml:space="preserve" x="448.033" y="68.2264" fill="black" font-size="12.9998" font-family="Helvetica">Mean  </text>
<text xml:space="preserve" x="510.574" y="68.2264" fill="black" font-size="12.9998" font-family="Helvetica">  936.3</text>
<text xml:space="preserve" x="448.033" y="82.8464" fill="black" font-size="12.9998" font-family="Helvetica">Std Dev   </text>
<text xml:space="preserve" x="514.635" y="82.8464" fill="black" font-size="12.9998" font-family="Helvetica">    394</text>
<path d="M57.1929,345.762h 453.543" fill="none" stroke="black"/>
<path d="M57.1929,336.541v 9.22031" fill="none" stroke="black"/>
<path d="M75.3346,341.152v 4.61016" fill="none" stroke="black"/>
<path d="M93.4764,341.152v 4.61016" fill="none" stroke="black"/>
<path d="M111.618,341.152v 4.61016" fill="none" stroke="black"/>
<path d="M129.76,341.152v 4.61016" fill="none" stroke="black"/>
<path d="M147.902,336.541v 9.22031" fill="none" stroke="black"/>
<path d="M166.043,341.152v 4.61016" fill="none" stroke="black"/>
<path d="M184.185,341.152v 4.61016" fill="none" stroke="black"/>
<path d="M202.327,341.152v 4.61016" fill="none" stroke="black"/>
<path d="M220.469,341.152v 4.61016" fill="none" stroke="black"/>
<path d="M238.61,336.541v 9.22031" fill="none" stroke="black"/>
<path d="M256.752,341.152v 4.61016" fill="none" stroke="black"/>
<path d="M274.894,341.152v 4.61016" fill="none" stroke="black"/>
<path d="M293.035,341.152v 4.61016" fill="none" stroke="black"/>
<path d="M311.177,341.152v 4.61016" fill="none" stroke="black"/>
<path d="M329.319,336.541v 9.22031" fill="none" stroke="black"/>
<path d="M347.461,341.152v 4.61016" fill="none" stroke="black"/>
<path d="M365.602,341.152v 4.61016" fill="none" stroke="black"/>
<path d="M383.744,341.152v 4.61016" fill="none" stroke="black"/>
<path d="M401.886,341.152v 4.61016" fill="none" stroke="black"/>
<path d="M420.028,336.541v 9.22031" fill="none" stroke="black"/>
<path d="M438.169,341.152v 4.61016" fill="none" stroke="black"/>
<path d="M456.311,341.152v 4.61016" fill="none" stroke="black"/>
<path d="M474.453,341.152v 4.61016" fill="none" stroke="black"/>
<path d="M492.594,341.152v 4.61016" fill="none" stroke="black"/>
<path d="M510.736,336.541v 9.22031" fill="none" stroke="black"/>
<text xml:space="preserve" x="53.2943" y="358.189" fill="black" font-size="12.836" font-family="Helvetica">0</text>
<text xml:space="preserve" x="136.953" y="358.189" fill="black" font-size="12.836" font-family="Helvetica">500</text>
<text xml:space="preserve" x="224.673" y="358.189" fill="black" font-size="12.836" font-family="Helvetica">1000</text>
<text xml:space="preserve" x="314.829" y="358.189" fill="black" font-size="12.836" font-family="Helvetica">1500</text>
<text xml:space="preserve" x="405.797" y="358.189" fill="black" font-size="12.836" font-family="Helvetica">2000</text>
<text xml:space="preserve" x="496.766" y="358.189" fill="black" font-size="12.836" font-family="Helvetica">2500</text>
<text xml:space="preserve" x="485.395" y="371.996" fill="black" font-size="12.836" font-family="Helvetica">ADC</text>
<path d="M57.1929,345.762v -307.344" fill="none" stroke="black"/>
<path d="M70.7992,345.762h -13.6063" fill="none" stroke="black"/>
<path d="M63.9961,338.657h -6.80315" fill="none" stroke="black"/>
<path d="M63.9961,331.553h -6.80315" fill="none" stroke="black"/>
<path d="M63.9961,324.448h -6.80315" fill="none" stroke="black"/>
<path d="M70.7992,317.344h -13.6063" fill="none" stroke="black"/>
<path d="M63.9961,310.239h -6.80315" fill="none" stroke="black"/>
<path d="M63.9961,303.134h -6.80315" fill="none" stroke="black"/>
<path d="M63.9961,296.03h -6.80315" fill="none" stroke="black"/>
<path d="M70.7992,288.925h -13.6063" fill="none" stroke="black"/>
<path d="M63.9961,281.821h -6.80315" fill="none" stroke="black"/>
<path d="M63.9961,274.716h -6.80315" fill="none" stroke="black"/>
<path d="M63.9961,267.612h -6.80315" fill="none" stroke="black"/>
<path d="M70.7992,260.507h -13.6063" fill="none" stroke="black"/>
<path d="M63.9961,253.402h -6.80315" fill="none" stroke="black"/>
<path d="M63.9961,246.298h -6.80315" fill="none" stroke="black"/>
<path d="M63.9961,239.193h -6.80315" fill="none" stroke="black"/>
<path d="M70.7992,232.089h -13.6063" fill="none" stroke="black"/>
<path d="M63.9961,224.984h -6.80315" fill="none" stroke="black"/>
<path d="M63.9961,217.879h -6.80315" fill="none" stroke="black"/>
<path d="M63.9961,210.775h -6.80315" fill="none" stroke="black"/>
<path d="M70.7992,203.67h -13.6063" fill="none" stroke="black"/>
<path d="M63.9961,196.566h -6.80315" fill="none" stroke="black"/>
<path d="M63.9961,189.461h -6.80315" fill="none" stroke="black"/>
<path d="M63.9961,182.357h -6.80315" fill="none" stroke="black"/>
<path d="M70.7992,175.252h -13.6063" fill="none" stroke="black"/>
<path d="M63.9961,168.147h -6.80315" fill="none" stroke="black"/>
<path d="M63.9961,161.043h -6.80315" fill="none" stroke="black"/>
<path d="M63.9961,153.938h -6.80315" fill="none" stroke="black"/>
<path d="M70.7992,146.834h -13.6063" fill="none" stroke="black"/>
<path d="M63.9961,139.729h -6.80315" fill="none" stroke="black"/>
<path d="M63.9961,132.625h -6.80315" fill="none" stroke="black"/>
<path d="M63.9961,125.52h -6.80315" fill="none" stroke="black"/>
<path d="M70.7992,118.415h -13.6063" fill="none" stroke="black"/>
<path d="M63.9961,111.311h -6.80315" fill="none" stroke="black"/>
<path d="M63.9961,104.206h -6.80315" fill="none" stroke="black"/>
<path d="M63.9961,97.1018h -6.80315" fill="none" stroke="black"/>
<path d="M70.7992,89.9972h -13.6063" fill="none" stroke="black"/>
<path d="M63.9961,82.8926h -6.80315" fill="none" stroke="black"/>
<path d="M63.9961,75.788h -6.80315" fill="none" stroke="black"/>
<path d="M63.9961,68.6835h -6.80315" fill="none" stroke="black"/>
<path d="M70.7992,61.5789h -13.6063" fill="none" stroke="black"/>
<path d="M70.7992,61.5789h -13.6063" fill="none" stroke="black"/>
<path d="M63.9961,54.4743h -6.80315" fill="none" stroke="black"/>
<path d="M63.9961,47.3697h -6.80315" fill="none" stroke="black"/>
<path d="M63.9961,40.2652h -6.80315" fill="none" stroke="black"/>
<text xml:space="preserve" x="47.6087" y="350.067" fill="black" font-size="12.836" font-family="Helvetica">0</text>
<text xml:space="preserve" x="41.111" y="321.639" fill="black" font-size="12.836" font-family="Helvetica">20</text>
<text xml:space="preserve" x="41.111" y="293.211" fill="black" font-size="12.836" font-family="Helvetica">40</text>
<text xml:space="preserve" x="41.111" y="264.784" fill="black" font-size="12.836" font-family="Helvetica">60</text>
<text xml:space="preserve" x="41.111" y="236.356" fill="black" font-size="12.836" font-family="Helvetica">80</text>
<text xml:space="preserve" x="33.801" y="207.928" fill="black" font-size="12.836" font-family="Helvetica">100</text>
<text xml:space="preserve" x="33.801" y="179.5" fill="black" font-size="12.836" font-family="Helvetica">120</text>
<text xml:space="preserve" x="33.801" y="151.073" fill="black" font-size="12.836" font-family="Helvetica">140</text>
<text xml:space="preserve" x="33.801" y="122.645" fill="black" font-size="12.836" font-family="Helvetica">160</text>
<text xml:space="preserve" x="33.801" y="94.2175" fill="black" font-size="12.836" font-family="Helvetica">180</text>
<text xml:space="preserve" x="33.801" y="65.7898" fill="black" font-size="12.836" font-family="Helvetica">200</text>
<g transform="rotate(-90,20.8055,69.8509)">
<text xml:space="preserve" x="20.8055" y="69.8509" fill="black" font-size="12.836" font-family="Helvetica">Event</text>
</g>
<rect x="442.705" y="24.9717" width="113.386" height="61.4688" fill="white"/>
<path d="M442.705,86.4405h 113.386" fill="none" stroke="black"/>
<path d="M556.091,86.4405v -61.4688" fill="none" stroke="black"/>
<path d="M556.091,24.9717h -113.386" fill="none" stroke="black"/>
<path d="M442.705,24.9717v 61.4688" fill="none" stroke="black"/>
<text xml:space="preserve" x="468.338" y="36.5499" fill="black" font-size="13.4705" font-family="Helvetica">hist_area4</text>
<path d="M442.705,40.3389h 113.386" fill="none" stroke="black"/>
<text xml:space="preserve" x="448.033" y="52.7943" fill="black" font-size="12.9998" font-family="Helvetica">Entries </text>
<text xml:space="preserve" x="513.01" y="52.7943" fill="black" font-size="12.9998" font-family="Helvetica"> 27871</text>
<text xml:space="preserve" x="448.033" y="68.2264" fill="black" font-size="12.9998" font-family="Helvetica">Mean  </text>
<text xml:space="preserve" x="510.574" y="68.2264" fill="black" font-size="12.9998" font-family="Helvetica">  936.3</text>
<text xml:space="preserve" x="448.033" y="82.8464" fill="black" font-size="12.9998" font-family="Helvetica">Std Dev   </text>
<text xml:space="preserve" x="514.635" y="82.8464" fill="black" font-size="12.9998" font-family="Helvetica">    394</text>
<text xml:space="preserve" x="214.114" y="18.681" fill="black" font-size="17.9813" font-family="Helvetica">Co_run1+2 area4</text></svg>
