<?xml version="1.0" standalone="no"?>
<svg width="567.429" height="386.304" viewBox="0 0 567.429 386.304" xmlns="http://www.w3.org/2000/svg" shape-rendering="crispEdges">
<title>
img/calibration/Co_run1+2 area1.svg
</title>
<desc>
Creator: ROOT Version 6.22/08
CreationDate: Tue Jun  8 01:25:50 2021</desc>
<defs>
</defs>
<rect x="0.5" y="0" width="566.929" height="385.804" fill="white"/>
<rect x="57.1929" y="38.5804" width="453.543" height="308.643" fill="white"/>
<rect x="57.1929" y="38.5804" width="453.543" height="308.643" fill="none" stroke="black"/>
<rect x="57.1929" y="38.5804" width="453.543" height="308.643" fill="white"/>
<rect x="57.1929" y="38.5804" width="453.543" height="308.643" fill="none" stroke="black"/>
<path d="M57.1929,339.42h 0.907087v 5.20259h 0.907087v -7.80388h 0.907087v -6.50323h 0.907087v -2.60129h 0.907087v -6.50323h 0.907087v -7.80388h 0.907087v -6.50323h 0.907087v -15.6078h 0.907087v -5.20259h 0.907087v -5.20259h 0.907087v -11.7058h
 0.907087v -5.20259h 0.907087v -28.6142h 0.907087v 1.30065h 0.907087v -48.1239h 0.907087v 20.8103h 0.907087v -53.3265h 0.907087v 2.60129h 0.907087v -36.4181h 0.907087v 2.60129h 0.907087v -3.90194h 0.907087v 10.4052h 0.907087v -18.209h 0.907087v
 -13.0065h 0.907087v -15.6078h 0.907087v 22.111h 0.907087v -42.9213h 0.907087v 16.9084h 0.907087v -27.3136h 0.907087v 46.8233h 0.907087v -27.3136h 0.907087v 5.20259h 0.907087v -23.4116h 0.907087v 29.9149h 0.907087v -10.4052h 0.907087v 1.30065h
 0.907087v 1.30065h 0.907087v 36.4181h 0.907087v -37.7187h 0.907087v 58.5291h 0.907087v -48.1239h 0.907087v 16.9084h 0.907087v 6.50323h 0.907087v -16.9084h 0.907087v 42.9213h 0.907087v -11.7058h 0.907087v 28.6142h 0.907087v 15.6078h 0.907087v
 -24.7123h 0.907087v -14.3071h 0.907087v 9.10452h 0.907087v 36.4181h 0.907087v -13.0065h 0.907087v -1.30065h 0.907087v 1.30065h 0.907087v 14.3071h 0.907087v 2.60129h 0.907087v 18.209h 0.907087v -19.5097h 0.907087v 42.9213h 0.907087v -2.60129h
 0.907087v -9.10452h 0.907087v -15.6078h 0.907087v 13.0065h 0.907087v -3.90194h 0.907087v 27.3136h 0.907087v -39.0194h 0.907087v 15.6078h 0.907087v 14.3071h 0.907087v -26.0129h 0.907087v 22.111h 0.907087v -3.90194h 0.907087v -10.4052h 0.907087v
 35.1175h 0.907087v -10.4052h 0.907087v 7.80388h 0.907087v 1.30065h 0.907087v -20.8103h 0.907087v 7.80388h 0.907087v 1.30065h 1.81417v 35.1175h 0.907087v -32.5162h 0.907087v 7.80388h 0.907087v 6.50323h 0.907087v 11.7058h 0.907087v 1.30065h 1.81417v
 -7.80388h 0.907087v 26.0129h 0.907087v -36.4181h 0.907087v -11.7058h 0.907087v 2.60129h 0.907087v -5.20259h 0.907087v 20.8103h 1.81417v 5.20259h 0.907087v -5.20259h 0.907087v -7.80388h 0.907087v 22.111h 0.907087v -2.60129h 0.907087v -19.5097h
 0.907087v 27.3136h 0.907087v -16.9084h 0.907087v 6.50323h 0.907087v -6.50323h 0.907087v 15.6078h 0.907087v 5.20259h 0.907087v -23.4116h 0.907087v 24.7123h 0.907087v -26.0129h 0.907087v 18.209h 0.907087v -5.20259h 0.907087v 1.30065h 0.907087v
 -23.4116h 0.907087v 35.1175h 0.907087v -15.6078h 1.81417v 15.6078h 0.907087v -32.5162h 0.907087v 22.111h 0.907087v -1.30065h 0.907087v -11.7058h 0.907087v 11.7058h 0.907087v 14.3071h 0.907087v -9.10452h 0.907087v 1.30065h 0.907087v -6.50323h
 0.907087v 6.50323h 0.907087v -5.20259h 0.907087v 6.50323h 0.907087v 2.60129h 0.907087v -1.30065h 0.907087v -3.90194h 0.907087v 5.20259h 0.907087v -3.90194h 0.907087v 27.3136h 0.907087v -35.1175h 0.907087v 6.50323h 0.907087v -15.6078h 0.907087v
 23.4116h 0.907087v -16.9084h 0.907087v 13.0065h 0.907087v -1.30065h 0.907087v 31.2155h 0.907087v -9.10452h 1.81417v -18.209h 0.907087v 14.3071h 0.907087v -13.0065h 0.907087v 11.7058h 0.907087v -11.7058h 0.907087v -1.30065h 0.907087v 15.6078h
 0.907087v -24.7123h 0.907087v 3.90194h 0.907087v 32.5162h 0.907087v -35.1175h 1.81417v 20.8103h 0.907087v -11.7058h 0.907087v -2.60129h 0.907087v 23.4116h 0.907087v -10.4052h 0.907087v -13.0065h 0.907087v 16.9084h 0.907087v 3.90194h 0.907087v
 -2.60129h 0.907087v -7.80388h 0.907087v 7.80388h 0.907087v -2.60129h 0.907087v 1.30065h 0.907087v 1.30065h 0.907087v 6.50323h 0.907087v -3.90194h 0.907087v -28.6142h 0.907087v 3.90194h 0.907087v 5.20259h 0.907087v 5.20259h 0.907087v -7.80388h
 0.907087v 6.50323h 0.907087v 13.0065h 0.907087v 1.30065h 0.907087v -2.60129h 0.907087v -11.7058h 0.907087v -2.60129h 0.907087v 9.10452h 0.907087v -16.9084h 0.907087v 16.9084h 0.907087v 14.3071h 0.907087v -13.0065h 0.907087v 6.50323h 0.907087v
 -9.10452h 0.907087v -16.9084h 0.907087v 3.90194h 0.907087v 20.8103h 0.907087v 2.60129h 0.907087v -20.8103h 0.907087v 6.50323h 0.907087v 3.90194h 0.907087v 5.20259h 0.907087v -23.4116h 0.907087v -1.30065h 0.907087v 1.30065h 0.907087v 9.10452h
 0.907087v 1.30065h 0.907087v 14.3071h 0.907087v -9.10452h 0.907087v 5.20259h 0.907087v -18.209h 1.81417v -22.111h 0.907087v 22.111h 0.907087v 9.10452h 0.907087v -28.6142h 0.907087v 16.9084h 1.81417v -5.20259h 0.907087v 7.80388h 0.907087v -5.20259h
 0.907087v 13.0065h 0.907087v -3.90194h 0.907087v -15.6078h 1.81417v 14.3071h 0.907087v -10.4052h 0.907087v -10.4052h 0.907087v 18.209h 0.907087v -13.0065h 0.907087v 1.30065h 0.907087v -14.3071h 0.907087v 31.2155h 0.907087v -13.0065h 0.907087v
 5.20259h 0.907087v -31.2155h 0.907087v 32.5162h 0.907087v -19.5097h 0.907087v 1.30065h 0.907087v -18.209h 0.907087v 29.9149h 0.907087v -10.4052h 0.907087v -19.5097h 0.907087v 22.111h 0.907087v 3.90194h 0.907087v -9.10452h 0.907087v -11.7058h
 0.907087v -2.60129h 0.907087v 22.111h 0.907087v -6.50323h 0.907087v -18.209h 0.907087v 23.4116h 0.907087v -29.9149h 0.907087v -1.30065h 0.907087v 16.9084h 0.907087v 1.30065h 0.907087v 27.3136h 0.907087v -28.6142h 0.907087v -14.3071h 0.907087v
 14.3071h 0.907087v -10.4052h 0.907087v 22.111h 2.72126v -10.4052h 0.907087v 7.80388h 0.907087v -19.5097h 0.907087v 1.30065h 0.907087v -5.20259h 0.907087v 7.80388h 0.907087v 9.10452h 0.907087v -18.209h 0.907087v 16.9084h 0.907087v 2.60129h 0.907087v
 -14.3071h 0.907087v -1.30065h 0.907087v 26.0129h 0.907087v -14.3071h 0.907087v 5.20259h 0.907087v -2.60129h 0.907087v -13.0065h 0.907087v -19.5097h 0.907087v 42.9213h 0.907087v -9.10452h 0.907087v 5.20259h 0.907087v -10.4052h 0.907087v -5.20259h
 1.81417v 19.5097h 0.907087v -10.4052h 0.907087v 13.0065h 0.907087v 5.20259h 0.907087v 6.50323h 0.907087v 2.60129h 0.907087v -15.6078h 0.907087v 18.209h 0.907087v -39.0194h 0.907087v 37.7187h 0.907087v -22.111h 0.907087v 28.6142h 0.907087v -1.30065h
 0.907087v -5.20259h 0.907087v 13.0065h 0.907087v -1.30065h 0.907087v -14.3071h 0.907087v 7.80388h 0.907087v 14.3071h 0.907087v 3.90194h 0.907087v 5.20259h 0.907087v 2.60129h 0.907087v -16.9084h 0.907087v 5.20259h 0.907087v -2.60129h 0.907087v
 20.8103h 0.907087v -7.80388h 0.907087v 5.20259h 1.81417v 1.30065h 0.907087v 13.0065h 0.907087v -5.20259h 0.907087v 7.80388h 0.907087v -13.0065h 0.907087v 9.10452h 0.907087v -1.30065h 0.907087v -10.4052h 0.907087v 26.0129h 0.907087v -2.60129h
 0.907087v 2.60129h 0.907087v -6.50323h 0.907087v 5.20259h 0.907087v 1.30065h 0.907087v 3.90194h 0.907087v -5.20259h 0.907087v 6.50323h 0.907087v -6.50323h 0.907087v -2.60129h 0.907087v 9.10452h 0.907087v -6.50323h 0.907087v 2.60129h 0.907087v
 10.4052h 0.907087v 3.90194h 0.907087v -10.4052h 0.907087v 2.60129h 0.907087v -3.90194h 0.907087v 6.50323h 0.907087v 1.30065h 1.81417v -1.30065h 0.907087v 3.90194h 0.907087v 2.60129h 0.907087v -6.50323h 0.907087v 7.80388h 0.907087v -3.90194h 1.81417v
 2.60129h 0.907087v -2.60129h 0.907087v 1.30065h 0.907087v 1.30065h 4.53543v 1.30065h 0.907087v 1.30065h 0.907087v -2.60129h 1.81417v 1.30065h 0.907087v -2.60129h 0.907087v 2.60129h 0.907087v 3.90194h 1.81417v -3.90194h 1.81417v 1.30065h 0.907087v
 -1.30065h 0.907087v -2.60129h 0.907087v 2.60129h 0.907087v 1.30065h 0.907087v -2.60129h 0.907087v 2.60129h 0.907087v 2.60129h 0.907087v -3.90194h 0.907087v -1.30065h 0.907087v 3.90194h 0.907087v -2.60129h 0.907087v -3.90194h 0.907087v 3.90194h
 1.81417v 1.30065h 0.907087v 2.60129h 0.907087v -1.30065h 0.907087v -1.30065h 0.907087v -2.60129h 0.907087v 1.30065h 0.907087v 2.60129h 1.81417v -2.60129h 0.907087v 2.60129h 3.62835v 1.30065h 1.81417v -1.30065h 0.907087v -1.30065h 0.907087v 2.60129h
 1.81417v -1.30065h 0.907087v 1.30065h 0.907087v -3.90194h 0.907087v 1.30065h 0.907087v 2.60129h 3.62835v -1.30065h 3.62835v 1.30065h 1.81417v -1.30065h 2.72126v 1.30065h 1.81417v -1.30065h 0.907087v 1.30065h 0.907087v -1.30065h 1.81417v 1.30065h
 3.62835v -1.30065h 0.907087v 1.30065h 8.16378v -1.30065h 0.907087v -1.30065h 0.907087v 1.30065h 0.907087v 1.30065h 7.25669v -1.30065h 0.907087v 1.30065h 0.907087v -1.30065h 2.72126v 1.30065h 3.62835v -1.30065h 0.907087v 1.30065h 0.907087v -1.30065h
 0.907087v 1.30065h 0.907087v -1.30065h 0.907087v 1.30065h 0.907087v -1.30065h 0.907087v 1.30065h 7.25669v -1.30065h 1.81417v 1.30065h 16.3276v -1.30065h 0.907087" fill="none" stroke="#000099"/>
<rect x="442.705" y="25.0773" width="113.386" height="61.7287" fill="white"/>
<path d="M442.705,86.8059h 113.386" fill="none" stroke="black"/>
<path d="M556.091,86.8059v -61.7287" fill="none" stroke="black"/>
<path d="M556.091,25.0773h -113.386" fill="none" stroke="black"/>
<path d="M442.705,25.0773v 61.7287" fill="none" stroke="black"/>
<text xml:space="preserve" x="469.963" y="36.5499" fill="black" font-size="13.5253" font-family="Helvetica">hist_area1</text>
<path d="M442.705,40.5094h 113.386" fill="none" stroke="black"/>
<text xml:space="preserve" x="448.033" y="52.7943" fill="black" font-size="13.1417" font-family="Helvetica">Entries </text>
<text xml:space="preserve" x="513.01" y="52.7943" fill="black" font-size="13.1417" font-family="Helvetica"> 27871</text>
<text xml:space="preserve" x="448.033" y="68.2264" fill="black" font-size="13.1417" font-family="Helvetica">Mean  </text>
<text xml:space="preserve" x="510.574" y="68.2264" fill="black" font-size="13.1417" font-family="Helvetica">  724.3</text>
<text xml:space="preserve" x="448.033" y="84.4708" fill="black" font-size="13.1417" font-family="Helvetica">Std Dev   </text>
<text xml:space="preserve" x="510.574" y="83.6586" fill="black" font-size="13.1417" font-family="Helvetica">  497.7</text>
<path d="M57.1929,347.224h 453.543" fill="none" stroke="black"/>
<path d="M57.1929,337.964v 9.2593" fill="none" stroke="black"/>
<path d="M75.3346,342.594v 4.62965" fill="none" stroke="black"/>
<path d="M93.4764,342.594v 4.62965" fill="none" stroke="black"/>
<path d="M111.618,342.594v 4.62965" fill="none" stroke="black"/>
<path d="M129.76,342.594v 4.62965" fill="none" stroke="black"/>
<path d="M147.902,337.964v 9.2593" fill="none" stroke="black"/>
<path d="M166.043,342.594v 4.62965" fill="none" stroke="black"/>
<path d="M184.185,342.594v 4.62965" fill="none" stroke="black"/>
<path d="M202.327,342.594v 4.62965" fill="none" stroke="black"/>
<path d="M220.469,342.594v 4.62965" fill="none" stroke="black"/>
<path d="M238.61,337.964v 9.2593" fill="none" stroke="black"/>
<path d="M256.752,342.594v 4.62965" fill="none" stroke="black"/>
<path d="M274.894,342.594v 4.62965" fill="none" stroke="black"/>
<path d="M293.035,342.594v 4.62965" fill="none" stroke="black"/>
<path d="M311.177,342.594v 4.62965" fill="none" stroke="black"/>
<path d="M329.319,337.964v 9.2593" fill="none" stroke="black"/>
<path d="M347.461,342.594v 4.62965" fill="none" stroke="black"/>
<path d="M365.602,342.594v 4.62965" fill="none" stroke="black"/>
<path d="M383.744,342.594v 4.62965" fill="none" stroke="black"/>
<path d="M401.886,342.594v 4.62965" fill="none" stroke="black"/>
<path d="M420.028,337.964v 9.2593" fill="none" stroke="black"/>
<path d="M438.169,342.594v 4.62965" fill="none" stroke="black"/>
<path d="M456.311,342.594v 4.62965" fill="none" stroke="black"/>
<path d="M474.453,342.594v 4.62965" fill="none" stroke="black"/>
<path d="M492.594,342.594v 4.62965" fill="none" stroke="black"/>
<path d="M510.736,337.964v 9.2593" fill="none" stroke="black"/>
<text xml:space="preserve" x="52.482" y="359.813" fill="black" font-size="12.8882" font-family="Helvetica">0</text>
<text xml:space="preserve" x="136.141" y="359.813" fill="black" font-size="12.8882" font-family="Helvetica">500</text>
<text xml:space="preserve" x="223.86" y="359.813" fill="black" font-size="12.8882" font-family="Helvetica">1000</text>
<text xml:space="preserve" x="314.017" y="359.813" fill="black" font-size="12.8882" font-family="Helvetica">1500</text>
<text xml:space="preserve" x="404.985" y="359.813" fill="black" font-size="12.8882" font-family="Helvetica">2000</text>
<text xml:space="preserve" x="495.954" y="359.813" fill="black" font-size="12.8882" font-family="Helvetica">2500</text>
<text xml:space="preserve" x="482.958" y="374.433" fill="black" font-size="12.8882" font-family="Helvetica">ADC</text>
<path d="M57.1929,347.224v -308.643" fill="none" stroke="black"/>
<path d="M70.7992,347.224h -13.6063" fill="none" stroke="black"/>
<path d="M63.9961,340.721h -6.80315" fill="none" stroke="black"/>
<path d="M63.9961,334.217h -6.80315" fill="none" stroke="black"/>
<path d="M63.9961,327.714h -6.80315" fill="none" stroke="black"/>
<path d="M70.7992,321.211h -13.6063" fill="none" stroke="black"/>
<path d="M63.9961,314.708h -6.80315" fill="none" stroke="black"/>
<path d="M63.9961,308.204h -6.80315" fill="none" stroke="black"/>
<path d="M63.9961,301.701h -6.80315" fill="none" stroke="black"/>
<path d="M70.7992,295.198h -13.6063" fill="none" stroke="black"/>
<path d="M63.9961,288.695h -6.80315" fill="none" stroke="black"/>
<path d="M63.9961,282.191h -6.80315" fill="none" stroke="black"/>
<path d="M63.9961,275.688h -6.80315" fill="none" stroke="black"/>
<path d="M70.7992,269.185h -13.6063" fill="none" stroke="black"/>
<path d="M63.9961,262.682h -6.80315" fill="none" stroke="black"/>
<path d="M63.9961,256.179h -6.80315" fill="none" stroke="black"/>
<path d="M63.9961,249.675h -6.80315" fill="none" stroke="black"/>
<path d="M70.7992,243.172h -13.6063" fill="none" stroke="black"/>
<path d="M63.9961,236.669h -6.80315" fill="none" stroke="black"/>
<path d="M63.9961,230.166h -6.80315" fill="none" stroke="black"/>
<path d="M63.9961,223.662h -6.80315" fill="none" stroke="black"/>
<path d="M70.7992,217.159h -13.6063" fill="none" stroke="black"/>
<path d="M63.9961,210.656h -6.80315" fill="none" stroke="black"/>
<path d="M63.9961,204.153h -6.80315" fill="none" stroke="black"/>
<path d="M63.9961,197.649h -6.80315" fill="none" stroke="black"/>
<path d="M70.7992,191.146h -13.6063" fill="none" stroke="black"/>
<path d="M63.9961,184.643h -6.80315" fill="none" stroke="black"/>
<path d="M63.9961,178.14h -6.80315" fill="none" stroke="black"/>
<path d="M63.9961,171.637h -6.80315" fill="none" stroke="black"/>
<path d="M70.7992,165.133h -13.6063" fill="none" stroke="black"/>
<path d="M63.9961,158.63h -6.80315" fill="none" stroke="black"/>
<path d="M63.9961,152.127h -6.80315" fill="none" stroke="black"/>
<path d="M63.9961,145.624h -6.80315" fill="none" stroke="black"/>
<path d="M70.7992,139.12h -13.6063" fill="none" stroke="black"/>
<path d="M63.9961,132.617h -6.80315" fill="none" stroke="black"/>
<path d="M63.9961,126.114h -6.80315" fill="none" stroke="black"/>
<path d="M63.9961,119.611h -6.80315" fill="none" stroke="black"/>
<path d="M70.7992,113.107h -13.6063" fill="none" stroke="black"/>
<path d="M63.9961,106.604h -6.80315" fill="none" stroke="black"/>
<path d="M63.9961,100.101h -6.80315" fill="none" stroke="black"/>
<path d="M63.9961,93.5978h -6.80315" fill="none" stroke="black"/>
<path d="M70.7992,87.0945h -13.6063" fill="none" stroke="black"/>
<path d="M63.9961,80.5913h -6.80315" fill="none" stroke="black"/>
<path d="M63.9961,74.0881h -6.80315" fill="none" stroke="black"/>
<path d="M63.9961,67.5848h -6.80315" fill="none" stroke="black"/>
<path d="M70.7992,61.0816h -13.6063" fill="none" stroke="black"/>
<path d="M70.7992,61.0816h -13.6063" fill="none" stroke="black"/>
<path d="M63.9961,54.5784h -6.80315" fill="none" stroke="black"/>
<path d="M63.9961,48.0751h -6.80315" fill="none" stroke="black"/>
<path d="M63.9961,41.5719h -6.80315" fill="none" stroke="black"/>
<text xml:space="preserve" x="46.7965" y="351.691" fill="black" font-size="12.8882" font-family="Helvetica">0</text>
<text xml:space="preserve" x="39.4865" y="325.7" fill="black" font-size="12.8882" font-family="Helvetica">20</text>
<text xml:space="preserve" x="39.4865" y="299.709" fill="black" font-size="12.8882" font-family="Helvetica">40</text>
<text xml:space="preserve" x="39.4865" y="273.718" fill="black" font-size="12.8882" font-family="Helvetica">60</text>
<text xml:space="preserve" x="39.4865" y="247.727" fill="black" font-size="12.8882" font-family="Helvetica">80</text>
<text xml:space="preserve" x="32.1766" y="221.736" fill="black" font-size="12.8882" font-family="Helvetica">100</text>
<text xml:space="preserve" x="32.1766" y="195.745" fill="black" font-size="12.8882" font-family="Helvetica">120</text>
<text xml:space="preserve" x="32.1766" y="169.754" fill="black" font-size="12.8882" font-family="Helvetica">140</text>
<text xml:space="preserve" x="32.1766" y="143.763" fill="black" font-size="12.8882" font-family="Helvetica">160</text>
<text xml:space="preserve" x="32.1766" y="117.772" fill="black" font-size="12.8882" font-family="Helvetica">180</text>
<text xml:space="preserve" x="32.1766" y="91.7808" fill="black" font-size="12.8882" font-family="Helvetica">200</text>
<text xml:space="preserve" x="32.1766" y="65.7898" fill="black" font-size="12.8882" font-family="Helvetica">220</text>
<g transform="rotate(-90,21.6177,71.4753)">
<text xml:space="preserve" x="21.6177" y="71.4753" fill="black" font-size="12.8882" font-family="Helvetica">Event</text>
</g>
<rect x="442.705" y="25.0773" width="113.386" height="61.7287" fill="white"/>
<path d="M442.705,86.8059h 113.386" fill="none" stroke="black"/>
<path d="M556.091,86.8059v -61.7287" fill="none" stroke="black"/>
<path d="M556.091,25.0773h -113.386" fill="none" stroke="black"/>
<path d="M442.705,25.0773v 61.7287" fill="none" stroke="black"/>
<text xml:space="preserve" x="469.963" y="36.5499" fill="black" font-size="13.5253" font-family="Helvetica">hist_area1</text>
<path d="M442.705,40.5094h 113.386" fill="none" stroke="black"/>
<text xml:space="preserve" x="448.033" y="52.7943" fill="black" font-size="13.1417" font-family="Helvetica">Entries </text>
<text xml:space="preserve" x="513.01" y="52.7943" fill="black" font-size="13.1417" font-family="Helvetica"> 27871</text>
<text xml:space="preserve" x="448.033" y="68.2264" fill="black" font-size="13.1417" font-family="Helvetica">Mean  </text>
<text xml:space="preserve" x="510.574" y="68.2264" fill="black" font-size="13.1417" font-family="Helvetica">  724.3</text>
<text xml:space="preserve" x="448.033" y="84.4708" fill="black" font-size="13.1417" font-family="Helvetica">Std Dev   </text>
<text xml:space="preserve" x="510.574" y="83.6586" fill="black" font-size="13.1417" font-family="Helvetica">  497.7</text>
<text xml:space="preserve" x="218.987" y="17.8688" fill="black" font-size="17.0471" font-family="Helvetica">Co_run1+2 area1</text></svg>
