<?xml version="1.0" standalone="no"?>
<svg width="567.429" height="386.304" viewBox="0 0 567.429 386.304" xmlns="http://www.w3.org/2000/svg" shape-rendering="crispEdges">
<title>
img/calibration/Co_run1+2 right area4.svg
</title>
<desc>
Creator: ROOT Version 6.22/08
CreationDate: Tue Jun  8 01:39:27 2021</desc>
<defs>
</defs>
<rect x="0.5" y="0" width="566.929" height="385.804" fill="white"/>
<rect x="57.1929" y="38.5804" width="453.543" height="308.643" fill="white"/>
<rect x="57.1929" y="38.5804" width="453.543" height="308.643" fill="none" stroke="black"/>
<rect x="57.1929" y="38.5804" width="453.543" height="308.643" fill="white"/>
<rect x="57.1929" y="38.5804" width="453.543" height="308.643" fill="none" stroke="black"/>
<path d="M57.1929,347.224h 1.81417v -8.39846h 1.81417v 8.39846h 0.907087v -16.7969h 0.907087v 8.39846h 0.907087v 8.39846h 0.907087v -8.39846h 0.907087v -50.3908h 0.907087v 8.39846h 0.907087v -8.39846h 0.907087v 16.7969h 0.907087v -16.7969h 0.907087v
 -25.1954h 0.907087v -58.7892h 0.907087v 92.383h 0.907087v -75.5861h 0.907087v -33.5938h 0.907087v -100.782h 0.907087v -8.39846h 0.907087v 109.18h 0.907087v -83.9846h 0.907087v 33.5938h 0.907087v -33.5938h 0.907087v -16.7969h 0.907087v -16.7969h
 0.907087v 67.1877h 0.907087v -16.7969h 0.907087v -67.1877h 0.907087v 75.5861h 0.907087v -25.1954h 0.907087v 25.1954h 0.907087v -16.7969h 1.81417v -16.7969h 0.907087v 8.39846h 0.907087v 41.9923h 0.907087v 33.5938h 0.907087v -33.5938h 0.907087v
 41.9923h 0.907087v -117.578h 0.907087v 67.1877h 0.907087v 41.9923h 0.907087v -58.7892h 0.907087v 41.9923h 0.907087v -75.5861h 0.907087v 50.3908h 0.907087v 25.1954h 0.907087v 67.1877h 0.907087v -50.3908h 0.907087v -33.5938h 0.907087v 16.7969h
 0.907087v 25.1954h 0.907087v -50.3908h 0.907087v 25.1954h 0.907087v 50.3908h 0.907087v -83.9846h 0.907087v 75.5861h 0.907087v 8.39846h 0.907087v 50.3908h 0.907087v -16.7969h 0.907087v -117.578h 0.907087v 117.578h 0.907087v 8.39846h 0.907087v
 -25.1954h 0.907087v -8.39846h 0.907087v -33.5938h 0.907087v 67.1877h 0.907087v -83.9846h 0.907087v 92.383h 1.81417v -25.1954h 0.907087v -25.1954h 0.907087v 8.39846h 0.907087v 83.9846h 0.907087v -67.1877h 0.907087v 33.5938h 0.907087v -109.18h
 0.907087v 58.7892h 0.907087v -8.39846h 0.907087v 25.1954h 0.907087v -8.39846h 0.907087v 8.39846h 0.907087v -25.1954h 0.907087v 75.5861h 1.81417v -41.9923h 1.81417v 16.7969h 0.907087v 25.1954h 0.907087v -25.1954h 0.907087v -8.39846h 0.907087v
 -50.3908h 0.907087v 58.7892h 0.907087v -33.5938h 0.907087v 16.7969h 0.907087v 33.5938h 0.907087v -41.9923h 0.907087v 67.1877h 0.907087v -50.3908h 0.907087v 8.39846h 0.907087v -33.5938h 0.907087v 41.9923h 0.907087v -33.5938h 0.907087v 25.1954h
 0.907087v 25.1954h 0.907087v -16.7969h 0.907087v 8.39846h 0.907087v 8.39846h 0.907087v 8.39846h 0.907087v -25.1954h 0.907087v -25.1954h 0.907087v 25.1954h 0.907087v -8.39846h 0.907087v -33.5938h 1.81417v 33.5938h 0.907087v -8.39846h 0.907087v
 8.39846h 0.907087v -41.9923h 0.907087v 50.3908h 1.81417v -25.1954h 0.907087v 25.1954h 0.907087v 33.5938h 0.907087v -33.5938h 0.907087v -41.9923h 0.907087v 25.1954h 1.81417v 33.5938h 0.907087v -8.39846h 0.907087v -8.39846h 0.907087v -33.5938h
 0.907087v 50.3908h 1.81417v -16.7969h 1.81417v 33.5938h 0.907087v -16.7969h 0.907087v -16.7969h 0.907087v 25.1954h 0.907087v -33.5938h 0.907087v 25.1954h 0.907087v -33.5938h 0.907087v 58.7892h 0.907087v -41.9923h 0.907087v 8.39846h 1.81417v 8.39846h
 0.907087v 8.39846h 0.907087v 16.7969h 0.907087v -50.3908h 0.907087v -8.39846h 0.907087v 41.9923h 0.907087v -92.383h 0.907087v 41.9923h 0.907087v 41.9923h 0.907087v -8.39846h 0.907087v -16.7969h 0.907087v 41.9923h 0.907087v -58.7892h 0.907087v
 8.39846h 0.907087v 58.7892h 0.907087v -25.1954h 0.907087v -25.1954h 0.907087v 16.7969h 0.907087v 41.9923h 0.907087v -25.1954h 0.907087v 25.1954h 0.907087v -25.1954h 0.907087v -25.1954h 0.907087v -33.5938h 0.907087v 75.5861h 0.907087v -41.9923h
 0.907087v 33.5938h 0.907087v -67.1877h 0.907087v 33.5938h 0.907087v -16.7969h 0.907087v -8.39846h 0.907087v 8.39846h 0.907087v 58.7892h 0.907087v -16.7969h 1.81417v 8.39846h 0.907087v -33.5938h 1.81417v 16.7969h 0.907087v 33.5938h 0.907087v
 -8.39846h 0.907087v -33.5938h 0.907087v 16.7969h 0.907087v 16.7969h 0.907087v -41.9923h 0.907087v -16.7969h 0.907087v 8.39846h 0.907087v 16.7969h 0.907087v 33.5938h 0.907087v -41.9923h 0.907087v 16.7969h 0.907087v 16.7969h 0.907087v -41.9923h
 1.81417v 25.1954h 0.907087v -16.7969h 0.907087v 25.1954h 0.907087v -8.39846h 0.907087v 8.39846h 0.907087v -25.1954h 0.907087v 16.7969h 0.907087v -33.5938h 0.907087v 8.39846h 0.907087v 8.39846h 0.907087v 16.7969h 0.907087v -25.1954h 0.907087v
 -16.7969h 1.81417v 50.3908h 0.907087v -41.9923h 0.907087v 41.9923h 0.907087v -41.9923h 0.907087v 50.3908h 0.907087v 8.39846h 0.907087v -100.782h 0.907087v 41.9923h 0.907087v 33.5938h 1.81417v -16.7969h 0.907087v -16.7969h 0.907087v -16.7969h
 0.907087v 25.1954h 0.907087v -33.5938h 0.907087v 50.3908h 0.907087v -8.39846h 0.907087v -75.5861h 0.907087v 50.3908h 0.907087v -16.7969h 0.907087v 8.39846h 0.907087v 16.7969h 0.907087v 16.7969h 1.81417v -33.5938h 0.907087v -41.9923h 0.907087v
 25.1954h 0.907087v 33.5938h 0.907087v -8.39846h 0.907087v 16.7969h 1.81417v 8.39846h 0.907087v 33.5938h 0.907087v -83.9846h 0.907087v 16.7969h 0.907087v -41.9923h 0.907087v 33.5938h 0.907087v 8.39846h 0.907087v 16.7969h 0.907087v 16.7969h 0.907087v
 -25.1954h 0.907087v -41.9923h 0.907087v 25.1954h 0.907087v 41.9923h 1.81417v -16.7969h 0.907087v -16.7969h 0.907087v 25.1954h 0.907087v 8.39846h 0.907087v -8.39846h 0.907087v -41.9923h 0.907087v -8.39846h 0.907087v 33.5938h 0.907087v -8.39846h
 0.907087v -16.7969h 0.907087v 67.1877h 0.907087v -33.5938h 0.907087v -33.5938h 0.907087v -8.39846h 0.907087v 41.9923h 0.907087v 33.5938h 0.907087v -58.7892h 0.907087v 33.5938h 1.81417v -58.7892h 0.907087v 50.3908h 0.907087v 25.1954h 0.907087v
 -33.5938h 0.907087v 33.5938h 0.907087v 16.7969h 0.907087v -25.1954h 0.907087v 16.7969h 0.907087v -41.9923h 0.907087v -16.7969h 0.907087v 33.5938h 0.907087v 50.3908h 0.907087v -41.9923h 0.907087v 8.39846h 0.907087v -25.1954h 0.907087v -41.9923h
 0.907087v 67.1877h 0.907087v -25.1954h 0.907087v -50.3908h 0.907087v 109.18h 1.81417v -16.7969h 0.907087v -8.39846h 0.907087v -25.1954h 0.907087v 16.7969h 0.907087v -8.39846h 0.907087v 25.1954h 1.81417v -16.7969h 1.81417v 16.7969h 1.81417v 8.39846h
 0.907087v -8.39846h 0.907087v 16.7969h 0.907087v -16.7969h 0.907087v 8.39846h 0.907087v 25.1954h 0.907087v 8.39846h 0.907087v -33.5938h 0.907087v 8.39846h 0.907087v 16.7969h 1.81417v 8.39846h 1.81417v -25.1954h 1.81417v 8.39846h 0.907087v 8.39846h
 0.907087v 16.7969h 0.907087v -16.7969h 0.907087v 16.7969h 0.907087v -25.1954h 0.907087v 8.39846h 1.81417v -8.39846h 1.81417v 16.7969h 2.72126v 8.39846h 0.907087v -8.39846h 3.62835v -25.1954h 0.907087v 33.5938h 0.907087v -8.39846h 0.907087v 8.39846h
 0.907087v -8.39846h 1.81417v 8.39846h 0.907087v -8.39846h 2.72126v 8.39846h 2.72126v -8.39846h 3.62835v 8.39846h 0.907087v -8.39846h 1.81417v 8.39846h 1.81417v -8.39846h 0.907087v 8.39846h 2.72126v -8.39846h 0.907087v 8.39846h 1.81417v -8.39846h
 0.907087v 8.39846h 1.81417v -8.39846h 0.907087v 8.39846h 2.72126v -8.39846h 0.907087v 8.39846h 10.885v -8.39846h 1.81417v 8.39846h 6.34961v -8.39846h 0.907087v 8.39846h 86.1732" fill="none" stroke="#000099"/>
<path d="M293.67,245.23l 1.26992, 1.06893l 1.26992, 1.11989l 1.26992, 1.17115l 1.26992, 1.22254l 1.26992, 1.27387l 1.26992, 1.32494l 1.26992, 1.37556l 1.26992, 1.42552l 1.26992, 1.47462l 1.26992, 1.52264l 1.26992, 1.56937l 1.26992, 1.61461l 1.26992,
 1.65813l 1.26992, 1.69974l 1.26992, 1.73923l 1.26992, 1.7764l 1.26992, 1.81108l 1.26992, 1.84309l 1.26992, 1.87226l 1.26992, 1.89845l 1.26992, 1.9215l 1.26992, 1.94131l 1.26992, 1.95776l 1.26992, 1.97077l 1.26992, 1.98027l 1.26992, 1.98621l 1.26992,
 1.98854l 1.26992, 1.98727l 1.26992, 1.9824l 1.26992, 1.97395l 1.26992, 1.96197l 1.26992, 1.94652l 1.26992, 1.92769l 1.26992, 1.90558l 1.26992, 1.88031l 1.26992, 1.85201l 1.26992, 1.82082l 1.26992, 1.78691l 1.26992, 1.75045l 1.26992, 1.71162l
 1.26992, 1.67062l 1.26992, 1.62764l 1.26992, 1.58289l 1.26992, 1.53658l 1.26992, 1.48892l 1.26992, 1.44012l 1.26992, 1.39039l 1.26992, 1.33994l 1.26992, 1.28898" fill="none" stroke="#ff0000" stroke-width="2"/>
<path d="M355.897,327.292l 1.26992, 1.23771l 1.26992, 1.18632l 1.26992, 1.135l 1.26992, 1.08393l 1.26992, 1.03328l 1.26992, 0.983214l 1.26992, 0.933874l 1.26992, 0.885401l 1.26992, 0.837921l 1.26992, 0.791548l 1.26992, 0.746385l 1.26992, 0.702522l
 1.26992, 0.660037l 1.26992, 0.618997l 1.26992, 0.579455l 1.26992, 0.541454l 1.26992, 0.505028l 1.26992, 0.470198l 1.26992, 0.436976l 1.26992, 0.405364l 1.26992, 0.375357l 1.26992, 0.346941l 1.26992, 0.320094l 1.26992, 0.294789l 1.26992, 0.270991l
 1.26992, 0.248663l 1.26992, 0.227761l 1.26992, 0.208237l 1.26992, 0.190041l 1.26992, 0.173121l 1.26992, 0.157421l 1.26992, 0.142885l 1.26992, 0.129456l 1.26992, 0.117076l 1.26992, 0.105689l 1.26992, 0.0952352l 1.26992, 0.0856601l 1.26992, 0.0769079l
 1.26992, 0.0689247l 1.26992, 0.0616581l 1.26992, 0.0550575l 1.26992, 0.0490744l 1.26992, 0.043662l 1.26992, 0.0387761l 1.26992, 0.0343745l 1.26992, 0.0304172l 1.26992, 0.0268667l 1.26992, 0.0236876l 1.26992, 0.0208467" fill="none" stroke="#ff0000"
 stroke-width="2"/>
<path d="M418.123,347.086l 1.26992, 0.0183133" fill="none" stroke="#ff0000" stroke-width="2"/>
<rect x="442.705" y="25.0773" width="113.386" height="61.7287" fill="white"/>
<path d="M442.705,86.8059h 113.386" fill="none" stroke="black"/>
<path d="M556.091,86.8059v -61.7287" fill="none" stroke="black"/>
<path d="M556.091,25.0773h -113.386" fill="none" stroke="black"/>
<path d="M442.705,25.0773v 61.7287" fill="none" stroke="black"/>
<text xml:space="preserve" x="462.653" y="36.5499" fill="black" font-size="13.5253" font-family="Helvetica">hist_area4_r</text>
<path d="M442.705,40.5094h 113.386" fill="none" stroke="black"/>
<text xml:space="preserve" x="448.033" y="52.7943" fill="black" font-size="13.5109" font-family="Helvetica">Entries </text>
<text xml:space="preserve" x="517.884" y="52.7943" fill="black" font-size="13.5109" font-family="Helvetica"> 3758</text>
<text xml:space="preserve" x="448.033" y="68.2264" fill="black" font-size="13.5109" font-family="Helvetica">Mean  </text>
<text xml:space="preserve" x="510.574" y="68.2264" fill="black" font-size="13.5109" font-family="Helvetica">  715.6</text>
<text xml:space="preserve" x="448.033" y="84.4708" fill="black" font-size="13.5109" font-family="Helvetica">Std Dev   </text>
<text xml:space="preserve" x="513.01" y="83.6586" fill="black" font-size="13.5109" font-family="Helvetica">  488.1</text>
<path d="M57.1929,347.224h 453.543" fill="none" stroke="black"/>
<path d="M57.1929,337.964v 9.2593" fill="none" stroke="black"/>
<path d="M75.3346,342.594v 4.62965" fill="none" stroke="black"/>
<path d="M93.4764,342.594v 4.62965" fill="none" stroke="black"/>
<path d="M111.618,342.594v 4.62965" fill="none" stroke="black"/>
<path d="M129.76,342.594v 4.62965" fill="none" stroke="black"/>
<path d="M147.902,337.964v 9.2593" fill="none" stroke="black"/>
<path d="M166.043,342.594v 4.62965" fill="none" stroke="black"/>
<path d="M184.185,342.594v 4.62965" fill="none" stroke="black"/>
<path d="M202.327,342.594v 4.62965" fill="none" stroke="black"/>
<path d="M220.469,342.594v 4.62965" fill="none" stroke="black"/>
<path d="M238.61,337.964v 9.2593" fill="none" stroke="black"/>
<path d="M256.752,342.594v 4.62965" fill="none" stroke="black"/>
<path d="M274.894,342.594v 4.62965" fill="none" stroke="black"/>
<path d="M293.035,342.594v 4.62965" fill="none" stroke="black"/>
<path d="M311.177,342.594v 4.62965" fill="none" stroke="black"/>
<path d="M329.319,337.964v 9.2593" fill="none" stroke="black"/>
<path d="M347.461,342.594v 4.62965" fill="none" stroke="black"/>
<path d="M365.602,342.594v 4.62965" fill="none" stroke="black"/>
<path d="M383.744,342.594v 4.62965" fill="none" stroke="black"/>
<path d="M401.886,342.594v 4.62965" fill="none" stroke="black"/>
<path d="M420.028,337.964v 9.2593" fill="none" stroke="black"/>
<path d="M438.169,342.594v 4.62965" fill="none" stroke="black"/>
<path d="M456.311,342.594v 4.62965" fill="none" stroke="black"/>
<path d="M474.453,342.594v 4.62965" fill="none" stroke="black"/>
<path d="M492.594,342.594v 4.62965" fill="none" stroke="black"/>
<path d="M510.736,337.964v 9.2593" fill="none" stroke="black"/>
<text xml:space="preserve" x="52.482" y="359.813" fill="black" font-size="12.8882" font-family="Helvetica">0</text>
<text xml:space="preserve" x="136.141" y="359.813" fill="black" font-size="12.8882" font-family="Helvetica">500</text>
<text xml:space="preserve" x="223.86" y="359.813" fill="black" font-size="12.8882" font-family="Helvetica">1000</text>
<text xml:space="preserve" x="314.017" y="359.813" fill="black" font-size="12.8882" font-family="Helvetica">1500</text>
<text xml:space="preserve" x="404.985" y="359.813" fill="black" font-size="12.8882" font-family="Helvetica">2000</text>
<text xml:space="preserve" x="495.954" y="359.813" fill="black" font-size="12.8882" font-family="Helvetica">2500</text>
<text xml:space="preserve" x="482.958" y="374.433" fill="black" font-size="12.8882" font-family="Helvetica">ADC</text>
<path d="M57.1929,347.224v -308.643" fill="none" stroke="black"/>
<path d="M70.7992,347.224h -13.6063" fill="none" stroke="black"/>
<path d="M63.9961,338.825h -6.80315" fill="none" stroke="black"/>
<path d="M63.9961,330.427h -6.80315" fill="none" stroke="black"/>
<path d="M63.9961,322.028h -6.80315" fill="none" stroke="black"/>
<path d="M63.9961,313.63h -6.80315" fill="none" stroke="black"/>
<path d="M70.7992,305.232h -13.6063" fill="none" stroke="black"/>
<path d="M63.9961,296.833h -6.80315" fill="none" stroke="black"/>
<path d="M63.9961,288.435h -6.80315" fill="none" stroke="black"/>
<path d="M63.9961,280.036h -6.80315" fill="none" stroke="black"/>
<path d="M63.9961,271.638h -6.80315" fill="none" stroke="black"/>
<path d="M70.7992,263.239h -13.6063" fill="none" stroke="black"/>
<path d="M63.9961,254.841h -6.80315" fill="none" stroke="black"/>
<path d="M63.9961,246.442h -6.80315" fill="none" stroke="black"/>
<path d="M63.9961,238.044h -6.80315" fill="none" stroke="black"/>
<path d="M63.9961,229.645h -6.80315" fill="none" stroke="black"/>
<path d="M70.7992,221.247h -13.6063" fill="none" stroke="black"/>
<path d="M63.9961,212.848h -6.80315" fill="none" stroke="black"/>
<path d="M63.9961,204.45h -6.80315" fill="none" stroke="black"/>
<path d="M63.9961,196.052h -6.80315" fill="none" stroke="black"/>
<path d="M63.9961,187.653h -6.80315" fill="none" stroke="black"/>
<path d="M70.7992,179.255h -13.6063" fill="none" stroke="black"/>
<path d="M63.9961,170.856h -6.80315" fill="none" stroke="black"/>
<path d="M63.9961,162.458h -6.80315" fill="none" stroke="black"/>
<path d="M63.9961,154.059h -6.80315" fill="none" stroke="black"/>
<path d="M63.9961,145.661h -6.80315" fill="none" stroke="black"/>
<path d="M70.7992,137.262h -13.6063" fill="none" stroke="black"/>
<path d="M63.9961,128.864h -6.80315" fill="none" stroke="black"/>
<path d="M63.9961,120.465h -6.80315" fill="none" stroke="black"/>
<path d="M63.9961,112.067h -6.80315" fill="none" stroke="black"/>
<path d="M63.9961,103.668h -6.80315" fill="none" stroke="black"/>
<path d="M70.7992,95.27h -13.6063" fill="none" stroke="black"/>
<path d="M63.9961,86.8716h -6.80315" fill="none" stroke="black"/>
<path d="M63.9961,78.4731h -6.80315" fill="none" stroke="black"/>
<path d="M63.9961,70.0746h -6.80315" fill="none" stroke="black"/>
<path d="M63.9961,61.6762h -6.80315" fill="none" stroke="black"/>
<path d="M70.7992,53.2777h -13.6063" fill="none" stroke="black"/>
<path d="M70.7992,53.2777h -13.6063" fill="none" stroke="black"/>
<path d="M63.9961,44.8793h -6.80315" fill="none" stroke="black"/>
<text xml:space="preserve" x="46.7965" y="351.691" fill="black" font-size="12.8882" font-family="Helvetica">0</text>
<text xml:space="preserve" x="46.7965" y="309.456" fill="black" font-size="12.8882" font-family="Helvetica">5</text>
<text xml:space="preserve" x="39.4865" y="268.032" fill="black" font-size="12.8882" font-family="Helvetica">10</text>
<text xml:space="preserve" x="39.4865" y="225.797" fill="black" font-size="12.8882" font-family="Helvetica">15</text>
<text xml:space="preserve" x="39.4865" y="183.562" fill="black" font-size="12.8882" font-family="Helvetica">20</text>
<text xml:space="preserve" x="39.4865" y="141.326" fill="black" font-size="12.8882" font-family="Helvetica">25</text>
<text xml:space="preserve" x="39.4865" y="99.903" fill="black" font-size="12.8882" font-family="Helvetica">30</text>
<text xml:space="preserve" x="39.4865" y="57.6676" fill="black" font-size="12.8882" font-family="Helvetica">35</text>
<g transform="rotate(-90,28.9277,71.4753)">
<text xml:space="preserve" x="28.9277" y="71.4753" fill="black" font-size="12.8882" font-family="Helvetica">Event</text>
</g>
<rect x="442.705" y="25.0773" width="113.386" height="61.7287" fill="white"/>
<path d="M442.705,86.8059h 113.386" fill="none" stroke="black"/>
<path d="M556.091,86.8059v -61.7287" fill="none" stroke="black"/>
<path d="M556.091,25.0773h -113.386" fill="none" stroke="black"/>
<path d="M442.705,25.0773v 61.7287" fill="none" stroke="black"/>
<text xml:space="preserve" x="462.653" y="36.5499" fill="black" font-size="13.5253" font-family="Helvetica">hist_area4_r</text>
<path d="M442.705,40.5094h 113.386" fill="none" stroke="black"/>
<text xml:space="preserve" x="448.033" y="52.7943" fill="black" font-size="13.5109" font-family="Helvetica">Entries </text>
<text xml:space="preserve" x="517.884" y="52.7943" fill="black" font-size="13.5109" font-family="Helvetica"> 3758</text>
<text xml:space="preserve" x="448.033" y="68.2264" fill="black" font-size="13.5109" font-family="Helvetica">Mean  </text>
<text xml:space="preserve" x="510.574" y="68.2264" fill="black" font-size="13.5109" font-family="Helvetica">  715.6</text>
<text xml:space="preserve" x="448.033" y="84.4708" fill="black" font-size="13.5109" font-family="Helvetica">Std Dev   </text>
<text xml:space="preserve" x="513.01" y="83.6586" fill="black" font-size="13.5109" font-family="Helvetica">  488.1</text>
<text xml:space="preserve" x="189.747" y="18.681" fill="black" font-size="18.7414" font-family="Helvetica">Co_run1+2 right area4</text></svg>
