<?xml version="1.0" standalone="no"?>
<svg width="567.429" height="386.304" viewBox="0 0 567.429 386.304" xmlns="http://www.w3.org/2000/svg" shape-rendering="crispEdges">
<title>
img/calibration/Co_run1+2 area4.svg
</title>
<desc>
Creator: ROOT Version 6.22/08
CreationDate: Wed Jun  9 14:01:43 2021</desc>
<defs>
</defs>
<rect x="0.5" y="0" width="566.929" height="385.804" fill="white"/>
<rect x="57.1929" y="38.5804" width="453.543" height="308.643" fill="white"/>
<rect x="57.1929" y="38.5804" width="453.543" height="308.643" fill="none" stroke="black"/>
<rect x="57.1929" y="38.5804" width="453.543" height="308.643" fill="white"/>
<rect x="57.1929" y="38.5804" width="453.543" height="308.643" fill="none" stroke="black"/>
<path d="M57.1929,345.797h 0.907087v 1.42692h 0.907087v -1.42692h 0.907087v -1.42692h 0.907087v 1.42692h 0.907087v 1.42692h 0.907087v -1.42692h 2.72126v 1.42692h 0.907087v -2.85385h 1.81417v 2.85385h 0.907087v -1.42692h 0.907087v 1.42692h 1.81417v
 -1.42692h 1.81417v 1.42692h 0.907087v -1.42692h 0.907087v 1.42692h 1.81417v -1.42692h 1.81417v 1.42692h 3.62835v -1.42692h 1.81417v -1.42692h 0.907087v 1.42692h 1.81417v 1.42692h 1.81417v -1.42692h 0.907087v -1.42692h 0.907087v 2.85385h 0.907087v
 -2.85385h 0.907087v 2.85385h 1.81417v -1.42692h 0.907087v -1.42692h 0.907087v 1.42692h 0.907087v -4.28077h 0.907087v 4.28077h 1.81417v -2.85385h 0.907087v -4.28077h 0.907087v 1.42692h 0.907087v -4.28077h 0.907087v -4.28077h 0.907087v -11.4154h
 0.907087v -1.42692h 0.907087v -7.13461h 0.907087v -9.98846h 0.907087v 2.85385h 0.907087v -22.8308h 0.907087v 17.1231h 0.907087v -14.2692h 0.907087v -11.4154h 0.907087v 5.70769h 0.907087v -8.56154h 0.907087v -17.1231h 0.907087v 17.1231h 0.907087v
 -31.3923h 0.907087v 7.13461h 0.907087v -5.70769h 0.907087v -8.56154h 0.907087v -31.3923h 1.81417v 5.70769h 0.907087v -34.2461h 0.907087v -1.42692h 0.907087v 7.13461h 0.907087v -48.5154h 0.907087v 25.6846h 1.81417v -5.70769h 0.907087v 8.56154h
 0.907087v -34.2461h 0.907087v 27.1115h 0.907087v -24.2577h 0.907087v 24.2577h 0.907087v -39.9538h 0.907087v 22.8308h 0.907087v 4.28077h 0.907087v -14.2692h 0.907087v 27.1115h 0.907087v -4.28077h 0.907087v 9.98846h 1.81417v -24.2577h 0.907087v
 27.1115h 0.907087v -21.4038h 0.907087v 17.1231h 0.907087v 19.9769h 0.907087v -39.9538h 0.907087v 29.9654h 0.907087v 15.6961h 0.907087v -11.4154h 0.907087v -7.13461h 0.907087v -12.8423h 0.907087v 21.4038h 0.907087v 2.85385h 0.907087v 8.56154h
 0.907087v -28.5385h 0.907087v 21.4038h 0.907087v -15.6961h 0.907087v 48.5154h 0.907087v 9.98846h 0.907087v -31.3923h 0.907087v 1.42692h 0.907087v -1.42692h 0.907087v -5.70769h 0.907087v -21.4038h 0.907087v 45.6615h 0.907087v -32.8192h 0.907087v
 15.6961h 0.907087v -9.98846h 0.907087v 22.8308h 0.907087v -5.70769h 0.907087v 12.8423h 0.907087v -11.4154h 0.907087v -12.8423h 0.907087v -11.4154h 0.907087v 5.70769h 0.907087v 18.55h 0.907087v 11.4154h 0.907087v -21.4038h 0.907087v -5.70769h
 0.907087v 19.9769h 0.907087v 14.2692h 0.907087v -17.1231h 0.907087v 17.1231h 0.907087v -9.98846h 0.907087v 1.42692h 0.907087v 12.8423h 0.907087v -14.2692h 0.907087v 25.6846h 0.907087v -29.9654h 0.907087v 29.9654h 0.907087v -29.9654h 0.907087v
 21.4038h 0.907087v 19.9769h 0.907087v -21.4038h 0.907087v -4.28077h 0.907087v 15.6961h 0.907087v -18.55h 0.907087v -5.70769h 0.907087v 19.9769h 0.907087v -35.6731h 0.907087v 25.6846h 0.907087v 2.85385h 0.907087v -12.8423h 0.907087v -5.70769h
 0.907087v 14.2692h 0.907087v -15.6961h 0.907087v 9.98846h 0.907087v 32.8192h 0.907087v -11.4154h 0.907087v -18.55h 0.907087v -5.70769h 0.907087v 8.56154h 0.907087v -21.4038h 0.907087v 12.8423h 0.907087v 5.70769h 0.907087v 19.9769h 1.81417v -12.8423h
 0.907087v -5.70769h 0.907087v -12.8423h 1.81417v 11.4154h 0.907087v 5.70769h 0.907087v -54.2231h 0.907087v 68.4923h 0.907087v -11.4154h 0.907087v 8.56154h 0.907087v -31.3923h 0.907087v 5.70769h 0.907087v 9.98846h 0.907087v -1.42692h 0.907087v
 9.98846h 0.907087v -2.85385h 0.907087v -8.56154h 0.907087v 4.28077h 1.81417v -14.2692h 0.907087v -2.85385h 0.907087v 24.2577h 0.907087v -2.85385h 0.907087v -4.28077h 0.907087v -18.55h 0.907087v 21.4038h 0.907087v -2.85385h 0.907087v -7.13461h
 0.907087v 17.1231h 0.907087v -48.5154h 0.907087v 8.56154h 0.907087v 24.2577h 0.907087v 8.56154h 0.907087v -19.9769h 0.907087v 4.28077h 0.907087v -29.9654h 1.81417v 37.1h 0.907087v -2.85385h 0.907087v 21.4038h 0.907087v -15.6961h 0.907087v -22.8308h
 0.907087v 17.1231h 0.907087v 8.56154h 0.907087v -17.1231h 0.907087v 11.4154h 1.81417v -22.8308h 0.907087v -1.42692h 1.81417v -38.5269h 0.907087v 44.2346h 0.907087v 24.2577h 0.907087v -14.2692h 0.907087v -12.8423h 0.907087v 8.56154h 0.907087v
 -7.13461h 0.907087v -11.4154h 0.907087v 5.70769h 0.907087v 31.3923h 0.907087v -8.56154h 0.907087v 18.55h 0.907087v -7.13461h 0.907087v 24.2577h 0.907087v -31.3923h 0.907087v 28.5385h 0.907087v -24.2577h 0.907087v 32.8192h 0.907087v -5.70769h
 0.907087v -2.85385h 0.907087v 21.4038h 0.907087v -15.6961h 0.907087v -14.2692h 0.907087v 14.2692h 0.907087v 12.8423h 0.907087v 11.4154h 0.907087v -27.1115h 0.907087v 11.4154h 0.907087v -8.56154h 0.907087v -2.85385h 0.907087v 8.56154h 0.907087v
 -19.9769h 0.907087v 9.98846h 0.907087v -9.98846h 1.81417v -2.85385h 0.907087v 2.85385h 0.907087v -9.98846h 0.907087v -9.98846h 0.907087v -2.85385h 0.907087v -2.85385h 0.907087v -14.2692h 0.907087v 2.85385h 0.907087v -17.1231h 0.907087v -5.70769h
 0.907087v -2.85385h 0.907087v -15.6961h 0.907087v -48.5154h 0.907087v 25.6846h 0.907087v -7.13461h 0.907087v 17.1231h 0.907087v -45.6615h 0.907087v -41.3808h 0.907087v 19.9769h 0.907087v -19.9769h 0.907087v 12.8423h 0.907087v 69.9192h 0.907087v
 -14.2692h 0.907087v 19.9769h 0.907087v 11.4154h 0.907087v -4.28077h 0.907087v -1.42692h 0.907087v 14.2692h 0.907087v 47.0884h 0.907087v -2.85385h 0.907087v 18.55h 0.907087v 38.5269h 0.907087v -18.55h 0.907087v 24.2577h 0.907087v -4.28077h 0.907087v
 9.98846h 0.907087v -4.28077h 0.907087v 15.6961h 0.907087v -4.28077h 0.907087v -17.1231h 0.907087v 37.1h 0.907087v -38.5269h 0.907087v 1.42692h 0.907087v -19.9769h 0.907087v 32.8192h 0.907087v -22.8308h 0.907087v -32.8192h 0.907087v -22.8308h
 0.907087v 22.8308h 0.907087v -39.9538h 0.907087v 22.8308h 0.907087v -19.9769h 0.907087v 19.9769h 0.907087v -47.0884h 0.907087v -5.70769h 0.907087v 2.85385h 0.907087v 7.13461h 0.907087v 24.2577h 0.907087v -15.6961h 0.907087v 25.6846h 0.907087v
 -2.85385h 0.907087v -21.4038h 0.907087v 42.8077h 0.907087v 8.56154h 0.907087v 7.13461h 0.907087v 18.55h 0.907087v 19.9769h 0.907087v -4.28077h 0.907087v 27.1115h 0.907087v -5.70769h 0.907087v 27.1115h 0.907087v -2.85385h 0.907087v 4.28077h 0.907087v
 -4.28077h 0.907087v 15.6961h 0.907087v 7.13461h 0.907087v 1.42692h 0.907087v 1.42692h 0.907087v -2.85385h 0.907087v 7.13461h 2.72126v 5.70769h 5.44252v -2.85385h 1.81417v 4.28077h 2.72126v -1.42692h 0.907087v 1.42692h 0.907087v -1.42692h 0.907087v
 -1.42692h 0.907087v 1.42692h 0.907087v -1.42692h 0.907087v 2.85385h 2.72126v -1.42692h 0.907087v 1.42692h 0.907087v -1.42692h 0.907087v 1.42692h 2.72126v -2.85385h 0.907087v 1.42692h 0.907087v -1.42692h 0.907087v 2.85385h 1.81417v -1.42692h 1.81417v
 -1.42692h 0.907087v 2.85385h 0.907087v -2.85385h 0.907087v 2.85385h 9.07087v -2.85385h 0.907087v 2.85385h 0.907087v -1.42692h 1.81417v 1.42692h 7.25669v -1.42692h 0.907087v 1.42692h 0.907087v -1.42692h 0.907087v 1.42692h 6.34961v -2.85385h 0.907087v
 1.42692h 1.81417v 1.42692h 2.72126v -2.85385h 0.907087v 2.85385h 2.72126v -2.85385h 0.907087v 2.85385h 3.62835v -1.42692h 0.907087v 1.42692h 8.16378v -1.42692h 0.907087v 1.42692h 6.34961v -1.42692h 0.907087v 1.42692h 0.907087v -1.42692h 0.907087v
 1.42692h 7.25669v -1.42692h 0.907087v -1.42692h 0.907087v 2.85385h 2.72126v -1.42692h 0.907087v 1.42692h 1.81417v -1.42692h 0.907087v 1.42692h 2.72126v -1.42692h 0.907087v 1.42692h 2.72126v -1.42692h 0.907087v 1.42692h 0.907087v -1.42692h 0.907087v
 1.42692h 4.53543v -2.85385h 0.907087v 2.85385h 5.44252v -1.42692h 0.907087v 1.42692h 12.6992v -1.42692h 0.907087v 1.42692h 0.907087v -1.42692h 0.907087v 1.42692h 1.81417v -1.42692h 0.907087" fill="none" stroke="#000099"/>
<path d="M293.398,215.019l 0.725669, -12.1598l 0.725669, -12.2846l 0.725669, -12.2586l 0.725669, -12.0699l 0.725669, -11.7102l 0.725669, -11.1749l 0.725669, -10.4637l 0.725669, -9.58073l 0.725669, -8.53499l 0.725669, -7.33997l 0.725669, -6.01355l
 0.725669, -4.57756l 0.725669, -3.05724l 0.725669, -1.4805l 0.725669, 0.122923l 0.725669, 1.7223l 0.725669, 3.28689l 0.725669, 4.78685l 0.725669, 6.19411l 0.725669, 7.4832l 0.725669, 8.63185l 0.725669, 9.62157l 0.725669, 10.438l 0.725669, 11.0711l
 0.725669, 11.5151l 0.725669, 11.7686l 0.725669, 11.8338l 0.725669, 11.7165l 0.725669, 11.4257l 0.725669, 10.9726l 0.725669, 10.3704l 0.725669, 9.6338l 0.725669, 8.77815l 0.725669, 7.81946l 0.725669, 6.77388l 0.725669, 5.65753l 0.725669, 4.48638l
 0.725669, 3.27626l 0.725669, 2.04292l 0.725669, 0.802134l 0.725669, -0.430122l 0.725669, -1.63755l 0.725669, -2.80342l 0.725669, -3.91051l 0.725669, -4.94123l 0.725669, -5.87771l 0.725669, -6.70216l 0.725669, -7.39726l 0.725669, -7.94672"
 fill="none" stroke="#ff0000" stroke-width="2"/>
<path d="M328.956,242.899l 0.725669, -8.33584l 0.725669, -8.55226l 0.725669, -8.5866l 0.725669, -8.43312l 0.725669, -8.09033l 0.725669, -7.56138l 0.725669, -6.85442l 0.725669, -5.98258l 0.725669, -4.96388l 0.725669, -3.82083l 0.725669, -2.57979l
 0.725669, -1.27018l 0.725669, 0.0764995l 0.725669, 1.42781l 0.725669, 2.7515l 0.725669, 4.01668l 0.725669, 5.19496l 0.725669, 6.26135l 0.725669, 7.19517l 0.725669, 7.98056l 0.725669, 8.6069l 0.725669, 9.06893l 0.725669, 9.3666l 0.725669, 9.50474l
 0.725669, 9.49257l 0.725669, 9.34295l 0.725669, 9.07167l 0.725669, 8.69653l 0.725669, 8.23657l 0.725669, 7.71119l 0.725669, 7.13946l 0.725669, 6.53943l 0.725669, 5.92765l 0.725669, 5.31876l 0.725669, 4.72525l 0.725669, 4.15732l 0.725669, 3.62287l
 0.725669, 3.12758l 0.725669, 2.67511l 0.725669, 2.26727l 0.725669, 1.90432l 0.725669, 1.58524l 0.725669, 1.30799l 0.725669, 1.0698l 0.725669, 0.867401l 0.725669, 0.697244l 0.725669, 0.555677l 0.725669, 0.439092l 0.725669, 0.344038" fill="none"
 stroke="#ff0000" stroke-width="2"/>
<path d="M364.514,346.142l 0.725669, 0.267296" fill="none" stroke="#ff0000" stroke-width="2"/>
<rect x="442.705" y="25.0773" width="113.386" height="61.7287" fill="white"/>
<path d="M442.705,86.8059h 113.386" fill="none" stroke="black"/>
<path d="M556.091,86.8059v -61.7287" fill="none" stroke="black"/>
<path d="M556.091,25.0773h -113.386" fill="none" stroke="black"/>
<path d="M442.705,25.0773v 61.7287" fill="none" stroke="black"/>
<text xml:space="preserve" x="468.338" y="36.5499" fill="black" font-size="13.5253" font-family="Helvetica">hist_area4</text>
<path d="M442.705,40.5094h 113.386" fill="none" stroke="black"/>
<text xml:space="preserve" x="448.033" y="52.7943" fill="black" font-size="13.1417" font-family="Helvetica">Entries </text>
<text xml:space="preserve" x="513.01" y="52.7943" fill="black" font-size="13.1417" font-family="Helvetica"> 27871</text>
<text xml:space="preserve" x="448.033" y="68.2264" fill="black" font-size="13.1417" font-family="Helvetica">Mean  </text>
<text xml:space="preserve" x="510.574" y="68.2264" fill="black" font-size="13.1417" font-family="Helvetica">  936.3</text>
<text xml:space="preserve" x="448.033" y="84.4708" fill="black" font-size="13.1417" font-family="Helvetica">Std Dev   </text>
<text xml:space="preserve" x="513.823" y="83.6586" fill="black" font-size="13.1417" font-family="Helvetica">    394</text>
<path d="M57.1929,347.224h 453.543" fill="none" stroke="black"/>
<path d="M57.1929,337.964v 9.2593" fill="none" stroke="black"/>
<path d="M75.3346,342.594v 4.62965" fill="none" stroke="black"/>
<path d="M93.4764,342.594v 4.62965" fill="none" stroke="black"/>
<path d="M111.618,342.594v 4.62965" fill="none" stroke="black"/>
<path d="M129.76,342.594v 4.62965" fill="none" stroke="black"/>
<path d="M147.902,337.964v 9.2593" fill="none" stroke="black"/>
<path d="M166.043,342.594v 4.62965" fill="none" stroke="black"/>
<path d="M184.185,342.594v 4.62965" fill="none" stroke="black"/>
<path d="M202.327,342.594v 4.62965" fill="none" stroke="black"/>
<path d="M220.469,342.594v 4.62965" fill="none" stroke="black"/>
<path d="M238.61,337.964v 9.2593" fill="none" stroke="black"/>
<path d="M256.752,342.594v 4.62965" fill="none" stroke="black"/>
<path d="M274.894,342.594v 4.62965" fill="none" stroke="black"/>
<path d="M293.035,342.594v 4.62965" fill="none" stroke="black"/>
<path d="M311.177,342.594v 4.62965" fill="none" stroke="black"/>
<path d="M329.319,337.964v 9.2593" fill="none" stroke="black"/>
<path d="M347.461,342.594v 4.62965" fill="none" stroke="black"/>
<path d="M365.602,342.594v 4.62965" fill="none" stroke="black"/>
<path d="M383.744,342.594v 4.62965" fill="none" stroke="black"/>
<path d="M401.886,342.594v 4.62965" fill="none" stroke="black"/>
<path d="M420.028,337.964v 9.2593" fill="none" stroke="black"/>
<path d="M438.169,342.594v 4.62965" fill="none" stroke="black"/>
<path d="M456.311,342.594v 4.62965" fill="none" stroke="black"/>
<path d="M474.453,342.594v 4.62965" fill="none" stroke="black"/>
<path d="M492.594,342.594v 4.62965" fill="none" stroke="black"/>
<path d="M510.736,337.964v 9.2593" fill="none" stroke="black"/>
<text xml:space="preserve" x="52.482" y="359.813" fill="black" font-size="12.8882" font-family="Helvetica">0</text>
<text xml:space="preserve" x="136.141" y="359.813" fill="black" font-size="12.8882" font-family="Helvetica">500</text>
<text xml:space="preserve" x="223.86" y="359.813" fill="black" font-size="12.8882" font-family="Helvetica">1000</text>
<text xml:space="preserve" x="314.017" y="359.813" fill="black" font-size="12.8882" font-family="Helvetica">1500</text>
<text xml:space="preserve" x="404.985" y="359.813" fill="black" font-size="12.8882" font-family="Helvetica">2000</text>
<text xml:space="preserve" x="495.954" y="359.813" fill="black" font-size="12.8882" font-family="Helvetica">2500</text>
<text xml:space="preserve" x="482.958" y="374.433" fill="black" font-size="12.8882" font-family="Helvetica">ADC</text>
<path d="M57.1929,347.224v -308.643" fill="none" stroke="black"/>
<path d="M70.7992,347.224h -13.6063" fill="none" stroke="black"/>
<path d="M63.9961,340.089h -6.80315" fill="none" stroke="black"/>
<path d="M63.9961,332.955h -6.80315" fill="none" stroke="black"/>
<path d="M63.9961,325.82h -6.80315" fill="none" stroke="black"/>
<path d="M70.7992,318.685h -13.6063" fill="none" stroke="black"/>
<path d="M63.9961,311.551h -6.80315" fill="none" stroke="black"/>
<path d="M63.9961,304.416h -6.80315" fill="none" stroke="black"/>
<path d="M63.9961,297.281h -6.80315" fill="none" stroke="black"/>
<path d="M70.7992,290.147h -13.6063" fill="none" stroke="black"/>
<path d="M63.9961,283.012h -6.80315" fill="none" stroke="black"/>
<path d="M63.9961,275.878h -6.80315" fill="none" stroke="black"/>
<path d="M63.9961,268.743h -6.80315" fill="none" stroke="black"/>
<path d="M70.7992,261.608h -13.6063" fill="none" stroke="black"/>
<path d="M63.9961,254.474h -6.80315" fill="none" stroke="black"/>
<path d="M63.9961,247.339h -6.80315" fill="none" stroke="black"/>
<path d="M63.9961,240.205h -6.80315" fill="none" stroke="black"/>
<path d="M70.7992,233.07h -13.6063" fill="none" stroke="black"/>
<path d="M63.9961,225.935h -6.80315" fill="none" stroke="black"/>
<path d="M63.9961,218.801h -6.80315" fill="none" stroke="black"/>
<path d="M63.9961,211.666h -6.80315" fill="none" stroke="black"/>
<path d="M70.7992,204.532h -13.6063" fill="none" stroke="black"/>
<path d="M63.9961,197.397h -6.80315" fill="none" stroke="black"/>
<path d="M63.9961,190.262h -6.80315" fill="none" stroke="black"/>
<path d="M63.9961,183.128h -6.80315" fill="none" stroke="black"/>
<path d="M70.7992,175.993h -13.6063" fill="none" stroke="black"/>
<path d="M63.9961,168.858h -6.80315" fill="none" stroke="black"/>
<path d="M63.9961,161.724h -6.80315" fill="none" stroke="black"/>
<path d="M63.9961,154.589h -6.80315" fill="none" stroke="black"/>
<path d="M70.7992,147.455h -13.6063" fill="none" stroke="black"/>
<path d="M63.9961,140.32h -6.80315" fill="none" stroke="black"/>
<path d="M63.9961,133.185h -6.80315" fill="none" stroke="black"/>
<path d="M63.9961,126.051h -6.80315" fill="none" stroke="black"/>
<path d="M70.7992,118.916h -13.6063" fill="none" stroke="black"/>
<path d="M63.9961,111.782h -6.80315" fill="none" stroke="black"/>
<path d="M63.9961,104.647h -6.80315" fill="none" stroke="black"/>
<path d="M63.9961,97.5123h -6.80315" fill="none" stroke="black"/>
<path d="M70.7992,90.3777h -13.6063" fill="none" stroke="black"/>
<path d="M63.9961,83.2431h -6.80315" fill="none" stroke="black"/>
<path d="M63.9961,76.1085h -6.80315" fill="none" stroke="black"/>
<path d="M63.9961,68.9739h -6.80315" fill="none" stroke="black"/>
<path d="M70.7992,61.8393h -13.6063" fill="none" stroke="black"/>
<path d="M70.7992,61.8393h -13.6063" fill="none" stroke="black"/>
<path d="M63.9961,54.7047h -6.80315" fill="none" stroke="black"/>
<path d="M63.9961,47.57h -6.80315" fill="none" stroke="black"/>
<path d="M63.9961,40.4354h -6.80315" fill="none" stroke="black"/>
<text xml:space="preserve" x="46.7965" y="351.691" fill="black" font-size="12.8882" font-family="Helvetica">0</text>
<text xml:space="preserve" x="39.4865" y="323.263" fill="black" font-size="12.8882" font-family="Helvetica">20</text>
<text xml:space="preserve" x="39.4865" y="294.836" fill="black" font-size="12.8882" font-family="Helvetica">40</text>
<text xml:space="preserve" x="39.4865" y="266.408" fill="black" font-size="12.8882" font-family="Helvetica">60</text>
<text xml:space="preserve" x="39.4865" y="237.168" fill="black" font-size="12.8882" font-family="Helvetica">80</text>
<text xml:space="preserve" x="32.1766" y="208.74" fill="black" font-size="12.8882" font-family="Helvetica">100</text>
<text xml:space="preserve" x="32.1766" y="180.313" fill="black" font-size="12.8882" font-family="Helvetica">120</text>
<text xml:space="preserve" x="32.1766" y="151.885" fill="black" font-size="12.8882" font-family="Helvetica">140</text>
<text xml:space="preserve" x="32.1766" y="123.457" fill="black" font-size="12.8882" font-family="Helvetica">160</text>
<text xml:space="preserve" x="32.1766" y="95.0297" fill="black" font-size="12.8882" font-family="Helvetica">180</text>
<text xml:space="preserve" x="32.1766" y="66.602" fill="black" font-size="12.8882" font-family="Helvetica">200</text>
<g transform="rotate(-90,21.6177,71.4753)">
<text xml:space="preserve" x="21.6177" y="71.4753" fill="black" font-size="12.8882" font-family="Helvetica">Event</text>
</g>
<rect x="442.705" y="25.0773" width="113.386" height="61.7287" fill="white"/>
<path d="M442.705,86.8059h 113.386" fill="none" stroke="black"/>
<path d="M556.091,86.8059v -61.7287" fill="none" stroke="black"/>
<path d="M556.091,25.0773h -113.386" fill="none" stroke="black"/>
<path d="M442.705,25.0773v 61.7287" fill="none" stroke="black"/>
<text xml:space="preserve" x="468.338" y="36.5499" fill="black" font-size="13.5253" font-family="Helvetica">hist_area4</text>
<path d="M442.705,40.5094h 113.386" fill="none" stroke="black"/>
<text xml:space="preserve" x="448.033" y="52.7943" fill="black" font-size="13.1417" font-family="Helvetica">Entries </text>
<text xml:space="preserve" x="513.01" y="52.7943" fill="black" font-size="13.1417" font-family="Helvetica"> 27871</text>
<text xml:space="preserve" x="448.033" y="68.2264" fill="black" font-size="13.1417" font-family="Helvetica">Mean  </text>
<text xml:space="preserve" x="510.574" y="68.2264" fill="black" font-size="13.1417" font-family="Helvetica">  936.3</text>
<text xml:space="preserve" x="448.033" y="84.4708" fill="black" font-size="13.1417" font-family="Helvetica">Std Dev   </text>
<text xml:space="preserve" x="513.823" y="83.6586" fill="black" font-size="13.1417" font-family="Helvetica">    394</text>
<text xml:space="preserve" x="217.363" y="17.8688" fill="black" font-size="17.0471" font-family="Helvetica">Co_run1+2 area4</text></svg>
