<?xml version="1.0" standalone="no"?>
<svg width="567.429" height="386.304" viewBox="0 0 567.429 386.304" xmlns="http://www.w3.org/2000/svg" shape-rendering="crispEdges">
<title>
img/calibration/Co_run1+2 area4.svg
</title>
<desc>
Creator: ROOT Version 6.22/08
CreationDate: Tue Jun  8 01:25:50 2021</desc>
<defs>
</defs>
<rect x="0.5" y="0" width="566.929" height="385.804" fill="white"/>
<rect x="57.1929" y="38.5804" width="453.543" height="308.643" fill="white"/>
<rect x="57.1929" y="38.5804" width="453.543" height="308.643" fill="none" stroke="black"/>
<rect x="57.1929" y="38.5804" width="453.543" height="308.643" fill="white"/>
<rect x="57.1929" y="38.5804" width="453.543" height="308.643" fill="none" stroke="black"/>
<path d="M57.1929,345.797h 0.907087v 1.42692h 0.907087v -1.42692h 0.907087v -1.42692h 0.907087v 1.42692h 0.907087v 1.42692h 0.907087v -1.42692h 2.72126v 1.42692h 0.907087v -2.85385h 1.81417v 2.85385h 0.907087v -1.42692h 0.907087v 1.42692h 1.81417v
 -1.42692h 1.81417v 1.42692h 0.907087v -1.42692h 0.907087v 1.42692h 1.81417v -1.42692h 1.81417v 1.42692h 3.62835v -1.42692h 1.81417v -1.42692h 0.907087v 1.42692h 1.81417v 1.42692h 1.81417v -1.42692h 0.907087v -1.42692h 0.907087v 2.85385h 0.907087v
 -2.85385h 0.907087v 2.85385h 1.81417v -1.42692h 0.907087v -1.42692h 0.907087v 1.42692h 0.907087v -4.28077h 0.907087v 4.28077h 1.81417v -2.85385h 0.907087v -4.28077h 0.907087v 1.42692h 0.907087v -4.28077h 0.907087v -4.28077h 0.907087v -11.4154h
 0.907087v -1.42692h 0.907087v -7.13461h 0.907087v -9.98846h 0.907087v 2.85385h 0.907087v -22.8308h 0.907087v 17.1231h 0.907087v -14.2692h 0.907087v -11.4154h 0.907087v 5.70769h 0.907087v -8.56154h 0.907087v -17.1231h 0.907087v 17.1231h 0.907087v
 -31.3923h 0.907087v 7.13461h 0.907087v -5.70769h 0.907087v -8.56154h 0.907087v -31.3923h 1.81417v 5.70769h 0.907087v -34.2461h 0.907087v -1.42692h 0.907087v 7.13461h 0.907087v -48.5154h 0.907087v 25.6846h 1.81417v -5.70769h 0.907087v 8.56154h
 0.907087v -34.2461h 0.907087v 27.1115h 0.907087v -24.2577h 0.907087v 24.2577h 0.907087v -39.9538h 0.907087v 22.8308h 0.907087v 4.28077h 0.907087v -14.2692h 0.907087v 27.1115h 0.907087v -4.28077h 0.907087v 9.98846h 1.81417v -24.2577h 0.907087v
 27.1115h 0.907087v -21.4038h 0.907087v 17.1231h 0.907087v 19.9769h 0.907087v -39.9538h 0.907087v 29.9654h 0.907087v 15.6961h 0.907087v -11.4154h 0.907087v -7.13461h 0.907087v -12.8423h 0.907087v 21.4038h 0.907087v 2.85385h 0.907087v 8.56154h
 0.907087v -28.5385h 0.907087v 21.4038h 0.907087v -15.6961h 0.907087v 48.5154h 0.907087v 9.98846h 0.907087v -31.3923h 0.907087v 1.42692h 0.907087v -1.42692h 0.907087v -5.70769h 0.907087v -21.4038h 0.907087v 45.6615h 0.907087v -32.8192h 0.907087v
 15.6961h 0.907087v -9.98846h 0.907087v 22.8308h 0.907087v -5.70769h 0.907087v 12.8423h 0.907087v -11.4154h 0.907087v -12.8423h 0.907087v -11.4154h 0.907087v 5.70769h 0.907087v 18.55h 0.907087v 11.4154h 0.907087v -21.4038h 0.907087v -5.70769h
 0.907087v 19.9769h 0.907087v 14.2692h 0.907087v -17.1231h 0.907087v 17.1231h 0.907087v -9.98846h 0.907087v 1.42692h 0.907087v 12.8423h 0.907087v -14.2692h 0.907087v 25.6846h 0.907087v -29.9654h 0.907087v 29.9654h 0.907087v -29.9654h 0.907087v
 21.4038h 0.907087v 19.9769h 0.907087v -21.4038h 0.907087v -4.28077h 0.907087v 15.6961h 0.907087v -18.55h 0.907087v -5.70769h 0.907087v 19.9769h 0.907087v -35.6731h 0.907087v 25.6846h 0.907087v 2.85385h 0.907087v -12.8423h 0.907087v -5.70769h
 0.907087v 14.2692h 0.907087v -15.6961h 0.907087v 9.98846h 0.907087v 32.8192h 0.907087v -11.4154h 0.907087v -18.55h 0.907087v -5.70769h 0.907087v 8.56154h 0.907087v -21.4038h 0.907087v 12.8423h 0.907087v 5.70769h 0.907087v 19.9769h 1.81417v -12.8423h
 0.907087v -5.70769h 0.907087v -12.8423h 1.81417v 11.4154h 0.907087v 5.70769h 0.907087v -54.2231h 0.907087v 68.4923h 0.907087v -11.4154h 0.907087v 8.56154h 0.907087v -31.3923h 0.907087v 5.70769h 0.907087v 9.98846h 0.907087v -1.42692h 0.907087v
 9.98846h 0.907087v -2.85385h 0.907087v -8.56154h 0.907087v 4.28077h 1.81417v -14.2692h 0.907087v -2.85385h 0.907087v 24.2577h 0.907087v -2.85385h 0.907087v -4.28077h 0.907087v -18.55h 0.907087v 21.4038h 0.907087v -2.85385h 0.907087v -7.13461h
 0.907087v 17.1231h 0.907087v -48.5154h 0.907087v 8.56154h 0.907087v 24.2577h 0.907087v 8.56154h 0.907087v -19.9769h 0.907087v 4.28077h 0.907087v -29.9654h 1.81417v 37.1h 0.907087v -2.85385h 0.907087v 21.4038h 0.907087v -15.6961h 0.907087v -22.8308h
 0.907087v 17.1231h 0.907087v 8.56154h 0.907087v -17.1231h 0.907087v 11.4154h 1.81417v -22.8308h 0.907087v -1.42692h 1.81417v -38.5269h 0.907087v 44.2346h 0.907087v 24.2577h 0.907087v -14.2692h 0.907087v -12.8423h 0.907087v 8.56154h 0.907087v
 -7.13461h 0.907087v -11.4154h 0.907087v 5.70769h 0.907087v 31.3923h 0.907087v -8.56154h 0.907087v 18.55h 0.907087v -7.13461h 0.907087v 24.2577h 0.907087v -31.3923h 0.907087v 28.5385h 0.907087v -24.2577h 0.907087v 32.8192h 0.907087v -5.70769h
 0.907087v -2.85385h 0.907087v 21.4038h 0.907087v -15.6961h 0.907087v -14.2692h 0.907087v 14.2692h 0.907087v 12.8423h 0.907087v 11.4154h 0.907087v -27.1115h 0.907087v 11.4154h 0.907087v -8.56154h 0.907087v -2.85385h 0.907087v 8.56154h 0.907087v
 -19.9769h 0.907087v 9.98846h 0.907087v -9.98846h 1.81417v -2.85385h 0.907087v 2.85385h 0.907087v -9.98846h 0.907087v -9.98846h 0.907087v -2.85385h 0.907087v -2.85385h 0.907087v -14.2692h 0.907087v 2.85385h 0.907087v -17.1231h 0.907087v -5.70769h
 0.907087v -2.85385h 0.907087v -15.6961h 0.907087v -48.5154h 0.907087v 25.6846h 0.907087v -7.13461h 0.907087v 17.1231h 0.907087v -45.6615h 0.907087v -41.3808h 0.907087v 19.9769h 0.907087v -19.9769h 0.907087v 12.8423h 0.907087v 69.9192h 0.907087v
 -14.2692h 0.907087v 19.9769h 0.907087v 11.4154h 0.907087v -4.28077h 0.907087v -1.42692h 0.907087v 14.2692h 0.907087v 47.0884h 0.907087v -2.85385h 0.907087v 18.55h 0.907087v 38.5269h 0.907087v -18.55h 0.907087v 24.2577h 0.907087v -4.28077h 0.907087v
 9.98846h 0.907087v -4.28077h 0.907087v 15.6961h 0.907087v -4.28077h 0.907087v -17.1231h 0.907087v 37.1h 0.907087v -38.5269h 0.907087v 1.42692h 0.907087v -19.9769h 0.907087v 32.8192h 0.907087v -22.8308h 0.907087v -32.8192h 0.907087v -22.8308h
 0.907087v 22.8308h 0.907087v -39.9538h 0.907087v 22.8308h 0.907087v -19.9769h 0.907087v 19.9769h 0.907087v -47.0884h 0.907087v -5.70769h 0.907087v 2.85385h 0.907087v 7.13461h 0.907087v 24.2577h 0.907087v -15.6961h 0.907087v 25.6846h 0.907087v
 -2.85385h 0.907087v -21.4038h 0.907087v 42.8077h 0.907087v 8.56154h 0.907087v 7.13461h 0.907087v 18.55h 0.907087v 19.9769h 0.907087v -4.28077h 0.907087v 27.1115h 0.907087v -5.70769h 0.907087v 27.1115h 0.907087v -2.85385h 0.907087v 4.28077h 0.907087v
 -4.28077h 0.907087v 15.6961h 0.907087v 7.13461h 0.907087v 1.42692h 0.907087v 1.42692h 0.907087v -2.85385h 0.907087v 7.13461h 2.72126v 5.70769h 5.44252v -2.85385h 1.81417v 4.28077h 2.72126v -1.42692h 0.907087v 1.42692h 0.907087v -1.42692h 0.907087v
 -1.42692h 0.907087v 1.42692h 0.907087v -1.42692h 0.907087v 2.85385h 2.72126v -1.42692h 0.907087v 1.42692h 0.907087v -1.42692h 0.907087v 1.42692h 2.72126v -2.85385h 0.907087v 1.42692h 0.907087v -1.42692h 0.907087v 2.85385h 1.81417v -1.42692h 1.81417v
 -1.42692h 0.907087v 2.85385h 0.907087v -2.85385h 0.907087v 2.85385h 9.07087v -2.85385h 0.907087v 2.85385h 0.907087v -1.42692h 1.81417v 1.42692h 7.25669v -1.42692h 0.907087v 1.42692h 0.907087v -1.42692h 0.907087v 1.42692h 6.34961v -2.85385h 0.907087v
 1.42692h 1.81417v 1.42692h 2.72126v -2.85385h 0.907087v 2.85385h 2.72126v -2.85385h 0.907087v 2.85385h 3.62835v -1.42692h 0.907087v 1.42692h 8.16378v -1.42692h 0.907087v 1.42692h 6.34961v -1.42692h 0.907087v 1.42692h 0.907087v -1.42692h 0.907087v
 1.42692h 7.25669v -1.42692h 0.907087v -1.42692h 0.907087v 2.85385h 2.72126v -1.42692h 0.907087v 1.42692h 1.81417v -1.42692h 0.907087v 1.42692h 2.72126v -1.42692h 0.907087v 1.42692h 2.72126v -1.42692h 0.907087v 1.42692h 0.907087v -1.42692h 0.907087v
 1.42692h 4.53543v -2.85385h 0.907087v 2.85385h 5.44252v -1.42692h 0.907087v 1.42692h 12.6992v -1.42692h 0.907087v 1.42692h 0.907087v -1.42692h 0.907087v 1.42692h 1.81417v -1.42692h 0.907087" fill="none" stroke="#000099"/>
<path d="M293.172,215.566l 0.272126, -4.34507l 0.272126, -4.37191l 0.272126, -4.39224l 0.272126, -4.40581l 0.272126, -4.41237l 0.272126, -4.41169l 0.272126, -4.40357l 0.272126, -4.38781l 0.272126, -4.36425l 0.272126, -4.33273l 0.272126, -4.29314l
 0.272126, -4.24537l 0.272126, -4.18934l 0.272126, -4.125l 0.272126, -4.05234l 0.272126, -3.97135l 0.272126, -3.88206l 0.272126, -3.78455l 0.272126, -3.67888l 0.272126, -3.56519l 0.272126, -3.44362l 0.272126, -3.31435l 0.272126, -3.17757l 0.272126,
 -3.03353l 0.272126, -2.88248l 0.272126, -2.72471l 0.272126, -2.56053l 0.272126, -2.39028l 0.272126, -2.21433l 0.272126, -2.03305l 0.272126, -1.84685l 0.272126, -1.65617l 0.272126, -1.46143l 0.272126, -1.26311l 0.272126, -1.06168l 0.272126,
 -0.857627l 0.272126, -0.651448l 0.272126, -0.443652l 0.272126, -0.234753l 0.272126, -0.0252694l 0.272126, 0.184277l 0.272126, 0.393364l 0.272126, 0.601474l 0.272126, 0.808089l 0.272126, 1.0127l 0.272126, 1.21481l 0.272126, 1.41393l 0.272126,
 1.60957l 0.272126, 1.80127" fill="none" stroke="#ff0000" stroke-width="2"/>
<path d="M306.506,103.715l 0.272126, 1.98859l 0.272126, 2.17109l 0.272126, 2.34837l 0.272126, 2.52002l 0.272126, 2.6857l 0.272126, 2.84504l 0.272126, 2.99774l 0.272126, 3.1435l 0.272126, 3.28205l 0.272126, 3.41315l 0.272126, 3.5366l 0.272126, 3.6522l
 0.272126, 3.75981l 0.272126, 3.8593l 0.272126, 3.95058l 0.272126, 4.03357l 0.272126, 4.10825l 0.272126, 4.17459l 0.272126, 4.23262l 0.272126, 4.28237l 0.272126, 4.32393l 0.272126, 4.35738l 0.272126, 4.38285l 0.272126, 4.40048l 0.272126, 4.41042l
 0.272126, 4.41288l 0.272126, 4.40804l 0.272126, 4.39614l 0.272126, 4.37742l 0.272126, 4.35212l 0.272126, 4.32052l 0.272126, 4.2829l 0.272126, 4.23954l 0.272126, 4.19075l 0.272126, 4.13684l 0.272126, 4.07811l 0.272126, 4.01489l 0.272126, 3.94749l
 0.272126, 3.87623l 0.272126, 3.80145l 0.272126, 3.72346l 0.272126, 3.64257l 0.272126, 3.55912l 0.272126, 3.4734l 0.272126, 3.38572l 0.272126, 3.29637l 0.272126, 3.20566l 0.272126, 3.11387l 0.272126, 3.02125" fill="none" stroke="#ff0000"
 stroke-width="2"/>
<path d="M319.84,285.832l 0.272126, 2.92809" fill="none" stroke="#ff0000" stroke-width="2"/>
<path d="M329.5,232.597l 0.362835, -4.64004l 0.362835, -4.60275l 0.362835, -4.547l 0.362835, -4.4724l 0.362835, -4.3787l 0.362835, -4.26576l 0.362835, -4.1336l 0.362835, -3.98235l 0.362835, -3.81233l 0.362835, -3.62397l 0.362835, -3.41785l 0.362835,
 -3.19472l 0.362835, -2.95544l 0.362835, -2.70102l 0.362835, -2.43259l 0.362835, -2.15142l 0.362835, -1.85888l 0.362835, -1.55643l 0.362835, -1.24563l 0.362835, -0.928111l 0.362835, -0.605567l 0.362835, -0.279733l 0.362835, 0.0476218l 0.362835,
 0.374718l 0.362835, 0.699776l 0.362835, 1.02104l 0.362835, 1.33677l 0.362835, 1.64531l 0.362835, 1.94504l 0.362835, 2.23442l 0.362835, 2.51202l 0.362835, 2.7765l 0.362835, 3.02663l 0.362835, 3.26131l 0.362835, 3.47958l 0.362835, 3.6806l 0.362835,
 3.86368l 0.362835, 4.02829l 0.362835, 4.174l 0.362835, 4.30059l 0.362835, 4.40793l 0.362835, 4.49606l 0.362835, 4.56514l 0.362835, 4.61548l 0.362835, 4.64749l 0.362835, 4.66171l 0.362835, 4.65878l 0.362835, 4.63943l 0.362835, 4.6045" fill="none"
 stroke="#ff0000" stroke-width="2"/>
<path d="M347.279,252.515l 0.362835, 4.55486l 0.362835, 4.49148l 0.362835, 4.41537l 0.362835, 4.32758l 0.362835, 4.22918l 0.362835, 4.12126l 0.362835, 4.00494l 0.362835, 3.88131l 0.362835, 3.75144l 0.362835, 3.61642l 0.362835, 3.47727l 0.362835,
 3.33499l 0.362835, 3.19054l 0.362835, 3.04482l 0.362835, 2.89868l 0.362835, 2.75293l 0.362835, 2.60829l 0.362835, 2.46545l 0.362835, 2.325l 0.362835, 2.18751l 0.362835, 2.05345l 0.362835, 1.92325l 0.362835, 1.79725l 0.362835, 1.67577l 0.362835,
 1.55905l 0.362835, 1.44727l 0.362835, 1.34058l 0.362835, 1.23906l 0.362835, 1.14276l 0.362835, 1.05169l 0.362835, 0.965817l 0.362835, 0.885073l 0.362835, 0.809369l 0.362835, 0.738587l 0.362835, 0.672587l 0.362835, 0.61121l 0.362835, 0.554283l
 0.362835, 0.50162l 0.362835, 0.453027l 0.362835, 0.408304l 0.362835, 0.367244l 0.362835, 0.329641l 0.362835, 0.295288l 0.362835, 0.26398l 0.362835, 0.235515l 0.362835, 0.209697l 0.362835, 0.186335l 0.362835, 0.165245l 0.362835, 0.146249" fill="none"
 stroke="#ff0000" stroke-width="2"/>
<path d="M365.058,346.223l 0.362835, 0.129179" fill="none" stroke="#ff0000" stroke-width="2"/>
<rect x="442.705" y="25.0773" width="113.386" height="61.7287" fill="white"/>
<path d="M442.705,86.8059h 113.386" fill="none" stroke="black"/>
<path d="M556.091,86.8059v -61.7287" fill="none" stroke="black"/>
<path d="M556.091,25.0773h -113.386" fill="none" stroke="black"/>
<path d="M442.705,25.0773v 61.7287" fill="none" stroke="black"/>
<text xml:space="preserve" x="468.338" y="36.5499" fill="black" font-size="13.5253" font-family="Helvetica">hist_area4</text>
<path d="M442.705,40.5094h 113.386" fill="none" stroke="black"/>
<text xml:space="preserve" x="448.033" y="52.7943" fill="black" font-size="13.1417" font-family="Helvetica">Entries </text>
<text xml:space="preserve" x="513.01" y="52.7943" fill="black" font-size="13.1417" font-family="Helvetica"> 27871</text>
<text xml:space="preserve" x="448.033" y="68.2264" fill="black" font-size="13.1417" font-family="Helvetica">Mean  </text>
<text xml:space="preserve" x="510.574" y="68.2264" fill="black" font-size="13.1417" font-family="Helvetica">  936.3</text>
<text xml:space="preserve" x="448.033" y="84.4708" fill="black" font-size="13.1417" font-family="Helvetica">Std Dev   </text>
<text xml:space="preserve" x="513.823" y="83.6586" fill="black" font-size="13.1417" font-family="Helvetica">    394</text>
<path d="M57.1929,347.224h 453.543" fill="none" stroke="black"/>
<path d="M57.1929,337.964v 9.2593" fill="none" stroke="black"/>
<path d="M75.3346,342.594v 4.62965" fill="none" stroke="black"/>
<path d="M93.4764,342.594v 4.62965" fill="none" stroke="black"/>
<path d="M111.618,342.594v 4.62965" fill="none" stroke="black"/>
<path d="M129.76,342.594v 4.62965" fill="none" stroke="black"/>
<path d="M147.902,337.964v 9.2593" fill="none" stroke="black"/>
<path d="M166.043,342.594v 4.62965" fill="none" stroke="black"/>
<path d="M184.185,342.594v 4.62965" fill="none" stroke="black"/>
<path d="M202.327,342.594v 4.62965" fill="none" stroke="black"/>
<path d="M220.469,342.594v 4.62965" fill="none" stroke="black"/>
<path d="M238.61,337.964v 9.2593" fill="none" stroke="black"/>
<path d="M256.752,342.594v 4.62965" fill="none" stroke="black"/>
<path d="M274.894,342.594v 4.62965" fill="none" stroke="black"/>
<path d="M293.035,342.594v 4.62965" fill="none" stroke="black"/>
<path d="M311.177,342.594v 4.62965" fill="none" stroke="black"/>
<path d="M329.319,337.964v 9.2593" fill="none" stroke="black"/>
<path d="M347.461,342.594v 4.62965" fill="none" stroke="black"/>
<path d="M365.602,342.594v 4.62965" fill="none" stroke="black"/>
<path d="M383.744,342.594v 4.62965" fill="none" stroke="black"/>
<path d="M401.886,342.594v 4.62965" fill="none" stroke="black"/>
<path d="M420.028,337.964v 9.2593" fill="none" stroke="black"/>
<path d="M438.169,342.594v 4.62965" fill="none" stroke="black"/>
<path d="M456.311,342.594v 4.62965" fill="none" stroke="black"/>
<path d="M474.453,342.594v 4.62965" fill="none" stroke="black"/>
<path d="M492.594,342.594v 4.62965" fill="none" stroke="black"/>
<path d="M510.736,337.964v 9.2593" fill="none" stroke="black"/>
<text xml:space="preserve" x="52.482" y="359.813" fill="black" font-size="12.8882" font-family="Helvetica">0</text>
<text xml:space="preserve" x="136.141" y="359.813" fill="black" font-size="12.8882" font-family="Helvetica">500</text>
<text xml:space="preserve" x="223.86" y="359.813" fill="black" font-size="12.8882" font-family="Helvetica">1000</text>
<text xml:space="preserve" x="314.017" y="359.813" fill="black" font-size="12.8882" font-family="Helvetica">1500</text>
<text xml:space="preserve" x="404.985" y="359.813" fill="black" font-size="12.8882" font-family="Helvetica">2000</text>
<text xml:space="preserve" x="495.954" y="359.813" fill="black" font-size="12.8882" font-family="Helvetica">2500</text>
<text xml:space="preserve" x="482.958" y="374.433" fill="black" font-size="12.8882" font-family="Helvetica">ADC</text>
<path d="M57.1929,347.224v -308.643" fill="none" stroke="black"/>
<path d="M70.7992,347.224h -13.6063" fill="none" stroke="black"/>
<path d="M63.9961,340.089h -6.80315" fill="none" stroke="black"/>
<path d="M63.9961,332.955h -6.80315" fill="none" stroke="black"/>
<path d="M63.9961,325.82h -6.80315" fill="none" stroke="black"/>
<path d="M70.7992,318.685h -13.6063" fill="none" stroke="black"/>
<path d="M63.9961,311.551h -6.80315" fill="none" stroke="black"/>
<path d="M63.9961,304.416h -6.80315" fill="none" stroke="black"/>
<path d="M63.9961,297.281h -6.80315" fill="none" stroke="black"/>
<path d="M70.7992,290.147h -13.6063" fill="none" stroke="black"/>
<path d="M63.9961,283.012h -6.80315" fill="none" stroke="black"/>
<path d="M63.9961,275.878h -6.80315" fill="none" stroke="black"/>
<path d="M63.9961,268.743h -6.80315" fill="none" stroke="black"/>
<path d="M70.7992,261.608h -13.6063" fill="none" stroke="black"/>
<path d="M63.9961,254.474h -6.80315" fill="none" stroke="black"/>
<path d="M63.9961,247.339h -6.80315" fill="none" stroke="black"/>
<path d="M63.9961,240.205h -6.80315" fill="none" stroke="black"/>
<path d="M70.7992,233.07h -13.6063" fill="none" stroke="black"/>
<path d="M63.9961,225.935h -6.80315" fill="none" stroke="black"/>
<path d="M63.9961,218.801h -6.80315" fill="none" stroke="black"/>
<path d="M63.9961,211.666h -6.80315" fill="none" stroke="black"/>
<path d="M70.7992,204.532h -13.6063" fill="none" stroke="black"/>
<path d="M63.9961,197.397h -6.80315" fill="none" stroke="black"/>
<path d="M63.9961,190.262h -6.80315" fill="none" stroke="black"/>
<path d="M63.9961,183.128h -6.80315" fill="none" stroke="black"/>
<path d="M70.7992,175.993h -13.6063" fill="none" stroke="black"/>
<path d="M63.9961,168.858h -6.80315" fill="none" stroke="black"/>
<path d="M63.9961,161.724h -6.80315" fill="none" stroke="black"/>
<path d="M63.9961,154.589h -6.80315" fill="none" stroke="black"/>
<path d="M70.7992,147.455h -13.6063" fill="none" stroke="black"/>
<path d="M63.9961,140.32h -6.80315" fill="none" stroke="black"/>
<path d="M63.9961,133.185h -6.80315" fill="none" stroke="black"/>
<path d="M63.9961,126.051h -6.80315" fill="none" stroke="black"/>
<path d="M70.7992,118.916h -13.6063" fill="none" stroke="black"/>
<path d="M63.9961,111.782h -6.80315" fill="none" stroke="black"/>
<path d="M63.9961,104.647h -6.80315" fill="none" stroke="black"/>
<path d="M63.9961,97.5123h -6.80315" fill="none" stroke="black"/>
<path d="M70.7992,90.3777h -13.6063" fill="none" stroke="black"/>
<path d="M63.9961,83.2431h -6.80315" fill="none" stroke="black"/>
<path d="M63.9961,76.1085h -6.80315" fill="none" stroke="black"/>
<path d="M63.9961,68.9739h -6.80315" fill="none" stroke="black"/>
<path d="M70.7992,61.8393h -13.6063" fill="none" stroke="black"/>
<path d="M70.7992,61.8393h -13.6063" fill="none" stroke="black"/>
<path d="M63.9961,54.7047h -6.80315" fill="none" stroke="black"/>
<path d="M63.9961,47.57h -6.80315" fill="none" stroke="black"/>
<path d="M63.9961,40.4354h -6.80315" fill="none" stroke="black"/>
<text xml:space="preserve" x="46.7965" y="351.691" fill="black" font-size="12.8882" font-family="Helvetica">0</text>
<text xml:space="preserve" x="39.4865" y="323.263" fill="black" font-size="12.8882" font-family="Helvetica">20</text>
<text xml:space="preserve" x="39.4865" y="294.836" fill="black" font-size="12.8882" font-family="Helvetica">40</text>
<text xml:space="preserve" x="39.4865" y="266.408" fill="black" font-size="12.8882" font-family="Helvetica">60</text>
<text xml:space="preserve" x="39.4865" y="237.168" fill="black" font-size="12.8882" font-family="Helvetica">80</text>
<text xml:space="preserve" x="32.1766" y="208.74" fill="black" font-size="12.8882" font-family="Helvetica">100</text>
<text xml:space="preserve" x="32.1766" y="180.313" fill="black" font-size="12.8882" font-family="Helvetica">120</text>
<text xml:space="preserve" x="32.1766" y="151.885" fill="black" font-size="12.8882" font-family="Helvetica">140</text>
<text xml:space="preserve" x="32.1766" y="123.457" fill="black" font-size="12.8882" font-family="Helvetica">160</text>
<text xml:space="preserve" x="32.1766" y="95.0297" fill="black" font-size="12.8882" font-family="Helvetica">180</text>
<text xml:space="preserve" x="32.1766" y="66.602" fill="black" font-size="12.8882" font-family="Helvetica">200</text>
<g transform="rotate(-90,21.6177,71.4753)">
<text xml:space="preserve" x="21.6177" y="71.4753" fill="black" font-size="12.8882" font-family="Helvetica">Event</text>
</g>
<rect x="442.705" y="25.0773" width="113.386" height="61.7287" fill="white"/>
<path d="M442.705,86.8059h 113.386" fill="none" stroke="black"/>
<path d="M556.091,86.8059v -61.7287" fill="none" stroke="black"/>
<path d="M556.091,25.0773h -113.386" fill="none" stroke="black"/>
<path d="M442.705,25.0773v 61.7287" fill="none" stroke="black"/>
<text xml:space="preserve" x="468.338" y="36.5499" fill="black" font-size="13.5253" font-family="Helvetica">hist_area4</text>
<path d="M442.705,40.5094h 113.386" fill="none" stroke="black"/>
<text xml:space="preserve" x="448.033" y="52.7943" fill="black" font-size="13.1417" font-family="Helvetica">Entries </text>
<text xml:space="preserve" x="513.01" y="52.7943" fill="black" font-size="13.1417" font-family="Helvetica"> 27871</text>
<text xml:space="preserve" x="448.033" y="68.2264" fill="black" font-size="13.1417" font-family="Helvetica">Mean  </text>
<text xml:space="preserve" x="510.574" y="68.2264" fill="black" font-size="13.1417" font-family="Helvetica">  936.3</text>
<text xml:space="preserve" x="448.033" y="84.4708" fill="black" font-size="13.1417" font-family="Helvetica">Std Dev   </text>
<text xml:space="preserve" x="513.823" y="83.6586" fill="black" font-size="13.1417" font-family="Helvetica">    394</text>
<text xml:space="preserve" x="217.363" y="17.8688" fill="black" font-size="17.0471" font-family="Helvetica">Co_run1+2 area4</text></svg>
