<?xml version="1.0" standalone="no"?>
<svg width="567.429" height="386.304" viewBox="0 0 567.429 386.304" xmlns="http://www.w3.org/2000/svg" shape-rendering="crispEdges">
<title>
img/calibration/Co_run1+2 right area4.svg
</title>
<desc>
Creator: ROOT Version 6.22/08
CreationDate: Wed Jun  9 20:45:56 2021</desc>
<defs>
</defs>
<rect x="0.5" y="0" width="566.929" height="385.804" fill="white"/>
<rect x="57.1929" y="38.5804" width="453.543" height="308.643" fill="white"/>
<rect x="57.1929" y="38.5804" width="453.543" height="308.643" fill="none" stroke="black"/>
<rect x="57.1929" y="38.5804" width="453.543" height="308.643" fill="white"/>
<rect x="57.1929" y="38.5804" width="453.543" height="308.643" fill="none" stroke="black"/>
<path d="M57.1929,347.224h 1.81417v -9.18581h 1.81417v 9.18581h 0.907087v -18.3716h 0.907087v 9.18581h 0.907087v 9.18581h 0.907087v -9.18581h 0.907087v -55.1149h 0.907087v 9.18581h 1.81417v 9.18581h 0.907087v -18.3716h 0.907087v -9.18581h 0.907087v
 -64.3007h 0.907087v 82.6723h 0.907087v -82.6723h 0.907087v -36.7433h 0.907087v -82.6723h 0.907087v -18.3716h 0.907087v 101.044h 0.907087v -91.8581h 0.907087v 45.9291h 1.81417v -36.7433h 0.907087v -36.7433h 0.907087v 82.6723h 0.907087v -18.3716h
 0.907087v -64.3007h 0.907087v 55.1149h 0.907087v -18.3716h 0.907087v 18.3716h 0.907087v -9.18581h 1.81417v -18.3716h 0.907087v 9.18581h 0.907087v 36.7433h 0.907087v 55.1149h 0.907087v -55.1149h 0.907087v 45.9291h 0.907087v -91.8581h 0.907087v
 36.7433h 0.907087v 45.9291h 0.907087v -64.3007h 0.907087v 45.9291h 0.907087v -73.4865h 0.907087v 55.1149h 0.907087v 18.3716h 0.907087v 91.8581h 0.907087v -64.3007h 0.907087v -27.5574h 0.907087v 9.18581h 0.907087v 45.9291h 0.907087v -73.4865h
 0.907087v 27.5574h 0.907087v 45.9291h 0.907087v -91.8581h 0.907087v 82.6723h 0.907087v 9.18581h 0.907087v 55.1149h 0.907087v -9.18581h 0.907087v -128.601h 0.907087v 119.416h 0.907087v 9.18581h 0.907087v -18.3716h 0.907087v -18.3716h 0.907087v
 -36.7433h 0.907087v 73.4865h 0.907087v -73.4865h 0.907087v 91.8581h 0.907087v -9.18581h 0.907087v -18.3716h 0.907087v -36.7433h 0.907087v 9.18581h 0.907087v 91.8581h 0.907087v -73.4865h 0.907087v 36.7433h 0.907087v -110.23h 0.907087v 73.4865h
 0.907087v -18.3716h 0.907087v 27.5574h 0.907087v -18.3716h 0.907087v 18.3716h 0.907087v -18.3716h 0.907087v 64.3007h 1.81417v -45.9291h 1.81417v 18.3716h 0.907087v 27.5574h 0.907087v -27.5574h 0.907087v -9.18581h 0.907087v -45.9291h 0.907087v
 55.1149h 0.907087v -27.5574h 0.907087v 18.3716h 0.907087v 27.5574h 0.907087v -45.9291h 0.907087v 73.4865h 0.907087v -36.7433h 0.907087v -9.18581h 0.907087v -27.5574h 0.907087v 36.7433h 0.907087v -36.7433h 0.907087v 27.5574h 0.907087v 27.5574h
 0.907087v -18.3716h 0.907087v 9.18581h 0.907087v 9.18581h 0.907087v 9.18581h 0.907087v -27.5574h 0.907087v -27.5574h 0.907087v 27.5574h 1.81417v -45.9291h 0.907087v 9.18581h 0.907087v 27.5574h 2.72126v -36.7433h 0.907087v 45.9291h 0.907087v 9.18581h
 0.907087v -36.7433h 0.907087v 27.5574h 0.907087v 36.7433h 0.907087v -36.7433h 0.907087v -45.9291h 0.907087v 27.5574h 0.907087v 9.18581h 0.907087v 27.5574h 1.81417v -9.18581h 0.907087v -45.9291h 0.907087v 55.1149h 1.81417v -18.3716h 0.907087v
 9.18581h 0.907087v 27.5574h 0.907087v -18.3716h 0.907087v -18.3716h 0.907087v 27.5574h 0.907087v -36.7433h 0.907087v 27.5574h 0.907087v -36.7433h 0.907087v 64.3007h 0.907087v -45.9291h 0.907087v 18.3716h 0.907087v -9.18581h 0.907087v 9.18581h
 0.907087v 9.18581h 0.907087v 18.3716h 0.907087v -55.1149h 0.907087v -9.18581h 0.907087v 45.9291h 0.907087v -91.8581h 0.907087v 36.7433h 0.907087v 45.9291h 0.907087v -9.18581h 0.907087v -18.3716h 0.907087v 45.9291h 0.907087v -55.1149h 1.81417v
 64.3007h 0.907087v -27.5574h 0.907087v -18.3716h 0.907087v 9.18581h 0.907087v 45.9291h 0.907087v -27.5574h 0.907087v 27.5574h 0.907087v -27.5574h 0.907087v -18.3716h 0.907087v -36.7433h 0.907087v 73.4865h 0.907087v -45.9291h 0.907087v 36.7433h
 0.907087v -73.4865h 0.907087v 55.1149h 0.907087v -36.7433h 0.907087v -9.18581h 0.907087v 18.3716h 0.907087v 55.1149h 0.907087v -18.3716h 1.81417v 9.18581h 0.907087v -36.7433h 1.81417v 18.3716h 0.907087v 36.7433h 0.907087v -9.18581h 0.907087v
 -27.5574h 0.907087v 18.3716h 0.907087v 9.18581h 0.907087v -45.9291h 0.907087v -9.18581h 1.81417v 18.3716h 0.907087v 36.7433h 0.907087v -45.9291h 0.907087v 18.3716h 0.907087v 18.3716h 0.907087v -45.9291h 1.81417v 27.5574h 0.907087v -18.3716h
 0.907087v 27.5574h 0.907087v -9.18581h 0.907087v 9.18581h 0.907087v -27.5574h 0.907087v 27.5574h 0.907087v -45.9291h 0.907087v 9.18581h 0.907087v 9.18581h 0.907087v 18.3716h 0.907087v -27.5574h 0.907087v -18.3716h 1.81417v 55.1149h 0.907087v
 -36.7433h 0.907087v 36.7433h 0.907087v -45.9291h 0.907087v 55.1149h 0.907087v 9.18581h 0.907087v -101.044h 0.907087v 36.7433h 0.907087v 36.7433h 1.81417v -18.3716h 1.81417v -27.5574h 0.907087v 18.3716h 0.907087v -36.7433h 0.907087v 55.1149h
 0.907087v -9.18581h 0.907087v -73.4865h 0.907087v 45.9291h 0.907087v -9.18581h 1.81417v 18.3716h 0.907087v 27.5574h 1.81417v -45.9291h 0.907087v -36.7433h 0.907087v 18.3716h 0.907087v 36.7433h 1.81417v 18.3716h 2.72126v 45.9291h 0.907087v -82.6723h
 1.81417v -45.9291h 0.907087v 36.7433h 0.907087v 9.18581h 0.907087v 18.3716h 0.907087v 18.3716h 0.907087v -18.3716h 0.907087v -45.9291h 0.907087v 18.3716h 0.907087v 45.9291h 0.907087v 9.18581h 0.907087v -27.5574h 0.907087v -9.18581h 0.907087v
 18.3716h 0.907087v 9.18581h 0.907087v -9.18581h 0.907087v -45.9291h 0.907087v -9.18581h 0.907087v 45.9291h 0.907087v 9.18581h 0.907087v -45.9291h 0.907087v 73.4865h 0.907087v -27.5574h 0.907087v -36.7433h 0.907087v -18.3716h 0.907087v 45.9291h
 0.907087v 36.7433h 0.907087v -64.3007h 0.907087v 36.7433h 1.81417v -64.3007h 0.907087v 55.1149h 0.907087v 27.5574h 0.907087v -36.7433h 0.907087v 45.9291h 0.907087v 9.18581h 0.907087v -27.5574h 0.907087v 18.3716h 0.907087v -45.9291h 1.81417v 18.3716h
 0.907087v 55.1149h 0.907087v -45.9291h 0.907087v 18.3716h 0.907087v -27.5574h 0.907087v -45.9291h 0.907087v 64.3007h 0.907087v -18.3716h 0.907087v -55.1149h 0.907087v 110.23h 1.81417v -9.18581h 0.907087v -18.3716h 0.907087v -18.3716h 0.907087v
 27.5574h 0.907087v -18.3716h 0.907087v 18.3716h 1.81417v -18.3716h 0.907087v 9.18581h 0.907087v 9.18581h 1.81417v 9.18581h 1.81417v 9.18581h 0.907087v -9.18581h 1.81417v 27.5574h 0.907087v 18.3716h 0.907087v -36.7433h 1.81417v 27.5574h 0.907087v
 -9.18581h 0.907087v 9.18581h 0.907087v 9.18581h 0.907087v -36.7433h 1.81417v 9.18581h 0.907087v 9.18581h 0.907087v 18.3716h 0.907087v -9.18581h 0.907087v 9.18581h 0.907087v -27.5574h 0.907087v 9.18581h 2.72126v -9.18581h 0.907087v 27.5574h 0.907087v
 -9.18581h 0.907087v 9.18581h 1.81417v -9.18581h 3.62835v -27.5574h 0.907087v 36.7433h 2.72126v -9.18581h 1.81417v 9.18581h 0.907087v -9.18581h 2.72126v 9.18581h 2.72126v -9.18581h 3.62835v 9.18581h 0.907087v -9.18581h 1.81417v 9.18581h 1.81417v
 -9.18581h 0.907087v 9.18581h 2.72126v -9.18581h 0.907087v 9.18581h 1.81417v -9.18581h 0.907087v 9.18581h 1.81417v -9.18581h 0.907087v 9.18581h 2.72126v -9.18581h 0.907087v 9.18581h 10.885v -9.18581h 1.81417v 9.18581h 6.34961v -9.18581h 0.907087v
 9.18581h 86.1732" fill="none" stroke="#000099"/>
<path d="M293.67,239.595l 1.26992, 1.15921l 1.26992, 1.20889l 1.26992, 1.25862l 1.26992, 1.30825l 1.26992, 1.35761l 1.26992, 1.40653l 1.26992, 1.45481l 1.26992, 1.50229l 1.26992, 1.54877l 1.26992, 1.59408l 1.26992, 1.63801l 1.26992, 1.6804l 1.26992,
 1.72106l 1.26992, 1.75981l 1.26992, 1.79649l 1.26992, 1.83092l 1.26992, 1.86296l 1.26992, 1.89244l 1.26992, 1.91924l 1.26992, 1.94323l 1.26992, 1.96429l 1.26992, 1.98233l 1.26992, 1.99725l 1.26992, 2.00898l 1.26992, 2.01747l 1.26992, 2.02267l
 1.26992, 2.02456l 1.26992, 2.02314l 1.26992, 2.01839l 1.26992, 2.01036l 1.26992, 1.99907l 1.26992, 1.98459l 1.26992, 1.96699l 1.26992, 1.94634l 1.26992, 1.92275l 1.26992, 1.89634l 1.26992, 1.86722l 1.26992, 1.83553l 1.26992, 1.80142l 1.26992,
 1.76505l 1.26992, 1.72658l 1.26992, 1.68617l 1.26992, 1.64401l 1.26992, 1.60028l 1.26992, 1.55516l 1.26992, 1.50883l 1.26992, 1.46148l 1.26992, 1.4133l 1.26992, 1.36446" fill="none" stroke="#ff0000" stroke-width="2"/>
<path d="M355.897,324.454l 1.26992, 1.31515l 1.26992, 1.26554l 1.26992, 1.21581l 1.26992, 1.16612l 1.26992, 1.11663l 1.26992, 1.06748l 1.26992, 1.01882l 1.26992, 0.970788l 1.26992, 0.923503l 1.26992, 0.87708l 1.26992, 0.831625l 1.26992, 0.787232l
 1.26992, 0.743988l 1.26992, 0.701966l 1.26992, 0.661232l 1.26992, 0.62184l 1.26992, 0.583836l 1.26992, 0.547256l 1.26992, 0.512127l 1.26992, 0.478467l 1.26992, 0.446286l 1.26992, 0.415588l 1.26992, 0.386366l 1.26992, 0.35861l 1.26992, 0.332303l
 1.26992, 0.30742l 1.26992, 0.283934l 1.26992, 0.261813l 1.26992, 0.241019l 1.26992, 0.221513l 1.26992, 0.203252l 1.26992, 0.18619l 1.26992, 0.170281l 1.26992, 0.155476l 1.26992, 0.141726l 1.26992, 0.128979l 1.26992, 0.117187l 1.26992, 0.106298l
 1.26992, 0.096263l 1.26992, 0.0870323l 1.26992, 0.0785578l 1.26992, 0.0707921l 1.26992, 0.0636896l 1.26992, 0.0572056l 1.26992, 0.0512976l 1.26992, 0.0459242l 1.26992, 0.0410464l 1.26992, 0.0366264l 1.26992, 0.0326288" fill="none" stroke="#ff0000"
 stroke-width="2"/>
<path d="M418.123,346.985l 1.26992, 0.0290199" fill="none" stroke="#ff0000" stroke-width="2"/>
<rect x="442.705" y="25.0773" width="113.386" height="61.7287" fill="white"/>
<path d="M442.705,86.8059h 113.386" fill="none" stroke="black"/>
<path d="M556.091,86.8059v -61.7287" fill="none" stroke="black"/>
<path d="M556.091,25.0773h -113.386" fill="none" stroke="black"/>
<path d="M442.705,25.0773v 61.7287" fill="none" stroke="black"/>
<text xml:space="preserve" x="462.653" y="36.5499" fill="black" font-size="13.5253" font-family="Helvetica">hist_area4_r</text>
<path d="M442.705,40.5094h 113.386" fill="none" stroke="black"/>
<text xml:space="preserve" x="448.033" y="52.7943" fill="black" font-size="13.5109" font-family="Helvetica">Entries </text>
<text xml:space="preserve" x="517.884" y="52.7943" fill="black" font-size="13.5109" font-family="Helvetica"> 3613</text>
<text xml:space="preserve" x="448.033" y="68.2264" fill="black" font-size="13.5109" font-family="Helvetica">Mean  </text>
<text xml:space="preserve" x="513.01" y="68.2264" fill="black" font-size="13.5109" font-family="Helvetica">  715.1</text>
<text xml:space="preserve" x="448.033" y="84.4708" fill="black" font-size="13.5109" font-family="Helvetica">Std Dev   </text>
<text xml:space="preserve" x="510.574" y="83.6586" fill="black" font-size="13.5109" font-family="Helvetica">  485.5</text>
<path d="M57.1929,347.224h 453.543" fill="none" stroke="black"/>
<path d="M57.1929,337.964v 9.2593" fill="none" stroke="black"/>
<path d="M75.3346,342.594v 4.62965" fill="none" stroke="black"/>
<path d="M93.4764,342.594v 4.62965" fill="none" stroke="black"/>
<path d="M111.618,342.594v 4.62965" fill="none" stroke="black"/>
<path d="M129.76,342.594v 4.62965" fill="none" stroke="black"/>
<path d="M147.902,337.964v 9.2593" fill="none" stroke="black"/>
<path d="M166.043,342.594v 4.62965" fill="none" stroke="black"/>
<path d="M184.185,342.594v 4.62965" fill="none" stroke="black"/>
<path d="M202.327,342.594v 4.62965" fill="none" stroke="black"/>
<path d="M220.469,342.594v 4.62965" fill="none" stroke="black"/>
<path d="M238.61,337.964v 9.2593" fill="none" stroke="black"/>
<path d="M256.752,342.594v 4.62965" fill="none" stroke="black"/>
<path d="M274.894,342.594v 4.62965" fill="none" stroke="black"/>
<path d="M293.035,342.594v 4.62965" fill="none" stroke="black"/>
<path d="M311.177,342.594v 4.62965" fill="none" stroke="black"/>
<path d="M329.319,337.964v 9.2593" fill="none" stroke="black"/>
<path d="M347.461,342.594v 4.62965" fill="none" stroke="black"/>
<path d="M365.602,342.594v 4.62965" fill="none" stroke="black"/>
<path d="M383.744,342.594v 4.62965" fill="none" stroke="black"/>
<path d="M401.886,342.594v 4.62965" fill="none" stroke="black"/>
<path d="M420.028,337.964v 9.2593" fill="none" stroke="black"/>
<path d="M438.169,342.594v 4.62965" fill="none" stroke="black"/>
<path d="M456.311,342.594v 4.62965" fill="none" stroke="black"/>
<path d="M474.453,342.594v 4.62965" fill="none" stroke="black"/>
<path d="M492.594,342.594v 4.62965" fill="none" stroke="black"/>
<path d="M510.736,337.964v 9.2593" fill="none" stroke="black"/>
<text xml:space="preserve" x="52.482" y="359.813" fill="black" font-size="12.8882" font-family="Helvetica">0</text>
<text xml:space="preserve" x="136.141" y="359.813" fill="black" font-size="12.8882" font-family="Helvetica">500</text>
<text xml:space="preserve" x="223.86" y="359.813" fill="black" font-size="12.8882" font-family="Helvetica">1000</text>
<text xml:space="preserve" x="314.017" y="359.813" fill="black" font-size="12.8882" font-family="Helvetica">1500</text>
<text xml:space="preserve" x="404.985" y="359.813" fill="black" font-size="12.8882" font-family="Helvetica">2000</text>
<text xml:space="preserve" x="495.954" y="359.813" fill="black" font-size="12.8882" font-family="Helvetica">2500</text>
<text xml:space="preserve" x="482.958" y="374.433" fill="black" font-size="12.8882" font-family="Helvetica">ADC</text>
<path d="M57.1929,347.224v -308.643" fill="none" stroke="black"/>
<path d="M70.7992,347.224h -13.6063" fill="none" stroke="black"/>
<path d="M63.9961,338.038h -6.80315" fill="none" stroke="black"/>
<path d="M63.9961,328.852h -6.80315" fill="none" stroke="black"/>
<path d="M63.9961,319.666h -6.80315" fill="none" stroke="black"/>
<path d="M63.9961,310.481h -6.80315" fill="none" stroke="black"/>
<path d="M70.7992,301.295h -13.6063" fill="none" stroke="black"/>
<path d="M63.9961,292.109h -6.80315" fill="none" stroke="black"/>
<path d="M63.9961,282.923h -6.80315" fill="none" stroke="black"/>
<path d="M63.9961,273.737h -6.80315" fill="none" stroke="black"/>
<path d="M63.9961,264.551h -6.80315" fill="none" stroke="black"/>
<path d="M70.7992,255.366h -13.6063" fill="none" stroke="black"/>
<path d="M63.9961,246.18h -6.80315" fill="none" stroke="black"/>
<path d="M63.9961,236.994h -6.80315" fill="none" stroke="black"/>
<path d="M63.9961,227.808h -6.80315" fill="none" stroke="black"/>
<path d="M63.9961,218.622h -6.80315" fill="none" stroke="black"/>
<path d="M70.7992,209.437h -13.6063" fill="none" stroke="black"/>
<path d="M63.9961,200.251h -6.80315" fill="none" stroke="black"/>
<path d="M63.9961,191.065h -6.80315" fill="none" stroke="black"/>
<path d="M63.9961,181.879h -6.80315" fill="none" stroke="black"/>
<path d="M63.9961,172.693h -6.80315" fill="none" stroke="black"/>
<path d="M70.7992,163.508h -13.6063" fill="none" stroke="black"/>
<path d="M63.9961,154.322h -6.80315" fill="none" stroke="black"/>
<path d="M63.9961,145.136h -6.80315" fill="none" stroke="black"/>
<path d="M63.9961,135.95h -6.80315" fill="none" stroke="black"/>
<path d="M63.9961,126.764h -6.80315" fill="none" stroke="black"/>
<path d="M70.7992,117.578h -13.6063" fill="none" stroke="black"/>
<path d="M63.9961,108.393h -6.80315" fill="none" stroke="black"/>
<path d="M63.9961,99.2068h -6.80315" fill="none" stroke="black"/>
<path d="M63.9961,90.021h -6.80315" fill="none" stroke="black"/>
<path d="M63.9961,80.8352h -6.80315" fill="none" stroke="black"/>
<path d="M70.7992,71.6494h -13.6063" fill="none" stroke="black"/>
<path d="M70.7992,71.6494h -13.6063" fill="none" stroke="black"/>
<path d="M63.9961,62.4635h -6.80315" fill="none" stroke="black"/>
<path d="M63.9961,53.2777h -6.80315" fill="none" stroke="black"/>
<path d="M63.9961,44.0919h -6.80315" fill="none" stroke="black"/>
<text xml:space="preserve" x="46.7965" y="351.691" fill="black" font-size="12.8882" font-family="Helvetica">0</text>
<text xml:space="preserve" x="46.7965" y="305.395" fill="black" font-size="12.8882" font-family="Helvetica">5</text>
<text xml:space="preserve" x="39.4865" y="259.91" fill="black" font-size="12.8882" font-family="Helvetica">10</text>
<text xml:space="preserve" x="39.4865" y="213.614" fill="black" font-size="12.8882" font-family="Helvetica">15</text>
<text xml:space="preserve" x="39.4865" y="168.129" fill="black" font-size="12.8882" font-family="Helvetica">20</text>
<text xml:space="preserve" x="39.4865" y="121.833" fill="black" font-size="12.8882" font-family="Helvetica">25</text>
<text xml:space="preserve" x="39.4865" y="76.3486" fill="black" font-size="12.8882" font-family="Helvetica">30</text>
<g transform="rotate(-90,28.9277,71.4753)">
<text xml:space="preserve" x="28.9277" y="71.4753" fill="black" font-size="12.8882" font-family="Helvetica">Event</text>
</g>
<rect x="442.705" y="25.0773" width="113.386" height="61.7287" fill="white"/>
<path d="M442.705,86.8059h 113.386" fill="none" stroke="black"/>
<path d="M556.091,86.8059v -61.7287" fill="none" stroke="black"/>
<path d="M556.091,25.0773h -113.386" fill="none" stroke="black"/>
<path d="M442.705,25.0773v 61.7287" fill="none" stroke="black"/>
<text xml:space="preserve" x="462.653" y="36.5499" fill="black" font-size="13.5253" font-family="Helvetica">hist_area4_r</text>
<path d="M442.705,40.5094h 113.386" fill="none" stroke="black"/>
<text xml:space="preserve" x="448.033" y="52.7943" fill="black" font-size="13.5109" font-family="Helvetica">Entries </text>
<text xml:space="preserve" x="517.884" y="52.7943" fill="black" font-size="13.5109" font-family="Helvetica"> 3613</text>
<text xml:space="preserve" x="448.033" y="68.2264" fill="black" font-size="13.5109" font-family="Helvetica">Mean  </text>
<text xml:space="preserve" x="513.01" y="68.2264" fill="black" font-size="13.5109" font-family="Helvetica">  715.1</text>
<text xml:space="preserve" x="448.033" y="84.4708" fill="black" font-size="13.5109" font-family="Helvetica">Std Dev   </text>
<text xml:space="preserve" x="510.574" y="83.6586" fill="black" font-size="13.5109" font-family="Helvetica">  485.5</text>
<text xml:space="preserve" x="189.747" y="18.681" fill="black" font-size="18.7414" font-family="Helvetica">Co_run1+2 right area4</text></svg>
