<?xml version="1.0" standalone="no"?>
<svg width="567.429" height="384.68" viewBox="0 0 567.429 384.68" xmlns="http://www.w3.org/2000/svg" shape-rendering="crispEdges">
<title>
img/calibration/Na_CE_OSN(A).svg
</title>
<desc>
Creator: ROOT Version 6.22/09
CreationDate: Tue Jun  8 19:07:29 2021</desc>
<defs>
</defs>
<rect x="0.5" y="0" width="566.929" height="384.18" fill="white"/>
<rect x="57.1929" y="38.418" width="453.543" height="307.344" fill="white"/>
<rect x="57.1929" y="38.418" width="453.543" height="307.344" fill="none" stroke="black"/>
<rect x="57.1929" y="38.418" width="453.543" height="307.344" fill="white"/>
<rect x="57.1929" y="38.418" width="453.543" height="307.344" fill="none" stroke="black"/>
<path d="M57.1929,345.762h 0.453543v -9.14714h 0.226772v 9.14714h 0.453543v -9.14714h 0.226772v 9.14714h 0.453543v -9.14714h 0.226772v 9.14714h 0.226772v -9.14714h 0.226772v 9.14714h 0.226772v -9.14714h 0.226772v 9.14714h 0.226772v -9.14714h
 0.226772v 9.14714h 0.453543v -9.14714h 1.36063v -9.14714h 0.226772v 18.2943h 0.226772v -9.14714h 0.226772v -9.14714h 0.453543v 18.2943h 0.226772v -18.2943h 0.226772v 9.14714h 0.226772v -9.14714h 0.226772v 9.14714h 0.226772v 9.14714h 0.226772v
 -27.4414h 0.226772v 9.14714h 0.226772v 18.2943h 0.226772v -9.14714h 0.680315v 9.14714h 0.226772v -45.7357h 0.226772v 45.7357h 0.226772v -27.4414h 0.226772v 27.4414h 0.226772v -18.2943h 0.680315v -18.2943h 0.226772v 18.2943h 0.226772v -27.4414h
 0.226772v 45.7357h 0.226772v -36.5886h 0.226772v 27.4414h 0.226772v -9.14714h 0.226772v 9.14714h 0.453543v -45.7357h 0.226772v 36.5886h 0.226772v -18.2943h 0.226772v 9.14714h 0.226772v 9.14714h 0.226772v -9.14714h 0.226772v -9.14714h 0.226772v
 -18.2943h 0.226772v 27.4414h 0.680315v -9.14714h 0.453543v -9.14714h 0.226772v 9.14714h 0.226772v -9.14714h 0.226772v -27.4414h 0.453543v -9.14714h 0.226772v 27.4414h 0.226772v 36.5886h 0.226772v -27.4414h 0.226772v -9.14714h 0.226772v 18.2943h
 0.226772v -9.14714h 0.226772v -9.14714h 0.226772v 9.14714h 0.226772v -54.8828h 0.226772v 27.4414h 0.453543v 45.7357h 0.226772v -54.8828h 0.226772v 27.4414h 0.226772v -18.2943h 0.453543v -18.2943h 0.226772v -27.4414h 0.226772v 18.2943h 0.453543v
 73.1771h 0.226772v -36.5886h 0.226772v -64.03h 0.226772v 73.1771h 0.226772v -18.2943h 0.226772v -64.03h 0.226772v -36.5886h 0.226772v 73.1771h 0.226772v -9.14714h 0.226772v -36.5886h 0.226772v 18.2943h 0.226772v 45.7357h 0.453543v -54.8828h
 0.453543v -9.14714h 0.453543v 27.4414h 0.453543v -45.7357h 0.226772v 82.3242h 0.226772v -91.4714h 0.226772v 64.03h 0.226772v -18.2943h 0.680315v -64.03h 0.226772v 45.7357h 0.226772v -9.14714h 0.226772v -9.14714h 0.226772v 27.4414h 0.226772v
 -18.2943h 0.226772v -18.2943h 0.226772v -109.766h 0.226772v 45.7357h 0.226772v 45.7357h 0.226772v 36.5886h 0.226772v 27.4414h 0.226772v 18.2943h 0.226772v -36.5886h 0.226772v -18.2943h 0.226772v 27.4414h 0.226772v -18.2943h 0.226772v 36.5886h
 0.226772v -54.8828h 0.226772v -9.14714h 0.226772v 73.1771h 0.226772v -36.5886h 0.226772v 27.4414h 0.226772v -36.5886h 0.226772v 45.7357h 0.226772v -54.8828h 0.226772v -54.8828h 0.226772v 45.7357h 0.226772v -27.4414h 0.226772v 27.4414h 0.226772v
 9.14714h 0.226772v 36.5886h 0.226772v -54.8828h 0.226772v 18.2943h 0.226772v -36.5886h 0.226772v 9.14714h 0.226772v 64.03h 0.226772v -54.8828h 0.226772v 18.2943h 0.226772v -118.913h 0.226772v 36.5886h 0.226772v 18.2943h 0.226772v 82.3242h 0.226772v
 -54.8828h 0.226772v 9.14714h 0.226772v -100.619h 0.226772v 137.207h 0.226772v -9.14714h 0.453543v -45.7357h 0.453543v 27.4414h 0.226772v 9.14714h 0.226772v -27.4414h 0.453543v 18.2943h 0.226772v -54.8828h 0.226772v 64.03h 0.226772v 9.14714h
 0.453543v -9.14714h 0.226772v -9.14714h 0.226772v -73.1771h 0.226772v 118.913h 0.453543v -64.03h 0.226772v -9.14714h 0.226772v 9.14714h 0.226772v -64.03h 0.226772v 100.619h 0.226772v -64.03h 0.226772v 91.4714h 0.226772v -36.5886h 0.226772v 9.14714h
 0.453543v 18.2943h 0.226772v -36.5886h 0.226772v 54.8828h 0.226772v -54.8828h 0.226772v -18.2943h 0.226772v 54.8828h 0.226772v -91.4714h 0.226772v -9.14714h 0.226772v 100.619h 0.226772v 9.14714h 0.226772v -9.14714h 0.226772v -64.03h 0.226772v
 -9.14714h 0.226772v 36.5886h 0.226772v -36.5886h 0.226772v 73.1771h 0.226772v -18.2943h 0.226772v -18.2943h 0.226772v -9.14714h 0.453543v 45.7357h 0.226772v -18.2943h 0.226772v -9.14714h 0.453543v -82.3242h 0.226772v 54.8828h 0.226772v -54.8828h
 0.226772v 118.913h 0.226772v -73.1771h 0.226772v 36.5886h 0.226772v 9.14714h 0.226772v -27.4414h 0.226772v 54.8828h 0.226772v -9.14714h 0.226772v 36.5886h 0.226772v -73.1771h 0.226772v 27.4414h 0.226772v -18.2943h 0.226772v -82.3242h 0.226772v
 155.501h 0.226772v -137.207h 0.226772v 91.4714h 0.226772v 27.4414h 0.226772v -45.7357h 0.226772v -54.8828h 0.226772v -54.8828h 0.226772v 164.648h 0.453543v -64.03h 0.226772v 45.7357h 0.226772v 45.7357h 0.226772v -45.7357h 0.226772v -64.03h 0.226772v
 36.5886h 0.226772v -54.8828h 0.226772v 54.8828h 0.226772v -9.14714h 0.226772v -27.4414h 0.453543v 18.2943h 0.226772v -45.7357h 0.226772v 91.4714h 0.226772v -118.913h 0.226772v 45.7357h 0.226772v 27.4414h 0.226772v -54.8828h 0.226772v -18.2943h
 0.226772v 73.1771h 0.226772v -82.3242h 0.226772v 54.8828h 0.453543v -45.7357h 0.226772v 100.619h 0.226772v -27.4414h 0.226772v 9.14714h 0.226772v -36.5886h 0.226772v 109.766h 0.226772v -82.3242h 0.226772v 9.14714h 0.226772v 27.4414h 0.226772v
 -18.2943h 0.226772v 36.5886h 0.226772v -18.2943h 0.226772v -9.14714h 0.226772v 27.4414h 0.226772v -128.06h 0.226772v 118.913h 0.226772v -109.766h 0.226772v 109.766h 0.226772v 54.8828h 0.226772v -73.1771h 0.226772v 27.4414h 0.226772v -36.5886h
 0.453543v 36.5886h 0.226772v -36.5886h 0.453543v -27.4414h 0.226772v 100.619h 0.226772v -18.2943h 0.226772v -155.501h 0.226772v 73.1771h 0.226772v 73.1771h 0.226772v -82.3242h 0.226772v 64.03h 0.226772v -54.8828h 0.226772v 54.8828h 0.226772v
 9.14714h 0.226772v -27.4414h 0.226772v -54.8828h 0.226772v 54.8828h 0.226772v -73.1771h 0.226772v 54.8828h 0.226772v -45.7357h 0.226772v 18.2943h 0.226772v 64.03h 0.226772v -18.2943h 0.226772v -18.2943h 0.453543v 9.14714h 0.226772v -27.4414h
 0.226772v 100.619h 0.226772v -73.1771h 0.226772v -18.2943h 0.226772v 64.03h 0.226772v -82.3242h 0.226772v 18.2943h 0.226772v 36.5886h 0.226772v -36.5886h 0.226772v -36.5886h 0.226772v 64.03h 0.226772v -27.4414h 0.226772v 18.2943h 0.226772v -36.5886h
 0.226772v 91.4714h 0.226772v -45.7357h 0.226772v 64.03h 0.226772v -164.648h 0.226772v 118.913h 0.226772v -27.4414h 0.226772v 27.4414h 0.226772v -45.7357h 0.226772v 54.8828h 0.453543v -91.4714h 0.226772v 82.3242h 0.226772v -9.14714h 0.226772v
 -9.14714h 0.226772v 9.14714h 0.226772v -9.14714h 0.453543v 45.7357h 0.226772v -36.5886h 0.226772v 36.5886h 0.226772v -64.03h 0.226772v -9.14714h 0.226772v 91.4714h 0.226772v -91.4714h 0.226772v 9.14714h 0.226772v -9.14714h 0.226772v -18.2943h
 0.226772v -9.14714h 0.226772v -54.8828h 0.226772v 109.766h 0.226772v 64.03h 0.226772v -9.14714h 0.226772v -36.5886h 0.226772v -27.4414h 0.226772v -27.4414h 0.226772v 45.7357h 0.226772v -9.14714h 0.226772v 9.14714h 0.226772v 36.5886h 0.226772v
 -54.8828h 0.226772v 27.4414h 0.226772v -54.8828h 0.226772v 45.7357h 0.226772v -82.3242h 0.226772v 109.766h 0.226772v -45.7357h 0.226772v 18.2943h 0.226772v 18.2943h 0.226772v -64.03h 0.226772v 54.8828h 0.226772v 9.14714h 0.226772v -9.14714h
 0.226772v 45.7357h 0.226772v -73.1771h 0.226772v -18.2943h 0.226772v 18.2943h 0.226772v 18.2943h 0.226772v -18.2943h 0.226772v -82.3242h 0.226772v 64.03h 0.226772v 45.7357h 0.226772v -18.2943h 0.226772v -9.14714h 0.226772v -45.7357h 0.226772v
 73.1771h 0.453543v 27.4414h 0.453543v 9.14714h 0.226772v -27.4414h 0.226772v 27.4414h 0.226772v -64.03h 0.226772v 18.2943h 0.226772v -9.14714h 0.226772v 54.8828h 0.226772v -36.5886h 0.226772v -36.5886h 0.226772v 45.7357h 0.226772v 9.14714h 0.226772v
 -18.2943h 0.226772v 18.2943h 0.226772v 36.5886h 0.226772v -82.3242h 0.226772v -64.03h 0.226772v 100.619h 0.226772v -27.4414h 0.226772v 36.5886h 0.453543v -45.7357h 0.226772v -36.5886h 0.226772v 82.3242h 0.226772v -45.7357h 0.226772v 18.2943h
 0.453543v -27.4414h 0.226772v 64.03h 0.453543v -36.5886h 0.226772v -36.5886h 0.226772v 64.03h 0.226772v -27.4414h 0.226772v 18.2943h 0.226772v -64.03h 0.226772v 9.14714h 0.226772v 27.4414h 0.226772v 9.14714h 0.453543v 27.4414h 0.226772v -27.4414h
 0.226772v 9.14714h 0.226772v -36.5886h 0.226772v 27.4414h 0.226772v -45.7357h 0.226772v 64.03h 0.453543v -45.7357h 0.226772v 27.4414h 0.226772v 9.14714h 0.226772v 9.14714h 0.453543v -18.2943h 0.226772v 18.2943h 0.226772v -27.4414h 0.226772v 27.4414h
 0.226772v -9.14714h 0.226772v -27.4414h 0.226772v 18.2943h 0.226772v -27.4414h 0.226772v 18.2943h 0.226772v 73.1771h 0.226772v -91.4714h 0.226772v 45.7357h 0.453543v -45.7357h 0.226772v -36.5886h 0.453543v 73.1771h 0.226772v 9.14714h 0.226772v
 -18.2943h 0.226772v 18.2943h 0.226772v -73.1771h 0.226772v 64.03h 0.226772v 27.4414h 0.226772v -91.4714h 0.226772v 64.03h 0.226772v 54.8828h 0.226772v -91.4714h 0.226772v 36.5886h 0.226772v -27.4414h 0.453543v 9.14714h 0.226772v 27.4414h 0.226772v
 27.4414h 0.226772v -82.3242h 0.453543v 73.1771h 0.453543v 9.14714h 0.453543v -45.7357h 0.226772v -9.14714h 0.226772v -9.14714h 0.226772v 36.5886h 0.226772v -64.03h 0.226772v 54.8828h 0.907087v 9.14714h 0.226772v -18.2943h 0.226772v 45.7357h
 0.226772v -18.2943h 0.226772v -27.4414h 0.453543v -36.5886h 0.226772v 45.7357h 0.226772v 9.14714h 0.226772v -9.14714h 0.226772v 91.4714h 0.226772v -91.4714h 0.226772v 54.8828h 0.226772v -45.7357h 0.226772v -9.14714h 0.226772v 9.14714h 0.226772v
 -9.14714h 0.226772v 64.03h 0.226772v -27.4414h 0.453543v -36.5886h 0.226772v 18.2943h 0.226772v 36.5886h 0.226772v -54.8828h 0.226772v 27.4414h 0.226772v -18.2943h 0.226772v -54.8828h 0.226772v -18.2943h 0.226772v 82.3242h 0.226772v -54.8828h
 0.226772v -36.5886h 0.226772v 64.03h 0.226772v -9.14714h 0.453543v 45.7357h 0.226772v 9.14714h 0.226772v -27.4414h 0.226772v -45.7357h 0.226772v 36.5886h 0.226772v -9.14714h 0.226772v -73.1771h 0.226772v 45.7357h 0.226772v 27.4414h 0.226772v 64.03h
 0.226772v -73.1771h 0.226772v 18.2943h 0.226772v 9.14714h 0.226772v -18.2943h 0.226772v 9.14714h 0.226772v -9.14714h 0.453543v 36.5886h 0.226772v -36.5886h 0.226772v 18.2943h 0.226772v -9.14714h 0.226772v -9.14714h 0.226772v 9.14714h 0.226772v
 -45.7357h 0.226772v 9.14714h 0.226772v 27.4414h 0.226772v -45.7357h 0.226772v 82.3242h 0.226772v 9.14714h 0.226772v -18.2943h 0.226772v -9.14714h 0.226772v -36.5886h 0.226772v 100.619h 0.226772v -64.03h 0.226772v -18.2943h 0.226772v 36.5886h
 0.226772v -18.2943h 0.226772v -18.2943h 0.453543v 45.7357h 0.226772v -9.14714h 0.226772v 27.4414h 0.226772v -64.03h 0.226772v -36.5886h 0.226772v 27.4414h 0.226772v 9.14714h 0.226772v 73.1771h 0.226772v -36.5886h 0.226772v -36.5886h 0.226772v
 -27.4414h 0.226772v 18.2943h 0.226772v 54.8828h 0.226772v -18.2943h 0.226772v -9.14714h 0.226772v -27.4414h 0.226772v 54.8828h 0.226772v -9.14714h 0.226772v -36.5886h 0.453543v 45.7357h 0.226772v -45.7357h 0.226772v 9.14714h 0.453543v 45.7357h
 0.226772v -73.1771h 0.226772v 27.4414h 0.226772v -73.1771h 0.226772v 91.4714h 0.453543v 9.14714h 0.226772v -64.03h 0.226772v 45.7357h 0.226772v -36.5886h 0.226772v 45.7357h 0.226772v 18.2943h 0.226772v -64.03h 0.226772v 64.03h 0.226772v -27.4414h
 0.226772v 18.2943h 0.226772v -36.5886h 0.226772v -9.14714h 0.226772v 27.4414h 0.226772v -45.7357h 0.226772v 45.7357h 0.226772v 45.7357h 0.226772v -45.7357h 0.226772v 9.14714h 0.226772v -18.2943h 0.226772v 9.14714h 0.680315v 9.14714h 0.226772v
 36.5886h 0.226772v -9.14714h 0.226772v 27.4414h 0.226772v -91.4714h 0.226772v 45.7357h 0.226772v -9.14714h 0.226772v -36.5886h 0.226772v 64.03h 0.226772v 36.5886h 0.226772v -9.14714h 0.226772v -100.619h 0.226772v 36.5886h 0.453543v 27.4414h
 0.226772v 9.14714h 0.226772v -54.8828h 0.226772v 54.8828h 0.226772v -45.7357h 0.226772v -9.14714h 0.226772v -9.14714h 0.226772v 54.8828h 0.226772v -9.14714h 0.226772v -36.5886h 0.226772v 27.4414h 0.226772v -9.14714h 0.226772v 9.14714h 0.226772v
 18.2943h 0.226772v 54.8828h 0.226772v -73.1771h 0.453543v -45.7357h 0.226772v 36.5886h 0.226772v 27.4414h 0.226772v -9.14714h 0.226772v 45.7357h 0.226772v -36.5886h 0.226772v -9.14714h 0.453543v 9.14714h 0.226772v 18.2943h 0.226772v 9.14714h
 0.226772v -18.2943h 0.226772v -9.14714h 0.226772v -18.2943h 0.226772v 9.14714h 0.226772v -27.4414h 0.226772v 27.4414h 0.226772v -64.03h 0.226772v 36.5886h 0.226772v 36.5886h 0.226772v -18.2943h 0.226772v 54.8828h 0.226772v -45.7357h 0.226772v
 -18.2943h 0.226772v 18.2943h 0.226772v -18.2943h 0.226772v 27.4414h 0.226772v -27.4414h 0.226772v -9.14714h 0.226772v 18.2943h 0.453543v 9.14714h 0.226772v -27.4414h 0.226772v 45.7357h 0.226772v -18.2943h 0.453543v 64.03h 0.226772v -73.1771h
 0.226772v 45.7357h 0.226772v -36.5886h 0.226772v 9.14714h 0.226772v 9.14714h 0.226772v 36.5886h 0.226772v -45.7357h 0.226772v 18.2943h 0.453543v -9.14714h 0.226772v -27.4414h 0.226772v 27.4414h 0.226772v 18.2943h 0.226772v -54.8828h 0.226772v
 -18.2943h 0.226772v 27.4414h 0.226772v 27.4414h 0.226772v 45.7357h 0.226772v -100.619h 0.226772v 54.8828h 0.226772v -36.5886h 0.226772v 54.8828h 0.226772v -54.8828h 0.226772v 9.14714h 0.226772v 18.2943h 0.226772v 9.14714h 0.226772v -27.4414h
 0.226772v 64.03h 0.226772v -36.5886h 0.226772v -36.5886h 0.226772v 18.2943h 0.226772v 9.14714h 0.226772v -9.14714h 0.226772v -27.4414h 0.226772v 54.8828h 0.226772v -9.14714h 0.226772v 9.14714h 0.226772v -9.14714h 0.226772v -18.2943h 0.226772v
 18.2943h 0.226772v -27.4414h 0.226772v 73.1771h 0.226772v -54.8828h 0.226772v -54.8828h 0.226772v 54.8828h 0.226772v 9.14714h 0.226772v -9.14714h 0.226772v 9.14714h 0.226772v 36.5886h 0.226772v 18.2943h 0.226772v -54.8828h 0.226772v -73.1771h
 0.226772v 82.3242h 0.226772v -27.4414h 0.226772v -73.1771h 0.226772v 73.1771h 0.226772v 45.7357h 0.226772v -18.2943h 0.226772v -54.8828h 0.226772v 82.3242h 0.226772v -82.3242h 0.226772v 27.4414h 0.226772v 9.14714h 0.226772v 18.2943h 0.226772v
 -36.5886h 0.226772v 27.4414h 0.226772v 27.4414h 0.226772v 18.2943h 0.226772v -45.7357h 0.226772v 9.14714h 0.226772v 18.2943h 0.226772v -27.4414h 0.226772v 9.14714h 0.226772v 27.4414h 0.226772v -9.14714h 0.226772v 18.2943h 0.226772v -27.4414h
 0.226772v 27.4414h 0.226772v 9.14714h 0.226772v 9.14714h 0.226772v -64.03h 0.226772v 27.4414h 0.453543v 27.4414h 0.226772v -54.8828h 0.226772v 36.5886h 0.226772v 9.14714h 0.453543v -18.2943h 0.226772v 27.4414h 0.226772v -36.5886h 0.226772v 9.14714h
 0.226772v -27.4414h 0.226772v 18.2943h 0.226772v 27.4414h 0.453543v -45.7357h 0.226772v 27.4414h 0.226772v 18.2943h 0.453543v -36.5886h 0.226772v 45.7357h 0.226772v -27.4414h 0.226772v -45.7357h 0.226772v 64.03h 0.226772v -9.14714h 0.226772v
 -9.14714h 0.226772v -45.7357h 0.226772v 45.7357h 0.453543v 9.14714h 0.226772v -27.4414h 0.226772v 9.14714h 0.226772v 9.14714h 0.226772v 27.4414h 0.226772v -27.4414h 0.453543v -9.14714h 0.680315v 36.5886h 0.226772v -27.4414h 0.226772v -27.4414h
 0.226772v 54.8828h 0.226772v -36.5886h 0.226772v -18.2943h 0.226772v 27.4414h 0.226772v 9.14714h 0.226772v 18.2943h 0.226772v -18.2943h 0.226772v 18.2943h 0.226772v -36.5886h 0.226772v 9.14714h 0.226772v 27.4414h 0.226772v -9.14714h 0.226772v
 -27.4414h 0.226772v 27.4414h 0.226772v 27.4414h 0.226772v -45.7357h 0.226772v 18.2943h 0.226772v -18.2943h 0.226772v -9.14714h 0.226772v 18.2943h 0.226772v 36.5886h 0.226772v -9.14714h 0.226772v -54.8828h 0.226772v 36.5886h 0.226772v 36.5886h
 0.226772v -54.8828h 0.226772v 27.4414h 0.226772v 9.14714h 0.226772v -18.2943h 0.226772v -36.5886h 0.226772v 18.2943h 0.226772v 18.2943h 0.453543v -9.14714h 0.226772v 27.4414h 0.226772v -9.14714h 0.226772v -9.14714h 0.680315v -54.8828h 0.226772v
 64.03h 0.226772v -36.5886h 0.226772v 36.5886h 0.226772v -36.5886h 0.226772v -18.2943h 0.226772v 45.7357h 0.226772v 27.4414h 0.226772v -54.8828h 0.226772v 27.4414h 0.226772v 18.2943h 0.453543v -54.8828h 0.226772v 54.8828h 0.226772v 9.14714h 0.226772v
 -36.5886h 0.226772v 9.14714h 0.226772v 36.5886h 0.226772v -36.5886h 0.226772v 9.14714h 0.226772v 18.2943h 0.226772v -36.5886h 0.226772v -9.14714h 0.226772v 18.2943h 0.226772v -9.14714h 0.226772v 18.2943h 0.226772v 9.14714h 0.226772v 18.2943h
 0.226772v -36.5886h 0.226772v 27.4414h 0.226772v -9.14714h 0.226772v -18.2943h 0.226772v 18.2943h 0.226772v -9.14714h 0.226772v -36.5886h 0.226772v 54.8828h 0.226772v -9.14714h 0.226772v -27.4414h 0.226772v 18.2943h 0.226772v -18.2943h 0.226772v
 27.4414h 0.226772v -9.14714h 0.226772v -64.03h 0.226772v 54.8828h 0.453543v 9.14714h 0.226772v -9.14714h 0.226772v 9.14714h 0.680315v -18.2943h 0.453543v 18.2943h 0.226772v 9.14714h 0.226772v -45.7357h 0.226772v 27.4414h 0.226772v 18.2943h 0.680315v
 -36.5886h 0.226772v -9.14714h 0.226772v 36.5886h 0.453543v -9.14714h 0.226772v -9.14714h 0.226772v 18.2943h 0.226772v -18.2943h 0.226772v 9.14714h 0.226772v 36.5886h 0.226772v -9.14714h 0.226772v -18.2943h 0.226772v -27.4414h 0.226772v 27.4414h
 0.226772v -18.2943h 0.226772v 9.14714h 0.226772v 18.2943h 0.226772v -9.14714h 0.226772v -18.2943h 0.453543v 18.2943h 0.453543v -9.14714h 0.226772v 18.2943h 0.453543v 9.14714h 0.226772v -18.2943h 0.226772v -9.14714h 0.453543v 9.14714h 0.226772v
 9.14714h 0.453543v 9.14714h 0.453543v 9.14714h 0.226772v -27.4414h 0.226772v -18.2943h 0.226772v 9.14714h 0.226772v 18.2943h 0.226772v -9.14714h 0.453543v -27.4414h 0.226772v 18.2943h 0.226772v -18.2943h 0.226772v 27.4414h 0.680315v 9.14714h
 0.453543v -18.2943h 0.226772v 9.14714h 0.226772v 18.2943h 0.226772v -9.14714h 0.453543v -9.14714h 0.226772v -36.5886h 0.226772v 45.7357h 0.226772v -9.14714h 0.226772v 18.2943h 0.226772v -27.4414h 0.226772v 18.2943h 0.226772v -18.2943h 0.226772v
 27.4414h 0.453543v -18.2943h 0.226772v -9.14714h 0.226772v 18.2943h 0.453543v 9.14714h 0.226772v -18.2943h 0.226772v -9.14714h 0.226772v 36.5886h 0.226772v -9.14714h 0.226772v -9.14714h 0.226772v 9.14714h 0.226772v 9.14714h 0.226772v -18.2943h
 0.226772v 9.14714h 0.226772v -18.2943h 0.226772v 18.2943h 0.226772v -18.2943h 0.226772v 9.14714h 0.453543v -9.14714h 0.680315v 9.14714h 0.226772v -45.7357h 0.226772v 45.7357h 0.226772v 9.14714h 0.226772v -9.14714h 0.907087v 18.2943h 0.226772v
 -27.4414h 0.453543v 18.2943h 0.453543v 9.14714h 0.226772v -9.14714h 0.226772v -27.4414h 0.680315v 9.14714h 0.226772v 9.14714h 0.226772v 9.14714h 0.226772v -9.14714h 0.226772v 9.14714h 0.226772v -9.14714h 0.226772v 9.14714h 0.226772v -18.2943h
 0.453543v 9.14714h 0.226772v -9.14714h 0.453543v 9.14714h 0.226772v 9.14714h 0.226772v -9.14714h 0.680315v -9.14714h 0.226772v 9.14714h 0.226772v 9.14714h 0.226772v 9.14714h 0.226772v -18.2943h 0.226772v 18.2943h 0.226772v -27.4414h 0.226772v
 27.4414h 0.226772v -18.2943h 0.226772v -27.4414h 0.226772v 18.2943h 0.226772v -9.14714h 0.226772v 9.14714h 0.226772v 9.14714h 0.453543v -18.2943h 0.226772v 27.4414h 0.226772v -9.14714h 0.226772v -9.14714h 0.226772v 9.14714h 0.453543v 18.2943h
 0.226772v -9.14714h 0.226772v -9.14714h 0.226772v -18.2943h 0.453543v 18.2943h 0.226772v -18.2943h 0.226772v 36.5886h 0.226772v -18.2943h 0.226772v 18.2943h 0.226772v -27.4414h 0.680315v 9.14714h 0.226772v -9.14714h 0.226772v 18.2943h 0.453543v
 -18.2943h 0.226772v -18.2943h 0.226772v 18.2943h 0.226772v 18.2943h 0.226772v -18.2943h 0.226772v 27.4414h 0.226772v -18.2943h 0.453543v -36.5886h 0.226772v 54.8828h 0.226772v -27.4414h 0.226772v 18.2943h 0.226772v -9.14714h 0.226772v -27.4414h
 0.226772v 36.5886h 0.226772v -18.2943h 0.226772v 18.2943h 0.226772v 9.14714h 0.226772v -9.14714h 0.226772v -9.14714h 0.453543v -9.14714h 0.226772v 9.14714h 0.226772v -18.2943h 0.226772v 9.14714h 0.226772v 27.4414h 0.226772v -27.4414h 0.226772v
 9.14714h 0.226772v 9.14714h 0.907087v -9.14714h 0.226772v 18.2943h 0.226772v -36.5886h 0.226772v 18.2943h 0.226772v 9.14714h 0.226772v 9.14714h 0.226772v -27.4414h 0.226772v 18.2943h 0.453543v -9.14714h 0.226772v 18.2943h 0.226772v -9.14714h
 0.226772v -9.14714h 0.226772v 9.14714h 0.680315v -18.2943h 0.226772v 18.2943h 0.226772v -9.14714h 0.226772v 9.14714h 0.907087v -27.4414h 0.226772v 36.5886h 0.226772v -9.14714h 0.226772v -18.2943h 0.226772v 18.2943h 0.226772v -27.4414h 0.226772v
 9.14714h 0.226772v 9.14714h 0.226772v -9.14714h 0.226772v 18.2943h 0.226772v -9.14714h 0.226772v 9.14714h 0.226772v -18.2943h 0.226772v 9.14714h 0.453543v 18.2943h 0.226772v -9.14714h 0.226772v -9.14714h 0.453543v 18.2943h 0.453543v -9.14714h
 0.453543v 9.14714h 0.226772v -18.2943h 0.453543v 9.14714h 0.226772v -9.14714h 0.453543v 9.14714h 0.226772v 9.14714h 0.226772v -36.5886h 0.226772v 36.5886h 0.226772v -18.2943h 0.226772v 9.14714h 0.453543v -9.14714h 0.226772v 9.14714h 0.226772v
 -9.14714h 0.226772v 9.14714h 0.453543v -9.14714h 0.453543v 9.14714h 0.453543v -18.2943h 0.680315v -9.14714h 0.226772v 36.5886h 0.226772v -18.2943h 0.453543v 9.14714h 0.226772v -9.14714h 0.226772v 18.2943h 0.453543v -18.2943h 0.453543v 18.2943h
 0.226772v -18.2943h 0.226772v 18.2943h 0.453543v -36.5886h 0.226772v 27.4414h 0.226772v -9.14714h 0.226772v 9.14714h 0.680315v 9.14714h 0.453543v -9.14714h 0.226772v -9.14714h 0.226772v -9.14714h 0.226772v 27.4414h 0.226772v -9.14714h 0.226772v
 9.14714h 0.453543v -9.14714h 0.226772v -9.14714h 0.226772v 18.2943h 0.226772v -9.14714h 0.226772v -9.14714h 0.226772v 18.2943h 0.680315v -9.14714h 0.226772v 9.14714h 0.226772v -18.2943h 0.226772v 9.14714h 0.226772v -9.14714h 0.226772v -9.14714h
 0.226772v 9.14714h 0.226772v 9.14714h 0.226772v -9.14714h 0.226772v 18.2943h 0.226772v -18.2943h 0.226772v 18.2943h 0.226772v -9.14714h 0.453543v 9.14714h 0.680315v -9.14714h 0.453543v 9.14714h 0.680315v -9.14714h 0.453543v -9.14714h 0.226772v
 9.14714h 0.226772v 9.14714h 0.226772v -18.2943h 0.226772v 9.14714h 0.453543v -18.2943h 0.226772v 18.2943h 0.226772v 9.14714h 0.226772v -9.14714h 1.13386v -18.2943h 0.226772v 18.2943h 0.226772v -9.14714h 0.226772v 18.2943h 0.226772v -9.14714h
 0.453543v -9.14714h 0.226772v 18.2943h 0.226772v -18.2943h 0.226772v 18.2943h 0.453543v -18.2943h 0.226772v 18.2943h 0.226772v -27.4414h 0.680315v 27.4414h 0.226772v -18.2943h 0.226772v -18.2943h 0.226772v 18.2943h 0.226772v -9.14714h 0.226772v
 9.14714h 0.453543v 18.2943h 0.453543v -9.14714h 0.226772v 9.14714h 0.453543v -9.14714h 0.226772v 9.14714h 0.226772v -9.14714h 0.453543v -18.2943h 0.226772v 9.14714h 0.226772v 18.2943h 0.226772v -9.14714h 0.226772v 9.14714h 1.13386v -18.2943h
 0.226772v 9.14714h 0.453543v 9.14714h 0.226772v -18.2943h 0.453543v 18.2943h 0.453543v -9.14714h 0.226772v 9.14714h 0.226772v -9.14714h 0.453543v 9.14714h 0.680315v -18.2943h 0.226772v 18.2943h 0.226772v -9.14714h 0.453543v 9.14714h 0.453543v
 -9.14714h 0.226772v 9.14714h 0.453543v -9.14714h 0.226772v -9.14714h 0.226772v 18.2943h 0.226772v -9.14714h 0.226772v -9.14714h 0.453543v 9.14714h 0.226772v -18.2943h 0.226772v 9.14714h 0.226772v 18.2943h 1.13386v -18.2943h 0.226772v 18.2943h
 0.226772v -9.14714h 0.226772v 9.14714h 0.226772v -9.14714h 0.453543v -18.2943h 0.226772v 27.4414h 0.453543v -18.2943h 0.226772v -9.14714h 0.226772v 18.2943h 0.226772v 9.14714h 0.453543v -9.14714h 0.453543v -9.14714h 0.453543v 18.2943h 0.226772v
 -27.4414h 0.226772v 27.4414h 0.226772v -9.14714h 0.226772v 9.14714h 0.226772v -18.2943h 0.226772v -9.14714h 0.226772v 27.4414h 0.680315v -9.14714h 0.226772v 9.14714h 0.226772v -18.2943h 0.226772v 18.2943h 0.453543v -18.2943h 0.226772v 9.14714h
 0.226772v -9.14714h 0.226772v 9.14714h 0.226772v -18.2943h 0.226772v 18.2943h 0.226772v 9.14714h 0.226772v -9.14714h 0.226772v -27.4414h 0.226772v 27.4414h 0.453543v 9.14714h 0.226772v -9.14714h 0.680315v 9.14714h 0.453543v -18.2943h 0.226772v
 9.14714h 0.226772v -9.14714h 0.453543v 18.2943h 0.453543v -9.14714h 0.226772v 9.14714h 0.226772v -18.2943h 1.5874v 9.14714h 0.453543v 9.14714h 1.13386v -9.14714h 0.453543v 9.14714h 0.226772v -27.4414h 0.226772v 9.14714h 0.226772v 18.2943h 0.453543v
 -9.14714h 0.226772v -9.14714h 0.226772v 9.14714h 0.226772v 9.14714h 0.226772v -18.2943h 0.226772v 9.14714h 0.453543v 9.14714h 0.680315v -9.14714h 0.226772v 9.14714h 0.226772v -9.14714h 0.226772v 9.14714h 0.453543v -9.14714h 0.226772v -9.14714h
 0.226772v 18.2943h 0.226772v -9.14714h 0.453543v 9.14714h 0.680315v -18.2943h 0.226772v 9.14714h 0.453543v 9.14714h 0.226772v -9.14714h 1.13386v 9.14714h 0.453543v -9.14714h 0.226772v 9.14714h 0.226772v -18.2943h 0.226772v 18.2943h 1.36063v
 -9.14714h 0.907087v -9.14714h 0.226772v 9.14714h 0.453543v 9.14714h 0.226772v -27.4414h 0.453543v 27.4414h 0.226772v -27.4414h 0.226772v 27.4414h 0.226772v -9.14714h 0.226772v 9.14714h 0.226772v -9.14714h 0.453543v -9.14714h 0.226772v 18.2943h
 0.226772v -9.14714h 0.226772v 9.14714h 0.226772v -9.14714h 0.226772v -18.2943h 0.226772v 27.4414h 0.226772v -9.14714h 0.226772v 9.14714h 0.453543v -18.2943h 0.226772v 18.2943h 0.226772v -9.14714h 0.226772v 9.14714h 0.226772v -18.2943h 0.226772v
 18.2943h 0.453543v -9.14714h 0.907087v 9.14714h 0.453543v -9.14714h 0.226772v 9.14714h 0.680315v -9.14714h 0.680315v 9.14714h 0.226772v -9.14714h 0.226772v 9.14714h 0.226772v -9.14714h 0.453543v -18.2943h 0.226772v 9.14714h 0.226772v 18.2943h
 0.907087v -9.14714h 0.453543v 9.14714h 0.226772v -9.14714h 0.226772v 9.14714h 0.226772v -9.14714h 0.226772v 9.14714h 0.226772v -18.2943h 0.226772v 18.2943h 0.226772v -9.14714h 0.226772v -9.14714h 0.226772v 9.14714h 0.226772v 9.14714h 1.36063v
 -27.4414h 0.226772v 18.2943h 0.226772v 9.14714h 0.226772v -18.2943h 0.226772v 18.2943h 0.226772v -9.14714h 0.680315v 9.14714h 0.226772v -9.14714h 0.226772v 9.14714h 0.453543v -9.14714h 0.226772v 9.14714h 0.453543v -9.14714h 0.680315v 9.14714h
 0.453543v -9.14714h 0.226772v 9.14714h 0.226772v -27.4414h 0.226772v 27.4414h 0.453543v -9.14714h 0.226772v -9.14714h 0.226772v 9.14714h 0.453543v 9.14714h 0.453543v -9.14714h 0.907087v 9.14714h 0.226772v -18.2943h 0.226772v 18.2943h 0.907087v
 -9.14714h 0.226772v 9.14714h 0.680315v -9.14714h 0.453543v 9.14714h 0.907087v -9.14714h 0.226772v 9.14714h 1.36063v -18.2943h 0.226772v 9.14714h 0.226772v 9.14714h 0.907087v -9.14714h 0.226772v 9.14714h 1.5874v -9.14714h 0.453543v 9.14714h 0.453543v
 -18.2943h 0.226772v 9.14714h 0.226772v 9.14714h 0.453543v -9.14714h 0.226772v 9.14714h 0.453543v -9.14714h 0.226772v 9.14714h 0.453543v -9.14714h 0.226772v 9.14714h 1.5874v -9.14714h 0.226772v 9.14714h 0.907087v -9.14714h 0.226772v 9.14714h
 0.226772v -9.14714h 0.226772v 9.14714h 0.680315v -9.14714h 0.453543v 9.14714h 0.226772v -18.2943h 0.226772v 9.14714h 0.226772v 9.14714h 1.5874v -9.14714h 0.226772v 9.14714h 4.30866v -9.14714h 0.226772v 9.14714h 0.680315v -9.14714h 0.226772v 9.14714h
 0.226772v -9.14714h 0.226772v 9.14714h 0.680315v -9.14714h 0.226772v 9.14714h 6.57638v -9.14714h 0.226772v 9.14714h 0.226772v -9.14714h 0.226772v 9.14714h 2.26772v -9.14714h 0.226772v 9.14714h 2.94803v -9.14714h 0.226772v 9.14714h 0.680315v
 -9.14714h 0.226772v 9.14714h 0.680315v -9.14714h 0.226772v 9.14714h 2.04094v -9.14714h 0.226772v 9.14714h 2.49449v -9.14714h 0.226772v 9.14714h 12.0189v -9.14714h 0.226772v 9.14714h 0.907087v -9.14714h 0.226772v 9.14714h 6.80315v -9.14714h 0.226772v
 9.14714h 2.49449v -9.14714h 0.226772v 9.14714h 3.1748v -9.14714h 0.453543v 9.14714h 26.9858v -9.14714h 0.226772" fill="none" stroke="#000099"/>
<path d="M148.355,219.313l 0.907087, 0.0381921l 0.907087, 0.0416151l 0.907087, 0.0452997l 0.907087, 0.0492614l 0.907087, 0.0535161l 0.907087, 0.0580802l 0.907087, 0.0629708l 0.907087, 0.068205l 0.907087, 0.0738006l 0.907087, 0.0797757l 0.907087,
 0.0861484l 0.907087, 0.0929375l 0.907087, 0.100162l 0.907087, 0.107839l 0.907087, 0.11599l 0.907087, 0.124632l 0.907087, 0.133785l 0.907087, 0.143466l 0.907087, 0.153695l 0.907087, 0.164488l 0.907087, 0.175864l 0.907087, 0.187839l 0.907087, 0.20043l
 0.907087, 0.213651l 0.907087, 0.227516l 0.907087, 0.24204l 0.907087, 0.257235l 0.907087, 0.27311l 0.907087, 0.289676l 0.907087, 0.306941l 0.907087, 0.32491l 0.907087, 0.343588l 0.907087, 0.362977l 0.907087, 0.383077l 0.907087, 0.403888l 0.907087,
 0.425404l 0.907087, 0.447619l 0.907087, 0.470525l 0.907087, 0.49411l 0.907087, 0.518359l 0.907087, 0.543256l 0.907087, 0.56878l 0.907087, 0.59491l 0.907087, 0.62162l 0.907087, 0.64888l 0.907087, 0.676661l 0.907087, 0.704927l 0.907087, 0.733641l
 0.907087, 0.762763" fill="none" stroke="#ff0000" stroke-width="2"/>
<path d="M192.802,233.511l 0.907087, 0.79225l 0.907087, 0.822056l 0.907087, 0.852133l 0.907087, 0.882429l 0.907087, 0.912891l 0.907087, 0.943462l 0.907087, 0.974084l 0.907087, 1.0047l 0.907087, 1.03524l 0.907087, 1.06564l 0.907087, 1.09585l 0.907087,
 1.12578l 0.907087, 1.15538l 0.907087, 1.18458l 0.907087, 1.2133l 0.907087, 1.24148l 0.907087, 1.26905l 0.907087, 1.29593l 0.907087, 1.32206l 0.907087, 1.34738l 0.907087, 1.37181l 0.907087, 1.39529l 0.907087, 1.41775l 0.907087, 1.43914l 0.907087,
 1.4594l 0.907087, 1.47847l 0.907087, 1.49629l 0.907087, 1.51281l 0.907087, 1.52799l 0.907087, 1.54178l 0.907087, 1.55415l 0.907087, 1.56505l 0.907087, 1.57446l 0.907087, 1.58234l 0.907087, 1.58868l 0.907087, 1.59345l 0.907087, 1.59664l 0.907087,
 1.59824l 0.907087, 1.59825l 0.907087, 1.59666l 0.907087, 1.59349l 0.907087, 1.58873l 0.907087, 1.58241l 0.907087, 1.57454l 0.907087, 1.56514l 0.907087, 1.55425l 0.907087, 1.5419l 0.907087, 1.52812l 0.907087, 1.51295" fill="none" stroke="#ff0000"
 stroke-width="2"/>
<path d="M237.25,299.577l 0.907087, 1.49644" fill="none" stroke="#ff0000" stroke-width="2"/>
<rect x="442.705" y="24.9717" width="113.386" height="61.4688" fill="white"/>
<path d="M442.705,86.4405h 113.386" fill="none" stroke="black"/>
<path d="M556.091,86.4405v -61.4688" fill="none" stroke="black"/>
<path d="M556.091,24.9717h -113.386" fill="none" stroke="black"/>
<path d="M442.705,24.9717v 61.4688" fill="none" stroke="black"/>
<text xml:space="preserve" x="452.094" y="36.5499" fill="black" font-size="13.4705" font-family="Helvetica">Na_CE_OSN(A)</text>
<path d="M442.705,40.3389h 113.386" fill="none" stroke="black"/>
<text xml:space="preserve" x="448.033" y="52.7943" fill="black" font-size="12.7411" font-family="Helvetica">Entries </text>
<text xml:space="preserve" x="513.01" y="52.7943" fill="black" font-size="12.7411" font-family="Helvetica"> 12000</text>
<text xml:space="preserve" x="448.033" y="68.2264" fill="black" font-size="12.7411" font-family="Helvetica">Mean  </text>
<text xml:space="preserve" x="513.01" y="68.2264" fill="black" font-size="12.7411" font-family="Helvetica">  475.7</text>
<text xml:space="preserve" x="448.033" y="82.8464" fill="black" font-size="12.7411" font-family="Helvetica">Std Dev   </text>
<text xml:space="preserve" x="515.447" y="82.8464" fill="black" font-size="12.7411" font-family="Helvetica">  298.1</text>
<path d="M57.1929,345.762h 453.543" fill="none" stroke="black"/>
<path d="M57.1929,336.541v 9.22031" fill="none" stroke="black"/>
<path d="M68.5315,341.152v 4.61016" fill="none" stroke="black"/>
<path d="M79.8701,341.152v 4.61016" fill="none" stroke="black"/>
<path d="M91.2087,341.152v 4.61016" fill="none" stroke="black"/>
<path d="M102.547,336.541v 9.22031" fill="none" stroke="black"/>
<path d="M113.886,341.152v 4.61016" fill="none" stroke="black"/>
<path d="M125.224,341.152v 4.61016" fill="none" stroke="black"/>
<path d="M136.563,341.152v 4.61016" fill="none" stroke="black"/>
<path d="M147.902,336.541v 9.22031" fill="none" stroke="black"/>
<path d="M159.24,341.152v 4.61016" fill="none" stroke="black"/>
<path d="M170.579,341.152v 4.61016" fill="none" stroke="black"/>
<path d="M181.917,341.152v 4.61016" fill="none" stroke="black"/>
<path d="M193.256,336.541v 9.22031" fill="none" stroke="black"/>
<path d="M204.594,341.152v 4.61016" fill="none" stroke="black"/>
<path d="M215.933,341.152v 4.61016" fill="none" stroke="black"/>
<path d="M227.272,341.152v 4.61016" fill="none" stroke="black"/>
<path d="M238.61,336.541v 9.22031" fill="none" stroke="black"/>
<path d="M249.949,341.152v 4.61016" fill="none" stroke="black"/>
<path d="M261.287,341.152v 4.61016" fill="none" stroke="black"/>
<path d="M272.626,341.152v 4.61016" fill="none" stroke="black"/>
<path d="M283.965,336.541v 9.22031" fill="none" stroke="black"/>
<path d="M295.303,341.152v 4.61016" fill="none" stroke="black"/>
<path d="M306.642,341.152v 4.61016" fill="none" stroke="black"/>
<path d="M317.98,341.152v 4.61016" fill="none" stroke="black"/>
<path d="M329.319,336.541v 9.22031" fill="none" stroke="black"/>
<path d="M340.657,341.152v 4.61016" fill="none" stroke="black"/>
<path d="M351.996,341.152v 4.61016" fill="none" stroke="black"/>
<path d="M363.335,341.152v 4.61016" fill="none" stroke="black"/>
<path d="M374.673,336.541v 9.22031" fill="none" stroke="black"/>
<path d="M386.012,341.152v 4.61016" fill="none" stroke="black"/>
<path d="M397.35,341.152v 4.61016" fill="none" stroke="black"/>
<path d="M408.689,341.152v 4.61016" fill="none" stroke="black"/>
<path d="M420.028,336.541v 9.22031" fill="none" stroke="black"/>
<path d="M431.366,341.152v 4.61016" fill="none" stroke="black"/>
<path d="M442.705,341.152v 4.61016" fill="none" stroke="black"/>
<path d="M454.043,341.152v 4.61016" fill="none" stroke="black"/>
<path d="M465.382,336.541v 9.22031" fill="none" stroke="black"/>
<path d="M476.72,341.152v 4.61016" fill="none" stroke="black"/>
<path d="M488.059,341.152v 4.61016" fill="none" stroke="black"/>
<path d="M499.398,341.152v 4.61016" fill="none" stroke="black"/>
<path d="M510.736,336.541v 9.22031" fill="none" stroke="black"/>
<text xml:space="preserve" x="53.2943" y="358.189" fill="black" font-size="12.836" font-family="Helvetica">0</text>
<text xml:space="preserve" x="91.4686" y="358.189" fill="black" font-size="12.836" font-family="Helvetica">200</text>
<text xml:space="preserve" x="136.953" y="358.189" fill="black" font-size="12.836" font-family="Helvetica">400</text>
<text xml:space="preserve" x="182.437" y="358.189" fill="black" font-size="12.836" font-family="Helvetica">600</text>
<text xml:space="preserve" x="227.921" y="358.189" fill="black" font-size="12.836" font-family="Helvetica">800</text>
<text xml:space="preserve" x="270.157" y="358.189" fill="black" font-size="12.836" font-family="Helvetica">1000</text>
<text xml:space="preserve" x="314.829" y="358.189" fill="black" font-size="12.836" font-family="Helvetica">1200</text>
<text xml:space="preserve" x="360.313" y="358.189" fill="black" font-size="12.836" font-family="Helvetica">1400</text>
<text xml:space="preserve" x="405.797" y="358.189" fill="black" font-size="12.836" font-family="Helvetica">1600</text>
<text xml:space="preserve" x="451.282" y="358.189" fill="black" font-size="12.836" font-family="Helvetica">1800</text>
<text xml:space="preserve" x="496.766" y="358.189" fill="black" font-size="12.836" font-family="Helvetica">2000</text>
<text xml:space="preserve" x="452.094" y="371.996" fill="black" font-size="12.836" font-family="Helvetica">ADC value</text>
<path d="M57.1929,345.762v -307.344" fill="none" stroke="black"/>
<path d="M70.7992,345.762h -13.6063" fill="none" stroke="black"/>
<path d="M63.9961,336.615h -6.80315" fill="none" stroke="black"/>
<path d="M63.9961,327.468h -6.80315" fill="none" stroke="black"/>
<path d="M63.9961,318.32h -6.80315" fill="none" stroke="black"/>
<path d="M63.9961,309.173h -6.80315" fill="none" stroke="black"/>
<path d="M70.7992,300.026h -13.6063" fill="none" stroke="black"/>
<path d="M63.9961,290.879h -6.80315" fill="none" stroke="black"/>
<path d="M63.9961,281.732h -6.80315" fill="none" stroke="black"/>
<path d="M63.9961,272.585h -6.80315" fill="none" stroke="black"/>
<path d="M63.9961,263.438h -6.80315" fill="none" stroke="black"/>
<path d="M70.7992,254.29h -13.6063" fill="none" stroke="black"/>
<path d="M63.9961,245.143h -6.80315" fill="none" stroke="black"/>
<path d="M63.9961,235.996h -6.80315" fill="none" stroke="black"/>
<path d="M63.9961,226.849h -6.80315" fill="none" stroke="black"/>
<path d="M63.9961,217.702h -6.80315" fill="none" stroke="black"/>
<path d="M70.7992,208.555h -13.6063" fill="none" stroke="black"/>
<path d="M63.9961,199.408h -6.80315" fill="none" stroke="black"/>
<path d="M63.9961,190.26h -6.80315" fill="none" stroke="black"/>
<path d="M63.9961,181.113h -6.80315" fill="none" stroke="black"/>
<path d="M63.9961,171.966h -6.80315" fill="none" stroke="black"/>
<path d="M70.7992,162.819h -13.6063" fill="none" stroke="black"/>
<path d="M63.9961,153.672h -6.80315" fill="none" stroke="black"/>
<path d="M63.9961,144.525h -6.80315" fill="none" stroke="black"/>
<path d="M63.9961,135.378h -6.80315" fill="none" stroke="black"/>
<path d="M63.9961,126.23h -6.80315" fill="none" stroke="black"/>
<path d="M70.7992,117.083h -13.6063" fill="none" stroke="black"/>
<path d="M63.9961,107.936h -6.80315" fill="none" stroke="black"/>
<path d="M63.9961,98.7891h -6.80315" fill="none" stroke="black"/>
<path d="M63.9961,89.642h -6.80315" fill="none" stroke="black"/>
<path d="M63.9961,80.4948h -6.80315" fill="none" stroke="black"/>
<path d="M70.7992,71.3477h -13.6063" fill="none" stroke="black"/>
<path d="M70.7992,71.3477h -13.6063" fill="none" stroke="black"/>
<path d="M63.9961,62.2005h -6.80315" fill="none" stroke="black"/>
<path d="M63.9961,53.0534h -6.80315" fill="none" stroke="black"/>
<path d="M63.9961,43.9063h -6.80315" fill="none" stroke="black"/>
<text xml:space="preserve" x="47.6087" y="350.067" fill="black" font-size="12.836" font-family="Helvetica">0</text>
<text xml:space="preserve" x="47.6087" y="304.582" fill="black" font-size="12.836" font-family="Helvetica">5</text>
<text xml:space="preserve" x="41.111" y="259.098" fill="black" font-size="12.836" font-family="Helvetica">10</text>
<text xml:space="preserve" x="40.2988" y="212.801" fill="black" font-size="12.836" font-family="Helvetica">15</text>
<text xml:space="preserve" x="41.111" y="167.317" fill="black" font-size="12.836" font-family="Helvetica">20</text>
<text xml:space="preserve" x="40.2988" y="121.833" fill="black" font-size="12.836" font-family="Helvetica">25</text>
<text xml:space="preserve" x="41.111" y="75.5364" fill="black" font-size="12.836" font-family="Helvetica">30</text>
<g transform="rotate(-90,28.1155,75.5364)">
<text xml:space="preserve" x="28.1155" y="75.5364" fill="black" font-size="12.836" font-family="Helvetica">Events</text>
</g>
<rect x="442.705" y="24.9717" width="113.386" height="61.4688" fill="white"/>
<path d="M442.705,86.4405h 113.386" fill="none" stroke="black"/>
<path d="M556.091,86.4405v -61.4688" fill="none" stroke="black"/>
<path d="M556.091,24.9717h -113.386" fill="none" stroke="black"/>
<path d="M442.705,24.9717v 61.4688" fill="none" stroke="black"/>
<text xml:space="preserve" x="452.094" y="36.5499" fill="black" font-size="13.4705" font-family="Helvetica">Na_CE_OSN(A)</text>
<path d="M442.705,40.3389h 113.386" fill="none" stroke="black"/>
<text xml:space="preserve" x="448.033" y="52.7943" fill="black" font-size="12.7411" font-family="Helvetica">Entries </text>
<text xml:space="preserve" x="513.01" y="52.7943" fill="black" font-size="12.7411" font-family="Helvetica"> 12000</text>
<text xml:space="preserve" x="448.033" y="68.2264" fill="black" font-size="12.7411" font-family="Helvetica">Mean  </text>
<text xml:space="preserve" x="513.01" y="68.2264" fill="black" font-size="12.7411" font-family="Helvetica">  475.7</text>
<text xml:space="preserve" x="448.033" y="82.8464" fill="black" font-size="12.7411" font-family="Helvetica">Std Dev   </text>
<text xml:space="preserve" x="515.447" y="82.8464" fill="black" font-size="12.7411" font-family="Helvetica">  298.1</text>
<text xml:space="preserve" x="218.987" y="18.681" fill="black" font-size="17.9813" font-family="Helvetica">Na_CE_OSN(A)</text></svg>
