<?xml version="1.0" standalone="no"?>
<svg width="567.429" height="384.969" viewBox="0 0 567.429 384.969" xmlns="http://www.w3.org/2000/svg" shape-rendering="crispEdges">
<title>
img/calibration/Na_CE_OSN(A).svg
</title>
<desc>
Creator: ROOT Version 6.22/09
CreationDate: Wed Jun  9 15:24:52 2021</desc>
<defs>
</defs>
<rect x="0.5" y="0" width="566.929" height="384.469" fill="white"/>
<rect x="57.1929" y="38.4469" width="453.543" height="307.575" fill="white"/>
<rect x="57.1929" y="38.4469" width="453.543" height="307.575" fill="none" stroke="black"/>
<rect x="57.1929" y="38.4469" width="453.543" height="307.575" fill="white"/>
<rect x="57.1929" y="38.4469" width="453.543" height="307.575" fill="none" stroke="black"/>
<path d="M57.1929,346.022h 0.453543v -9.15403h 0.226772v 9.15403h 0.453543v -9.15403h 0.226772v 9.15403h 0.453543v -9.15403h 0.226772v 9.15403h 0.226772v -9.15403h 0.226772v 9.15403h 0.226772v -9.15403h 0.226772v 9.15403h 0.226772v -9.15403h
 0.226772v 9.15403h 0.453543v -9.15403h 1.36063v -9.15403h 0.226772v 18.3081h 0.226772v -9.15403h 0.226772v -9.15403h 0.453543v 18.3081h 0.226772v -18.3081h 0.226772v 9.15403h 0.226772v -9.15403h 0.226772v 9.15403h 0.226772v 9.15403h 0.226772v
 -27.4621h 0.226772v 9.15403h 0.226772v 18.3081h 0.226772v -9.15403h 0.680315v 9.15403h 0.226772v -45.7701h 0.226772v 45.7701h 0.226772v -27.4621h 0.226772v 27.4621h 0.226772v -18.3081h 0.680315v -18.3081h 0.226772v 18.3081h 0.226772v -27.4621h
 0.226772v 45.7701h 0.226772v -36.6161h 0.226772v 27.4621h 0.226772v -9.15403h 0.226772v 9.15403h 0.453543v -45.7701h 0.226772v 36.6161h 0.226772v -18.3081h 0.226772v 9.15403h 0.226772v 9.15403h 0.226772v -9.15403h 0.226772v -9.15403h 0.226772v
 -18.3081h 0.226772v 27.4621h 0.680315v -9.15403h 0.453543v -9.15403h 0.226772v 9.15403h 0.226772v -9.15403h 0.226772v -27.4621h 0.453543v -9.15403h 0.226772v 27.4621h 0.226772v 36.6161h 0.226772v -27.4621h 0.226772v -9.15403h 0.226772v 18.3081h
 0.226772v -9.15403h 0.226772v -9.15403h 0.226772v 9.15403h 0.226772v -54.9242h 0.226772v 27.4621h 0.453543v 45.7701h 0.226772v -54.9242h 0.226772v 27.4621h 0.226772v -18.3081h 0.453543v -18.3081h 0.226772v -27.4621h 0.226772v 18.3081h 0.453543v
 73.2322h 0.226772v -36.6161h 0.226772v -64.0782h 0.226772v 73.2322h 0.226772v -18.3081h 0.226772v -64.0782h 0.226772v -36.6161h 0.226772v 73.2322h 0.226772v -9.15403h 0.226772v -36.6161h 0.226772v 18.3081h 0.226772v 45.7701h 0.453543v -54.9242h
 0.453543v -9.15403h 0.453543v 27.4621h 0.453543v -45.7701h 0.226772v 82.3863h 0.226772v -91.5403h 0.226772v 64.0782h 0.226772v -18.3081h 0.680315v -64.0782h 0.226772v 45.7701h 0.226772v -9.15403h 0.226772v -9.15403h 0.226772v 27.4621h 0.226772v
 -18.3081h 0.226772v -18.3081h 0.226772v -109.848h 0.226772v 45.7701h 0.226772v 45.7701h 0.226772v 36.6161h 0.226772v 27.4621h 0.226772v 18.3081h 0.226772v -36.6161h 0.226772v -18.3081h 0.226772v 27.4621h 0.226772v -18.3081h 0.226772v 36.6161h
 0.226772v -54.9242h 0.226772v -9.15403h 0.226772v 73.2322h 0.226772v -36.6161h 0.226772v 27.4621h 0.226772v -36.6161h 0.226772v 45.7701h 0.226772v -54.9242h 0.226772v -54.9242h 0.226772v 45.7701h 0.226772v -27.4621h 0.226772v 27.4621h 0.226772v
 9.15403h 0.226772v 36.6161h 0.226772v -54.9242h 0.226772v 18.3081h 0.226772v -36.6161h 0.226772v 9.15403h 0.226772v 64.0782h 0.226772v -54.9242h 0.226772v 18.3081h 0.226772v -119.002h 0.226772v 36.6161h 0.226772v 18.3081h 0.226772v 82.3863h
 0.226772v -54.9242h 0.226772v 9.15403h 0.226772v -100.694h 0.226772v 137.31h 0.226772v -9.15403h 0.453543v -45.7701h 0.453543v 27.4621h 0.226772v 9.15403h 0.226772v -27.4621h 0.453543v 18.3081h 0.226772v -54.9242h 0.226772v 64.0782h 0.226772v
 9.15403h 0.453543v -9.15403h 0.226772v -9.15403h 0.226772v -73.2322h 0.226772v 119.002h 0.453543v -64.0782h 0.226772v -9.15403h 0.226772v 9.15403h 0.226772v -64.0782h 0.226772v 100.694h 0.226772v -64.0782h 0.226772v 91.5403h 0.226772v -36.6161h
 0.226772v 9.15403h 0.453543v 18.3081h 0.226772v -36.6161h 0.226772v 54.9242h 0.226772v -54.9242h 0.226772v -18.3081h 0.226772v 54.9242h 0.226772v -91.5403h 0.226772v -9.15403h 0.226772v 100.694h 0.226772v 9.15403h 0.226772v -9.15403h 0.226772v
 -64.0782h 0.226772v -9.15403h 0.226772v 36.6161h 0.226772v -36.6161h 0.226772v 73.2322h 0.226772v -18.3081h 0.226772v -18.3081h 0.226772v -9.15403h 0.453543v 45.7701h 0.226772v -18.3081h 0.226772v -9.15403h 0.453543v -82.3863h 0.226772v 54.9242h
 0.226772v -54.9242h 0.226772v 119.002h 0.226772v -73.2322h 0.226772v 36.6161h 0.226772v 9.15403h 0.226772v -27.4621h 0.226772v 54.9242h 0.226772v -9.15403h 0.226772v 36.6161h 0.226772v -73.2322h 0.226772v 27.4621h 0.226772v -18.3081h 0.226772v
 -82.3863h 0.226772v 155.618h 0.226772v -137.31h 0.226772v 91.5403h 0.226772v 27.4621h 0.226772v -45.7701h 0.226772v -54.9242h 0.226772v -54.9242h 0.226772v 164.773h 0.453543v -64.0782h 0.226772v 45.7701h 0.226772v 45.7701h 0.226772v -45.7701h
 0.226772v -64.0782h 0.226772v 36.6161h 0.226772v -54.9242h 0.226772v 54.9242h 0.226772v -9.15403h 0.226772v -27.4621h 0.453543v 18.3081h 0.226772v -45.7701h 0.226772v 91.5403h 0.226772v -119.002h 0.226772v 45.7701h 0.226772v 27.4621h 0.226772v
 -54.9242h 0.226772v -18.3081h 0.226772v 73.2322h 0.226772v -82.3863h 0.226772v 54.9242h 0.453543v -45.7701h 0.226772v 100.694h 0.226772v -27.4621h 0.226772v 9.15403h 0.226772v -36.6161h 0.226772v 109.848h 0.226772v -82.3863h 0.226772v 9.15403h
 0.226772v 27.4621h 0.226772v -18.3081h 0.226772v 36.6161h 0.226772v -18.3081h 0.226772v -9.15403h 0.226772v 27.4621h 0.226772v -128.156h 0.226772v 119.002h 0.226772v -109.848h 0.226772v 109.848h 0.226772v 54.9242h 0.226772v -73.2322h 0.226772v
 27.4621h 0.226772v -36.6161h 0.453543v 36.6161h 0.226772v -36.6161h 0.453543v -27.4621h 0.226772v 100.694h 0.226772v -18.3081h 0.226772v -155.618h 0.226772v 73.2322h 0.226772v 73.2322h 0.226772v -82.3863h 0.226772v 64.0782h 0.226772v -54.9242h
 0.226772v 54.9242h 0.226772v 9.15403h 0.226772v -27.4621h 0.226772v -54.9242h 0.226772v 54.9242h 0.226772v -73.2322h 0.226772v 54.9242h 0.226772v -45.7701h 0.226772v 18.3081h 0.226772v 64.0782h 0.226772v -18.3081h 0.226772v -18.3081h 0.453543v
 9.15403h 0.226772v -27.4621h 0.226772v 100.694h 0.226772v -73.2322h 0.226772v -18.3081h 0.226772v 64.0782h 0.226772v -82.3863h 0.226772v 18.3081h 0.226772v 36.6161h 0.226772v -36.6161h 0.226772v -36.6161h 0.226772v 64.0782h 0.226772v -27.4621h
 0.226772v 18.3081h 0.226772v -36.6161h 0.226772v 91.5403h 0.226772v -45.7701h 0.226772v 64.0782h 0.226772v -164.773h 0.226772v 119.002h 0.226772v -27.4621h 0.226772v 27.4621h 0.226772v -45.7701h 0.226772v 54.9242h 0.453543v -91.5403h 0.226772v
 82.3863h 0.226772v -9.15403h 0.226772v -9.15403h 0.226772v 9.15403h 0.226772v -9.15403h 0.453543v 45.7701h 0.226772v -36.6161h 0.226772v 36.6161h 0.226772v -64.0782h 0.226772v -9.15403h 0.226772v 91.5403h 0.226772v -91.5403h 0.226772v 9.15403h
 0.226772v -9.15403h 0.226772v -18.3081h 0.226772v -9.15403h 0.226772v -54.9242h 0.226772v 109.848h 0.226772v 64.0782h 0.226772v -9.15403h 0.226772v -36.6161h 0.226772v -27.4621h 0.226772v -27.4621h 0.226772v 45.7701h 0.226772v -9.15403h 0.226772v
 9.15403h 0.226772v 36.6161h 0.226772v -54.9242h 0.226772v 27.4621h 0.226772v -54.9242h 0.226772v 45.7701h 0.226772v -82.3863h 0.226772v 109.848h 0.226772v -45.7701h 0.226772v 18.3081h 0.226772v 18.3081h 0.226772v -64.0782h 0.226772v 54.9242h
 0.226772v 9.15403h 0.226772v -9.15403h 0.226772v 45.7701h 0.226772v -73.2322h 0.226772v -18.3081h 0.226772v 18.3081h 0.226772v 18.3081h 0.226772v -18.3081h 0.226772v -82.3863h 0.226772v 64.0782h 0.226772v 45.7701h 0.226772v -18.3081h 0.226772v
 -9.15403h 0.226772v -45.7701h 0.226772v 73.2322h 0.453543v 27.4621h 0.453543v 9.15403h 0.226772v -27.4621h 0.226772v 27.4621h 0.226772v -64.0782h 0.226772v 18.3081h 0.226772v -9.15403h 0.226772v 54.9242h 0.226772v -36.6161h 0.226772v -36.6161h
 0.226772v 45.7701h 0.226772v 9.15403h 0.226772v -18.3081h 0.226772v 18.3081h 0.226772v 36.6161h 0.226772v -82.3863h 0.226772v -64.0782h 0.226772v 100.694h 0.226772v -27.4621h 0.226772v 36.6161h 0.453543v -45.7701h 0.226772v -36.6161h 0.226772v
 82.3863h 0.226772v -45.7701h 0.226772v 18.3081h 0.453543v -27.4621h 0.226772v 64.0782h 0.453543v -36.6161h 0.226772v -36.6161h 0.226772v 64.0782h 0.226772v -27.4621h 0.226772v 18.3081h 0.226772v -64.0782h 0.226772v 9.15403h 0.226772v 27.4621h
 0.226772v 9.15403h 0.453543v 27.4621h 0.226772v -27.4621h 0.226772v 9.15403h 0.226772v -36.6161h 0.226772v 27.4621h 0.226772v -45.7701h 0.226772v 64.0782h 0.453543v -45.7701h 0.226772v 27.4621h 0.226772v 9.15403h 0.226772v 9.15403h 0.453543v
 -18.3081h 0.226772v 18.3081h 0.226772v -27.4621h 0.226772v 27.4621h 0.226772v -9.15403h 0.226772v -27.4621h 0.226772v 18.3081h 0.226772v -27.4621h 0.226772v 18.3081h 0.226772v 73.2322h 0.226772v -91.5403h 0.226772v 45.7701h 0.453543v -45.7701h
 0.226772v -36.6161h 0.453543v 73.2322h 0.226772v 9.15403h 0.226772v -18.3081h 0.226772v 18.3081h 0.226772v -73.2322h 0.226772v 64.0782h 0.226772v 27.4621h 0.226772v -91.5403h 0.226772v 64.0782h 0.226772v 54.9242h 0.226772v -91.5403h 0.226772v
 36.6161h 0.226772v -27.4621h 0.453543v 9.15403h 0.226772v 27.4621h 0.226772v 27.4621h 0.226772v -82.3863h 0.453543v 73.2322h 0.453543v 9.15403h 0.453543v -45.7701h 0.226772v -9.15403h 0.226772v -9.15403h 0.226772v 36.6161h 0.226772v -64.0782h
 0.226772v 54.9242h 0.907087v 9.15403h 0.226772v -18.3081h 0.226772v 45.7701h 0.226772v -18.3081h 0.226772v -27.4621h 0.453543v -36.6161h 0.226772v 45.7701h 0.226772v 9.15403h 0.226772v -9.15403h 0.226772v 91.5403h 0.226772v -91.5403h 0.226772v
 54.9242h 0.226772v -45.7701h 0.226772v -9.15403h 0.226772v 9.15403h 0.226772v -9.15403h 0.226772v 64.0782h 0.226772v -27.4621h 0.453543v -36.6161h 0.226772v 18.3081h 0.226772v 36.6161h 0.226772v -54.9242h 0.226772v 27.4621h 0.226772v -18.3081h
 0.226772v -54.9242h 0.226772v -18.3081h 0.226772v 82.3863h 0.226772v -54.9242h 0.226772v -36.6161h 0.226772v 64.0782h 0.226772v -9.15403h 0.453543v 45.7701h 0.226772v 9.15403h 0.226772v -27.4621h 0.226772v -45.7701h 0.226772v 36.6161h 0.226772v
 -9.15403h 0.226772v -73.2322h 0.226772v 45.7701h 0.226772v 27.4621h 0.226772v 64.0782h 0.226772v -73.2322h 0.226772v 18.3081h 0.226772v 9.15403h 0.226772v -18.3081h 0.226772v 9.15403h 0.226772v -9.15403h 0.453543v 36.6161h 0.226772v -36.6161h
 0.226772v 18.3081h 0.226772v -9.15403h 0.226772v -9.15403h 0.226772v 9.15403h 0.226772v -45.7701h 0.226772v 9.15403h 0.226772v 27.4621h 0.226772v -45.7701h 0.226772v 82.3863h 0.226772v 9.15403h 0.226772v -18.3081h 0.226772v -9.15403h 0.226772v
 -36.6161h 0.226772v 100.694h 0.226772v -64.0782h 0.226772v -18.3081h 0.226772v 36.6161h 0.226772v -18.3081h 0.226772v -18.3081h 0.453543v 45.7701h 0.226772v -9.15403h 0.226772v 27.4621h 0.226772v -64.0782h 0.226772v -36.6161h 0.226772v 27.4621h
 0.226772v 9.15403h 0.226772v 73.2322h 0.226772v -36.6161h 0.226772v -36.6161h 0.226772v -27.4621h 0.226772v 18.3081h 0.226772v 54.9242h 0.226772v -18.3081h 0.226772v -9.15403h 0.226772v -27.4621h 0.226772v 54.9242h 0.226772v -9.15403h 0.226772v
 -36.6161h 0.453543v 45.7701h 0.226772v -45.7701h 0.226772v 9.15403h 0.453543v 45.7701h 0.226772v -73.2322h 0.226772v 27.4621h 0.226772v -73.2322h 0.226772v 91.5403h 0.453543v 9.15403h 0.226772v -64.0782h 0.226772v 45.7701h 0.226772v -36.6161h
 0.226772v 45.7701h 0.226772v 18.3081h 0.226772v -64.0782h 0.226772v 64.0782h 0.226772v -27.4621h 0.226772v 18.3081h 0.226772v -36.6161h 0.226772v -9.15403h 0.226772v 27.4621h 0.226772v -45.7701h 0.226772v 45.7701h 0.226772v 45.7701h 0.226772v
 -45.7701h 0.226772v 9.15403h 0.226772v -18.3081h 0.226772v 9.15403h 0.680315v 9.15403h 0.226772v 36.6161h 0.226772v -9.15403h 0.226772v 27.4621h 0.226772v -91.5403h 0.226772v 45.7701h 0.226772v -9.15403h 0.226772v -36.6161h 0.226772v 64.0782h
 0.226772v 36.6161h 0.226772v -9.15403h 0.226772v -100.694h 0.226772v 36.6161h 0.453543v 27.4621h 0.226772v 9.15403h 0.226772v -54.9242h 0.226772v 54.9242h 0.226772v -45.7701h 0.226772v -9.15403h 0.226772v -9.15403h 0.226772v 54.9242h 0.226772v
 -9.15403h 0.226772v -36.6161h 0.226772v 27.4621h 0.226772v -9.15403h 0.226772v 9.15403h 0.226772v 18.3081h 0.226772v 54.9242h 0.226772v -73.2322h 0.453543v -45.7701h 0.226772v 36.6161h 0.226772v 27.4621h 0.226772v -9.15403h 0.226772v 45.7701h
 0.226772v -36.6161h 0.226772v -9.15403h 0.453543v 9.15403h 0.226772v 18.3081h 0.226772v 9.15403h 0.226772v -18.3081h 0.226772v -9.15403h 0.226772v -18.3081h 0.226772v 9.15403h 0.226772v -27.4621h 0.226772v 27.4621h 0.226772v -64.0782h 0.226772v
 36.6161h 0.226772v 36.6161h 0.226772v -18.3081h 0.226772v 54.9242h 0.226772v -45.7701h 0.226772v -18.3081h 0.226772v 18.3081h 0.226772v -18.3081h 0.226772v 27.4621h 0.226772v -27.4621h 0.226772v -9.15403h 0.226772v 18.3081h 0.453543v 9.15403h
 0.226772v -27.4621h 0.226772v 45.7701h 0.226772v -18.3081h 0.453543v 64.0782h 0.226772v -73.2322h 0.226772v 45.7701h 0.226772v -36.6161h 0.226772v 9.15403h 0.226772v 9.15403h 0.226772v 36.6161h 0.226772v -45.7701h 0.226772v 18.3081h 0.453543v
 -9.15403h 0.226772v -27.4621h 0.226772v 27.4621h 0.226772v 18.3081h 0.226772v -54.9242h 0.226772v -18.3081h 0.226772v 27.4621h 0.226772v 27.4621h 0.226772v 45.7701h 0.226772v -100.694h 0.226772v 54.9242h 0.226772v -36.6161h 0.226772v 54.9242h
 0.226772v -54.9242h 0.226772v 9.15403h 0.226772v 18.3081h 0.226772v 9.15403h 0.226772v -27.4621h 0.226772v 64.0782h 0.226772v -36.6161h 0.226772v -36.6161h 0.226772v 18.3081h 0.226772v 9.15403h 0.226772v -9.15403h 0.226772v -27.4621h 0.226772v
 54.9242h 0.226772v -9.15403h 0.226772v 9.15403h 0.226772v -9.15403h 0.226772v -18.3081h 0.226772v 18.3081h 0.226772v -27.4621h 0.226772v 73.2322h 0.226772v -54.9242h 0.226772v -54.9242h 0.226772v 54.9242h 0.226772v 9.15403h 0.226772v -9.15403h
 0.226772v 9.15403h 0.226772v 36.6161h 0.226772v 18.3081h 0.226772v -54.9242h 0.226772v -73.2322h 0.226772v 82.3863h 0.226772v -27.4621h 0.226772v -73.2322h 0.226772v 73.2322h 0.226772v 45.7701h 0.226772v -18.3081h 0.226772v -54.9242h 0.226772v
 82.3863h 0.226772v -82.3863h 0.226772v 27.4621h 0.226772v 9.15403h 0.226772v 18.3081h 0.226772v -36.6161h 0.226772v 27.4621h 0.226772v 27.4621h 0.226772v 18.3081h 0.226772v -45.7701h 0.226772v 9.15403h 0.226772v 18.3081h 0.226772v -27.4621h
 0.226772v 9.15403h 0.226772v 27.4621h 0.226772v -9.15403h 0.226772v 18.3081h 0.226772v -27.4621h 0.226772v 27.4621h 0.226772v 9.15403h 0.226772v 9.15403h 0.226772v -64.0782h 0.226772v 27.4621h 0.453543v 27.4621h 0.226772v -54.9242h 0.226772v
 36.6161h 0.226772v 9.15403h 0.453543v -18.3081h 0.226772v 27.4621h 0.226772v -36.6161h 0.226772v 9.15403h 0.226772v -27.4621h 0.226772v 18.3081h 0.226772v 27.4621h 0.453543v -45.7701h 0.226772v 27.4621h 0.226772v 18.3081h 0.453543v -36.6161h
 0.226772v 45.7701h 0.226772v -27.4621h 0.226772v -45.7701h 0.226772v 64.0782h 0.226772v -9.15403h 0.226772v -9.15403h 0.226772v -45.7701h 0.226772v 45.7701h 0.453543v 9.15403h 0.226772v -27.4621h 0.226772v 9.15403h 0.226772v 9.15403h 0.226772v
 27.4621h 0.226772v -27.4621h 0.453543v -9.15403h 0.680315v 36.6161h 0.226772v -27.4621h 0.226772v -27.4621h 0.226772v 54.9242h 0.226772v -36.6161h 0.226772v -18.3081h 0.226772v 27.4621h 0.226772v 9.15403h 0.226772v 18.3081h 0.226772v -18.3081h
 0.226772v 18.3081h 0.226772v -36.6161h 0.226772v 9.15403h 0.226772v 27.4621h 0.226772v -9.15403h 0.226772v -27.4621h 0.226772v 27.4621h 0.226772v 27.4621h 0.226772v -45.7701h 0.226772v 18.3081h 0.226772v -18.3081h 0.226772v -9.15403h 0.226772v
 18.3081h 0.226772v 36.6161h 0.226772v -9.15403h 0.226772v -54.9242h 0.226772v 36.6161h 0.226772v 36.6161h 0.226772v -54.9242h 0.226772v 27.4621h 0.226772v 9.15403h 0.226772v -18.3081h 0.226772v -36.6161h 0.226772v 18.3081h 0.226772v 18.3081h
 0.453543v -9.15403h 0.226772v 27.4621h 0.226772v -9.15403h 0.226772v -9.15403h 0.680315v -54.9242h 0.226772v 64.0782h 0.226772v -36.6161h 0.226772v 36.6161h 0.226772v -36.6161h 0.226772v -18.3081h 0.226772v 45.7701h 0.226772v 27.4621h 0.226772v
 -54.9242h 0.226772v 27.4621h 0.226772v 18.3081h 0.453543v -54.9242h 0.226772v 54.9242h 0.226772v 9.15403h 0.226772v -36.6161h 0.226772v 9.15403h 0.226772v 36.6161h 0.226772v -36.6161h 0.226772v 9.15403h 0.226772v 18.3081h 0.226772v -36.6161h
 0.226772v -9.15403h 0.226772v 18.3081h 0.226772v -9.15403h 0.226772v 18.3081h 0.226772v 9.15403h 0.226772v 18.3081h 0.226772v -36.6161h 0.226772v 27.4621h 0.226772v -9.15403h 0.226772v -18.3081h 0.226772v 18.3081h 0.226772v -9.15403h 0.226772v
 -36.6161h 0.226772v 54.9242h 0.226772v -9.15403h 0.226772v -27.4621h 0.226772v 18.3081h 0.226772v -18.3081h 0.226772v 27.4621h 0.226772v -9.15403h 0.226772v -64.0782h 0.226772v 54.9242h 0.453543v 9.15403h 0.226772v -9.15403h 0.226772v 9.15403h
 0.680315v -18.3081h 0.453543v 18.3081h 0.226772v 9.15403h 0.226772v -45.7701h 0.226772v 27.4621h 0.226772v 18.3081h 0.680315v -36.6161h 0.226772v -9.15403h 0.226772v 36.6161h 0.453543v -9.15403h 0.226772v -9.15403h 0.226772v 18.3081h 0.226772v
 -18.3081h 0.226772v 9.15403h 0.226772v 36.6161h 0.226772v -9.15403h 0.226772v -18.3081h 0.226772v -27.4621h 0.226772v 27.4621h 0.226772v -18.3081h 0.226772v 9.15403h 0.226772v 18.3081h 0.226772v -9.15403h 0.226772v -18.3081h 0.453543v 18.3081h
 0.453543v -9.15403h 0.226772v 18.3081h 0.453543v 9.15403h 0.226772v -18.3081h 0.226772v -9.15403h 0.453543v 9.15403h 0.226772v 9.15403h 0.453543v 9.15403h 0.453543v 9.15403h 0.226772v -27.4621h 0.226772v -18.3081h 0.226772v 9.15403h 0.226772v
 18.3081h 0.226772v -9.15403h 0.453543v -27.4621h 0.226772v 18.3081h 0.226772v -18.3081h 0.226772v 27.4621h 0.680315v 9.15403h 0.453543v -18.3081h 0.226772v 9.15403h 0.226772v 18.3081h 0.226772v -9.15403h 0.453543v -9.15403h 0.226772v -36.6161h
 0.226772v 45.7701h 0.226772v -9.15403h 0.226772v 18.3081h 0.226772v -27.4621h 0.226772v 18.3081h 0.226772v -18.3081h 0.226772v 27.4621h 0.453543v -18.3081h 0.226772v -9.15403h 0.226772v 18.3081h 0.453543v 9.15403h 0.226772v -18.3081h 0.226772v
 -9.15403h 0.226772v 36.6161h 0.226772v -9.15403h 0.226772v -9.15403h 0.226772v 9.15403h 0.226772v 9.15403h 0.226772v -18.3081h 0.226772v 9.15403h 0.226772v -18.3081h 0.226772v 18.3081h 0.226772v -18.3081h 0.226772v 9.15403h 0.453543v -9.15403h
 0.680315v 9.15403h 0.226772v -45.7701h 0.226772v 45.7701h 0.226772v 9.15403h 0.226772v -9.15403h 0.907087v 18.3081h 0.226772v -27.4621h 0.453543v 18.3081h 0.453543v 9.15403h 0.226772v -9.15403h 0.226772v -27.4621h 0.680315v 9.15403h 0.226772v
 9.15403h 0.226772v 9.15403h 0.226772v -9.15403h 0.226772v 9.15403h 0.226772v -9.15403h 0.226772v 9.15403h 0.226772v -18.3081h 0.453543v 9.15403h 0.226772v -9.15403h 0.453543v 9.15403h 0.226772v 9.15403h 0.226772v -9.15403h 0.680315v -9.15403h
 0.226772v 9.15403h 0.226772v 9.15403h 0.226772v 9.15403h 0.226772v -18.3081h 0.226772v 18.3081h 0.226772v -27.4621h 0.226772v 27.4621h 0.226772v -18.3081h 0.226772v -27.4621h 0.226772v 18.3081h 0.226772v -9.15403h 0.226772v 9.15403h 0.226772v
 9.15403h 0.453543v -18.3081h 0.226772v 27.4621h 0.226772v -9.15403h 0.226772v -9.15403h 0.226772v 9.15403h 0.453543v 18.3081h 0.226772v -9.15403h 0.226772v -9.15403h 0.226772v -18.3081h 0.453543v 18.3081h 0.226772v -18.3081h 0.226772v 36.6161h
 0.226772v -18.3081h 0.226772v 18.3081h 0.226772v -27.4621h 0.680315v 9.15403h 0.226772v -9.15403h 0.226772v 18.3081h 0.453543v -18.3081h 0.226772v -18.3081h 0.226772v 18.3081h 0.226772v 18.3081h 0.226772v -18.3081h 0.226772v 27.4621h 0.226772v
 -18.3081h 0.453543v -36.6161h 0.226772v 54.9242h 0.226772v -27.4621h 0.226772v 18.3081h 0.226772v -9.15403h 0.226772v -27.4621h 0.226772v 36.6161h 0.226772v -18.3081h 0.226772v 18.3081h 0.226772v 9.15403h 0.226772v -9.15403h 0.226772v -9.15403h
 0.453543v -9.15403h 0.226772v 9.15403h 0.226772v -18.3081h 0.226772v 9.15403h 0.226772v 27.4621h 0.226772v -27.4621h 0.226772v 9.15403h 0.226772v 9.15403h 0.907087v -9.15403h 0.226772v 18.3081h 0.226772v -36.6161h 0.226772v 18.3081h 0.226772v
 9.15403h 0.226772v 9.15403h 0.226772v -27.4621h 0.226772v 18.3081h 0.453543v -9.15403h 0.226772v 18.3081h 0.226772v -9.15403h 0.226772v -9.15403h 0.226772v 9.15403h 0.680315v -18.3081h 0.226772v 18.3081h 0.226772v -9.15403h 0.226772v 9.15403h
 0.907087v -27.4621h 0.226772v 36.6161h 0.226772v -9.15403h 0.226772v -18.3081h 0.226772v 18.3081h 0.226772v -27.4621h 0.226772v 9.15403h 0.226772v 9.15403h 0.226772v -9.15403h 0.226772v 18.3081h 0.226772v -9.15403h 0.226772v 9.15403h 0.226772v
 -18.3081h 0.226772v 9.15403h 0.453543v 18.3081h 0.226772v -9.15403h 0.226772v -9.15403h 0.453543v 18.3081h 0.453543v -9.15403h 0.453543v 9.15403h 0.226772v -18.3081h 0.453543v 9.15403h 0.226772v -9.15403h 0.453543v 9.15403h 0.226772v 9.15403h
 0.226772v -36.6161h 0.226772v 36.6161h 0.226772v -18.3081h 0.226772v 9.15403h 0.453543v -9.15403h 0.226772v 9.15403h 0.226772v -9.15403h 0.226772v 9.15403h 0.453543v -9.15403h 0.453543v 9.15403h 0.453543v -18.3081h 0.680315v -9.15403h 0.226772v
 36.6161h 0.226772v -18.3081h 0.453543v 9.15403h 0.226772v -9.15403h 0.226772v 18.3081h 0.453543v -18.3081h 0.453543v 18.3081h 0.226772v -18.3081h 0.226772v 18.3081h 0.453543v -36.6161h 0.226772v 27.4621h 0.226772v -9.15403h 0.226772v 9.15403h
 0.680315v 9.15403h 0.453543v -9.15403h 0.226772v -9.15403h 0.226772v -9.15403h 0.226772v 27.4621h 0.226772v -9.15403h 0.226772v 9.15403h 0.453543v -9.15403h 0.226772v -9.15403h 0.226772v 18.3081h 0.226772v -9.15403h 0.226772v -9.15403h 0.226772v
 18.3081h 0.680315v -9.15403h 0.226772v 9.15403h 0.226772v -18.3081h 0.226772v 9.15403h 0.226772v -9.15403h 0.226772v -9.15403h 0.226772v 9.15403h 0.226772v 9.15403h 0.226772v -9.15403h 0.226772v 18.3081h 0.226772v -18.3081h 0.226772v 18.3081h
 0.226772v -9.15403h 0.453543v 9.15403h 0.680315v -9.15403h 0.453543v 9.15403h 0.680315v -9.15403h 0.453543v -9.15403h 0.226772v 9.15403h 0.226772v 9.15403h 0.226772v -18.3081h 0.226772v 9.15403h 0.453543v -18.3081h 0.226772v 18.3081h 0.226772v
 9.15403h 0.226772v -9.15403h 1.13386v -18.3081h 0.226772v 18.3081h 0.226772v -9.15403h 0.226772v 18.3081h 0.226772v -9.15403h 0.453543v -9.15403h 0.226772v 18.3081h 0.226772v -18.3081h 0.226772v 18.3081h 0.453543v -18.3081h 0.226772v 18.3081h
 0.226772v -27.4621h 0.680315v 27.4621h 0.226772v -18.3081h 0.226772v -18.3081h 0.226772v 18.3081h 0.226772v -9.15403h 0.226772v 9.15403h 0.453543v 18.3081h 0.453543v -9.15403h 0.226772v 9.15403h 0.453543v -9.15403h 0.226772v 9.15403h 0.226772v
 -9.15403h 0.453543v -18.3081h 0.226772v 9.15403h 0.226772v 18.3081h 0.226772v -9.15403h 0.226772v 9.15403h 1.13386v -18.3081h 0.226772v 9.15403h 0.453543v 9.15403h 0.226772v -18.3081h 0.453543v 18.3081h 0.453543v -9.15403h 0.226772v 9.15403h
 0.226772v -9.15403h 0.453543v 9.15403h 0.680315v -18.3081h 0.226772v 18.3081h 0.226772v -9.15403h 0.453543v 9.15403h 0.453543v -9.15403h 0.226772v 9.15403h 0.453543v -9.15403h 0.226772v -9.15403h 0.226772v 18.3081h 0.226772v -9.15403h 0.226772v
 -9.15403h 0.453543v 9.15403h 0.226772v -18.3081h 0.226772v 9.15403h 0.226772v 18.3081h 1.13386v -18.3081h 0.226772v 18.3081h 0.226772v -9.15403h 0.226772v 9.15403h 0.226772v -9.15403h 0.453543v -18.3081h 0.226772v 27.4621h 0.453543v -18.3081h
 0.226772v -9.15403h 0.226772v 18.3081h 0.226772v 9.15403h 0.453543v -9.15403h 0.453543v -9.15403h 0.453543v 18.3081h 0.226772v -27.4621h 0.226772v 27.4621h 0.226772v -9.15403h 0.226772v 9.15403h 0.226772v -18.3081h 0.226772v -9.15403h 0.226772v
 27.4621h 0.680315v -9.15403h 0.226772v 9.15403h 0.226772v -18.3081h 0.226772v 18.3081h 0.453543v -18.3081h 0.226772v 9.15403h 0.226772v -9.15403h 0.226772v 9.15403h 0.226772v -18.3081h 0.226772v 18.3081h 0.226772v 9.15403h 0.226772v -9.15403h
 0.226772v -27.4621h 0.226772v 27.4621h 0.453543v 9.15403h 0.226772v -9.15403h 0.680315v 9.15403h 0.453543v -18.3081h 0.226772v 9.15403h 0.226772v -9.15403h 0.453543v 18.3081h 0.453543v -9.15403h 0.226772v 9.15403h 0.226772v -18.3081h 1.5874v
 9.15403h 0.453543v 9.15403h 1.13386v -9.15403h 0.453543v 9.15403h 0.226772v -27.4621h 0.226772v 9.15403h 0.226772v 18.3081h 0.453543v -9.15403h 0.226772v -9.15403h 0.226772v 9.15403h 0.226772v 9.15403h 0.226772v -18.3081h 0.226772v 9.15403h
 0.453543v 9.15403h 0.680315v -9.15403h 0.226772v 9.15403h 0.226772v -9.15403h 0.226772v 9.15403h 0.453543v -9.15403h 0.226772v -9.15403h 0.226772v 18.3081h 0.226772v -9.15403h 0.453543v 9.15403h 0.680315v -18.3081h 0.226772v 9.15403h 0.453543v
 9.15403h 0.226772v -9.15403h 1.13386v 9.15403h 0.453543v -9.15403h 0.226772v 9.15403h 0.226772v -18.3081h 0.226772v 18.3081h 1.36063v -9.15403h 0.907087v -9.15403h 0.226772v 9.15403h 0.453543v 9.15403h 0.226772v -27.4621h 0.453543v 27.4621h
 0.226772v -27.4621h 0.226772v 27.4621h 0.226772v -9.15403h 0.226772v 9.15403h 0.226772v -9.15403h 0.453543v -9.15403h 0.226772v 18.3081h 0.226772v -9.15403h 0.226772v 9.15403h 0.226772v -9.15403h 0.226772v -18.3081h 0.226772v 27.4621h 0.226772v
 -9.15403h 0.226772v 9.15403h 0.453543v -18.3081h 0.226772v 18.3081h 0.226772v -9.15403h 0.226772v 9.15403h 0.226772v -18.3081h 0.226772v 18.3081h 0.453543v -9.15403h 0.907087v 9.15403h 0.453543v -9.15403h 0.226772v 9.15403h 0.680315v -9.15403h
 0.680315v 9.15403h 0.226772v -9.15403h 0.226772v 9.15403h 0.226772v -9.15403h 0.453543v -18.3081h 0.226772v 9.15403h 0.226772v 18.3081h 0.907087v -9.15403h 0.453543v 9.15403h 0.226772v -9.15403h 0.226772v 9.15403h 0.226772v -9.15403h 0.226772v
 9.15403h 0.226772v -18.3081h 0.226772v 18.3081h 0.226772v -9.15403h 0.226772v -9.15403h 0.226772v 9.15403h 0.226772v 9.15403h 1.36063v -27.4621h 0.226772v 18.3081h 0.226772v 9.15403h 0.226772v -18.3081h 0.226772v 18.3081h 0.226772v -9.15403h
 0.680315v 9.15403h 0.226772v -9.15403h 0.226772v 9.15403h 0.453543v -9.15403h 0.226772v 9.15403h 0.453543v -9.15403h 0.680315v 9.15403h 0.453543v -9.15403h 0.226772v 9.15403h 0.226772v -27.4621h 0.226772v 27.4621h 0.453543v -9.15403h 0.226772v
 -9.15403h 0.226772v 9.15403h 0.453543v 9.15403h 0.453543v -9.15403h 0.907087v 9.15403h 0.226772v -18.3081h 0.226772v 18.3081h 0.907087v -9.15403h 0.226772v 9.15403h 0.680315v -9.15403h 0.453543v 9.15403h 0.907087v -9.15403h 0.226772v 9.15403h
 1.36063v -18.3081h 0.226772v 9.15403h 0.226772v 9.15403h 0.907087v -9.15403h 0.226772v 9.15403h 1.5874v -9.15403h 0.453543v 9.15403h 0.453543v -18.3081h 0.226772v 9.15403h 0.226772v 9.15403h 0.453543v -9.15403h 0.226772v 9.15403h 0.453543v -9.15403h
 0.226772v 9.15403h 0.453543v -9.15403h 0.226772v 9.15403h 1.5874v -9.15403h 0.226772v 9.15403h 0.907087v -9.15403h 0.226772v 9.15403h 0.226772v -9.15403h 0.226772v 9.15403h 0.680315v -9.15403h 0.453543v 9.15403h 0.226772v -18.3081h 0.226772v
 9.15403h 0.226772v 9.15403h 1.5874v -9.15403h 0.226772v 9.15403h 4.30866v -9.15403h 0.226772v 9.15403h 0.680315v -9.15403h 0.226772v 9.15403h 0.226772v -9.15403h 0.226772v 9.15403h 0.680315v -9.15403h 0.226772v 9.15403h 6.57638v -9.15403h 0.226772v
 9.15403h 0.226772v -9.15403h 0.226772v 9.15403h 2.26772v -9.15403h 0.226772v 9.15403h 2.94803v -9.15403h 0.226772v 9.15403h 0.680315v -9.15403h 0.226772v 9.15403h 0.680315v -9.15403h 0.226772v 9.15403h 2.04094v -9.15403h 0.226772v 9.15403h 2.49449v
 -9.15403h 0.226772v 9.15403h 12.0189v -9.15403h 0.226772v 9.15403h 0.907087v -9.15403h 0.226772v 9.15403h 6.80315v -9.15403h 0.226772v 9.15403h 2.49449v -9.15403h 0.226772v 9.15403h 3.1748v -9.15403h 0.453543v 9.15403h 26.9858v -9.15403h 0.226772"
 fill="none" stroke="#000099"/>
<path d="M148.355,219.479l 0.907087, 0.0382209l 0.907087, 0.0416465l 0.907087, 0.0453339l 0.907087, 0.0492985l 0.907087, 0.0535564l 0.907087, 0.058124l 0.907087, 0.0630182l 0.907087, 0.0682564l 0.907087, 0.0738562l 0.907087, 0.0798358l 0.907087,
 0.0862133l 0.907087, 0.0930075l 0.907087, 0.100237l 0.907087, 0.107921l 0.907087, 0.116077l 0.907087, 0.124726l 0.907087, 0.133885l 0.907087, 0.143574l 0.907087, 0.15381l 0.907087, 0.164612l 0.907087, 0.175997l 0.907087, 0.187981l 0.907087,
 0.200581l 0.907087, 0.213811l 0.907087, 0.227688l 0.907087, 0.242223l 0.907087, 0.257429l 0.907087, 0.273316l 0.907087, 0.289895l 0.907087, 0.307172l 0.907087, 0.325155l 0.907087, 0.343846l 0.907087, 0.36325l 0.907087, 0.383366l 0.907087, 0.404192l
 0.907087, 0.425724l 0.907087, 0.447957l 0.907087, 0.47088l 0.907087, 0.494482l 0.907087, 0.518749l 0.907087, 0.543665l 0.907087, 0.569209l 0.907087, 0.595358l 0.907087, 0.622088l 0.907087, 0.649369l 0.907087, 0.67717l 0.907087, 0.705458l 0.907087,
 0.734194l 0.907087, 0.763338" fill="none" stroke="#ff0000" stroke-width="2"/>
<path d="M192.802,233.687l 0.907087, 0.792847l 0.907087, 0.822676l 0.907087, 0.852775l 0.907087, 0.883094l 0.907087, 0.913578l 0.907087, 0.944172l 0.907087, 0.974818l 0.907087, 1.00545l 0.907087, 1.03602l 0.907087, 1.06645l 0.907087, 1.09667l
 0.907087, 1.12663l 0.907087, 1.15625l 0.907087, 1.18547l 0.907087, 1.21422l 0.907087, 1.24242l 0.907087, 1.27l 0.907087, 1.29691l 0.907087, 1.32306l 0.907087, 1.34839l 0.907087, 1.37284l 0.907087, 1.39634l 0.907087, 1.41882l 0.907087, 1.44023l
 0.907087, 1.4605l 0.907087, 1.47958l 0.907087, 1.49741l 0.907087, 1.51395l 0.907087, 1.52914l 0.907087, 1.54295l 0.907087, 1.55532l 0.907087, 1.56623l 0.907087, 1.57565l 0.907087, 1.58353l 0.907087, 1.58988l 0.907087, 1.59465l 0.907087, 1.59784l
 0.907087, 1.59945l 0.907087, 1.59945l 0.907087, 1.59786l 0.907087, 1.59469l 0.907087, 1.58993l 0.907087, 1.5836l 0.907087, 1.57572l 0.907087, 1.56632l 0.907087, 1.55542l 0.907087, 1.54306l 0.907087, 1.52927l 0.907087, 1.51409" fill="none"
 stroke="#ff0000" stroke-width="2"/>
<path d="M237.25,299.803l 0.907087, 1.49756" fill="none" stroke="#ff0000" stroke-width="2"/>
<rect x="442.705" y="24.9905" width="113.386" height="61.5151" fill="white"/>
<path d="M442.705,86.5056h 113.386" fill="none" stroke="black"/>
<path d="M556.091,86.5056v -61.5151" fill="none" stroke="black"/>
<path d="M556.091,24.9905h -113.386" fill="none" stroke="black"/>
<path d="M442.705,24.9905v 61.5151" fill="none" stroke="black"/>
<text xml:space="preserve" x="451.763" y="36.6549" fill="black" font-size="13.4802" font-family="Helvetica">Na_CE_OSN(A)</text>
<path d="M442.705,40.3693h 113.386" fill="none" stroke="black"/>
<text xml:space="preserve" x="447.69" y="52.946" fill="black" font-size="12.7186" font-family="Helvetica">Entries </text>
<text xml:space="preserve" x="512.854" y="52.946" fill="black" font-size="12.7186" font-family="Helvetica"> 12000</text>
<text xml:space="preserve" x="447.69" y="67.6079" fill="black" font-size="12.7186" font-family="Helvetica">Mean  </text>
<text xml:space="preserve" x="512.854" y="67.6079" fill="black" font-size="12.7186" font-family="Helvetica">  475.7</text>
<text xml:space="preserve" x="447.69" y="83.0844" fill="black" font-size="12.7186" font-family="Helvetica">Std Dev   </text>
<text xml:space="preserve" x="515.298" y="83.0844" fill="black" font-size="12.7186" font-family="Helvetica">  298.1</text>
<path d="M57.1929,346.022h 453.543" fill="none" stroke="black"/>
<path d="M57.1929,336.795v 9.22726" fill="none" stroke="black"/>
<path d="M68.5315,341.409v 4.61363" fill="none" stroke="black"/>
<path d="M79.8701,341.409v 4.61363" fill="none" stroke="black"/>
<path d="M91.2087,341.409v 4.61363" fill="none" stroke="black"/>
<path d="M102.547,336.795v 9.22726" fill="none" stroke="black"/>
<path d="M113.886,341.409v 4.61363" fill="none" stroke="black"/>
<path d="M125.224,341.409v 4.61363" fill="none" stroke="black"/>
<path d="M136.563,341.409v 4.61363" fill="none" stroke="black"/>
<path d="M147.902,336.795v 9.22726" fill="none" stroke="black"/>
<path d="M159.24,341.409v 4.61363" fill="none" stroke="black"/>
<path d="M170.579,341.409v 4.61363" fill="none" stroke="black"/>
<path d="M181.917,341.409v 4.61363" fill="none" stroke="black"/>
<path d="M193.256,336.795v 9.22726" fill="none" stroke="black"/>
<path d="M204.594,341.409v 4.61363" fill="none" stroke="black"/>
<path d="M215.933,341.409v 4.61363" fill="none" stroke="black"/>
<path d="M227.272,341.409v 4.61363" fill="none" stroke="black"/>
<path d="M238.61,336.795v 9.22726" fill="none" stroke="black"/>
<path d="M249.949,341.409v 4.61363" fill="none" stroke="black"/>
<path d="M261.287,341.409v 4.61363" fill="none" stroke="black"/>
<path d="M272.626,341.409v 4.61363" fill="none" stroke="black"/>
<path d="M283.965,336.795v 9.22726" fill="none" stroke="black"/>
<path d="M295.303,341.409v 4.61363" fill="none" stroke="black"/>
<path d="M306.642,341.409v 4.61363" fill="none" stroke="black"/>
<path d="M317.98,341.409v 4.61363" fill="none" stroke="black"/>
<path d="M329.319,336.795v 9.22726" fill="none" stroke="black"/>
<path d="M340.657,341.409v 4.61363" fill="none" stroke="black"/>
<path d="M351.996,341.409v 4.61363" fill="none" stroke="black"/>
<path d="M363.335,341.409v 4.61363" fill="none" stroke="black"/>
<path d="M374.673,336.795v 9.22726" fill="none" stroke="black"/>
<path d="M386.012,341.409v 4.61363" fill="none" stroke="black"/>
<path d="M397.35,341.409v 4.61363" fill="none" stroke="black"/>
<path d="M408.689,341.409v 4.61363" fill="none" stroke="black"/>
<path d="M420.028,336.795v 9.22726" fill="none" stroke="black"/>
<path d="M431.366,341.409v 4.61363" fill="none" stroke="black"/>
<path d="M442.705,341.409v 4.61363" fill="none" stroke="black"/>
<path d="M454.043,341.409v 4.61363" fill="none" stroke="black"/>
<path d="M465.382,336.795v 9.22726" fill="none" stroke="black"/>
<path d="M476.72,341.409v 4.61363" fill="none" stroke="black"/>
<path d="M488.059,341.409v 4.61363" fill="none" stroke="black"/>
<path d="M499.398,341.409v 4.61363" fill="none" stroke="black"/>
<path d="M510.736,336.795v 9.22726" fill="none" stroke="black"/>
<text xml:space="preserve" x="53.446" y="358.403" fill="black" font-size="12.8453" font-family="Helvetica">0</text>
<text xml:space="preserve" x="91.73" y="358.403" fill="black" font-size="12.8453" font-family="Helvetica">200</text>
<text xml:space="preserve" x="136.53" y="358.403" fill="black" font-size="12.8453" font-family="Helvetica">400</text>
<text xml:space="preserve" x="182.145" y="358.403" fill="black" font-size="12.8453" font-family="Helvetica">600</text>
<text xml:space="preserve" x="227.76" y="358.403" fill="black" font-size="12.8453" font-family="Helvetica">800</text>
<text xml:space="preserve" x="270.117" y="358.403" fill="black" font-size="12.8453" font-family="Helvetica">1000</text>
<text xml:space="preserve" x="314.918" y="358.403" fill="black" font-size="12.8453" font-family="Helvetica">1200</text>
<text xml:space="preserve" x="360.533" y="358.403" fill="black" font-size="12.8453" font-family="Helvetica">1400</text>
<text xml:space="preserve" x="406.148" y="358.403" fill="black" font-size="12.8453" font-family="Helvetica">1600</text>
<text xml:space="preserve" x="450.948" y="358.403" fill="black" font-size="12.8453" font-family="Helvetica">1800</text>
<text xml:space="preserve" x="496.563" y="358.403" fill="black" font-size="12.8453" font-family="Helvetica">2000</text>
<text xml:space="preserve" x="451.763" y="372.251" fill="black" font-size="12.8453" font-family="Helvetica">ADC value</text>
<path d="M57.1929,346.022v -307.575" fill="none" stroke="black"/>
<path d="M70.7992,346.022h -13.6063" fill="none" stroke="black"/>
<path d="M63.9961,336.868h -6.80315" fill="none" stroke="black"/>
<path d="M63.9961,327.714h -6.80315" fill="none" stroke="black"/>
<path d="M63.9961,318.56h -6.80315" fill="none" stroke="black"/>
<path d="M63.9961,309.406h -6.80315" fill="none" stroke="black"/>
<path d="M70.7992,300.252h -13.6063" fill="none" stroke="black"/>
<path d="M63.9961,291.098h -6.80315" fill="none" stroke="black"/>
<path d="M63.9961,281.944h -6.80315" fill="none" stroke="black"/>
<path d="M63.9961,272.79h -6.80315" fill="none" stroke="black"/>
<path d="M63.9961,263.636h -6.80315" fill="none" stroke="black"/>
<path d="M70.7992,254.482h -13.6063" fill="none" stroke="black"/>
<path d="M63.9961,245.328h -6.80315" fill="none" stroke="black"/>
<path d="M63.9961,236.174h -6.80315" fill="none" stroke="black"/>
<path d="M63.9961,227.02h -6.80315" fill="none" stroke="black"/>
<path d="M63.9961,217.866h -6.80315" fill="none" stroke="black"/>
<path d="M70.7992,208.712h -13.6063" fill="none" stroke="black"/>
<path d="M63.9961,199.558h -6.80315" fill="none" stroke="black"/>
<path d="M63.9961,190.404h -6.80315" fill="none" stroke="black"/>
<path d="M63.9961,181.25h -6.80315" fill="none" stroke="black"/>
<path d="M63.9961,172.096h -6.80315" fill="none" stroke="black"/>
<path d="M70.7992,162.942h -13.6063" fill="none" stroke="black"/>
<path d="M63.9961,153.788h -6.80315" fill="none" stroke="black"/>
<path d="M63.9961,144.634h -6.80315" fill="none" stroke="black"/>
<path d="M63.9961,135.48h -6.80315" fill="none" stroke="black"/>
<path d="M63.9961,126.326h -6.80315" fill="none" stroke="black"/>
<path d="M70.7992,117.172h -13.6063" fill="none" stroke="black"/>
<path d="M63.9961,108.018h -6.80315" fill="none" stroke="black"/>
<path d="M63.9961,98.8635h -6.80315" fill="none" stroke="black"/>
<path d="M63.9961,89.7095h -6.80315" fill="none" stroke="black"/>
<path d="M63.9961,80.5555h -6.80315" fill="none" stroke="black"/>
<path d="M70.7992,71.4014h -13.6063" fill="none" stroke="black"/>
<path d="M70.7992,71.4014h -13.6063" fill="none" stroke="black"/>
<path d="M63.9961,62.2474h -6.80315" fill="none" stroke="black"/>
<path d="M63.9961,53.0934h -6.80315" fill="none" stroke="black"/>
<path d="M63.9961,43.9393h -6.80315" fill="none" stroke="black"/>
<text xml:space="preserve" x="47.7441" y="350.258" fill="black" font-size="12.8453" font-family="Helvetica">0</text>
<text xml:space="preserve" x="47.7441" y="304.643" fill="black" font-size="12.8453" font-family="Helvetica">5</text>
<text xml:space="preserve" x="41.2277" y="259.028" fill="black" font-size="12.8453" font-family="Helvetica">10</text>
<text xml:space="preserve" x="40.4131" y="213.413" fill="black" font-size="12.8453" font-family="Helvetica">15</text>
<text xml:space="preserve" x="41.2277" y="167.798" fill="black" font-size="12.8453" font-family="Helvetica">20</text>
<text xml:space="preserve" x="40.4131" y="121.368" fill="black" font-size="12.8453" font-family="Helvetica">25</text>
<text xml:space="preserve" x="41.2277" y="75.7535" fill="black" font-size="12.8453" font-family="Helvetica">30</text>
<g transform="rotate(-90,28.1948,75.7535)">
<text xml:space="preserve" x="28.1948" y="75.7535" fill="black" font-size="12.8453" font-family="Helvetica">Events</text>
</g>
<rect x="442.705" y="24.9905" width="113.386" height="61.5151" fill="white"/>
<path d="M442.705,86.5056h 113.386" fill="none" stroke="black"/>
<path d="M556.091,86.5056v -61.5151" fill="none" stroke="black"/>
<path d="M556.091,24.9905h -113.386" fill="none" stroke="black"/>
<path d="M442.705,24.9905v 61.5151" fill="none" stroke="black"/>
<text xml:space="preserve" x="451.763" y="36.6549" fill="black" font-size="13.4802" font-family="Helvetica">Na_CE_OSN(A)</text>
<path d="M442.705,40.3693h 113.386" fill="none" stroke="black"/>
<text xml:space="preserve" x="447.69" y="52.946" fill="black" font-size="12.7186" font-family="Helvetica">Entries </text>
<text xml:space="preserve" x="512.854" y="52.946" fill="black" font-size="12.7186" font-family="Helvetica"> 12000</text>
<text xml:space="preserve" x="447.69" y="67.6079" fill="black" font-size="12.7186" font-family="Helvetica">Mean  </text>
<text xml:space="preserve" x="512.854" y="67.6079" fill="black" font-size="12.7186" font-family="Helvetica">  475.7</text>
<text xml:space="preserve" x="447.69" y="83.0844" fill="black" font-size="12.7186" font-family="Helvetica">Std Dev   </text>
<text xml:space="preserve" x="515.298" y="83.0844" fill="black" font-size="12.7186" font-family="Helvetica">  298.1</text>
<text xml:space="preserve" x="218.8" y="18.7347" fill="black" font-size="18.0316" font-family="Helvetica">Na_CE_OSN(A)</text></svg>
