<?xml version="1.0" standalone="no"?>
<svg width="567.429" height="386.304" viewBox="0 0 567.429 386.304" xmlns="http://www.w3.org/2000/svg" shape-rendering="crispEdges">
<title>
img/calibration/Na_CE_OSN(A).svg
</title>
<desc>
Creator: ROOT Version 6.22/08
CreationDate: Tue Jun  8 01:25:29 2021</desc>
<defs>
</defs>
<rect x="0.5" y="0" width="566.929" height="385.804" fill="white"/>
<rect x="57.1929" y="38.5804" width="453.543" height="308.643" fill="white"/>
<rect x="57.1929" y="38.5804" width="453.543" height="308.643" fill="none" stroke="black"/>
<rect x="57.1929" y="38.5804" width="453.543" height="308.643" fill="white"/>
<rect x="57.1929" y="38.5804" width="453.543" height="308.643" fill="none" stroke="black"/>
<path d="M57.1929,347.224h 0.453543v -9.18581h 0.226772v 9.18581h 0.453543v -9.18581h 0.226772v 9.18581h 0.453543v -9.18581h 0.226772v 9.18581h 0.226772v -9.18581h 0.226772v 9.18581h 0.226772v -9.18581h 0.226772v 9.18581h 0.226772v -9.18581h
 0.226772v 9.18581h 0.453543v -9.18581h 1.36063v -9.18581h 0.226772v 18.3716h 0.226772v -9.18581h 0.226772v -9.18581h 0.453543v 18.3716h 0.226772v -18.3716h 0.226772v 9.18581h 0.226772v -9.18581h 0.226772v 9.18581h 0.226772v 9.18581h 0.226772v
 -27.5574h 0.226772v 9.18581h 0.226772v 18.3716h 0.226772v -9.18581h 0.680315v 9.18581h 0.226772v -45.9291h 0.226772v 45.9291h 0.226772v -27.5574h 0.226772v 27.5574h 0.226772v -18.3716h 0.680315v -18.3716h 0.226772v 18.3716h 0.226772v -27.5574h
 0.226772v 45.9291h 0.226772v -36.7433h 0.226772v 27.5574h 0.226772v -9.18581h 0.226772v 9.18581h 0.453543v -45.9291h 0.226772v 36.7433h 0.226772v -18.3716h 0.226772v 9.18581h 0.226772v 9.18581h 0.226772v -9.18581h 0.226772v -9.18581h 0.226772v
 -18.3716h 0.226772v 27.5574h 0.680315v -9.18581h 0.453543v -9.18581h 0.226772v 9.18581h 0.226772v -9.18581h 0.226772v -27.5574h 0.453543v -9.18581h 0.226772v 27.5574h 0.226772v 36.7433h 0.226772v -27.5574h 0.226772v -9.18581h 0.226772v 18.3716h
 0.226772v -9.18581h 0.226772v -9.18581h 0.226772v 9.18581h 0.226772v -55.1149h 0.226772v 27.5574h 0.453543v 45.9291h 0.226772v -55.1149h 0.226772v 27.5574h 0.226772v -18.3716h 0.453543v -18.3716h 0.226772v -27.5574h 0.226772v 18.3716h 0.453543v
 73.4865h 0.226772v -36.7433h 0.226772v -64.3007h 0.226772v 73.4865h 0.226772v -18.3716h 0.226772v -64.3007h 0.226772v -36.7433h 0.226772v 73.4865h 0.226772v -9.18581h 0.226772v -36.7433h 0.226772v 18.3716h 0.226772v 45.9291h 0.453543v -55.1149h
 0.453543v -9.18581h 0.453543v 27.5574h 0.453543v -45.9291h 0.226772v 82.6723h 0.226772v -91.8581h 0.226772v 64.3007h 0.226772v -18.3716h 0.680315v -64.3007h 0.226772v 45.9291h 0.226772v -9.18581h 0.226772v -9.18581h 0.226772v 27.5574h 0.226772v
 -18.3716h 0.226772v -18.3716h 0.226772v -110.23h 0.226772v 45.9291h 0.226772v 45.9291h 0.226772v 36.7433h 0.226772v 27.5574h 0.226772v 18.3716h 0.226772v -36.7433h 0.226772v -18.3716h 0.226772v 27.5574h 0.226772v -18.3716h 0.226772v 36.7433h
 0.226772v -55.1149h 0.226772v -9.18581h 0.226772v 73.4865h 0.226772v -36.7433h 0.226772v 27.5574h 0.226772v -36.7433h 0.226772v 45.9291h 0.226772v -55.1149h 0.226772v -55.1149h 0.226772v 45.9291h 0.226772v -27.5574h 0.226772v 27.5574h 0.226772v
 9.18581h 0.226772v 36.7433h 0.226772v -55.1149h 0.226772v 18.3716h 0.226772v -36.7433h 0.226772v 9.18581h 0.226772v 64.3007h 0.226772v -55.1149h 0.226772v 18.3716h 0.226772v -119.416h 0.226772v 36.7433h 0.226772v 18.3716h 0.226772v 82.6723h
 0.226772v -55.1149h 0.226772v 9.18581h 0.226772v -101.044h 0.226772v 137.787h 0.226772v -9.18581h 0.453543v -45.9291h 0.453543v 27.5574h 0.226772v 9.18581h 0.226772v -27.5574h 0.453543v 18.3716h 0.226772v -55.1149h 0.226772v 64.3007h 0.226772v
 9.18581h 0.453543v -9.18581h 0.226772v -9.18581h 0.226772v -73.4865h 0.226772v 119.416h 0.453543v -64.3007h 0.226772v -9.18581h 0.226772v 9.18581h 0.226772v -64.3007h 0.226772v 101.044h 0.226772v -64.3007h 0.226772v 91.8581h 0.226772v -36.7433h
 0.226772v 9.18581h 0.453543v 18.3716h 0.226772v -36.7433h 0.226772v 55.1149h 0.226772v -55.1149h 0.226772v -18.3716h 0.226772v 55.1149h 0.226772v -91.8581h 0.226772v -9.18581h 0.226772v 101.044h 0.226772v 9.18581h 0.226772v -9.18581h 0.226772v
 -64.3007h 0.226772v -9.18581h 0.226772v 36.7433h 0.226772v -36.7433h 0.226772v 73.4865h 0.226772v -18.3716h 0.226772v -18.3716h 0.226772v -9.18581h 0.453543v 45.9291h 0.226772v -18.3716h 0.226772v -9.18581h 0.453543v -82.6723h 0.226772v 55.1149h
 0.226772v -55.1149h 0.226772v 119.416h 0.226772v -73.4865h 0.226772v 36.7433h 0.226772v 9.18581h 0.226772v -27.5574h 0.226772v 55.1149h 0.226772v -9.18581h 0.226772v 36.7433h 0.226772v -73.4865h 0.226772v 27.5574h 0.226772v -18.3716h 0.226772v
 -82.6723h 0.226772v 156.159h 0.226772v -137.787h 0.226772v 91.8581h 0.226772v 27.5574h 0.226772v -45.9291h 0.226772v -55.1149h 0.226772v -55.1149h 0.226772v 165.345h 0.453543v -64.3007h 0.226772v 45.9291h 0.226772v 45.9291h 0.226772v -45.9291h
 0.226772v -64.3007h 0.226772v 36.7433h 0.226772v -55.1149h 0.226772v 55.1149h 0.226772v -9.18581h 0.226772v -27.5574h 0.453543v 18.3716h 0.226772v -45.9291h 0.226772v 91.8581h 0.226772v -119.416h 0.226772v 45.9291h 0.226772v 27.5574h 0.226772v
 -55.1149h 0.226772v -18.3716h 0.226772v 73.4865h 0.226772v -82.6723h 0.226772v 55.1149h 0.453543v -45.9291h 0.226772v 101.044h 0.226772v -27.5574h 0.226772v 9.18581h 0.226772v -36.7433h 0.226772v 110.23h 0.226772v -82.6723h 0.226772v 9.18581h
 0.226772v 27.5574h 0.226772v -18.3716h 0.226772v 36.7433h 0.226772v -18.3716h 0.226772v -9.18581h 0.226772v 27.5574h 0.226772v -128.601h 0.226772v 119.416h 0.226772v -110.23h 0.226772v 110.23h 0.226772v 55.1149h 0.226772v -73.4865h 0.226772v
 27.5574h 0.226772v -36.7433h 0.453543v 36.7433h 0.226772v -36.7433h 0.453543v -27.5574h 0.226772v 101.044h 0.226772v -18.3716h 0.226772v -156.159h 0.226772v 73.4865h 0.226772v 73.4865h 0.226772v -82.6723h 0.226772v 64.3007h 0.226772v -55.1149h
 0.226772v 55.1149h 0.226772v 9.18581h 0.226772v -27.5574h 0.226772v -55.1149h 0.226772v 55.1149h 0.226772v -73.4865h 0.226772v 55.1149h 0.226772v -45.9291h 0.226772v 18.3716h 0.226772v 64.3007h 0.226772v -18.3716h 0.226772v -18.3716h 0.453543v
 9.18581h 0.226772v -27.5574h 0.226772v 101.044h 0.226772v -73.4865h 0.226772v -18.3716h 0.226772v 64.3007h 0.226772v -82.6723h 0.226772v 18.3716h 0.226772v 36.7433h 0.226772v -36.7433h 0.226772v -36.7433h 0.226772v 64.3007h 0.226772v -27.5574h
 0.226772v 18.3716h 0.226772v -36.7433h 0.226772v 91.8581h 0.226772v -45.9291h 0.226772v 64.3007h 0.226772v -165.345h 0.226772v 119.416h 0.226772v -27.5574h 0.226772v 27.5574h 0.226772v -45.9291h 0.226772v 55.1149h 0.453543v -91.8581h 0.226772v
 82.6723h 0.226772v -9.18581h 0.226772v -9.18581h 0.226772v 9.18581h 0.226772v -9.18581h 0.453543v 45.9291h 0.226772v -36.7433h 0.226772v 36.7433h 0.226772v -64.3007h 0.226772v -9.18581h 0.226772v 91.8581h 0.226772v -91.8581h 0.226772v 9.18581h
 0.226772v -9.18581h 0.226772v -18.3716h 0.226772v -9.18581h 0.226772v -55.1149h 0.226772v 110.23h 0.226772v 64.3007h 0.226772v -9.18581h 0.226772v -36.7433h 0.226772v -27.5574h 0.226772v -27.5574h 0.226772v 45.9291h 0.226772v -9.18581h 0.226772v
 9.18581h 0.226772v 36.7433h 0.226772v -55.1149h 0.226772v 27.5574h 0.226772v -55.1149h 0.226772v 45.9291h 0.226772v -82.6723h 0.226772v 110.23h 0.226772v -45.9291h 0.226772v 18.3716h 0.226772v 18.3716h 0.226772v -64.3007h 0.226772v 55.1149h
 0.226772v 9.18581h 0.226772v -9.18581h 0.226772v 45.9291h 0.226772v -73.4865h 0.226772v -18.3716h 0.226772v 18.3716h 0.226772v 18.3716h 0.226772v -18.3716h 0.226772v -82.6723h 0.226772v 64.3007h 0.226772v 45.9291h 0.226772v -18.3716h 0.226772v
 -9.18581h 0.226772v -45.9291h 0.226772v 73.4865h 0.453543v 27.5574h 0.453543v 9.18581h 0.226772v -27.5574h 0.226772v 27.5574h 0.226772v -64.3007h 0.226772v 18.3716h 0.226772v -9.18581h 0.226772v 55.1149h 0.226772v -36.7433h 0.226772v -36.7433h
 0.226772v 45.9291h 0.226772v 9.18581h 0.226772v -18.3716h 0.226772v 18.3716h 0.226772v 36.7433h 0.226772v -82.6723h 0.226772v -64.3007h 0.226772v 101.044h 0.226772v -27.5574h 0.226772v 36.7433h 0.453543v -45.9291h 0.226772v -36.7433h 0.226772v
 82.6723h 0.226772v -45.9291h 0.226772v 18.3716h 0.453543v -27.5574h 0.226772v 64.3007h 0.453543v -36.7433h 0.226772v -36.7433h 0.226772v 64.3007h 0.226772v -27.5574h 0.226772v 18.3716h 0.226772v -64.3007h 0.226772v 9.18581h 0.226772v 27.5574h
 0.226772v 9.18581h 0.453543v 27.5574h 0.226772v -27.5574h 0.226772v 9.18581h 0.226772v -36.7433h 0.226772v 27.5574h 0.226772v -45.9291h 0.226772v 64.3007h 0.453543v -45.9291h 0.226772v 27.5574h 0.226772v 9.18581h 0.226772v 9.18581h 0.453543v
 -18.3716h 0.226772v 18.3716h 0.226772v -27.5574h 0.226772v 27.5574h 0.226772v -9.18581h 0.226772v -27.5574h 0.226772v 18.3716h 0.226772v -27.5574h 0.226772v 18.3716h 0.226772v 73.4865h 0.226772v -91.8581h 0.226772v 45.9291h 0.453543v -45.9291h
 0.226772v -36.7433h 0.453543v 73.4865h 0.226772v 9.18581h 0.226772v -18.3716h 0.226772v 18.3716h 0.226772v -73.4865h 0.226772v 64.3007h 0.226772v 27.5574h 0.226772v -91.8581h 0.226772v 64.3007h 0.226772v 55.1149h 0.226772v -91.8581h 0.226772v
 36.7433h 0.226772v -27.5574h 0.453543v 9.18581h 0.226772v 27.5574h 0.226772v 27.5574h 0.226772v -82.6723h 0.453543v 73.4865h 0.453543v 9.18581h 0.453543v -45.9291h 0.226772v -9.18581h 0.226772v -9.18581h 0.226772v 36.7433h 0.226772v -64.3007h
 0.226772v 55.1149h 0.907087v 9.18581h 0.226772v -18.3716h 0.226772v 45.9291h 0.226772v -18.3716h 0.226772v -27.5574h 0.453543v -36.7433h 0.226772v 45.9291h 0.226772v 9.18581h 0.226772v -9.18581h 0.226772v 91.8581h 0.226772v -91.8581h 0.226772v
 55.1149h 0.226772v -45.9291h 0.226772v -9.18581h 0.226772v 9.18581h 0.226772v -9.18581h 0.226772v 64.3007h 0.226772v -27.5574h 0.453543v -36.7433h 0.226772v 18.3716h 0.226772v 36.7433h 0.226772v -55.1149h 0.226772v 27.5574h 0.226772v -18.3716h
 0.226772v -55.1149h 0.226772v -18.3716h 0.226772v 82.6723h 0.226772v -55.1149h 0.226772v -36.7433h 0.226772v 64.3007h 0.226772v -9.18581h 0.453543v 45.9291h 0.226772v 9.18581h 0.226772v -27.5574h 0.226772v -45.9291h 0.226772v 36.7433h 0.226772v
 -9.18581h 0.226772v -73.4865h 0.226772v 45.9291h 0.226772v 27.5574h 0.226772v 64.3007h 0.226772v -73.4865h 0.226772v 18.3716h 0.226772v 9.18581h 0.226772v -18.3716h 0.226772v 9.18581h 0.226772v -9.18581h 0.453543v 36.7433h 0.226772v -36.7433h
 0.226772v 18.3716h 0.226772v -9.18581h 0.226772v -9.18581h 0.226772v 9.18581h 0.226772v -45.9291h 0.226772v 9.18581h 0.226772v 27.5574h 0.226772v -45.9291h 0.226772v 82.6723h 0.226772v 9.18581h 0.226772v -18.3716h 0.226772v -9.18581h 0.226772v
 -36.7433h 0.226772v 101.044h 0.226772v -64.3007h 0.226772v -18.3716h 0.226772v 36.7433h 0.226772v -18.3716h 0.226772v -18.3716h 0.453543v 45.9291h 0.226772v -9.18581h 0.226772v 27.5574h 0.226772v -64.3007h 0.226772v -36.7433h 0.226772v 27.5574h
 0.226772v 9.18581h 0.226772v 73.4865h 0.226772v -36.7433h 0.226772v -36.7433h 0.226772v -27.5574h 0.226772v 18.3716h 0.226772v 55.1149h 0.226772v -18.3716h 0.226772v -9.18581h 0.226772v -27.5574h 0.226772v 55.1149h 0.226772v -9.18581h 0.226772v
 -36.7433h 0.453543v 45.9291h 0.226772v -45.9291h 0.226772v 9.18581h 0.453543v 45.9291h 0.226772v -73.4865h 0.226772v 27.5574h 0.226772v -73.4865h 0.226772v 91.8581h 0.453543v 9.18581h 0.226772v -64.3007h 0.226772v 45.9291h 0.226772v -36.7433h
 0.226772v 45.9291h 0.226772v 18.3716h 0.226772v -64.3007h 0.226772v 64.3007h 0.226772v -27.5574h 0.226772v 18.3716h 0.226772v -36.7433h 0.226772v -9.18581h 0.226772v 27.5574h 0.226772v -45.9291h 0.226772v 45.9291h 0.226772v 45.9291h 0.226772v
 -45.9291h 0.226772v 9.18581h 0.226772v -18.3716h 0.226772v 9.18581h 0.680315v 9.18581h 0.226772v 36.7433h 0.226772v -9.18581h 0.226772v 27.5574h 0.226772v -91.8581h 0.226772v 45.9291h 0.226772v -9.18581h 0.226772v -36.7433h 0.226772v 64.3007h
 0.226772v 36.7433h 0.226772v -9.18581h 0.226772v -101.044h 0.226772v 36.7433h 0.453543v 27.5574h 0.226772v 9.18581h 0.226772v -55.1149h 0.226772v 55.1149h 0.226772v -45.9291h 0.226772v -9.18581h 0.226772v -9.18581h 0.226772v 55.1149h 0.226772v
 -9.18581h 0.226772v -36.7433h 0.226772v 27.5574h 0.226772v -9.18581h 0.226772v 9.18581h 0.226772v 18.3716h 0.226772v 55.1149h 0.226772v -73.4865h 0.453543v -45.9291h 0.226772v 36.7433h 0.226772v 27.5574h 0.226772v -9.18581h 0.226772v 45.9291h
 0.226772v -36.7433h 0.226772v -9.18581h 0.453543v 9.18581h 0.226772v 18.3716h 0.226772v 9.18581h 0.226772v -18.3716h 0.226772v -9.18581h 0.226772v -18.3716h 0.226772v 9.18581h 0.226772v -27.5574h 0.226772v 27.5574h 0.226772v -64.3007h 0.226772v
 36.7433h 0.226772v 36.7433h 0.226772v -18.3716h 0.226772v 55.1149h 0.226772v -45.9291h 0.226772v -18.3716h 0.226772v 18.3716h 0.226772v -18.3716h 0.226772v 27.5574h 0.226772v -27.5574h 0.226772v -9.18581h 0.226772v 18.3716h 0.453543v 9.18581h
 0.226772v -27.5574h 0.226772v 45.9291h 0.226772v -18.3716h 0.453543v 64.3007h 0.226772v -73.4865h 0.226772v 45.9291h 0.226772v -36.7433h 0.226772v 9.18581h 0.226772v 9.18581h 0.226772v 36.7433h 0.226772v -45.9291h 0.226772v 18.3716h 0.453543v
 -9.18581h 0.226772v -27.5574h 0.226772v 27.5574h 0.226772v 18.3716h 0.226772v -55.1149h 0.226772v -18.3716h 0.226772v 27.5574h 0.226772v 27.5574h 0.226772v 45.9291h 0.226772v -101.044h 0.226772v 55.1149h 0.226772v -36.7433h 0.226772v 55.1149h
 0.226772v -55.1149h 0.226772v 9.18581h 0.226772v 18.3716h 0.226772v 9.18581h 0.226772v -27.5574h 0.226772v 64.3007h 0.226772v -36.7433h 0.226772v -36.7433h 0.226772v 18.3716h 0.226772v 9.18581h 0.226772v -9.18581h 0.226772v -27.5574h 0.226772v
 55.1149h 0.226772v -9.18581h 0.226772v 9.18581h 0.226772v -9.18581h 0.226772v -18.3716h 0.226772v 18.3716h 0.226772v -27.5574h 0.226772v 73.4865h 0.226772v -55.1149h 0.226772v -55.1149h 0.226772v 55.1149h 0.226772v 9.18581h 0.226772v -9.18581h
 0.226772v 9.18581h 0.226772v 36.7433h 0.226772v 18.3716h 0.226772v -55.1149h 0.226772v -73.4865h 0.226772v 82.6723h 0.226772v -27.5574h 0.226772v -73.4865h 0.226772v 73.4865h 0.226772v 45.9291h 0.226772v -18.3716h 0.226772v -55.1149h 0.226772v
 82.6723h 0.226772v -82.6723h 0.226772v 27.5574h 0.226772v 9.18581h 0.226772v 18.3716h 0.226772v -36.7433h 0.226772v 27.5574h 0.226772v 27.5574h 0.226772v 18.3716h 0.226772v -45.9291h 0.226772v 9.18581h 0.226772v 18.3716h 0.226772v -27.5574h
 0.226772v 9.18581h 0.226772v 27.5574h 0.226772v -9.18581h 0.226772v 18.3716h 0.226772v -27.5574h 0.226772v 27.5574h 0.226772v 9.18581h 0.226772v 9.18581h 0.226772v -64.3007h 0.226772v 27.5574h 0.453543v 27.5574h 0.226772v -55.1149h 0.226772v
 36.7433h 0.226772v 9.18581h 0.453543v -18.3716h 0.226772v 27.5574h 0.226772v -36.7433h 0.226772v 9.18581h 0.226772v -27.5574h 0.226772v 18.3716h 0.226772v 27.5574h 0.453543v -45.9291h 0.226772v 27.5574h 0.226772v 18.3716h 0.453543v -36.7433h
 0.226772v 45.9291h 0.226772v -27.5574h 0.226772v -45.9291h 0.226772v 64.3007h 0.226772v -9.18581h 0.226772v -9.18581h 0.226772v -45.9291h 0.226772v 45.9291h 0.453543v 9.18581h 0.226772v -27.5574h 0.226772v 9.18581h 0.226772v 9.18581h 0.226772v
 27.5574h 0.226772v -27.5574h 0.453543v -9.18581h 0.680315v 36.7433h 0.226772v -27.5574h 0.226772v -27.5574h 0.226772v 55.1149h 0.226772v -36.7433h 0.226772v -18.3716h 0.226772v 27.5574h 0.226772v 9.18581h 0.226772v 18.3716h 0.226772v -18.3716h
 0.226772v 18.3716h 0.226772v -36.7433h 0.226772v 9.18581h 0.226772v 27.5574h 0.226772v -9.18581h 0.226772v -27.5574h 0.226772v 27.5574h 0.226772v 27.5574h 0.226772v -45.9291h 0.226772v 18.3716h 0.226772v -18.3716h 0.226772v -9.18581h 0.226772v
 18.3716h 0.226772v 36.7433h 0.226772v -9.18581h 0.226772v -55.1149h 0.226772v 36.7433h 0.226772v 36.7433h 0.226772v -55.1149h 0.226772v 27.5574h 0.226772v 9.18581h 0.226772v -18.3716h 0.226772v -36.7433h 0.226772v 18.3716h 0.226772v 18.3716h
 0.453543v -9.18581h 0.226772v 27.5574h 0.226772v -9.18581h 0.226772v -9.18581h 0.680315v -55.1149h 0.226772v 64.3007h 0.226772v -36.7433h 0.226772v 36.7433h 0.226772v -36.7433h 0.226772v -18.3716h 0.226772v 45.9291h 0.226772v 27.5574h 0.226772v
 -55.1149h 0.226772v 27.5574h 0.226772v 18.3716h 0.453543v -55.1149h 0.226772v 55.1149h 0.226772v 9.18581h 0.226772v -36.7433h 0.226772v 9.18581h 0.226772v 36.7433h 0.226772v -36.7433h 0.226772v 9.18581h 0.226772v 18.3716h 0.226772v -36.7433h
 0.226772v -9.18581h 0.226772v 18.3716h 0.226772v -9.18581h 0.226772v 18.3716h 0.226772v 9.18581h 0.226772v 18.3716h 0.226772v -36.7433h 0.226772v 27.5574h 0.226772v -9.18581h 0.226772v -18.3716h 0.226772v 18.3716h 0.226772v -9.18581h 0.226772v
 -36.7433h 0.226772v 55.1149h 0.226772v -9.18581h 0.226772v -27.5574h 0.226772v 18.3716h 0.226772v -18.3716h 0.226772v 27.5574h 0.226772v -9.18581h 0.226772v -64.3007h 0.226772v 55.1149h 0.453543v 9.18581h 0.226772v -9.18581h 0.226772v 9.18581h
 0.680315v -18.3716h 0.453543v 18.3716h 0.226772v 9.18581h 0.226772v -45.9291h 0.226772v 27.5574h 0.226772v 18.3716h 0.680315v -36.7433h 0.226772v -9.18581h 0.226772v 36.7433h 0.453543v -9.18581h 0.226772v -9.18581h 0.226772v 18.3716h 0.226772v
 -18.3716h 0.226772v 9.18581h 0.226772v 36.7433h 0.226772v -9.18581h 0.226772v -18.3716h 0.226772v -27.5574h 0.226772v 27.5574h 0.226772v -18.3716h 0.226772v 9.18581h 0.226772v 18.3716h 0.226772v -9.18581h 0.226772v -18.3716h 0.453543v 18.3716h
 0.453543v -9.18581h 0.226772v 18.3716h 0.453543v 9.18581h 0.226772v -18.3716h 0.226772v -9.18581h 0.453543v 9.18581h 0.226772v 9.18581h 0.453543v 9.18581h 0.453543v 9.18581h 0.226772v -27.5574h 0.226772v -18.3716h 0.226772v 9.18581h 0.226772v
 18.3716h 0.226772v -9.18581h 0.453543v -27.5574h 0.226772v 18.3716h 0.226772v -18.3716h 0.226772v 27.5574h 0.680315v 9.18581h 0.453543v -18.3716h 0.226772v 9.18581h 0.226772v 18.3716h 0.226772v -9.18581h 0.453543v -9.18581h 0.226772v -36.7433h
 0.226772v 45.9291h 0.226772v -9.18581h 0.226772v 18.3716h 0.226772v -27.5574h 0.226772v 18.3716h 0.226772v -18.3716h 0.226772v 27.5574h 0.453543v -18.3716h 0.226772v -9.18581h 0.226772v 18.3716h 0.453543v 9.18581h 0.226772v -18.3716h 0.226772v
 -9.18581h 0.226772v 36.7433h 0.226772v -9.18581h 0.226772v -9.18581h 0.226772v 9.18581h 0.226772v 9.18581h 0.226772v -18.3716h 0.226772v 9.18581h 0.226772v -18.3716h 0.226772v 18.3716h 0.226772v -18.3716h 0.226772v 9.18581h 0.453543v -9.18581h
 0.680315v 9.18581h 0.226772v -45.9291h 0.226772v 45.9291h 0.226772v 9.18581h 0.226772v -9.18581h 0.907087v 18.3716h 0.226772v -27.5574h 0.453543v 18.3716h 0.453543v 9.18581h 0.226772v -9.18581h 0.226772v -27.5574h 0.680315v 9.18581h 0.226772v
 9.18581h 0.226772v 9.18581h 0.226772v -9.18581h 0.226772v 9.18581h 0.226772v -9.18581h 0.226772v 9.18581h 0.226772v -18.3716h 0.453543v 9.18581h 0.226772v -9.18581h 0.453543v 9.18581h 0.226772v 9.18581h 0.226772v -9.18581h 0.680315v -9.18581h
 0.226772v 9.18581h 0.226772v 9.18581h 0.226772v 9.18581h 0.226772v -18.3716h 0.226772v 18.3716h 0.226772v -27.5574h 0.226772v 27.5574h 0.226772v -18.3716h 0.226772v -27.5574h 0.226772v 18.3716h 0.226772v -9.18581h 0.226772v 9.18581h 0.226772v
 9.18581h 0.453543v -18.3716h 0.226772v 27.5574h 0.226772v -9.18581h 0.226772v -9.18581h 0.226772v 9.18581h 0.453543v 18.3716h 0.226772v -9.18581h 0.226772v -9.18581h 0.226772v -18.3716h 0.453543v 18.3716h 0.226772v -18.3716h 0.226772v 36.7433h
 0.226772v -18.3716h 0.226772v 18.3716h 0.226772v -27.5574h 0.680315v 9.18581h 0.226772v -9.18581h 0.226772v 18.3716h 0.453543v -18.3716h 0.226772v -18.3716h 0.226772v 18.3716h 0.226772v 18.3716h 0.226772v -18.3716h 0.226772v 27.5574h 0.226772v
 -18.3716h 0.453543v -36.7433h 0.226772v 55.1149h 0.226772v -27.5574h 0.226772v 18.3716h 0.226772v -9.18581h 0.226772v -27.5574h 0.226772v 36.7433h 0.226772v -18.3716h 0.226772v 18.3716h 0.226772v 9.18581h 0.226772v -9.18581h 0.226772v -9.18581h
 0.453543v -9.18581h 0.226772v 9.18581h 0.226772v -18.3716h 0.226772v 9.18581h 0.226772v 27.5574h 0.226772v -27.5574h 0.226772v 9.18581h 0.226772v 9.18581h 0.907087v -9.18581h 0.226772v 18.3716h 0.226772v -36.7433h 0.226772v 18.3716h 0.226772v
 9.18581h 0.226772v 9.18581h 0.226772v -27.5574h 0.226772v 18.3716h 0.453543v -9.18581h 0.226772v 18.3716h 0.226772v -9.18581h 0.226772v -9.18581h 0.226772v 9.18581h 0.680315v -18.3716h 0.226772v 18.3716h 0.226772v -9.18581h 0.226772v 9.18581h
 0.907087v -27.5574h 0.226772v 36.7433h 0.226772v -9.18581h 0.226772v -18.3716h 0.226772v 18.3716h 0.226772v -27.5574h 0.226772v 9.18581h 0.226772v 9.18581h 0.226772v -9.18581h 0.226772v 18.3716h 0.226772v -9.18581h 0.226772v 9.18581h 0.226772v
 -18.3716h 0.226772v 9.18581h 0.453543v 18.3716h 0.226772v -9.18581h 0.226772v -9.18581h 0.453543v 18.3716h 0.453543v -9.18581h 0.453543v 9.18581h 0.226772v -18.3716h 0.453543v 9.18581h 0.226772v -9.18581h 0.453543v 9.18581h 0.226772v 9.18581h
 0.226772v -36.7433h 0.226772v 36.7433h 0.226772v -18.3716h 0.226772v 9.18581h 0.453543v -9.18581h 0.226772v 9.18581h 0.226772v -9.18581h 0.226772v 9.18581h 0.453543v -9.18581h 0.453543v 9.18581h 0.453543v -18.3716h 0.680315v -9.18581h 0.226772v
 36.7433h 0.226772v -18.3716h 0.453543v 9.18581h 0.226772v -9.18581h 0.226772v 18.3716h 0.453543v -18.3716h 0.453543v 18.3716h 0.226772v -18.3716h 0.226772v 18.3716h 0.453543v -36.7433h 0.226772v 27.5574h 0.226772v -9.18581h 0.226772v 9.18581h
 0.680315v 9.18581h 0.453543v -9.18581h 0.226772v -9.18581h 0.226772v -9.18581h 0.226772v 27.5574h 0.226772v -9.18581h 0.226772v 9.18581h 0.453543v -9.18581h 0.226772v -9.18581h 0.226772v 18.3716h 0.226772v -9.18581h 0.226772v -9.18581h 0.226772v
 18.3716h 0.680315v -9.18581h 0.226772v 9.18581h 0.226772v -18.3716h 0.226772v 9.18581h 0.226772v -9.18581h 0.226772v -9.18581h 0.226772v 9.18581h 0.226772v 9.18581h 0.226772v -9.18581h 0.226772v 18.3716h 0.226772v -18.3716h 0.226772v 18.3716h
 0.226772v -9.18581h 0.453543v 9.18581h 0.680315v -9.18581h 0.453543v 9.18581h 0.680315v -9.18581h 0.453543v -9.18581h 0.226772v 9.18581h 0.226772v 9.18581h 0.226772v -18.3716h 0.226772v 9.18581h 0.453543v -18.3716h 0.226772v 18.3716h 0.226772v
 9.18581h 0.226772v -9.18581h 1.13386v -18.3716h 0.226772v 18.3716h 0.226772v -9.18581h 0.226772v 18.3716h 0.226772v -9.18581h 0.453543v -9.18581h 0.226772v 18.3716h 0.226772v -18.3716h 0.226772v 18.3716h 0.453543v -18.3716h 0.226772v 18.3716h
 0.226772v -27.5574h 0.680315v 27.5574h 0.226772v -18.3716h 0.226772v -18.3716h 0.226772v 18.3716h 0.226772v -9.18581h 0.226772v 9.18581h 0.453543v 18.3716h 0.453543v -9.18581h 0.226772v 9.18581h 0.453543v -9.18581h 0.226772v 9.18581h 0.226772v
 -9.18581h 0.453543v -18.3716h 0.226772v 9.18581h 0.226772v 18.3716h 0.226772v -9.18581h 0.226772v 9.18581h 1.13386v -18.3716h 0.226772v 9.18581h 0.453543v 9.18581h 0.226772v -18.3716h 0.453543v 18.3716h 0.453543v -9.18581h 0.226772v 9.18581h
 0.226772v -9.18581h 0.453543v 9.18581h 0.680315v -18.3716h 0.226772v 18.3716h 0.226772v -9.18581h 0.453543v 9.18581h 0.453543v -9.18581h 0.226772v 9.18581h 0.453543v -9.18581h 0.226772v -9.18581h 0.226772v 18.3716h 0.226772v -9.18581h 0.226772v
 -9.18581h 0.453543v 9.18581h 0.226772v -18.3716h 0.226772v 9.18581h 0.226772v 18.3716h 1.13386v -18.3716h 0.226772v 18.3716h 0.226772v -9.18581h 0.226772v 9.18581h 0.226772v -9.18581h 0.453543v -18.3716h 0.226772v 27.5574h 0.453543v -18.3716h
 0.226772v -9.18581h 0.226772v 18.3716h 0.226772v 9.18581h 0.453543v -9.18581h 0.453543v -9.18581h 0.453543v 18.3716h 0.226772v -27.5574h 0.226772v 27.5574h 0.226772v -9.18581h 0.226772v 9.18581h 0.226772v -18.3716h 0.226772v -9.18581h 0.226772v
 27.5574h 0.680315v -9.18581h 0.226772v 9.18581h 0.226772v -18.3716h 0.226772v 18.3716h 0.453543v -18.3716h 0.226772v 9.18581h 0.226772v -9.18581h 0.226772v 9.18581h 0.226772v -18.3716h 0.226772v 18.3716h 0.226772v 9.18581h 0.226772v -9.18581h
 0.226772v -27.5574h 0.226772v 27.5574h 0.453543v 9.18581h 0.226772v -9.18581h 0.680315v 9.18581h 0.453543v -18.3716h 0.226772v 9.18581h 0.226772v -9.18581h 0.453543v 18.3716h 0.453543v -9.18581h 0.226772v 9.18581h 0.226772v -18.3716h 1.5874v
 9.18581h 0.453543v 9.18581h 1.13386v -9.18581h 0.453543v 9.18581h 0.226772v -27.5574h 0.226772v 9.18581h 0.226772v 18.3716h 0.453543v -9.18581h 0.226772v -9.18581h 0.226772v 9.18581h 0.226772v 9.18581h 0.226772v -18.3716h 0.226772v 9.18581h
 0.453543v 9.18581h 0.680315v -9.18581h 0.226772v 9.18581h 0.226772v -9.18581h 0.226772v 9.18581h 0.453543v -9.18581h 0.226772v -9.18581h 0.226772v 18.3716h 0.226772v -9.18581h 0.453543v 9.18581h 0.680315v -18.3716h 0.226772v 9.18581h 0.453543v
 9.18581h 0.226772v -9.18581h 1.13386v 9.18581h 0.453543v -9.18581h 0.226772v 9.18581h 0.226772v -18.3716h 0.226772v 18.3716h 1.36063v -9.18581h 0.907087v -9.18581h 0.226772v 9.18581h 0.453543v 9.18581h 0.226772v -27.5574h 0.453543v 27.5574h
 0.226772v -27.5574h 0.226772v 27.5574h 0.226772v -9.18581h 0.226772v 9.18581h 0.226772v -9.18581h 0.453543v -9.18581h 0.226772v 18.3716h 0.226772v -9.18581h 0.226772v 9.18581h 0.226772v -9.18581h 0.226772v -18.3716h 0.226772v 27.5574h 0.226772v
 -9.18581h 0.226772v 9.18581h 0.453543v -18.3716h 0.226772v 18.3716h 0.226772v -9.18581h 0.226772v 9.18581h 0.226772v -18.3716h 0.226772v 18.3716h 0.453543v -9.18581h 0.907087v 9.18581h 0.453543v -9.18581h 0.226772v 9.18581h 0.680315v -9.18581h
 0.680315v 9.18581h 0.226772v -9.18581h 0.226772v 9.18581h 0.226772v -9.18581h 0.453543v -18.3716h 0.226772v 9.18581h 0.226772v 18.3716h 0.907087v -9.18581h 0.453543v 9.18581h 0.226772v -9.18581h 0.226772v 9.18581h 0.226772v -9.18581h 0.226772v
 9.18581h 0.226772v -18.3716h 0.226772v 18.3716h 0.226772v -9.18581h 0.226772v -9.18581h 0.226772v 9.18581h 0.226772v 9.18581h 1.36063v -27.5574h 0.226772v 18.3716h 0.226772v 9.18581h 0.226772v -18.3716h 0.226772v 18.3716h 0.226772v -9.18581h
 0.680315v 9.18581h 0.226772v -9.18581h 0.226772v 9.18581h 0.453543v -9.18581h 0.226772v 9.18581h 0.453543v -9.18581h 0.680315v 9.18581h 0.453543v -9.18581h 0.226772v 9.18581h 0.226772v -27.5574h 0.226772v 27.5574h 0.453543v -9.18581h 0.226772v
 -9.18581h 0.226772v 9.18581h 0.453543v 9.18581h 0.453543v -9.18581h 0.907087v 9.18581h 0.226772v -18.3716h 0.226772v 18.3716h 0.907087v -9.18581h 0.226772v 9.18581h 0.680315v -9.18581h 0.453543v 9.18581h 0.907087v -9.18581h 0.226772v 9.18581h
 1.36063v -18.3716h 0.226772v 9.18581h 0.226772v 9.18581h 0.907087v -9.18581h 0.226772v 9.18581h 1.5874v -9.18581h 0.453543v 9.18581h 0.453543v -18.3716h 0.226772v 9.18581h 0.226772v 9.18581h 0.453543v -9.18581h 0.226772v 9.18581h 0.453543v -9.18581h
 0.226772v 9.18581h 0.453543v -9.18581h 0.226772v 9.18581h 1.5874v -9.18581h 0.226772v 9.18581h 0.907087v -9.18581h 0.226772v 9.18581h 0.226772v -9.18581h 0.226772v 9.18581h 0.680315v -9.18581h 0.453543v 9.18581h 0.226772v -18.3716h 0.226772v
 9.18581h 0.226772v 9.18581h 1.5874v -9.18581h 0.226772v 9.18581h 4.30866v -9.18581h 0.226772v 9.18581h 0.680315v -9.18581h 0.226772v 9.18581h 0.226772v -9.18581h 0.226772v 9.18581h 0.680315v -9.18581h 0.226772v 9.18581h 6.57638v -9.18581h 0.226772v
 9.18581h 0.226772v -9.18581h 0.226772v 9.18581h 2.26772v -9.18581h 0.226772v 9.18581h 2.94803v -9.18581h 0.226772v 9.18581h 0.680315v -9.18581h 0.226772v 9.18581h 0.680315v -9.18581h 0.226772v 9.18581h 2.04094v -9.18581h 0.226772v 9.18581h 2.49449v
 -9.18581h 0.226772v 9.18581h 12.0189v -9.18581h 0.226772v 9.18581h 0.907087v -9.18581h 0.226772v 9.18581h 6.80315v -9.18581h 0.226772v 9.18581h 2.49449v -9.18581h 0.226772v 9.18581h 3.1748v -9.18581h 0.453543v 9.18581h 26.9858v -9.18581h 0.226772"
 fill="none" stroke="#000099"/>
<path d="M148.355,220.241l 0.907087, 0.0383536l 0.907087, 0.0417911l 0.907087, 0.0454913l 0.907087, 0.0494697l 0.907087, 0.0537424l 0.907087, 0.0583258l 0.907087, 0.063237l 0.907087, 0.0684934l 0.907087, 0.0741127l 0.907087, 0.080113l 0.907087,
 0.0865127l 0.907087, 0.0933304l 0.907087, 0.100585l 0.907087, 0.108295l 0.907087, 0.11648l 0.907087, 0.125159l 0.907087, 0.13435l 0.907087, 0.144073l 0.907087, 0.154344l 0.907087, 0.165184l 0.907087, 0.176608l 0.907087, 0.188633l 0.907087, 0.201277l
 0.907087, 0.214554l 0.907087, 0.228478l 0.907087, 0.243064l 0.907087, 0.258323l 0.907087, 0.274265l 0.907087, 0.290901l 0.907087, 0.308239l 0.907087, 0.326284l 0.907087, 0.34504l 0.907087, 0.364511l 0.907087, 0.384697l 0.907087, 0.405596l 0.907087,
 0.427203l 0.907087, 0.449512l 0.907087, 0.472515l 0.907087, 0.496199l 0.907087, 0.520551l 0.907087, 0.545553l 0.907087, 0.571185l 0.907087, 0.597426l 0.907087, 0.624248l 0.907087, 0.651624l 0.907087, 0.679522l 0.907087, 0.707907l 0.907087, 0.736743l
 0.907087, 0.765988" fill="none" stroke="#ff0000" stroke-width="2"/>
<path d="M192.802,234.499l 0.907087, 0.7956l 0.907087, 0.825532l 0.907087, 0.855736l 0.907087, 0.88616l 0.907087, 0.916751l 0.907087, 0.947451l 0.907087, 0.978202l 0.907087, 1.00894l 0.907087, 1.03961l 0.907087, 1.07015l 0.907087, 1.10048l 0.907087,
 1.13054l 0.907087, 1.16027l 0.907087, 1.18959l 0.907087, 1.21843l 0.907087, 1.24673l 0.907087, 1.27441l 0.907087, 1.30141l 0.907087, 1.32765l 0.907087, 1.35308l 0.907087, 1.37761l 0.907087, 1.40119l 0.907087, 1.42375l 0.907087, 1.44523l 0.907087,
 1.46557l 0.907087, 1.48472l 0.907087, 1.50261l 0.907087, 1.51921l 0.907087, 1.53445l 0.907087, 1.5483l 0.907087, 1.56072l 0.907087, 1.57167l 0.907087, 1.58112l 0.907087, 1.58903l 0.907087, 1.5954l 0.907087, 1.60019l 0.907087, 1.60339l 0.907087,
 1.605l 0.907087, 1.60501l 0.907087, 1.60341l 0.907087, 1.60022l 0.907087, 1.59545l 0.907087, 1.5891l 0.907087, 1.58119l 0.907087, 1.57176l 0.907087, 1.56082l 0.907087, 1.54842l 0.907087, 1.53458l 0.907087, 1.51935" fill="none" stroke="#ff0000"
 stroke-width="2"/>
<path d="M237.25,300.844l 0.907087, 1.50276" fill="none" stroke="#ff0000" stroke-width="2"/>
<rect x="442.705" y="25.0773" width="113.386" height="61.7287" fill="white"/>
<path d="M442.705,86.8059h 113.386" fill="none" stroke="black"/>
<path d="M556.091,86.8059v -61.7287" fill="none" stroke="black"/>
<path d="M556.091,25.0773h -113.386" fill="none" stroke="black"/>
<path d="M442.705,25.0773v 61.7287" fill="none" stroke="black"/>
<text xml:space="preserve" x="452.094" y="36.5499" fill="black" font-size="13.5253" font-family="Helvetica">Na_CE_OSN(A)</text>
<path d="M442.705,40.5094h 113.386" fill="none" stroke="black"/>
<text xml:space="preserve" x="448.033" y="52.7943" fill="black" font-size="13.1417" font-family="Helvetica">Entries </text>
<text xml:space="preserve" x="510.574" y="52.7943" fill="black" font-size="13.1417" font-family="Helvetica"> 12000</text>
<text xml:space="preserve" x="448.033" y="68.2264" fill="black" font-size="13.1417" font-family="Helvetica">Mean  </text>
<text xml:space="preserve" x="510.574" y="68.2264" fill="black" font-size="13.1417" font-family="Helvetica">  475.7</text>
<text xml:space="preserve" x="448.033" y="84.4708" fill="black" font-size="13.1417" font-family="Helvetica">Std Dev   </text>
<text xml:space="preserve" x="513.01" y="83.6586" fill="black" font-size="13.1417" font-family="Helvetica">  298.1</text>
<path d="M57.1929,347.224h 453.543" fill="none" stroke="black"/>
<path d="M57.1929,337.964v 9.2593" fill="none" stroke="black"/>
<path d="M68.5315,342.594v 4.62965" fill="none" stroke="black"/>
<path d="M79.8701,342.594v 4.62965" fill="none" stroke="black"/>
<path d="M91.2087,342.594v 4.62965" fill="none" stroke="black"/>
<path d="M102.547,337.964v 9.2593" fill="none" stroke="black"/>
<path d="M113.886,342.594v 4.62965" fill="none" stroke="black"/>
<path d="M125.224,342.594v 4.62965" fill="none" stroke="black"/>
<path d="M136.563,342.594v 4.62965" fill="none" stroke="black"/>
<path d="M147.902,337.964v 9.2593" fill="none" stroke="black"/>
<path d="M159.24,342.594v 4.62965" fill="none" stroke="black"/>
<path d="M170.579,342.594v 4.62965" fill="none" stroke="black"/>
<path d="M181.917,342.594v 4.62965" fill="none" stroke="black"/>
<path d="M193.256,337.964v 9.2593" fill="none" stroke="black"/>
<path d="M204.594,342.594v 4.62965" fill="none" stroke="black"/>
<path d="M215.933,342.594v 4.62965" fill="none" stroke="black"/>
<path d="M227.272,342.594v 4.62965" fill="none" stroke="black"/>
<path d="M238.61,337.964v 9.2593" fill="none" stroke="black"/>
<path d="M249.949,342.594v 4.62965" fill="none" stroke="black"/>
<path d="M261.287,342.594v 4.62965" fill="none" stroke="black"/>
<path d="M272.626,342.594v 4.62965" fill="none" stroke="black"/>
<path d="M283.965,337.964v 9.2593" fill="none" stroke="black"/>
<path d="M295.303,342.594v 4.62965" fill="none" stroke="black"/>
<path d="M306.642,342.594v 4.62965" fill="none" stroke="black"/>
<path d="M317.98,342.594v 4.62965" fill="none" stroke="black"/>
<path d="M329.319,337.964v 9.2593" fill="none" stroke="black"/>
<path d="M340.657,342.594v 4.62965" fill="none" stroke="black"/>
<path d="M351.996,342.594v 4.62965" fill="none" stroke="black"/>
<path d="M363.335,342.594v 4.62965" fill="none" stroke="black"/>
<path d="M374.673,337.964v 9.2593" fill="none" stroke="black"/>
<path d="M386.012,342.594v 4.62965" fill="none" stroke="black"/>
<path d="M397.35,342.594v 4.62965" fill="none" stroke="black"/>
<path d="M408.689,342.594v 4.62965" fill="none" stroke="black"/>
<path d="M420.028,337.964v 9.2593" fill="none" stroke="black"/>
<path d="M431.366,342.594v 4.62965" fill="none" stroke="black"/>
<path d="M442.705,342.594v 4.62965" fill="none" stroke="black"/>
<path d="M454.043,342.594v 4.62965" fill="none" stroke="black"/>
<path d="M465.382,337.964v 9.2593" fill="none" stroke="black"/>
<path d="M476.72,342.594v 4.62965" fill="none" stroke="black"/>
<path d="M488.059,342.594v 4.62965" fill="none" stroke="black"/>
<path d="M499.398,342.594v 4.62965" fill="none" stroke="black"/>
<path d="M510.736,337.964v 9.2593" fill="none" stroke="black"/>
<text xml:space="preserve" x="52.482" y="359.813" fill="black" font-size="12.8882" font-family="Helvetica">0</text>
<text xml:space="preserve" x="90.6563" y="359.813" fill="black" font-size="12.8882" font-family="Helvetica">200</text>
<text xml:space="preserve" x="136.141" y="359.813" fill="black" font-size="12.8882" font-family="Helvetica">400</text>
<text xml:space="preserve" x="181.625" y="359.813" fill="black" font-size="12.8882" font-family="Helvetica">600</text>
<text xml:space="preserve" x="227.109" y="359.813" fill="black" font-size="12.8882" font-family="Helvetica">800</text>
<text xml:space="preserve" x="269.345" y="359.813" fill="black" font-size="12.8882" font-family="Helvetica">1000</text>
<text xml:space="preserve" x="314.017" y="359.813" fill="black" font-size="12.8882" font-family="Helvetica">1200</text>
<text xml:space="preserve" x="359.501" y="359.813" fill="black" font-size="12.8882" font-family="Helvetica">1400</text>
<text xml:space="preserve" x="404.985" y="359.813" fill="black" font-size="12.8882" font-family="Helvetica">1600</text>
<text xml:space="preserve" x="450.47" y="359.813" fill="black" font-size="12.8882" font-family="Helvetica">1800</text>
<text xml:space="preserve" x="495.954" y="359.813" fill="black" font-size="12.8882" font-family="Helvetica">2000</text>
<text xml:space="preserve" x="448.845" y="374.433" fill="black" font-size="12.8882" font-family="Helvetica">ADC value</text>
<path d="M57.1929,347.224v -308.643" fill="none" stroke="black"/>
<path d="M70.7992,347.224h -13.6063" fill="none" stroke="black"/>
<path d="M63.9961,338.038h -6.80315" fill="none" stroke="black"/>
<path d="M63.9961,328.852h -6.80315" fill="none" stroke="black"/>
<path d="M63.9961,319.666h -6.80315" fill="none" stroke="black"/>
<path d="M63.9961,310.481h -6.80315" fill="none" stroke="black"/>
<path d="M70.7992,301.295h -13.6063" fill="none" stroke="black"/>
<path d="M63.9961,292.109h -6.80315" fill="none" stroke="black"/>
<path d="M63.9961,282.923h -6.80315" fill="none" stroke="black"/>
<path d="M63.9961,273.737h -6.80315" fill="none" stroke="black"/>
<path d="M63.9961,264.551h -6.80315" fill="none" stroke="black"/>
<path d="M70.7992,255.366h -13.6063" fill="none" stroke="black"/>
<path d="M63.9961,246.18h -6.80315" fill="none" stroke="black"/>
<path d="M63.9961,236.994h -6.80315" fill="none" stroke="black"/>
<path d="M63.9961,227.808h -6.80315" fill="none" stroke="black"/>
<path d="M63.9961,218.622h -6.80315" fill="none" stroke="black"/>
<path d="M70.7992,209.437h -13.6063" fill="none" stroke="black"/>
<path d="M63.9961,200.251h -6.80315" fill="none" stroke="black"/>
<path d="M63.9961,191.065h -6.80315" fill="none" stroke="black"/>
<path d="M63.9961,181.879h -6.80315" fill="none" stroke="black"/>
<path d="M63.9961,172.693h -6.80315" fill="none" stroke="black"/>
<path d="M70.7992,163.508h -13.6063" fill="none" stroke="black"/>
<path d="M63.9961,154.322h -6.80315" fill="none" stroke="black"/>
<path d="M63.9961,145.136h -6.80315" fill="none" stroke="black"/>
<path d="M63.9961,135.95h -6.80315" fill="none" stroke="black"/>
<path d="M63.9961,126.764h -6.80315" fill="none" stroke="black"/>
<path d="M70.7992,117.578h -13.6063" fill="none" stroke="black"/>
<path d="M63.9961,108.393h -6.80315" fill="none" stroke="black"/>
<path d="M63.9961,99.2068h -6.80315" fill="none" stroke="black"/>
<path d="M63.9961,90.021h -6.80315" fill="none" stroke="black"/>
<path d="M63.9961,80.8352h -6.80315" fill="none" stroke="black"/>
<path d="M70.7992,71.6494h -13.6063" fill="none" stroke="black"/>
<path d="M70.7992,71.6494h -13.6063" fill="none" stroke="black"/>
<path d="M63.9961,62.4635h -6.80315" fill="none" stroke="black"/>
<path d="M63.9961,53.2777h -6.80315" fill="none" stroke="black"/>
<path d="M63.9961,44.0919h -6.80315" fill="none" stroke="black"/>
<text xml:space="preserve" x="46.7965" y="351.691" fill="black" font-size="12.8882" font-family="Helvetica">0</text>
<text xml:space="preserve" x="46.7965" y="305.395" fill="black" font-size="12.8882" font-family="Helvetica">5</text>
<text xml:space="preserve" x="39.4865" y="259.91" fill="black" font-size="12.8882" font-family="Helvetica">10</text>
<text xml:space="preserve" x="39.4865" y="213.614" fill="black" font-size="12.8882" font-family="Helvetica">15</text>
<text xml:space="preserve" x="39.4865" y="168.129" fill="black" font-size="12.8882" font-family="Helvetica">20</text>
<text xml:space="preserve" x="39.4865" y="121.833" fill="black" font-size="12.8882" font-family="Helvetica">25</text>
<text xml:space="preserve" x="39.4865" y="76.3486" fill="black" font-size="12.8882" font-family="Helvetica">30</text>
<g transform="rotate(-90,28.9277,77.9731)">
<text xml:space="preserve" x="28.9277" y="77.9731" fill="black" font-size="12.8882" font-family="Helvetica">Events</text>
</g>
<rect x="442.705" y="25.0773" width="113.386" height="61.7287" fill="white"/>
<path d="M442.705,86.8059h 113.386" fill="none" stroke="black"/>
<path d="M556.091,86.8059v -61.7287" fill="none" stroke="black"/>
<path d="M556.091,25.0773h -113.386" fill="none" stroke="black"/>
<path d="M442.705,25.0773v 61.7287" fill="none" stroke="black"/>
<text xml:space="preserve" x="452.094" y="36.5499" fill="black" font-size="13.5253" font-family="Helvetica">Na_CE_OSN(A)</text>
<path d="M442.705,40.5094h 113.386" fill="none" stroke="black"/>
<text xml:space="preserve" x="448.033" y="52.7943" fill="black" font-size="13.1417" font-family="Helvetica">Entries </text>
<text xml:space="preserve" x="510.574" y="52.7943" fill="black" font-size="13.1417" font-family="Helvetica"> 12000</text>
<text xml:space="preserve" x="448.033" y="68.2264" fill="black" font-size="13.1417" font-family="Helvetica">Mean  </text>
<text xml:space="preserve" x="510.574" y="68.2264" fill="black" font-size="13.1417" font-family="Helvetica">  475.7</text>
<text xml:space="preserve" x="448.033" y="84.4708" fill="black" font-size="13.1417" font-family="Helvetica">Std Dev   </text>
<text xml:space="preserve" x="513.01" y="83.6586" fill="black" font-size="13.1417" font-family="Helvetica">  298.1</text>
<text xml:space="preserve" x="218.987" y="18.681" fill="black" font-size="17.9813" font-family="Helvetica">Na_CE_OSN(A)</text></svg>
