<?xml version="1.0" standalone="no"?>
<svg width="567.429" height="384.969" viewBox="0 0 567.429 384.969" xmlns="http://www.w3.org/2000/svg" shape-rendering="crispEdges">
<title>
img/calibration/Na_PE_Nal(C).svg
</title>
<desc>
Creator: ROOT Version 6.22/09
CreationDate: Wed Jun  9 15:24:52 2021</desc>
<defs>
</defs>
<rect x="0.5" y="0" width="566.929" height="384.469" fill="white"/>
<rect x="57.1929" y="38.4469" width="453.543" height="307.575" fill="white"/>
<rect x="57.1929" y="38.4469" width="453.543" height="307.575" fill="none" stroke="black"/>
<rect x="57.1929" y="38.4469" width="453.543" height="307.575" fill="white"/>
<rect x="57.1929" y="38.4469" width="453.543" height="307.575" fill="none" stroke="black"/>
<path d="M57.1929,346.022h 1.81417v -2.73765h 0.226772v 2.73765h 21.5433v -2.73765h 0.226772v 2.73765h 12.2457v -2.73765h 0.226772v 2.73765h 13.6063v -2.73765h 0.226772v 2.73765h 0.680315v -2.73765h 0.226772v 2.73765h 1.13386v -2.73765h 0.226772v
 2.73765h 1.81417v -2.73765h 0.226772v 2.73765h 1.5874v -2.73765h 0.226772v 2.73765h 0.907087v -2.73765h 0.226772v 2.73765h 1.36063v -2.73765h 0.226772v 2.73765h 0.453543v -2.73765h 0.226772v -2.73765h 0.226772v -2.73765h 0.226772v 5.47531h 0.226772v
 -5.47531h 0.226772v 2.73765h 0.226772v 2.73765h 0.226772v 2.73765h 0.453543v -2.73765h 0.226772v 2.73765h 0.226772v -2.73765h 0.226772v -2.73765h 0.226772v -2.73765h 0.226772v 5.47531h 0.226772v 2.73765h 0.226772v -5.47531h 0.226772v 2.73765h
 0.226772v -5.47531h 0.226772v 5.47531h 0.453543v 2.73765h 0.226772v -5.47531h 0.453543v 2.73765h 0.226772v -2.73765h 0.226772v 5.47531h 0.226772v -8.21296h 0.226772v 5.47531h 0.226772v 2.73765h 0.226772v -2.73765h 0.226772v -2.73765h 0.226772v
 -2.73765h 0.226772v 5.47531h 0.226772v -2.73765h 0.226772v 2.73765h 0.226772v -8.21296h 0.226772v 8.21296h 0.226772v -2.73765h 0.226772v -2.73765h 0.226772v -10.9506h 0.226772v 16.4259h 0.226772v 2.73765h 0.226772v -8.21296h 0.453543v 5.47531h
 0.226772v -13.6883h 0.226772v 10.9506h 0.226772v -16.4259h 0.226772v -5.47531h 0.226772v 16.4259h 0.226772v -2.73765h 0.226772v 10.9506h 0.226772v -8.21296h 0.453543v -2.73765h 0.226772v 5.47531h 0.226772v -5.47531h 0.226772v 2.73765h 0.226772v
 -2.73765h 0.226772v 5.47531h 0.226772v -5.47531h 0.226772v -5.47531h 0.226772v 5.47531h 0.453543v -2.73765h 0.226772v -5.47531h 0.226772v 5.47531h 0.226772v 10.9506h 0.226772v -8.21296h 0.226772v 2.73765h 0.226772v -8.21296h 0.226772v 5.47531h
 0.453543v -2.73765h 0.226772v -8.21296h 0.226772v 2.73765h 0.226772v -2.73765h 0.226772v -2.73765h 0.226772v 8.21296h 0.453543v -2.73765h 0.226772v 2.73765h 0.226772v -16.4259h 0.226772v 21.9012h 0.226772v -16.4259h 0.226772v 8.21296h 0.226772v
 10.9506h 0.226772v -16.4259h 0.226772v 2.73765h 0.226772v 2.73765h 0.226772v 5.47531h 0.226772v -5.47531h 0.226772v -5.47531h 0.226772v 5.47531h 0.226772v -8.21296h 0.453543v -2.73765h 0.226772v -8.21296h 0.226772v 21.9012h 0.226772v 8.21296h
 0.226772v -13.6883h 0.453543v -13.6883h 0.453543v 8.21296h 0.226772v -10.9506h 0.226772v 21.9012h 0.226772v -2.73765h 0.226772v -8.21296h 0.226772v 5.47531h 0.226772v 5.47531h 0.226772v -19.1636h 0.226772v 8.21296h 0.226772v -8.21296h 0.226772v
 -2.73765h 0.226772v -2.73765h 0.226772v 16.4259h 0.226772v -8.21296h 0.226772v -5.47531h 0.226772v 19.1636h 0.226772v -8.21296h 0.226772v -19.1636h 0.226772v -2.73765h 0.226772v 8.21296h 0.226772v 16.4259h 0.226772v -10.9506h 0.453543v 2.73765h
 0.226772v -13.6883h 0.226772v 8.21296h 0.453543v -2.73765h 0.226772v 2.73765h 0.453543v -10.9506h 0.226772v 2.73765h 0.226772v 13.6883h 0.226772v 2.73765h 0.453543v -2.73765h 0.226772v -2.73765h 0.226772v -10.9506h 0.453543v 16.4259h 0.453543v
 -5.47531h 0.226772v -2.73765h 0.226772v 5.47531h 0.226772v 2.73765h 0.226772v -5.47531h 0.226772v 2.73765h 0.226772v -5.47531h 0.226772v -5.47531h 0.226772v 5.47531h 0.226772v 2.73765h 0.226772v 8.21296h 0.226772v -13.6883h 0.226772v 13.6883h
 0.453543v -8.21296h 0.226772v 2.73765h 0.226772v -8.21296h 0.226772v -10.9506h 0.226772v 5.47531h 0.226772v 16.4259h 0.226772v -8.21296h 0.226772v -5.47531h 0.226772v 10.9506h 0.226772v -8.21296h 0.226772v 13.6883h 0.226772v 2.73765h 0.226772v
 -10.9506h 0.226772v -24.6389h 0.226772v 19.1636h 0.226772v -8.21296h 0.453543v 24.6389h 0.226772v 2.73765h 0.226772v -16.4259h 0.226772v -8.21296h 0.226772v 2.73765h 0.226772v -5.47531h 0.226772v 21.9012h 0.226772v -21.9012h 0.226772v 13.6883h
 0.226772v 13.6883h 0.226772v -21.9012h 0.226772v -2.73765h 0.226772v 13.6883h 0.226772v -2.73765h 0.226772v 16.4259h 0.226772v -16.4259h 0.226772v 2.73765h 0.226772v -19.1636h 0.226772v 19.1636h 0.453543v -5.47531h 0.226772v 19.1636h 0.226772v
 -16.4259h 0.226772v -8.21296h 0.226772v 10.9506h 0.226772v -5.47531h 0.453543v -2.73765h 0.226772v 19.1636h 0.226772v -30.1142h 0.226772v 27.3765h 0.226772v -13.6883h 0.226772v 2.73765h 0.226772v 2.73765h 0.226772v -19.1636h 0.226772v 19.1636h
 0.226772v 10.9506h 0.226772v -24.6389h 0.226772v 10.9506h 0.226772v 13.6883h 0.226772v -21.9012h 0.226772v 2.73765h 0.226772v -10.9506h 0.226772v 19.1636h 0.226772v -16.4259h 0.226772v 5.47531h 0.226772v 2.73765h 0.453543v -16.4259h 0.226772v
 13.6883h 0.226772v 2.73765h 0.226772v -5.47531h 0.226772v 5.47531h 0.226772v 2.73765h 0.226772v -19.1636h 0.226772v -2.73765h 0.226772v -19.1636h 0.226772v 30.1142h 0.226772v 2.73765h 0.226772v -2.73765h 0.226772v 19.1636h 0.226772v -24.6389h
 0.226772v 5.47531h 0.226772v -5.47531h 0.226772v 2.73765h 0.226772v 8.21296h 0.226772v 8.21296h 0.226772v -8.21296h 0.226772v -10.9506h 0.226772v 8.21296h 0.453543v 8.21296h 0.226772v -16.4259h 0.226772v -21.9012h 0.226772v 13.6883h 0.226772v
 10.9506h 0.226772v 5.47531h 0.226772v -5.47531h 0.226772v -19.1636h 0.226772v 27.3765h 0.226772v -13.6883h 0.226772v -16.4259h 0.226772v 46.5401h 0.226772v -24.6389h 0.226772v 10.9506h 0.226772v -8.21296h 0.226772v 2.73765h 0.226772v -16.4259h
 0.226772v 16.4259h 0.226772v 8.21296h 0.226772v -8.21296h 0.226772v -16.4259h 0.226772v 10.9506h 0.226772v 13.6883h 0.226772v -27.3765h 0.226772v 2.73765h 0.226772v 30.1142h 0.226772v -43.8025h 0.226772v 27.3765h 0.226772v -13.6883h 0.226772v
 -16.4259h 0.226772v 21.9012h 0.226772v -13.6883h 0.226772v 2.73765h 0.226772v 24.6389h 0.226772v -8.21296h 0.226772v -27.3765h 0.226772v 10.9506h 0.226772v -8.21296h 0.226772v -16.4259h 0.226772v 43.8025h 0.226772v -19.1636h 0.226772v -5.47531h
 0.226772v -21.9012h 0.226772v 5.47531h 0.226772v 5.47531h 0.226772v -2.73765h 0.226772v 19.1636h 0.226772v -57.4907h 0.226772v 21.9012h 0.226772v 13.6883h 0.226772v -19.1636h 0.226772v 35.5895h 0.226772v -60.2284h 0.226772v 54.7531h 0.226772v
 -41.0648h 0.226772v 32.8518h 0.226772v -27.3765h 0.226772v -13.6883h 0.226772v 10.9506h 0.226772v 13.6883h 0.226772v -27.3765h 0.226772v 30.1142h 0.226772v -21.9012h 0.226772v 13.6883h 0.226772v -54.7531h 0.226772v -10.9506h 0.226772v 54.7531h
 0.226772v -60.2284h 0.226772v 38.3271h 0.226772v -43.8025h 0.226772v 19.1636h 0.226772v -35.5895h 0.226772v 24.6389h 0.226772v 10.9506h 0.226772v -41.0648h 0.453543v -24.6389h 0.226772v 13.6883h 0.226772v 2.73765h 0.226772v -10.9506h 0.226772v
 -60.2284h 0.226772v 38.3271h 0.226772v 62.966h 0.226772v -71.179h 0.226772v -5.47531h 0.226772v 41.0648h 0.226772v -49.2778h 0.226772v 27.3765h 0.226772v 10.9506h 0.226772v -30.1142h 0.226772v 5.47531h 0.226772v 38.3271h 0.226772v 2.73765h 0.226772v
 2.73765h 0.226772v -10.9506h 0.226772v -19.1636h 0.226772v -5.47531h 0.226772v -35.5895h 0.226772v 27.3765h 0.226772v -2.73765h 0.226772v -21.9012h 0.226772v 5.47531h 0.226772v 30.1142h 0.226772v 2.73765h 0.226772v 5.47531h 0.226772v -13.6883h
 0.226772v -16.4259h 0.226772v 46.5401h 0.226772v -35.5895h 0.226772v 10.9506h 0.226772v -43.8025h 0.226772v 71.179h 0.226772v -2.73765h 0.226772v 10.9506h 0.226772v -8.21296h 0.226772v 19.1636h 0.226772v 5.47531h 0.226772v 10.9506h 0.226772v
 24.6389h 0.226772v -38.3271h 0.226772v 35.5895h 0.226772v -49.2778h 0.226772v 41.0648h 0.226772v 5.47531h 0.226772v -35.5895h 0.226772v 24.6389h 0.226772v 52.0154h 0.226772v -16.4259h 0.226772v 24.6389h 0.226772v -19.1636h 0.226772v 27.3765h
 0.226772v -38.3271h 0.226772v 57.4907h 0.226772v 5.47531h 0.226772v -19.1636h 0.226772v 19.1636h 0.226772v 8.21296h 0.453543v -19.1636h 0.226772v -2.73765h 0.226772v 38.3271h 0.226772v -5.47531h 0.226772v -30.1142h 0.226772v 46.5401h 0.226772v
 -13.6883h 0.226772v 24.6389h 0.226772v -2.73765h 0.226772v -16.4259h 0.226772v 16.4259h 0.226772v 13.6883h 0.226772v -8.21296h 0.226772v -10.9506h 0.226772v 16.4259h 0.226772v -13.6883h 0.226772v 10.9506h 0.226772v 2.73765h 0.226772v 2.73765h
 0.453543v 16.4259h 0.226772v -5.47531h 0.226772v -2.73765h 0.453543v 8.21296h 0.226772v -19.1636h 0.226772v 2.73765h 0.226772v 5.47531h 0.226772v 13.6883h 0.226772v -2.73765h 0.226772v -8.21296h 0.226772v 2.73765h 0.226772v 5.47531h 0.226772v
 2.73765h 0.226772v 2.73765h 0.226772v 2.73765h 0.226772v -2.73765h 0.453543v 5.47531h 0.226772v -2.73765h 0.226772v -2.73765h 0.226772v -5.47531h 0.226772v 5.47531h 0.226772v 2.73765h 0.453543v -5.47531h 0.226772v 2.73765h 0.226772v 2.73765h
 0.226772v -2.73765h 0.453543v -2.73765h 0.226772v -2.73765h 0.226772v 2.73765h 0.226772v 8.21296h 0.226772v -13.6883h 0.226772v 13.6883h 0.226772v -2.73765h 0.226772v 2.73765h 0.453543v -16.4259h 0.226772v 16.4259h 0.226772v -2.73765h 0.226772v
 2.73765h 0.680315v -2.73765h 0.226772v 2.73765h 0.226772v -5.47531h 0.226772v 5.47531h 0.226772v -2.73765h 0.453543v 2.73765h 0.453543v -2.73765h 0.453543v -5.47531h 0.226772v 5.47531h 0.453543v -2.73765h 0.226772v 5.47531h 0.680315v -2.73765h
 0.226772v 2.73765h 0.226772v -2.73765h 0.226772v -2.73765h 0.453543v 2.73765h 0.226772v 2.73765h 0.453543v -5.47531h 0.226772v -2.73765h 0.226772v 8.21296h 0.680315v -8.21296h 0.226772v 8.21296h 0.680315v -2.73765h 0.226772v -5.47531h 0.226772v
 5.47531h 0.226772v -2.73765h 0.226772v 5.47531h 0.226772v -2.73765h 0.226772v 2.73765h 0.226772v -2.73765h 0.226772v 2.73765h 0.226772v -2.73765h 0.226772v -5.47531h 0.226772v 5.47531h 1.13386v 2.73765h 0.226772v -2.73765h 0.453543v -2.73765h
 0.226772v 2.73765h 0.226772v 2.73765h 0.226772v -2.73765h 0.226772v 2.73765h 0.907087v -2.73765h 0.226772v -2.73765h 0.453543v 2.73765h 0.226772v 2.73765h 0.226772v -2.73765h 0.226772v -5.47531h 0.226772v 5.47531h 0.226772v 2.73765h 0.680315v
 -2.73765h 0.226772v 2.73765h 0.226772v -5.47531h 0.680315v 2.73765h 0.226772v -5.47531h 0.226772v 8.21296h 0.453543v -2.73765h 0.226772v -2.73765h 0.226772v 5.47531h 0.226772v -2.73765h 0.453543v 2.73765h 0.680315v -5.47531h 0.226772v 2.73765h
 0.453543v -2.73765h 0.907087v 2.73765h 0.226772v 2.73765h 0.226772v -5.47531h 0.226772v 2.73765h 0.453543v -8.21296h 0.226772v 10.9506h 0.226772v -5.47531h 0.226772v 2.73765h 0.226772v 2.73765h 0.226772v -2.73765h 0.226772v -2.73765h 0.226772v
 5.47531h 0.226772v -5.47531h 0.226772v 5.47531h 0.226772v -8.21296h 0.226772v 5.47531h 0.453543v 2.73765h 0.226772v -8.21296h 0.226772v 2.73765h 0.226772v 2.73765h 0.907087v -5.47531h 0.226772v 8.21296h 0.453543v -2.73765h 0.453543v 2.73765h
 0.226772v -2.73765h 0.680315v 2.73765h 0.226772v -2.73765h 0.226772v 2.73765h 0.226772v -2.73765h 0.226772v 2.73765h 0.453543v -8.21296h 0.226772v 5.47531h 0.453543v -5.47531h 0.226772v 5.47531h 0.453543v 2.73765h 0.226772v -2.73765h 0.226772v
 2.73765h 0.226772v -2.73765h 0.226772v -5.47531h 0.226772v 5.47531h 0.226772v -10.9506h 0.226772v 13.6883h 0.453543v -8.21296h 0.226772v 2.73765h 0.226772v 2.73765h 0.680315v 2.73765h 1.13386v -2.73765h 0.226772v -2.73765h 0.453543v 5.47531h
 0.226772v -2.73765h 0.453543v 2.73765h 0.226772v -2.73765h 0.226772v 2.73765h 0.226772v -2.73765h 0.453543v -2.73765h 0.226772v 2.73765h 0.226772v 2.73765h 0.226772v -8.21296h 0.226772v 5.47531h 0.453543v -8.21296h 0.226772v 8.21296h 0.226772v
 2.73765h 0.226772v -2.73765h 0.226772v -5.47531h 0.226772v 5.47531h 0.453543v 2.73765h 0.453543v -5.47531h 0.226772v 2.73765h 0.226772v 2.73765h 0.226772v -2.73765h 0.453543v 2.73765h 0.680315v -8.21296h 0.226772v 8.21296h 0.226772v -2.73765h
 0.226772v -5.47531h 0.226772v 8.21296h 0.680315v -2.73765h 0.680315v -2.73765h 0.226772v 5.47531h 0.226772v -5.47531h 0.226772v 2.73765h 0.453543v 2.73765h 0.226772v -2.73765h 0.907087v 2.73765h 0.226772v -5.47531h 0.226772v 2.73765h 0.680315v
 2.73765h 0.226772v -2.73765h 0.226772v 2.73765h 0.226772v -5.47531h 0.226772v 5.47531h 0.226772v -2.73765h 0.226772v 2.73765h 0.680315v -8.21296h 0.226772v 5.47531h 0.226772v 2.73765h 0.226772v -2.73765h 0.680315v 2.73765h 0.226772v -8.21296h
 0.226772v 8.21296h 0.226772v -2.73765h 0.226772v -2.73765h 0.226772v 2.73765h 0.226772v -2.73765h 0.226772v 2.73765h 0.226772v 2.73765h 0.680315v -8.21296h 0.226772v 5.47531h 0.907087v -2.73765h 0.226772v 2.73765h 0.453543v 2.73765h 0.453543v
 -2.73765h 0.226772v 2.73765h 0.453543v -8.21296h 0.226772v 5.47531h 0.226772v 2.73765h 0.453543v -2.73765h 0.226772v -2.73765h 0.226772v 5.47531h 0.226772v -5.47531h 0.226772v 5.47531h 0.907087v -2.73765h 0.226772v 2.73765h 1.36063v -2.73765h
 0.907087v -5.47531h 0.226772v 5.47531h 0.453543v -2.73765h 0.226772v -2.73765h 0.226772v 5.47531h 0.226772v 2.73765h 0.226772v -5.47531h 0.680315v 2.73765h 0.226772v -2.73765h 0.226772v 2.73765h 0.226772v -2.73765h 0.226772v 2.73765h 0.226772v
 -2.73765h 0.226772v 5.47531h 0.226772v -2.73765h 0.226772v 2.73765h 0.453543v -2.73765h 0.226772v 2.73765h 0.226772v -8.21296h 0.226772v 5.47531h 0.453543v 2.73765h 0.226772v -5.47531h 0.226772v 5.47531h 1.13386v -2.73765h 0.226772v 2.73765h
 0.226772v -2.73765h 0.226772v 2.73765h 0.226772v -5.47531h 0.226772v 2.73765h 0.453543v -2.73765h 0.226772v 5.47531h 0.680315v -2.73765h 0.453543v 2.73765h 0.226772v -2.73765h 0.453543v -5.47531h 0.226772v 8.21296h 0.226772v -5.47531h 0.226772v
 2.73765h 0.226772v -2.73765h 0.226772v 5.47531h 0.680315v -2.73765h 0.226772v 2.73765h 0.226772v -2.73765h 0.226772v -5.47531h 0.226772v 8.21296h 0.226772v -2.73765h 0.453543v -2.73765h 0.226772v 5.47531h 0.226772v -2.73765h 0.680315v -5.47531h
 0.226772v 8.21296h 0.226772v -2.73765h 0.453543v 2.73765h 0.226772v -5.47531h 0.226772v 2.73765h 0.226772v -2.73765h 0.226772v 2.73765h 0.680315v -2.73765h 0.453543v 2.73765h 0.226772v -2.73765h 0.226772v 2.73765h 0.226772v 2.73765h 1.13386v
 -2.73765h 0.453543v 2.73765h 0.453543v -2.73765h 0.226772v 2.73765h 0.226772v -2.73765h 0.226772v 2.73765h 0.226772v -2.73765h 0.226772v 2.73765h 0.453543v -2.73765h 0.226772v 2.73765h 0.680315v -5.47531h 0.226772v 5.47531h 0.226772v -5.47531h
 0.226772v 5.47531h 0.226772v -5.47531h 0.226772v 2.73765h 0.680315v -8.21296h 0.226772v 10.9506h 0.226772v -2.73765h 0.226772v 2.73765h 0.453543v -8.21296h 0.226772v 5.47531h 0.226772v -2.73765h 0.453543v 5.47531h 0.226772v -2.73765h 0.680315v
 2.73765h 0.226772v -5.47531h 0.226772v 2.73765h 0.226772v -2.73765h 0.453543v 2.73765h 0.680315v 2.73765h 0.226772v -2.73765h 0.453543v -2.73765h 0.453543v 2.73765h 0.226772v 2.73765h 0.226772v -5.47531h 0.226772v 2.73765h 0.226772v 2.73765h
 0.226772v -2.73765h 0.226772v 2.73765h 0.226772v -2.73765h 0.453543v 2.73765h 0.453543v -2.73765h 0.226772v -2.73765h 0.226772v 2.73765h 0.226772v -5.47531h 0.226772v 5.47531h 1.5874v -2.73765h 0.226772v 2.73765h 0.226772v -2.73765h 0.226772v
 5.47531h 0.453543v -5.47531h 0.226772v 5.47531h 0.226772v -2.73765h 0.453543v 2.73765h 0.226772v -2.73765h 0.226772v -2.73765h 0.226772v -2.73765h 0.226772v 5.47531h 0.453543v 2.73765h 0.226772v -2.73765h 0.226772v -5.47531h 0.226772v 8.21296h
 0.226772v -5.47531h 0.453543v 5.47531h 0.680315v -2.73765h 0.226772v -2.73765h 0.226772v 5.47531h 0.226772v -5.47531h 0.453543v -2.73765h 0.226772v 8.21296h 0.226772v -5.47531h 0.226772v 5.47531h 0.226772v -2.73765h 0.226772v 2.73765h 0.226772v
 -5.47531h 0.226772v 5.47531h 0.453543v -5.47531h 0.453543v 2.73765h 0.226772v 2.73765h 0.226772v -2.73765h 0.453543v 2.73765h 0.453543v -2.73765h 0.453543v 2.73765h 0.453543v -5.47531h 0.453543v 5.47531h 0.226772v -2.73765h 0.226772v 2.73765h
 0.226772v -8.21296h 0.226772v 8.21296h 0.226772v -2.73765h 0.226772v 2.73765h 0.226772v -2.73765h 0.453543v -5.47531h 0.226772v 5.47531h 0.453543v 2.73765h 0.453543v -2.73765h 0.226772v -2.73765h 0.226772v 2.73765h 0.226772v -2.73765h 0.226772v
 2.73765h 0.453543v -5.47531h 0.226772v 8.21296h 0.226772v -2.73765h 0.226772v 2.73765h 0.226772v -5.47531h 0.226772v -10.9506h 0.226772v 16.4259h 0.226772v -5.47531h 0.226772v 5.47531h 0.453543v -5.47531h 0.226772v 5.47531h 0.226772v -2.73765h
 0.226772v 2.73765h 0.226772v -8.21296h 0.226772v 5.47531h 0.680315v 2.73765h 0.226772v -8.21296h 0.226772v 8.21296h 0.226772v -2.73765h 0.226772v 2.73765h 0.226772v -2.73765h 0.453543v 2.73765h 0.226772v -2.73765h 0.226772v -2.73765h 0.226772v
 2.73765h 0.226772v 2.73765h 1.36063v -2.73765h 0.680315v 2.73765h 1.36063v -2.73765h 0.453543v 2.73765h 0.226772v -2.73765h 0.453543v 2.73765h 0.226772v -5.47531h 0.226772v 5.47531h 0.680315v -2.73765h 0.453543v 2.73765h 0.226772v -5.47531h
 0.226772v 2.73765h 0.226772v 2.73765h 0.226772v -2.73765h 0.453543v -2.73765h 0.226772v 5.47531h 0.453543v -2.73765h 0.226772v 2.73765h 0.680315v -2.73765h 0.453543v 2.73765h 0.453543v -2.73765h 0.226772v 2.73765h 0.680315v -2.73765h 0.680315v
 2.73765h 0.226772v -2.73765h 0.226772v 2.73765h 1.13386v -2.73765h 0.226772v 2.73765h 0.680315v -2.73765h 0.226772v 2.73765h 1.81417v -2.73765h 0.226772v 2.73765h 0.226772v -2.73765h 0.226772v 2.73765h 0.907087v -2.73765h 0.453543v 2.73765h 3.1748v
 -2.73765h 0.226772v 2.73765h 1.36063v -2.73765h 0.226772v 2.73765h 1.36063v -2.73765h 0.226772v 2.73765h 1.5874v -2.73765h 0.226772v 2.73765h 1.36063v -2.73765h 0.226772v -2.73765h 0.226772v 2.73765h 0.226772v 2.73765h 0.226772v -2.73765h 0.226772v
 2.73765h 0.453543v -2.73765h 0.226772v 2.73765h 0.226772v -2.73765h 0.226772v 2.73765h 1.13386v -2.73765h 0.226772v 2.73765h 0.453543v -2.73765h 0.226772v -2.73765h 0.226772v 5.47531h 0.453543v -2.73765h 0.226772v 2.73765h 0.226772v -2.73765h
 0.453543v 2.73765h 0.226772v -2.73765h 0.453543v 2.73765h 0.226772v -5.47531h 0.453543v 5.47531h 0.453543v -5.47531h 0.226772v 2.73765h 0.226772v 2.73765h 0.226772v -8.21296h 0.226772v 8.21296h 1.13386v -2.73765h 0.226772v -2.73765h 0.226772v
 2.73765h 0.226772v -5.47531h 0.226772v 5.47531h 0.226772v 2.73765h 0.226772v -8.21296h 0.226772v 5.47531h 0.680315v 2.73765h 0.226772v -5.47531h 0.453543v -2.73765h 0.226772v 8.21296h 0.226772v -5.47531h 0.226772v 2.73765h 0.226772v -2.73765h
 0.226772v 2.73765h 0.680315v -5.47531h 0.226772v 5.47531h 0.226772v -5.47531h 0.226772v 8.21296h 0.226772v -2.73765h 0.680315v -2.73765h 0.226772v 2.73765h 0.226772v -5.47531h 0.226772v 2.73765h 0.680315v -8.21296h 0.226772v 8.21296h 0.226772v
 -5.47531h 0.226772v 5.47531h 0.226772v 2.73765h 0.226772v 2.73765h 0.226772v -5.47531h 0.226772v -8.21296h 0.226772v 10.9506h 0.226772v -5.47531h 0.453543v 8.21296h 0.226772v -16.4259h 0.226772v 10.9506h 0.226772v -2.73765h 0.226772v 2.73765h
 0.226772v 5.47531h 0.226772v -8.21296h 0.226772v 5.47531h 0.226772v -2.73765h 0.226772v 2.73765h 0.226772v 2.73765h 0.226772v -5.47531h 0.226772v -2.73765h 0.226772v -2.73765h 0.226772v 5.47531h 0.226772v 2.73765h 0.226772v -10.9506h 0.226772v
 5.47531h 0.226772v 2.73765h 0.226772v 2.73765h 0.226772v -2.73765h 0.226772v 2.73765h 0.226772v -13.6883h 0.226772v 13.6883h 0.226772v 2.73765h 0.226772v -2.73765h 0.226772v -5.47531h 0.226772v 8.21296h 0.226772v -8.21296h 0.226772v 8.21296h
 0.226772v -2.73765h 0.226772v -2.73765h 0.453543v -13.6883h 0.226772v 19.1636h 0.226772v -5.47531h 0.226772v -2.73765h 0.226772v -2.73765h 0.226772v 5.47531h 0.226772v 5.47531h 0.226772v -2.73765h 0.453543v -2.73765h 0.226772v 2.73765h 0.226772v
 -8.21296h 0.226772v 10.9506h 0.453543v -2.73765h 0.226772v -2.73765h 0.226772v 2.73765h 0.453543v 2.73765h 0.226772v -8.21296h 0.226772v 8.21296h 0.226772v -5.47531h 0.453543v 2.73765h 0.226772v 2.73765h 0.226772v -2.73765h 0.226772v -2.73765h
 0.226772v 2.73765h 0.226772v -2.73765h 0.226772v 2.73765h 0.226772v -5.47531h 0.226772v 5.47531h 0.453543v 2.73765h 0.453543v -2.73765h 0.453543v -2.73765h 0.226772v 5.47531h 0.226772v -5.47531h 0.226772v 5.47531h 1.36063v -2.73765h 0.453543v
 2.73765h 0.453543v -2.73765h 0.226772v 2.73765h 0.226772v -5.47531h 0.226772v 5.47531h 0.226772v -2.73765h 0.226772v 2.73765h 0.680315v -8.21296h 0.226772v 5.47531h 0.226772v 2.73765h 0.453543v -2.73765h 1.13386v 2.73765h 0.226772v -2.73765h
 0.453543v 2.73765h 0.453543v -2.73765h 0.453543v 2.73765h 0.226772v -2.73765h 0.226772v 2.73765h 0.226772v -2.73765h 0.453543v 2.73765h 0.680315v -2.73765h 0.226772v 2.73765h 0.453543v -5.47531h 0.226772v 5.47531h 1.5874v -2.73765h 0.226772v
 2.73765h 1.13386v -2.73765h 0.226772v 2.73765h 0.907087v -2.73765h 0.226772v 2.73765h 2.94803v -2.73765h 0.226772v 2.73765h 0.226772v -2.73765h 0.226772v 2.73765h 1.36063v -2.73765h 0.226772v 2.73765h 0.453543v -2.73765h 0.226772v 2.73765h 1.5874v
 -2.73765h 0.453543v 2.73765h 0.453543v -2.73765h 0.226772v 2.73765h 4.53543v -2.73765h 0.226772v 2.73765h 0.453543v -2.73765h 0.226772v 2.73765h 2.94803v -2.73765h 0.453543v 2.73765h 1.36063v -2.73765h 0.226772v 2.73765h 5.21575v -2.73765h 0.226772v
 2.73765h 0.907087v -2.73765h 0.226772v 2.73765h 0.453543v -2.73765h 0.226772v 2.73765h 0.453543v -2.73765h 0.226772v 2.73765h 0.907087v -2.73765h 0.226772v 2.73765h 3.85512v -2.73765h 0.226772v 2.73765h 1.13386v -2.73765h 0.226772v 2.73765h 7.48346v
 -2.73765h 0.226772v 2.73765h 1.36063v -2.73765h 0.226772v 2.73765h 4.30866v -2.73765h 0.226772v 2.73765h 0.226772v -2.73765h 0.226772v 2.73765h 3.40157v -2.73765h 0.226772v 2.73765h 1.36063v -2.73765h 0.226772v 2.73765h 0.453543v -5.47531h 0.226772v
 5.47531h 1.81417v -2.73765h 0.226772v 2.73765h 0.453543v -2.73765h 0.226772v 2.73765h 3.62835v -2.73765h 0.226772v 2.73765h 1.5874v -2.73765h 0.453543v 2.73765h 0.680315v -2.73765h 0.226772v 2.73765h 1.5874v -2.73765h 0.453543v 2.73765h 0.907087v
 -2.73765h 0.226772v 2.73765h 1.5874v -2.73765h 0.226772v 2.73765h 3.85512v -2.73765h 0.226772v 2.73765h 2.04094v -2.73765h 0.226772v 2.73765h 0.680315v -2.73765h 0.226772v 2.73765h 1.13386v -2.73765h 0.226772v 2.73765h 0.680315v -2.73765h 0.226772v
 2.73765h 1.36063v -2.73765h 0.226772v 2.73765h 4.7622v -2.73765h 0.226772v 2.73765h 0.226772v -2.73765h 0.226772v 2.73765h 1.13386v -2.73765h 0.226772v 2.73765h 3.40157" fill="none" stroke="#000099"/>
<path d="M182.031,292.113l 0.226772, -3.15836l 0.226772, -3.27901l 0.226772, -3.3994l 0.226772, -3.51912l 0.226772, -3.63774l 0.226772, -3.75481l 0.226772, -3.86986l 0.226772, -3.98241l 0.226772, -4.09197l 0.226772, -4.19802l 0.226772, -4.30004l
 0.226772, -4.39752l 0.226772, -4.48991l 0.226772, -4.57668l 0.226772, -4.65729l 0.226772, -4.73123l 0.226772, -4.79796l 0.226772, -4.85696l 0.226772, -4.90774l 0.226772, -4.94981l 0.226772, -4.98271l 0.226772, -5.00598l 0.226772, -5.01921l 0.226772,
 -5.02201l 0.226772, -5.01402l 0.226772, -4.99491l 0.226772, -4.96441l 0.226772, -4.92226l 0.226772, -4.86826l 0.226772, -4.80227l 0.226772, -4.72416l 0.226772, -4.63388l 0.226772, -4.53142l 0.226772, -4.41683l 0.226772, -4.2902l 0.226772, -4.15168l
 0.226772, -4.00148l 0.226772, -3.83986l 0.226772, -3.66713l 0.226772, -3.48367l 0.226772, -3.28988l 0.226772, -3.08624l 0.226772, -2.87327l 0.226772, -2.65154l 0.226772, -2.42165l 0.226772, -2.18426l 0.226772, -1.94007l 0.226772, -1.68978l 0.226772,
 -1.43418" fill="none" stroke="#ff0000" stroke-width="2"/>
<path d="M193.143,95.6504l 0.226772, -1.17403l 0.226772, -0.910157l 0.226772, -0.643384l 0.226772, -0.374558l 0.226772, -0.104535l 0.226772, 0.165823l 0.226772, 0.43565l 0.226772, 0.704085l 0.226772, 0.970274l 0.226772, 1.23338l 0.226772, 1.49256l
 0.226772, 1.74703l 0.226772, 1.996l 0.226772, 2.23871l 0.226772, 2.47446l 0.226772, 2.70256l 0.226772, 2.92235l 0.226772, 3.13325l 0.226772, 3.3347l 0.226772, 3.52619l 0.226772, 3.70726l 0.226772, 3.8775l 0.226772, 4.03655l 0.226772, 4.18412l
 0.226772, 4.31996l 0.226772, 4.44387l 0.226772, 4.55572l 0.226772, 4.65542l 0.226772, 4.74294l 0.226772, 4.81829l 0.226772, 4.88155l 0.226772, 4.93285l 0.226772, 4.97234l 0.226772, 5.00023l 0.226772, 5.01679l 0.226772, 5.02231l 0.226772, 5.01711l
 0.226772, 5.00157l 0.226772, 4.97608l 0.226772, 4.94106l 0.226772, 4.89698l 0.226772, 4.84429l 0.226772, 4.78348l 0.226772, 4.71508l 0.226772, 4.63958l 0.226772, 4.55752l 0.226772, 4.46943l 0.226772, 4.37584l 0.226772, 4.27729" fill="none"
 stroke="#ff0000" stroke-width="2"/>
<path d="M204.254,256.184l 0.226772, 4.17431" fill="none" stroke="#ff0000" stroke-width="2"/>
<rect x="442.705" y="24.9905" width="113.386" height="61.5151" fill="white"/>
<path d="M442.705,86.5056h 113.386" fill="none" stroke="black"/>
<path d="M556.091,86.5056v -61.5151" fill="none" stroke="black"/>
<path d="M556.091,24.9905h -113.386" fill="none" stroke="black"/>
<path d="M442.705,24.9905v 61.5151" fill="none" stroke="black"/>
<text xml:space="preserve" x="455.835" y="36.6549" fill="black" font-size="13.4802" font-family="Helvetica">Na_PE_Nal(C)</text>
<path d="M442.705,40.3693h 113.386" fill="none" stroke="black"/>
<text xml:space="preserve" x="447.69" y="52.946" fill="black" font-size="12.7186" font-family="Helvetica">Entries </text>
<text xml:space="preserve" x="512.854" y="52.946" fill="black" font-size="12.7186" font-family="Helvetica"> 12000</text>
<text xml:space="preserve" x="447.69" y="67.6079" fill="black" font-size="12.7186" font-family="Helvetica">Mean  </text>
<text xml:space="preserve" x="515.298" y="67.6079" fill="black" font-size="12.7186" font-family="Helvetica">  602.1</text>
<text xml:space="preserve" x="447.69" y="83.0844" fill="black" font-size="12.7186" font-family="Helvetica">Std Dev   </text>
<text xml:space="preserve" x="516.112" y="83.0844" fill="black" font-size="12.7186" font-family="Helvetica">    206</text>
<path d="M57.1929,346.022h 453.543" fill="none" stroke="black"/>
<path d="M57.1929,336.795v 9.22726" fill="none" stroke="black"/>
<path d="M68.5315,341.409v 4.61363" fill="none" stroke="black"/>
<path d="M79.8701,341.409v 4.61363" fill="none" stroke="black"/>
<path d="M91.2087,341.409v 4.61363" fill="none" stroke="black"/>
<path d="M102.547,336.795v 9.22726" fill="none" stroke="black"/>
<path d="M113.886,341.409v 4.61363" fill="none" stroke="black"/>
<path d="M125.224,341.409v 4.61363" fill="none" stroke="black"/>
<path d="M136.563,341.409v 4.61363" fill="none" stroke="black"/>
<path d="M147.902,336.795v 9.22726" fill="none" stroke="black"/>
<path d="M159.24,341.409v 4.61363" fill="none" stroke="black"/>
<path d="M170.579,341.409v 4.61363" fill="none" stroke="black"/>
<path d="M181.917,341.409v 4.61363" fill="none" stroke="black"/>
<path d="M193.256,336.795v 9.22726" fill="none" stroke="black"/>
<path d="M204.594,341.409v 4.61363" fill="none" stroke="black"/>
<path d="M215.933,341.409v 4.61363" fill="none" stroke="black"/>
<path d="M227.272,341.409v 4.61363" fill="none" stroke="black"/>
<path d="M238.61,336.795v 9.22726" fill="none" stroke="black"/>
<path d="M249.949,341.409v 4.61363" fill="none" stroke="black"/>
<path d="M261.287,341.409v 4.61363" fill="none" stroke="black"/>
<path d="M272.626,341.409v 4.61363" fill="none" stroke="black"/>
<path d="M283.965,336.795v 9.22726" fill="none" stroke="black"/>
<path d="M295.303,341.409v 4.61363" fill="none" stroke="black"/>
<path d="M306.642,341.409v 4.61363" fill="none" stroke="black"/>
<path d="M317.98,341.409v 4.61363" fill="none" stroke="black"/>
<path d="M329.319,336.795v 9.22726" fill="none" stroke="black"/>
<path d="M340.657,341.409v 4.61363" fill="none" stroke="black"/>
<path d="M351.996,341.409v 4.61363" fill="none" stroke="black"/>
<path d="M363.335,341.409v 4.61363" fill="none" stroke="black"/>
<path d="M374.673,336.795v 9.22726" fill="none" stroke="black"/>
<path d="M386.012,341.409v 4.61363" fill="none" stroke="black"/>
<path d="M397.35,341.409v 4.61363" fill="none" stroke="black"/>
<path d="M408.689,341.409v 4.61363" fill="none" stroke="black"/>
<path d="M420.028,336.795v 9.22726" fill="none" stroke="black"/>
<path d="M431.366,341.409v 4.61363" fill="none" stroke="black"/>
<path d="M442.705,341.409v 4.61363" fill="none" stroke="black"/>
<path d="M454.043,341.409v 4.61363" fill="none" stroke="black"/>
<path d="M465.382,336.795v 9.22726" fill="none" stroke="black"/>
<path d="M476.72,341.409v 4.61363" fill="none" stroke="black"/>
<path d="M488.059,341.409v 4.61363" fill="none" stroke="black"/>
<path d="M499.398,341.409v 4.61363" fill="none" stroke="black"/>
<path d="M510.736,336.795v 9.22726" fill="none" stroke="black"/>
<text xml:space="preserve" x="53.446" y="358.403" fill="black" font-size="12.8453" font-family="Helvetica">0</text>
<text xml:space="preserve" x="91.73" y="358.403" fill="black" font-size="12.8453" font-family="Helvetica">200</text>
<text xml:space="preserve" x="136.53" y="358.403" fill="black" font-size="12.8453" font-family="Helvetica">400</text>
<text xml:space="preserve" x="182.145" y="358.403" fill="black" font-size="12.8453" font-family="Helvetica">600</text>
<text xml:space="preserve" x="227.76" y="358.403" fill="black" font-size="12.8453" font-family="Helvetica">800</text>
<text xml:space="preserve" x="270.117" y="358.403" fill="black" font-size="12.8453" font-family="Helvetica">1000</text>
<text xml:space="preserve" x="314.918" y="358.403" fill="black" font-size="12.8453" font-family="Helvetica">1200</text>
<text xml:space="preserve" x="360.533" y="358.403" fill="black" font-size="12.8453" font-family="Helvetica">1400</text>
<text xml:space="preserve" x="406.148" y="358.403" fill="black" font-size="12.8453" font-family="Helvetica">1600</text>
<text xml:space="preserve" x="450.948" y="358.403" fill="black" font-size="12.8453" font-family="Helvetica">1800</text>
<text xml:space="preserve" x="496.563" y="358.403" fill="black" font-size="12.8453" font-family="Helvetica">2000</text>
<text xml:space="preserve" x="451.763" y="372.251" fill="black" font-size="12.8453" font-family="Helvetica">ADC value</text>
<path d="M57.1929,346.022v -307.575" fill="none" stroke="black"/>
<path d="M70.7992,346.022h -13.6063" fill="none" stroke="black"/>
<path d="M63.9961,332.334h -6.80315" fill="none" stroke="black"/>
<path d="M63.9961,318.646h -6.80315" fill="none" stroke="black"/>
<path d="M63.9961,304.957h -6.80315" fill="none" stroke="black"/>
<path d="M70.7992,291.269h -13.6063" fill="none" stroke="black"/>
<path d="M63.9961,277.581h -6.80315" fill="none" stroke="black"/>
<path d="M63.9961,263.893h -6.80315" fill="none" stroke="black"/>
<path d="M63.9961,250.204h -6.80315" fill="none" stroke="black"/>
<path d="M70.7992,236.516h -13.6063" fill="none" stroke="black"/>
<path d="M63.9961,222.828h -6.80315" fill="none" stroke="black"/>
<path d="M63.9961,209.14h -6.80315" fill="none" stroke="black"/>
<path d="M63.9961,195.451h -6.80315" fill="none" stroke="black"/>
<path d="M70.7992,181.763h -13.6063" fill="none" stroke="black"/>
<path d="M63.9961,168.075h -6.80315" fill="none" stroke="black"/>
<path d="M63.9961,154.387h -6.80315" fill="none" stroke="black"/>
<path d="M63.9961,140.698h -6.80315" fill="none" stroke="black"/>
<path d="M70.7992,127.01h -13.6063" fill="none" stroke="black"/>
<path d="M63.9961,113.322h -6.80315" fill="none" stroke="black"/>
<path d="M63.9961,99.6335h -6.80315" fill="none" stroke="black"/>
<path d="M63.9961,85.9452h -6.80315" fill="none" stroke="black"/>
<path d="M70.7992,72.2569h -13.6063" fill="none" stroke="black"/>
<path d="M70.7992,72.2569h -13.6063" fill="none" stroke="black"/>
<path d="M63.9961,58.5687h -6.80315" fill="none" stroke="black"/>
<path d="M63.9961,44.8804h -6.80315" fill="none" stroke="black"/>
<text xml:space="preserve" x="47.7441" y="350.258" fill="black" font-size="12.8453" font-family="Helvetica">0</text>
<text xml:space="preserve" x="41.2277" y="295.683" fill="black" font-size="12.8453" font-family="Helvetica">20</text>
<text xml:space="preserve" x="41.2277" y="241.108" fill="black" font-size="12.8453" font-family="Helvetica">40</text>
<text xml:space="preserve" x="41.2277" y="186.533" fill="black" font-size="12.8453" font-family="Helvetica">60</text>
<text xml:space="preserve" x="41.2277" y="131.143" fill="black" font-size="12.8453" font-family="Helvetica">80</text>
<text xml:space="preserve" x="33.8967" y="76.568" fill="black" font-size="12.8453" font-family="Helvetica">100</text>
<g transform="rotate(-90,20.8638,75.7535)">
<text xml:space="preserve" x="20.8638" y="75.7535" fill="black" font-size="12.8453" font-family="Helvetica">Events</text>
</g>
<rect x="442.705" y="24.9905" width="113.386" height="61.5151" fill="white"/>
<path d="M442.705,86.5056h 113.386" fill="none" stroke="black"/>
<path d="M556.091,86.5056v -61.5151" fill="none" stroke="black"/>
<path d="M556.091,24.9905h -113.386" fill="none" stroke="black"/>
<path d="M442.705,24.9905v 61.5151" fill="none" stroke="black"/>
<text xml:space="preserve" x="455.835" y="36.6549" fill="black" font-size="13.4802" font-family="Helvetica">Na_PE_Nal(C)</text>
<path d="M442.705,40.3693h 113.386" fill="none" stroke="black"/>
<text xml:space="preserve" x="447.69" y="52.946" fill="black" font-size="12.7186" font-family="Helvetica">Entries </text>
<text xml:space="preserve" x="512.854" y="52.946" fill="black" font-size="12.7186" font-family="Helvetica"> 12000</text>
<text xml:space="preserve" x="447.69" y="67.6079" fill="black" font-size="12.7186" font-family="Helvetica">Mean  </text>
<text xml:space="preserve" x="515.298" y="67.6079" fill="black" font-size="12.7186" font-family="Helvetica">  602.1</text>
<text xml:space="preserve" x="447.69" y="83.0844" fill="black" font-size="12.7186" font-family="Helvetica">Std Dev   </text>
<text xml:space="preserve" x="516.112" y="83.0844" fill="black" font-size="12.7186" font-family="Helvetica">    206</text>
<text xml:space="preserve" x="225.317" y="18.7347" fill="black" font-size="18.0316" font-family="Helvetica">Na_PE_Nal(C)</text></svg>
