<?xml version="1.0" standalone="no"?>
<svg width="567.429" height="384.68" viewBox="0 0 567.429 384.68" xmlns="http://www.w3.org/2000/svg" shape-rendering="crispEdges">
<title>
img/calibration/Na_PE_Nal(C).svg
</title>
<desc>
Creator: ROOT Version 6.22/09
CreationDate: Wed Jun  9 14:28:45 2021</desc>
<defs>
</defs>
<rect x="0.5" y="0" width="566.929" height="384.18" fill="white"/>
<rect x="57.1929" y="38.418" width="453.543" height="307.344" fill="white"/>
<rect x="57.1929" y="38.418" width="453.543" height="307.344" fill="none" stroke="black"/>
<rect x="57.1929" y="38.418" width="453.543" height="307.344" fill="white"/>
<rect x="57.1929" y="38.418" width="453.543" height="307.344" fill="none" stroke="black"/>
<path d="M57.1929,345.762h 1.81417v -2.73559h 0.226772v 2.73559h 21.5433v -2.73559h 0.226772v 2.73559h 12.2457v -2.73559h 0.226772v 2.73559h 13.6063v -2.73559h 0.226772v 2.73559h 0.680315v -2.73559h 0.226772v 2.73559h 1.13386v -2.73559h 0.226772v
 2.73559h 1.81417v -2.73559h 0.226772v 2.73559h 1.5874v -2.73559h 0.226772v 2.73559h 0.907087v -2.73559h 0.226772v 2.73559h 1.36063v -2.73559h 0.226772v 2.73559h 0.453543v -2.73559h 0.226772v -2.73559h 0.226772v -2.73559h 0.226772v 5.47119h 0.226772v
 -5.47119h 0.226772v 2.73559h 0.226772v 2.73559h 0.226772v 2.73559h 0.453543v -2.73559h 0.226772v 2.73559h 0.226772v -2.73559h 0.226772v -2.73559h 0.226772v -2.73559h 0.226772v 5.47119h 0.226772v 2.73559h 0.226772v -5.47119h 0.226772v 2.73559h
 0.226772v -5.47119h 0.226772v 5.47119h 0.453543v 2.73559h 0.226772v -5.47119h 0.453543v 2.73559h 0.226772v -2.73559h 0.226772v 5.47119h 0.226772v -8.20678h 0.226772v 5.47119h 0.226772v 2.73559h 0.226772v -2.73559h 0.226772v -2.73559h 0.226772v
 -2.73559h 0.226772v 5.47119h 0.226772v -2.73559h 0.226772v 2.73559h 0.226772v -8.20678h 0.226772v 8.20678h 0.226772v -2.73559h 0.226772v -2.73559h 0.226772v -10.9424h 0.226772v 16.4136h 0.226772v 2.73559h 0.226772v -8.20678h 0.453543v 5.47119h
 0.226772v -13.678h 0.226772v 10.9424h 0.226772v -16.4136h 0.226772v -5.47119h 0.226772v 16.4136h 0.226772v -2.73559h 0.226772v 10.9424h 0.226772v -8.20678h 0.453543v -2.73559h 0.226772v 5.47119h 0.226772v -5.47119h 0.226772v 2.73559h 0.226772v
 -2.73559h 0.226772v 5.47119h 0.226772v -5.47119h 0.226772v -5.47119h 0.226772v 5.47119h 0.453543v -2.73559h 0.226772v -5.47119h 0.226772v 5.47119h 0.226772v 10.9424h 0.226772v -8.20678h 0.226772v 2.73559h 0.226772v -8.20678h 0.226772v 5.47119h
 0.453543v -2.73559h 0.226772v -8.20678h 0.226772v 2.73559h 0.226772v -2.73559h 0.226772v -2.73559h 0.226772v 8.20678h 0.453543v -2.73559h 0.226772v 2.73559h 0.226772v -16.4136h 0.226772v 21.8847h 0.226772v -16.4136h 0.226772v 8.20678h 0.226772v
 10.9424h 0.226772v -16.4136h 0.226772v 2.73559h 0.226772v 2.73559h 0.226772v 5.47119h 0.226772v -5.47119h 0.226772v -5.47119h 0.226772v 5.47119h 0.226772v -8.20678h 0.453543v -2.73559h 0.226772v -8.20678h 0.226772v 21.8847h 0.226772v 8.20678h
 0.226772v -13.678h 0.453543v -13.678h 0.453543v 8.20678h 0.226772v -10.9424h 0.226772v 21.8847h 0.226772v -2.73559h 0.226772v -8.20678h 0.226772v 5.47119h 0.226772v 5.47119h 0.226772v -19.1491h 0.226772v 8.20678h 0.226772v -8.20678h 0.226772v
 -2.73559h 0.226772v -2.73559h 0.226772v 16.4136h 0.226772v -8.20678h 0.226772v -5.47119h 0.226772v 19.1491h 0.226772v -8.20678h 0.226772v -19.1491h 0.226772v -2.73559h 0.226772v 8.20678h 0.226772v 16.4136h 0.226772v -10.9424h 0.453543v 2.73559h
 0.226772v -13.678h 0.226772v 8.20678h 0.453543v -2.73559h 0.226772v 2.73559h 0.453543v -10.9424h 0.226772v 2.73559h 0.226772v 13.678h 0.226772v 2.73559h 0.453543v -2.73559h 0.226772v -2.73559h 0.226772v -10.9424h 0.453543v 16.4136h 0.453543v
 -5.47119h 0.226772v -2.73559h 0.226772v 5.47119h 0.226772v 2.73559h 0.226772v -5.47119h 0.226772v 2.73559h 0.226772v -5.47119h 0.226772v -5.47119h 0.226772v 5.47119h 0.226772v 2.73559h 0.226772v 8.20678h 0.226772v -13.678h 0.226772v 13.678h
 0.453543v -8.20678h 0.226772v 2.73559h 0.226772v -8.20678h 0.226772v -10.9424h 0.226772v 5.47119h 0.226772v 16.4136h 0.226772v -8.20678h 0.226772v -5.47119h 0.226772v 10.9424h 0.226772v -8.20678h 0.226772v 13.678h 0.226772v 2.73559h 0.226772v
 -10.9424h 0.226772v -24.6203h 0.226772v 19.1491h 0.226772v -8.20678h 0.453543v 24.6203h 0.226772v 2.73559h 0.226772v -16.4136h 0.226772v -8.20678h 0.226772v 2.73559h 0.226772v -5.47119h 0.226772v 21.8847h 0.226772v -21.8847h 0.226772v 13.678h
 0.226772v 13.678h 0.226772v -21.8847h 0.226772v -2.73559h 0.226772v 13.678h 0.226772v -2.73559h 0.226772v 16.4136h 0.226772v -16.4136h 0.226772v 2.73559h 0.226772v -19.1491h 0.226772v 19.1491h 0.453543v -5.47119h 0.226772v 19.1491h 0.226772v
 -16.4136h 0.226772v -8.20678h 0.226772v 10.9424h 0.226772v -5.47119h 0.453543v -2.73559h 0.226772v 19.1491h 0.226772v -30.0915h 0.226772v 27.3559h 0.226772v -13.678h 0.226772v 2.73559h 0.226772v 2.73559h 0.226772v -19.1491h 0.226772v 19.1491h
 0.226772v 10.9424h 0.226772v -24.6203h 0.226772v 10.9424h 0.226772v 13.678h 0.226772v -21.8847h 0.226772v 2.73559h 0.226772v -10.9424h 0.226772v 19.1491h 0.226772v -16.4136h 0.226772v 5.47119h 0.226772v 2.73559h 0.453543v -16.4136h 0.226772v 13.678h
 0.226772v 2.73559h 0.226772v -5.47119h 0.226772v 5.47119h 0.226772v 2.73559h 0.226772v -19.1491h 0.226772v -2.73559h 0.226772v -19.1491h 0.226772v 30.0915h 0.226772v 2.73559h 0.226772v -2.73559h 0.226772v 19.1491h 0.226772v -24.6203h 0.226772v
 5.47119h 0.226772v -5.47119h 0.226772v 2.73559h 0.226772v 8.20678h 0.226772v 8.20678h 0.226772v -8.20678h 0.226772v -10.9424h 0.226772v 8.20678h 0.453543v 8.20678h 0.226772v -16.4136h 0.226772v -21.8847h 0.226772v 13.678h 0.226772v 10.9424h
 0.226772v 5.47119h 0.226772v -5.47119h 0.226772v -19.1491h 0.226772v 27.3559h 0.226772v -13.678h 0.226772v -16.4136h 0.226772v 46.5051h 0.226772v -24.6203h 0.226772v 10.9424h 0.226772v -8.20678h 0.226772v 2.73559h 0.226772v -16.4136h 0.226772v
 16.4136h 0.226772v 8.20678h 0.226772v -8.20678h 0.226772v -16.4136h 0.226772v 10.9424h 0.226772v 13.678h 0.226772v -27.3559h 0.226772v 2.73559h 0.226772v 30.0915h 0.226772v -43.7695h 0.226772v 27.3559h 0.226772v -13.678h 0.226772v -16.4136h
 0.226772v 21.8847h 0.226772v -13.678h 0.226772v 2.73559h 0.226772v 24.6203h 0.226772v -8.20678h 0.226772v -27.3559h 0.226772v 10.9424h 0.226772v -8.20678h 0.226772v -16.4136h 0.226772v 43.7695h 0.226772v -19.1491h 0.226772v -5.47119h 0.226772v
 -21.8847h 0.226772v 5.47119h 0.226772v 5.47119h 0.226772v -2.73559h 0.226772v 19.1491h 0.226772v -57.4474h 0.226772v 21.8847h 0.226772v 13.678h 0.226772v -19.1491h 0.226772v 35.5627h 0.226772v -60.183h 0.226772v 54.7118h 0.226772v -41.0339h
 0.226772v 32.8271h 0.226772v -27.3559h 0.226772v -13.678h 0.226772v 10.9424h 0.226772v 13.678h 0.226772v -27.3559h 0.226772v 30.0915h 0.226772v -21.8847h 0.226772v 13.678h 0.226772v -54.7118h 0.226772v -10.9424h 0.226772v 54.7118h 0.226772v -60.183h
 0.226772v 38.2983h 0.226772v -43.7695h 0.226772v 19.1491h 0.226772v -35.5627h 0.226772v 24.6203h 0.226772v 10.9424h 0.226772v -41.0339h 0.453543v -24.6203h 0.226772v 13.678h 0.226772v 2.73559h 0.226772v -10.9424h 0.226772v -60.183h 0.226772v
 38.2983h 0.226772v 62.9186h 0.226772v -71.1254h 0.226772v -5.47119h 0.226772v 41.0339h 0.226772v -49.2407h 0.226772v 27.3559h 0.226772v 10.9424h 0.226772v -30.0915h 0.226772v 5.47119h 0.226772v 38.2983h 0.226772v 2.73559h 0.226772v 2.73559h
 0.226772v -10.9424h 0.226772v -19.1491h 0.226772v -5.47119h 0.226772v -35.5627h 0.226772v 27.3559h 0.226772v -2.73559h 0.226772v -21.8847h 0.226772v 5.47119h 0.226772v 30.0915h 0.226772v 2.73559h 0.226772v 5.47119h 0.226772v -13.678h 0.226772v
 -16.4136h 0.226772v 46.5051h 0.226772v -35.5627h 0.226772v 10.9424h 0.226772v -43.7695h 0.226772v 71.1254h 0.226772v -2.73559h 0.226772v 10.9424h 0.226772v -8.20678h 0.226772v 19.1491h 0.226772v 5.47119h 0.226772v 10.9424h 0.226772v 24.6203h
 0.226772v -38.2983h 0.226772v 35.5627h 0.226772v -49.2407h 0.226772v 41.0339h 0.226772v 5.47119h 0.226772v -35.5627h 0.226772v 24.6203h 0.226772v 51.9763h 0.226772v -16.4136h 0.226772v 24.6203h 0.226772v -19.1491h 0.226772v 27.3559h 0.226772v
 -38.2983h 0.226772v 57.4474h 0.226772v 5.47119h 0.226772v -19.1491h 0.226772v 19.1491h 0.226772v 8.20678h 0.453543v -19.1491h 0.226772v -2.73559h 0.226772v 38.2983h 0.226772v -5.47119h 0.226772v -30.0915h 0.226772v 46.5051h 0.226772v -13.678h
 0.226772v 24.6203h 0.226772v -2.73559h 0.226772v -16.4136h 0.226772v 16.4136h 0.226772v 13.678h 0.226772v -8.20678h 0.226772v -10.9424h 0.226772v 16.4136h 0.226772v -13.678h 0.226772v 10.9424h 0.226772v 2.73559h 0.226772v 2.73559h 0.453543v 16.4136h
 0.226772v -5.47119h 0.226772v -2.73559h 0.453543v 8.20678h 0.226772v -19.1491h 0.226772v 2.73559h 0.226772v 5.47119h 0.226772v 13.678h 0.226772v -2.73559h 0.226772v -8.20678h 0.226772v 2.73559h 0.226772v 5.47119h 0.226772v 2.73559h 0.226772v
 2.73559h 0.226772v 2.73559h 0.226772v -2.73559h 0.453543v 5.47119h 0.226772v -2.73559h 0.226772v -2.73559h 0.226772v -5.47119h 0.226772v 5.47119h 0.226772v 2.73559h 0.453543v -5.47119h 0.226772v 2.73559h 0.226772v 2.73559h 0.226772v -2.73559h
 0.453543v -2.73559h 0.226772v -2.73559h 0.226772v 2.73559h 0.226772v 8.20678h 0.226772v -13.678h 0.226772v 13.678h 0.226772v -2.73559h 0.226772v 2.73559h 0.453543v -16.4136h 0.226772v 16.4136h 0.226772v -2.73559h 0.226772v 2.73559h 0.680315v
 -2.73559h 0.226772v 2.73559h 0.226772v -5.47119h 0.226772v 5.47119h 0.226772v -2.73559h 0.453543v 2.73559h 0.453543v -2.73559h 0.453543v -5.47119h 0.226772v 5.47119h 0.453543v -2.73559h 0.226772v 5.47119h 0.680315v -2.73559h 0.226772v 2.73559h
 0.226772v -2.73559h 0.226772v -2.73559h 0.453543v 2.73559h 0.226772v 2.73559h 0.453543v -5.47119h 0.226772v -2.73559h 0.226772v 8.20678h 0.680315v -8.20678h 0.226772v 8.20678h 0.680315v -2.73559h 0.226772v -5.47119h 0.226772v 5.47119h 0.226772v
 -2.73559h 0.226772v 5.47119h 0.226772v -2.73559h 0.226772v 2.73559h 0.226772v -2.73559h 0.226772v 2.73559h 0.226772v -2.73559h 0.226772v -5.47119h 0.226772v 5.47119h 1.13386v 2.73559h 0.226772v -2.73559h 0.453543v -2.73559h 0.226772v 2.73559h
 0.226772v 2.73559h 0.226772v -2.73559h 0.226772v 2.73559h 0.907087v -2.73559h 0.226772v -2.73559h 0.453543v 2.73559h 0.226772v 2.73559h 0.226772v -2.73559h 0.226772v -5.47119h 0.226772v 5.47119h 0.226772v 2.73559h 0.680315v -2.73559h 0.226772v
 2.73559h 0.226772v -5.47119h 0.680315v 2.73559h 0.226772v -5.47119h 0.226772v 8.20678h 0.453543v -2.73559h 0.226772v -2.73559h 0.226772v 5.47119h 0.226772v -2.73559h 0.453543v 2.73559h 0.680315v -5.47119h 0.226772v 2.73559h 0.453543v -2.73559h
 0.907087v 2.73559h 0.226772v 2.73559h 0.226772v -5.47119h 0.226772v 2.73559h 0.453543v -8.20678h 0.226772v 10.9424h 0.226772v -5.47119h 0.226772v 2.73559h 0.226772v 2.73559h 0.226772v -2.73559h 0.226772v -2.73559h 0.226772v 5.47119h 0.226772v
 -5.47119h 0.226772v 5.47119h 0.226772v -8.20678h 0.226772v 5.47119h 0.453543v 2.73559h 0.226772v -8.20678h 0.226772v 2.73559h 0.226772v 2.73559h 0.907087v -5.47119h 0.226772v 8.20678h 0.453543v -2.73559h 0.453543v 2.73559h 0.226772v -2.73559h
 0.680315v 2.73559h 0.226772v -2.73559h 0.226772v 2.73559h 0.226772v -2.73559h 0.226772v 2.73559h 0.453543v -8.20678h 0.226772v 5.47119h 0.453543v -5.47119h 0.226772v 5.47119h 0.453543v 2.73559h 0.226772v -2.73559h 0.226772v 2.73559h 0.226772v
 -2.73559h 0.226772v -5.47119h 0.226772v 5.47119h 0.226772v -10.9424h 0.226772v 13.678h 0.453543v -8.20678h 0.226772v 2.73559h 0.226772v 2.73559h 0.680315v 2.73559h 1.13386v -2.73559h 0.226772v -2.73559h 0.453543v 5.47119h 0.226772v -2.73559h
 0.453543v 2.73559h 0.226772v -2.73559h 0.226772v 2.73559h 0.226772v -2.73559h 0.453543v -2.73559h 0.226772v 2.73559h 0.226772v 2.73559h 0.226772v -8.20678h 0.226772v 5.47119h 0.453543v -8.20678h 0.226772v 8.20678h 0.226772v 2.73559h 0.226772v
 -2.73559h 0.226772v -5.47119h 0.226772v 5.47119h 0.453543v 2.73559h 0.453543v -5.47119h 0.226772v 2.73559h 0.226772v 2.73559h 0.226772v -2.73559h 0.453543v 2.73559h 0.680315v -8.20678h 0.226772v 8.20678h 0.226772v -2.73559h 0.226772v -5.47119h
 0.226772v 8.20678h 0.680315v -2.73559h 0.680315v -2.73559h 0.226772v 5.47119h 0.226772v -5.47119h 0.226772v 2.73559h 0.453543v 2.73559h 0.226772v -2.73559h 0.907087v 2.73559h 0.226772v -5.47119h 0.226772v 2.73559h 0.680315v 2.73559h 0.226772v
 -2.73559h 0.226772v 2.73559h 0.226772v -5.47119h 0.226772v 5.47119h 0.226772v -2.73559h 0.226772v 2.73559h 0.680315v -8.20678h 0.226772v 5.47119h 0.226772v 2.73559h 0.226772v -2.73559h 0.680315v 2.73559h 0.226772v -8.20678h 0.226772v 8.20678h
 0.226772v -2.73559h 0.226772v -2.73559h 0.226772v 2.73559h 0.226772v -2.73559h 0.226772v 2.73559h 0.226772v 2.73559h 0.680315v -8.20678h 0.226772v 5.47119h 0.907087v -2.73559h 0.226772v 2.73559h 0.453543v 2.73559h 0.453543v -2.73559h 0.226772v
 2.73559h 0.453543v -8.20678h 0.226772v 5.47119h 0.226772v 2.73559h 0.453543v -2.73559h 0.226772v -2.73559h 0.226772v 5.47119h 0.226772v -5.47119h 0.226772v 5.47119h 0.907087v -2.73559h 0.226772v 2.73559h 1.36063v -2.73559h 0.907087v -5.47119h
 0.226772v 5.47119h 0.453543v -2.73559h 0.226772v -2.73559h 0.226772v 5.47119h 0.226772v 2.73559h 0.226772v -5.47119h 0.680315v 2.73559h 0.226772v -2.73559h 0.226772v 2.73559h 0.226772v -2.73559h 0.226772v 2.73559h 0.226772v -2.73559h 0.226772v
 5.47119h 0.226772v -2.73559h 0.226772v 2.73559h 0.453543v -2.73559h 0.226772v 2.73559h 0.226772v -8.20678h 0.226772v 5.47119h 0.453543v 2.73559h 0.226772v -5.47119h 0.226772v 5.47119h 1.13386v -2.73559h 0.226772v 2.73559h 0.226772v -2.73559h
 0.226772v 2.73559h 0.226772v -5.47119h 0.226772v 2.73559h 0.453543v -2.73559h 0.226772v 5.47119h 0.680315v -2.73559h 0.453543v 2.73559h 0.226772v -2.73559h 0.453543v -5.47119h 0.226772v 8.20678h 0.226772v -5.47119h 0.226772v 2.73559h 0.226772v
 -2.73559h 0.226772v 5.47119h 0.680315v -2.73559h 0.226772v 2.73559h 0.226772v -2.73559h 0.226772v -5.47119h 0.226772v 8.20678h 0.226772v -2.73559h 0.453543v -2.73559h 0.226772v 5.47119h 0.226772v -2.73559h 0.680315v -5.47119h 0.226772v 8.20678h
 0.226772v -2.73559h 0.453543v 2.73559h 0.226772v -5.47119h 0.226772v 2.73559h 0.226772v -2.73559h 0.226772v 2.73559h 0.680315v -2.73559h 0.453543v 2.73559h 0.226772v -2.73559h 0.226772v 2.73559h 0.226772v 2.73559h 1.13386v -2.73559h 0.453543v
 2.73559h 0.453543v -2.73559h 0.226772v 2.73559h 0.226772v -2.73559h 0.226772v 2.73559h 0.226772v -2.73559h 0.226772v 2.73559h 0.453543v -2.73559h 0.226772v 2.73559h 0.680315v -5.47119h 0.226772v 5.47119h 0.226772v -5.47119h 0.226772v 5.47119h
 0.226772v -5.47119h 0.226772v 2.73559h 0.680315v -8.20678h 0.226772v 10.9424h 0.226772v -2.73559h 0.226772v 2.73559h 0.453543v -8.20678h 0.226772v 5.47119h 0.226772v -2.73559h 0.453543v 5.47119h 0.226772v -2.73559h 0.680315v 2.73559h 0.226772v
 -5.47119h 0.226772v 2.73559h 0.226772v -2.73559h 0.453543v 2.73559h 0.680315v 2.73559h 0.226772v -2.73559h 0.453543v -2.73559h 0.453543v 2.73559h 0.226772v 2.73559h 0.226772v -5.47119h 0.226772v 2.73559h 0.226772v 2.73559h 0.226772v -2.73559h
 0.226772v 2.73559h 0.226772v -2.73559h 0.453543v 2.73559h 0.453543v -2.73559h 0.226772v -2.73559h 0.226772v 2.73559h 0.226772v -5.47119h 0.226772v 5.47119h 1.5874v -2.73559h 0.226772v 2.73559h 0.226772v -2.73559h 0.226772v 5.47119h 0.453543v
 -5.47119h 0.226772v 5.47119h 0.226772v -2.73559h 0.453543v 2.73559h 0.226772v -2.73559h 0.226772v -2.73559h 0.226772v -2.73559h 0.226772v 5.47119h 0.453543v 2.73559h 0.226772v -2.73559h 0.226772v -5.47119h 0.226772v 8.20678h 0.226772v -5.47119h
 0.453543v 5.47119h 0.680315v -2.73559h 0.226772v -2.73559h 0.226772v 5.47119h 0.226772v -5.47119h 0.453543v -2.73559h 0.226772v 8.20678h 0.226772v -5.47119h 0.226772v 5.47119h 0.226772v -2.73559h 0.226772v 2.73559h 0.226772v -5.47119h 0.226772v
 5.47119h 0.453543v -5.47119h 0.453543v 2.73559h 0.226772v 2.73559h 0.226772v -2.73559h 0.453543v 2.73559h 0.453543v -2.73559h 0.453543v 2.73559h 0.453543v -5.47119h 0.453543v 5.47119h 0.226772v -2.73559h 0.226772v 2.73559h 0.226772v -8.20678h
 0.226772v 8.20678h 0.226772v -2.73559h 0.226772v 2.73559h 0.226772v -2.73559h 0.453543v -5.47119h 0.226772v 5.47119h 0.453543v 2.73559h 0.453543v -2.73559h 0.226772v -2.73559h 0.226772v 2.73559h 0.226772v -2.73559h 0.226772v 2.73559h 0.453543v
 -5.47119h 0.226772v 8.20678h 0.226772v -2.73559h 0.226772v 2.73559h 0.226772v -5.47119h 0.226772v -10.9424h 0.226772v 16.4136h 0.226772v -5.47119h 0.226772v 5.47119h 0.453543v -5.47119h 0.226772v 5.47119h 0.226772v -2.73559h 0.226772v 2.73559h
 0.226772v -8.20678h 0.226772v 5.47119h 0.680315v 2.73559h 0.226772v -8.20678h 0.226772v 8.20678h 0.226772v -2.73559h 0.226772v 2.73559h 0.226772v -2.73559h 0.453543v 2.73559h 0.226772v -2.73559h 0.226772v -2.73559h 0.226772v 2.73559h 0.226772v
 2.73559h 1.36063v -2.73559h 0.680315v 2.73559h 1.36063v -2.73559h 0.453543v 2.73559h 0.226772v -2.73559h 0.453543v 2.73559h 0.226772v -5.47119h 0.226772v 5.47119h 0.680315v -2.73559h 0.453543v 2.73559h 0.226772v -5.47119h 0.226772v 2.73559h
 0.226772v 2.73559h 0.226772v -2.73559h 0.453543v -2.73559h 0.226772v 5.47119h 0.453543v -2.73559h 0.226772v 2.73559h 0.680315v -2.73559h 0.453543v 2.73559h 0.453543v -2.73559h 0.226772v 2.73559h 0.680315v -2.73559h 0.680315v 2.73559h 0.226772v
 -2.73559h 0.226772v 2.73559h 1.13386v -2.73559h 0.226772v 2.73559h 0.680315v -2.73559h 0.226772v 2.73559h 1.81417v -2.73559h 0.226772v 2.73559h 0.226772v -2.73559h 0.226772v 2.73559h 0.907087v -2.73559h 0.453543v 2.73559h 3.1748v -2.73559h 0.226772v
 2.73559h 1.36063v -2.73559h 0.226772v 2.73559h 1.36063v -2.73559h 0.226772v 2.73559h 1.5874v -2.73559h 0.226772v 2.73559h 1.36063v -2.73559h 0.226772v -2.73559h 0.226772v 2.73559h 0.226772v 2.73559h 0.226772v -2.73559h 0.226772v 2.73559h 0.453543v
 -2.73559h 0.226772v 2.73559h 0.226772v -2.73559h 0.226772v 2.73559h 1.13386v -2.73559h 0.226772v 2.73559h 0.453543v -2.73559h 0.226772v -2.73559h 0.226772v 5.47119h 0.453543v -2.73559h 0.226772v 2.73559h 0.226772v -2.73559h 0.453543v 2.73559h
 0.226772v -2.73559h 0.453543v 2.73559h 0.226772v -5.47119h 0.453543v 5.47119h 0.453543v -5.47119h 0.226772v 2.73559h 0.226772v 2.73559h 0.226772v -8.20678h 0.226772v 8.20678h 1.13386v -2.73559h 0.226772v -2.73559h 0.226772v 2.73559h 0.226772v
 -5.47119h 0.226772v 5.47119h 0.226772v 2.73559h 0.226772v -8.20678h 0.226772v 5.47119h 0.680315v 2.73559h 0.226772v -5.47119h 0.453543v -2.73559h 0.226772v 8.20678h 0.226772v -5.47119h 0.226772v 2.73559h 0.226772v -2.73559h 0.226772v 2.73559h
 0.680315v -5.47119h 0.226772v 5.47119h 0.226772v -5.47119h 0.226772v 8.20678h 0.226772v -2.73559h 0.680315v -2.73559h 0.226772v 2.73559h 0.226772v -5.47119h 0.226772v 2.73559h 0.680315v -8.20678h 0.226772v 8.20678h 0.226772v -5.47119h 0.226772v
 5.47119h 0.226772v 2.73559h 0.226772v 2.73559h 0.226772v -5.47119h 0.226772v -8.20678h 0.226772v 10.9424h 0.226772v -5.47119h 0.453543v 8.20678h 0.226772v -16.4136h 0.226772v 10.9424h 0.226772v -2.73559h 0.226772v 2.73559h 0.226772v 5.47119h
 0.226772v -8.20678h 0.226772v 5.47119h 0.226772v -2.73559h 0.226772v 2.73559h 0.226772v 2.73559h 0.226772v -5.47119h 0.226772v -2.73559h 0.226772v -2.73559h 0.226772v 5.47119h 0.226772v 2.73559h 0.226772v -10.9424h 0.226772v 5.47119h 0.226772v
 2.73559h 0.226772v 2.73559h 0.226772v -2.73559h 0.226772v 2.73559h 0.226772v -13.678h 0.226772v 13.678h 0.226772v 2.73559h 0.226772v -2.73559h 0.226772v -5.47119h 0.226772v 8.20678h 0.226772v -8.20678h 0.226772v 8.20678h 0.226772v -2.73559h
 0.226772v -2.73559h 0.453543v -13.678h 0.226772v 19.1491h 0.226772v -5.47119h 0.226772v -2.73559h 0.226772v -2.73559h 0.226772v 5.47119h 0.226772v 5.47119h 0.226772v -2.73559h 0.453543v -2.73559h 0.226772v 2.73559h 0.226772v -8.20678h 0.226772v
 10.9424h 0.453543v -2.73559h 0.226772v -2.73559h 0.226772v 2.73559h 0.453543v 2.73559h 0.226772v -8.20678h 0.226772v 8.20678h 0.226772v -5.47119h 0.453543v 2.73559h 0.226772v 2.73559h 0.226772v -2.73559h 0.226772v -2.73559h 0.226772v 2.73559h
 0.226772v -2.73559h 0.226772v 2.73559h 0.226772v -5.47119h 0.226772v 5.47119h 0.453543v 2.73559h 0.453543v -2.73559h 0.453543v -2.73559h 0.226772v 5.47119h 0.226772v -5.47119h 0.226772v 5.47119h 1.36063v -2.73559h 0.453543v 2.73559h 0.453543v
 -2.73559h 0.226772v 2.73559h 0.226772v -5.47119h 0.226772v 5.47119h 0.226772v -2.73559h 0.226772v 2.73559h 0.680315v -8.20678h 0.226772v 5.47119h 0.226772v 2.73559h 0.453543v -2.73559h 1.13386v 2.73559h 0.226772v -2.73559h 0.453543v 2.73559h
 0.453543v -2.73559h 0.453543v 2.73559h 0.226772v -2.73559h 0.226772v 2.73559h 0.226772v -2.73559h 0.453543v 2.73559h 0.680315v -2.73559h 0.226772v 2.73559h 0.453543v -5.47119h 0.226772v 5.47119h 1.5874v -2.73559h 0.226772v 2.73559h 1.13386v
 -2.73559h 0.226772v 2.73559h 0.907087v -2.73559h 0.226772v 2.73559h 2.94803v -2.73559h 0.226772v 2.73559h 0.226772v -2.73559h 0.226772v 2.73559h 1.36063v -2.73559h 0.226772v 2.73559h 0.453543v -2.73559h 0.226772v 2.73559h 1.5874v -2.73559h 0.453543v
 2.73559h 0.453543v -2.73559h 0.226772v 2.73559h 4.53543v -2.73559h 0.226772v 2.73559h 0.453543v -2.73559h 0.226772v 2.73559h 2.94803v -2.73559h 0.453543v 2.73559h 1.36063v -2.73559h 0.226772v 2.73559h 5.21575v -2.73559h 0.226772v 2.73559h 0.907087v
 -2.73559h 0.226772v 2.73559h 0.453543v -2.73559h 0.226772v 2.73559h 0.453543v -2.73559h 0.226772v 2.73559h 0.907087v -2.73559h 0.226772v 2.73559h 3.85512v -2.73559h 0.226772v 2.73559h 1.13386v -2.73559h 0.226772v 2.73559h 7.48346v -2.73559h
 0.226772v 2.73559h 1.36063v -2.73559h 0.226772v 2.73559h 4.30866v -2.73559h 0.226772v 2.73559h 0.226772v -2.73559h 0.226772v 2.73559h 3.40157v -2.73559h 0.226772v 2.73559h 1.36063v -2.73559h 0.226772v 2.73559h 0.453543v -5.47119h 0.226772v 5.47119h
 1.81417v -2.73559h 0.226772v 2.73559h 0.453543v -2.73559h 0.226772v 2.73559h 3.62835v -2.73559h 0.226772v 2.73559h 1.5874v -2.73559h 0.453543v 2.73559h 0.680315v -2.73559h 0.226772v 2.73559h 1.5874v -2.73559h 0.453543v 2.73559h 0.907087v -2.73559h
 0.226772v 2.73559h 1.5874v -2.73559h 0.226772v 2.73559h 3.85512v -2.73559h 0.226772v 2.73559h 2.04094v -2.73559h 0.226772v 2.73559h 0.680315v -2.73559h 0.226772v 2.73559h 1.13386v -2.73559h 0.226772v 2.73559h 0.680315v -2.73559h 0.226772v 2.73559h
 1.36063v -2.73559h 0.226772v 2.73559h 4.7622v -2.73559h 0.226772v 2.73559h 0.226772v -2.73559h 0.226772v 2.73559h 1.13386v -2.73559h 0.226772v 2.73559h 3.40157" fill="none" stroke="#000099"/>
<path d="M182.031,291.894l 0.226772, -3.15598l 0.226772, -3.27654l 0.226772, -3.39684l 0.226772, -3.51647l 0.226772, -3.635l 0.226772, -3.75198l 0.226772, -3.86695l 0.226772, -3.97941l 0.226772, -4.08889l 0.226772, -4.19486l 0.226772, -4.29681l
 0.226772, -4.39421l 0.226772, -4.48653l 0.226772, -4.57323l 0.226772, -4.65379l 0.226772, -4.72767l 0.226772, -4.79434l 0.226772, -4.85331l 0.226772, -4.90405l 0.226772, -4.94609l 0.226772, -4.97896l 0.226772, -5.00221l 0.226772, -5.01543l 0.226772,
 -5.01823l 0.226772, -5.01024l 0.226772, -4.99115l 0.226772, -4.96067l 0.226772, -4.91855l 0.226772, -4.8646l 0.226772, -4.79865l 0.226772, -4.7206l 0.226772, -4.63039l 0.226772, -4.52801l 0.226772, -4.4135l 0.226772, -4.28697l 0.226772, -4.14856l
 0.226772, -3.99847l 0.226772, -3.83697l 0.226772, -3.66437l 0.226772, -3.48105l 0.226772, -3.2874l 0.226772, -3.08392l 0.226772, -2.87111l 0.226772, -2.64954l 0.226772, -2.41983l 0.226772, -2.18262l 0.226772, -1.93861l 0.226772, -1.68851l 0.226772,
 -1.4331" fill="none" stroke="#ff0000" stroke-width="2"/>
<path d="M193.143,95.5784l 0.226772, -1.17315l 0.226772, -0.909472l 0.226772, -0.6429l 0.226772, -0.374276l 0.226772, -0.104456l 0.226772, 0.165698l 0.226772, 0.435322l 0.226772, 0.703555l 0.226772, 0.969544l 0.226772, 1.23245l 0.226772, 1.49144l
 0.226772, 1.74571l 0.226772, 1.9945l 0.226772, 2.23703l 0.226772, 2.4726l 0.226772, 2.70052l 0.226772, 2.92015l 0.226772, 3.1309l 0.226772, 3.33219l 0.226772, 3.52354l 0.226772, 3.70447l 0.226772, 3.87458l 0.226772, 4.03351l 0.226772, 4.18097l
 0.226772, 4.31671l 0.226772, 4.44053l 0.226772, 4.55229l 0.226772, 4.65191l 0.226772, 4.73937l 0.226772, 4.81466l 0.226772, 4.87788l 0.226772, 4.92913l 0.226772, 4.96859l 0.226772, 4.99647l 0.226772, 5.01301l 0.226772, 5.01853l 0.226772, 5.01333l
 0.226772, 4.9978l 0.226772, 4.97233l 0.226772, 4.93734l 0.226772, 4.89329l 0.226772, 4.84064l 0.226772, 4.77988l 0.226772, 4.71153l 0.226772, 4.63609l 0.226772, 4.55409l 0.226772, 4.46607l 0.226772, 4.37255l 0.226772, 4.27407" fill="none"
 stroke="#ff0000" stroke-width="2"/>
<path d="M204.254,255.991l 0.226772, 4.17116" fill="none" stroke="#ff0000" stroke-width="2"/>
<rect x="442.705" y="24.9717" width="113.386" height="61.4688" fill="white"/>
<path d="M442.705,86.4405h 113.386" fill="none" stroke="black"/>
<path d="M556.091,86.4405v -61.4688" fill="none" stroke="black"/>
<path d="M556.091,24.9717h -113.386" fill="none" stroke="black"/>
<path d="M442.705,24.9717v 61.4688" fill="none" stroke="black"/>
<text xml:space="preserve" x="456.155" y="36.5499" fill="black" font-size="13.4705" font-family="Helvetica">Na_PE_Nal(C)</text>
<path d="M442.705,40.3389h 113.386" fill="none" stroke="black"/>
<text xml:space="preserve" x="448.033" y="52.7943" fill="black" font-size="12.7411" font-family="Helvetica">Entries </text>
<text xml:space="preserve" x="513.01" y="52.7943" fill="black" font-size="12.7411" font-family="Helvetica"> 12000</text>
<text xml:space="preserve" x="448.033" y="68.2264" fill="black" font-size="12.7411" font-family="Helvetica">Mean  </text>
<text xml:space="preserve" x="515.447" y="68.2264" fill="black" font-size="12.7411" font-family="Helvetica">  602.1</text>
<text xml:space="preserve" x="448.033" y="82.8464" fill="black" font-size="12.7411" font-family="Helvetica">Std Dev   </text>
<text xml:space="preserve" x="516.259" y="82.8464" fill="black" font-size="12.7411" font-family="Helvetica">    206</text>
<path d="M57.1929,345.762h 453.543" fill="none" stroke="black"/>
<path d="M57.1929,336.541v 9.22031" fill="none" stroke="black"/>
<path d="M68.5315,341.152v 4.61016" fill="none" stroke="black"/>
<path d="M79.8701,341.152v 4.61016" fill="none" stroke="black"/>
<path d="M91.2087,341.152v 4.61016" fill="none" stroke="black"/>
<path d="M102.547,336.541v 9.22031" fill="none" stroke="black"/>
<path d="M113.886,341.152v 4.61016" fill="none" stroke="black"/>
<path d="M125.224,341.152v 4.61016" fill="none" stroke="black"/>
<path d="M136.563,341.152v 4.61016" fill="none" stroke="black"/>
<path d="M147.902,336.541v 9.22031" fill="none" stroke="black"/>
<path d="M159.24,341.152v 4.61016" fill="none" stroke="black"/>
<path d="M170.579,341.152v 4.61016" fill="none" stroke="black"/>
<path d="M181.917,341.152v 4.61016" fill="none" stroke="black"/>
<path d="M193.256,336.541v 9.22031" fill="none" stroke="black"/>
<path d="M204.594,341.152v 4.61016" fill="none" stroke="black"/>
<path d="M215.933,341.152v 4.61016" fill="none" stroke="black"/>
<path d="M227.272,341.152v 4.61016" fill="none" stroke="black"/>
<path d="M238.61,336.541v 9.22031" fill="none" stroke="black"/>
<path d="M249.949,341.152v 4.61016" fill="none" stroke="black"/>
<path d="M261.287,341.152v 4.61016" fill="none" stroke="black"/>
<path d="M272.626,341.152v 4.61016" fill="none" stroke="black"/>
<path d="M283.965,336.541v 9.22031" fill="none" stroke="black"/>
<path d="M295.303,341.152v 4.61016" fill="none" stroke="black"/>
<path d="M306.642,341.152v 4.61016" fill="none" stroke="black"/>
<path d="M317.98,341.152v 4.61016" fill="none" stroke="black"/>
<path d="M329.319,336.541v 9.22031" fill="none" stroke="black"/>
<path d="M340.657,341.152v 4.61016" fill="none" stroke="black"/>
<path d="M351.996,341.152v 4.61016" fill="none" stroke="black"/>
<path d="M363.335,341.152v 4.61016" fill="none" stroke="black"/>
<path d="M374.673,336.541v 9.22031" fill="none" stroke="black"/>
<path d="M386.012,341.152v 4.61016" fill="none" stroke="black"/>
<path d="M397.35,341.152v 4.61016" fill="none" stroke="black"/>
<path d="M408.689,341.152v 4.61016" fill="none" stroke="black"/>
<path d="M420.028,336.541v 9.22031" fill="none" stroke="black"/>
<path d="M431.366,341.152v 4.61016" fill="none" stroke="black"/>
<path d="M442.705,341.152v 4.61016" fill="none" stroke="black"/>
<path d="M454.043,341.152v 4.61016" fill="none" stroke="black"/>
<path d="M465.382,336.541v 9.22031" fill="none" stroke="black"/>
<path d="M476.72,341.152v 4.61016" fill="none" stroke="black"/>
<path d="M488.059,341.152v 4.61016" fill="none" stroke="black"/>
<path d="M499.398,341.152v 4.61016" fill="none" stroke="black"/>
<path d="M510.736,336.541v 9.22031" fill="none" stroke="black"/>
<text xml:space="preserve" x="53.2943" y="358.189" fill="black" font-size="12.836" font-family="Helvetica">0</text>
<text xml:space="preserve" x="91.4686" y="358.189" fill="black" font-size="12.836" font-family="Helvetica">200</text>
<text xml:space="preserve" x="136.953" y="358.189" fill="black" font-size="12.836" font-family="Helvetica">400</text>
<text xml:space="preserve" x="182.437" y="358.189" fill="black" font-size="12.836" font-family="Helvetica">600</text>
<text xml:space="preserve" x="227.921" y="358.189" fill="black" font-size="12.836" font-family="Helvetica">800</text>
<text xml:space="preserve" x="270.157" y="358.189" fill="black" font-size="12.836" font-family="Helvetica">1000</text>
<text xml:space="preserve" x="314.829" y="358.189" fill="black" font-size="12.836" font-family="Helvetica">1200</text>
<text xml:space="preserve" x="360.313" y="358.189" fill="black" font-size="12.836" font-family="Helvetica">1400</text>
<text xml:space="preserve" x="405.797" y="358.189" fill="black" font-size="12.836" font-family="Helvetica">1600</text>
<text xml:space="preserve" x="451.282" y="358.189" fill="black" font-size="12.836" font-family="Helvetica">1800</text>
<text xml:space="preserve" x="496.766" y="358.189" fill="black" font-size="12.836" font-family="Helvetica">2000</text>
<text xml:space="preserve" x="452.094" y="371.996" fill="black" font-size="12.836" font-family="Helvetica">ADC value</text>
<path d="M57.1929,345.762v -307.344" fill="none" stroke="black"/>
<path d="M70.7992,345.762h -13.6063" fill="none" stroke="black"/>
<path d="M63.9961,332.084h -6.80315" fill="none" stroke="black"/>
<path d="M63.9961,318.406h -6.80315" fill="none" stroke="black"/>
<path d="M63.9961,304.728h -6.80315" fill="none" stroke="black"/>
<path d="M70.7992,291.05h -13.6063" fill="none" stroke="black"/>
<path d="M63.9961,277.372h -6.80315" fill="none" stroke="black"/>
<path d="M63.9961,263.694h -6.80315" fill="none" stroke="black"/>
<path d="M63.9961,250.016h -6.80315" fill="none" stroke="black"/>
<path d="M70.7992,236.338h -13.6063" fill="none" stroke="black"/>
<path d="M63.9961,222.66h -6.80315" fill="none" stroke="black"/>
<path d="M63.9961,208.982h -6.80315" fill="none" stroke="black"/>
<path d="M63.9961,195.304h -6.80315" fill="none" stroke="black"/>
<path d="M70.7992,181.626h -13.6063" fill="none" stroke="black"/>
<path d="M63.9961,167.948h -6.80315" fill="none" stroke="black"/>
<path d="M63.9961,154.27h -6.80315" fill="none" stroke="black"/>
<path d="M63.9961,140.592h -6.80315" fill="none" stroke="black"/>
<path d="M70.7992,126.914h -13.6063" fill="none" stroke="black"/>
<path d="M63.9961,113.236h -6.80315" fill="none" stroke="black"/>
<path d="M63.9961,99.5585h -6.80315" fill="none" stroke="black"/>
<path d="M63.9961,85.8805h -6.80315" fill="none" stroke="black"/>
<path d="M70.7992,72.2025h -13.6063" fill="none" stroke="black"/>
<path d="M70.7992,72.2025h -13.6063" fill="none" stroke="black"/>
<path d="M63.9961,58.5246h -6.80315" fill="none" stroke="black"/>
<path d="M63.9961,44.8466h -6.80315" fill="none" stroke="black"/>
<text xml:space="preserve" x="47.6087" y="350.067" fill="black" font-size="12.836" font-family="Helvetica">0</text>
<text xml:space="preserve" x="41.111" y="295.648" fill="black" font-size="12.836" font-family="Helvetica">20</text>
<text xml:space="preserve" x="41.111" y="240.417" fill="black" font-size="12.836" font-family="Helvetica">40</text>
<text xml:space="preserve" x="41.111" y="185.998" fill="black" font-size="12.836" font-family="Helvetica">60</text>
<text xml:space="preserve" x="41.111" y="131.58" fill="black" font-size="12.836" font-family="Helvetica">80</text>
<text xml:space="preserve" x="33.801" y="76.3486" fill="black" font-size="12.836" font-family="Helvetica">100</text>
<g transform="rotate(-90,20.8055,75.5364)">
<text xml:space="preserve" x="20.8055" y="75.5364" fill="black" font-size="12.836" font-family="Helvetica">Events</text>
</g>
<rect x="442.705" y="24.9717" width="113.386" height="61.4688" fill="white"/>
<path d="M442.705,86.4405h 113.386" fill="none" stroke="black"/>
<path d="M556.091,86.4405v -61.4688" fill="none" stroke="black"/>
<path d="M556.091,24.9717h -113.386" fill="none" stroke="black"/>
<path d="M442.705,24.9717v 61.4688" fill="none" stroke="black"/>
<text xml:space="preserve" x="456.155" y="36.5499" fill="black" font-size="13.4705" font-family="Helvetica">Na_PE_Nal(C)</text>
<path d="M442.705,40.3389h 113.386" fill="none" stroke="black"/>
<text xml:space="preserve" x="448.033" y="52.7943" fill="black" font-size="12.7411" font-family="Helvetica">Entries </text>
<text xml:space="preserve" x="513.01" y="52.7943" fill="black" font-size="12.7411" font-family="Helvetica"> 12000</text>
<text xml:space="preserve" x="448.033" y="68.2264" fill="black" font-size="12.7411" font-family="Helvetica">Mean  </text>
<text xml:space="preserve" x="515.447" y="68.2264" fill="black" font-size="12.7411" font-family="Helvetica">  602.1</text>
<text xml:space="preserve" x="448.033" y="82.8464" fill="black" font-size="12.7411" font-family="Helvetica">Std Dev   </text>
<text xml:space="preserve" x="516.259" y="82.8464" fill="black" font-size="12.7411" font-family="Helvetica">    206</text>
<text xml:space="preserve" x="225.485" y="18.681" fill="black" font-size="17.9813" font-family="Helvetica">Na_PE_Nal(C)</text></svg>
