<?xml version="1.0" standalone="no"?>
<svg width="567.429" height="386.304" viewBox="0 0 567.429 386.304" xmlns="http://www.w3.org/2000/svg" shape-rendering="crispEdges">
<title>
img/calibration/Na_PE_Nal(C).svg
</title>
<desc>
Creator: ROOT Version 6.22/08
CreationDate: Wed Jun  9 12:40:55 2021</desc>
<defs>
</defs>
<rect x="0.5" y="0" width="566.929" height="385.804" fill="white"/>
<rect x="57.1929" y="38.5804" width="453.543" height="308.643" fill="white"/>
<rect x="57.1929" y="38.5804" width="453.543" height="308.643" fill="none" stroke="black"/>
<rect x="57.1929" y="38.5804" width="453.543" height="308.643" fill="white"/>
<rect x="57.1929" y="38.5804" width="453.543" height="308.643" fill="none" stroke="black"/>
<path d="M57.1929,347.224h 1.81417v -2.74716h 0.226772v 2.74716h 21.5433v -2.74716h 0.226772v 2.74716h 12.2457v -2.74716h 0.226772v 2.74716h 13.6063v -2.74716h 0.226772v 2.74716h 0.680315v -2.74716h 0.226772v 2.74716h 1.13386v -2.74716h 0.226772v
 2.74716h 1.81417v -2.74716h 0.226772v 2.74716h 1.5874v -2.74716h 0.226772v 2.74716h 0.907087v -2.74716h 0.226772v 2.74716h 1.36063v -2.74716h 0.226772v 2.74716h 0.453543v -2.74716h 0.226772v -2.74716h 0.226772v -2.74716h 0.226772v 5.49432h 0.226772v
 -5.49432h 0.226772v 2.74716h 0.226772v 2.74716h 0.226772v 2.74716h 0.453543v -2.74716h 0.226772v 2.74716h 0.226772v -2.74716h 0.226772v -2.74716h 0.226772v -2.74716h 0.226772v 5.49432h 0.226772v 2.74716h 0.226772v -5.49432h 0.226772v 2.74716h
 0.226772v -5.49432h 0.226772v 5.49432h 0.453543v 2.74716h 0.226772v -5.49432h 0.453543v 2.74716h 0.226772v -2.74716h 0.226772v 5.49432h 0.226772v -8.24148h 0.226772v 5.49432h 0.226772v 2.74716h 0.226772v -2.74716h 0.226772v -2.74716h 0.226772v
 -2.74716h 0.226772v 5.49432h 0.226772v -2.74716h 0.226772v 2.74716h 0.226772v -8.24148h 0.226772v 8.24148h 0.226772v -2.74716h 0.226772v -2.74716h 0.226772v -10.9886h 0.226772v 16.483h 0.226772v 2.74716h 0.226772v -8.24148h 0.453543v 5.49432h
 0.226772v -13.7358h 0.226772v 10.9886h 0.226772v -16.483h 0.226772v -5.49432h 0.226772v 16.483h 0.226772v -2.74716h 0.226772v 10.9886h 0.226772v -8.24148h 0.453543v -2.74716h 0.226772v 5.49432h 0.226772v -5.49432h 0.226772v 2.74716h 0.226772v
 -2.74716h 0.226772v 5.49432h 0.226772v -5.49432h 0.226772v -5.49432h 0.226772v 5.49432h 0.453543v -2.74716h 0.226772v -5.49432h 0.226772v 5.49432h 0.226772v 10.9886h 0.226772v -8.24148h 0.226772v 2.74716h 0.226772v -8.24148h 0.226772v 5.49432h
 0.453543v -2.74716h 0.226772v -8.24148h 0.226772v 2.74716h 0.226772v -2.74716h 0.226772v -2.74716h 0.226772v 8.24148h 0.453543v -2.74716h 0.226772v 2.74716h 0.226772v -16.483h 0.226772v 21.9773h 0.226772v -16.483h 0.226772v 8.24148h 0.226772v
 10.9886h 0.226772v -16.483h 0.226772v 2.74716h 0.226772v 2.74716h 0.226772v 5.49432h 0.226772v -5.49432h 0.226772v -5.49432h 0.226772v 5.49432h 0.226772v -8.24148h 0.453543v -2.74716h 0.226772v -8.24148h 0.226772v 21.9773h 0.226772v 8.24148h
 0.226772v -13.7358h 0.453543v -13.7358h 0.453543v 8.24148h 0.226772v -10.9886h 0.226772v 21.9773h 0.226772v -2.74716h 0.226772v -8.24148h 0.226772v 5.49432h 0.226772v 5.49432h 0.226772v -19.2301h 0.226772v 8.24148h 0.226772v -8.24148h 0.226772v
 -2.74716h 0.226772v -2.74716h 0.226772v 16.483h 0.226772v -8.24148h 0.226772v -5.49432h 0.226772v 19.2301h 0.226772v -8.24148h 0.226772v -19.2301h 0.226772v -2.74716h 0.226772v 8.24148h 0.226772v 16.483h 0.226772v -10.9886h 0.453543v 2.74716h
 0.226772v -13.7358h 0.226772v 8.24148h 0.453543v -2.74716h 0.226772v 2.74716h 0.453543v -10.9886h 0.226772v 2.74716h 0.226772v 13.7358h 0.226772v 2.74716h 0.453543v -2.74716h 0.226772v -2.74716h 0.226772v -10.9886h 0.453543v 16.483h 0.453543v
 -5.49432h 0.226772v -2.74716h 0.226772v 5.49432h 0.226772v 2.74716h 0.226772v -5.49432h 0.226772v 2.74716h 0.226772v -5.49432h 0.226772v -5.49432h 0.226772v 5.49432h 0.226772v 2.74716h 0.226772v 8.24148h 0.226772v -13.7358h 0.226772v 13.7358h
 0.453543v -8.24148h 0.226772v 2.74716h 0.226772v -8.24148h 0.226772v -10.9886h 0.226772v 5.49432h 0.226772v 16.483h 0.226772v -8.24148h 0.226772v -5.49432h 0.226772v 10.9886h 0.226772v -8.24148h 0.226772v 13.7358h 0.226772v 2.74716h 0.226772v
 -10.9886h 0.226772v -24.7244h 0.226772v 19.2301h 0.226772v -8.24148h 0.453543v 24.7244h 0.226772v 2.74716h 0.226772v -16.483h 0.226772v -8.24148h 0.226772v 2.74716h 0.226772v -5.49432h 0.226772v 21.9773h 0.226772v -21.9773h 0.226772v 13.7358h
 0.226772v 13.7358h 0.226772v -21.9773h 0.226772v -2.74716h 0.226772v 13.7358h 0.226772v -2.74716h 0.226772v 16.483h 0.226772v -16.483h 0.226772v 2.74716h 0.226772v -19.2301h 0.226772v 19.2301h 0.453543v -5.49432h 0.226772v 19.2301h 0.226772v
 -16.483h 0.226772v -8.24148h 0.226772v 10.9886h 0.226772v -5.49432h 0.453543v -2.74716h 0.226772v 19.2301h 0.226772v -30.2188h 0.226772v 27.4716h 0.226772v -13.7358h 0.226772v 2.74716h 0.226772v 2.74716h 0.226772v -19.2301h 0.226772v 19.2301h
 0.226772v 10.9886h 0.226772v -24.7244h 0.226772v 10.9886h 0.226772v 13.7358h 0.226772v -21.9773h 0.226772v 2.74716h 0.226772v -10.9886h 0.226772v 19.2301h 0.226772v -16.483h 0.226772v 5.49432h 0.226772v 2.74716h 0.453543v -16.483h 0.226772v 13.7358h
 0.226772v 2.74716h 0.226772v -5.49432h 0.226772v 5.49432h 0.226772v 2.74716h 0.226772v -19.2301h 0.226772v -2.74716h 0.226772v -19.2301h 0.226772v 30.2188h 0.226772v 2.74716h 0.226772v -2.74716h 0.226772v 19.2301h 0.226772v -24.7244h 0.226772v
 5.49432h 0.226772v -5.49432h 0.226772v 2.74716h 0.226772v 8.24148h 0.226772v 8.24148h 0.226772v -8.24148h 0.226772v -10.9886h 0.226772v 8.24148h 0.453543v 8.24148h 0.226772v -16.483h 0.226772v -21.9773h 0.226772v 13.7358h 0.226772v 10.9886h
 0.226772v 5.49432h 0.226772v -5.49432h 0.226772v -19.2301h 0.226772v 27.4716h 0.226772v -13.7358h 0.226772v -16.483h 0.226772v 46.7017h 0.226772v -24.7244h 0.226772v 10.9886h 0.226772v -8.24148h 0.226772v 2.74716h 0.226772v -16.483h 0.226772v
 16.483h 0.226772v 8.24148h 0.226772v -8.24148h 0.226772v -16.483h 0.226772v 10.9886h 0.226772v 13.7358h 0.226772v -27.4716h 0.226772v 2.74716h 0.226772v 30.2188h 0.226772v -43.9546h 0.226772v 27.4716h 0.226772v -13.7358h 0.226772v -16.483h 0.226772v
 21.9773h 0.226772v -13.7358h 0.226772v 2.74716h 0.226772v 24.7244h 0.226772v -8.24148h 0.226772v -27.4716h 0.226772v 10.9886h 0.226772v -8.24148h 0.226772v -16.483h 0.226772v 43.9546h 0.226772v -19.2301h 0.226772v -5.49432h 0.226772v -21.9773h
 0.226772v 5.49432h 0.226772v 5.49432h 0.226772v -2.74716h 0.226772v 19.2301h 0.226772v -57.6903h 0.226772v 21.9773h 0.226772v 13.7358h 0.226772v -19.2301h 0.226772v 35.7131h 0.226772v -60.4375h 0.226772v 54.9432h 0.226772v -41.2074h 0.226772v
 32.9659h 0.226772v -27.4716h 0.226772v -13.7358h 0.226772v 10.9886h 0.226772v 13.7358h 0.226772v -27.4716h 0.226772v 30.2188h 0.226772v -21.9773h 0.226772v 13.7358h 0.226772v -54.9432h 0.226772v -10.9886h 0.226772v 54.9432h 0.226772v -60.4375h
 0.226772v 38.4602h 0.226772v -43.9546h 0.226772v 19.2301h 0.226772v -35.7131h 0.226772v 24.7244h 0.226772v 10.9886h 0.226772v -41.2074h 0.453543v -24.7244h 0.226772v 13.7358h 0.226772v 2.74716h 0.226772v -10.9886h 0.226772v -60.4375h 0.226772v
 38.4602h 0.226772v 63.1847h 0.226772v -71.4261h 0.226772v -5.49432h 0.226772v 41.2074h 0.226772v -49.4489h 0.226772v 27.4716h 0.226772v 10.9886h 0.226772v -30.2188h 0.226772v 5.49432h 0.226772v 38.4602h 0.226772v 2.74716h 0.226772v 2.74716h
 0.226772v -10.9886h 0.226772v -19.2301h 0.226772v -5.49432h 0.226772v -35.7131h 0.226772v 27.4716h 0.226772v -2.74716h 0.226772v -21.9773h 0.226772v 5.49432h 0.226772v 30.2188h 0.226772v 2.74716h 0.226772v 5.49432h 0.226772v -13.7358h 0.226772v
 -16.483h 0.226772v 46.7017h 0.226772v -35.7131h 0.226772v 10.9886h 0.226772v -43.9546h 0.226772v 71.4261h 0.226772v -2.74716h 0.226772v 10.9886h 0.226772v -8.24148h 0.226772v 19.2301h 0.226772v 5.49432h 0.226772v 10.9886h 0.226772v 24.7244h
 0.226772v -38.4602h 0.226772v 35.7131h 0.226772v -49.4489h 0.226772v 41.2074h 0.226772v 5.49432h 0.226772v -35.7131h 0.226772v 24.7244h 0.226772v 52.196h 0.226772v -16.483h 0.226772v 24.7244h 0.226772v -19.2301h 0.226772v 27.4716h 0.226772v
 -38.4602h 0.226772v 57.6903h 0.226772v 5.49432h 0.226772v -19.2301h 0.226772v 19.2301h 0.226772v 8.24148h 0.453543v -19.2301h 0.226772v -2.74716h 0.226772v 38.4602h 0.226772v -5.49432h 0.226772v -30.2188h 0.226772v 46.7017h 0.226772v -13.7358h
 0.226772v 24.7244h 0.226772v -2.74716h 0.226772v -16.483h 0.226772v 16.483h 0.226772v 13.7358h 0.226772v -8.24148h 0.226772v -10.9886h 0.226772v 16.483h 0.226772v -13.7358h 0.226772v 10.9886h 0.226772v 2.74716h 0.226772v 2.74716h 0.453543v 16.483h
 0.226772v -5.49432h 0.226772v -2.74716h 0.453543v 8.24148h 0.226772v -19.2301h 0.226772v 2.74716h 0.226772v 5.49432h 0.226772v 13.7358h 0.226772v -2.74716h 0.226772v -8.24148h 0.226772v 2.74716h 0.226772v 5.49432h 0.226772v 2.74716h 0.226772v
 2.74716h 0.226772v 2.74716h 0.226772v -2.74716h 0.453543v 5.49432h 0.226772v -2.74716h 0.226772v -2.74716h 0.226772v -5.49432h 0.226772v 5.49432h 0.226772v 2.74716h 0.453543v -5.49432h 0.226772v 2.74716h 0.226772v 2.74716h 0.226772v -2.74716h
 0.453543v -2.74716h 0.226772v -2.74716h 0.226772v 2.74716h 0.226772v 8.24148h 0.226772v -13.7358h 0.226772v 13.7358h 0.226772v -2.74716h 0.226772v 2.74716h 0.453543v -16.483h 0.226772v 16.483h 0.226772v -2.74716h 0.226772v 2.74716h 0.680315v
 -2.74716h 0.226772v 2.74716h 0.226772v -5.49432h 0.226772v 5.49432h 0.226772v -2.74716h 0.453543v 2.74716h 0.453543v -2.74716h 0.453543v -5.49432h 0.226772v 5.49432h 0.453543v -2.74716h 0.226772v 5.49432h 0.680315v -2.74716h 0.226772v 2.74716h
 0.226772v -2.74716h 0.226772v -2.74716h 0.453543v 2.74716h 0.226772v 2.74716h 0.453543v -5.49432h 0.226772v -2.74716h 0.226772v 8.24148h 0.680315v -8.24148h 0.226772v 8.24148h 0.680315v -2.74716h 0.226772v -5.49432h 0.226772v 5.49432h 0.226772v
 -2.74716h 0.226772v 5.49432h 0.226772v -2.74716h 0.226772v 2.74716h 0.226772v -2.74716h 0.226772v 2.74716h 0.226772v -2.74716h 0.226772v -5.49432h 0.226772v 5.49432h 1.13386v 2.74716h 0.226772v -2.74716h 0.453543v -2.74716h 0.226772v 2.74716h
 0.226772v 2.74716h 0.226772v -2.74716h 0.226772v 2.74716h 0.907087v -2.74716h 0.226772v -2.74716h 0.453543v 2.74716h 0.226772v 2.74716h 0.226772v -2.74716h 0.226772v -5.49432h 0.226772v 5.49432h 0.226772v 2.74716h 0.680315v -2.74716h 0.226772v
 2.74716h 0.226772v -5.49432h 0.680315v 2.74716h 0.226772v -5.49432h 0.226772v 8.24148h 0.453543v -2.74716h 0.226772v -2.74716h 0.226772v 5.49432h 0.226772v -2.74716h 0.453543v 2.74716h 0.680315v -5.49432h 0.226772v 2.74716h 0.453543v -2.74716h
 0.907087v 2.74716h 0.226772v 2.74716h 0.226772v -5.49432h 0.226772v 2.74716h 0.453543v -8.24148h 0.226772v 10.9886h 0.226772v -5.49432h 0.226772v 2.74716h 0.226772v 2.74716h 0.226772v -2.74716h 0.226772v -2.74716h 0.226772v 5.49432h 0.226772v
 -5.49432h 0.226772v 5.49432h 0.226772v -8.24148h 0.226772v 5.49432h 0.453543v 2.74716h 0.226772v -8.24148h 0.226772v 2.74716h 0.226772v 2.74716h 0.907087v -5.49432h 0.226772v 8.24148h 0.453543v -2.74716h 0.453543v 2.74716h 0.226772v -2.74716h
 0.680315v 2.74716h 0.226772v -2.74716h 0.226772v 2.74716h 0.226772v -2.74716h 0.226772v 2.74716h 0.453543v -8.24148h 0.226772v 5.49432h 0.453543v -5.49432h 0.226772v 5.49432h 0.453543v 2.74716h 0.226772v -2.74716h 0.226772v 2.74716h 0.226772v
 -2.74716h 0.226772v -5.49432h 0.226772v 5.49432h 0.226772v -10.9886h 0.226772v 13.7358h 0.453543v -8.24148h 0.226772v 2.74716h 0.226772v 2.74716h 0.680315v 2.74716h 1.13386v -2.74716h 0.226772v -2.74716h 0.453543v 5.49432h 0.226772v -2.74716h
 0.453543v 2.74716h 0.226772v -2.74716h 0.226772v 2.74716h 0.226772v -2.74716h 0.453543v -2.74716h 0.226772v 2.74716h 0.226772v 2.74716h 0.226772v -8.24148h 0.226772v 5.49432h 0.453543v -8.24148h 0.226772v 8.24148h 0.226772v 2.74716h 0.226772v
 -2.74716h 0.226772v -5.49432h 0.226772v 5.49432h 0.453543v 2.74716h 0.453543v -5.49432h 0.226772v 2.74716h 0.226772v 2.74716h 0.226772v -2.74716h 0.453543v 2.74716h 0.680315v -8.24148h 0.226772v 8.24148h 0.226772v -2.74716h 0.226772v -5.49432h
 0.226772v 8.24148h 0.680315v -2.74716h 0.680315v -2.74716h 0.226772v 5.49432h 0.226772v -5.49432h 0.226772v 2.74716h 0.453543v 2.74716h 0.226772v -2.74716h 0.907087v 2.74716h 0.226772v -5.49432h 0.226772v 2.74716h 0.680315v 2.74716h 0.226772v
 -2.74716h 0.226772v 2.74716h 0.226772v -5.49432h 0.226772v 5.49432h 0.226772v -2.74716h 0.226772v 2.74716h 0.680315v -8.24148h 0.226772v 5.49432h 0.226772v 2.74716h 0.226772v -2.74716h 0.680315v 2.74716h 0.226772v -8.24148h 0.226772v 8.24148h
 0.226772v -2.74716h 0.226772v -2.74716h 0.226772v 2.74716h 0.226772v -2.74716h 0.226772v 2.74716h 0.226772v 2.74716h 0.680315v -8.24148h 0.226772v 5.49432h 0.907087v -2.74716h 0.226772v 2.74716h 0.453543v 2.74716h 0.453543v -2.74716h 0.226772v
 2.74716h 0.453543v -8.24148h 0.226772v 5.49432h 0.226772v 2.74716h 0.453543v -2.74716h 0.226772v -2.74716h 0.226772v 5.49432h 0.226772v -5.49432h 0.226772v 5.49432h 0.907087v -2.74716h 0.226772v 2.74716h 1.36063v -2.74716h 0.907087v -5.49432h
 0.226772v 5.49432h 0.453543v -2.74716h 0.226772v -2.74716h 0.226772v 5.49432h 0.226772v 2.74716h 0.226772v -5.49432h 0.680315v 2.74716h 0.226772v -2.74716h 0.226772v 2.74716h 0.226772v -2.74716h 0.226772v 2.74716h 0.226772v -2.74716h 0.226772v
 5.49432h 0.226772v -2.74716h 0.226772v 2.74716h 0.453543v -2.74716h 0.226772v 2.74716h 0.226772v -8.24148h 0.226772v 5.49432h 0.453543v 2.74716h 0.226772v -5.49432h 0.226772v 5.49432h 1.13386v -2.74716h 0.226772v 2.74716h 0.226772v -2.74716h
 0.226772v 2.74716h 0.226772v -5.49432h 0.226772v 2.74716h 0.453543v -2.74716h 0.226772v 5.49432h 0.680315v -2.74716h 0.453543v 2.74716h 0.226772v -2.74716h 0.453543v -5.49432h 0.226772v 8.24148h 0.226772v -5.49432h 0.226772v 2.74716h 0.226772v
 -2.74716h 0.226772v 5.49432h 0.680315v -2.74716h 0.226772v 2.74716h 0.226772v -2.74716h 0.226772v -5.49432h 0.226772v 8.24148h 0.226772v -2.74716h 0.453543v -2.74716h 0.226772v 5.49432h 0.226772v -2.74716h 0.680315v -5.49432h 0.226772v 8.24148h
 0.226772v -2.74716h 0.453543v 2.74716h 0.226772v -5.49432h 0.226772v 2.74716h 0.226772v -2.74716h 0.226772v 2.74716h 0.680315v -2.74716h 0.453543v 2.74716h 0.226772v -2.74716h 0.226772v 2.74716h 0.226772v 2.74716h 1.13386v -2.74716h 0.453543v
 2.74716h 0.453543v -2.74716h 0.226772v 2.74716h 0.226772v -2.74716h 0.226772v 2.74716h 0.226772v -2.74716h 0.226772v 2.74716h 0.453543v -2.74716h 0.226772v 2.74716h 0.680315v -5.49432h 0.226772v 5.49432h 0.226772v -5.49432h 0.226772v 5.49432h
 0.226772v -5.49432h 0.226772v 2.74716h 0.680315v -8.24148h 0.226772v 10.9886h 0.226772v -2.74716h 0.226772v 2.74716h 0.453543v -8.24148h 0.226772v 5.49432h 0.226772v -2.74716h 0.453543v 5.49432h 0.226772v -2.74716h 0.680315v 2.74716h 0.226772v
 -5.49432h 0.226772v 2.74716h 0.226772v -2.74716h 0.453543v 2.74716h 0.680315v 2.74716h 0.226772v -2.74716h 0.453543v -2.74716h 0.453543v 2.74716h 0.226772v 2.74716h 0.226772v -5.49432h 0.226772v 2.74716h 0.226772v 2.74716h 0.226772v -2.74716h
 0.226772v 2.74716h 0.226772v -2.74716h 0.453543v 2.74716h 0.453543v -2.74716h 0.226772v -2.74716h 0.226772v 2.74716h 0.226772v -5.49432h 0.226772v 5.49432h 1.5874v -2.74716h 0.226772v 2.74716h 0.226772v -2.74716h 0.226772v 5.49432h 0.453543v
 -5.49432h 0.226772v 5.49432h 0.226772v -2.74716h 0.453543v 2.74716h 0.226772v -2.74716h 0.226772v -2.74716h 0.226772v -2.74716h 0.226772v 5.49432h 0.453543v 2.74716h 0.226772v -2.74716h 0.226772v -5.49432h 0.226772v 8.24148h 0.226772v -5.49432h
 0.453543v 5.49432h 0.680315v -2.74716h 0.226772v -2.74716h 0.226772v 5.49432h 0.226772v -5.49432h 0.453543v -2.74716h 0.226772v 8.24148h 0.226772v -5.49432h 0.226772v 5.49432h 0.226772v -2.74716h 0.226772v 2.74716h 0.226772v -5.49432h 0.226772v
 5.49432h 0.453543v -5.49432h 0.453543v 2.74716h 0.226772v 2.74716h 0.226772v -2.74716h 0.453543v 2.74716h 0.453543v -2.74716h 0.453543v 2.74716h 0.453543v -5.49432h 0.453543v 5.49432h 0.226772v -2.74716h 0.226772v 2.74716h 0.226772v -8.24148h
 0.226772v 8.24148h 0.226772v -2.74716h 0.226772v 2.74716h 0.226772v -2.74716h 0.453543v -5.49432h 0.226772v 5.49432h 0.453543v 2.74716h 0.453543v -2.74716h 0.226772v -2.74716h 0.226772v 2.74716h 0.226772v -2.74716h 0.226772v 2.74716h 0.453543v
 -5.49432h 0.226772v 8.24148h 0.226772v -2.74716h 0.226772v 2.74716h 0.226772v -5.49432h 0.226772v -10.9886h 0.226772v 16.483h 0.226772v -5.49432h 0.226772v 5.49432h 0.453543v -5.49432h 0.226772v 5.49432h 0.226772v -2.74716h 0.226772v 2.74716h
 0.226772v -8.24148h 0.226772v 5.49432h 0.680315v 2.74716h 0.226772v -8.24148h 0.226772v 8.24148h 0.226772v -2.74716h 0.226772v 2.74716h 0.226772v -2.74716h 0.453543v 2.74716h 0.226772v -2.74716h 0.226772v -2.74716h 0.226772v 2.74716h 0.226772v
 2.74716h 1.36063v -2.74716h 0.680315v 2.74716h 1.36063v -2.74716h 0.453543v 2.74716h 0.226772v -2.74716h 0.453543v 2.74716h 0.226772v -5.49432h 0.226772v 5.49432h 0.680315v -2.74716h 0.453543v 2.74716h 0.226772v -5.49432h 0.226772v 2.74716h
 0.226772v 2.74716h 0.226772v -2.74716h 0.453543v -2.74716h 0.226772v 5.49432h 0.453543v -2.74716h 0.226772v 2.74716h 0.680315v -2.74716h 0.453543v 2.74716h 0.453543v -2.74716h 0.226772v 2.74716h 0.680315v -2.74716h 0.680315v 2.74716h 0.226772v
 -2.74716h 0.226772v 2.74716h 1.13386v -2.74716h 0.226772v 2.74716h 0.680315v -2.74716h 0.226772v 2.74716h 1.81417v -2.74716h 0.226772v 2.74716h 0.226772v -2.74716h 0.226772v 2.74716h 0.907087v -2.74716h 0.453543v 2.74716h 3.1748v -2.74716h 0.226772v
 2.74716h 1.36063v -2.74716h 0.226772v 2.74716h 1.36063v -2.74716h 0.226772v 2.74716h 1.5874v -2.74716h 0.226772v 2.74716h 1.36063v -2.74716h 0.226772v -2.74716h 0.226772v 2.74716h 0.226772v 2.74716h 0.226772v -2.74716h 0.226772v 2.74716h 0.453543v
 -2.74716h 0.226772v 2.74716h 0.226772v -2.74716h 0.226772v 2.74716h 1.13386v -2.74716h 0.226772v 2.74716h 0.453543v -2.74716h 0.226772v -2.74716h 0.226772v 5.49432h 0.453543v -2.74716h 0.226772v 2.74716h 0.226772v -2.74716h 0.453543v 2.74716h
 0.226772v -2.74716h 0.453543v 2.74716h 0.226772v -5.49432h 0.453543v 5.49432h 0.453543v -5.49432h 0.226772v 2.74716h 0.226772v 2.74716h 0.226772v -8.24148h 0.226772v 8.24148h 1.13386v -2.74716h 0.226772v -2.74716h 0.226772v 2.74716h 0.226772v
 -5.49432h 0.226772v 5.49432h 0.226772v 2.74716h 0.226772v -8.24148h 0.226772v 5.49432h 0.680315v 2.74716h 0.226772v -5.49432h 0.453543v -2.74716h 0.226772v 8.24148h 0.226772v -5.49432h 0.226772v 2.74716h 0.226772v -2.74716h 0.226772v 2.74716h
 0.680315v -5.49432h 0.226772v 5.49432h 0.226772v -5.49432h 0.226772v 8.24148h 0.226772v -2.74716h 0.680315v -2.74716h 0.226772v 2.74716h 0.226772v -5.49432h 0.226772v 2.74716h 0.680315v -8.24148h 0.226772v 8.24148h 0.226772v -5.49432h 0.226772v
 5.49432h 0.226772v 2.74716h 0.226772v 2.74716h 0.226772v -5.49432h 0.226772v -8.24148h 0.226772v 10.9886h 0.226772v -5.49432h 0.453543v 8.24148h 0.226772v -16.483h 0.226772v 10.9886h 0.226772v -2.74716h 0.226772v 2.74716h 0.226772v 5.49432h
 0.226772v -8.24148h 0.226772v 5.49432h 0.226772v -2.74716h 0.226772v 2.74716h 0.226772v 2.74716h 0.226772v -5.49432h 0.226772v -2.74716h 0.226772v -2.74716h 0.226772v 5.49432h 0.226772v 2.74716h 0.226772v -10.9886h 0.226772v 5.49432h 0.226772v
 2.74716h 0.226772v 2.74716h 0.226772v -2.74716h 0.226772v 2.74716h 0.226772v -13.7358h 0.226772v 13.7358h 0.226772v 2.74716h 0.226772v -2.74716h 0.226772v -5.49432h 0.226772v 8.24148h 0.226772v -8.24148h 0.226772v 8.24148h 0.226772v -2.74716h
 0.226772v -2.74716h 0.453543v -13.7358h 0.226772v 19.2301h 0.226772v -5.49432h 0.226772v -2.74716h 0.226772v -2.74716h 0.226772v 5.49432h 0.226772v 5.49432h 0.226772v -2.74716h 0.453543v -2.74716h 0.226772v 2.74716h 0.226772v -8.24148h 0.226772v
 10.9886h 0.453543v -2.74716h 0.226772v -2.74716h 0.226772v 2.74716h 0.453543v 2.74716h 0.226772v -8.24148h 0.226772v 8.24148h 0.226772v -5.49432h 0.453543v 2.74716h 0.226772v 2.74716h 0.226772v -2.74716h 0.226772v -2.74716h 0.226772v 2.74716h
 0.226772v -2.74716h 0.226772v 2.74716h 0.226772v -5.49432h 0.226772v 5.49432h 0.453543v 2.74716h 0.453543v -2.74716h 0.453543v -2.74716h 0.226772v 5.49432h 0.226772v -5.49432h 0.226772v 5.49432h 1.36063v -2.74716h 0.453543v 2.74716h 0.453543v
 -2.74716h 0.226772v 2.74716h 0.226772v -5.49432h 0.226772v 5.49432h 0.226772v -2.74716h 0.226772v 2.74716h 0.680315v -8.24148h 0.226772v 5.49432h 0.226772v 2.74716h 0.453543v -2.74716h 1.13386v 2.74716h 0.226772v -2.74716h 0.453543v 2.74716h
 0.453543v -2.74716h 0.453543v 2.74716h 0.226772v -2.74716h 0.226772v 2.74716h 0.226772v -2.74716h 0.453543v 2.74716h 0.680315v -2.74716h 0.226772v 2.74716h 0.453543v -5.49432h 0.226772v 5.49432h 1.5874v -2.74716h 0.226772v 2.74716h 1.13386v
 -2.74716h 0.226772v 2.74716h 0.907087v -2.74716h 0.226772v 2.74716h 2.94803v -2.74716h 0.226772v 2.74716h 0.226772v -2.74716h 0.226772v 2.74716h 1.36063v -2.74716h 0.226772v 2.74716h 0.453543v -2.74716h 0.226772v 2.74716h 1.5874v -2.74716h 0.453543v
 2.74716h 0.453543v -2.74716h 0.226772v 2.74716h 4.53543v -2.74716h 0.226772v 2.74716h 0.453543v -2.74716h 0.226772v 2.74716h 2.94803v -2.74716h 0.453543v 2.74716h 1.36063v -2.74716h 0.226772v 2.74716h 5.21575v -2.74716h 0.226772v 2.74716h 0.907087v
 -2.74716h 0.226772v 2.74716h 0.453543v -2.74716h 0.226772v 2.74716h 0.453543v -2.74716h 0.226772v 2.74716h 0.907087v -2.74716h 0.226772v 2.74716h 3.85512v -2.74716h 0.226772v 2.74716h 1.13386v -2.74716h 0.226772v 2.74716h 7.48346v -2.74716h
 0.226772v 2.74716h 1.36063v -2.74716h 0.226772v 2.74716h 4.30866v -2.74716h 0.226772v 2.74716h 0.226772v -2.74716h 0.226772v 2.74716h 3.40157v -2.74716h 0.226772v 2.74716h 1.36063v -2.74716h 0.226772v 2.74716h 0.453543v -5.49432h 0.226772v 5.49432h
 1.81417v -2.74716h 0.226772v 2.74716h 0.453543v -2.74716h 0.226772v 2.74716h 3.62835v -2.74716h 0.226772v 2.74716h 1.5874v -2.74716h 0.453543v 2.74716h 0.680315v -2.74716h 0.226772v 2.74716h 1.5874v -2.74716h 0.453543v 2.74716h 0.907087v -2.74716h
 0.226772v 2.74716h 1.5874v -2.74716h 0.226772v 2.74716h 3.85512v -2.74716h 0.226772v 2.74716h 2.04094v -2.74716h 0.226772v 2.74716h 0.680315v -2.74716h 0.226772v 2.74716h 1.13386v -2.74716h 0.226772v 2.74716h 0.680315v -2.74716h 0.226772v 2.74716h
 1.36063v -2.74716h 0.226772v 2.74716h 4.7622v -2.74716h 0.226772v 2.74716h 0.226772v -2.74716h 0.226772v 2.74716h 1.13386v -2.74716h 0.226772v 2.74716h 3.40157" fill="none" stroke="#000099"/>
<path d="M182.031,293.128l 0.226772, -3.16933l 0.226772, -3.29039l 0.226772, -3.4112l 0.226772, -3.53134l 0.226772, -3.65037l 0.226772, -3.76784l 0.226772, -3.8833l 0.226772, -3.99624l 0.226772, -4.10618l 0.226772, -4.2126l 0.226772, -4.31498l
 0.226772, -4.41279l 0.226772, -4.5055l 0.226772, -4.59257l 0.226772, -4.67347l 0.226772, -4.74766l 0.226772, -4.81462l 0.226772, -4.87383l 0.226772, -4.92479l 0.226772, -4.967l 0.226772, -5.00001l 0.226772, -5.02336l 0.226772, -5.03664l 0.226772,
 -5.03945l 0.226772, -5.03143l 0.226772, -5.01225l 0.226772, -4.98164l 0.226772, -4.93935l 0.226772, -4.88517l 0.226772, -4.81894l 0.226772, -4.74056l 0.226772, -4.64997l 0.226772, -4.54716l 0.226772, -4.43217l 0.226772, -4.3051l 0.226772, -4.1661l
 0.226772, -4.01538l 0.226772, -3.8532l 0.226772, -3.67987l 0.226772, -3.49576l 0.226772, -3.3013l 0.226772, -3.09696l 0.226772, -2.88325l 0.226772, -2.66075l 0.226772, -2.43006l 0.226772, -2.19185l 0.226772, -1.9468l 0.226772, -1.69565l 0.226772,
 -1.43916" fill="none" stroke="#ff0000" stroke-width="2"/>
<path d="M193.143,95.9825l 0.226772, -1.17811l 0.226772, -0.913317l 0.226772, -0.645618l 0.226772, -0.375858l 0.226772, -0.104898l 0.226772, 0.166398l 0.226772, 0.437162l 0.226772, 0.70653l 0.226772, 0.973643l 0.226772, 1.23766l 0.226772, 1.49774l
 0.226772, 1.7531l 0.226772, 2.00293l 0.226772, 2.24649l 0.226772, 2.48305l 0.226772, 2.71194l 0.226772, 2.9325l 0.226772, 3.14413l 0.226772, 3.34628l 0.226772, 3.53843l 0.226772, 3.72013l 0.226772, 3.89096l 0.226772, 4.05057l 0.226772, 4.19865l
 0.226772, 4.33496l 0.226772, 4.4593l 0.226772, 4.57154l 0.226772, 4.67158l 0.226772, 4.7594l 0.226772, 4.83502l 0.226772, 4.8985l 0.226772, 4.94998l 0.226772, 4.9896l 0.226772, 5.01759l 0.226772, 5.03421l 0.226772, 5.03975l 0.226772, 5.03453l
 0.226772, 5.01894l 0.226772, 4.99336l 0.226772, 4.95822l 0.226772, 4.91398l 0.226772, 4.86111l 0.226772, 4.80009l 0.226772, 4.73145l 0.226772, 4.65569l 0.226772, 4.57335l 0.226772, 4.48495l 0.226772, 4.39104l 0.226772, 4.29214" fill="none"
 stroke="#ff0000" stroke-width="2"/>
<path d="M204.254,257.073l 0.226772, 4.1888" fill="none" stroke="#ff0000" stroke-width="2"/>
<rect x="442.705" y="25.0773" width="113.386" height="61.7287" fill="white"/>
<path d="M442.705,86.8059h 113.386" fill="none" stroke="black"/>
<path d="M556.091,86.8059v -61.7287" fill="none" stroke="black"/>
<path d="M556.091,25.0773h -113.386" fill="none" stroke="black"/>
<path d="M442.705,25.0773v 61.7287" fill="none" stroke="black"/>
<text xml:space="preserve" x="456.155" y="36.5499" fill="black" font-size="13.5253" font-family="Helvetica">Na_PE_Nal(C)</text>
<path d="M442.705,40.5094h 113.386" fill="none" stroke="black"/>
<text xml:space="preserve" x="448.033" y="52.7943" fill="black" font-size="13.1417" font-family="Helvetica">Entries </text>
<text xml:space="preserve" x="510.574" y="52.7943" fill="black" font-size="13.1417" font-family="Helvetica"> 12000</text>
<text xml:space="preserve" x="448.033" y="68.2264" fill="black" font-size="13.1417" font-family="Helvetica">Mean  </text>
<text xml:space="preserve" x="513.01" y="68.2264" fill="black" font-size="13.1417" font-family="Helvetica">  602.1</text>
<text xml:space="preserve" x="448.033" y="84.4708" fill="black" font-size="13.1417" font-family="Helvetica">Std Dev   </text>
<text xml:space="preserve" x="514.635" y="83.6586" fill="black" font-size="13.1417" font-family="Helvetica">    206</text>
<path d="M57.1929,347.224h 453.543" fill="none" stroke="black"/>
<path d="M57.1929,337.964v 9.2593" fill="none" stroke="black"/>
<path d="M68.5315,342.594v 4.62965" fill="none" stroke="black"/>
<path d="M79.8701,342.594v 4.62965" fill="none" stroke="black"/>
<path d="M91.2087,342.594v 4.62965" fill="none" stroke="black"/>
<path d="M102.547,337.964v 9.2593" fill="none" stroke="black"/>
<path d="M113.886,342.594v 4.62965" fill="none" stroke="black"/>
<path d="M125.224,342.594v 4.62965" fill="none" stroke="black"/>
<path d="M136.563,342.594v 4.62965" fill="none" stroke="black"/>
<path d="M147.902,337.964v 9.2593" fill="none" stroke="black"/>
<path d="M159.24,342.594v 4.62965" fill="none" stroke="black"/>
<path d="M170.579,342.594v 4.62965" fill="none" stroke="black"/>
<path d="M181.917,342.594v 4.62965" fill="none" stroke="black"/>
<path d="M193.256,337.964v 9.2593" fill="none" stroke="black"/>
<path d="M204.594,342.594v 4.62965" fill="none" stroke="black"/>
<path d="M215.933,342.594v 4.62965" fill="none" stroke="black"/>
<path d="M227.272,342.594v 4.62965" fill="none" stroke="black"/>
<path d="M238.61,337.964v 9.2593" fill="none" stroke="black"/>
<path d="M249.949,342.594v 4.62965" fill="none" stroke="black"/>
<path d="M261.287,342.594v 4.62965" fill="none" stroke="black"/>
<path d="M272.626,342.594v 4.62965" fill="none" stroke="black"/>
<path d="M283.965,337.964v 9.2593" fill="none" stroke="black"/>
<path d="M295.303,342.594v 4.62965" fill="none" stroke="black"/>
<path d="M306.642,342.594v 4.62965" fill="none" stroke="black"/>
<path d="M317.98,342.594v 4.62965" fill="none" stroke="black"/>
<path d="M329.319,337.964v 9.2593" fill="none" stroke="black"/>
<path d="M340.657,342.594v 4.62965" fill="none" stroke="black"/>
<path d="M351.996,342.594v 4.62965" fill="none" stroke="black"/>
<path d="M363.335,342.594v 4.62965" fill="none" stroke="black"/>
<path d="M374.673,337.964v 9.2593" fill="none" stroke="black"/>
<path d="M386.012,342.594v 4.62965" fill="none" stroke="black"/>
<path d="M397.35,342.594v 4.62965" fill="none" stroke="black"/>
<path d="M408.689,342.594v 4.62965" fill="none" stroke="black"/>
<path d="M420.028,337.964v 9.2593" fill="none" stroke="black"/>
<path d="M431.366,342.594v 4.62965" fill="none" stroke="black"/>
<path d="M442.705,342.594v 4.62965" fill="none" stroke="black"/>
<path d="M454.043,342.594v 4.62965" fill="none" stroke="black"/>
<path d="M465.382,337.964v 9.2593" fill="none" stroke="black"/>
<path d="M476.72,342.594v 4.62965" fill="none" stroke="black"/>
<path d="M488.059,342.594v 4.62965" fill="none" stroke="black"/>
<path d="M499.398,342.594v 4.62965" fill="none" stroke="black"/>
<path d="M510.736,337.964v 9.2593" fill="none" stroke="black"/>
<text xml:space="preserve" x="52.482" y="359.813" fill="black" font-size="12.8882" font-family="Helvetica">0</text>
<text xml:space="preserve" x="90.6563" y="359.813" fill="black" font-size="12.8882" font-family="Helvetica">200</text>
<text xml:space="preserve" x="136.141" y="359.813" fill="black" font-size="12.8882" font-family="Helvetica">400</text>
<text xml:space="preserve" x="181.625" y="359.813" fill="black" font-size="12.8882" font-family="Helvetica">600</text>
<text xml:space="preserve" x="227.109" y="359.813" fill="black" font-size="12.8882" font-family="Helvetica">800</text>
<text xml:space="preserve" x="269.345" y="359.813" fill="black" font-size="12.8882" font-family="Helvetica">1000</text>
<text xml:space="preserve" x="314.017" y="359.813" fill="black" font-size="12.8882" font-family="Helvetica">1200</text>
<text xml:space="preserve" x="359.501" y="359.813" fill="black" font-size="12.8882" font-family="Helvetica">1400</text>
<text xml:space="preserve" x="404.985" y="359.813" fill="black" font-size="12.8882" font-family="Helvetica">1600</text>
<text xml:space="preserve" x="450.47" y="359.813" fill="black" font-size="12.8882" font-family="Helvetica">1800</text>
<text xml:space="preserve" x="495.954" y="359.813" fill="black" font-size="12.8882" font-family="Helvetica">2000</text>
<text xml:space="preserve" x="448.845" y="374.433" fill="black" font-size="12.8882" font-family="Helvetica">ADC value</text>
<path d="M57.1929,347.224v -308.643" fill="none" stroke="black"/>
<path d="M70.7992,347.224h -13.6063" fill="none" stroke="black"/>
<path d="M63.9961,333.488h -6.80315" fill="none" stroke="black"/>
<path d="M63.9961,319.752h -6.80315" fill="none" stroke="black"/>
<path d="M63.9961,306.016h -6.80315" fill="none" stroke="black"/>
<path d="M70.7992,292.281h -13.6063" fill="none" stroke="black"/>
<path d="M63.9961,278.545h -6.80315" fill="none" stroke="black"/>
<path d="M63.9961,264.809h -6.80315" fill="none" stroke="black"/>
<path d="M63.9961,251.073h -6.80315" fill="none" stroke="black"/>
<path d="M70.7992,237.337h -13.6063" fill="none" stroke="black"/>
<path d="M63.9961,223.602h -6.80315" fill="none" stroke="black"/>
<path d="M63.9961,209.866h -6.80315" fill="none" stroke="black"/>
<path d="M63.9961,196.13h -6.80315" fill="none" stroke="black"/>
<path d="M70.7992,182.394h -13.6063" fill="none" stroke="black"/>
<path d="M63.9961,168.658h -6.80315" fill="none" stroke="black"/>
<path d="M63.9961,154.923h -6.80315" fill="none" stroke="black"/>
<path d="M63.9961,141.187h -6.80315" fill="none" stroke="black"/>
<path d="M70.7992,127.451h -13.6063" fill="none" stroke="black"/>
<path d="M63.9961,113.715h -6.80315" fill="none" stroke="black"/>
<path d="M63.9961,99.9794h -6.80315" fill="none" stroke="black"/>
<path d="M63.9961,86.2436h -6.80315" fill="none" stroke="black"/>
<path d="M70.7992,72.5078h -13.6063" fill="none" stroke="black"/>
<path d="M70.7992,72.5078h -13.6063" fill="none" stroke="black"/>
<path d="M63.9961,58.772h -6.80315" fill="none" stroke="black"/>
<path d="M63.9961,45.0362h -6.80315" fill="none" stroke="black"/>
<text xml:space="preserve" x="46.7965" y="351.691" fill="black" font-size="12.8882" font-family="Helvetica">0</text>
<text xml:space="preserve" x="39.4865" y="296.46" fill="black" font-size="12.8882" font-family="Helvetica">20</text>
<text xml:space="preserve" x="39.4865" y="242.041" fill="black" font-size="12.8882" font-family="Helvetica">40</text>
<text xml:space="preserve" x="39.4865" y="186.81" fill="black" font-size="12.8882" font-family="Helvetica">60</text>
<text xml:space="preserve" x="39.4865" y="131.58" fill="black" font-size="12.8882" font-family="Helvetica">80</text>
<text xml:space="preserve" x="32.1766" y="77.1608" fill="black" font-size="12.8882" font-family="Helvetica">100</text>
<g transform="rotate(-90,21.6177,77.9731)">
<text xml:space="preserve" x="21.6177" y="77.9731" fill="black" font-size="12.8882" font-family="Helvetica">Events</text>
</g>
<rect x="442.705" y="25.0773" width="113.386" height="61.7287" fill="white"/>
<path d="M442.705,86.8059h 113.386" fill="none" stroke="black"/>
<path d="M556.091,86.8059v -61.7287" fill="none" stroke="black"/>
<path d="M556.091,25.0773h -113.386" fill="none" stroke="black"/>
<path d="M442.705,25.0773v 61.7287" fill="none" stroke="black"/>
<text xml:space="preserve" x="456.155" y="36.5499" fill="black" font-size="13.5253" font-family="Helvetica">Na_PE_Nal(C)</text>
<path d="M442.705,40.5094h 113.386" fill="none" stroke="black"/>
<text xml:space="preserve" x="448.033" y="52.7943" fill="black" font-size="13.1417" font-family="Helvetica">Entries </text>
<text xml:space="preserve" x="510.574" y="52.7943" fill="black" font-size="13.1417" font-family="Helvetica"> 12000</text>
<text xml:space="preserve" x="448.033" y="68.2264" fill="black" font-size="13.1417" font-family="Helvetica">Mean  </text>
<text xml:space="preserve" x="513.01" y="68.2264" fill="black" font-size="13.1417" font-family="Helvetica">  602.1</text>
<text xml:space="preserve" x="448.033" y="84.4708" fill="black" font-size="13.1417" font-family="Helvetica">Std Dev   </text>
<text xml:space="preserve" x="514.635" y="83.6586" fill="black" font-size="13.1417" font-family="Helvetica">    206</text>
<text xml:space="preserve" x="225.485" y="18.681" fill="black" font-size="17.9813" font-family="Helvetica">Na_PE_Nal(C)</text></svg>
