<?xml version="1.0" standalone="no"?>
<svg width="567.429" height="384.68" viewBox="0 0 567.429 384.68" xmlns="http://www.w3.org/2000/svg" shape-rendering="crispEdges">
<title>
img/main_mesurement/Na_A.svg
</title>
<desc>
Creator: ROOT Version 6.22/09
CreationDate: Wed Jun  9 14:29:22 2021</desc>
<defs>
</defs>
<rect x="0.5" y="0" width="566.929" height="384.18" fill="white"/>
<rect x="57.1929" y="38.418" width="453.543" height="307.344" fill="white"/>
<rect x="57.1929" y="38.418" width="453.543" height="307.344" fill="none" stroke="black"/>
<rect x="57.1929" y="38.418" width="453.543" height="307.344" fill="white"/>
<rect x="57.1929" y="38.418" width="453.543" height="307.344" fill="none" stroke="black"/>
<path d="M57.1929,345.762h 70.2992v -9.14714h 0.453543v 9.14714h 2.72126v -9.14714h 0.453543v 9.14714h 1.36063v -27.4414h 0.453543v 18.2943h 1.36063v -27.4414h 0.453543v 27.4414h 1.36063v -27.4414h 0.453543v 27.4414h 0.453543v -36.5886h 0.453543v
 18.2943h 0.453543v -18.2943h 0.907087v 18.2943h 0.453543v -9.14714h 0.453543v -9.14714h 0.453543v 9.14714h 0.453543v -18.2943h 0.907087v 9.14714h 0.453543v -27.4414h 0.453543v 45.7357h 0.453543v -36.5886h 0.453543v 9.14714h 0.453543v -27.4414h
 0.453543v 36.5886h 0.907087v 18.2943h 0.453543v -9.14714h 0.453543v -54.8828h 0.453543v 45.7357h 0.453543v -18.2943h 0.453543v -27.4414h 0.453543v 82.3242h 0.453543v -128.06h 0.453543v 91.4714h 0.453543v -18.2943h 0.453543v -18.2943h 0.453543v
 27.4414h 0.453543v -82.3242h 0.453543v 91.4714h 0.453543v 18.2943h 0.453543v -64.03h 0.453543v -9.14714h 0.453543v 27.4414h 0.453543v 27.4414h 0.453543v -27.4414h 0.453543v -36.5886h 0.453543v -9.14714h 0.453543v 36.5886h 0.453543v 27.4414h
 0.453543v 9.14714h 0.453543v -64.03h 0.453543v 27.4414h 0.453543v 27.4414h 0.453543v -27.4414h 0.453543v -36.5886h 0.453543v -18.2943h 0.453543v 18.2943h 0.453543v 91.4714h 0.453543v -54.8828h 0.453543v 18.2943h 0.453543v -118.913h 0.453543v
 91.4714h 0.453543v 18.2943h 0.453543v -27.4414h 0.453543v -45.7357h 0.453543v 9.14714h 0.907087v 73.1771h 0.453543v -45.7357h 0.453543v -9.14714h 0.453543v 18.2943h 0.453543v -18.2943h 0.907087v -36.5886h 0.453543v -9.14714h 0.453543v -18.2943h
 0.453543v 18.2943h 0.453543v -73.1771h 0.453543v 73.1771h 0.453543v -45.7357h 0.453543v -9.14714h 0.453543v 18.2943h 0.453543v 27.4414h 0.453543v -45.7357h 0.453543v 9.14714h 0.453543v -54.8828h 0.453543v 45.7357h 0.453543v 9.14714h 0.453543v
 45.7357h 0.453543v -82.3242h 0.453543v 54.8828h 0.453543v -18.2943h 0.453543v 18.2943h 0.453543v -73.1771h 0.453543v 9.14714h 0.453543v 73.1771h 0.453543v 54.8828h 0.453543v -54.8828h 0.453543v -73.1771h 0.453543v 27.4414h 0.453543v 54.8828h
 0.453543v -100.619h 0.453543v 91.4714h 0.453543v -64.03h 0.453543v 9.14714h 0.453543v 18.2943h 0.453543v -9.14714h 0.453543v -27.4414h 0.453543v 100.619h 0.453543v -100.619h 0.453543v 36.5886h 0.453543v -18.2943h 0.453543v -54.8828h 0.453543v
 146.354h 0.453543v -64.03h 0.453543v 18.2943h 0.453543v -9.14714h 0.453543v -45.7357h 0.453543v 64.03h 0.453543v 9.14714h 0.453543v -73.1771h 0.453543v 91.4714h 0.453543v -54.8828h 0.453543v 18.2943h 0.453543v 109.766h 0.453543v -27.4414h 0.453543v
 -27.4414h 0.907087v -45.7357h 0.453543v 9.14714h 0.453543v 54.8828h 0.907087v 9.14714h 0.453543v 18.2943h 0.453543v -18.2943h 0.907087v -9.14714h 0.453543v 54.8828h 0.453543v -36.5886h 0.453543v 18.2943h 0.453543v 36.5886h 0.453543v -27.4414h
 0.453543v 36.5886h 0.453543v -45.7357h 0.453543v 27.4414h 0.453543v -9.14714h 0.453543v 18.2943h 0.453543v -18.2943h 0.453543v 36.5886h 0.453543v -73.1771h 0.453543v 45.7357h 0.453543v 36.5886h 0.453543v -45.7357h 0.907087v 27.4414h 1.81417v
 9.14714h 0.453543v 9.14714h 0.453543v -18.2943h 0.453543v 18.2943h 0.453543v -9.14714h 0.453543v 9.14714h 0.907087v -9.14714h 0.907087v 9.14714h 1.36063v 18.2943h 0.453543v -9.14714h 0.453543v -18.2943h 0.453543v 9.14714h 0.453543v 18.2943h
 0.453543v -18.2943h 0.907087v -9.14714h 0.453543v -27.4414h 0.453543v 54.8828h 0.453543v -9.14714h 0.907087v 9.14714h 0.453543v -9.14714h 0.453543v 9.14714h 1.81417v -9.14714h 0.453543v -9.14714h 0.453543v 18.2943h 0.907087v -9.14714h 0.907087v
 9.14714h 0.453543v -9.14714h 0.453543v 9.14714h 1.81417v -18.2943h 0.453543v 18.2943h 0.907087v -9.14714h 0.453543v 9.14714h 1.36063v -9.14714h 0.453543v 9.14714h 0.453543v -9.14714h 0.453543v 9.14714h 1.36063v -9.14714h 0.453543v 9.14714h 0.907087v
 -9.14714h 0.907087v 9.14714h 0.453543v -9.14714h 0.453543v 9.14714h 0.453543v -9.14714h 1.36063v 9.14714h 2.26772v -18.2943h 0.453543v 9.14714h 0.453543v 9.14714h 1.36063v -9.14714h 0.453543v 9.14714h 0.907087v -9.14714h 0.453543v 9.14714h 0.453543v
 -9.14714h 0.453543v 9.14714h 2.26772v -9.14714h 0.453543v 9.14714h 1.36063v -9.14714h 0.453543v 9.14714h 0.453543v -9.14714h 0.453543v 9.14714h 2.26772v -9.14714h 0.907087v 9.14714h 3.62835v -9.14714h 0.453543v 9.14714h 1.36063v -9.14714h 0.453543v
 9.14714h 2.26772v -9.14714h 0.907087v 9.14714h 1.81417v -9.14714h 0.907087v 9.14714h 1.36063v -18.2943h 0.453543v 18.2943h 0.907087v -9.14714h 1.36063v 9.14714h 0.453543v -27.4414h 0.453543v 27.4414h 3.62835v -9.14714h 0.453543v -9.14714h 0.453543v
 9.14714h 0.453543v 9.14714h 1.81417v -9.14714h 0.453543v -9.14714h 0.453543v 18.2943h 0.453543v -9.14714h 1.36063v 9.14714h 3.1748v -9.14714h 0.453543v 9.14714h 1.36063v -9.14714h 0.453543v 9.14714h 0.453543v -9.14714h 1.36063v 9.14714h 2.26772v
 -9.14714h 0.453543v 9.14714h 2.26772v -9.14714h 0.907087v 9.14714h 2.72126v -9.14714h 0.453543v 9.14714h 5.44252v -18.2943h 0.453543v 9.14714h 0.453543v 9.14714h 18.1417v -9.14714h 0.453543v 9.14714h 5.89606v -9.14714h 0.453543v 9.14714h 18.5953v
 -9.14714h 0.453543v 9.14714h 166.45" fill="none" stroke="#000099"/>
<rect x="442.705" y="24.9717" width="113.386" height="61.4688" fill="white"/>
<path d="M442.705,86.4405h 113.386" fill="none" stroke="black"/>
<path d="M556.091,86.4405v -61.4688" fill="none" stroke="black"/>
<path d="M556.091,24.9717h -113.386" fill="none" stroke="black"/>
<path d="M442.705,24.9717v 61.4688" fill="none" stroke="black"/>
<text xml:space="preserve" x="488.644" y="37.3621" fill="black" font-size="13.4705" font-family="Helvetica">hist</text>
<path d="M442.705,40.3389h 113.386" fill="none" stroke="black"/>
<text xml:space="preserve" x="448.033" y="51.982" fill="black" font-size="11.1921" font-family="Helvetica">Entries </text>
<text xml:space="preserve" x="524.382" y="51.982" fill="black" font-size="11.1921" font-family="Helvetica"> 2155</text>
<text xml:space="preserve" x="448.033" y="67.4142" fill="black" font-size="11.1921" font-family="Helvetica">Mean  </text>
<text xml:space="preserve" x="503.264" y="67.4142" fill="black" font-size="11.1921" font-family="Helvetica"> 6.52e+04</text>
<text xml:space="preserve" x="448.033" y="82.0342" fill="black" font-size="11.1921" font-family="Helvetica">Std Dev   </text>
<text xml:space="preserve" x="497.578" y="82.0342" fill="black" font-size="11.1921" font-family="Helvetica"> 1.984e+05</text>
<path d="M57.1929,345.762h 453.543" fill="none" stroke="black"/>
<path d="M57.1929,336.541v 9.22031" fill="none" stroke="black"/>
<path d="M68.5315,341.152v 4.61016" fill="none" stroke="black"/>
<path d="M79.8701,341.152v 4.61016" fill="none" stroke="black"/>
<path d="M91.2087,341.152v 4.61016" fill="none" stroke="black"/>
<path d="M102.547,341.152v 4.61016" fill="none" stroke="black"/>
<path d="M113.886,336.541v 9.22031" fill="none" stroke="black"/>
<path d="M125.224,341.152v 4.61016" fill="none" stroke="black"/>
<path d="M136.563,341.152v 4.61016" fill="none" stroke="black"/>
<path d="M147.902,341.152v 4.61016" fill="none" stroke="black"/>
<path d="M159.24,341.152v 4.61016" fill="none" stroke="black"/>
<path d="M170.579,336.541v 9.22031" fill="none" stroke="black"/>
<path d="M181.917,341.152v 4.61016" fill="none" stroke="black"/>
<path d="M193.256,341.152v 4.61016" fill="none" stroke="black"/>
<path d="M204.594,341.152v 4.61016" fill="none" stroke="black"/>
<path d="M215.933,341.152v 4.61016" fill="none" stroke="black"/>
<path d="M227.272,336.541v 9.22031" fill="none" stroke="black"/>
<path d="M238.61,341.152v 4.61016" fill="none" stroke="black"/>
<path d="M249.949,341.152v 4.61016" fill="none" stroke="black"/>
<path d="M261.287,341.152v 4.61016" fill="none" stroke="black"/>
<path d="M272.626,341.152v 4.61016" fill="none" stroke="black"/>
<path d="M283.965,336.541v 9.22031" fill="none" stroke="black"/>
<path d="M295.303,341.152v 4.61016" fill="none" stroke="black"/>
<path d="M306.642,341.152v 4.61016" fill="none" stroke="black"/>
<path d="M317.98,341.152v 4.61016" fill="none" stroke="black"/>
<path d="M329.319,341.152v 4.61016" fill="none" stroke="black"/>
<path d="M340.657,336.541v 9.22031" fill="none" stroke="black"/>
<path d="M351.996,341.152v 4.61016" fill="none" stroke="black"/>
<path d="M363.335,341.152v 4.61016" fill="none" stroke="black"/>
<path d="M374.673,341.152v 4.61016" fill="none" stroke="black"/>
<path d="M386.012,341.152v 4.61016" fill="none" stroke="black"/>
<path d="M397.35,336.541v 9.22031" fill="none" stroke="black"/>
<path d="M408.689,341.152v 4.61016" fill="none" stroke="black"/>
<path d="M420.028,341.152v 4.61016" fill="none" stroke="black"/>
<path d="M431.366,341.152v 4.61016" fill="none" stroke="black"/>
<path d="M442.705,341.152v 4.61016" fill="none" stroke="black"/>
<path d="M454.043,336.541v 9.22031" fill="none" stroke="black"/>
<path d="M465.382,341.152v 4.61016" fill="none" stroke="black"/>
<path d="M476.72,341.152v 4.61016" fill="none" stroke="black"/>
<path d="M488.059,341.152v 4.61016" fill="none" stroke="black"/>
<path d="M499.398,341.152v 4.61016" fill="none" stroke="black"/>
<path d="M510.736,336.541v 9.22031" fill="none" stroke="black"/>
<text xml:space="preserve" x="45.9843" y="358.189" fill="black" font-size="12.836" font-family="Helvetica">1000</text>
<text xml:space="preserve" x="39.4865" y="358.189" fill="black" font-size="12.836" font-family="Times">&#8722;</text>
<text xml:space="preserve" x="106.089" y="358.189" fill="black" font-size="12.836" font-family="Helvetica">500</text>
<text xml:space="preserve" x="99.5908" y="358.189" fill="black" font-size="12.836" font-family="Times">&#8722;</text>
<text xml:space="preserve" x="167.005" y="358.189" fill="black" font-size="12.836" font-family="Helvetica">0</text>
<text xml:space="preserve" x="216.55" y="358.189" fill="black" font-size="12.836" font-family="Helvetica">500</text>
<text xml:space="preserve" x="270.157" y="358.189" fill="black" font-size="12.836" font-family="Helvetica">1000</text>
<text xml:space="preserve" x="326.2" y="358.189" fill="black" font-size="12.836" font-family="Helvetica">1500</text>
<text xml:space="preserve" x="383.055" y="358.189" fill="black" font-size="12.836" font-family="Helvetica">2000</text>
<text xml:space="preserve" x="439.911" y="358.189" fill="black" font-size="12.836" font-family="Helvetica">2500</text>
<text xml:space="preserve" x="496.766" y="358.189" fill="black" font-size="12.836" font-family="Helvetica">3000</text>
<text xml:space="preserve" x="531.691" y="338.695" fill="black" font-size="8.72403" font-family="Helvetica">3</text>
<text xml:space="preserve" x="518.696" y="345.193" fill="black" font-size="12.836" font-family="Helvetica">10</text>
<text xml:space="preserve" x="512.198" y="345.193" fill="black" font-size="12.836" font-family="Times">&#0215;</text>
<text xml:space="preserve" x="446.408" y="370.372" fill="black" font-size="12.836" font-family="Helvetica">Energy[eV] </text>
<path d="M57.1929,345.762v -307.344" fill="none" stroke="black"/>
<path d="M70.7992,345.762h -13.6063" fill="none" stroke="black"/>
<path d="M63.9961,336.615h -6.80315" fill="none" stroke="black"/>
<path d="M63.9961,327.468h -6.80315" fill="none" stroke="black"/>
<path d="M63.9961,318.32h -6.80315" fill="none" stroke="black"/>
<path d="M63.9961,309.173h -6.80315" fill="none" stroke="black"/>
<path d="M70.7992,300.026h -13.6063" fill="none" stroke="black"/>
<path d="M63.9961,290.879h -6.80315" fill="none" stroke="black"/>
<path d="M63.9961,281.732h -6.80315" fill="none" stroke="black"/>
<path d="M63.9961,272.585h -6.80315" fill="none" stroke="black"/>
<path d="M63.9961,263.438h -6.80315" fill="none" stroke="black"/>
<path d="M70.7992,254.29h -13.6063" fill="none" stroke="black"/>
<path d="M63.9961,245.143h -6.80315" fill="none" stroke="black"/>
<path d="M63.9961,235.996h -6.80315" fill="none" stroke="black"/>
<path d="M63.9961,226.849h -6.80315" fill="none" stroke="black"/>
<path d="M63.9961,217.702h -6.80315" fill="none" stroke="black"/>
<path d="M70.7992,208.555h -13.6063" fill="none" stroke="black"/>
<path d="M63.9961,199.408h -6.80315" fill="none" stroke="black"/>
<path d="M63.9961,190.26h -6.80315" fill="none" stroke="black"/>
<path d="M63.9961,181.113h -6.80315" fill="none" stroke="black"/>
<path d="M63.9961,171.966h -6.80315" fill="none" stroke="black"/>
<path d="M70.7992,162.819h -13.6063" fill="none" stroke="black"/>
<path d="M63.9961,153.672h -6.80315" fill="none" stroke="black"/>
<path d="M63.9961,144.525h -6.80315" fill="none" stroke="black"/>
<path d="M63.9961,135.378h -6.80315" fill="none" stroke="black"/>
<path d="M63.9961,126.23h -6.80315" fill="none" stroke="black"/>
<path d="M70.7992,117.083h -13.6063" fill="none" stroke="black"/>
<path d="M63.9961,107.936h -6.80315" fill="none" stroke="black"/>
<path d="M63.9961,98.7891h -6.80315" fill="none" stroke="black"/>
<path d="M63.9961,89.642h -6.80315" fill="none" stroke="black"/>
<path d="M63.9961,80.4948h -6.80315" fill="none" stroke="black"/>
<path d="M70.7992,71.3477h -13.6063" fill="none" stroke="black"/>
<path d="M70.7992,71.3477h -13.6063" fill="none" stroke="black"/>
<path d="M63.9961,62.2005h -6.80315" fill="none" stroke="black"/>
<path d="M63.9961,53.0534h -6.80315" fill="none" stroke="black"/>
<path d="M63.9961,43.9063h -6.80315" fill="none" stroke="black"/>
<text xml:space="preserve" x="47.6087" y="350.067" fill="black" font-size="12.836" font-family="Helvetica">0</text>
<text xml:space="preserve" x="47.6087" y="304.582" fill="black" font-size="12.836" font-family="Helvetica">5</text>
<text xml:space="preserve" x="41.111" y="259.098" fill="black" font-size="12.836" font-family="Helvetica">10</text>
<text xml:space="preserve" x="40.2988" y="212.801" fill="black" font-size="12.836" font-family="Helvetica">15</text>
<text xml:space="preserve" x="41.111" y="167.317" fill="black" font-size="12.836" font-family="Helvetica">20</text>
<text xml:space="preserve" x="40.2988" y="121.833" fill="black" font-size="12.836" font-family="Helvetica">25</text>
<text xml:space="preserve" x="41.111" y="75.5364" fill="black" font-size="12.836" font-family="Helvetica">30</text>
<g transform="rotate(-90,28.1155,76.3486)">
<text xml:space="preserve" x="28.1155" y="76.3486" fill="black" font-size="12.836" font-family="Helvetica">Counts</text>
</g>
<rect x="442.705" y="24.9717" width="113.386" height="61.4688" fill="white"/>
<path d="M442.705,86.4405h 113.386" fill="none" stroke="black"/>
<path d="M556.091,86.4405v -61.4688" fill="none" stroke="black"/>
<path d="M556.091,24.9717h -113.386" fill="none" stroke="black"/>
<path d="M442.705,24.9717v 61.4688" fill="none" stroke="black"/>
<text xml:space="preserve" x="488.644" y="37.3621" fill="black" font-size="13.4705" font-family="Helvetica">hist</text>
<path d="M442.705,40.3389h 113.386" fill="none" stroke="black"/>
<text xml:space="preserve" x="448.033" y="51.982" fill="black" font-size="11.1921" font-family="Helvetica">Entries </text>
<text xml:space="preserve" x="524.382" y="51.982" fill="black" font-size="11.1921" font-family="Helvetica"> 2155</text>
<text xml:space="preserve" x="448.033" y="67.4142" fill="black" font-size="11.1921" font-family="Helvetica">Mean  </text>
<text xml:space="preserve" x="503.264" y="67.4142" fill="black" font-size="11.1921" font-family="Helvetica"> 6.52e+04</text>
<text xml:space="preserve" x="448.033" y="82.0342" fill="black" font-size="11.1921" font-family="Helvetica">Std Dev   </text>
<text xml:space="preserve" x="497.578" y="82.0342" fill="black" font-size="11.1921" font-family="Helvetica"> 1.984e+05</text>
<text xml:space="preserve" x="218.987" y="18.681" fill="black" font-size="16.9774" font-family="Helvetica">Na at detector A </text></svg>
