<?xml version="1.0" standalone="no"?>
<svg width="567.429" height="384.68" viewBox="0 0 567.429 384.68" xmlns="http://www.w3.org/2000/svg" shape-rendering="crispEdges">
<title>
img/main_mesurement/Na_B.svg
</title>
<desc>
Creator: ROOT Version 6.22/09
CreationDate: Tue Jun  8 15:09:50 2021</desc>
<defs>
</defs>
<rect x="0.5" y="0" width="566.929" height="384.18" fill="white"/>
<rect x="57.1929" y="38.418" width="453.543" height="307.344" fill="white"/>
<rect x="57.1929" y="38.418" width="453.543" height="307.344" fill="none" stroke="black"/>
<rect x="57.1929" y="38.418" width="453.543" height="307.344" fill="white"/>
<rect x="57.1929" y="38.418" width="453.543" height="307.344" fill="none" stroke="black"/>
<path d="M57.1929,345.762h 4.08189v -2.7877h 0.453543v 2.7877h 0.907087v -2.7877h 0.453543v 2.7877h 6.80315v -2.7877h 0.453543v 2.7877h 1.81417v -2.7877h 0.453543v 2.7877h 3.62835v -2.7877h 0.907087v 2.7877h 2.26772v -5.5754h 0.907087v 5.5754h
 0.907087v -5.5754h 0.453543v -5.5754h 0.453543v 5.5754h 0.453543v -2.7877h 0.907087v 5.5754h 0.453543v -5.5754h 0.907087v -5.5754h 0.453543v -2.7877h 0.453543v -8.3631h 0.907087v 11.1508h 0.453543v -2.7877h 0.453543v -16.7262h 0.453543v -8.3631h
 0.453543v 5.5754h 0.453543v -8.3631h 0.453543v -13.9385h 0.453543v -8.3631h 0.453543v 19.5139h 0.453543v -22.3016h 0.453543v 16.7262h 0.453543v -33.4524h 0.453543v 22.3016h 0.453543v 5.5754h 0.453543v -2.7877h 0.453543v -33.4524h 0.453543v 19.5139h
 0.453543v -19.5139h 0.453543v 27.877h 0.453543v -27.877h 0.453543v 19.5139h 0.907087v 2.7877h 0.453543v 11.1508h 0.453543v -16.7262h 0.453543v 16.7262h 0.453543v -30.6647h 0.453543v 13.9385h 0.453543v 19.5139h 0.453543v -22.3016h 0.453543v 13.9385h
 0.453543v 2.7877h 0.453543v -8.3631h 0.453543v -8.3631h 0.453543v 5.5754h 0.907087v -19.5139h 0.453543v -13.9385h 0.453543v -13.9385h 0.453543v 69.6925h 0.453543v -44.6032h 0.453543v 25.0893h 0.453543v -19.5139h 0.453543v 2.7877h 0.453543v 13.9385h
 0.453543v -39.0278h 0.453543v 19.5139h 0.453543v 13.9385h 0.453543v -19.5139h 0.453543v 2.7877h 0.453543v 2.7877h 0.453543v -19.5139h 0.453543v 33.4524h 0.453543v -19.5139h 0.453543v -5.5754h 0.453543v 8.3631h 0.453543v -11.1508h 0.453543v -5.5754h
 0.453543v -27.877h 0.453543v -5.5754h 0.453543v 11.1508h 0.453543v 22.3016h 0.453543v -39.0278h 0.453543v -19.5139h 0.453543v -27.877h 0.453543v 22.3016h 0.453543v -11.1508h 0.907087v -25.0893h 0.453543v -2.7877h 0.453543v -55.754h 0.453543v
 13.9385h 0.453543v -16.7262h 0.453543v 8.3631h 0.453543v -25.0893h 0.453543v 44.6032h 0.453543v 27.877h 0.453543v -30.6647h 0.453543v 5.5754h 0.453543v -44.6032h 0.453543v 80.8433h 0.453543v -47.3909h 0.453543v 8.3631h 0.907087v -25.0893h 0.453543v
 83.631h 0.453543v 11.1508h 0.453543v -19.5139h 0.453543v 2.7877h 0.453543v 25.0893h 0.453543v -5.5754h 0.907087v 16.7262h 0.453543v 50.1786h 0.453543v 11.1508h 0.453543v -22.3016h 0.453543v 22.3016h 0.453543v -33.4524h 0.453543v 66.9048h 0.453543v
 -33.4524h 0.453543v 41.8155h 0.453543v 8.3631h 0.453543v 2.7877h 0.453543v -5.5754h 0.453543v 2.7877h 0.453543v 16.7262h 0.453543v 5.5754h 0.453543v -8.3631h 0.453543v 16.7262h 0.453543v -11.1508h 0.453543v 11.1508h 0.453543v -2.7877h 0.453543v
 -5.5754h 0.453543v -2.7877h 0.907087v 16.7262h 0.453543v -8.3631h 0.453543v -5.5754h 0.453543v 13.9385h 0.453543v 2.7877h 0.453543v -2.7877h 0.453543v -11.1508h 0.453543v 8.3631h 0.453543v 8.3631h 0.453543v -5.5754h 0.453543v -8.3631h 0.453543v
 5.5754h 0.453543v 2.7877h 0.453543v -11.1508h 0.453543v 8.3631h 0.453543v 5.5754h 0.453543v 2.7877h 0.453543v -2.7877h 0.453543v -2.7877h 0.453543v 2.7877h 0.453543v -8.3631h 0.453543v 2.7877h 0.453543v 5.5754h 0.907087v 5.5754h 0.453543v -16.7262h
 0.453543v 2.7877h 0.453543v -5.5754h 0.453543v 13.9385h 0.453543v -11.1508h 0.453543v 11.1508h 0.453543v -2.7877h 0.453543v 8.3631h 0.453543v -5.5754h 0.907087v 5.5754h 0.453543v -11.1508h 0.453543v -2.7877h 0.453543v 13.9385h 0.453543v -5.5754h
 0.453543v 2.7877h 0.453543v 5.5754h 0.453543v -5.5754h 0.453543v -5.5754h 0.453543v 5.5754h 0.453543v 2.7877h 0.453543v -8.3631h 0.453543v 11.1508h 0.453543v -11.1508h 0.453543v 2.7877h 0.453543v 8.3631h 0.453543v -5.5754h 0.453543v -5.5754h
 0.453543v 11.1508h 0.907087v -2.7877h 0.453543v -2.7877h 0.453543v 2.7877h 0.453543v 2.7877h 0.453543v -2.7877h 0.453543v -2.7877h 0.453543v 5.5754h 0.907087v -2.7877h 0.453543v -2.7877h 0.453543v 5.5754h 0.453543v -5.5754h 0.453543v 2.7877h
 0.453543v 2.7877h 2.72126v -5.5754h 0.453543v 5.5754h 0.453543v -2.7877h 0.453543v -2.7877h 0.907087v 2.7877h 0.453543v -2.7877h 0.453543v 5.5754h 1.36063v -2.7877h 0.907087v -2.7877h 0.453543v 5.5754h 1.36063v -2.7877h 0.453543v 2.7877h 3.1748v
 -2.7877h 0.453543v 2.7877h 0.453543v -2.7877h 0.453543v 2.7877h 0.453543v -2.7877h 0.453543v 2.7877h 0.907087v -2.7877h 0.453543v 2.7877h 0.907087v -2.7877h 0.907087v 2.7877h 0.453543v -2.7877h 0.453543v 2.7877h 0.453543v -2.7877h 0.453543v 2.7877h
 0.907087v -2.7877h 0.907087v 2.7877h 1.36063v -11.1508h 0.453543v 8.3631h 0.453543v 2.7877h 0.453543v -2.7877h 0.453543v 2.7877h 2.26772v -5.5754h 0.453543v 5.5754h 4.08189v -2.7877h 0.453543v 2.7877h 0.453543v -2.7877h 0.453543v 2.7877h 1.81417v
 -2.7877h 0.453543v 2.7877h 1.36063v -2.7877h 0.453543v 2.7877h 3.62835v -2.7877h 0.907087v 2.7877h 0.453543v -2.7877h 0.453543v 2.7877h 4.98898v -2.7877h 0.453543v 2.7877h 0.453543v -5.5754h 0.453543v 5.5754h 2.26772v -2.7877h 0.453543v 2.7877h
 0.453543v -2.7877h 0.453543v 2.7877h 3.62835v -2.7877h 0.453543v 2.7877h 0.453543v -2.7877h 0.453543v 2.7877h 7.25669v -5.5754h 0.453543v 5.5754h 3.1748v -2.7877h 0.453543v 2.7877h 0.453543v -2.7877h 0.907087v 2.7877h 10.4315v -2.7877h 0.907087v
 -2.7877h 0.453543v 2.7877h 0.907087v 2.7877h 19.0488v -2.7877h 0.453543v 2.7877h 8.16378v -2.7877h 0.453543v 2.7877h 8.61732v -2.7877h 0.453543v 2.7877h 4.98898v -2.7877h 0.453543v 2.7877h 4.98898v -2.7877h 0.453543v 2.7877h 9.52441v -2.7877h
 0.453543v 2.7877h 1.36063v -2.7877h 0.453543v 2.7877h 4.53543v -2.7877h 0.453543v 2.7877h 10.4315v -2.7877h 0.453543v 2.7877h 13.1528v -2.7877h 0.453543v 2.7877h 23.1307v -2.7877h 0.453543v 2.7877h 1.36063v -2.7877h 0.453543v 2.7877h 14.0598v
 -2.7877h 0.453543v 2.7877h 33.5622v -2.7877h 0.453543v 2.7877h 7.71024v -2.7877h 0.907087v 2.7877h 85.2661" fill="none" stroke="#000099"/>
<path d="M115.113,179.888l 0.252583, -5.78701l 0.252583, -5.73768l 0.252583, -5.67021l 0.252583, -5.58428l 0.252583, -5.47969l 0.252583, -5.35635l 0.252583, -5.21424l 0.252583, -5.05348l 0.252583, -4.87427l 0.252583, -4.67696l 0.252583, -4.46198l
 0.252583, -4.22987l 0.252583, -3.9813l 0.252583, -3.71704l 0.252583, -3.43793l 0.252583, -3.14497l 0.252583, -2.8392l 0.252583, -2.52176l 0.252583, -2.1939l 0.252583, -1.85689l 0.252583, -1.51211l 0.252583, -1.16097l 0.252583, -0.804924l 0.252583,
 -0.445474l 0.252583, -0.0841352l 0.252583, 0.27756l 0.252583, 0.638079l 0.252583, 0.995894l 0.252583, 1.3495l 0.252583, 1.69742l 0.252583, 2.03821l 0.252583, 2.3705l 0.252583, 2.69294l 0.252583, 3.00428l 0.252583, 3.30334l 0.252583, 3.58902l
 0.252583, 3.8603l 0.252583, 4.11627l 0.252583, 4.35612l 0.252583, 4.57914l 0.252583, 4.78474l 0.252583, 4.97241l 0.252583, 5.14178l 0.252583, 5.29258l 0.252583, 5.42466l 0.252583, 5.53797l 0.252583, 5.63255l 0.252583, 5.70858l 0.252583, 5.76631"
 fill="none" stroke="#ff0000" stroke-width="2"/>
<path d="M127.49,177.191l 0.252583, 5.80609l 0.252583, 5.82835l 0.252583, 5.83364l 0.252583, 5.82253l 0.252583, 5.7957l 0.252583, 5.75388l 0.252583, 5.69784l 0.252583, 5.62842l 0.252583, 5.54648l 0.252583, 5.45292l 0.252583, 5.34867l 0.252583,
 5.23465l 0.252583, 5.11182l 0.252583, 4.98113l 0.252583, 4.84352l 0.252583, 4.69992l 0.252583, 4.55126l 0.252583, 4.39841l 0.252583, 4.24225l 0.252583, 4.08362l 0.252583, 3.92331l 0.252583, 3.76209l 0.252583, 3.60067l 0.252583, 3.43973l 0.252583,
 3.2799l 0.252583, 3.12176l 0.252583, 2.96585l 0.252583, 2.81265l 0.252583, 2.66259l 0.252583, 2.51608l 0.252583, 2.37344l 0.252583, 2.23498l 0.252583, 2.10094l 0.252583, 1.97154l 0.252583, 1.84693l 0.252583, 1.72726l 0.252583, 1.61261l 0.252583,
 1.50302l 0.252583, 1.39854l 0.252583, 1.29915l 0.252583, 1.20483l 0.252583, 1.1155l 0.252583, 1.0311l 0.252583, 0.951522l 0.252583, 0.876655l 0.252583, 0.806365l 0.252583, 0.74051l 0.252583, 0.678936l 0.252583, 0.621482" fill="none" stroke="#ff0000"
 stroke-width="2"/>
<path d="M139.867,340.032l 0.252583, 0.567977" fill="none" stroke="#ff0000" stroke-width="2"/>
<rect x="442.705" y="24.9717" width="113.386" height="61.4688" fill="white"/>
<path d="M442.705,86.4405h 113.386" fill="none" stroke="black"/>
<path d="M556.091,86.4405v -61.4688" fill="none" stroke="black"/>
<path d="M556.091,24.9717h -113.386" fill="none" stroke="black"/>
<path d="M442.705,24.9717v 61.4688" fill="none" stroke="black"/>
<text xml:space="preserve" x="488.644" y="37.3621" fill="black" font-size="13.4705" font-family="Helvetica">hist</text>
<path d="M442.705,40.3389h 113.386" fill="none" stroke="black"/>
<text xml:space="preserve" x="448.033" y="52.7943" fill="black" font-size="13.0884" font-family="Helvetica">Entries </text>
<text xml:space="preserve" x="517.884" y="52.7943" fill="black" font-size="13.0884" font-family="Helvetica"> 5097</text>
<text xml:space="preserve" x="448.033" y="68.2264" fill="black" font-size="13.0884" font-family="Helvetica">Mean  </text>
<text xml:space="preserve" x="510.574" y="68.2264" fill="black" font-size="13.0884" font-family="Helvetica">  404.3</text>
<text xml:space="preserve" x="448.033" y="82.8464" fill="black" font-size="13.0884" font-family="Helvetica">Std Dev   </text>
<text xml:space="preserve" x="510.574" y="82.8464" fill="black" font-size="13.0884" font-family="Helvetica">  140.7</text>
<path d="M57.1929,345.762h 453.543" fill="none" stroke="black"/>
<path d="M64.4705,336.541v 9.22031" fill="none" stroke="black"/>
<path d="M77.0996,341.152v 4.61016" fill="none" stroke="black"/>
<path d="M89.7288,341.152v 4.61016" fill="none" stroke="black"/>
<path d="M102.358,341.152v 4.61016" fill="none" stroke="black"/>
<path d="M114.987,336.541v 9.22031" fill="none" stroke="black"/>
<path d="M127.616,341.152v 4.61016" fill="none" stroke="black"/>
<path d="M140.245,341.152v 4.61016" fill="none" stroke="black"/>
<path d="M152.875,341.152v 4.61016" fill="none" stroke="black"/>
<path d="M165.504,336.541v 9.22031" fill="none" stroke="black"/>
<path d="M178.133,341.152v 4.61016" fill="none" stroke="black"/>
<path d="M190.762,341.152v 4.61016" fill="none" stroke="black"/>
<path d="M203.391,341.152v 4.61016" fill="none" stroke="black"/>
<path d="M216.02,336.541v 9.22031" fill="none" stroke="black"/>
<path d="M228.649,341.152v 4.61016" fill="none" stroke="black"/>
<path d="M241.279,341.152v 4.61016" fill="none" stroke="black"/>
<path d="M253.908,341.152v 4.61016" fill="none" stroke="black"/>
<path d="M266.537,336.541v 9.22031" fill="none" stroke="black"/>
<path d="M279.166,341.152v 4.61016" fill="none" stroke="black"/>
<path d="M291.795,341.152v 4.61016" fill="none" stroke="black"/>
<path d="M304.424,341.152v 4.61016" fill="none" stroke="black"/>
<path d="M317.053,336.541v 9.22031" fill="none" stroke="black"/>
<path d="M329.683,341.152v 4.61016" fill="none" stroke="black"/>
<path d="M342.312,341.152v 4.61016" fill="none" stroke="black"/>
<path d="M354.941,341.152v 4.61016" fill="none" stroke="black"/>
<path d="M367.57,336.541v 9.22031" fill="none" stroke="black"/>
<path d="M380.199,341.152v 4.61016" fill="none" stroke="black"/>
<path d="M392.828,341.152v 4.61016" fill="none" stroke="black"/>
<path d="M405.458,341.152v 4.61016" fill="none" stroke="black"/>
<path d="M418.087,336.541v 9.22031" fill="none" stroke="black"/>
<path d="M430.716,341.152v 4.61016" fill="none" stroke="black"/>
<path d="M443.345,341.152v 4.61016" fill="none" stroke="black"/>
<path d="M455.974,341.152v 4.61016" fill="none" stroke="black"/>
<path d="M468.603,336.541v 9.22031" fill="none" stroke="black"/>
<path d="M64.4705,336.541v 9.22031" fill="none" stroke="black"/>
<path d="M468.603,336.541v 9.22031" fill="none" stroke="black"/>
<path d="M481.232,341.152v 4.61016" fill="none" stroke="black"/>
<path d="M493.862,341.152v 4.61016" fill="none" stroke="black"/>
<path d="M506.491,341.152v 4.61016" fill="none" stroke="black"/>
<text xml:space="preserve" x="60.6042" y="358.189" fill="black" font-size="12.836" font-family="Helvetica">0</text>
<text xml:space="preserve" x="103.652" y="358.189" fill="black" font-size="12.836" font-family="Helvetica">200</text>
<text xml:space="preserve" x="154.822" y="358.189" fill="black" font-size="12.836" font-family="Helvetica">400</text>
<text xml:space="preserve" x="205.179" y="358.189" fill="black" font-size="12.836" font-family="Helvetica">600</text>
<text xml:space="preserve" x="255.537" y="358.189" fill="black" font-size="12.836" font-family="Helvetica">800</text>
<text xml:space="preserve" x="302.646" y="358.189" fill="black" font-size="12.836" font-family="Helvetica">1000</text>
<text xml:space="preserve" x="353.003" y="358.189" fill="black" font-size="12.836" font-family="Helvetica">1200</text>
<text xml:space="preserve" x="404.173" y="358.189" fill="black" font-size="12.836" font-family="Helvetica">1400</text>
<text xml:space="preserve" x="454.531" y="358.189" fill="black" font-size="12.836" font-family="Helvetica">1600</text>
<text xml:space="preserve" x="531.691" y="338.695" fill="black" font-size="8.72403" font-family="Helvetica">3</text>
<text xml:space="preserve" x="518.696" y="345.193" fill="black" font-size="12.836" font-family="Helvetica">10</text>
<text xml:space="preserve" x="512.198" y="345.193" fill="black" font-size="12.836" font-family="Times">&#0215;</text>
<text xml:space="preserve" x="440.723" y="370.372" fill="black" font-size="12.836" font-family="Helvetica">Energy[keV] </text>
<path d="M57.1929,345.762v -307.344" fill="none" stroke="black"/>
<path d="M70.7992,345.762h -13.6063" fill="none" stroke="black"/>
<path d="M63.9961,331.823h -6.80315" fill="none" stroke="black"/>
<path d="M63.9961,317.885h -6.80315" fill="none" stroke="black"/>
<path d="M63.9961,303.946h -6.80315" fill="none" stroke="black"/>
<path d="M70.7992,290.008h -13.6063" fill="none" stroke="black"/>
<path d="M63.9961,276.069h -6.80315" fill="none" stroke="black"/>
<path d="M63.9961,262.131h -6.80315" fill="none" stroke="black"/>
<path d="M63.9961,248.192h -6.80315" fill="none" stroke="black"/>
<path d="M70.7992,234.254h -13.6063" fill="none" stroke="black"/>
<path d="M63.9961,220.315h -6.80315" fill="none" stroke="black"/>
<path d="M63.9961,206.377h -6.80315" fill="none" stroke="black"/>
<path d="M63.9961,192.438h -6.80315" fill="none" stroke="black"/>
<path d="M70.7992,178.5h -13.6063" fill="none" stroke="black"/>
<path d="M63.9961,164.561h -6.80315" fill="none" stroke="black"/>
<path d="M63.9961,150.623h -6.80315" fill="none" stroke="black"/>
<path d="M63.9961,136.684h -6.80315" fill="none" stroke="black"/>
<path d="M70.7992,122.746h -13.6063" fill="none" stroke="black"/>
<path d="M63.9961,108.807h -6.80315" fill="none" stroke="black"/>
<path d="M63.9961,94.8689h -6.80315" fill="none" stroke="black"/>
<path d="M63.9961,80.9304h -6.80315" fill="none" stroke="black"/>
<path d="M70.7992,66.9919h -13.6063" fill="none" stroke="black"/>
<path d="M70.7992,66.9919h -13.6063" fill="none" stroke="black"/>
<path d="M63.9961,53.0534h -6.80315" fill="none" stroke="black"/>
<path d="M63.9961,39.1149h -6.80315" fill="none" stroke="black"/>
<text xml:space="preserve" x="47.6087" y="350.067" fill="black" font-size="12.836" font-family="Helvetica">0</text>
<text xml:space="preserve" x="41.111" y="294.836" fill="black" font-size="12.836" font-family="Helvetica">20</text>
<text xml:space="preserve" x="41.111" y="238.793" fill="black" font-size="12.836" font-family="Helvetica">40</text>
<text xml:space="preserve" x="41.111" y="182.749" fill="black" font-size="12.836" font-family="Helvetica">60</text>
<text xml:space="preserve" x="41.111" y="127.518" fill="black" font-size="12.836" font-family="Helvetica">80</text>
<text xml:space="preserve" x="33.801" y="71.4753" fill="black" font-size="12.836" font-family="Helvetica">100</text>
<g transform="rotate(-90,21.6177,76.3486)">
<text xml:space="preserve" x="21.6177" y="76.3486" fill="black" font-size="12.836" font-family="Helvetica">Counts</text>
</g>
<rect x="442.705" y="24.9717" width="113.386" height="61.4688" fill="white"/>
<path d="M442.705,86.4405h 113.386" fill="none" stroke="black"/>
<path d="M556.091,86.4405v -61.4688" fill="none" stroke="black"/>
<path d="M556.091,24.9717h -113.386" fill="none" stroke="black"/>
<path d="M442.705,24.9717v 61.4688" fill="none" stroke="black"/>
<text xml:space="preserve" x="488.644" y="37.3621" fill="black" font-size="13.4705" font-family="Helvetica">hist</text>
<path d="M442.705,40.3389h 113.386" fill="none" stroke="black"/>
<text xml:space="preserve" x="448.033" y="52.7943" fill="black" font-size="13.0884" font-family="Helvetica">Entries </text>
<text xml:space="preserve" x="517.884" y="52.7943" fill="black" font-size="13.0884" font-family="Helvetica"> 5097</text>
<text xml:space="preserve" x="448.033" y="68.2264" fill="black" font-size="13.0884" font-family="Helvetica">Mean  </text>
<text xml:space="preserve" x="510.574" y="68.2264" fill="black" font-size="13.0884" font-family="Helvetica">  404.3</text>
<text xml:space="preserve" x="448.033" y="82.8464" fill="black" font-size="13.0884" font-family="Helvetica">Std Dev   </text>
<text xml:space="preserve" x="510.574" y="82.8464" fill="black" font-size="13.0884" font-family="Helvetica">  140.7</text>
<text xml:space="preserve" x="219.799" y="18.681" fill="black" font-size="16.9774" font-family="Helvetica">Na at detector B </text></svg>
