<?xml version="1.0" standalone="no"?>
<svg width="567.429" height="386.304" viewBox="0 0 567.429 386.304" xmlns="http://www.w3.org/2000/svg" shape-rendering="crispEdges">
<title>
img/main_mesurement/Na_B.svg
</title>
<desc>
Creator: ROOT Version 6.22/08
CreationDate: Tue Jun  8 01:39:35 2021</desc>
<defs>
</defs>
<rect x="0.5" y="0" width="566.929" height="385.804" fill="white"/>
<rect x="57.1929" y="38.5804" width="453.543" height="308.643" fill="white"/>
<rect x="57.1929" y="38.5804" width="453.543" height="308.643" fill="none" stroke="black"/>
<rect x="57.1929" y="38.5804" width="453.543" height="308.643" fill="white"/>
<rect x="57.1929" y="38.5804" width="453.543" height="308.643" fill="none" stroke="black"/>
<path d="M57.1929,347.224h 5.44252v -3.67433h 0.453543v 3.67433h 6.80315v -3.67433h 0.453543v 3.67433h 5.89606v -3.67433h 0.907087v 3.67433h 2.26772v -7.34865h 0.453543v 3.67433h 0.453543v 3.67433h 0.907087v -7.34865h 0.453543v -3.67433h 0.453543v
 3.67433h 0.453543v -3.67433h 0.453543v 3.67433h 0.453543v 3.67433h 0.453543v -3.67433h 0.907087v -7.34865h 0.453543v -3.67433h 0.453543v -11.023h 0.453543v 11.023h 0.453543v 7.34865h 0.453543v -11.023h 0.453543v -22.046h 0.453543v 7.34865h 0.453543v
 -3.67433h 0.453543v -18.3716h 0.907087v -14.6973h 0.453543v 14.6973h 0.453543v -3.67433h 0.453543v 3.67433h 0.453543v -25.7203h 0.453543v 14.6973h 0.453543v 11.023h 0.453543v -14.6973h 0.453543v -22.046h 0.453543v 14.6973h 0.453543v -18.3716h
 0.453543v 44.0919h 0.453543v -14.6973h 0.453543v -3.67433h 0.453543v 22.046h 0.453543v -25.7203h 0.453543v 22.046h 0.453543v -11.023h 0.453543v 11.023h 0.453543v -36.7433h 0.453543v 18.3716h 0.453543v 11.023h 0.453543v -29.3946h 0.453543v 14.6973h
 0.453543v 25.7203h 0.453543v -11.023h 0.453543v -14.6973h 0.453543v 3.67433h 0.907087v -40.4176h 0.907087v -22.046h 0.453543v 99.2068h 0.453543v -62.4635h 0.453543v 29.3946h 0.453543v -14.6973h 0.453543v -3.67433h 0.453543v 18.3716h 0.453543v
 -47.7662h 0.453543v 7.34865h 0.453543v 25.7203h 0.453543v -18.3716h 0.453543v 7.34865h 0.453543v 3.67433h 0.453543v -11.023h 0.453543v 22.046h 0.453543v -25.7203h 0.453543v 7.34865h 0.453543v -11.023h 0.453543v 7.34865h 0.453543v -14.6973h 0.453543v
 -25.7203h 0.453543v -18.3716h 0.453543v 47.7662h 0.453543v 18.3716h 0.453543v -44.0919h 0.453543v -33.0689h 0.453543v -33.0689h 0.453543v 25.7203h 0.453543v -18.3716h 0.453543v -18.3716h 0.453543v 11.023h 0.453543v 14.6973h 0.453543v -95.5325h
 0.453543v 11.023h 0.453543v 7.34865h 0.453543v -3.67433h 0.453543v -22.046h 0.453543v 33.0689h 0.453543v 40.4176h 0.453543v -51.4406h 0.453543v 18.3716h 0.453543v -25.7203h 0.453543v 84.5095h 0.453543v -66.1379h 0.453543v 14.6973h 0.907087v
 -44.0919h 0.453543v 110.23h 0.453543v -22.046h 0.453543v -11.023h 0.907087v 69.8122h 0.453543v -62.4635h 0.453543v 40.4176h 0.907087v 51.4406h 0.453543v 22.046h 0.453543v -36.7433h 0.453543v 22.046h 0.453543v -36.7433h 0.453543v 77.1608h 0.453543v
 -44.0919h 0.453543v 55.1149h 0.453543v 7.34865h 0.453543v 7.34865h 0.453543v -7.34865h 0.453543v -3.67433h 0.453543v 22.046h 0.453543v 3.67433h 0.453543v -14.6973h 0.453543v 18.3716h 0.453543v -11.023h 0.453543v 14.6973h 0.453543v -3.67433h
 0.453543v -3.67433h 0.907087v -3.67433h 0.453543v 18.3716h 0.453543v -7.34865h 0.453543v -3.67433h 0.453543v 14.6973h 0.907087v -3.67433h 0.453543v -7.34865h 0.453543v 3.67433h 0.453543v 7.34865h 0.453543v -3.67433h 0.453543v -7.34865h 0.453543v
 7.34865h 0.907087v -7.34865h 0.453543v 3.67433h 0.453543v 11.023h 0.453543v -3.67433h 0.453543v -3.67433h 1.36063v -7.34865h 0.453543v 3.67433h 0.453543v 3.67433h 0.453543v 7.34865h 0.907087v -18.3716h 0.453543v 3.67433h 0.453543v -3.67433h
 0.453543v 11.023h 0.907087v 7.34865h 1.36063v -3.67433h 0.907087v 3.67433h 0.453543v -11.023h 0.453543v 3.67433h 0.453543v 7.34865h 0.453543v -7.34865h 0.453543v 3.67433h 0.453543v 7.34865h 0.453543v -3.67433h 0.453543v -11.023h 0.453543v 11.023h
 0.907087v -3.67433h 0.453543v 7.34865h 0.453543v -14.6973h 0.453543v 3.67433h 0.453543v 11.023h 0.453543v -3.67433h 0.453543v -3.67433h 0.453543v 7.34865h 0.907087v -3.67433h 0.453543v -3.67433h 0.453543v 3.67433h 0.453543v 3.67433h 0.453543v
 -3.67433h 0.453543v -3.67433h 0.453543v 7.34865h 0.907087v -3.67433h 0.907087v 3.67433h 0.453543v -7.34865h 0.453543v 3.67433h 0.453543v 3.67433h 2.72126v -7.34865h 0.453543v 7.34865h 0.453543v -3.67433h 0.453543v -3.67433h 0.453543v 7.34865h
 0.453543v -3.67433h 0.907087v 3.67433h 1.36063v -3.67433h 1.36063v 3.67433h 1.36063v -3.67433h 0.453543v 3.67433h 3.1748v -3.67433h 0.453543v 3.67433h 0.453543v -3.67433h 0.453543v 3.67433h 0.453543v -3.67433h 0.453543v 3.67433h 0.907087v -3.67433h
 0.453543v 3.67433h 1.36063v -3.67433h 0.453543v 3.67433h 0.453543v -3.67433h 0.453543v 3.67433h 1.81417v -3.67433h 0.907087v 3.67433h 1.36063v -7.34865h 0.453543v 3.67433h 0.453543v 3.67433h 7.71024v -3.67433h 0.453543v 3.67433h 4.53543v -3.67433h
 0.453543v 3.67433h 4.08189v -3.67433h 0.453543v 3.67433h 0.453543v -3.67433h 0.453543v 3.67433h 4.98898v -3.67433h 0.453543v 3.67433h 0.453543v -3.67433h 0.453543v 3.67433h 2.26772v -3.67433h 0.453543v 3.67433h 0.453543v -3.67433h 0.453543v 3.67433h
 4.53543v -3.67433h 0.453543v 3.67433h 7.25669v -7.34865h 0.453543v 7.34865h 3.1748v -3.67433h 0.453543v 3.67433h 0.453543v -3.67433h 0.907087v 3.67433h 10.4315v -3.67433h 0.907087v -3.67433h 0.453543v 7.34865h 0.453543v -3.67433h 0.453543v 3.67433h
 19.0488v -3.67433h 0.453543v 3.67433h 8.16378v -3.67433h 0.453543v 3.67433h 8.61732v -3.67433h 0.453543v 3.67433h 4.98898v -3.67433h 0.453543v 3.67433h 4.98898v -3.67433h 0.453543v 3.67433h 11.3386v -3.67433h 0.453543v 3.67433h 4.53543v -3.67433h
 0.453543v 3.67433h 24.0378v -3.67433h 0.453543v 3.67433h 24.9449v -3.67433h 0.453543v 3.67433h 48.0756v -3.67433h 0.453543v 3.67433h 8.16378v -3.67433h 0.453543v 3.67433h 85.2661" fill="none" stroke="#000099"/>
<rect x="442.705" y="25.0773" width="113.386" height="61.7287" fill="white"/>
<path d="M442.705,86.8059h 113.386" fill="none" stroke="black"/>
<path d="M556.091,86.8059v -61.7287" fill="none" stroke="black"/>
<path d="M556.091,25.0773h -113.386" fill="none" stroke="black"/>
<path d="M442.705,25.0773v 61.7287" fill="none" stroke="black"/>
<text xml:space="preserve" x="488.644" y="37.3621" fill="black" font-size="13.5253" font-family="Helvetica">hist</text>
<path d="M442.705,40.5094h 113.386" fill="none" stroke="black"/>
<text xml:space="preserve" x="448.033" y="52.7943" fill="black" font-size="13.5109" font-family="Helvetica">Entries </text>
<text xml:space="preserve" x="517.884" y="52.7943" fill="black" font-size="13.5109" font-family="Helvetica"> 3895</text>
<text xml:space="preserve" x="448.033" y="68.2264" fill="black" font-size="13.5109" font-family="Helvetica">Mean  </text>
<text xml:space="preserve" x="510.574" y="68.2264" fill="black" font-size="13.5109" font-family="Helvetica">  403.6</text>
<text xml:space="preserve" x="448.033" y="84.4708" fill="black" font-size="13.5109" font-family="Helvetica">Std Dev   </text>
<text xml:space="preserve" x="510.574" y="83.6586" fill="black" font-size="13.5109" font-family="Helvetica">  135.7</text>
<path d="M57.1929,347.224h 453.543" fill="none" stroke="black"/>
<path d="M57.4455,337.964v 9.2593" fill="none" stroke="black"/>
<path d="M70.0746,342.594v 4.62965" fill="none" stroke="black"/>
<path d="M82.7038,342.594v 4.62965" fill="none" stroke="black"/>
<path d="M95.3329,342.594v 4.62965" fill="none" stroke="black"/>
<path d="M107.962,337.964v 9.2593" fill="none" stroke="black"/>
<path d="M120.591,342.594v 4.62965" fill="none" stroke="black"/>
<path d="M133.22,342.594v 4.62965" fill="none" stroke="black"/>
<path d="M145.85,342.594v 4.62965" fill="none" stroke="black"/>
<path d="M158.479,337.964v 9.2593" fill="none" stroke="black"/>
<path d="M171.108,342.594v 4.62965" fill="none" stroke="black"/>
<path d="M183.737,342.594v 4.62965" fill="none" stroke="black"/>
<path d="M196.366,342.594v 4.62965" fill="none" stroke="black"/>
<path d="M208.995,337.964v 9.2593" fill="none" stroke="black"/>
<path d="M221.624,342.594v 4.62965" fill="none" stroke="black"/>
<path d="M234.254,342.594v 4.62965" fill="none" stroke="black"/>
<path d="M246.883,342.594v 4.62965" fill="none" stroke="black"/>
<path d="M259.512,337.964v 9.2593" fill="none" stroke="black"/>
<path d="M272.141,342.594v 4.62965" fill="none" stroke="black"/>
<path d="M284.77,342.594v 4.62965" fill="none" stroke="black"/>
<path d="M297.399,342.594v 4.62965" fill="none" stroke="black"/>
<path d="M310.029,337.964v 9.2593" fill="none" stroke="black"/>
<path d="M322.658,342.594v 4.62965" fill="none" stroke="black"/>
<path d="M335.287,342.594v 4.62965" fill="none" stroke="black"/>
<path d="M347.916,342.594v 4.62965" fill="none" stroke="black"/>
<path d="M360.545,337.964v 9.2593" fill="none" stroke="black"/>
<path d="M373.174,342.594v 4.62965" fill="none" stroke="black"/>
<path d="M385.803,342.594v 4.62965" fill="none" stroke="black"/>
<path d="M398.433,342.594v 4.62965" fill="none" stroke="black"/>
<path d="M411.062,337.964v 9.2593" fill="none" stroke="black"/>
<path d="M423.691,342.594v 4.62965" fill="none" stroke="black"/>
<path d="M436.32,342.594v 4.62965" fill="none" stroke="black"/>
<path d="M448.949,342.594v 4.62965" fill="none" stroke="black"/>
<path d="M461.578,337.964v 9.2593" fill="none" stroke="black"/>
<path d="M57.4455,337.964v 9.2593" fill="none" stroke="black"/>
<path d="M461.578,337.964v 9.2593" fill="none" stroke="black"/>
<path d="M474.207,342.594v 4.62965" fill="none" stroke="black"/>
<path d="M486.837,342.594v 4.62965" fill="none" stroke="black"/>
<path d="M499.466,342.594v 4.62965" fill="none" stroke="black"/>
<text xml:space="preserve" x="53.2943" y="359.813" fill="black" font-size="12.8882" font-family="Helvetica">0</text>
<text xml:space="preserve" x="96.3419" y="359.813" fill="black" font-size="12.8882" font-family="Helvetica">200</text>
<text xml:space="preserve" x="146.699" y="359.813" fill="black" font-size="12.8882" font-family="Helvetica">400</text>
<text xml:space="preserve" x="197.057" y="359.813" fill="black" font-size="12.8882" font-family="Helvetica">600</text>
<text xml:space="preserve" x="247.415" y="359.813" fill="black" font-size="12.8882" font-family="Helvetica">800</text>
<text xml:space="preserve" x="295.336" y="359.813" fill="black" font-size="12.8882" font-family="Helvetica">1000</text>
<text xml:space="preserve" x="345.693" y="359.813" fill="black" font-size="12.8882" font-family="Helvetica">1200</text>
<text xml:space="preserve" x="396.051" y="359.813" fill="black" font-size="12.8882" font-family="Helvetica">1400</text>
<text xml:space="preserve" x="446.408" y="359.813" fill="black" font-size="12.8882" font-family="Helvetica">1600</text>
<path d="M57.1929,347.224v -308.643" fill="none" stroke="black"/>
<path d="M70.7992,347.224h -13.6063" fill="none" stroke="black"/>
<path d="M63.9961,339.875h -6.80315" fill="none" stroke="black"/>
<path d="M63.9961,332.526h -6.80315" fill="none" stroke="black"/>
<path d="M63.9961,325.178h -6.80315" fill="none" stroke="black"/>
<path d="M63.9961,317.829h -6.80315" fill="none" stroke="black"/>
<path d="M70.7992,310.481h -13.6063" fill="none" stroke="black"/>
<path d="M63.9961,303.132h -6.80315" fill="none" stroke="black"/>
<path d="M63.9961,295.783h -6.80315" fill="none" stroke="black"/>
<path d="M63.9961,288.435h -6.80315" fill="none" stroke="black"/>
<path d="M63.9961,281.086h -6.80315" fill="none" stroke="black"/>
<path d="M70.7992,273.737h -13.6063" fill="none" stroke="black"/>
<path d="M63.9961,266.389h -6.80315" fill="none" stroke="black"/>
<path d="M63.9961,259.04h -6.80315" fill="none" stroke="black"/>
<path d="M63.9961,251.691h -6.80315" fill="none" stroke="black"/>
<path d="M63.9961,244.343h -6.80315" fill="none" stroke="black"/>
<path d="M70.7992,236.994h -13.6063" fill="none" stroke="black"/>
<path d="M63.9961,229.645h -6.80315" fill="none" stroke="black"/>
<path d="M63.9961,222.297h -6.80315" fill="none" stroke="black"/>
<path d="M63.9961,214.948h -6.80315" fill="none" stroke="black"/>
<path d="M63.9961,207.599h -6.80315" fill="none" stroke="black"/>
<path d="M70.7992,200.251h -13.6063" fill="none" stroke="black"/>
<path d="M63.9961,192.902h -6.80315" fill="none" stroke="black"/>
<path d="M63.9961,185.553h -6.80315" fill="none" stroke="black"/>
<path d="M63.9961,178.205h -6.80315" fill="none" stroke="black"/>
<path d="M63.9961,170.856h -6.80315" fill="none" stroke="black"/>
<path d="M70.7992,163.508h -13.6063" fill="none" stroke="black"/>
<path d="M63.9961,156.159h -6.80315" fill="none" stroke="black"/>
<path d="M63.9961,148.81h -6.80315" fill="none" stroke="black"/>
<path d="M63.9961,141.462h -6.80315" fill="none" stroke="black"/>
<path d="M63.9961,134.113h -6.80315" fill="none" stroke="black"/>
<path d="M70.7992,126.764h -13.6063" fill="none" stroke="black"/>
<path d="M63.9961,119.416h -6.80315" fill="none" stroke="black"/>
<path d="M63.9961,112.067h -6.80315" fill="none" stroke="black"/>
<path d="M63.9961,104.718h -6.80315" fill="none" stroke="black"/>
<path d="M63.9961,97.3696h -6.80315" fill="none" stroke="black"/>
<path d="M70.7992,90.021h -13.6063" fill="none" stroke="black"/>
<path d="M63.9961,82.6723h -6.80315" fill="none" stroke="black"/>
<path d="M63.9961,75.3237h -6.80315" fill="none" stroke="black"/>
<path d="M63.9961,67.975h -6.80315" fill="none" stroke="black"/>
<path d="M63.9961,60.6264h -6.80315" fill="none" stroke="black"/>
<path d="M70.7992,53.2777h -13.6063" fill="none" stroke="black"/>
<path d="M70.7992,53.2777h -13.6063" fill="none" stroke="black"/>
<path d="M63.9961,45.9291h -6.80315" fill="none" stroke="black"/>
<path d="M63.9961,38.5804h -6.80315" fill="none" stroke="black"/>
<text xml:space="preserve" x="46.7965" y="351.691" fill="black" font-size="12.8882" font-family="Helvetica">0</text>
<text xml:space="preserve" x="39.4865" y="315.141" fill="black" font-size="12.8882" font-family="Helvetica">10</text>
<text xml:space="preserve" x="39.4865" y="278.591" fill="black" font-size="12.8882" font-family="Helvetica">20</text>
<text xml:space="preserve" x="39.4865" y="241.229" fill="black" font-size="12.8882" font-family="Helvetica">30</text>
<text xml:space="preserve" x="39.4865" y="204.679" fill="black" font-size="12.8882" font-family="Helvetica">40</text>
<text xml:space="preserve" x="39.4865" y="168.129" fill="black" font-size="12.8882" font-family="Helvetica">50</text>
<text xml:space="preserve" x="39.4865" y="131.58" fill="black" font-size="12.8882" font-family="Helvetica">60</text>
<text xml:space="preserve" x="39.4865" y="94.2175" fill="black" font-size="12.8882" font-family="Helvetica">70</text>
<text xml:space="preserve" x="39.4865" y="57.6676" fill="black" font-size="12.8882" font-family="Helvetica">80</text>
<rect x="442.705" y="25.0773" width="113.386" height="61.7287" fill="white"/>
<path d="M442.705,86.8059h 113.386" fill="none" stroke="black"/>
<path d="M556.091,86.8059v -61.7287" fill="none" stroke="black"/>
<path d="M556.091,25.0773h -113.386" fill="none" stroke="black"/>
<path d="M442.705,25.0773v 61.7287" fill="none" stroke="black"/>
<text xml:space="preserve" x="488.644" y="37.3621" fill="black" font-size="13.5253" font-family="Helvetica">hist</text>
<path d="M442.705,40.5094h 113.386" fill="none" stroke="black"/>
<text xml:space="preserve" x="448.033" y="52.7943" fill="black" font-size="13.5109" font-family="Helvetica">Entries </text>
<text xml:space="preserve" x="517.884" y="52.7943" fill="black" font-size="13.5109" font-family="Helvetica"> 3895</text>
<text xml:space="preserve" x="448.033" y="68.2264" fill="black" font-size="13.5109" font-family="Helvetica">Mean  </text>
<text xml:space="preserve" x="510.574" y="68.2264" fill="black" font-size="13.5109" font-family="Helvetica">  403.6</text>
<text xml:space="preserve" x="448.033" y="84.4708" fill="black" font-size="13.5109" font-family="Helvetica">Std Dev   </text>
<text xml:space="preserve" x="510.574" y="83.6586" fill="black" font-size="13.5109" font-family="Helvetica">  135.7</text>
<text xml:space="preserve" x="222.236" y="18.681" fill="black" font-size="17.0471" font-family="Helvetica">Na at detector B</text></svg>
