<?xml version="1.0" standalone="no"?>
<svg width="567.429" height="384.68" viewBox="0 0 567.429 384.68" xmlns="http://www.w3.org/2000/svg" shape-rendering="crispEdges">
<title>
img/main_mesurement/Na_B.svg
</title>
<desc>
Creator: ROOT Version 6.22/09
CreationDate: Wed Jun  9 14:29:09 2021</desc>
<defs>
</defs>
<rect x="0.5" y="0" width="566.929" height="384.18" fill="white"/>
<rect x="57.1929" y="38.418" width="453.543" height="307.344" fill="white"/>
<rect x="57.1929" y="38.418" width="453.543" height="307.344" fill="none" stroke="black"/>
<rect x="57.1929" y="38.418" width="453.543" height="307.344" fill="white"/>
<rect x="57.1929" y="38.418" width="453.543" height="307.344" fill="none" stroke="black"/>
<path d="M57.1929,345.762h 1.36063v -2.34167h 0.453543v 2.34167h 2.26772v -2.34167h 0.453543v 2.34167h 0.907087v -2.34167h 0.453543v 2.34167h 6.80315v -2.34167h 0.453543v 2.34167h 1.81417v -2.34167h 0.453543v 2.34167h 3.62835v -2.34167h 0.907087v
 2.34167h 0.453543v -2.34167h 0.453543v 2.34167h 1.36063v -4.68333h 0.453543v -2.34167h 0.453543v 7.025h 0.907087v -4.68333h 0.453543v -7.025h 0.453543v 7.025h 0.453543v -2.34167h 0.907087v 4.68333h 0.453543v -7.025h 0.453543v 2.34167h 0.453543v
 -4.68333h 0.453543v -7.025h 0.453543v -7.025h 0.453543v 2.34167h 0.453543v 9.36667h 0.453543v -4.68333h 0.453543v -11.7083h 0.453543v -7.025h 0.453543v 7.025h 0.453543v -7.025h 0.453543v -18.7333h 0.453543v -2.34167h 0.453543v 16.3917h 0.453543v
 -21.075h 0.453543v 4.68333h 0.453543v -18.7333h 0.453543v 18.7333h 0.453543v 4.68333h 0.453543v -4.68333h 0.453543v -32.7833h 0.453543v 21.075h 0.453543v -14.05h 0.453543v 28.1h 0.453543v -23.4167h 0.907087v 14.05h 0.453543v 2.34167h 0.453543v
 9.36667h 0.453543v -14.05h 0.453543v 7.025h 0.453543v -28.1h 0.453543v 11.7083h 0.453543v 18.7333h 0.453543v -18.7333h 0.453543v 16.3917h 0.453543v 2.34167h 0.453543v -14.05h 0.453543v -9.36667h 0.453543v 14.05h 0.907087v -18.7333h 0.453543v
 -16.3917h 0.453543v -4.68333h 0.453543v 51.5167h 0.453543v -32.7833h 0.453543v 21.075h 0.453543v -16.3917h 0.453543v 4.68333h 0.453543v 7.025h 0.453543v -25.7583h 0.453543v 4.68333h 0.453543v 18.7333h 0.453543v -23.4167h 0.453543v 4.68333h 0.453543v
 2.34167h 0.453543v -7.025h 0.453543v 14.05h 0.453543v -9.36667h 0.453543v -9.36667h 0.453543v 4.68333h 0.453543v -4.68333h 0.453543v -7.025h 0.453543v -11.7083h 0.453543v -21.075h 0.453543v 21.075h 0.453543v 4.68333h 0.453543v -23.4167h 0.453543v
 -16.3917h 0.453543v -21.075h 0.453543v 16.3917h 0.453543v -14.05h 0.453543v 2.34167h 0.453543v -25.7583h 0.453543v -11.7083h 0.453543v -42.15h 0.453543v 23.4167h 0.453543v -28.1h 0.453543v 7.025h 0.453543v -18.7333h 0.453543v 21.075h 0.453543v
 39.8083h 0.453543v -18.7333h 0.453543v 11.7083h 0.453543v -77.275h 0.453543v 88.9834h 0.453543v -32.7833h 0.453543v 14.05h 0.453543v -2.34167h 0.453543v -35.125h 0.453543v 67.9083h 0.453543v 23.4167h 0.453543v -11.7083h 0.453543v -2.34167h 0.453543v
 23.4167h 0.453543v -7.025h 0.453543v 4.68333h 0.453543v 18.7333h 0.453543v 44.4917h 0.453543v 7.025h 0.453543v -16.3917h 0.453543v 18.7333h 0.453543v -28.1h 0.453543v 51.5167h 0.453543v -18.7333h 0.453543v 28.1h 0.453543v 16.3917h 0.907087v
 -4.68333h 0.453543v 2.34167h 0.453543v 11.7083h 0.453543v 9.36667h 0.453543v -9.36667h 0.453543v 11.7083h 0.453543v -7.025h 0.453543v 11.7083h 0.453543v -2.34167h 0.453543v -9.36667h 0.907087v -2.34167h 0.453543v 18.7333h 0.453543v -7.025h 0.453543v
 -7.025h 0.453543v 14.05h 1.36063v -11.7083h 0.453543v 9.36667h 0.453543v 7.025h 0.453543v -4.68333h 0.453543v -7.025h 0.453543v 4.68333h 0.907087v -11.7083h 0.453543v 11.7083h 0.907087v 7.025h 0.453543v -2.34167h 0.453543v -4.68333h 0.453543v
 4.68333h 0.453543v -11.7083h 0.453543v 7.025h 0.453543v 2.34167h 0.453543v 2.34167h 0.453543v 4.68333h 0.453543v -14.05h 0.453543v 2.34167h 0.453543v -4.68333h 0.453543v 11.7083h 0.453543v -9.36667h 0.453543v 9.36667h 0.453543v -4.68333h 0.453543v
 7.025h 0.453543v -2.34167h 0.453543v -2.34167h 0.453543v 7.025h 0.453543v -14.05h 0.453543v 2.34167h 0.453543v 9.36667h 0.453543v -2.34167h 0.453543v 2.34167h 0.453543v 4.68333h 0.453543v -4.68333h 0.453543v -4.68333h 0.453543v 4.68333h 0.453543v
 2.34167h 0.453543v -7.025h 0.453543v 9.36667h 0.453543v -9.36667h 0.453543v 2.34167h 0.453543v 7.025h 0.453543v -4.68333h 0.453543v -4.68333h 0.453543v 9.36667h 0.907087v -2.34167h 0.453543v -2.34167h 0.453543v 2.34167h 0.453543v 2.34167h 0.453543v
 -2.34167h 0.453543v -2.34167h 0.453543v 4.68333h 0.907087v -2.34167h 0.453543v -2.34167h 0.453543v 4.68333h 0.453543v -4.68333h 0.453543v 2.34167h 0.453543v 2.34167h 2.72126v -4.68333h 0.453543v 4.68333h 0.453543v -4.68333h 1.36063v 2.34167h
 0.453543v -2.34167h 0.453543v 4.68333h 1.36063v -2.34167h 0.907087v -2.34167h 0.453543v 4.68333h 1.36063v -2.34167h 0.453543v 2.34167h 2.72126v -2.34167h 0.907087v 2.34167h 0.453543v -2.34167h 0.453543v 2.34167h 0.453543v -2.34167h 0.453543v
 2.34167h 0.453543v -2.34167h 0.907087v 2.34167h 0.907087v -2.34167h 0.453543v -2.34167h 0.453543v 4.68333h 0.453543v -2.34167h 0.453543v 2.34167h 0.453543v -2.34167h 0.453543v 2.34167h 0.907087v -2.34167h 0.907087v 2.34167h 1.36063v -9.36667h
 0.453543v 7.025h 0.453543v 2.34167h 0.453543v -2.34167h 0.453543v 2.34167h 2.26772v -4.68333h 0.453543v 4.68333h 4.08189v -2.34167h 0.453543v 2.34167h 0.453543v -2.34167h 0.453543v 2.34167h 1.81417v -2.34167h 0.453543v 2.34167h 1.36063v -2.34167h
 0.453543v 2.34167h 3.62835v -2.34167h 0.907087v 2.34167h 0.453543v -2.34167h 0.453543v 2.34167h 4.98898v -2.34167h 0.453543v 2.34167h 0.453543v -4.68333h 0.453543v 4.68333h 2.26772v -2.34167h 0.453543v 2.34167h 0.453543v -2.34167h 0.453543v 2.34167h
 3.62835v -2.34167h 0.453543v 2.34167h 0.453543v -2.34167h 0.453543v 2.34167h 2.26772v -2.34167h 0.453543v 2.34167h 4.53543v -4.68333h 0.453543v 4.68333h 3.1748v -2.34167h 0.453543v 2.34167h 0.453543v -2.34167h 0.907087v 2.34167h 10.4315v -2.34167h
 0.907087v -2.34167h 0.453543v 2.34167h 0.907087v 2.34167h 19.0488v -2.34167h 0.453543v 2.34167h 8.16378v -2.34167h 0.453543v 2.34167h 8.61732v -2.34167h 0.453543v 2.34167h 4.98898v -2.34167h 0.453543v 2.34167h 2.72126v -2.34167h 0.453543v 2.34167h
 1.81417v -2.34167h 0.453543v 2.34167h 9.52441v -2.34167h 0.453543v 2.34167h 1.36063v -2.34167h 0.453543v 2.34167h 4.53543v -2.34167h 0.453543v 2.34167h 10.4315v -2.34167h 0.453543v 2.34167h 13.1528v -2.34167h 0.453543v 2.34167h 23.1307v -2.34167h
 0.453543v 2.34167h 1.36063v -2.34167h 0.453543v 2.34167h 6.80315v -2.34167h 0.453543v 2.34167h 6.80315v -2.34167h 0.453543v 2.34167h 33.5622v -2.34167h 0.453543v 2.34167h 7.71024v -2.34167h 0.907087v 2.34167h 85.2661" fill="none" stroke="#000099"/>
<path d="M115.122,194.643l 0.252552, -5.51813l 0.252552, -5.483l 0.252552, -5.43037l 0.252552, -5.35988l 0.252552, -5.27127l 0.252552, -5.16435l 0.252552, -5.03907l 0.252552, -4.89545l 0.252552, -4.73364l 0.252552, -4.5539l 0.252552, -4.35661l
 0.252552, -4.14223l 0.252552, -3.91136l 0.252552, -3.66471l 0.252552, -3.40309l 0.252552, -3.12739l 0.252552, -2.83863l 0.252552, -2.5379l 0.252552, -2.22639l 0.252552, -1.90534l 0.252552, -1.5761l 0.252552, -1.24003l 0.252552, -0.898571l 0.252552,
 -0.553198l 0.252552, -0.205409l 0.252552, 0.143278l 0.252552, 0.491338l 0.252552, 0.837252l 0.252552, 1.17952l 0.252552, 1.51665l 0.252552, 1.84722l 0.252552, 2.16982l 0.252552, 2.48313l 0.252552, 2.78587l 0.252552, 3.07684l 0.252552, 3.35495l
 0.252552, 3.61915l 0.252552, 3.86853l 0.252552, 4.10227l 0.252552, 4.31963l 0.252552, 4.52001l 0.252552, 4.70291l 0.252552, 4.86793l 0.252552, 5.01481l 0.252552, 5.14337l 0.252552, 5.25356l 0.252552, 5.34542l 0.252552, 5.41912l 0.252552, 5.47491"
 fill="none" stroke="#ff0000" stroke-width="2"/>
<path d="M127.497,188.145l 0.252552, 5.51313l 0.252552, 5.53423l 0.252552, 5.53872l 0.252552, 5.5272l 0.252552, 5.50033l 0.252552, 5.45885l 0.252552, 5.40353l 0.252552, 5.33521l 0.252552, 5.25474l 0.252552, 5.16302l 0.252552, 5.06097l 0.252552,
 4.94952l 0.252552, 4.82962l 0.252552, 4.70221l 0.252552, 4.56822l 0.252552, 4.42858l 0.252552, 4.28419l 0.252552, 4.13593l 0.252552, 3.98466l 0.252552, 3.8312l 0.252552, 3.67632l 0.252552, 3.52078l 0.252552, 3.36528l 0.252552, 3.21046l 0.252552,
 3.05695l 0.252552, 2.90529l 0.252552, 2.756l 0.252552, 2.60955l 0.252552, 2.46634l 0.252552, 2.32675l 0.252552, 2.19109l 0.252552, 2.05964l 0.252552, 1.93262l 0.252552, 1.81023l 0.252552, 1.6926l 0.252552, 1.57985l 0.252552, 1.47204l 0.252552,
 1.36921l 0.252552, 1.27137l 0.252552, 1.1785l 0.252552, 1.09056l 0.252552, 1.00746l 0.252552, 0.929118l 0.252552, 0.855426l 0.252552, 0.786259l 0.252552, 0.721477l 0.252552, 0.660931l 0.252552, 0.604461l 0.252552, 0.551902" fill="none"
 stroke="#ff0000" stroke-width="2"/>
<path d="M139.872,340.807l 0.252552, 0.503083" fill="none" stroke="#ff0000" stroke-width="2"/>
<rect x="442.705" y="24.9717" width="113.386" height="61.4688" fill="white"/>
<path d="M442.705,86.4405h 113.386" fill="none" stroke="black"/>
<path d="M556.091,86.4405v -61.4688" fill="none" stroke="black"/>
<path d="M556.091,24.9717h -113.386" fill="none" stroke="black"/>
<path d="M442.705,24.9717v 61.4688" fill="none" stroke="black"/>
<text xml:space="preserve" x="488.644" y="37.3621" fill="black" font-size="13.4705" font-family="Helvetica">hist</text>
<path d="M442.705,40.3389h 113.386" fill="none" stroke="black"/>
<text xml:space="preserve" x="448.033" y="52.7943" fill="black" font-size="13.0884" font-family="Helvetica">Entries </text>
<text xml:space="preserve" x="517.884" y="52.7943" fill="black" font-size="13.0884" font-family="Helvetica"> 5644</text>
<text xml:space="preserve" x="448.033" y="68.2264" fill="black" font-size="13.0884" font-family="Helvetica">Mean  </text>
<text xml:space="preserve" x="510.574" y="68.2264" fill="black" font-size="13.0884" font-family="Helvetica">  403.8</text>
<text xml:space="preserve" x="448.033" y="82.8464" fill="black" font-size="13.0884" font-family="Helvetica">Std Dev   </text>
<text xml:space="preserve" x="510.574" y="82.8464" fill="black" font-size="13.0884" font-family="Helvetica">  140.2</text>
<path d="M57.1929,345.762h 453.543" fill="none" stroke="black"/>
<path d="M64.4853,336.541v 9.22031" fill="none" stroke="black"/>
<path d="M77.1129,341.152v 4.61016" fill="none" stroke="black"/>
<path d="M89.7405,341.152v 4.61016" fill="none" stroke="black"/>
<path d="M102.368,341.152v 4.61016" fill="none" stroke="black"/>
<path d="M114.996,336.541v 9.22031" fill="none" stroke="black"/>
<path d="M127.623,341.152v 4.61016" fill="none" stroke="black"/>
<path d="M140.251,341.152v 4.61016" fill="none" stroke="black"/>
<path d="M152.879,341.152v 4.61016" fill="none" stroke="black"/>
<path d="M165.506,336.541v 9.22031" fill="none" stroke="black"/>
<path d="M178.134,341.152v 4.61016" fill="none" stroke="black"/>
<path d="M190.761,341.152v 4.61016" fill="none" stroke="black"/>
<path d="M203.389,341.152v 4.61016" fill="none" stroke="black"/>
<path d="M216.017,336.541v 9.22031" fill="none" stroke="black"/>
<path d="M228.644,341.152v 4.61016" fill="none" stroke="black"/>
<path d="M241.272,341.152v 4.61016" fill="none" stroke="black"/>
<path d="M253.899,341.152v 4.61016" fill="none" stroke="black"/>
<path d="M266.527,336.541v 9.22031" fill="none" stroke="black"/>
<path d="M279.155,341.152v 4.61016" fill="none" stroke="black"/>
<path d="M291.782,341.152v 4.61016" fill="none" stroke="black"/>
<path d="M304.41,341.152v 4.61016" fill="none" stroke="black"/>
<path d="M317.037,336.541v 9.22031" fill="none" stroke="black"/>
<path d="M329.665,341.152v 4.61016" fill="none" stroke="black"/>
<path d="M342.293,341.152v 4.61016" fill="none" stroke="black"/>
<path d="M354.92,341.152v 4.61016" fill="none" stroke="black"/>
<path d="M367.548,336.541v 9.22031" fill="none" stroke="black"/>
<path d="M380.175,341.152v 4.61016" fill="none" stroke="black"/>
<path d="M392.803,341.152v 4.61016" fill="none" stroke="black"/>
<path d="M405.431,341.152v 4.61016" fill="none" stroke="black"/>
<path d="M418.058,336.541v 9.22031" fill="none" stroke="black"/>
<path d="M430.686,341.152v 4.61016" fill="none" stroke="black"/>
<path d="M443.314,341.152v 4.61016" fill="none" stroke="black"/>
<path d="M455.941,341.152v 4.61016" fill="none" stroke="black"/>
<path d="M468.569,336.541v 9.22031" fill="none" stroke="black"/>
<path d="M64.4853,336.541v 9.22031" fill="none" stroke="black"/>
<path d="M468.569,336.541v 9.22031" fill="none" stroke="black"/>
<path d="M481.196,341.152v 4.61016" fill="none" stroke="black"/>
<path d="M493.824,341.152v 4.61016" fill="none" stroke="black"/>
<path d="M506.452,341.152v 4.61016" fill="none" stroke="black"/>
<text xml:space="preserve" x="60.6042" y="358.189" fill="black" font-size="12.836" font-family="Helvetica">0</text>
<text xml:space="preserve" x="103.652" y="358.189" fill="black" font-size="12.836" font-family="Helvetica">200</text>
<text xml:space="preserve" x="154.822" y="358.189" fill="black" font-size="12.836" font-family="Helvetica">400</text>
<text xml:space="preserve" x="205.179" y="358.189" fill="black" font-size="12.836" font-family="Helvetica">600</text>
<text xml:space="preserve" x="255.537" y="358.189" fill="black" font-size="12.836" font-family="Helvetica">800</text>
<text xml:space="preserve" x="302.646" y="358.189" fill="black" font-size="12.836" font-family="Helvetica">1000</text>
<text xml:space="preserve" x="353.003" y="358.189" fill="black" font-size="12.836" font-family="Helvetica">1200</text>
<text xml:space="preserve" x="404.173" y="358.189" fill="black" font-size="12.836" font-family="Helvetica">1400</text>
<text xml:space="preserve" x="454.531" y="358.189" fill="black" font-size="12.836" font-family="Helvetica">1600</text>
<text xml:space="preserve" x="531.691" y="338.695" fill="black" font-size="8.72403" font-family="Helvetica">3</text>
<text xml:space="preserve" x="518.696" y="345.193" fill="black" font-size="12.836" font-family="Helvetica">10</text>
<text xml:space="preserve" x="512.198" y="345.193" fill="black" font-size="12.836" font-family="Times">&#0215;</text>
<text xml:space="preserve" x="446.408" y="370.372" fill="black" font-size="12.836" font-family="Helvetica">Energy[eV] </text>
<path d="M57.1929,345.762v -307.344" fill="none" stroke="black"/>
<path d="M70.7992,345.762h -13.6063" fill="none" stroke="black"/>
<path d="M63.9961,334.053h -6.80315" fill="none" stroke="black"/>
<path d="M63.9961,322.345h -6.80315" fill="none" stroke="black"/>
<path d="M63.9961,310.637h -6.80315" fill="none" stroke="black"/>
<path d="M70.7992,298.928h -13.6063" fill="none" stroke="black"/>
<path d="M63.9961,287.22h -6.80315" fill="none" stroke="black"/>
<path d="M63.9961,275.512h -6.80315" fill="none" stroke="black"/>
<path d="M63.9961,263.803h -6.80315" fill="none" stroke="black"/>
<path d="M70.7992,252.095h -13.6063" fill="none" stroke="black"/>
<path d="M63.9961,240.387h -6.80315" fill="none" stroke="black"/>
<path d="M63.9961,228.678h -6.80315" fill="none" stroke="black"/>
<path d="M63.9961,216.97h -6.80315" fill="none" stroke="black"/>
<path d="M70.7992,205.262h -13.6063" fill="none" stroke="black"/>
<path d="M63.9961,193.553h -6.80315" fill="none" stroke="black"/>
<path d="M63.9961,181.845h -6.80315" fill="none" stroke="black"/>
<path d="M63.9961,170.137h -6.80315" fill="none" stroke="black"/>
<path d="M70.7992,158.428h -13.6063" fill="none" stroke="black"/>
<path d="M63.9961,146.72h -6.80315" fill="none" stroke="black"/>
<path d="M63.9961,135.012h -6.80315" fill="none" stroke="black"/>
<path d="M63.9961,123.303h -6.80315" fill="none" stroke="black"/>
<path d="M70.7992,111.595h -13.6063" fill="none" stroke="black"/>
<path d="M63.9961,99.8867h -6.80315" fill="none" stroke="black"/>
<path d="M63.9961,88.1784h -6.80315" fill="none" stroke="black"/>
<path d="M63.9961,76.4701h -6.80315" fill="none" stroke="black"/>
<path d="M70.7992,64.7617h -13.6063" fill="none" stroke="black"/>
<path d="M70.7992,64.7617h -13.6063" fill="none" stroke="black"/>
<path d="M63.9961,53.0534h -6.80315" fill="none" stroke="black"/>
<path d="M63.9961,41.3451h -6.80315" fill="none" stroke="black"/>
<text xml:space="preserve" x="47.6087" y="350.067" fill="black" font-size="12.836" font-family="Helvetica">0</text>
<text xml:space="preserve" x="41.111" y="303.77" fill="black" font-size="12.836" font-family="Helvetica">20</text>
<text xml:space="preserve" x="41.111" y="256.661" fill="black" font-size="12.836" font-family="Helvetica">40</text>
<text xml:space="preserve" x="41.111" y="209.553" fill="black" font-size="12.836" font-family="Helvetica">60</text>
<text xml:space="preserve" x="41.111" y="163.256" fill="black" font-size="12.836" font-family="Helvetica">80</text>
<text xml:space="preserve" x="33.801" y="116.147" fill="black" font-size="12.836" font-family="Helvetica">100</text>
<text xml:space="preserve" x="33.801" y="69.0387" fill="black" font-size="12.836" font-family="Helvetica">120</text>
<g transform="rotate(-90,21.6177,76.3486)">
<text xml:space="preserve" x="21.6177" y="76.3486" fill="black" font-size="12.836" font-family="Helvetica">Counts</text>
</g>
<rect x="442.705" y="24.9717" width="113.386" height="61.4688" fill="white"/>
<path d="M442.705,86.4405h 113.386" fill="none" stroke="black"/>
<path d="M556.091,86.4405v -61.4688" fill="none" stroke="black"/>
<path d="M556.091,24.9717h -113.386" fill="none" stroke="black"/>
<path d="M442.705,24.9717v 61.4688" fill="none" stroke="black"/>
<text xml:space="preserve" x="488.644" y="37.3621" fill="black" font-size="13.4705" font-family="Helvetica">hist</text>
<path d="M442.705,40.3389h 113.386" fill="none" stroke="black"/>
<text xml:space="preserve" x="448.033" y="52.7943" fill="black" font-size="13.0884" font-family="Helvetica">Entries </text>
<text xml:space="preserve" x="517.884" y="52.7943" fill="black" font-size="13.0884" font-family="Helvetica"> 5644</text>
<text xml:space="preserve" x="448.033" y="68.2264" fill="black" font-size="13.0884" font-family="Helvetica">Mean  </text>
<text xml:space="preserve" x="510.574" y="68.2264" fill="black" font-size="13.0884" font-family="Helvetica">  403.8</text>
<text xml:space="preserve" x="448.033" y="82.8464" fill="black" font-size="13.0884" font-family="Helvetica">Std Dev   </text>
<text xml:space="preserve" x="510.574" y="82.8464" fill="black" font-size="13.0884" font-family="Helvetica">  140.2</text>
<text xml:space="preserve" x="219.799" y="18.681" fill="black" font-size="16.9774" font-family="Helvetica">Na at detector B </text></svg>
