<?xml version="1.0" standalone="no"?>
<svg width="567.429" height="384.68" viewBox="0 0 567.429 384.68" xmlns="http://www.w3.org/2000/svg" shape-rendering="crispEdges">
<title>
img/main_mesurement/Na_B.svg
</title>
<desc>
Creator: ROOT Version 6.22/09
CreationDate: Tue Jun  8 19:07:54 2021</desc>
<defs>
</defs>
<rect x="0.5" y="0" width="566.929" height="384.18" fill="white"/>
<rect x="57.1929" y="38.418" width="453.543" height="307.344" fill="white"/>
<rect x="57.1929" y="38.418" width="453.543" height="307.344" fill="none" stroke="black"/>
<rect x="57.1929" y="38.418" width="453.543" height="307.344" fill="white"/>
<rect x="57.1929" y="38.418" width="453.543" height="307.344" fill="none" stroke="black"/>
<path d="M57.1929,345.762h 1.36063v -2.34167h 0.453543v 2.34167h 2.26772v -2.34167h 0.453543v 2.34167h 0.907087v -2.34167h 0.453543v 2.34167h 6.80315v -2.34167h 0.453543v 2.34167h 1.81417v -2.34167h 0.453543v 2.34167h 3.62835v -2.34167h 0.907087v
 2.34167h 0.453543v -2.34167h 0.453543v 2.34167h 1.36063v -4.68333h 0.453543v -2.34167h 0.453543v 7.025h 0.907087v -4.68333h 0.453543v -7.025h 0.453543v 7.025h 0.453543v -2.34167h 0.907087v 4.68333h 0.453543v -7.025h 0.453543v 2.34167h 0.453543v
 -4.68333h 0.453543v -7.025h 0.453543v -7.025h 0.453543v 2.34167h 0.453543v 9.36667h 0.453543v -4.68333h 0.453543v -11.7083h 0.453543v -7.025h 0.453543v 7.025h 0.453543v -7.025h 0.453543v -18.7333h 0.453543v -2.34167h 0.453543v 16.3917h 0.453543v
 -21.075h 0.453543v 4.68333h 0.453543v -18.7333h 0.453543v 18.7333h 0.453543v 4.68333h 0.453543v -4.68333h 0.453543v -32.7833h 0.453543v 21.075h 0.453543v -14.05h 0.453543v 28.1h 0.453543v -23.4167h 0.907087v 14.05h 0.453543v 2.34167h 0.453543v
 9.36667h 0.453543v -14.05h 0.453543v 7.025h 0.453543v -28.1h 0.453543v 11.7083h 0.453543v 18.7333h 0.453543v -18.7333h 0.453543v 16.3917h 0.453543v 2.34167h 0.453543v -14.05h 0.453543v -9.36667h 0.453543v 14.05h 0.907087v -18.7333h 0.453543v
 -16.3917h 0.453543v -4.68333h 0.453543v 51.5167h 0.453543v -32.7833h 0.453543v 21.075h 0.453543v -16.3917h 0.453543v 4.68333h 0.453543v 7.025h 0.453543v -25.7583h 0.453543v 4.68333h 0.453543v 18.7333h 0.453543v -23.4167h 0.453543v 4.68333h 0.453543v
 2.34167h 0.453543v -7.025h 0.453543v 14.05h 0.453543v -9.36667h 0.453543v -9.36667h 0.453543v 4.68333h 0.453543v -4.68333h 0.453543v -7.025h 0.453543v -11.7083h 0.453543v -21.075h 0.453543v 21.075h 0.453543v 4.68333h 0.453543v -23.4167h 0.453543v
 -16.3917h 0.453543v -21.075h 0.453543v 16.3917h 0.453543v -14.05h 0.453543v 2.34167h 0.453543v -25.7583h 0.453543v -11.7083h 0.453543v -42.15h 0.453543v 23.4167h 0.453543v -28.1h 0.453543v 7.025h 0.453543v -18.7333h 0.453543v 21.075h 0.453543v
 39.8083h 0.453543v -18.7333h 0.453543v 11.7083h 0.453543v -77.275h 0.453543v 88.9834h 0.453543v -32.7833h 0.453543v 14.05h 0.453543v -2.34167h 0.453543v -35.125h 0.453543v 67.9083h 0.453543v 23.4167h 0.453543v -11.7083h 0.453543v -2.34167h 0.453543v
 23.4167h 0.453543v -7.025h 0.453543v 4.68333h 0.453543v 18.7333h 0.453543v 44.4917h 0.453543v 7.025h 0.453543v -16.3917h 0.453543v 18.7333h 0.453543v -28.1h 0.453543v 51.5167h 0.453543v -18.7333h 0.453543v 28.1h 0.453543v 16.3917h 0.907087v
 -4.68333h 0.453543v 2.34167h 0.453543v 11.7083h 0.453543v 9.36667h 0.453543v -9.36667h 0.453543v 11.7083h 0.453543v -7.025h 0.453543v 11.7083h 0.453543v -2.34167h 0.453543v -9.36667h 0.907087v -2.34167h 0.453543v 18.7333h 0.453543v -7.025h 0.453543v
 -7.025h 0.453543v 14.05h 1.36063v -11.7083h 0.453543v 9.36667h 0.453543v 7.025h 0.453543v -4.68333h 0.453543v -7.025h 0.453543v 4.68333h 0.907087v -11.7083h 0.453543v 11.7083h 0.907087v 7.025h 0.453543v -2.34167h 0.453543v -4.68333h 0.453543v
 4.68333h 0.453543v -11.7083h 0.453543v 7.025h 0.453543v 2.34167h 0.453543v 2.34167h 0.453543v 4.68333h 0.453543v -14.05h 0.453543v 2.34167h 0.453543v -4.68333h 0.453543v 11.7083h 0.453543v -9.36667h 0.453543v 9.36667h 0.453543v -4.68333h 0.453543v
 7.025h 0.453543v -2.34167h 0.453543v -2.34167h 0.453543v 7.025h 0.453543v -14.05h 0.453543v 2.34167h 0.453543v 9.36667h 0.453543v -2.34167h 0.453543v 2.34167h 0.453543v 4.68333h 0.453543v -4.68333h 0.453543v -4.68333h 0.453543v 4.68333h 0.453543v
 2.34167h 0.453543v -7.025h 0.453543v 9.36667h 0.453543v -9.36667h 0.453543v 2.34167h 0.453543v 7.025h 0.453543v -4.68333h 0.453543v -4.68333h 0.453543v 9.36667h 0.907087v -2.34167h 0.453543v -2.34167h 0.453543v 2.34167h 0.453543v 2.34167h 0.453543v
 -2.34167h 0.453543v -2.34167h 0.453543v 4.68333h 0.907087v -2.34167h 0.453543v -2.34167h 0.453543v 4.68333h 0.453543v -4.68333h 0.453543v 2.34167h 0.453543v 2.34167h 2.72126v -4.68333h 0.453543v 4.68333h 0.453543v -4.68333h 1.36063v 2.34167h
 0.453543v -2.34167h 0.453543v 4.68333h 1.36063v -2.34167h 0.907087v -2.34167h 0.453543v 4.68333h 1.36063v -2.34167h 0.453543v 2.34167h 2.72126v -2.34167h 0.907087v 2.34167h 0.453543v -2.34167h 0.453543v 2.34167h 0.453543v -2.34167h 0.453543v
 2.34167h 0.453543v -2.34167h 0.907087v 2.34167h 0.907087v -2.34167h 0.453543v -2.34167h 0.453543v 4.68333h 0.453543v -2.34167h 0.453543v 2.34167h 0.453543v -2.34167h 0.453543v 2.34167h 0.907087v -2.34167h 0.907087v 2.34167h 1.36063v -9.36667h
 0.453543v 7.025h 0.453543v 2.34167h 0.453543v -2.34167h 0.453543v 2.34167h 2.26772v -4.68333h 0.453543v 4.68333h 4.08189v -2.34167h 0.453543v 2.34167h 0.453543v -2.34167h 0.453543v 2.34167h 1.81417v -2.34167h 0.453543v 2.34167h 1.36063v -2.34167h
 0.453543v 2.34167h 3.62835v -2.34167h 0.907087v 2.34167h 0.453543v -2.34167h 0.453543v 2.34167h 4.98898v -2.34167h 0.453543v 2.34167h 0.453543v -4.68333h 0.453543v 4.68333h 2.26772v -2.34167h 0.453543v 2.34167h 0.453543v -2.34167h 0.453543v 2.34167h
 3.62835v -2.34167h 0.453543v 2.34167h 0.453543v -2.34167h 0.453543v 2.34167h 2.26772v -2.34167h 0.453543v 2.34167h 4.53543v -4.68333h 0.453543v 4.68333h 3.1748v -2.34167h 0.453543v 2.34167h 0.453543v -2.34167h 0.907087v 2.34167h 10.4315v -2.34167h
 0.907087v -2.34167h 0.453543v 2.34167h 0.907087v 2.34167h 19.0488v -2.34167h 0.453543v 2.34167h 8.16378v -2.34167h 0.453543v 2.34167h 8.61732v -2.34167h 0.453543v 2.34167h 4.98898v -2.34167h 0.453543v 2.34167h 2.72126v -2.34167h 0.453543v 2.34167h
 1.81417v -2.34167h 0.453543v 2.34167h 9.52441v -2.34167h 0.453543v 2.34167h 1.36063v -2.34167h 0.453543v 2.34167h 4.53543v -2.34167h 0.453543v 2.34167h 10.4315v -2.34167h 0.453543v 2.34167h 13.1528v -2.34167h 0.453543v 2.34167h 23.1307v -2.34167h
 0.453543v 2.34167h 1.36063v -2.34167h 0.453543v 2.34167h 6.80315v -2.34167h 0.453543v 2.34167h 6.80315v -2.34167h 0.453543v 2.34167h 33.5622v -2.34167h 0.453543v 2.34167h 7.71024v -2.34167h 0.907087v 2.34167h 85.2661" fill="none" stroke="#000099"/>
<path d="M115.113,194.832l 0.252583, -5.5197l 0.252583, -5.48514l 0.252583, -5.4331l 0.252583, -5.3632l 0.252583, -5.27518l 0.252583, -5.16885l 0.252583, -5.04415l 0.252583, -4.9011l 0.252583, -4.73985l 0.252583, -4.56066l 0.252583, -4.36388l
 0.252583, -4.15l 0.252583, -3.91961l 0.252583, -3.6734l 0.252583, -3.41218l 0.252583, -3.13685l 0.252583, -2.84843l 0.252583, -2.54799l 0.252583, -2.23673l 0.252583, -1.91589l 0.252583, -1.5868l 0.252583, -1.25084l 0.252583, -0.909447l 0.252583,
 -0.564089l 0.252583, -0.216268l 0.252583, 0.132499l 0.252583, 0.480686l 0.252583, 0.826774l 0.252583, 1.16925l 0.252583, 1.50665l 0.252583, 1.83752l 0.252583, 2.16046l 0.252583, 2.47415l 0.252583, 2.77729l 0.252583, 3.06871l 0.252583, 3.34728l
 0.252583, 3.61198l 0.252583, 3.86187l 0.252583, 4.09613l 0.252583, 4.31403l 0.252583, 4.51497l 0.252583, 4.69843l 0.252583, 4.86401l 0.252583, 5.01145l 0.252583, 5.14057l 0.252583, 5.25131l 0.252583, 5.34372l 0.252583, 5.41795l 0.252583, 5.47425"
 fill="none" stroke="#ff0000" stroke-width="2"/>
<path d="M127.49,187.99l 0.252583, 5.51297l 0.252583, 5.53454l 0.252583, 5.53949l 0.252583, 5.5284l 0.252583, 5.50194l 0.252583, 5.46084l 0.252583, 5.40588l 0.252583, 5.33788l 0.252583, 5.25771l 0.252583, 5.16626l 0.252583, 5.06445l 0.252583,
 4.95321l 0.252583, 4.8335l 0.252583, 4.70624l 0.252583, 4.57238l 0.252583, 4.43284l 0.252583, 4.28853l 0.252583, 4.14032l 0.252583, 3.98908l 0.252583, 3.83563l 0.252583, 3.68075l 0.252583, 3.52518l 0.252583, 3.36963l 0.252583, 3.21475l 0.252583,
 3.06115l 0.252583, 2.9094l 0.252583, 2.76002l 0.252583, 2.61345l 0.252583, 2.47012l 0.252583, 2.33041l 0.252583, 2.19462l 0.252583, 2.06303l 0.252583, 1.93587l 0.252583, 1.81333l 0.252583, 1.69556l 0.252583, 1.58266l 0.252583, 1.47471l 0.252583,
 1.37174l 0.252583, 1.27376l 0.252583, 1.18075l 0.252583, 1.09267l 0.252583, 1.00944l 0.252583, 0.930973l 0.252583, 0.857159l 0.252583, 0.787874l 0.252583, 0.722978l 0.252583, 0.662324l 0.252583, 0.605751l 0.252583, 0.553094" fill="none"
 stroke="#ff0000" stroke-width="2"/>
<path d="M139.867,340.796l 0.252583, 0.504182" fill="none" stroke="#ff0000" stroke-width="2"/>
<rect x="442.705" y="24.9717" width="113.386" height="61.4688" fill="white"/>
<path d="M442.705,86.4405h 113.386" fill="none" stroke="black"/>
<path d="M556.091,86.4405v -61.4688" fill="none" stroke="black"/>
<path d="M556.091,24.9717h -113.386" fill="none" stroke="black"/>
<path d="M442.705,24.9717v 61.4688" fill="none" stroke="black"/>
<text xml:space="preserve" x="488.644" y="37.3621" fill="black" font-size="13.4705" font-family="Helvetica">hist</text>
<path d="M442.705,40.3389h 113.386" fill="none" stroke="black"/>
<text xml:space="preserve" x="448.033" y="52.7943" fill="black" font-size="13.0884" font-family="Helvetica">Entries </text>
<text xml:space="preserve" x="517.884" y="52.7943" fill="black" font-size="13.0884" font-family="Helvetica"> 5644</text>
<text xml:space="preserve" x="448.033" y="68.2264" fill="black" font-size="13.0884" font-family="Helvetica">Mean  </text>
<text xml:space="preserve" x="510.574" y="68.2264" fill="black" font-size="13.0884" font-family="Helvetica">  403.8</text>
<text xml:space="preserve" x="448.033" y="82.8464" fill="black" font-size="13.0884" font-family="Helvetica">Std Dev   </text>
<text xml:space="preserve" x="510.574" y="82.8464" fill="black" font-size="13.0884" font-family="Helvetica">  140.2</text>
<path d="M57.1929,345.762h 453.543" fill="none" stroke="black"/>
<path d="M64.4705,336.541v 9.22031" fill="none" stroke="black"/>
<path d="M77.0996,341.152v 4.61016" fill="none" stroke="black"/>
<path d="M89.7288,341.152v 4.61016" fill="none" stroke="black"/>
<path d="M102.358,341.152v 4.61016" fill="none" stroke="black"/>
<path d="M114.987,336.541v 9.22031" fill="none" stroke="black"/>
<path d="M127.616,341.152v 4.61016" fill="none" stroke="black"/>
<path d="M140.245,341.152v 4.61016" fill="none" stroke="black"/>
<path d="M152.875,341.152v 4.61016" fill="none" stroke="black"/>
<path d="M165.504,336.541v 9.22031" fill="none" stroke="black"/>
<path d="M178.133,341.152v 4.61016" fill="none" stroke="black"/>
<path d="M190.762,341.152v 4.61016" fill="none" stroke="black"/>
<path d="M203.391,341.152v 4.61016" fill="none" stroke="black"/>
<path d="M216.02,336.541v 9.22031" fill="none" stroke="black"/>
<path d="M228.649,341.152v 4.61016" fill="none" stroke="black"/>
<path d="M241.279,341.152v 4.61016" fill="none" stroke="black"/>
<path d="M253.908,341.152v 4.61016" fill="none" stroke="black"/>
<path d="M266.537,336.541v 9.22031" fill="none" stroke="black"/>
<path d="M279.166,341.152v 4.61016" fill="none" stroke="black"/>
<path d="M291.795,341.152v 4.61016" fill="none" stroke="black"/>
<path d="M304.424,341.152v 4.61016" fill="none" stroke="black"/>
<path d="M317.053,336.541v 9.22031" fill="none" stroke="black"/>
<path d="M329.683,341.152v 4.61016" fill="none" stroke="black"/>
<path d="M342.312,341.152v 4.61016" fill="none" stroke="black"/>
<path d="M354.941,341.152v 4.61016" fill="none" stroke="black"/>
<path d="M367.57,336.541v 9.22031" fill="none" stroke="black"/>
<path d="M380.199,341.152v 4.61016" fill="none" stroke="black"/>
<path d="M392.828,341.152v 4.61016" fill="none" stroke="black"/>
<path d="M405.458,341.152v 4.61016" fill="none" stroke="black"/>
<path d="M418.087,336.541v 9.22031" fill="none" stroke="black"/>
<path d="M430.716,341.152v 4.61016" fill="none" stroke="black"/>
<path d="M443.345,341.152v 4.61016" fill="none" stroke="black"/>
<path d="M455.974,341.152v 4.61016" fill="none" stroke="black"/>
<path d="M468.603,336.541v 9.22031" fill="none" stroke="black"/>
<path d="M64.4705,336.541v 9.22031" fill="none" stroke="black"/>
<path d="M468.603,336.541v 9.22031" fill="none" stroke="black"/>
<path d="M481.232,341.152v 4.61016" fill="none" stroke="black"/>
<path d="M493.862,341.152v 4.61016" fill="none" stroke="black"/>
<path d="M506.491,341.152v 4.61016" fill="none" stroke="black"/>
<text xml:space="preserve" x="60.6042" y="358.189" fill="black" font-size="12.836" font-family="Helvetica">0</text>
<text xml:space="preserve" x="103.652" y="358.189" fill="black" font-size="12.836" font-family="Helvetica">200</text>
<text xml:space="preserve" x="154.822" y="358.189" fill="black" font-size="12.836" font-family="Helvetica">400</text>
<text xml:space="preserve" x="205.179" y="358.189" fill="black" font-size="12.836" font-family="Helvetica">600</text>
<text xml:space="preserve" x="255.537" y="358.189" fill="black" font-size="12.836" font-family="Helvetica">800</text>
<text xml:space="preserve" x="302.646" y="358.189" fill="black" font-size="12.836" font-family="Helvetica">1000</text>
<text xml:space="preserve" x="353.003" y="358.189" fill="black" font-size="12.836" font-family="Helvetica">1200</text>
<text xml:space="preserve" x="404.173" y="358.189" fill="black" font-size="12.836" font-family="Helvetica">1400</text>
<text xml:space="preserve" x="454.531" y="358.189" fill="black" font-size="12.836" font-family="Helvetica">1600</text>
<text xml:space="preserve" x="531.691" y="338.695" fill="black" font-size="8.72403" font-family="Helvetica">3</text>
<text xml:space="preserve" x="518.696" y="345.193" fill="black" font-size="12.836" font-family="Helvetica">10</text>
<text xml:space="preserve" x="512.198" y="345.193" fill="black" font-size="12.836" font-family="Times">&#0215;</text>
<text xml:space="preserve" x="440.723" y="370.372" fill="black" font-size="12.836" font-family="Helvetica">Energy[keV] </text>
<path d="M57.1929,345.762v -307.344" fill="none" stroke="black"/>
<path d="M70.7992,345.762h -13.6063" fill="none" stroke="black"/>
<path d="M63.9961,334.053h -6.80315" fill="none" stroke="black"/>
<path d="M63.9961,322.345h -6.80315" fill="none" stroke="black"/>
<path d="M63.9961,310.637h -6.80315" fill="none" stroke="black"/>
<path d="M70.7992,298.928h -13.6063" fill="none" stroke="black"/>
<path d="M63.9961,287.22h -6.80315" fill="none" stroke="black"/>
<path d="M63.9961,275.512h -6.80315" fill="none" stroke="black"/>
<path d="M63.9961,263.803h -6.80315" fill="none" stroke="black"/>
<path d="M70.7992,252.095h -13.6063" fill="none" stroke="black"/>
<path d="M63.9961,240.387h -6.80315" fill="none" stroke="black"/>
<path d="M63.9961,228.678h -6.80315" fill="none" stroke="black"/>
<path d="M63.9961,216.97h -6.80315" fill="none" stroke="black"/>
<path d="M70.7992,205.262h -13.6063" fill="none" stroke="black"/>
<path d="M63.9961,193.553h -6.80315" fill="none" stroke="black"/>
<path d="M63.9961,181.845h -6.80315" fill="none" stroke="black"/>
<path d="M63.9961,170.137h -6.80315" fill="none" stroke="black"/>
<path d="M70.7992,158.428h -13.6063" fill="none" stroke="black"/>
<path d="M63.9961,146.72h -6.80315" fill="none" stroke="black"/>
<path d="M63.9961,135.012h -6.80315" fill="none" stroke="black"/>
<path d="M63.9961,123.303h -6.80315" fill="none" stroke="black"/>
<path d="M70.7992,111.595h -13.6063" fill="none" stroke="black"/>
<path d="M63.9961,99.8867h -6.80315" fill="none" stroke="black"/>
<path d="M63.9961,88.1784h -6.80315" fill="none" stroke="black"/>
<path d="M63.9961,76.4701h -6.80315" fill="none" stroke="black"/>
<path d="M70.7992,64.7617h -13.6063" fill="none" stroke="black"/>
<path d="M70.7992,64.7617h -13.6063" fill="none" stroke="black"/>
<path d="M63.9961,53.0534h -6.80315" fill="none" stroke="black"/>
<path d="M63.9961,41.3451h -6.80315" fill="none" stroke="black"/>
<text xml:space="preserve" x="47.6087" y="350.067" fill="black" font-size="12.836" font-family="Helvetica">0</text>
<text xml:space="preserve" x="41.111" y="303.77" fill="black" font-size="12.836" font-family="Helvetica">20</text>
<text xml:space="preserve" x="41.111" y="256.661" fill="black" font-size="12.836" font-family="Helvetica">40</text>
<text xml:space="preserve" x="41.111" y="209.553" fill="black" font-size="12.836" font-family="Helvetica">60</text>
<text xml:space="preserve" x="41.111" y="163.256" fill="black" font-size="12.836" font-family="Helvetica">80</text>
<text xml:space="preserve" x="33.801" y="116.147" fill="black" font-size="12.836" font-family="Helvetica">100</text>
<text xml:space="preserve" x="33.801" y="69.0387" fill="black" font-size="12.836" font-family="Helvetica">120</text>
<g transform="rotate(-90,21.6177,76.3486)">
<text xml:space="preserve" x="21.6177" y="76.3486" fill="black" font-size="12.836" font-family="Helvetica">Counts</text>
</g>
<rect x="442.705" y="24.9717" width="113.386" height="61.4688" fill="white"/>
<path d="M442.705,86.4405h 113.386" fill="none" stroke="black"/>
<path d="M556.091,86.4405v -61.4688" fill="none" stroke="black"/>
<path d="M556.091,24.9717h -113.386" fill="none" stroke="black"/>
<path d="M442.705,24.9717v 61.4688" fill="none" stroke="black"/>
<text xml:space="preserve" x="488.644" y="37.3621" fill="black" font-size="13.4705" font-family="Helvetica">hist</text>
<path d="M442.705,40.3389h 113.386" fill="none" stroke="black"/>
<text xml:space="preserve" x="448.033" y="52.7943" fill="black" font-size="13.0884" font-family="Helvetica">Entries </text>
<text xml:space="preserve" x="517.884" y="52.7943" fill="black" font-size="13.0884" font-family="Helvetica"> 5644</text>
<text xml:space="preserve" x="448.033" y="68.2264" fill="black" font-size="13.0884" font-family="Helvetica">Mean  </text>
<text xml:space="preserve" x="510.574" y="68.2264" fill="black" font-size="13.0884" font-family="Helvetica">  403.8</text>
<text xml:space="preserve" x="448.033" y="82.8464" fill="black" font-size="13.0884" font-family="Helvetica">Std Dev   </text>
<text xml:space="preserve" x="510.574" y="82.8464" fill="black" font-size="13.0884" font-family="Helvetica">  140.2</text>
<text xml:space="preserve" x="219.799" y="18.681" fill="black" font-size="16.9774" font-family="Helvetica">Na at detector B </text></svg>
