<?xml version="1.0" standalone="no"?>
<svg width="567.429" height="384.68" viewBox="0 0 567.429 384.68" xmlns="http://www.w3.org/2000/svg" shape-rendering="crispEdges">
<title>
img/main_mesurement/Na_C.svg
</title>
<desc>
Creator: ROOT Version 6.22/09
CreationDate: Tue Jun  8 19:08:01 2021</desc>
<defs>
</defs>
<rect x="0.5" y="0" width="566.929" height="384.18" fill="white"/>
<rect x="57.1929" y="38.418" width="453.543" height="307.344" fill="white"/>
<rect x="57.1929" y="38.418" width="453.543" height="307.344" fill="none" stroke="black"/>
<rect x="57.1929" y="38.418" width="453.543" height="307.344" fill="white"/>
<rect x="57.1929" y="38.418" width="453.543" height="307.344" fill="none" stroke="black"/>
<path d="M57.1929,342.744h 0.453543v 3.01761h 3.1748v -3.01761h 0.453543v 3.01761h 8.61732v -6.03522h 0.453543v 3.01761h 0.453543v 3.01761h 2.26772v -3.01761h 0.453543v 3.01761h 0.453543v -6.03522h 0.453543v 3.01761h 0.453543v 3.01761h 0.453543v
 -3.01761h 0.907087v -9.05284h 0.907087v 6.03522h 0.453543v -6.03522h 0.907087v 3.01761h 0.907087v -6.03522h 0.453543v -9.05284h 0.453543v 15.0881h 0.907087v -9.05284h 0.453543v -6.03522h 0.453543v 9.05284h 0.907087v -15.0881h 0.453543v 3.01761h
 0.453543v 3.01761h 0.453543v -6.03522h 0.453543v -9.05284h 0.453543v 12.0704h 0.453543v -3.01761h 0.453543v -15.0881h 0.453543v 3.01761h 0.453543v -21.1233h 0.453543v 12.0704h 0.453543v 24.1409h 0.453543v -18.1057h 0.453543v -39.229h 0.453543v
 -12.0704h 0.453543v 6.03522h 0.453543v 21.1233h 0.453543v -6.03522h 0.453543v -12.0704h 0.453543v 12.0704h 0.907087v 21.1233h 0.453543v -21.1233h 0.453543v 18.1057h 0.453543v -18.1057h 0.453543v 3.01761h 0.453543v -3.01761h 0.453543v 24.1409h
 0.453543v -12.0704h 0.453543v -9.05284h 0.453543v -30.1761h 0.453543v 36.2113h 0.453543v -42.2466h 0.453543v 36.2113h 0.453543v -42.2466h 0.453543v 15.0881h 0.453543v -3.01761h 0.453543v 33.1937h 0.453543v -45.2642h 0.453543v 48.2818h 0.453543v
 -30.1761h 0.453543v 6.03522h 0.453543v 33.1937h 0.453543v -27.1585h 0.453543v 36.2113h 0.453543v -24.1409h 0.453543v -12.0704h 0.453543v 21.1233h 0.453543v 6.03522h 0.453543v -3.01761h 0.453543v 24.1409h 0.453543v -60.3522h 0.453543v 24.1409h
 0.453543v -9.05284h 0.453543v 30.1761h 0.453543v -24.1409h 0.453543v -18.1057h 0.453543v 24.1409h 0.453543v -39.229h 0.453543v 24.1409h 0.453543v -18.1057h 0.907087v 36.2113h 0.453543v -9.05284h 0.453543v 48.2818h 0.453543v -42.2466h 0.453543v
 -18.1057h 0.453543v 6.03522h 0.907087v 12.0704h 0.453543v -3.01761h 0.453543v 12.0704h 0.453543v -21.1233h 0.453543v 24.1409h 0.453543v -27.1585h 0.453543v 33.1937h 0.453543v -12.0704h 0.453543v -9.05284h 0.453543v 6.03522h 0.453543v 15.0881h
 0.453543v -9.05284h 0.453543v 3.01761h 0.453543v 12.0704h 0.453543v -9.05284h 0.453543v 3.01761h 0.453543v -9.05284h 0.453543v 15.0881h 0.453543v 21.1233h 0.453543v -12.0704h 0.453543v -12.0704h 0.453543v -18.1057h 0.453543v -6.03522h 0.453543v
 -9.05284h 0.453543v 24.1409h 0.453543v 12.0704h 0.453543v -24.1409h 0.907087v 12.0704h 0.453543v -3.01761h 0.907087v 12.0704h 0.453543v 21.1233h 0.453543v -12.0704h 0.453543v -30.1761h 0.453543v -18.1057h 0.453543v 21.1233h 0.453543v 15.0881h
 0.453543v -15.0881h 0.907087v 6.03522h 0.453543v -9.05284h 0.453543v -9.05284h 0.453543v 3.01761h 0.453543v -3.01761h 0.453543v 24.1409h 0.453543v -30.1761h 0.453543v 18.1057h 0.453543v -18.1057h 0.453543v 21.1233h 0.453543v 12.0704h 0.453543v
 -18.1057h 0.453543v 21.1233h 0.453543v -36.2113h 0.453543v 3.01761h 0.453543v -9.05284h 0.907087v 9.05284h 0.907087v -3.01761h 0.453543v -27.1585h 0.453543v -36.2113h 0.453543v 42.2466h 0.453543v -21.1233h 0.453543v -24.1409h 0.453543v 3.01761h
 0.453543v -21.1233h 0.453543v -39.229h 0.453543v 33.1937h 0.453543v -9.05284h 0.453543v -30.1761h 0.453543v -63.3699h 0.453543v 69.4051h 0.453543v -84.4931h 0.453543v 24.1409h 0.453543v -18.1057h 0.453543v 12.0704h 0.453543v 12.0704h 0.453543v
 3.01761h 0.453543v -3.01761h 0.453543v -18.1057h 0.453543v 15.0881h 0.453543v -15.0881h 0.453543v 15.0881h 0.453543v 48.2818h 0.453543v -18.1057h 0.453543v 45.2642h 0.453543v 57.3346h 0.453543v -39.229h 0.453543v 54.317h 0.453543v -27.1585h
 0.453543v 9.05284h 0.453543v 33.1937h 0.453543v 27.1585h 0.453543v 30.1761h 0.453543v -12.0704h 0.453543v 24.1409h 0.453543v -3.01761h 0.453543v 18.1057h 0.453543v -18.1057h 0.453543v 18.1057h 0.453543v -6.03522h 0.453543v 15.0881h 0.453543v
 -6.03522h 0.453543v 12.0704h 0.453543v -9.05284h 0.453543v 3.01761h 0.907087v 6.03522h 0.453543v -3.01761h 0.453543v -3.01761h 0.453543v 9.05284h 0.453543v -3.01761h 0.453543v -6.03522h 0.907087v 6.03522h 0.453543v -3.01761h 0.907087v 3.01761h
 1.81417v -3.01761h 0.453543v 6.03522h 0.453543v -6.03522h 0.453543v 6.03522h 0.453543v -3.01761h 0.907087v 3.01761h 1.36063v -6.03522h 0.453543v -12.0704h 0.453543v 15.0881h 0.453543v 3.01761h 0.453543v -3.01761h 0.907087v 3.01761h 1.36063v
 -3.01761h 0.453543v 3.01761h 0.907087v -6.03522h 0.453543v 3.01761h 0.453543v 3.01761h 0.453543v -3.01761h 0.907087v 3.01761h 0.453543v -3.01761h 0.453543v 3.01761h 0.907087v -3.01761h 0.453543v -3.01761h 0.453543v 6.03522h 1.36063v -3.01761h
 0.453543v 3.01761h 0.907087v -3.01761h 0.453543v 3.01761h 0.907087v -3.01761h 0.453543v 3.01761h 2.26772v -12.0704h 0.453543v 12.0704h 0.453543v -3.01761h 0.453543v 3.01761h 1.81417v -3.01761h 0.907087v 3.01761h 0.453543v -6.03522h 0.907087v
 3.01761h 0.907087v 3.01761h 1.36063v -3.01761h 0.453543v 3.01761h 0.453543v -6.03522h 0.453543v 3.01761h 0.453543v 3.01761h 0.453543v -6.03522h 0.453543v -3.01761h 0.453543v 9.05284h 0.453543v -3.01761h 0.453543v 3.01761h 0.453543v -3.01761h
 0.453543v 3.01761h 0.453543v -3.01761h 0.453543v 3.01761h 0.453543v -3.01761h 0.453543v -3.01761h 0.453543v 6.03522h 0.453543v -3.01761h 0.453543v -6.03522h 0.453543v 9.05284h 0.907087v -9.05284h 0.453543v 6.03522h 0.453543v 3.01761h 0.907087v
 -9.05284h 0.453543v -6.03522h 0.453543v 15.0881h 0.453543v -3.01761h 0.907087v 3.01761h 0.453543v -3.01761h 0.907087v 3.01761h 0.453543v -3.01761h 0.907087v 3.01761h 0.907087v -3.01761h 0.453543v 3.01761h 0.453543v -3.01761h 0.453543v 3.01761h
 0.453543v -3.01761h 1.81417v 3.01761h 0.453543v -3.01761h 0.453543v 3.01761h 0.453543v -3.01761h 0.907087v -3.01761h 0.453543v 3.01761h 0.453543v -3.01761h 0.907087v 3.01761h 0.907087v -3.01761h 0.453543v 6.03522h 0.453543v -6.03522h 0.453543v
 -3.01761h 0.453543v 3.01761h 0.453543v 3.01761h 0.453543v 3.01761h 0.453543v -6.03522h 0.453543v -3.01761h 0.453543v 9.05284h 0.907087v -6.03522h 0.907087v 6.03522h 0.453543v -3.01761h 0.453543v -3.01761h 0.453543v 3.01761h 0.453543v -3.01761h
 0.453543v 6.03522h 0.907087v -6.03522h 0.453543v 3.01761h 0.453543v 3.01761h 1.36063v -3.01761h 0.453543v 3.01761h 0.453543v -6.03522h 0.453543v 3.01761h 0.453543v 3.01761h 0.907087v -3.01761h 0.453543v -3.01761h 0.453543v 6.03522h 1.36063v
 -9.05284h 0.453543v 9.05284h 0.453543v -9.05284h 0.453543v 6.03522h 1.81417v 3.01761h 0.453543v -9.05284h 0.453543v 3.01761h 0.907087v 6.03522h 0.453543v -12.0704h 0.453543v 12.0704h 0.907087v -3.01761h 0.907087v 3.01761h 0.907087v -6.03522h
 0.453543v 3.01761h 0.907087v 3.01761h 0.453543v -3.01761h 0.453543v 3.01761h 0.907087v -6.03522h 0.453543v 6.03522h 0.907087v -3.01761h 0.453543v 3.01761h 0.453543v -3.01761h 0.907087v 3.01761h 0.453543v -3.01761h 0.453543v 3.01761h 0.907087v
 -3.01761h 0.907087v 3.01761h 0.453543v -6.03522h 0.453543v 6.03522h 0.907087v -6.03522h 0.453543v 6.03522h 1.36063v -3.01761h 0.453543v 3.01761h 2.26772v -6.03522h 0.453543v 6.03522h 0.453543v -3.01761h 0.453543v -3.01761h 0.453543v 6.03522h
 2.26772v -3.01761h 0.453543v 3.01761h 0.907087v -3.01761h 0.453543v 3.01761h 0.453543v -3.01761h 0.453543v 3.01761h 0.453543v -3.01761h 0.453543v 3.01761h 0.453543v -6.03522h 0.907087v 3.01761h 0.907087v -3.01761h 0.453543v -3.01761h 0.453543v
 9.05284h 0.453543v -3.01761h 0.907087v -6.03522h 0.453543v 6.03522h 0.907087v 3.01761h 0.453543v -9.05284h 0.453543v 9.05284h 0.453543v -9.05284h 0.453543v 6.03522h 0.453543v 3.01761h 0.453543v -9.05284h 0.453543v 6.03522h 0.453543v -6.03522h
 0.453543v 3.01761h 0.907087v 3.01761h 0.453543v -3.01761h 0.907087v -6.03522h 0.453543v 6.03522h 0.453543v -3.01761h 0.453543v 3.01761h 0.453543v -6.03522h 0.453543v 9.05284h 0.453543v -6.03522h 0.453543v 9.05284h 0.453543v -3.01761h 0.453543v
 -3.01761h 0.453543v -3.01761h 0.453543v 6.03522h 0.907087v -6.03522h 0.453543v 9.05284h 1.36063v -6.03522h 0.453543v 3.01761h 0.453543v 3.01761h 0.453543v -3.01761h 0.453543v 3.01761h 0.453543v -3.01761h 0.453543v 3.01761h 0.453543v -3.01761h
 0.453543v 3.01761h 0.907087v -6.03522h 0.907087v 6.03522h 0.453543v -3.01761h 0.453543v 3.01761h 1.36063v -3.01761h 0.453543v 3.01761h 5.89606v -6.03522h 0.453543v 6.03522h 2.26772v -3.01761h 0.453543v 3.01761h 1.81417v -3.01761h 0.453543v 3.01761h
 0.453543v -3.01761h 0.453543v 3.01761h 1.36063v -3.01761h 0.453543v 3.01761h 3.1748v -3.01761h 0.453543v 3.01761h 1.36063v -3.01761h 0.453543v 3.01761h 4.53543v -3.01761h 0.453543v 3.01761h 0.907087v -3.01761h 0.453543v 3.01761h 4.53543v -3.01761h
 0.453543v 3.01761h 1.36063v -3.01761h 0.453543v 3.01761h 5.44252v -3.01761h 0.453543v 3.01761h 4.53543v -3.01761h 0.453543v 3.01761h 10.4315v -3.01761h 0.453543v 3.01761h 1.36063v -3.01761h 0.453543v 3.01761h 1.36063v -3.01761h 0.453543v 3.01761h
 0.453543v -3.01761h 0.453543v 3.01761h 0.907087v -3.01761h 0.453543v 3.01761h 4.53543v -3.01761h 0.453543v 3.01761h 1.81417v -3.01761h 0.453543v 3.01761h 0.453543v -3.01761h 0.453543v 3.01761h 1.81417v -3.01761h 0.907087v 3.01761h 3.62835v -3.01761h
 0.453543v 3.01761h 0.453543v -3.01761h 0.453543v 3.01761h 79.3701v -3.01761h 0.453543v 3.01761h 40.8189v -3.01761h 0.453543v 3.01761h 12.6992" fill="none" stroke="#000099"/>
<path d="M140.064,293.528l 0.259743, -5.26621l 0.259743, -5.61714l 0.259743, -5.96884l 0.259743, -6.31824l 0.259743, -6.66202l 0.259743, -6.9966l 0.259743, -7.31821l 0.259743, -7.62292l 0.259743, -7.90665l 0.259743, -8.16527l 0.259743, -8.39463l
 0.259743, -8.5906l 0.259743, -8.74918l 0.259743, -8.86653l 0.259743, -8.93905l 0.259743, -8.96345l 0.259743, -8.9368l 0.259743, -8.85663l 0.259743, -8.72094l 0.259743, -8.52829l 0.259743, -8.27785l 0.259743, -7.9694l 0.259743, -7.60339l 0.259743,
 -7.18098l 0.259743, -6.70398l 0.259743, -6.17492l 0.259743, -5.59697l 0.259743, -4.97398l 0.259743, -4.31037l 0.259743, -3.61113l 0.259743, -2.88173l 0.259743, -2.12807l 0.259743, -1.35638l 0.259743, -0.573153l 0.259743, 0.214963l 0.259743, 1.00125l
 0.259743, 1.779l 0.259743, 2.54165l 0.259743, 3.28283l 0.259743, 3.99649l 0.259743, 4.67696l 0.259743, 5.319l 0.259743, 5.91794l 0.259743, 6.46967l 0.259743, 6.9707l 0.259743, 7.4182l 0.259743, 7.81004l 0.259743, 8.14476l 0.259743, 8.4216"
 fill="none" stroke="#ff0000" stroke-width="2"/>
<path d="M152.792,142.763l 0.259743, 8.64046l 0.259743, 8.80191l 0.259743, 8.90711l 0.259743, 8.95782l 0.259743, 8.95629l 0.259743, 8.90527l 0.259743, 8.80788l 0.259743, 8.66758l 0.259743, 8.48813l 0.259743, 8.27345l 0.259743, 8.02762l 0.259743,
 7.75479l 0.259743, 7.45912l 0.259743, 7.14469l 0.259743, 6.81553l 0.259743, 6.47548l 0.259743, 6.12821l 0.259743, 5.77715l 0.259743, 5.42551l 0.259743, 5.0762l 0.259743, 4.73184l 0.259743, 4.39477l 0.259743, 4.067l 0.259743, 3.75028l 0.259743,
 3.44604l 0.259743, 3.15543l 0.259743, 2.87934l 0.259743, 2.61839l 0.259743, 2.37299l 0.259743, 2.14334l 0.259743, 1.92942l 0.259743, 1.73106l 0.259743, 1.54796l 0.259743, 1.37968l 0.259743, 1.22566l 0.259743, 1.0853l 0.259743, 0.957898l 0.259743,
 0.842728l 0.259743, 0.739026l 0.259743, 0.646015l 0.259743, 0.562913l 0.259743, 0.488946l 0.259743, 0.423358l 0.259743, 0.365413l 0.259743, 0.314411l 0.259743, 0.269681l 0.259743, 0.230593l 0.259743, 0.196558l 0.259743, 0.167027" fill="none"
 stroke="#ff0000" stroke-width="2"/>
<path d="M165.519,344.916l 0.259743, 0.141493" fill="none" stroke="#ff0000" stroke-width="2"/>
<rect x="442.705" y="24.9717" width="113.386" height="61.4688" fill="white"/>
<path d="M442.705,86.4405h 113.386" fill="none" stroke="black"/>
<path d="M556.091,86.4405v -61.4688" fill="none" stroke="black"/>
<path d="M556.091,24.9717h -113.386" fill="none" stroke="black"/>
<path d="M442.705,24.9717v 61.4688" fill="none" stroke="black"/>
<text xml:space="preserve" x="488.644" y="37.3621" fill="black" font-size="13.4705" font-family="Helvetica">hist</text>
<path d="M442.705,40.3389h 113.386" fill="none" stroke="black"/>
<text xml:space="preserve" x="448.033" y="52.7943" fill="black" font-size="13.0884" font-family="Helvetica">Entries </text>
<text xml:space="preserve" x="517.884" y="52.7943" fill="black" font-size="13.0884" font-family="Helvetica"> 5644</text>
<text xml:space="preserve" x="448.033" y="68.2264" fill="black" font-size="13.0884" font-family="Helvetica">Mean  </text>
<text xml:space="preserve" x="510.574" y="68.2264" fill="black" font-size="13.0884" font-family="Helvetica">  515.4</text>
<text xml:space="preserve" x="448.033" y="82.8464" fill="black" font-size="13.0884" font-family="Helvetica">Std Dev   </text>
<text xml:space="preserve" x="510.574" y="82.8464" fill="black" font-size="13.0884" font-family="Helvetica">  244.9</text>
<path d="M57.1929,345.762h 453.543" fill="none" stroke="black"/>
<path d="M62.0114,336.541v 9.22031" fill="none" stroke="black"/>
<path d="M79.3276,341.152v 4.61016" fill="none" stroke="black"/>
<path d="M96.6438,341.152v 4.61016" fill="none" stroke="black"/>
<path d="M113.96,341.152v 4.61016" fill="none" stroke="black"/>
<path d="M131.276,341.152v 4.61016" fill="none" stroke="black"/>
<path d="M148.592,336.541v 9.22031" fill="none" stroke="black"/>
<path d="M165.909,341.152v 4.61016" fill="none" stroke="black"/>
<path d="M183.225,341.152v 4.61016" fill="none" stroke="black"/>
<path d="M200.541,341.152v 4.61016" fill="none" stroke="black"/>
<path d="M217.857,341.152v 4.61016" fill="none" stroke="black"/>
<path d="M235.173,336.541v 9.22031" fill="none" stroke="black"/>
<path d="M252.49,341.152v 4.61016" fill="none" stroke="black"/>
<path d="M269.806,341.152v 4.61016" fill="none" stroke="black"/>
<path d="M287.122,341.152v 4.61016" fill="none" stroke="black"/>
<path d="M304.438,341.152v 4.61016" fill="none" stroke="black"/>
<path d="M321.755,336.541v 9.22031" fill="none" stroke="black"/>
<path d="M339.071,341.152v 4.61016" fill="none" stroke="black"/>
<path d="M356.387,341.152v 4.61016" fill="none" stroke="black"/>
<path d="M373.703,341.152v 4.61016" fill="none" stroke="black"/>
<path d="M391.019,341.152v 4.61016" fill="none" stroke="black"/>
<path d="M408.336,336.541v 9.22031" fill="none" stroke="black"/>
<path d="M425.652,341.152v 4.61016" fill="none" stroke="black"/>
<path d="M442.968,341.152v 4.61016" fill="none" stroke="black"/>
<path d="M460.284,341.152v 4.61016" fill="none" stroke="black"/>
<path d="M477.6,341.152v 4.61016" fill="none" stroke="black"/>
<path d="M494.917,336.541v 9.22031" fill="none" stroke="black"/>
<path d="M62.0114,336.541v 9.22031" fill="none" stroke="black"/>
<path d="M494.917,336.541v 9.22031" fill="none" stroke="black"/>
<text xml:space="preserve" x="58.1676" y="358.189" fill="black" font-size="12.836" font-family="Helvetica">0</text>
<text xml:space="preserve" x="137.765" y="358.189" fill="black" font-size="12.836" font-family="Helvetica">500</text>
<text xml:space="preserve" x="220.611" y="358.189" fill="black" font-size="12.836" font-family="Helvetica">1000</text>
<text xml:space="preserve" x="307.519" y="358.189" fill="black" font-size="12.836" font-family="Helvetica">1500</text>
<text xml:space="preserve" x="394.426" y="358.189" fill="black" font-size="12.836" font-family="Helvetica">2000</text>
<text xml:space="preserve" x="480.522" y="358.189" fill="black" font-size="12.836" font-family="Helvetica">2500</text>
<text xml:space="preserve" x="531.691" y="338.695" fill="black" font-size="8.72403" font-family="Helvetica">3</text>
<text xml:space="preserve" x="518.696" y="345.193" fill="black" font-size="12.836" font-family="Helvetica">10</text>
<text xml:space="preserve" x="512.198" y="345.193" fill="black" font-size="12.836" font-family="Times">&#0215;</text>
<text xml:space="preserve" x="446.408" y="370.372" fill="black" font-size="12.836" font-family="Helvetica">Energy[eV] </text>
<path d="M57.1929,345.762v -307.344" fill="none" stroke="black"/>
<path d="M70.7992,345.762h -13.6063" fill="none" stroke="black"/>
<path d="M63.9961,330.674h -6.80315" fill="none" stroke="black"/>
<path d="M63.9961,315.586h -6.80315" fill="none" stroke="black"/>
<path d="M63.9961,300.498h -6.80315" fill="none" stroke="black"/>
<path d="M70.7992,285.41h -13.6063" fill="none" stroke="black"/>
<path d="M63.9961,270.322h -6.80315" fill="none" stroke="black"/>
<path d="M63.9961,255.233h -6.80315" fill="none" stroke="black"/>
<path d="M63.9961,240.145h -6.80315" fill="none" stroke="black"/>
<path d="M70.7992,225.057h -13.6063" fill="none" stroke="black"/>
<path d="M63.9961,209.969h -6.80315" fill="none" stroke="black"/>
<path d="M63.9961,194.881h -6.80315" fill="none" stroke="black"/>
<path d="M63.9961,179.793h -6.80315" fill="none" stroke="black"/>
<path d="M70.7992,164.705h -13.6063" fill="none" stroke="black"/>
<path d="M63.9961,149.617h -6.80315" fill="none" stroke="black"/>
<path d="M63.9961,134.529h -6.80315" fill="none" stroke="black"/>
<path d="M63.9961,119.441h -6.80315" fill="none" stroke="black"/>
<path d="M70.7992,104.353h -13.6063" fill="none" stroke="black"/>
<path d="M63.9961,89.2647h -6.80315" fill="none" stroke="black"/>
<path d="M63.9961,74.1767h -6.80315" fill="none" stroke="black"/>
<path d="M63.9961,59.0886h -6.80315" fill="none" stroke="black"/>
<path d="M70.7992,44.0006h -13.6063" fill="none" stroke="black"/>
<path d="M70.7992,44.0006h -13.6063" fill="none" stroke="black"/>
<text xml:space="preserve" x="47.6087" y="350.067" fill="black" font-size="12.836" font-family="Helvetica">0</text>
<text xml:space="preserve" x="41.111" y="289.962" fill="black" font-size="12.836" font-family="Helvetica">20</text>
<text xml:space="preserve" x="41.111" y="229.858" fill="black" font-size="12.836" font-family="Helvetica">40</text>
<text xml:space="preserve" x="41.111" y="168.942" fill="black" font-size="12.836" font-family="Helvetica">60</text>
<text xml:space="preserve" x="41.111" y="108.837" fill="black" font-size="12.836" font-family="Helvetica">80</text>
<text xml:space="preserve" x="33.801" y="48.7332" fill="black" font-size="12.836" font-family="Helvetica">100</text>
<g transform="rotate(-90,21.6177,76.3486)">
<text xml:space="preserve" x="21.6177" y="76.3486" fill="black" font-size="12.836" font-family="Helvetica">Counts</text>
</g>
<rect x="442.705" y="24.9717" width="113.386" height="61.4688" fill="white"/>
<path d="M442.705,86.4405h 113.386" fill="none" stroke="black"/>
<path d="M556.091,86.4405v -61.4688" fill="none" stroke="black"/>
<path d="M556.091,24.9717h -113.386" fill="none" stroke="black"/>
<path d="M442.705,24.9717v 61.4688" fill="none" stroke="black"/>
<text xml:space="preserve" x="488.644" y="37.3621" fill="black" font-size="13.4705" font-family="Helvetica">hist</text>
<path d="M442.705,40.3389h 113.386" fill="none" stroke="black"/>
<text xml:space="preserve" x="448.033" y="52.7943" fill="black" font-size="13.0884" font-family="Helvetica">Entries </text>
<text xml:space="preserve" x="517.884" y="52.7943" fill="black" font-size="13.0884" font-family="Helvetica"> 5644</text>
<text xml:space="preserve" x="448.033" y="68.2264" fill="black" font-size="13.0884" font-family="Helvetica">Mean  </text>
<text xml:space="preserve" x="510.574" y="68.2264" fill="black" font-size="13.0884" font-family="Helvetica">  515.4</text>
<text xml:space="preserve" x="448.033" y="82.8464" fill="black" font-size="13.0884" font-family="Helvetica">Std Dev   </text>
<text xml:space="preserve" x="510.574" y="82.8464" fill="black" font-size="13.0884" font-family="Helvetica">  244.9</text>
<text xml:space="preserve" x="218.987" y="18.681" fill="black" font-size="16.9774" font-family="Helvetica">Na at detector C </text></svg>
