<?xml version="1.0" standalone="no"?>
<svg width="567.429" height="384.68" viewBox="0 0 567.429 384.68" xmlns="http://www.w3.org/2000/svg" shape-rendering="crispEdges">
<title>
img/main_mesurement/Na_C.svg
</title>
<desc>
Creator: ROOT Version 6.22/09
CreationDate: Wed Jun  9 14:29:17 2021</desc>
<defs>
</defs>
<rect x="0.5" y="0" width="566.929" height="384.18" fill="white"/>
<rect x="57.1929" y="38.418" width="453.543" height="307.344" fill="white"/>
<rect x="57.1929" y="38.418" width="453.543" height="307.344" fill="none" stroke="black"/>
<rect x="57.1929" y="38.418" width="453.543" height="307.344" fill="white"/>
<rect x="57.1929" y="38.418" width="453.543" height="307.344" fill="none" stroke="black"/>
<path d="M57.1929,342.744h 0.453543v 3.01761h 3.1748v -3.01761h 0.453543v 3.01761h 8.61732v -6.03522h 0.453543v 3.01761h 0.453543v 3.01761h 2.26772v -3.01761h 0.453543v 3.01761h 0.453543v -6.03522h 0.453543v 3.01761h 0.453543v 3.01761h 0.453543v
 -3.01761h 0.907087v -9.05284h 0.907087v 6.03522h 0.453543v -6.03522h 0.907087v 3.01761h 0.907087v -6.03522h 0.453543v -9.05284h 0.453543v 15.0881h 0.907087v -9.05284h 0.453543v -6.03522h 0.453543v 9.05284h 0.907087v -15.0881h 0.453543v 3.01761h
 0.453543v 3.01761h 0.453543v -6.03522h 0.453543v -9.05284h 0.453543v 12.0704h 0.453543v -3.01761h 0.453543v -15.0881h 0.453543v 3.01761h 0.453543v -21.1233h 0.453543v 12.0704h 0.453543v 24.1409h 0.453543v -18.1057h 0.453543v -39.229h 0.453543v
 -12.0704h 0.453543v 6.03522h 0.453543v 21.1233h 0.453543v -6.03522h 0.453543v -12.0704h 0.453543v 12.0704h 0.907087v 21.1233h 0.453543v -21.1233h 0.453543v 18.1057h 0.453543v -18.1057h 0.453543v 3.01761h 0.453543v -3.01761h 0.453543v 24.1409h
 0.453543v -12.0704h 0.453543v -9.05284h 0.453543v -30.1761h 0.453543v 36.2113h 0.453543v -42.2466h 0.453543v 36.2113h 0.453543v -42.2466h 0.453543v 15.0881h 0.453543v -3.01761h 0.453543v 33.1937h 0.453543v -45.2642h 0.453543v 48.2818h 0.453543v
 -30.1761h 0.453543v 6.03522h 0.453543v 33.1937h 0.453543v -27.1585h 0.453543v 36.2113h 0.453543v -24.1409h 0.453543v -12.0704h 0.453543v 21.1233h 0.453543v 6.03522h 0.453543v -3.01761h 0.453543v 24.1409h 0.453543v -60.3522h 0.453543v 24.1409h
 0.453543v -9.05284h 0.453543v 30.1761h 0.453543v -24.1409h 0.453543v -18.1057h 0.453543v 24.1409h 0.453543v -39.229h 0.453543v 24.1409h 0.453543v -18.1057h 0.907087v 36.2113h 0.453543v -9.05284h 0.453543v 48.2818h 0.453543v -42.2466h 0.453543v
 -18.1057h 0.453543v 6.03522h 0.907087v 12.0704h 0.453543v -3.01761h 0.453543v 12.0704h 0.453543v -21.1233h 0.453543v 24.1409h 0.453543v -27.1585h 0.453543v 33.1937h 0.453543v -12.0704h 0.453543v -9.05284h 0.453543v 6.03522h 0.453543v 15.0881h
 0.453543v -9.05284h 0.453543v 3.01761h 0.453543v 12.0704h 0.453543v -9.05284h 0.453543v 3.01761h 0.453543v -9.05284h 0.453543v 15.0881h 0.453543v 21.1233h 0.453543v -12.0704h 0.453543v -12.0704h 0.453543v -18.1057h 0.453543v -6.03522h 0.453543v
 -9.05284h 0.453543v 24.1409h 0.453543v 12.0704h 0.453543v -24.1409h 0.907087v 12.0704h 0.453543v -3.01761h 0.907087v 12.0704h 0.453543v 21.1233h 0.453543v -12.0704h 0.453543v -30.1761h 0.453543v -18.1057h 0.453543v 21.1233h 0.453543v 15.0881h
 0.453543v -15.0881h 0.907087v 6.03522h 0.453543v -9.05284h 0.453543v -9.05284h 0.453543v 3.01761h 0.453543v -3.01761h 0.453543v 24.1409h 0.453543v -30.1761h 0.453543v 18.1057h 0.453543v -18.1057h 0.453543v 21.1233h 0.453543v 12.0704h 0.453543v
 -18.1057h 0.453543v 21.1233h 0.453543v -36.2113h 0.453543v 3.01761h 0.453543v -9.05284h 0.907087v 9.05284h 0.907087v -3.01761h 0.453543v -27.1585h 0.453543v -36.2113h 0.453543v 42.2466h 0.453543v -21.1233h 0.453543v -24.1409h 0.453543v 3.01761h
 0.453543v -21.1233h 0.453543v -39.229h 0.453543v 33.1937h 0.453543v -9.05284h 0.453543v -30.1761h 0.453543v -63.3699h 0.453543v 69.4051h 0.453543v -84.4931h 0.453543v 24.1409h 0.453543v -18.1057h 0.453543v 12.0704h 0.453543v 12.0704h 0.453543v
 3.01761h 0.453543v -3.01761h 0.453543v -18.1057h 0.453543v 15.0881h 0.453543v -15.0881h 0.453543v 15.0881h 0.453543v 48.2818h 0.453543v -18.1057h 0.453543v 45.2642h 0.453543v 57.3346h 0.453543v -39.229h 0.453543v 54.317h 0.453543v -27.1585h
 0.453543v 9.05284h 0.453543v 33.1937h 0.453543v 27.1585h 0.453543v 30.1761h 0.453543v -12.0704h 0.453543v 24.1409h 0.453543v -3.01761h 0.453543v 18.1057h 0.453543v -18.1057h 0.453543v 18.1057h 0.453543v -6.03522h 0.453543v 15.0881h 0.453543v
 -6.03522h 0.453543v 12.0704h 0.453543v -9.05284h 0.453543v 3.01761h 0.907087v 6.03522h 0.453543v -3.01761h 0.453543v -3.01761h 0.453543v 9.05284h 0.453543v -3.01761h 0.453543v -6.03522h 0.907087v 6.03522h 0.453543v -3.01761h 0.907087v 3.01761h
 1.81417v -3.01761h 0.453543v 6.03522h 0.453543v -6.03522h 0.453543v 6.03522h 0.453543v -3.01761h 0.907087v 3.01761h 1.36063v -6.03522h 0.453543v -12.0704h 0.453543v 15.0881h 0.453543v 3.01761h 0.453543v -3.01761h 0.907087v 3.01761h 1.36063v
 -3.01761h 0.453543v 3.01761h 0.907087v -6.03522h 0.453543v 3.01761h 0.453543v 3.01761h 0.453543v -3.01761h 0.907087v 3.01761h 0.453543v -3.01761h 0.453543v 3.01761h 0.907087v -3.01761h 0.453543v -3.01761h 0.453543v 6.03522h 1.36063v -3.01761h
 0.453543v 3.01761h 0.907087v -3.01761h 0.453543v 3.01761h 0.907087v -3.01761h 0.453543v 3.01761h 2.26772v -12.0704h 0.453543v 12.0704h 0.453543v -3.01761h 0.453543v 3.01761h 1.81417v -3.01761h 0.907087v 3.01761h 0.453543v -6.03522h 0.907087v
 3.01761h 0.907087v 3.01761h 1.36063v -3.01761h 0.453543v 3.01761h 0.453543v -6.03522h 0.453543v 3.01761h 0.453543v 3.01761h 0.453543v -6.03522h 0.453543v -3.01761h 0.453543v 9.05284h 0.453543v -3.01761h 0.453543v 3.01761h 0.453543v -3.01761h
 0.453543v 3.01761h 0.453543v -3.01761h 0.453543v 3.01761h 0.453543v -3.01761h 0.453543v -3.01761h 0.453543v 6.03522h 0.453543v -3.01761h 0.453543v -6.03522h 0.453543v 9.05284h 0.907087v -9.05284h 0.453543v 6.03522h 0.453543v 3.01761h 0.907087v
 -9.05284h 0.453543v -6.03522h 0.453543v 15.0881h 0.453543v -3.01761h 0.907087v 3.01761h 0.453543v -3.01761h 0.907087v 3.01761h 0.453543v -3.01761h 0.907087v 3.01761h 0.907087v -3.01761h 0.453543v 3.01761h 0.453543v -3.01761h 0.453543v 3.01761h
 0.453543v -3.01761h 1.81417v 3.01761h 0.453543v -3.01761h 0.453543v 3.01761h 0.453543v -3.01761h 0.907087v -3.01761h 0.453543v 3.01761h 0.453543v -3.01761h 0.907087v 3.01761h 0.907087v -3.01761h 0.453543v 6.03522h 0.453543v -6.03522h 0.453543v
 -3.01761h 0.453543v 3.01761h 0.453543v 3.01761h 0.453543v 3.01761h 0.453543v -6.03522h 0.453543v -3.01761h 0.453543v 9.05284h 0.907087v -6.03522h 0.907087v 6.03522h 0.453543v -3.01761h 0.453543v -3.01761h 0.453543v 3.01761h 0.453543v -3.01761h
 0.453543v 6.03522h 0.907087v -6.03522h 0.453543v 3.01761h 0.453543v 3.01761h 1.36063v -3.01761h 0.453543v 3.01761h 0.453543v -6.03522h 0.453543v 3.01761h 0.453543v 3.01761h 0.907087v -3.01761h 0.453543v -3.01761h 0.453543v 6.03522h 1.36063v
 -9.05284h 0.453543v 9.05284h 0.453543v -9.05284h 0.453543v 6.03522h 1.81417v 3.01761h 0.453543v -9.05284h 0.453543v 3.01761h 0.907087v 6.03522h 0.453543v -12.0704h 0.453543v 12.0704h 0.907087v -3.01761h 0.907087v 3.01761h 0.907087v -6.03522h
 0.453543v 3.01761h 0.907087v 3.01761h 0.453543v -3.01761h 0.453543v 3.01761h 0.907087v -6.03522h 0.453543v 6.03522h 0.907087v -3.01761h 0.453543v 3.01761h 0.453543v -3.01761h 0.907087v 3.01761h 0.453543v -3.01761h 0.453543v 3.01761h 0.907087v
 -3.01761h 0.907087v 3.01761h 0.453543v -6.03522h 0.453543v 6.03522h 0.907087v -6.03522h 0.453543v 6.03522h 1.36063v -3.01761h 0.453543v 3.01761h 2.26772v -6.03522h 0.453543v 6.03522h 0.453543v -3.01761h 0.453543v -3.01761h 0.453543v 6.03522h
 2.26772v -3.01761h 0.453543v 3.01761h 0.907087v -3.01761h 0.453543v 3.01761h 0.453543v -3.01761h 0.453543v 3.01761h 0.453543v -3.01761h 0.453543v 3.01761h 0.453543v -6.03522h 0.907087v 3.01761h 0.907087v -3.01761h 0.453543v -3.01761h 0.453543v
 9.05284h 0.453543v -3.01761h 0.907087v -6.03522h 0.453543v 6.03522h 0.907087v 3.01761h 0.453543v -9.05284h 0.453543v 9.05284h 0.453543v -9.05284h 0.453543v 6.03522h 0.453543v 3.01761h 0.453543v -9.05284h 0.453543v 6.03522h 0.453543v -6.03522h
 0.453543v 3.01761h 0.907087v 3.01761h 0.453543v -3.01761h 0.907087v -6.03522h 0.453543v 6.03522h 0.453543v -3.01761h 0.453543v 3.01761h 0.453543v -6.03522h 0.453543v 9.05284h 0.453543v -6.03522h 0.453543v 9.05284h 0.453543v -3.01761h 0.453543v
 -3.01761h 0.453543v -3.01761h 0.453543v 6.03522h 0.907087v -6.03522h 0.453543v 9.05284h 1.36063v -6.03522h 0.453543v 3.01761h 0.453543v 3.01761h 0.453543v -3.01761h 0.453543v 3.01761h 0.453543v -3.01761h 0.453543v 3.01761h 0.453543v -3.01761h
 0.453543v 3.01761h 0.907087v -6.03522h 0.907087v 6.03522h 0.453543v -3.01761h 0.453543v 3.01761h 1.36063v -3.01761h 0.453543v 3.01761h 5.89606v -6.03522h 0.453543v 6.03522h 2.26772v -3.01761h 0.453543v 3.01761h 1.81417v -3.01761h 0.453543v 3.01761h
 0.453543v -3.01761h 0.453543v 3.01761h 1.36063v -3.01761h 0.453543v 3.01761h 3.1748v -3.01761h 0.453543v 3.01761h 1.36063v -3.01761h 0.453543v 3.01761h 4.53543v -3.01761h 0.453543v 3.01761h 0.907087v -3.01761h 0.453543v 3.01761h 4.53543v -3.01761h
 0.453543v 3.01761h 1.36063v -3.01761h 0.453543v 3.01761h 5.44252v -3.01761h 0.453543v 3.01761h 4.53543v -3.01761h 0.453543v 3.01761h 10.4315v -3.01761h 0.453543v 3.01761h 1.36063v -3.01761h 0.453543v 3.01761h 1.36063v -3.01761h 0.453543v 3.01761h
 0.453543v -3.01761h 0.453543v 3.01761h 0.907087v -3.01761h 0.453543v 3.01761h 4.53543v -3.01761h 0.453543v 3.01761h 1.81417v -3.01761h 0.453543v 3.01761h 0.453543v -3.01761h 0.453543v 3.01761h 1.81417v -3.01761h 0.907087v 3.01761h 3.62835v -3.01761h
 0.453543v 3.01761h 0.453543v -3.01761h 0.453543v 3.01761h 79.3701v -3.01761h 0.453543v 3.01761h 40.8189v -3.01761h 0.453543v 3.01761h 12.6992" fill="none" stroke="#000099"/>
<path d="M139.992,294.94l 0.260554, -5.18519l 0.260554, -5.53759l 0.260554, -5.89157l 0.260554, -6.2441l 0.260554, -6.59188l 0.260554, -6.93135l 0.260554, -7.25876l 0.260554, -7.57015l 0.260554, -7.86143l 0.260554, -8.12842l 0.260554, -8.36692l
 0.260554, -8.57274l 0.260554, -8.74179l 0.260554, -8.87014l 0.260554, -8.95408l 0.260554, -8.9902l 0.260554, -8.97543l 0.260554, -8.90717l 0.260554, -8.78328l 0.260554, -8.60216l 0.260554, -8.36284l 0.260554, -8.06496l 0.260554, -7.70883l 0.260554,
 -7.29546l 0.260554, -6.82656l 0.260554, -6.30452l 0.260554, -5.73246l 0.260554, -5.11411l 0.260554, -4.45385l 0.260554, -3.75662l 0.260554, -3.02788l 0.260554, -2.27352l 0.260554, -1.4998l 0.260554, -0.713248l 0.260554, 0.0794218l 0.260554, 0.87141l
 0.260554, 1.65593l 0.260554, 2.42629l 0.260554, 3.17601l 0.260554, 3.8989l 0.260554, 4.58915l 0.260554, 5.2414l 0.260554, 5.85081l 0.260554, 6.41314l 0.260554, 6.92476l 0.260554, 7.38272l 0.260554, 7.78475l 0.260554, 8.12927l 0.260554, 8.41544"
 fill="none" stroke="#ff0000" stroke-width="2"/>
<path d="M152.759,141.68l 0.260554, 8.64306l 0.260554, 8.81262l 0.260554, 8.92523l 0.260554, 8.98259l 0.260554, 8.98695l 0.260554, 8.941l 0.260554, 8.84789l 0.260554, 8.71109l 0.260554, 8.53435l 0.260554, 8.32166l 0.260554, 8.07712l 0.260554,
 7.80493l 0.260554, 7.50929l 0.260554, 7.19437l 0.260554, 6.86424l 0.260554, 6.5228l 0.260554, 6.1738l 0.260554, 5.82072l 0.260554, 5.46682l 0.260554, 5.11508l 0.260554, 4.76818l 0.260554, 4.42848l 0.260554, 4.09808l 0.260554, 3.77872l 0.260554,
 3.47189l 0.260554, 3.17877l 0.260554, 2.90027l 0.260554, 2.63703l 0.260554, 2.38948l 0.260554, 2.1578l 0.260554, 1.94202l 0.260554, 1.74196l 0.260554, 1.5573l 0.260554, 1.38761l 0.260554, 1.23234l 0.260554, 1.09086l 0.260554, 0.962478l 0.260554,
 0.84645l 0.260554, 0.742006l 0.260554, 0.648359l 0.260554, 0.564717l 0.260554, 0.490296l 0.260554, 0.42433l 0.260554, 0.366076l 0.260554, 0.314823l 0.260554, 0.269894l 0.260554, 0.230651l 0.260554, 0.196497l 0.260554, 0.166878" fill="none"
 stroke="#ff0000" stroke-width="2"/>
<path d="M165.526,344.92l 0.260554, 0.141283" fill="none" stroke="#ff0000" stroke-width="2"/>
<rect x="442.705" y="24.9717" width="113.386" height="61.4688" fill="white"/>
<path d="M442.705,86.4405h 113.386" fill="none" stroke="black"/>
<path d="M556.091,86.4405v -61.4688" fill="none" stroke="black"/>
<path d="M556.091,24.9717h -113.386" fill="none" stroke="black"/>
<path d="M442.705,24.9717v 61.4688" fill="none" stroke="black"/>
<text xml:space="preserve" x="488.644" y="37.3621" fill="black" font-size="13.4705" font-family="Helvetica">hist</text>
<path d="M442.705,40.3389h 113.386" fill="none" stroke="black"/>
<text xml:space="preserve" x="448.033" y="52.7943" fill="black" font-size="13.0884" font-family="Helvetica">Entries </text>
<text xml:space="preserve" x="517.884" y="52.7943" fill="black" font-size="13.0884" font-family="Helvetica"> 5644</text>
<text xml:space="preserve" x="448.033" y="68.2264" fill="black" font-size="13.0884" font-family="Helvetica">Mean  </text>
<text xml:space="preserve" x="510.574" y="68.2264" fill="black" font-size="13.0884" font-family="Helvetica">  515.4</text>
<text xml:space="preserve" x="448.033" y="82.8464" fill="black" font-size="13.0884" font-family="Helvetica">Std Dev   </text>
<text xml:space="preserve" x="510.574" y="82.8464" fill="black" font-size="13.0884" font-family="Helvetica">  244.9</text>
<path d="M57.1929,345.762h 453.543" fill="none" stroke="black"/>
<path d="M61.6951,336.541v 9.22031" fill="none" stroke="black"/>
<path d="M79.0654,341.152v 4.61016" fill="none" stroke="black"/>
<path d="M96.4356,341.152v 4.61016" fill="none" stroke="black"/>
<path d="M113.806,341.152v 4.61016" fill="none" stroke="black"/>
<path d="M131.176,341.152v 4.61016" fill="none" stroke="black"/>
<path d="M148.546,336.541v 9.22031" fill="none" stroke="black"/>
<path d="M165.917,341.152v 4.61016" fill="none" stroke="black"/>
<path d="M183.287,341.152v 4.61016" fill="none" stroke="black"/>
<path d="M200.657,341.152v 4.61016" fill="none" stroke="black"/>
<path d="M218.027,341.152v 4.61016" fill="none" stroke="black"/>
<path d="M235.398,336.541v 9.22031" fill="none" stroke="black"/>
<path d="M252.768,341.152v 4.61016" fill="none" stroke="black"/>
<path d="M270.138,341.152v 4.61016" fill="none" stroke="black"/>
<path d="M287.508,341.152v 4.61016" fill="none" stroke="black"/>
<path d="M304.879,341.152v 4.61016" fill="none" stroke="black"/>
<path d="M322.249,336.541v 9.22031" fill="none" stroke="black"/>
<path d="M339.619,341.152v 4.61016" fill="none" stroke="black"/>
<path d="M356.989,341.152v 4.61016" fill="none" stroke="black"/>
<path d="M374.36,341.152v 4.61016" fill="none" stroke="black"/>
<path d="M391.73,341.152v 4.61016" fill="none" stroke="black"/>
<path d="M409.1,336.541v 9.22031" fill="none" stroke="black"/>
<path d="M426.47,341.152v 4.61016" fill="none" stroke="black"/>
<path d="M443.841,341.152v 4.61016" fill="none" stroke="black"/>
<path d="M461.211,341.152v 4.61016" fill="none" stroke="black"/>
<path d="M478.581,341.152v 4.61016" fill="none" stroke="black"/>
<path d="M495.951,336.541v 9.22031" fill="none" stroke="black"/>
<path d="M61.6951,336.541v 9.22031" fill="none" stroke="black"/>
<path d="M495.951,336.541v 9.22031" fill="none" stroke="black"/>
<text xml:space="preserve" x="58.1676" y="358.189" fill="black" font-size="12.836" font-family="Helvetica">0</text>
<text xml:space="preserve" x="137.765" y="358.189" fill="black" font-size="12.836" font-family="Helvetica">500</text>
<text xml:space="preserve" x="221.424" y="358.189" fill="black" font-size="12.836" font-family="Helvetica">1000</text>
<text xml:space="preserve" x="308.331" y="358.189" fill="black" font-size="12.836" font-family="Helvetica">1500</text>
<text xml:space="preserve" x="395.239" y="358.189" fill="black" font-size="12.836" font-family="Helvetica">2000</text>
<text xml:space="preserve" x="481.334" y="358.189" fill="black" font-size="12.836" font-family="Helvetica">2500</text>
<text xml:space="preserve" x="531.691" y="338.695" fill="black" font-size="8.72403" font-family="Helvetica">3</text>
<text xml:space="preserve" x="518.696" y="345.193" fill="black" font-size="12.836" font-family="Helvetica">10</text>
<text xml:space="preserve" x="512.198" y="345.193" fill="black" font-size="12.836" font-family="Times">&#0215;</text>
<text xml:space="preserve" x="446.408" y="370.372" fill="black" font-size="12.836" font-family="Helvetica">Energy[eV] </text>
<path d="M57.1929,345.762v -307.344" fill="none" stroke="black"/>
<path d="M70.7992,345.762h -13.6063" fill="none" stroke="black"/>
<path d="M63.9961,330.674h -6.80315" fill="none" stroke="black"/>
<path d="M63.9961,315.586h -6.80315" fill="none" stroke="black"/>
<path d="M63.9961,300.498h -6.80315" fill="none" stroke="black"/>
<path d="M70.7992,285.41h -13.6063" fill="none" stroke="black"/>
<path d="M63.9961,270.322h -6.80315" fill="none" stroke="black"/>
<path d="M63.9961,255.233h -6.80315" fill="none" stroke="black"/>
<path d="M63.9961,240.145h -6.80315" fill="none" stroke="black"/>
<path d="M70.7992,225.057h -13.6063" fill="none" stroke="black"/>
<path d="M63.9961,209.969h -6.80315" fill="none" stroke="black"/>
<path d="M63.9961,194.881h -6.80315" fill="none" stroke="black"/>
<path d="M63.9961,179.793h -6.80315" fill="none" stroke="black"/>
<path d="M70.7992,164.705h -13.6063" fill="none" stroke="black"/>
<path d="M63.9961,149.617h -6.80315" fill="none" stroke="black"/>
<path d="M63.9961,134.529h -6.80315" fill="none" stroke="black"/>
<path d="M63.9961,119.441h -6.80315" fill="none" stroke="black"/>
<path d="M70.7992,104.353h -13.6063" fill="none" stroke="black"/>
<path d="M63.9961,89.2647h -6.80315" fill="none" stroke="black"/>
<path d="M63.9961,74.1767h -6.80315" fill="none" stroke="black"/>
<path d="M63.9961,59.0886h -6.80315" fill="none" stroke="black"/>
<path d="M70.7992,44.0006h -13.6063" fill="none" stroke="black"/>
<path d="M70.7992,44.0006h -13.6063" fill="none" stroke="black"/>
<text xml:space="preserve" x="47.6087" y="350.067" fill="black" font-size="12.836" font-family="Helvetica">0</text>
<text xml:space="preserve" x="41.111" y="289.962" fill="black" font-size="12.836" font-family="Helvetica">20</text>
<text xml:space="preserve" x="41.111" y="229.858" fill="black" font-size="12.836" font-family="Helvetica">40</text>
<text xml:space="preserve" x="41.111" y="168.942" fill="black" font-size="12.836" font-family="Helvetica">60</text>
<text xml:space="preserve" x="41.111" y="108.837" fill="black" font-size="12.836" font-family="Helvetica">80</text>
<text xml:space="preserve" x="33.801" y="48.7332" fill="black" font-size="12.836" font-family="Helvetica">100</text>
<g transform="rotate(-90,21.6177,76.3486)">
<text xml:space="preserve" x="21.6177" y="76.3486" fill="black" font-size="12.836" font-family="Helvetica">Counts</text>
</g>
<rect x="442.705" y="24.9717" width="113.386" height="61.4688" fill="white"/>
<path d="M442.705,86.4405h 113.386" fill="none" stroke="black"/>
<path d="M556.091,86.4405v -61.4688" fill="none" stroke="black"/>
<path d="M556.091,24.9717h -113.386" fill="none" stroke="black"/>
<path d="M442.705,24.9717v 61.4688" fill="none" stroke="black"/>
<text xml:space="preserve" x="488.644" y="37.3621" fill="black" font-size="13.4705" font-family="Helvetica">hist</text>
<path d="M442.705,40.3389h 113.386" fill="none" stroke="black"/>
<text xml:space="preserve" x="448.033" y="52.7943" fill="black" font-size="13.0884" font-family="Helvetica">Entries </text>
<text xml:space="preserve" x="517.884" y="52.7943" fill="black" font-size="13.0884" font-family="Helvetica"> 5644</text>
<text xml:space="preserve" x="448.033" y="68.2264" fill="black" font-size="13.0884" font-family="Helvetica">Mean  </text>
<text xml:space="preserve" x="510.574" y="68.2264" fill="black" font-size="13.0884" font-family="Helvetica">  515.4</text>
<text xml:space="preserve" x="448.033" y="82.8464" fill="black" font-size="13.0884" font-family="Helvetica">Std Dev   </text>
<text xml:space="preserve" x="510.574" y="82.8464" fill="black" font-size="13.0884" font-family="Helvetica">  244.9</text>
<text xml:space="preserve" x="218.987" y="18.681" fill="black" font-size="16.9774" font-family="Helvetica">Na at detector C </text></svg>
