<?xml version="1.0" standalone="no"?>
<svg width="567.429" height="386.304" viewBox="0 0 567.429 386.304" xmlns="http://www.w3.org/2000/svg" shape-rendering="crispEdges">
<title>
img/main_mesurement/Na_C.svg
</title>
<desc>
Creator: ROOT Version 6.22/08
CreationDate: Tue Jun  8 01:39:46 2021</desc>
<defs>
</defs>
<rect x="0.5" y="0" width="566.929" height="385.804" fill="white"/>
<rect x="57.1929" y="38.5804" width="453.543" height="308.643" fill="white"/>
<rect x="57.1929" y="38.5804" width="453.543" height="308.643" fill="none" stroke="black"/>
<rect x="57.1929" y="38.5804" width="453.543" height="308.643" fill="white"/>
<rect x="57.1929" y="38.5804" width="453.543" height="308.643" fill="none" stroke="black"/>
<path d="M57.1929,343.084h 0.453543v 4.14009h 12.2457v -4.14009h 0.453543v 4.14009h 2.72126v -4.14009h 0.453543v 4.14009h 0.453543v -8.28017h 0.453543v 8.28017h 1.36063v -4.14009h 0.453543v -8.28017h 0.453543v 4.14009h 1.36063v -4.14009h 0.453543v
 4.14009h 0.453543v 8.28017h 0.453543v -12.4203h 0.453543v -12.4203h 0.453543v 16.5603h 0.453543v 4.14009h 0.453543v -12.4203h 0.453543v -4.14009h 1.36063v -12.4203h 0.453543v 8.28017h 0.453543v 4.14009h 0.453543v -4.14009h 0.453543v -8.28017h
 0.453543v 12.4203h 0.453543v -4.14009h 0.453543v -8.28017h 0.453543v -12.4203h 0.453543v -24.8405h 0.453543v 33.1207h 0.453543v 8.28017h 0.453543v -20.7004h 0.453543v -24.8405h 0.453543v -20.7004h 0.453543v 12.4203h 0.453543v 20.7004h 0.453543v
 -4.14009h 0.453543v -8.28017h 0.453543v 20.7004h 0.907087v 12.4203h 0.453543v -37.2608h 0.453543v 20.7004h 0.907087v 4.14009h 0.453543v -20.7004h 0.453543v 24.8405h 0.453543v -4.14009h 0.453543v -8.28017h 0.453543v -57.9612h 0.453543v 70.3815h
 0.453543v -49.681h 0.453543v 41.4009h 0.453543v -49.681h 0.453543v 12.4203h 0.453543v 12.4203h 0.453543v 20.7004h 0.453543v -37.2608h 0.453543v 28.9806h 0.453543v -12.4203h 0.453543v -4.14009h 0.453543v 33.1207h 0.453543v -24.8405h 0.453543v 49.681h
 0.453543v -33.1207h 0.453543v 12.4203h 0.453543v -8.28017h 0.453543v 16.5603h 0.453543v -20.7004h 0.453543v 28.9806h 0.453543v -53.8211h 0.453543v 28.9806h 0.453543v -20.7004h 0.453543v 20.7004h 0.453543v -12.4203h 0.453543v -12.4203h 0.453543v
 24.8405h 0.453543v -45.5409h 0.453543v 4.14009h 0.453543v 4.14009h 0.453543v 16.5603h 0.453543v 20.7004h 0.453543v -12.4203h 0.453543v 53.8211h 0.453543v -28.9806h 0.453543v -33.1207h 0.453543v -8.28017h 0.453543v -4.14009h 0.453543v 12.4203h
 0.453543v 20.7004h 0.907087v -20.7004h 0.453543v 28.9806h 0.453543v -20.7004h 0.453543v 16.5603h 0.453543v -20.7004h 0.453543v -4.14009h 0.453543v 20.7004h 0.453543v 20.7004h 0.453543v -24.8405h 0.453543v 8.28017h 0.453543v 16.5603h 0.453543v
 -24.8405h 0.453543v 16.5603h 0.453543v -12.4203h 0.453543v 20.7004h 0.453543v 8.28017h 0.453543v -16.5603h 0.453543v -8.28017h 0.453543v -8.28017h 0.453543v -4.14009h 0.453543v -16.5603h 0.453543v 24.8405h 0.453543v 12.4203h 0.453543v -8.28017h
 0.453543v -16.5603h 0.907087v 8.28017h 0.453543v -8.28017h 0.453543v 16.5603h 0.453543v 28.9806h 0.453543v -16.5603h 0.453543v -28.9806h 0.453543v -33.1207h 0.453543v 37.2608h 0.453543v 12.4203h 0.453543v -20.7004h 0.453543v 20.7004h 0.907087v
 -8.28017h 0.453543v -8.28017h 0.453543v -4.14009h 0.907087v 28.9806h 0.453543v -41.4009h 0.453543v 24.8405h 0.453543v -41.4009h 0.453543v 37.2608h 0.453543v 33.1207h 0.453543v -24.8405h 0.453543v 16.5603h 0.453543v -49.681h 0.453543v 20.7004h
 0.453543v -16.5603h 0.453543v 4.14009h 0.453543v -12.4203h 0.453543v 16.5603h 0.453543v -12.4203h 0.453543v -20.7004h 0.453543v -28.9806h 0.453543v 28.9806h 0.453543v -12.4203h 0.453543v -4.14009h 0.907087v -45.5409h 0.453543v -16.5603h 0.453543v
 8.28017h 0.907087v -41.4009h 0.453543v -33.1207h 0.453543v 41.4009h 0.453543v -74.5215h 0.453543v 37.2608h 0.453543v -41.4009h 0.453543v 53.8211h 0.453543v -37.2608h 0.453543v 28.9806h 0.453543v 8.28017h 0.453543v -49.681h 0.453543v 37.2608h
 0.453543v -12.4203h 0.907087v 62.1013h 0.907087v 41.4009h 0.453543v 28.9806h 0.453543v -24.8405h 0.453543v 41.4009h 0.453543v -12.4203h 0.453543v -4.14009h 0.453543v 33.1207h 0.453543v 33.1207h 0.453543v 16.5603h 0.453543v -16.5603h 0.453543v
 24.8405h 0.453543v 16.5603h 0.907087v -20.7004h 0.453543v 28.9806h 0.453543v -12.4203h 0.453543v 24.8405h 0.453543v -8.28017h 0.453543v 12.4203h 0.453543v -12.4203h 0.453543v 4.14009h 0.453543v -4.14009h 0.453543v 12.4203h 0.453543v -8.28017h
 0.453543v 4.14009h 0.453543v 4.14009h 0.453543v -4.14009h 0.453543v -4.14009h 0.907087v 8.28017h 1.36063v -4.14009h 0.453543v 4.14009h 0.453543v -4.14009h 0.453543v 4.14009h 0.453543v -4.14009h 0.453543v 4.14009h 0.453543v -8.28017h 0.453543v
 8.28017h 0.907087v -4.14009h 0.453543v 4.14009h 1.36063v -4.14009h 0.453543v -12.4203h 0.453543v 12.4203h 0.453543v 4.14009h 0.453543v -4.14009h 0.907087v 4.14009h 1.36063v -4.14009h 0.453543v 4.14009h 0.907087v -4.14009h 0.453543v 4.14009h
 0.907087v -4.14009h 0.453543v 4.14009h 2.26772v -4.14009h 0.907087v 4.14009h 1.36063v -4.14009h 0.453543v 4.14009h 2.26772v -4.14009h 0.453543v 4.14009h 2.26772v -16.5603h 0.453543v 16.5603h 0.453543v -4.14009h 0.453543v 4.14009h 1.81417v -4.14009h
 0.907087v 4.14009h 0.453543v -8.28017h 0.907087v 4.14009h 0.907087v 4.14009h 2.26772v -8.28017h 0.453543v 8.28017h 0.907087v -8.28017h 0.453543v -4.14009h 0.453543v 12.4203h 1.36063v -4.14009h 0.453543v 4.14009h 0.453543v -4.14009h 0.453543v
 4.14009h 0.907087v -8.28017h 0.453543v 8.28017h 0.453543v -4.14009h 0.907087v 4.14009h 0.907087v -8.28017h 0.453543v 4.14009h 0.453543v 4.14009h 0.907087v -8.28017h 0.453543v -4.14009h 0.453543v 12.4203h 1.81417v -4.14009h 0.907087v 4.14009h
 0.907087v -4.14009h 0.453543v 4.14009h 0.907087v -4.14009h 0.453543v 4.14009h 1.36063v -4.14009h 1.81417v 4.14009h 0.453543v -4.14009h 0.453543v 4.14009h 0.453543v -4.14009h 1.36063v 4.14009h 0.453543v -8.28017h 0.453543v 4.14009h 0.453543v 4.14009h
 0.453543v -4.14009h 0.907087v 4.14009h 0.453543v -8.28017h 0.907087v 8.28017h 0.453543v -4.14009h 0.453543v 4.14009h 0.453543v -8.28017h 0.453543v -4.14009h 0.453543v 12.4203h 0.907087v -8.28017h 0.907087v 8.28017h 0.453543v -4.14009h 1.36063v
 -4.14009h 0.453543v 8.28017h 0.907087v -4.14009h 0.907087v 4.14009h 1.36063v -4.14009h 0.453543v 4.14009h 0.453543v -8.28017h 0.453543v 8.28017h 1.81417v -8.28017h 0.453543v 8.28017h 2.26772v -12.4203h 0.453543v 8.28017h 0.907087v 4.14009h 0.453543v
 -4.14009h 0.453543v 4.14009h 0.453543v -8.28017h 0.453543v 4.14009h 0.453543v 4.14009h 0.907087v -12.4203h 0.453543v 12.4203h 0.907087v -4.14009h 0.907087v 4.14009h 0.907087v -4.14009h 1.36063v 4.14009h 1.81417v -8.28017h 0.453543v 8.28017h 2.26772v
 -4.14009h 0.453543v 4.14009h 0.453543v -4.14009h 0.453543v 4.14009h 1.36063v -4.14009h 0.453543v 4.14009h 0.453543v -4.14009h 0.453543v 4.14009h 0.907087v -4.14009h 0.453543v 4.14009h 4.08189v -4.14009h 0.453543v 4.14009h 0.453543v -4.14009h
 0.453543v 4.14009h 4.08189v -4.14009h 0.453543v 4.14009h 1.36063v -4.14009h 0.453543v 4.14009h 0.907087v -8.28017h 0.453543v 4.14009h 0.907087v -4.14009h 0.907087v 8.28017h 0.453543v -4.14009h 2.26772v 4.14009h 0.453543v -4.14009h 0.453543v 4.14009h
 0.453543v -8.28017h 0.453543v 4.14009h 0.453543v 4.14009h 0.453543v -8.28017h 0.453543v 4.14009h 0.453543v -4.14009h 0.453543v 4.14009h 0.907087v 4.14009h 0.453543v -8.28017h 0.907087v -4.14009h 0.453543v 8.28017h 0.453543v -4.14009h 0.907087v
 -4.14009h 0.453543v 12.4203h 0.453543v -8.28017h 0.453543v 8.28017h 0.453543v -4.14009h 0.453543v -4.14009h 0.453543v 4.14009h 1.81417v 4.14009h 1.36063v -8.28017h 0.453543v 4.14009h 0.453543v 4.14009h 1.36063v -4.14009h 0.453543v 4.14009h 0.453543v
 -4.14009h 0.453543v 4.14009h 0.907087v -4.14009h 0.907087v 4.14009h 2.26772v -4.14009h 0.453543v 4.14009h 5.89606v -4.14009h 0.453543v 4.14009h 5.44252v -4.14009h 0.453543v 4.14009h 1.36063v -4.14009h 0.453543v 4.14009h 3.1748v -4.14009h 0.453543v
 4.14009h 1.36063v -4.14009h 0.453543v 4.14009h 4.53543v -4.14009h 0.453543v 4.14009h 0.907087v -4.14009h 0.453543v 4.14009h 4.53543v -4.14009h 0.453543v 4.14009h 1.36063v -4.14009h 0.453543v 4.14009h 5.44252v -4.14009h 0.453543v 4.14009h 4.53543v
 -4.14009h 0.453543v 4.14009h 10.4315v -4.14009h 0.453543v 4.14009h 1.36063v -4.14009h 0.453543v 4.14009h 1.36063v -4.14009h 0.453543v 4.14009h 0.453543v -4.14009h 0.453543v 4.14009h 0.907087v -4.14009h 0.453543v 4.14009h 6.80315v -4.14009h 0.453543v
 4.14009h 0.453543v -4.14009h 0.453543v 4.14009h 1.81417v -4.14009h 0.907087v 4.14009h 4.53543v -4.14009h 0.453543v 4.14009h 79.3701v -4.14009h 0.453543v 4.14009h 53.9717" fill="none" stroke="#000099"/>
<rect x="442.705" y="25.0773" width="113.386" height="61.7287" fill="white"/>
<path d="M442.705,86.8059h 113.386" fill="none" stroke="black"/>
<path d="M556.091,86.8059v -61.7287" fill="none" stroke="black"/>
<path d="M556.091,25.0773h -113.386" fill="none" stroke="black"/>
<path d="M442.705,25.0773v 61.7287" fill="none" stroke="black"/>
<text xml:space="preserve" x="488.644" y="37.3621" fill="black" font-size="13.5253" font-family="Helvetica">hist</text>
<path d="M442.705,40.5094h 113.386" fill="none" stroke="black"/>
<text xml:space="preserve" x="448.033" y="52.7943" fill="black" font-size="13.5109" font-family="Helvetica">Entries </text>
<text xml:space="preserve" x="517.884" y="52.7943" fill="black" font-size="13.5109" font-family="Helvetica"> 3895</text>
<text xml:space="preserve" x="448.033" y="68.2264" fill="black" font-size="13.5109" font-family="Helvetica">Mean  </text>
<text xml:space="preserve" x="510.574" y="68.2264" fill="black" font-size="13.5109" font-family="Helvetica">  519.2</text>
<text xml:space="preserve" x="448.033" y="84.4708" fill="black" font-size="13.5109" font-family="Helvetica">Std Dev   </text>
<text xml:space="preserve" x="510.574" y="84.4708" fill="black" font-size="13.5109" font-family="Helvetica">  242.7</text>
<path d="M57.1929,347.224h 453.543" fill="none" stroke="black"/>
<path d="M57.1931,337.964v 9.2593" fill="none" stroke="black"/>
<path d="M74.5093,342.594v 4.62965" fill="none" stroke="black"/>
<path d="M91.8255,342.594v 4.62965" fill="none" stroke="black"/>
<path d="M109.142,342.594v 4.62965" fill="none" stroke="black"/>
<path d="M126.458,342.594v 4.62965" fill="none" stroke="black"/>
<path d="M143.774,337.964v 9.2593" fill="none" stroke="black"/>
<path d="M161.09,342.594v 4.62965" fill="none" stroke="black"/>
<path d="M178.407,342.594v 4.62965" fill="none" stroke="black"/>
<path d="M195.723,342.594v 4.62965" fill="none" stroke="black"/>
<path d="M213.039,342.594v 4.62965" fill="none" stroke="black"/>
<path d="M230.355,337.964v 9.2593" fill="none" stroke="black"/>
<path d="M247.671,342.594v 4.62965" fill="none" stroke="black"/>
<path d="M264.988,342.594v 4.62965" fill="none" stroke="black"/>
<path d="M282.304,342.594v 4.62965" fill="none" stroke="black"/>
<path d="M299.62,342.594v 4.62965" fill="none" stroke="black"/>
<path d="M316.936,337.964v 9.2593" fill="none" stroke="black"/>
<path d="M334.252,342.594v 4.62965" fill="none" stroke="black"/>
<path d="M351.569,342.594v 4.62965" fill="none" stroke="black"/>
<path d="M368.885,342.594v 4.62965" fill="none" stroke="black"/>
<path d="M386.201,342.594v 4.62965" fill="none" stroke="black"/>
<path d="M403.517,337.964v 9.2593" fill="none" stroke="black"/>
<path d="M420.833,342.594v 4.62965" fill="none" stroke="black"/>
<path d="M438.15,342.594v 4.62965" fill="none" stroke="black"/>
<path d="M455.466,342.594v 4.62965" fill="none" stroke="black"/>
<path d="M472.782,342.594v 4.62965" fill="none" stroke="black"/>
<path d="M490.098,337.964v 9.2593" fill="none" stroke="black"/>
<path d="M57.1931,337.964v 9.2593" fill="none" stroke="black"/>
<path d="M490.098,337.964v 9.2593" fill="none" stroke="black"/>
<path d="M507.414,342.594v 4.62965" fill="none" stroke="black"/>
<text xml:space="preserve" x="52.482" y="359.813" fill="black" font-size="12.8882" font-family="Helvetica">0</text>
<text xml:space="preserve" x="132.08" y="359.813" fill="black" font-size="12.8882" font-family="Helvetica">500</text>
<text xml:space="preserve" x="214.926" y="359.813" fill="black" font-size="12.8882" font-family="Helvetica">1000</text>
<text xml:space="preserve" x="301.833" y="359.813" fill="black" font-size="12.8882" font-family="Helvetica">1500</text>
<text xml:space="preserve" x="388.741" y="359.813" fill="black" font-size="12.8882" font-family="Helvetica">2000</text>
<text xml:space="preserve" x="474.836" y="359.813" fill="black" font-size="12.8882" font-family="Helvetica">2500</text>
<text xml:space="preserve" x="534.128" y="339.508" fill="black" font-size="8.75881" font-family="Helvetica">3</text>
<text xml:space="preserve" x="519.508" y="346.818" fill="black" font-size="12.8882" font-family="Helvetica">10</text>
<text xml:space="preserve" x="512.198" y="346.818" fill="black" font-size="12.8882" font-family="Times">&#0215;</text>
<path d="M57.1929,347.224v -308.643" fill="none" stroke="black"/>
<path d="M70.7992,347.224h -13.6063" fill="none" stroke="black"/>
<path d="M63.9961,338.944h -6.80315" fill="none" stroke="black"/>
<path d="M63.9961,330.663h -6.80315" fill="none" stroke="black"/>
<path d="M63.9961,322.383h -6.80315" fill="none" stroke="black"/>
<path d="M63.9961,314.103h -6.80315" fill="none" stroke="black"/>
<path d="M70.7992,305.823h -13.6063" fill="none" stroke="black"/>
<path d="M63.9961,297.543h -6.80315" fill="none" stroke="black"/>
<path d="M63.9961,289.263h -6.80315" fill="none" stroke="black"/>
<path d="M63.9961,280.982h -6.80315" fill="none" stroke="black"/>
<path d="M63.9961,272.702h -6.80315" fill="none" stroke="black"/>
<path d="M70.7992,264.422h -13.6063" fill="none" stroke="black"/>
<path d="M63.9961,256.142h -6.80315" fill="none" stroke="black"/>
<path d="M63.9961,247.862h -6.80315" fill="none" stroke="black"/>
<path d="M63.9961,239.582h -6.80315" fill="none" stroke="black"/>
<path d="M63.9961,231.301h -6.80315" fill="none" stroke="black"/>
<path d="M70.7992,223.021h -13.6063" fill="none" stroke="black"/>
<path d="M63.9961,214.741h -6.80315" fill="none" stroke="black"/>
<path d="M63.9961,206.461h -6.80315" fill="none" stroke="black"/>
<path d="M63.9961,198.181h -6.80315" fill="none" stroke="black"/>
<path d="M63.9961,189.901h -6.80315" fill="none" stroke="black"/>
<path d="M70.7992,181.62h -13.6063" fill="none" stroke="black"/>
<path d="M63.9961,173.34h -6.80315" fill="none" stroke="black"/>
<path d="M63.9961,165.06h -6.80315" fill="none" stroke="black"/>
<path d="M63.9961,156.78h -6.80315" fill="none" stroke="black"/>
<path d="M63.9961,148.5h -6.80315" fill="none" stroke="black"/>
<path d="M70.7992,140.22h -13.6063" fill="none" stroke="black"/>
<path d="M63.9961,131.939h -6.80315" fill="none" stroke="black"/>
<path d="M63.9961,123.659h -6.80315" fill="none" stroke="black"/>
<path d="M63.9961,115.379h -6.80315" fill="none" stroke="black"/>
<path d="M63.9961,107.099h -6.80315" fill="none" stroke="black"/>
<path d="M70.7992,98.8187h -13.6063" fill="none" stroke="black"/>
<path d="M63.9961,90.5385h -6.80315" fill="none" stroke="black"/>
<path d="M63.9961,82.2583h -6.80315" fill="none" stroke="black"/>
<path d="M63.9961,73.9782h -6.80315" fill="none" stroke="black"/>
<path d="M63.9961,65.698h -6.80315" fill="none" stroke="black"/>
<path d="M70.7992,57.4178h -13.6063" fill="none" stroke="black"/>
<path d="M70.7992,57.4178h -13.6063" fill="none" stroke="black"/>
<path d="M63.9961,49.1376h -6.80315" fill="none" stroke="black"/>
<path d="M63.9961,40.8575h -6.80315" fill="none" stroke="black"/>
<text xml:space="preserve" x="46.7965" y="351.691" fill="black" font-size="12.8882" font-family="Helvetica">0</text>
<text xml:space="preserve" x="39.4865" y="310.268" fill="black" font-size="12.8882" font-family="Helvetica">10</text>
<text xml:space="preserve" x="39.4865" y="268.845" fill="black" font-size="12.8882" font-family="Helvetica">20</text>
<text xml:space="preserve" x="39.4865" y="227.421" fill="black" font-size="12.8882" font-family="Helvetica">30</text>
<text xml:space="preserve" x="39.4865" y="185.998" fill="black" font-size="12.8882" font-family="Helvetica">40</text>
<text xml:space="preserve" x="39.4865" y="144.575" fill="black" font-size="12.8882" font-family="Helvetica">50</text>
<text xml:space="preserve" x="39.4865" y="103.152" fill="black" font-size="12.8882" font-family="Helvetica">60</text>
<text xml:space="preserve" x="39.4865" y="61.7287" fill="black" font-size="12.8882" font-family="Helvetica">70</text>
<rect x="442.705" y="25.0773" width="113.386" height="61.7287" fill="white"/>
<path d="M442.705,86.8059h 113.386" fill="none" stroke="black"/>
<path d="M556.091,86.8059v -61.7287" fill="none" stroke="black"/>
<path d="M556.091,25.0773h -113.386" fill="none" stroke="black"/>
<path d="M442.705,25.0773v 61.7287" fill="none" stroke="black"/>
<text xml:space="preserve" x="488.644" y="37.3621" fill="black" font-size="13.5253" font-family="Helvetica">hist</text>
<path d="M442.705,40.5094h 113.386" fill="none" stroke="black"/>
<text xml:space="preserve" x="448.033" y="52.7943" fill="black" font-size="13.5109" font-family="Helvetica">Entries </text>
<text xml:space="preserve" x="517.884" y="52.7943" fill="black" font-size="13.5109" font-family="Helvetica"> 3895</text>
<text xml:space="preserve" x="448.033" y="68.2264" fill="black" font-size="13.5109" font-family="Helvetica">Mean  </text>
<text xml:space="preserve" x="510.574" y="68.2264" fill="black" font-size="13.5109" font-family="Helvetica">  519.2</text>
<text xml:space="preserve" x="448.033" y="84.4708" fill="black" font-size="13.5109" font-family="Helvetica">Std Dev   </text>
<text xml:space="preserve" x="510.574" y="84.4708" fill="black" font-size="13.5109" font-family="Helvetica">  242.7</text>
<text xml:space="preserve" x="222.236" y="18.681" fill="black" font-size="17.0471" font-family="Helvetica">Na at detector C</text></svg>
